<?xml version="1.0" standalone="no"?>
<!DOCTYPE svg PUBLIC "-//W3C//DTD SVG 20010904//EN"
 "http://www.w3.org/TR/2001/REC-SVG-20010904/DTD/svg10.dtd">
<svg version="1.0" xmlns="http://www.w3.org/2000/svg"
 width="700.000000pt" height="700.000000pt" viewBox="0 0 700.000000 700.000000"
 preserveAspectRatio="xMidYMid meet">
<metadata>
Created by potrace 1.14, written by Peter Selinger 2001-2017
</metadata>
<g transform="translate(0.000000,700.000000) scale(0.100000,-0.100000)"
fill="#000000" stroke="none">
<path d="M3245 5430 c-3 -5 3 -29 14 -52 10 -24 49 -113 86 -198 37 -85 92
-211 122 -280 30 -69 74 -170 98 -225 59 -138 213 -491 235 -540 10 -22 30
-68 44 -102 14 -35 37 -86 50 -115 13 -29 47 -107 76 -173 28 -66 60 -139 71
-162 10 -23 19 -44 19 -47 0 -4 30 -72 86 -194 13 -29 24 -55 24 -57 0 -3 9
-24 19 -48 40 -87 81 -180 81 -183 0 -2 -192 -5 -426 -6 l-427 -3 -156 -367
-156 -368 -785 0 -785 0 -19 -48 c-10 -26 -24 -60 -31 -77 -6 -16 -25 -61 -40
-100 -15 -38 -31 -79 -36 -90 -27 -65 -60 -148 -72 -181 -24 -66 -78 -198 -88
-217 -5 -10 -7 -22 -4 -26 2 -5 355 -8 782 -7 l778 1 145 360 c80 198 148 365
152 371 5 7 237 10 750 10 l742 -1 38 -85 c20 -47 46 -105 57 -130 11 -25 35
-81 54 -125 19 -44 45 -105 59 -135 14 -30 42 -96 63 -146 l38 -91 426 1 c484
1 441 -9 397 90 -13 28 -60 137 -105 241 -45 105 -86 197 -91 206 -5 10 -21
46 -36 80 -32 78 -319 742 -339 785 -14 31 -93 212 -282 649 -52 121 -103 238
-113 260 -20 46 -85 195 -207 475 -47 107 -137 314 -200 460 -64 146 -121 279
-128 295 -12 31 -27 65 -93 215 l-38 85 -422 2 c-237 1 -424 -3 -427 -7z"/>
</g>
</svg>
