<svg width="43" height="37" viewBox="0 0 43 37" fill="none" xmlns="http://www.w3.org/2000/svg">
<mask id="mask0_2118_514" style="mask-type:luminance" maskUnits="userSpaceOnUse" x="0" y="0" width="43" height="37">
<path d="M42.083 0H0V37H42.083V0Z" fill="white"/>
</mask>
<g mask="url(#mask0_2118_514)">
<path d="M16.376 27.6438H0M32.836 27.6438H40.7V18.4148L20.223 12.4488L12.4 1.38281H0" stroke="#C4A08A" stroke-width="1.417" stroke-miterlimit="10"/>
<path d="M32.8358 27.644C32.836 26.0664 32.3683 24.5242 31.492 23.2124C30.6157 21.9006 29.37 20.8781 27.9125 20.2743C26.4551 19.6705 24.8513 19.5125 23.304 19.8202C21.7567 20.1279 20.3354 20.8876 19.2199 22.0031C18.1044 23.1186 17.3447 24.5399 17.037 26.0872C16.7293 27.6345 16.8873 29.2383 17.4911 30.6957C18.0949 32.1532 19.1174 33.3989 20.4292 34.2752C21.741 35.1516 23.2832 35.6192 24.8608 35.619C26.9758 35.6187 29.0041 34.7784 30.4997 33.2829C31.9952 31.7873 32.8355 29.759 32.8358 27.644Z" stroke="#C52D1F" stroke-width="1.417" stroke-miterlimit="10"/>
</g>
</svg>
