<svg width="3778" height="117" viewBox="0 0 3778 117" fill="none" xmlns="http://www.w3.org/2000/svg">
<g clip-path="url(#clip0_2019_11)">
<path d="M272.7 34L297 59.8V34H305.5V59.8L329.8 34H335.9L316.2 55.2L328.8 72.6C329.4 73.4667 330.1 74.3333 330.9 75.2C331.7 76.0667 332.533 76.8667 333.4 77.6C334.333 78.2667 335.233 78.8333 336.1 79.3C337.033 79.7667 337.9 80 338.7 80H341.5V84C340.633 84.2667 339.633 84.5333 338.5 84.8C337.367 85.0667 336.2 85.2 335 85.2C332.333 85.2 330 84.3667 328 82.7C326 80.9667 324.233 79.0333 322.7 76.9L310.9 60.6L305.5 66.4V84H297V66.4L291.6 60.6L279.8 76.9C278.267 79.0333 276.5 80.9667 274.5 82.7C272.5 84.3667 270.167 85.2 267.5 85.2C266.3 85.2 265.133 85.0667 264 84.8C262.867 84.5333 261.867 84.2667 261 84V80H263.8C264.6 80 265.433 79.7667 266.3 79.3C267.167 78.8333 268.033 78.2667 268.9 77.6C269.833 76.8667 270.7 76.0667 271.5 75.2C272.367 74.3333 273.1 73.4667 273.7 72.6L286.3 55.2L266.6 34H272.7ZM359.973 78.1L385.473 34H395.473V84H386.973V40.2L361.473 84H351.473V34H359.973V78.1ZM426.934 36.9C425.467 36.9 424.067 37.0667 422.734 37.4C421.4 37.6667 420.2 38.2333 419.134 39.1C418.067 39.9 417.167 41 416.434 42.4C415.7 43.8 415.2 45.6 414.934 47.8H408.934C409 46.2667 409.367 44.6333 410.034 42.9C410.7 41.1 411.767 39.4667 413.234 38C414.7 36.5333 416.667 35.3333 419.134 34.4C421.6 33.4 424.667 32.9 428.334 32.9C431.734 32.9 434.6 33.3333 436.934 34.2C439.334 35 441.234 36.0667 442.634 37.4C444.1 38.6667 445.134 40.1 445.734 41.7C446.4 43.2333 446.734 44.7 446.734 46.1C446.734 46.5 446.634 47.3 446.434 48.5C446.3 49.6333 445.867 50.8333 445.134 52.1C444.4 53.3 443.267 54.4333 441.734 55.5C440.2 56.5667 438.034 57.2333 435.234 57.5V58.2C437.634 58.2 439.734 58.6 441.534 59.4C443.4 60.1333 444.934 61.1 446.134 62.3C447.4 63.5 448.367 64.8667 449.034 66.4C449.7 67.8667 450.034 69.4 450.034 71C450.034 72.5333 449.667 74.1333 448.934 75.8C448.2 77.4667 446.934 79 445.134 80.4C443.4 81.8 441.034 82.9667 438.034 83.9C435.034 84.7667 431.267 85.2 426.734 85.2C423.8 85.2 421.267 84.9667 419.134 84.5C417.067 84.1 415.234 83.5 413.634 82.7C412.1 81.8333 410.767 80.7333 409.634 79.4C408.5 78.0667 407.434 76.5 406.434 74.7L411.134 70.8C411.6 72.6 412.367 74.2 413.434 75.6C414.5 76.9333 415.734 78.0667 417.134 79C418.6 79.8667 420.167 80.5333 421.834 81C423.567 81.4667 425.334 81.7 427.134 81.7C431.134 81.7 434.367 80.7 436.834 78.7C439.367 76.6333 440.634 73.8333 440.634 70.3C440.634 67.9 440.067 66.0333 438.934 64.7C437.8 63.3 436.434 62.2667 434.834 61.6C433.3 60.9333 431.7 60.5333 430.034 60.4C428.434 60.2 427.134 60.1 426.134 60.1H422.534V56.7H425.934C427.534 56.7 429.1 56.5 430.634 56.1C432.167 55.7 433.534 55.1 434.734 54.3C435.934 53.5 436.867 52.4667 437.534 51.2C438.267 49.8667 438.634 48.3 438.634 46.5C438.634 43.7 437.667 41.4 435.734 39.6C433.867 37.8 430.934 36.9 426.934 36.9ZM471.496 60.1V84H462.996V34H471.496V56.7H496.796V34H505.296V84H496.796V60.1H471.496ZM521.297 34H529.797V56.7H541.797C543.397 56.7 545.364 56.8 547.697 57C550.03 57.2 552.264 57.7667 554.397 58.7C556.53 59.5667 558.33 60.9333 559.797 62.8C561.33 64.6667 562.097 67.3 562.097 70.7C562.097 72.7667 561.664 74.6333 560.797 76.3C559.997 77.9 558.93 79.3 557.597 80.5C556.264 81.6333 554.697 82.5 552.897 83.1C551.164 83.7 549.397 84 547.597 84H521.297V34ZM529.797 80H543.097C545.697 80 547.964 79.2667 549.897 77.8C551.897 76.2667 552.897 73.9333 552.897 70.8C552.897 68.2 552.397 66.2 551.397 64.8C550.397 63.3333 549.23 62.2667 547.897 61.6C546.63 60.8667 545.364 60.4333 544.097 60.3C542.83 60.1667 541.897 60.1 541.297 60.1H529.797V80ZM618.566 78.1L644.066 34H654.066V84H645.566V40.2L620.066 84H610.066V34H618.566V78.1ZM753.788 59.1C753.788 62.5667 753.188 65.9 751.988 69.1C750.788 72.2333 749.055 75 746.788 77.4C744.588 79.8 741.888 81.7 738.688 83.1C735.555 84.5 732.022 85.2 728.088 85.2C724.088 85.2 720.455 84.5 717.188 83.1C713.988 81.6333 711.255 79.7 708.988 77.3C706.788 74.9 705.055 72.1333 703.788 69C702.588 65.8 701.988 62.5 701.988 59.1C701.988 55.6333 702.588 52.3333 703.788 49.2C705.055 46 706.788 43.2 708.988 40.8C711.255 38.4 713.988 36.5 717.188 35.1C720.455 33.6333 724.088 32.9 728.088 32.9C732.022 32.9 735.555 33.6333 738.688 35.1C741.888 36.5 744.588 38.4 746.788 40.8C749.055 43.2 750.788 46 751.988 49.2C753.188 52.3333 753.788 55.6333 753.788 59.1ZM744.288 59.1C744.288 54.4333 743.788 50.6667 742.788 47.8C741.788 44.8667 740.488 42.6 738.888 41C737.288 39.4 735.522 38.3333 733.588 37.8C731.655 37.2 729.788 36.9 727.988 36.9C726.188 36.9 724.322 37.2 722.388 37.8C720.455 38.3333 718.655 39.4 716.988 41C715.388 42.6 714.055 44.8667 712.988 47.8C711.988 50.6667 711.488 54.4333 711.488 59.1C711.488 63.7 711.988 67.4667 712.988 70.4C714.055 73.2667 715.388 75.5 716.988 77.1C718.655 78.7 720.455 79.8 722.388 80.4C724.322 80.9333 726.188 81.2 727.988 81.2C729.788 81.2 731.655 80.9333 733.588 80.4C735.522 79.8 737.288 78.7 738.888 77.1C740.488 75.5 741.788 73.2667 742.788 70.4C743.788 67.4667 744.288 63.7 744.288 59.1ZM780.805 84V38H760.805V34H809.305V38H789.305V84H780.805ZM863.444 80H870.344V94.5H863.344V84H819.344V94.5H812.344V80H819.544L838.244 34H844.244L863.444 80ZM838.944 43.9L824.244 80H854.444L839.544 43.9H838.944ZM879.305 34H887.805V56.7H899.805C901.405 56.7 903.371 56.8 905.705 57C908.038 57.2 910.271 57.7667 912.405 58.7C914.538 59.5667 916.338 60.9333 917.805 62.8C919.338 64.6667 920.105 67.3 920.105 70.7C920.105 72.7667 919.671 74.6333 918.805 76.3C918.005 77.9 916.938 79.3 915.605 80.5C914.271 81.6333 912.705 82.5 910.905 83.1C909.171 83.7 907.405 84 905.605 84H879.305V34ZM930.605 34H939.105V84H930.605V34ZM887.805 80.2H901.105C903.705 80.2 905.971 79.4333 907.905 77.9C909.905 76.3 910.905 73.9333 910.905 70.8C910.905 68.2 910.405 66.2 909.405 64.8C908.405 63.3333 907.238 62.2667 905.905 61.6C904.638 60.8667 903.371 60.4333 902.105 60.3C900.838 60.1667 899.905 60.1 899.305 60.1H887.805V80.2ZM971.686 63.3L956.086 84H950.186L968.786 59.4L950.086 34H960.186L973.886 52.7L987.786 34H993.586L976.786 56.6L997.186 84H986.986L971.686 63.3Z" fill="white"/>
<path d="M129 89C145.569 89 159 75.5685 159 59C159 42.4315 145.569 29 129 29C112.431 29 99 42.4315 99 59C99 75.5685 112.431 89 129 89Z" fill="white"/>
<path d="M1300.5 14H1314.4L1309 21.4H1296.7C1292.97 21.4 1289.53 21.6 1286.4 22C1283.33 22.3333 1280.43 23.5333 1277.7 25.6C1275.3 27.4667 1273.37 30.2333 1271.9 33.9C1270.43 37.5 1269.7 41.4 1269.7 45.6V46.1H1270.1C1270.83 44.4333 1271.83 42.8 1273.1 41.2C1274.37 39.6 1275.9 38.2 1277.7 37C1279.5 35.7333 1281.6 34.7333 1284 34C1286.4 33.2667 1289.13 32.9 1292.2 32.9C1296.6 32.9 1300.37 33.6667 1303.5 35.2C1306.63 36.6667 1309.2 38.6 1311.2 41C1313.2 43.4 1314.67 46.1667 1315.6 49.3C1316.6 52.3667 1317.1 55.5 1317.1 58.7C1317.1 61.9 1316.63 65.0667 1315.7 68.2C1314.77 71.3333 1313.3 74.1667 1311.3 76.7C1309.3 79.2333 1306.7 81.3 1303.5 82.9C1300.37 84.4333 1296.57 85.2 1292.1 85.2C1286.37 85.2 1281.7 84.2333 1278.1 82.3C1274.57 80.3 1271.83 77.8667 1269.9 75C1267.97 72.1333 1266.67 69.1 1266 65.9C1265.33 62.6333 1265 59.7333 1265 57.2V54.5C1265 52.4333 1265.03 50.2333 1265.1 47.9C1265.17 45.5 1265.37 43.1 1265.7 40.7C1266.03 38.2333 1266.57 35.7667 1267.3 33.3C1268.03 30.8333 1269.07 28.5 1270.4 26.3C1272.2 23.3 1274.23 20.9667 1276.5 19.3C1278.83 17.6333 1281.3 16.4 1283.9 15.6C1286.5 14.8 1289.2 14.3333 1292 14.2C1294.8 14.0667 1297.63 14 1300.5 14ZM1274.5 59.3C1274.5 63.7667 1275.07 67.4333 1276.2 70.3C1277.4 73.1 1278.87 75.3333 1280.6 77C1282.4 78.6 1284.33 79.7 1286.4 80.3C1288.47 80.9 1290.37 81.2 1292.1 81.2C1293.43 81.2 1295 80.9333 1296.8 80.4C1298.6 79.8 1300.3 78.7333 1301.9 77.2C1303.5 75.6 1304.83 73.3667 1305.9 70.5C1307.03 67.6333 1307.6 63.9 1307.6 59.3C1307.6 53.7667 1306.9 49.5 1305.5 46.5C1304.1 43.4333 1302.47 41.2 1300.6 39.8C1298.73 38.4 1296.87 37.5667 1295 37.3C1293.13 37.0333 1291.7 36.9 1290.7 36.9C1288.37 36.9 1286.2 37.3333 1284.2 38.2C1282.27 39.0667 1280.57 40.4333 1279.1 42.3C1277.63 44.1 1276.5 46.4333 1275.7 49.3C1274.9 52.1 1274.5 55.4333 1274.5 59.3ZM1374.51 61.2H1336.51C1336.51 65.2667 1337.11 68.6 1338.31 71.2C1339.51 73.8 1341.01 75.8333 1342.81 77.3C1344.61 78.7667 1346.54 79.8 1348.61 80.4C1350.74 80.9333 1352.74 81.2 1354.61 81.2C1356.28 81.2 1357.78 81.0333 1359.11 80.7C1360.51 80.3 1361.84 79.7667 1363.11 79.1C1364.38 78.4333 1365.61 77.6 1366.81 76.6C1368.08 75.6 1369.41 74.5 1370.81 73.3L1374.01 76.5C1371.34 79.3 1368.21 81.4667 1364.61 83C1361.01 84.4667 1357.08 85.2 1352.81 85.2C1348.41 85.2 1344.58 84.4667 1341.31 83C1338.11 81.4667 1335.44 79.4667 1333.31 77C1331.24 74.4667 1329.68 71.6333 1328.61 68.5C1327.61 65.3 1327.11 62.0333 1327.11 58.7C1327.11 54.7 1327.71 51.1333 1328.91 48C1330.11 44.8 1331.78 42.1 1333.91 39.9C1336.04 37.6333 1338.54 35.9333 1341.41 34.8C1344.28 33.6 1347.41 33 1350.81 33C1354.01 33 1357.04 33.5333 1359.91 34.6C1362.78 35.6667 1365.28 37.2667 1367.41 39.4C1369.61 41.5333 1371.34 44.2333 1372.61 47.5C1373.88 50.7667 1374.51 54.6333 1374.51 59.1V61.2ZM1336.51 57.2H1365.81C1365.81 50.7333 1364.48 45.6667 1361.81 42C1359.21 38.2667 1355.54 36.4 1350.81 36.4C1348.34 36.4 1346.21 37 1344.41 38.2C1342.61 39.3333 1341.11 40.8667 1339.91 42.8C1338.78 44.7333 1337.91 46.9667 1337.31 49.5C1336.78 51.9667 1336.51 54.5333 1336.51 57.2ZM1387.53 109V34H1396.03V42.1H1396.43C1398.9 35.9667 1404.1 32.9 1412.03 32.9C1415.36 32.9 1418.43 33.5333 1421.23 34.8C1424.03 36 1426.43 37.7667 1428.43 40.1C1430.5 42.3667 1432.1 45.1 1433.23 48.3C1434.36 51.5 1434.93 55.1 1434.93 59.1C1434.93 63.0333 1434.36 66.6333 1433.23 69.9C1432.1 73.1 1430.5 75.8333 1428.43 78.1C1426.43 80.3667 1424.03 82.1333 1421.23 83.4C1418.43 84.6 1415.36 85.2 1412.03 85.2C1410.43 85.2 1408.83 85.0333 1407.23 84.7C1405.7 84.3667 1404.23 83.8333 1402.83 83.1C1401.43 82.3667 1400.16 81.4 1399.03 80.2C1397.96 79 1397.1 77.5333 1396.43 75.8H1396.03V109H1387.53ZM1396.03 54V62.7C1396.03 65.4333 1396.4 67.8667 1397.13 70C1397.93 72.1333 1398.96 73.9667 1400.23 75.5C1401.5 76.9667 1402.96 78.1 1404.63 78.9C1406.3 79.6333 1408.06 80 1409.93 80C1412 80 1413.96 79.6333 1415.83 78.9C1417.7 78.1 1419.33 76.8667 1420.73 75.2C1422.2 73.4667 1423.33 71.2667 1424.13 68.6C1425 65.9333 1425.43 62.7 1425.43 58.9C1425.43 55.1667 1425 51.9667 1424.13 49.3C1423.33 46.6333 1422.23 44.4667 1420.83 42.8C1419.43 41.1333 1417.76 39.9333 1415.83 39.2C1413.96 38.4 1412 38 1409.93 38C1408 38 1406.16 38.4333 1404.43 39.3C1402.76 40.1 1401.3 41.2333 1400.03 42.7C1398.76 44.1 1397.76 45.8 1397.03 47.8C1396.36 49.7333 1396.03 51.8 1396.03 54ZM1456.38 78.1L1481.88 34H1491.88V84H1483.38V40.2L1457.88 84H1447.88V34H1456.38V78.1ZM1551.3 78.1L1576.8 34H1586.8V84H1578.3V40.2L1552.8 84H1542.8V34H1551.3V78.1ZM1643.43 34L1667.73 59.8V34H1676.23V59.8L1700.53 34H1706.63L1686.93 55.2L1699.53 72.6C1700.13 73.4667 1700.83 74.3333 1701.63 75.2C1702.43 76.0667 1703.26 76.8667 1704.13 77.6C1705.06 78.2667 1705.96 78.8333 1706.83 79.3C1707.76 79.7667 1708.63 80 1709.43 80H1712.23V84C1711.36 84.2667 1710.36 84.5333 1709.23 84.8C1708.09 85.0667 1706.93 85.2 1705.73 85.2C1703.06 85.2 1700.73 84.3667 1698.73 82.7C1696.73 80.9667 1694.96 79.0333 1693.43 76.9L1681.63 60.6L1676.23 66.4V84H1667.73V66.4L1662.33 60.6L1650.53 76.9C1648.99 79.0333 1647.23 80.9667 1645.23 82.7C1643.23 84.3667 1640.89 85.2 1638.23 85.2C1637.03 85.2 1635.86 85.0667 1634.73 84.8C1633.59 84.5333 1632.59 84.2667 1631.73 84V80H1634.53C1635.33 80 1636.16 79.7667 1637.03 79.3C1637.89 78.8333 1638.76 78.2667 1639.63 77.6C1640.56 76.8667 1641.43 76.0667 1642.23 75.2C1643.09 74.3333 1643.83 73.4667 1644.43 72.6L1657.03 55.2L1637.33 34H1643.43ZM1730.7 78.1L1756.2 34H1766.2V84H1757.7V40.2L1732.2 84H1722.2V34H1730.7V78.1ZM1782.16 34H1803.06C1806.66 34 1809.53 34.4333 1811.66 35.3C1813.86 36.1667 1815.53 37.2333 1816.66 38.5C1817.79 39.7 1818.53 40.9667 1818.86 42.3C1819.19 43.6333 1819.36 44.7667 1819.36 45.7C1819.36 47.3667 1819.03 48.8667 1818.36 50.2C1817.76 51.4667 1816.93 52.6 1815.86 53.6C1814.86 54.5333 1813.69 55.3 1812.36 55.9C1811.03 56.4333 1809.69 56.8333 1808.36 57.1V57.8C1809.76 57.8667 1811.29 58.1 1812.96 58.5C1814.69 58.9 1816.29 59.6 1817.76 60.6C1819.29 61.5333 1820.56 62.8333 1821.56 64.5C1822.56 66.1667 1823.06 68.2667 1823.06 70.8C1823.06 72.4667 1822.73 74.1 1822.06 75.7C1821.39 77.2333 1820.33 78.6333 1818.86 79.9C1817.39 81.1 1815.49 82.1 1813.16 82.9C1810.83 83.6333 1808.03 84 1804.76 84H1782.16V34ZM1790.66 80H1801.06C1801.73 80 1802.76 79.9667 1804.16 79.9C1805.63 79.7667 1807.06 79.4 1808.46 78.8C1809.93 78.2 1811.19 77.2667 1812.26 76C1813.33 74.6667 1813.86 72.8 1813.86 70.4C1813.86 67.9333 1813.29 66 1812.16 64.6C1811.09 63.2 1809.79 62.1667 1808.26 61.5C1806.73 60.8333 1805.13 60.4333 1803.46 60.3C1801.86 60.1667 1800.53 60.1 1799.46 60.1H1790.66V80ZM1790.66 56.7H1799.36C1800.89 56.7 1802.36 56.5 1803.76 56.1C1805.16 55.6333 1806.39 55 1807.46 54.2C1808.53 53.3333 1809.36 52.3333 1809.96 51.2C1810.63 50 1810.96 48.6333 1810.96 47.1C1810.96 46.3 1810.83 45.4 1810.56 44.4C1810.36 43.3333 1809.89 42.3333 1809.16 41.4C1808.43 40.4667 1807.36 39.6667 1805.96 39C1804.63 38.3333 1802.83 38 1800.56 38H1790.66V56.7ZM1844.57 78.1L1870.07 34H1880.07V84H1871.57V40.2L1846.07 84H1836.07V34H1844.57V78.1Z" fill="white"/>
<path d="M1130 89C1146.57 89 1160 75.5685 1160 59C1160 42.4315 1146.57 29 1130 29C1113.43 29 1100 42.4315 1100 59C1100 75.5685 1113.43 89 1130 89Z" fill="white"/>
<path d="M2161.7 34L2186 59.8V34H2194.5V59.8L2218.8 34H2224.9L2205.2 55.2L2217.8 72.6C2218.4 73.4667 2219.1 74.3333 2219.9 75.2C2220.7 76.0667 2221.53 76.8667 2222.4 77.6C2223.33 78.2667 2224.23 78.8333 2225.1 79.3C2226.03 79.7667 2226.9 80 2227.7 80H2230.5V84C2229.63 84.2667 2228.63 84.5333 2227.5 84.8C2226.37 85.0667 2225.2 85.2 2224 85.2C2221.33 85.2 2219 84.3667 2217 82.7C2215 80.9667 2213.23 79.0333 2211.7 76.9L2199.9 60.6L2194.5 66.4V84H2186V66.4L2180.6 60.6L2168.8 76.9C2167.27 79.0333 2165.5 80.9667 2163.5 82.7C2161.5 84.3667 2159.17 85.2 2156.5 85.2C2155.3 85.2 2154.13 85.0667 2153 84.8C2151.87 84.5333 2150.87 84.2667 2150 84V80H2152.8C2153.6 80 2154.43 79.7667 2155.3 79.3C2156.17 78.8333 2157.03 78.2667 2157.9 77.6C2158.83 76.8667 2159.7 76.0667 2160.5 75.2C2161.37 74.3333 2162.1 73.4667 2162.7 72.6L2175.3 55.2L2155.6 34H2161.7ZM2248.97 78.1L2274.47 34H2284.47V84H2275.97V40.2L2250.47 84H2240.47V34H2248.97V78.1ZM2315.93 36.9C2314.47 36.9 2313.07 37.0667 2311.73 37.4C2310.4 37.6667 2309.2 38.2333 2308.13 39.1C2307.07 39.9 2306.17 41 2305.43 42.4C2304.7 43.8 2304.2 45.6 2303.93 47.8H2297.93C2298 46.2667 2298.37 44.6333 2299.03 42.9C2299.7 41.1 2300.77 39.4667 2302.23 38C2303.7 36.5333 2305.67 35.3333 2308.13 34.4C2310.6 33.4 2313.67 32.9 2317.33 32.9C2320.73 32.9 2323.6 33.3333 2325.93 34.2C2328.33 35 2330.23 36.0667 2331.63 37.4C2333.1 38.6667 2334.13 40.1 2334.73 41.7C2335.4 43.2333 2335.73 44.7 2335.73 46.1C2335.73 46.5 2335.63 47.3 2335.43 48.5C2335.3 49.6333 2334.87 50.8333 2334.13 52.1C2333.4 53.3 2332.27 54.4333 2330.73 55.5C2329.2 56.5667 2327.03 57.2333 2324.23 57.5V58.2C2326.63 58.2 2328.73 58.6 2330.53 59.4C2332.4 60.1333 2333.93 61.1 2335.13 62.3C2336.4 63.5 2337.37 64.8667 2338.03 66.4C2338.7 67.8667 2339.03 69.4 2339.03 71C2339.03 72.5333 2338.67 74.1333 2337.93 75.8C2337.2 77.4667 2335.93 79 2334.13 80.4C2332.4 81.8 2330.03 82.9667 2327.03 83.9C2324.03 84.7667 2320.27 85.2 2315.73 85.2C2312.8 85.2 2310.27 84.9667 2308.13 84.5C2306.07 84.1 2304.23 83.5 2302.63 82.7C2301.1 81.8333 2299.77 80.7333 2298.63 79.4C2297.5 78.0667 2296.43 76.5 2295.43 74.7L2300.13 70.8C2300.6 72.6 2301.37 74.2 2302.43 75.6C2303.5 76.9333 2304.73 78.0667 2306.13 79C2307.6 79.8667 2309.17 80.5333 2310.83 81C2312.57 81.4667 2314.33 81.7 2316.13 81.7C2320.13 81.7 2323.37 80.7 2325.83 78.7C2328.37 76.6333 2329.63 73.8333 2329.63 70.3C2329.63 67.9 2329.07 66.0333 2327.93 64.7C2326.8 63.3 2325.43 62.2667 2323.83 61.6C2322.3 60.9333 2320.7 60.5333 2319.03 60.4C2317.43 60.2 2316.13 60.1 2315.13 60.1H2311.53V56.7H2314.93C2316.53 56.7 2318.1 56.5 2319.63 56.1C2321.17 55.7 2322.53 55.1 2323.73 54.3C2324.93 53.5 2325.87 52.4667 2326.53 51.2C2327.27 49.8667 2327.63 48.3 2327.63 46.5C2327.63 43.7 2326.67 41.4 2324.73 39.6C2322.87 37.8 2319.93 36.9 2315.93 36.9ZM2360.5 60.1V84H2352V34H2360.5V56.7H2385.8V34H2394.3V84H2385.8V60.1H2360.5ZM2410.3 34H2418.8V56.7H2430.8C2432.4 56.7 2434.36 56.8 2436.7 57C2439.03 57.2 2441.26 57.7667 2443.4 58.7C2445.53 59.5667 2447.33 60.9333 2448.8 62.8C2450.33 64.6667 2451.1 67.3 2451.1 70.7C2451.1 72.7667 2450.66 74.6333 2449.8 76.3C2449 77.9 2447.93 79.3 2446.6 80.5C2445.26 81.6333 2443.7 82.5 2441.9 83.1C2440.16 83.7 2438.4 84 2436.6 84H2410.3V34ZM2418.8 80H2432.1C2434.7 80 2436.96 79.2667 2438.9 77.8C2440.9 76.2667 2441.9 73.9333 2441.9 70.8C2441.9 68.2 2441.4 66.2 2440.4 64.8C2439.4 63.3333 2438.23 62.2667 2436.9 61.6C2435.63 60.8667 2434.36 60.4333 2433.1 60.3C2431.83 60.1667 2430.9 60.1 2430.3 60.1H2418.8V80ZM2507.57 78.1L2533.07 34H2543.07V84H2534.57V40.2L2509.07 84H2499.07V34H2507.57V78.1ZM2642.79 59.1C2642.79 62.5667 2642.19 65.9 2640.99 69.1C2639.79 72.2333 2638.05 75 2635.79 77.4C2633.59 79.8 2630.89 81.7 2627.69 83.1C2624.55 84.5 2621.02 85.2 2617.09 85.2C2613.09 85.2 2609.45 84.5 2606.19 83.1C2602.99 81.6333 2600.25 79.7 2597.99 77.3C2595.79 74.9 2594.05 72.1333 2592.79 69C2591.59 65.8 2590.99 62.5 2590.99 59.1C2590.99 55.6333 2591.59 52.3333 2592.79 49.2C2594.05 46 2595.79 43.2 2597.99 40.8C2600.25 38.4 2602.99 36.5 2606.19 35.1C2609.45 33.6333 2613.09 32.9 2617.09 32.9C2621.02 32.9 2624.55 33.6333 2627.69 35.1C2630.89 36.5 2633.59 38.4 2635.79 40.8C2638.05 43.2 2639.79 46 2640.99 49.2C2642.19 52.3333 2642.79 55.6333 2642.79 59.1ZM2633.29 59.1C2633.29 54.4333 2632.79 50.6667 2631.79 47.8C2630.79 44.8667 2629.49 42.6 2627.89 41C2626.29 39.4 2624.52 38.3333 2622.59 37.8C2620.65 37.2 2618.79 36.9 2616.99 36.9C2615.19 36.9 2613.32 37.2 2611.39 37.8C2609.45 38.3333 2607.65 39.4 2605.99 41C2604.39 42.6 2603.05 44.8667 2601.99 47.8C2600.99 50.6667 2600.49 54.4333 2600.49 59.1C2600.49 63.7 2600.99 67.4667 2601.99 70.4C2603.05 73.2667 2604.39 75.5 2605.99 77.1C2607.65 78.7 2609.45 79.8 2611.39 80.4C2613.32 80.9333 2615.19 81.2 2616.99 81.2C2618.79 81.2 2620.65 80.9333 2622.59 80.4C2624.52 79.8 2626.29 78.7 2627.89 77.1C2629.49 75.5 2630.79 73.2667 2631.79 70.4C2632.79 67.4667 2633.29 63.7 2633.29 59.1ZM2669.8 84V38H2649.8V34H2698.3V38H2678.3V84H2669.8ZM2752.44 80H2759.34V94.5H2752.34V84H2708.34V94.5H2701.34V80H2708.54L2727.24 34H2733.24L2752.44 80ZM2727.94 43.9L2713.24 80H2743.44L2728.54 43.9H2727.94ZM2768.3 34H2776.8V56.7H2788.8C2790.4 56.7 2792.37 56.8 2794.7 57C2797.04 57.2 2799.27 57.7667 2801.4 58.7C2803.54 59.5667 2805.34 60.9333 2806.8 62.8C2808.34 64.6667 2809.1 67.3 2809.1 70.7C2809.1 72.7667 2808.67 74.6333 2807.8 76.3C2807 77.9 2805.94 79.3 2804.6 80.5C2803.27 81.6333 2801.7 82.5 2799.9 83.1C2798.17 83.7 2796.4 84 2794.6 84H2768.3V34ZM2819.6 34H2828.1V84H2819.6V34ZM2776.8 80.2H2790.1C2792.7 80.2 2794.97 79.4333 2796.9 77.9C2798.9 76.3 2799.9 73.9333 2799.9 70.8C2799.9 68.2 2799.4 66.2 2798.4 64.8C2797.4 63.3333 2796.24 62.2667 2794.9 61.6C2793.64 60.8667 2792.37 60.4333 2791.1 60.3C2789.84 60.1667 2788.9 60.1 2788.3 60.1H2776.8V80.2ZM2860.69 63.3L2845.09 84H2839.19L2857.79 59.4L2839.09 34H2849.19L2862.89 52.7L2876.79 34H2882.59L2865.79 56.6L2886.19 84H2875.99L2860.69 63.3Z" fill="white"/>
<path d="M2018 89C2034.57 89 2048 75.5685 2048 59C2048 42.4315 2034.57 29 2018 29C2001.43 29 1988 42.4315 1988 59C1988 75.5685 2001.43 89 2018 89Z" fill="white"/>
<path d="M3189.5 14H3203.4L3198 21.4H3185.7C3181.97 21.4 3178.53 21.6 3175.4 22C3172.33 22.3333 3169.43 23.5333 3166.7 25.6C3164.3 27.4667 3162.37 30.2333 3160.9 33.9C3159.43 37.5 3158.7 41.4 3158.7 45.6V46.1H3159.1C3159.83 44.4333 3160.83 42.8 3162.1 41.2C3163.37 39.6 3164.9 38.2 3166.7 37C3168.5 35.7333 3170.6 34.7333 3173 34C3175.4 33.2667 3178.13 32.9 3181.2 32.9C3185.6 32.9 3189.37 33.6667 3192.5 35.2C3195.63 36.6667 3198.2 38.6 3200.2 41C3202.2 43.4 3203.67 46.1667 3204.6 49.3C3205.6 52.3667 3206.1 55.5 3206.1 58.7C3206.1 61.9 3205.63 65.0667 3204.7 68.2C3203.77 71.3333 3202.3 74.1667 3200.3 76.7C3198.3 79.2333 3195.7 81.3 3192.5 82.9C3189.37 84.4333 3185.57 85.2 3181.1 85.2C3175.37 85.2 3170.7 84.2333 3167.1 82.3C3163.57 80.3 3160.83 77.8667 3158.9 75C3156.97 72.1333 3155.67 69.1 3155 65.9C3154.33 62.6333 3154 59.7333 3154 57.2V54.5C3154 52.4333 3154.03 50.2333 3154.1 47.9C3154.17 45.5 3154.37 43.1 3154.7 40.7C3155.03 38.2333 3155.57 35.7667 3156.3 33.3C3157.03 30.8333 3158.07 28.5 3159.4 26.3C3161.2 23.3 3163.23 20.9667 3165.5 19.3C3167.83 17.6333 3170.3 16.4 3172.9 15.6C3175.5 14.8 3178.2 14.3333 3181 14.2C3183.8 14.0667 3186.63 14 3189.5 14ZM3163.5 59.3C3163.5 63.7667 3164.07 67.4333 3165.2 70.3C3166.4 73.1 3167.87 75.3333 3169.6 77C3171.4 78.6 3173.33 79.7 3175.4 80.3C3177.47 80.9 3179.37 81.2 3181.1 81.2C3182.43 81.2 3184 80.9333 3185.8 80.4C3187.6 79.8 3189.3 78.7333 3190.9 77.2C3192.5 75.6 3193.83 73.3667 3194.9 70.5C3196.03 67.6333 3196.6 63.9 3196.6 59.3C3196.6 53.7667 3195.9 49.5 3194.5 46.5C3193.1 43.4333 3191.47 41.2 3189.6 39.8C3187.73 38.4 3185.87 37.5667 3184 37.3C3182.13 37.0333 3180.7 36.9 3179.7 36.9C3177.37 36.9 3175.2 37.3333 3173.2 38.2C3171.27 39.0667 3169.57 40.4333 3168.1 42.3C3166.63 44.1 3165.5 46.4333 3164.7 49.3C3163.9 52.1 3163.5 55.4333 3163.5 59.3ZM3263.51 61.2H3225.51C3225.51 65.2667 3226.11 68.6 3227.31 71.2C3228.51 73.8 3230.01 75.8333 3231.81 77.3C3233.61 78.7667 3235.54 79.8 3237.61 80.4C3239.74 80.9333 3241.74 81.2 3243.61 81.2C3245.28 81.2 3246.78 81.0333 3248.11 80.7C3249.51 80.3 3250.84 79.7667 3252.11 79.1C3253.38 78.4333 3254.61 77.6 3255.81 76.6C3257.08 75.6 3258.41 74.5 3259.81 73.3L3263.01 76.5C3260.34 79.3 3257.21 81.4667 3253.61 83C3250.01 84.4667 3246.08 85.2 3241.81 85.2C3237.41 85.2 3233.58 84.4667 3230.31 83C3227.11 81.4667 3224.44 79.4667 3222.31 77C3220.24 74.4667 3218.68 71.6333 3217.61 68.5C3216.61 65.3 3216.11 62.0333 3216.11 58.7C3216.11 54.7 3216.71 51.1333 3217.91 48C3219.11 44.8 3220.78 42.1 3222.91 39.9C3225.04 37.6333 3227.54 35.9333 3230.41 34.8C3233.28 33.6 3236.41 33 3239.81 33C3243.01 33 3246.04 33.5333 3248.91 34.6C3251.78 35.6667 3254.28 37.2667 3256.41 39.4C3258.61 41.5333 3260.34 44.2333 3261.61 47.5C3262.88 50.7667 3263.51 54.6333 3263.51 59.1V61.2ZM3225.51 57.2H3254.81C3254.81 50.7333 3253.48 45.6667 3250.81 42C3248.21 38.2667 3244.54 36.4 3239.81 36.4C3237.34 36.4 3235.21 37 3233.41 38.2C3231.61 39.3333 3230.11 40.8667 3228.91 42.8C3227.78 44.7333 3226.91 46.9667 3226.31 49.5C3225.78 51.9667 3225.51 54.5333 3225.51 57.2ZM3276.53 109V34H3285.03V42.1H3285.43C3287.9 35.9667 3293.1 32.9 3301.03 32.9C3304.36 32.9 3307.43 33.5333 3310.23 34.8C3313.03 36 3315.43 37.7667 3317.43 40.1C3319.5 42.3667 3321.1 45.1 3322.23 48.3C3323.36 51.5 3323.93 55.1 3323.93 59.1C3323.93 63.0333 3323.36 66.6333 3322.23 69.9C3321.1 73.1 3319.5 75.8333 3317.43 78.1C3315.43 80.3667 3313.03 82.1333 3310.23 83.4C3307.43 84.6 3304.36 85.2 3301.03 85.2C3299.43 85.2 3297.83 85.0333 3296.23 84.7C3294.7 84.3667 3293.23 83.8333 3291.83 83.1C3290.43 82.3667 3289.16 81.4 3288.03 80.2C3286.96 79 3286.1 77.5333 3285.43 75.8H3285.03V109H3276.53ZM3285.03 54V62.7C3285.03 65.4333 3285.4 67.8667 3286.13 70C3286.93 72.1333 3287.96 73.9667 3289.23 75.5C3290.5 76.9667 3291.96 78.1 3293.63 78.9C3295.3 79.6333 3297.06 80 3298.93 80C3301 80 3302.96 79.6333 3304.83 78.9C3306.7 78.1 3308.33 76.8667 3309.73 75.2C3311.2 73.4667 3312.33 71.2667 3313.13 68.6C3314 65.9333 3314.43 62.7 3314.43 58.9C3314.43 55.1667 3314 51.9667 3313.13 49.3C3312.33 46.6333 3311.23 44.4667 3309.83 42.8C3308.43 41.1333 3306.76 39.9333 3304.83 39.2C3302.96 38.4 3301 38 3298.93 38C3297 38 3295.16 38.4333 3293.43 39.3C3291.76 40.1 3290.3 41.2333 3289.03 42.7C3287.76 44.1 3286.76 45.8 3286.03 47.8C3285.36 49.7333 3285.03 51.8 3285.03 54ZM3345.38 78.1L3370.88 34H3380.88V84H3372.38V40.2L3346.88 84H3336.88V34H3345.38V78.1ZM3440.3 78.1L3465.8 34H3475.8V84H3467.3V40.2L3441.8 84H3431.8V34H3440.3V78.1ZM3532.43 34L3556.73 59.8V34H3565.23V59.8L3589.53 34H3595.63L3575.93 55.2L3588.53 72.6C3589.13 73.4667 3589.83 74.3333 3590.63 75.2C3591.43 76.0667 3592.26 76.8667 3593.13 77.6C3594.06 78.2667 3594.96 78.8333 3595.83 79.3C3596.76 79.7667 3597.63 80 3598.43 80H3601.23V84C3600.36 84.2667 3599.36 84.5333 3598.23 84.8C3597.09 85.0667 3595.93 85.2 3594.73 85.2C3592.06 85.2 3589.73 84.3667 3587.73 82.7C3585.73 80.9667 3583.96 79.0333 3582.43 76.9L3570.63 60.6L3565.23 66.4V84H3556.73V66.4L3551.33 60.6L3539.53 76.9C3537.99 79.0333 3536.23 80.9667 3534.23 82.7C3532.23 84.3667 3529.89 85.2 3527.23 85.2C3526.03 85.2 3524.86 85.0667 3523.73 84.8C3522.59 84.5333 3521.59 84.2667 3520.73 84V80H3523.53C3524.33 80 3525.16 79.7667 3526.03 79.3C3526.89 78.8333 3527.76 78.2667 3528.63 77.6C3529.56 76.8667 3530.43 76.0667 3531.23 75.2C3532.09 74.3333 3532.83 73.4667 3533.43 72.6L3546.03 55.2L3526.33 34H3532.43ZM3619.7 78.1L3645.2 34H3655.2V84H3646.7V40.2L3621.2 84H3611.2V34H3619.7V78.1ZM3671.16 34H3692.06C3695.66 34 3698.53 34.4333 3700.66 35.3C3702.86 36.1667 3704.53 37.2333 3705.66 38.5C3706.79 39.7 3707.53 40.9667 3707.86 42.3C3708.19 43.6333 3708.36 44.7667 3708.36 45.7C3708.36 47.3667 3708.03 48.8667 3707.36 50.2C3706.76 51.4667 3705.93 52.6 3704.86 53.6C3703.86 54.5333 3702.69 55.3 3701.36 55.9C3700.03 56.4333 3698.69 56.8333 3697.36 57.1V57.8C3698.76 57.8667 3700.29 58.1 3701.96 58.5C3703.69 58.9 3705.29 59.6 3706.76 60.6C3708.29 61.5333 3709.56 62.8333 3710.56 64.5C3711.56 66.1667 3712.06 68.2667 3712.06 70.8C3712.06 72.4667 3711.73 74.1 3711.06 75.7C3710.39 77.2333 3709.33 78.6333 3707.86 79.9C3706.39 81.1 3704.49 82.1 3702.16 82.9C3699.83 83.6333 3697.03 84 3693.76 84H3671.16V34ZM3679.66 80H3690.06C3690.73 80 3691.76 79.9667 3693.16 79.9C3694.63 79.7667 3696.06 79.4 3697.46 78.8C3698.93 78.2 3700.19 77.2667 3701.26 76C3702.33 74.6667 3702.86 72.8 3702.86 70.4C3702.86 67.9333 3702.29 66 3701.16 64.6C3700.09 63.2 3698.79 62.1667 3697.26 61.5C3695.73 60.8333 3694.13 60.4333 3692.46 60.3C3690.86 60.1667 3689.53 60.1 3688.46 60.1H3679.66V80ZM3679.66 56.7H3688.36C3689.89 56.7 3691.36 56.5 3692.76 56.1C3694.16 55.6333 3695.39 55 3696.46 54.2C3697.53 53.3333 3698.36 52.3333 3698.96 51.2C3699.63 50 3699.96 48.6333 3699.96 47.1C3699.96 46.3 3699.83 45.4 3699.56 44.4C3699.36 43.3333 3698.89 42.3333 3698.16 41.4C3697.43 40.4667 3696.36 39.6667 3694.96 39C3693.63 38.3333 3691.83 38 3689.56 38H3679.66V56.7ZM3733.57 78.1L3759.07 34H3769.07V84H3760.57V40.2L3735.07 84H3725.07V34H3733.57V78.1Z" fill="white"/>
<path d="M3019 89C3035.57 89 3049 75.5685 3049 59C3049 42.4315 3035.57 29 3019 29C3002.43 29 2989 42.4315 2989 59C2989 75.5685 3002.43 89 3019 89Z" fill="white"/>
</g>
<defs>
<clipPath id="clip0_2019_11">
<rect width="3778" height="117" fill="white"/>
</clipPath>
</defs>
</svg>
