<svg width="180" height="60" viewBox="0 0 180 60" fill="none" xmlns="http://www.w3.org/2000/svg">
<g clip-path="url(#clip0_1971_56)">
<mask id="mask0_1971_56" style="mask-type:luminance" maskUnits="userSpaceOnUse" x="0" y="0" width="180" height="30">
<path d="M180 0H0V30H180V0Z" fill="white"/>
</mask>
<g mask="url(#mask0_1971_56)">
<path d="M80.661 7.66791H88.709V29.4629H96.447V7.66791H104.288V0.335913H80.661V7.66791ZM14.389 0.368913L0.123047 29.4959L11.16 29.4789L15.123 21.5679C15.766 23.0899 18.639 29.4959 18.639 29.4959H41.903L29.796 0.368913H14.389ZM15.289 21.2429L21.229 9.37591C21.3044 9.24118 21.4157 9.13006 21.5506 9.05499C21.6854 8.97991 21.8385 8.94382 21.9927 8.95078C22.1469 8.95773 22.2962 9.00744 22.4237 9.09435C22.5513 9.18127 22.6521 9.30195 22.715 9.44291L28.622 21.2429H15.289ZM176.26 4.58791C175.24 3.25923 173.927 2.18418 172.423 1.44662C170.919 0.709056 169.265 0.328937 167.59 0.335913H146V29.4629H153.738V23.7879H166.951C170.108 23.836 173.155 22.6288 175.422 20.4315C177.689 18.2342 178.991 15.2267 179.041 12.0699C179.034 9.32451 178.048 6.67171 176.26 4.58791ZM171.044 12.3879C171.025 13.4877 170.571 14.5352 169.781 15.3007C168.991 16.0663 167.93 16.4874 166.83 16.4719H153.513V7.91891H160.473V7.93591H166.829C167.374 7.92691 167.915 8.02546 168.422 8.22591C168.929 8.42637 169.391 8.7248 169.783 9.10412C170.174 9.48345 170.487 9.93622 170.703 10.4365C170.92 10.9369 171.035 11.4749 171.043 12.0199L171.044 12.3879ZM77.586 7.21891C77.5721 6.28515 77.3743 5.36329 77.0039 4.50603C76.6334 3.64876 76.0977 2.87291 75.4273 2.22281C74.7568 1.57272 73.9648 1.06113 73.0966 0.717285C72.2283 0.373443 71.3008 0.204092 70.3671 0.218913H44.701V29.3119L69.417 29.2949C70.4735 29.312 71.523 29.1207 72.5055 28.7319C73.4881 28.3431 74.3843 27.7645 75.1431 27.0292C75.9018 26.2938 76.5082 25.4161 76.9276 24.4463C77.3469 23.4764 77.571 22.4334 77.587 21.3769V19.3019C77.5821 18.0791 77.2907 16.8745 76.7362 15.7846C76.1817 14.6947 75.3795 13.7499 74.3941 13.0259C75.3687 12.4015 76.1714 11.5429 76.729 10.5286C77.2865 9.51424 77.5812 8.3764 77.586 7.21891ZM52.402 7.56391L66.988 7.57091C67.2316 7.56681 67.4736 7.61079 67.7001 7.70034C67.9266 7.78989 68.1332 7.92324 68.3082 8.09277C68.4831 8.26229 68.6228 8.46466 68.7194 8.68827C68.816 8.91188 68.8675 9.15236 68.871 9.39591V9.55991C68.8629 10.0515 68.66 10.5197 68.307 10.8619C67.954 11.204 67.4796 11.3921 66.988 11.3849H52.402V7.56391ZM70.08 19.2639C70.0716 19.7554 69.8687 20.2235 69.5157 20.5656C69.1627 20.9077 68.6885 21.0959 68.197 21.0889H52.463V16.9349L68.198 16.9419C68.4416 16.9378 68.6836 16.9818 68.9101 17.0713C69.1366 17.1609 69.3432 17.2942 69.5182 17.4638C69.6931 17.6333 69.8328 17.8357 69.9294 18.0593C70.026 18.2829 70.0775 18.5234 70.081 18.7669L70.08 19.2639ZM129.972 0.285913H117.848C116.393 0.288844 114.951 0.567069 113.599 1.10591C112.261 1.63996 111.041 2.43046 110.006 3.43291C108.983 4.41733 108.168 5.59744 107.61 6.90306C107.053 8.20867 106.763 9.61314 106.759 11.0329V18.6489C106.763 20.0687 107.053 21.4732 107.61 22.7788C108.168 24.0844 108.983 25.2645 110.006 26.2489C111.039 27.2532 112.26 28.044 113.599 28.5759C114.951 29.1163 116.393 29.3946 117.848 29.3959H129.973C132.895 29.4002 135.706 28.2723 137.814 26.2489C138.836 25.2639 139.651 24.0837 140.208 22.7782C140.766 21.4727 141.056 20.0685 141.061 18.6489V11.0329C141.056 9.61328 140.766 8.20911 140.208 6.90363C139.651 5.59815 138.836 4.41792 137.814 3.43291C135.705 1.40926 132.895 0.281321 129.972 0.285913ZM133.53 17.3599C133.521 17.9496 133.396 18.5318 133.162 19.0731C132.928 19.6144 132.59 20.1043 132.166 20.5147C131.743 20.9251 131.242 21.2481 130.694 21.465C130.146 21.6819 129.56 21.7886 128.97 21.7789H118.87C118.28 21.7886 117.695 21.6819 117.146 21.465C116.598 21.2481 116.097 20.9251 115.674 20.5147C115.25 20.1043 114.912 19.6144 114.678 19.0731C114.444 18.5318 114.319 17.9496 114.31 17.3599V12.3599C114.319 11.7702 114.444 11.1881 114.678 10.6467C114.912 10.1054 115.25 9.61552 115.674 9.2051C116.097 8.79468 116.598 8.47177 117.146 8.25485C117.695 8.03793 118.28 7.93125 118.87 7.94091H128.97C129.56 7.93125 130.146 8.03793 130.694 8.25485C131.242 8.47177 131.743 8.79468 132.166 9.2051C132.59 9.61552 132.928 10.1054 133.162 10.6467C133.396 11.1881 133.521 11.7702 133.53 12.3599V17.3599Z" fill="#B71916"/>
</g>
<path d="M14.5302 45V59H12.5302V52.76H4.49023V59H2.49023V45H4.49023V51.02H12.5302V45H14.5302ZM26.1902 59.16C24.8585 59.1801 23.5437 58.86 22.3702 58.23C21.2617 57.6339 20.3382 56.745 19.7002 55.66C19.0494 54.5512 18.714 53.2856 18.7302 52C18.714 50.7144 19.0494 49.4488 19.7002 48.34C20.3382 47.2551 21.2617 46.3661 22.3702 45.77C23.5437 45.1401 24.8585 44.82 26.1902 44.84C27.5154 44.8216 28.8234 45.1417 29.9902 45.77C31.0953 46.3628 32.0156 47.2485 32.6502 48.33C33.2972 49.4437 33.629 50.7123 33.6102 52C33.629 53.2878 33.2972 54.5564 32.6502 55.67C32.0156 56.7516 31.0953 57.6373 29.9902 58.23C28.8234 58.8584 27.5154 59.1785 26.1902 59.16ZM26.1902 57.38C27.1591 57.3948 28.1147 57.1533 28.9602 56.68C29.7695 56.224 30.44 55.557 30.9002 54.75C31.378 53.9131 31.6232 52.9636 31.6102 52C31.6232 51.0364 31.378 50.0869 30.9002 49.25C30.44 48.4431 29.7695 47.7761 28.9602 47.32C28.1147 46.8468 27.1591 46.6053 26.1902 46.62C25.2152 46.607 24.2536 46.8482 23.4002 47.32C22.5825 47.7717 21.9045 48.4393 21.4402 49.25C20.9624 50.0869 20.7173 51.0364 20.7302 52C20.7173 52.9636 20.9624 53.9131 21.4402 54.75C21.9045 55.5607 22.5825 56.2284 23.4002 56.68C24.2536 57.1518 25.2152 57.3931 26.1902 57.38ZM46.5702 51.74C47.3993 51.8991 48.154 52.3239 48.7202 52.95C49.2244 53.5811 49.4836 54.373 49.4502 55.18C49.4762 55.723 49.3685 56.2641 49.1366 56.7558C48.9047 57.2474 48.5557 57.6747 48.1202 58C46.9711 58.7403 45.6141 59.0909 44.2502 59H37.8502V45H43.8702C45.1348 44.9264 46.3905 45.2517 47.4602 45.93C47.8818 46.2313 48.2209 46.6337 48.4463 47.1002C48.6717 47.5668 48.7762 48.0825 48.7502 48.6C48.7709 49.2908 48.5713 49.9702 48.1802 50.54C47.7756 51.092 47.2148 51.51 46.5702 51.74ZM39.8302 51.16H43.7302C44.5166 51.2118 45.2987 51.0084 45.9602 50.58C46.2171 50.3806 46.4215 50.1216 46.5557 49.8253C46.6899 49.5291 46.7498 49.2046 46.7302 48.88C46.7491 48.5531 46.688 48.2264 46.5521 47.9284C46.4161 47.6304 46.2096 47.3701 45.9502 47.17C45.2939 46.7376 44.5147 46.5305 43.7302 46.58H39.8302V51.16ZM44.2102 57.42C46.3569 57.42 47.4302 56.62 47.4302 55.02C47.4556 54.6806 47.3946 54.3403 47.253 54.0308C47.1114 53.7213 46.8937 53.4527 46.6202 53.25C45.8927 52.8215 45.0527 52.6229 44.2102 52.68H39.8302V57.42H44.2102ZM60.0902 59.16C58.7585 59.1801 57.4437 58.86 56.2702 58.23C55.1617 57.6339 54.2382 56.745 53.6002 55.66C52.9494 54.5512 52.614 53.2856 52.6302 52C52.614 50.7144 52.9494 49.4488 53.6002 48.34C54.2382 47.2551 55.1617 46.3661 56.2702 45.77C57.4437 45.1401 58.7585 44.82 60.0902 44.84C61.4154 44.8216 62.7234 45.1417 63.8902 45.77C64.9953 46.3628 65.9156 47.2485 66.5502 48.33C67.1972 49.4437 67.529 50.7123 67.5102 52C67.529 53.2878 67.1972 54.5564 66.5502 55.67C65.9156 56.7516 64.9953 57.6373 63.8902 58.23C62.7234 58.8584 61.4154 59.1785 60.0902 59.16ZM60.0902 57.38C61.0591 57.3948 62.0147 57.1533 62.8602 56.68C63.6695 56.224 64.34 55.557 64.8002 54.75C65.278 53.9131 65.5232 52.9636 65.5102 52C65.5232 51.0364 65.278 50.0869 64.8002 49.25C64.34 48.4431 63.6695 47.7761 62.8602 47.32C62.0147 46.8468 61.0591 46.6053 60.0902 46.62C59.1152 46.607 58.1536 46.8482 57.3002 47.32C56.4825 47.7717 55.8045 48.4393 55.3402 49.25C54.8624 50.0869 54.6173 51.0364 54.6302 52C54.6173 52.9636 54.8624 53.9131 55.3402 54.75C55.8045 55.5607 56.4825 56.2284 57.3002 56.68C58.1536 57.1518 59.1152 57.3931 60.0902 57.38ZM71.7502 45H73.7302V55.8L82.0102 45H83.8502V59H81.8902V48.22L73.5902 59H71.7502V45ZM77.7702 44.02C76.8707 44.0775 75.9785 43.8271 75.2402 43.31C74.9421 43.0649 74.7049 42.754 74.547 42.4018C74.3891 42.0496 74.3149 41.6657 74.3302 41.28H75.7502C75.7446 41.5102 75.7911 41.7386 75.8864 41.9481C75.9816 42.1577 76.1231 42.343 76.3002 42.49C76.7257 42.7992 77.2452 42.9512 77.7702 42.92C78.2883 42.9452 78.7996 42.7936 79.2202 42.49C79.4024 42.3462 79.5487 42.162 79.6476 41.9521C79.7465 41.7421 79.7953 41.5121 79.7902 41.28H81.1902C81.2036 41.664 81.1285 42.0458 80.9707 42.3961C80.8129 42.7464 80.5767 43.0557 80.2802 43.3C79.5514 43.8218 78.6648 44.0761 77.7702 44.02ZM107.35 52.84H104.69V59H102.73V52.84H100.05L96.1302 59H93.7902L98.4102 51.72L94.1302 45H96.2702L100.01 51.08H102.73V45H104.69V51.08H107.37L111.13 45H113.27L108.99 51.76L113.61 59H111.27L107.35 52.84ZM116.71 45H118.69V55.8L126.97 45H128.81V59H126.85V48.22L118.55 59H116.71V45ZM140.87 51.7C141.671 51.8912 142.391 52.3283 142.93 52.95C143.425 53.5478 143.688 54.3041 143.67 55.08C143.682 55.8757 143.4 56.6478 142.88 57.25C142.315 57.8967 141.591 58.3859 140.78 58.67C139.867 59.0036 138.902 59.1696 137.93 59.16C136.988 59.1587 136.051 59.0171 135.15 58.74C134.244 58.4671 133.392 58.0409 132.63 57.48L133.33 56C133.946 56.4814 134.644 56.8473 135.39 57.08C136.134 57.3174 136.91 57.4389 137.69 57.44C138.678 57.4742 139.656 57.2281 140.51 56.73C140.859 56.539 141.15 56.2566 141.351 55.9131C141.551 55.5696 141.655 55.1779 141.65 54.78C141.663 54.4567 141.59 54.1358 141.439 53.8496C141.288 53.5634 141.064 53.3221 140.79 53.15C140.056 52.7291 139.215 52.5311 138.37 52.58H135.25V50.96H138.23C138.968 51.0034 139.7 50.8107 140.32 50.41C140.563 50.2374 140.758 50.0071 140.889 49.74C141.02 49.4729 141.082 49.1773 141.07 48.88C141.076 48.5292 140.988 48.1832 140.816 47.8775C140.643 47.5718 140.393 47.3173 140.09 47.14C139.344 46.6883 138.482 46.4657 137.61 46.5C136.937 46.5028 136.268 46.597 135.62 46.78C134.947 46.9669 134.303 47.2498 133.71 47.62L133.07 45.98C133.773 45.5814 134.527 45.2787 135.31 45.08C136.081 44.882 136.874 44.7812 137.67 44.78C138.597 44.7698 139.518 44.9256 140.39 45.24C141.154 45.5037 141.834 45.9663 142.36 46.58C142.843 47.1566 143.103 47.8879 143.09 48.64C143.103 49.3079 142.895 49.9614 142.5 50.5C142.085 51.0498 141.519 51.4667 140.87 51.7ZM160.05 45V59H158.05V52.76H150.01V59H148.01V45H150.01V51.02H158.05V45H160.05ZM165.41 45H167.39V55.8L175.67 45H177.51V59H175.55V48.22L167.25 59H165.41V45Z" fill="#B71916"/>
</g>
<defs>
<clipPath id="clip0_1971_56">
<rect width="180" height="59.16" fill="white"/>
</clipPath>
</defs>
</svg>
