<svg width="193" height="73" viewBox="0 0 193 73" fill="none" xmlns="http://www.w3.org/2000/svg">
<g clip-path="url(#clip0_2079_2027)">
<path d="M1.99771 53.094C1.80106 53.0449 1.61797 52.9636 1.44845 52.8498C1.27764 52.7413 1.14044 52.6081 1.03686 52.4504L1.49446 51.9709C1.57344 52.095 1.66858 52.1984 1.77988 52.2811C1.89117 52.3638 2.01668 52.4226 2.15641 52.4574C2.33753 52.5026 2.49921 52.4934 2.64146 52.43C2.78371 52.3665 2.93626 52.2286 3.09911 52.0164L3.49655 51.5136L3.59739 51.4398L6.14288 48.1087L6.87254 48.2906L3.74929 52.3187C3.55802 52.5788 3.3667 52.7729 3.17534 52.9011C2.98915 53.0306 2.7997 53.107 2.60698 53.1304C2.41297 53.159 2.20988 53.1469 1.99771 53.094ZM3.32994 51.9173L2.5101 47.2029L3.28633 47.3965L3.97188 51.459L3.32994 51.9173ZM5.70877 52.362L5.91211 51.7449C5.94704 51.7591 5.97939 51.7726 6.00915 51.7855C6.0389 51.7985 6.06672 51.8081 6.0926 51.8146C6.25819 51.8559 6.40176 51.8312 6.52329 51.7406C6.65 51.6513 6.75987 51.5193 6.85289 51.3446C6.9472 51.1647 7.03439 50.9583 7.11444 50.7255C7.19449 50.4926 7.26937 50.2584 7.33907 50.0229L7.78826 48.5189L10.9475 49.3066L9.9218 53.4207L9.17661 53.2349L10.094 49.5555L10.2183 49.8174L8.10696 49.291L8.33385 49.1084L7.99502 50.2359C7.88918 50.5943 7.7762 50.9262 7.6561 51.2315C7.53599 51.5369 7.40228 51.7976 7.25495 52.0137C7.1128 52.2311 6.94992 52.3884 6.7663 52.4855C6.58786 52.5839 6.3822 52.6041 6.14933 52.5461C6.08205 52.5293 6.01154 52.5035 5.93779 52.4686C5.86792 52.4402 5.79158 52.4046 5.70877 52.362ZM11.5141 53.8671C11.3692 53.831 11.2572 53.7509 11.1783 53.6268C11.1006 53.4975 11.0811 53.3552 11.1198 53.1999C11.1585 53.0447 11.2418 52.9308 11.3699 52.8583C11.4979 52.7858 11.6343 52.7676 11.7792 52.8037C11.919 52.8385 12.0257 52.9174 12.0995 53.0402C12.1785 53.1643 12.1986 53.304 12.1599 53.4593C12.1212 53.6145 12.0372 53.731 11.9079 53.8087C11.7851 53.8825 11.6538 53.902 11.5141 53.8671ZM16.4402 55.0459L17.6769 50.0857L17.8206 50.3359L15.7714 49.825L15.9397 49.1497L20.4186 50.2664L20.2502 50.9417L18.201 50.4308L18.4376 50.2754L17.2009 55.2356L16.4402 55.0459ZM21.2789 56.3018C20.839 56.1921 20.4735 56.0048 20.1823 55.7398C19.8962 55.4761 19.6994 55.1632 19.5918 54.8011C19.4894 54.4402 19.4892 54.0554 19.5911 53.6466C19.693 53.2378 19.8713 52.8975 20.126 52.6257C20.3858 52.3552 20.6929 52.1706 21.0473 52.0721C21.4081 51.9697 21.7852 51.9675 22.1784 52.0656C22.5769 52.1649 22.9069 52.3406 23.1683 52.5927C23.4298 52.8448 23.6059 53.1525 23.6967 53.5159C23.7939 53.8755 23.7896 54.2674 23.6838 54.6918C23.6761 54.7228 23.6645 54.7584 23.649 54.7985C23.6387 54.8399 23.6264 54.8781 23.6122 54.913L20.1114 54.0402L20.2449 53.5045L23.3576 54.2806L23.0084 54.3915C23.0794 54.1288 23.0838 53.8798 23.0215 53.6444C22.9593 53.4091 22.8415 53.2093 22.668 53.0451C22.501 52.8771 22.2856 52.7601 22.0217 52.6943C21.7629 52.6298 21.5178 52.6319 21.2863 52.7006C21.0561 52.7641 20.8576 52.8878 20.6909 53.0716C20.5254 53.2502 20.4092 53.474 20.3421 53.7431L20.3111 53.8673C20.2427 54.1416 20.2435 54.4029 20.3135 54.6512C20.39 54.8956 20.5272 55.1058 20.7253 55.2815C20.9233 55.4573 21.1698 55.582 21.4648 55.6556C21.708 55.7162 21.9382 55.7296 22.1555 55.6959C22.378 55.6634 22.5849 55.5831 22.7763 55.4549L23.0677 56.0387C22.8272 56.2096 22.553 56.3172 22.2452 56.3613C21.9425 56.4068 21.6204 56.3869 21.2789 56.3018ZM26.5024 57.6042C26.1609 57.519 25.8671 57.3633 25.6212 57.1371C25.3818 56.907 25.2154 56.6154 25.122 56.2624C25.0338 55.9106 25.0478 55.5018 25.1639 55.0361C25.2801 54.5703 25.457 54.2022 25.6949 53.9317C25.9379 53.6625 26.2185 53.4851 26.5366 53.3995C26.86 53.3153 27.1976 53.317 27.5495 53.4047C27.9531 53.5054 28.2882 53.6824 28.5549 53.9357C28.8215 54.1891 29.006 54.4962 29.1084 54.857C29.2121 55.2127 29.2117 55.6001 29.1072 56.0192C29.0027 56.4384 28.8205 56.7832 28.5607 57.0538C28.3009 57.3243 27.9938 57.5088 27.6394 57.6073C27.2851 57.7059 26.9061 57.7048 26.5024 57.6042ZM23.9573 58.5196L25.3586 52.8997L26.0727 53.0777L25.7959 54.1878L25.5113 55.1309L25.3509 56.105L24.7025 58.7054L23.9573 58.5196ZM26.6029 56.9366C26.8668 57.0024 27.1171 57.0016 27.3538 56.9342C27.5956 56.8681 27.8032 56.7412 27.9764 56.5535C28.1561 56.362 28.282 56.1213 28.3543 55.8315C28.4278 55.5365 28.4289 55.2675 28.3576 55.0243C28.2928 54.7773 28.1691 54.5679 27.9867 54.3959C27.8093 54.2253 27.5887 54.1071 27.3248 54.0413C27.066 53.9768 26.8157 53.9776 26.5739 54.0437C26.3372 54.1111 26.1297 54.238 25.9513 54.4244C25.7794 54.6069 25.6567 54.8456 25.5831 55.1406C25.5109 55.4304 25.5065 55.7014 25.57 55.9536C25.64 56.2019 25.7637 56.4114 25.941 56.582C26.1235 56.7539 26.3441 56.8721 26.6029 56.9366ZM29.677 58.3462L30.7028 54.2322L31.448 54.4179L31.0125 56.1645L33.3567 56.749L33.7922 55.0024L34.5374 55.1882L33.5116 59.3023L32.7664 59.1165L33.1961 57.3932L30.8519 56.8088L30.4222 58.532L29.677 58.3462ZM36.711 60.1494C36.297 60.0462 35.9522 59.8641 35.6765 59.6029C35.4008 59.3418 35.2092 59.0302 35.1016 58.6681C34.9953 58.3008 34.9925 57.9153 35.0931 57.5117C35.195 57.1029 35.3785 56.7638 35.6435 56.4946C35.9085 56.2254 36.2234 56.0428 36.5881 55.9469C36.9541 55.8457 37.3441 55.8468 37.7581 55.95C38.1669 56.0519 38.5091 56.2335 38.7848 56.4946C39.067 56.7518 39.2593 57.0608 39.3617 57.4217C39.4706 57.7786 39.4734 58.1641 39.3702 58.5781C39.2682 58.9869 39.0848 59.3259 38.8198 59.5951C38.5599 59.8656 38.2444 60.0508 37.8733 60.1507C37.5073 60.2518 37.1198 60.2514 36.711 60.1494ZM36.8736 59.4974C37.1375 59.5632 37.3878 59.5624 37.6245 59.495C37.8663 59.4289 38.0739 59.302 38.2471 59.1143C38.4216 58.9215 38.545 58.6801 38.6172 58.3903C38.6908 58.0954 38.6945 57.827 38.6283 57.5851C38.5635 57.3381 38.4398 57.1286 38.2574 56.9567C38.08 56.7861 37.8594 56.6679 37.5955 56.602C37.3316 56.5362 37.0813 56.5371 36.8446 56.6045C36.6079 56.6719 36.4004 56.7988 36.222 56.9852C36.0449 57.1664 35.9196 57.4044 35.846 57.6994C35.7738 57.9892 35.772 58.2609 35.8407 58.5143C35.9107 58.7627 36.0344 58.9721 36.2117 59.1428C36.3891 59.3134 36.6097 59.4316 36.8736 59.4974ZM39.9333 60.9034L40.9591 56.7893L44.7704 57.7396L43.7447 61.8537L42.9995 61.6679L43.9091 58.0196L44.0412 58.2504L41.3632 57.5827L41.5882 57.4409L40.6785 61.0892L39.9333 60.9034ZM46.937 62.6991C46.523 62.5959 46.1782 62.4137 45.9025 62.1526C45.6268 61.8915 45.4352 61.5798 45.3276 61.2177C45.2213 60.8504 45.2185 60.465 45.3191 60.0613C45.421 59.6525 45.6045 59.3135 45.8695 59.0443C46.1345 58.775 46.4494 58.5925 46.8141 58.4965C47.1801 58.3954 47.5701 58.3964 47.9841 58.4996C48.3929 58.6016 48.7351 58.7831 49.0108 59.0442C49.293 59.3014 49.4853 59.6105 49.5877 59.9713C49.6966 60.3282 49.6994 60.7137 49.5962 61.1277C49.4942 61.5365 49.3108 61.8755 49.0458 62.1448C48.7859 62.4153 48.4704 62.6004 48.0993 62.7003C47.7333 62.8014 47.3458 62.801 46.937 62.6991ZM47.0996 62.047C47.3635 62.1128 47.6138 62.112 47.8505 62.0446C48.0923 61.9785 48.2999 61.8516 48.4731 61.6639C48.6476 61.4711 48.771 61.2298 48.8432 60.94C48.9168 60.645 48.9205 60.3766 48.8544 60.1347C48.7895 59.8877 48.6659 59.6783 48.4834 59.5063C48.306 59.3357 48.0854 59.2175 47.8215 59.1517C47.5576 59.0859 47.3073 59.0867 47.0706 59.1541C46.8339 59.2215 46.6264 59.3484 46.448 59.5348C46.2709 59.716 46.1456 59.9541 46.0721 60.249C45.9998 60.5388 45.998 60.8105 46.0667 61.064C46.1368 61.3123 46.2604 61.5218 46.4377 61.6924C46.6151 61.863 46.8357 61.9812 47.0996 62.047ZM49.4479 63.2674L49.6512 62.6502C49.6862 62.6645 49.7185 62.678 49.7483 62.6909C49.778 62.7039 49.8058 62.7135 49.8317 62.72C49.9973 62.7613 50.1409 62.7366 50.2624 62.646C50.3891 62.5566 50.499 62.4246 50.592 62.25C50.6863 62.0701 50.7735 61.8637 50.8535 61.6308C50.9336 61.398 51.0085 61.1638 51.0782 60.9283L51.5274 59.4243L54.6867 60.212L53.6609 64.3261L52.9157 64.1403L53.8331 60.4609L53.9574 60.7228L51.8461 60.1963L52.073 60.0138L51.7341 61.1413C51.6283 61.4997 51.5153 61.8316 51.3952 62.1369C51.2751 62.4423 51.1414 62.703 50.9941 62.9191C50.8519 63.1365 50.689 63.2938 50.5054 63.3909C50.327 63.4893 50.1213 63.5095 49.8884 63.4514C49.8212 63.4347 49.7507 63.4088 49.6769 63.374C49.607 63.3455 49.5307 63.31 49.4479 63.2674ZM57.681 62.4427C58.2023 62.5781 58.5711 62.7965 58.7873 63.0978C59.0035 63.399 59.0587 63.7618 58.9529 64.1862C58.842 64.6312 58.6061 64.9379 58.2453 65.1063C57.8858 65.2695 57.4325 65.2802 56.8852 65.1382L55.1018 64.6853L56.1275 60.5713L56.8727 60.7571L56.5263 62.1465L57.681 62.4427ZM56.9644 64.5561C57.2995 64.6451 57.5698 64.6411 57.7754 64.5439C57.9862 64.4481 58.1258 64.263 58.1942 63.9887C58.2613 63.7196 58.2249 63.5017 58.0851 63.3349C57.9453 63.1682 57.7053 63.0396 57.365 62.9493L56.3908 62.6899L55.9883 64.3045L56.9644 64.5561ZM61.3482 66.2922C60.929 66.1877 60.5764 66.0036 60.2904 65.7399C60.0095 65.4775 59.8153 65.1652 59.7077 64.8031C59.6001 64.441 59.5973 64.0555 59.6992 63.6467C59.8011 63.2379 59.9846 62.8988 60.2496 62.6296C60.5146 62.3604 60.832 62.1785 61.2019 62.0838C61.5783 61.9852 61.976 61.9882 62.3952 62.0927C62.7678 62.1856 63.0803 62.3432 63.3327 62.5656C63.5915 62.784 63.765 63.0581 63.8532 63.3879L63.1956 63.6115C63.1113 63.3761 62.9825 63.1873 62.8091 63.0452C62.6421 62.8991 62.4474 62.7983 62.2249 62.7428C61.9558 62.6757 61.7003 62.6753 61.4585 62.7414C61.2166 62.8075 61.0065 62.9338 60.8281 63.1201C60.651 63.3013 60.5257 63.5394 60.4521 63.8344C60.3786 64.1294 60.3768 64.401 60.4468 64.6493C60.5168 64.8976 60.6431 65.1078 60.8256 65.2797C61.0081 65.4516 61.2339 65.5711 61.503 65.6382C61.7255 65.6937 61.9441 65.6987 62.1588 65.6533C62.38 65.604 62.583 65.4952 62.7678 65.327L63.2455 65.8253C63.0141 66.0699 62.7316 66.2331 62.3979 66.3148C62.0707 66.3926 61.7208 66.3851 61.3482 66.2922ZM66.982 67.6474L65.89 65.2479L66.5961 65.0282L67.8591 67.8661L66.982 67.6474ZM64.0012 66.9042L65.027 62.7901L65.7722 62.9759L64.7464 67.09L64.0012 66.9042ZM64.9548 65.2951L65.1135 64.6586L66.4719 64.9973L66.3132 65.6338L64.9548 65.2951ZM66.5576 65.4474L65.89 65.182L67.9767 63.5256L68.7762 63.7249L66.5576 65.4474ZM71.0874 68.671L71.3042 67.8016L71.306 67.6289L71.6757 66.1463C71.7544 65.8306 71.7219 65.5642 71.5781 65.347C71.4409 65.1259 71.1886 64.9695 70.8211 64.8779C70.5779 64.8172 70.3296 64.7993 70.076 64.824C69.8238 64.8436 69.6007 64.9006 69.4067 64.9952L69.2356 64.3589C69.4903 64.241 69.7762 64.1749 70.0931 64.1604C70.4164 64.1421 70.7411 64.1736 71.0672 64.2549C71.6312 64.3955 72.0317 64.6411 72.2687 64.9914C72.5056 65.3418 72.5538 65.7991 72.4131 66.3631L71.7938 68.8471L71.0874 68.671ZM69.7252 68.3808C69.4198 68.3047 69.1636 68.1858 68.9566 68.0243C68.7547 67.864 68.6142 67.6778 68.5352 67.4657C68.4574 67.2485 68.4476 67.0234 68.5056 66.7905C68.5611 66.568 68.6632 66.3791 68.8119 66.2238C68.9657 66.0698 69.1752 65.9681 69.4403 65.9188C69.7106 65.8707 70.0502 65.8977 70.459 65.9996L71.7631 66.3247L71.6296 66.8603L70.3565 66.5429C69.9839 66.45 69.7175 66.4496 69.5571 66.5415C69.3968 66.6335 69.2947 66.7674 69.2508 66.9433C69.2005 67.1452 69.2401 67.3282 69.3695 67.4924C69.5003 67.6514 69.708 67.7664 69.9926 67.8373C70.272 67.907 70.5307 67.9056 70.7687 67.833C71.0118 67.7617 71.2096 67.6186 71.3621 67.4038L71.3819 67.9529C71.2229 68.1716 71.0012 68.3224 70.7167 68.4054C70.4334 68.4832 70.1029 68.475 69.7252 68.3808ZM75.7671 69.8378L76.1271 68.394L76.2087 68.5627L74.8968 68.2356C74.3483 68.0989 73.9478 67.8753 73.6954 67.565C73.4481 67.2561 73.38 66.879 73.4909 66.434C73.6096 65.9579 73.8623 65.6389 74.249 65.477C74.6408 65.3163 75.111 65.3044 75.6595 65.4411L77.4604 65.8901L76.4347 70.0042L75.7671 69.8378ZM72.7863 69.0946L74.297 67.7975L75.0655 67.9891L73.5859 69.2939L72.7863 69.0946ZM76.1851 68.1611L76.6825 66.1662L76.7467 66.4048L75.5203 66.099C75.1787 66.0138 74.8987 66.0127 74.6801 66.0956C74.4628 66.1734 74.3181 66.3571 74.2458 66.6469C74.1116 67.1851 74.3913 67.5407 75.0847 67.7136L76.3422 68.0271L76.1851 68.1611Z" fill="#B3B6B5"/>
<path d="M155.834 58.2445L152.277 55.9337L154.417 52.6381L157.975 54.9489L157.556 55.5932L154.402 53.544L154.663 53.4943L153.159 55.8099L153.098 55.5509L156.253 57.6001L155.834 58.2445ZM160.05 51.8422C159.858 52.1375 159.615 52.3646 159.321 52.5235C159.026 52.675 158.695 52.7374 158.331 52.7107C157.97 52.6795 157.587 52.5331 157.185 52.2715C156.782 52.0099 156.492 51.7225 156.313 51.4094C156.138 51.0918 156.061 50.7686 156.084 50.4398C156.11 50.1065 156.221 49.7877 156.419 49.4834C156.646 49.1344 156.922 48.875 157.249 48.7054C157.575 48.5357 157.926 48.4612 158.301 48.4819C158.671 48.4997 159.037 48.6263 159.4 48.8618C159.762 49.0972 160.029 49.3819 160.2 49.7158C160.371 50.0497 160.446 50.4004 160.424 50.7677C160.401 51.135 160.277 51.4931 160.05 51.8422ZM160.087 54.5479L155.227 51.3913L155.628 50.7738L156.588 51.3972L157.388 51.9738L158.257 52.443L160.505 53.9036L160.087 54.5479ZM159.451 51.5296C159.6 51.3014 159.68 51.0644 159.694 50.8185C159.71 50.5682 159.658 50.3306 159.537 50.1056C159.414 49.8732 159.227 49.6756 158.977 49.5128C158.722 49.3472 158.468 49.2584 158.214 49.2467C157.96 49.2275 157.721 49.2762 157.499 49.3928C157.28 49.505 157.096 49.6751 156.948 49.9033C156.803 50.1271 156.722 50.3641 156.705 50.6144C156.692 50.8602 156.745 51.0979 156.863 51.3274C156.979 51.5495 157.165 51.7433 157.42 51.909C157.671 52.0718 157.926 52.1642 158.185 52.1863C158.443 52.201 158.681 52.1523 158.9 52.0401C159.122 51.9235 159.306 51.7533 159.451 51.5296ZM161.867 49.0449C161.786 49.1702 161.674 49.2499 161.53 49.2842C161.383 49.3156 161.242 49.2877 161.108 49.2005C160.973 49.1133 160.893 48.9973 160.866 48.8526C160.839 48.7079 160.866 48.5728 160.948 48.4476C161.026 48.3267 161.135 48.2514 161.276 48.2216C161.419 48.1874 161.558 48.2138 161.692 48.301C161.826 48.3882 161.909 48.5057 161.94 48.6533C161.97 48.7935 161.946 48.9241 161.867 49.0449ZM165.382 43.6631C165.15 44.021 164.876 44.3144 164.562 44.5431C164.247 44.7644 163.909 44.9172 163.549 45.0014C163.187 45.0782 162.82 45.0848 162.448 45.0212C162.076 44.9575 161.715 44.8124 161.366 44.5856C161.017 44.3589 160.738 44.0884 160.528 43.7742C160.319 43.46 160.179 43.1213 160.11 42.758C160.036 42.3918 160.038 42.0211 160.117 41.6457C160.194 41.2629 160.348 40.8926 160.581 40.5346C160.816 40.1722 161.095 39.8795 161.418 39.6566C161.74 39.4263 162.091 39.2823 162.472 39.2244L162.612 39.9354C162.307 39.9923 162.038 40.1036 161.803 40.2692C161.564 40.4319 161.361 40.6407 161.196 40.8958C161.024 41.1598 160.909 41.435 160.85 41.7213C160.794 42.0032 160.793 42.2792 160.847 42.5494C160.9 42.8196 161.008 43.0744 161.171 43.3137C161.332 43.5456 161.543 43.7458 161.802 43.9144C162.062 44.083 162.332 44.1952 162.614 44.2511C162.895 44.2995 163.169 44.2933 163.438 44.2324C163.706 44.1715 163.958 44.0582 164.193 43.8926C164.431 43.7225 164.635 43.5055 164.807 43.2415C164.972 42.9864 165.083 42.718 165.139 42.4361C165.19 42.1513 165.178 41.8569 165.102 41.553L165.808 41.3914C165.91 41.7631 165.924 42.1441 165.848 42.5342C165.776 42.9199 165.621 43.2962 165.382 43.6631ZM167.417 40.4123L164.256 38.3587L164.529 38.3067L163.578 39.7699L163.014 39.4036L165.125 36.155L165.688 36.5213L164.742 37.9778L164.675 37.7144L167.836 39.768L167.417 40.4123ZM170.375 35.947C170.183 36.2424 169.941 36.4695 169.646 36.6284C169.351 36.7799 169.021 36.8423 168.656 36.8156C168.295 36.7844 167.913 36.638 167.51 36.3764C167.107 36.1148 166.817 35.8274 166.638 35.5143C166.463 35.1967 166.386 34.8735 166.409 34.5447C166.435 34.2113 166.546 33.8926 166.744 33.5883C166.971 33.2393 167.247 32.9799 167.574 32.8103C167.901 32.6406 168.251 32.5661 168.626 32.5868C168.996 32.6046 169.362 32.7312 169.725 32.9667C170.087 33.2021 170.354 33.4868 170.525 33.8207C170.697 34.1546 170.771 34.5052 170.749 34.8725C170.727 35.2398 170.602 35.598 170.375 35.947ZM170.412 38.6528L165.553 35.4961L165.954 34.8786L166.913 35.5021L167.713 36.0787L168.582 36.5478L170.831 38.0084L170.412 38.6528ZM169.777 35.6345C169.925 35.4063 170.006 35.1693 170.019 34.9234C170.035 34.6731 169.983 34.4354 169.862 34.2105C169.739 33.9781 169.553 33.7805 169.302 33.6177C169.047 33.452 168.793 33.3633 168.54 33.3515C168.285 33.3324 168.046 33.3811 167.824 33.4977C167.605 33.6098 167.421 33.78 167.273 34.0082C167.128 34.2319 167.047 34.469 167.031 34.7193C167.017 34.9651 167.07 35.2028 167.188 35.4323C167.305 35.6543 167.49 35.8482 167.745 36.0139C167.996 36.1767 168.251 36.2691 168.51 36.2912C168.768 36.3059 169.006 36.2571 169.226 36.145C169.448 36.0284 169.631 35.8582 169.777 35.6345ZM173.142 31.6884C172.909 32.0464 172.624 32.3132 172.288 32.4889C171.951 32.6646 171.594 32.7444 171.216 32.7282C170.834 32.709 170.468 32.5861 170.119 32.3594C169.766 32.1298 169.505 31.8457 169.337 31.5074C169.168 31.169 169.098 30.8116 169.126 30.4354C169.15 30.0562 169.278 29.6876 169.51 29.3297C169.74 28.9762 170.023 28.7116 170.36 28.5359C170.695 28.3528 171.05 28.2716 171.425 28.2923C171.798 28.3056 172.164 28.4285 172.522 28.6611C172.875 28.8907 173.136 29.1747 173.304 29.5131C173.476 29.847 173.548 30.2058 173.521 30.5894C173.498 30.9686 173.371 31.3349 173.142 31.6884ZM172.578 31.3222C172.726 31.094 172.807 30.857 172.82 30.6111C172.836 30.3608 172.784 30.1231 172.663 29.8982C172.537 29.6702 172.349 29.4749 172.099 29.3121C171.844 29.1465 171.591 29.0555 171.341 29.0392C171.086 29.0201 170.847 29.0688 170.625 29.1854C170.406 29.2975 170.222 29.4677 170.074 29.6959C169.926 29.9241 169.845 30.1611 169.832 30.407C169.819 30.6528 169.871 30.8905 169.989 31.12C170.103 31.3465 170.287 31.5426 170.542 31.7083C170.793 31.8711 171.049 31.9613 171.311 31.9789C171.569 31.9936 171.808 31.9448 172.027 31.8327C172.246 31.7206 172.43 31.5504 172.578 31.3222ZM174.905 28.886L171.347 26.5752L171.766 25.9309L174.357 27.6138L173.183 23.7495L173.562 23.1655L177.12 25.4763L176.701 26.1207L174.11 24.4377L175.288 28.2954L174.905 28.886ZM178.39 23.5209L175.229 21.4673L175.501 21.4152L174.55 22.8784L173.987 22.5122L176.097 19.2636L176.661 19.6298L175.715 21.0863L175.647 20.823L178.808 22.8765L178.39 23.5209ZM181.049 19.515C180.802 19.8953 180.506 20.18 180.16 20.3692C179.818 20.5538 179.458 20.638 179.08 20.6218C178.705 20.6011 178.341 20.4759 177.988 20.2463C177.634 20.0167 177.37 19.7372 177.196 19.4077C177.025 19.0738 176.951 18.7232 176.973 18.3559C176.994 17.9812 177.114 17.6238 177.335 17.2837C177.559 16.9392 177.833 16.6843 178.156 16.5191C178.48 16.354 178.829 16.2876 179.202 16.3202C179.574 16.3454 179.943 16.4771 180.31 16.7155C180.337 16.7329 180.367 16.7555 180.4 16.7832C180.435 16.8065 180.467 16.8305 180.496 16.8553L178.53 19.8824L178.066 19.5816L179.815 16.8901L179.806 17.2565C179.581 17.1038 179.346 17.0185 179.103 17.0007C178.861 16.9829 178.633 17.0292 178.421 17.1398C178.208 17.243 178.027 17.4087 177.879 17.6369C177.734 17.8606 177.656 18.0932 177.645 18.3345C177.63 18.573 177.683 18.801 177.802 19.0186C177.917 19.2334 178.091 19.4163 178.324 19.5674L178.431 19.6372C178.668 19.7912 178.916 19.8756 179.173 19.8903C179.43 19.8976 179.673 19.8362 179.904 19.7062C180.135 19.5762 180.333 19.3836 180.499 19.1286C180.635 18.9183 180.723 18.7048 180.762 18.4883C180.804 18.2673 180.795 18.0454 180.736 17.8226L181.383 17.7372C181.467 18.0204 181.479 18.3147 181.42 18.6203C181.365 18.9214 181.241 19.2196 181.049 19.515ZM182.289 17.5035L181.772 17.11C181.796 17.0816 181.82 17.0554 181.842 17.0315C181.864 17.0075 181.882 16.9844 181.896 16.962C181.989 16.8188 182.013 16.675 181.967 16.5305C181.924 16.3815 181.834 16.2346 181.7 16.0897C181.56 15.9419 181.393 15.7922 181.199 15.6405C181.005 15.4889 180.808 15.3418 180.608 15.1992L179.331 14.2842L181.106 11.5524L184.663 13.8632L184.245 14.5076L181.063 12.4409L181.352 12.4086L180.166 14.2343L180.067 13.9602L181.023 14.6481C181.328 14.865 181.605 15.08 181.854 15.2931C182.104 15.5062 182.307 15.7176 182.464 15.9274C182.623 16.1327 182.719 16.338 182.751 16.5434C182.786 16.7442 182.738 16.9453 182.607 17.1467C182.569 17.2049 182.522 17.2631 182.465 17.3215C182.415 17.3784 182.356 17.439 182.289 17.5035ZM186.542 11.0594C186.295 11.4398 185.999 11.7245 185.653 11.9136C185.31 12.0983 184.95 12.1825 184.573 12.1663C184.198 12.1456 183.834 12.0204 183.48 11.7908C183.127 11.5611 182.863 11.2816 182.689 10.9522C182.518 10.6182 182.443 10.2676 182.465 9.90032C182.486 9.52564 182.607 9.16825 182.828 8.82818C183.052 8.48363 183.325 8.22877 183.649 8.06359C183.973 7.89841 184.321 7.83209 184.695 7.86464C185.066 7.88981 185.436 8.02157 185.803 8.25992C185.829 8.27736 185.859 8.29994 185.892 8.32767C185.928 8.35092 185.96 8.37496 185.988 8.39978L184.022 11.4269L183.559 11.1261L185.307 8.43454L185.298 8.80095C185.073 8.64823 184.839 8.56296 184.596 8.54514C184.353 8.52732 184.126 8.57369 183.914 8.68425C183.701 8.78744 183.52 8.95313 183.372 9.18134C183.226 9.40507 183.148 9.63762 183.138 9.87899C183.123 10.1174 183.175 10.3455 183.295 10.5631C183.41 10.7778 183.584 10.9607 183.816 11.1119L183.924 11.1816C184.161 11.3357 184.408 11.4201 184.666 11.4348C184.922 11.4421 185.166 11.3807 185.396 11.2507C185.627 11.1206 185.825 10.9281 185.991 10.673C186.128 10.4627 186.216 10.2493 186.254 10.0328C186.296 9.81174 186.288 9.58984 186.229 9.36706L186.876 9.28164C186.959 9.56481 186.972 9.85919 186.913 10.1648C186.857 10.4659 186.734 10.7641 186.542 11.0594ZM188.21 8.40262L184.653 6.09182L185.072 5.44747L187.662 7.13043L186.489 3.26607L186.868 2.68213L190.425 4.99293L190.007 5.63728L187.416 3.95432L188.594 7.81197L188.21 8.40262ZM185.271 4.12641C185.059 4.45306 184.814 4.65948 184.535 4.74569C184.255 4.82451 183.963 4.76878 183.66 4.57851L183.944 4.14223C184.117 4.24821 184.287 4.27948 184.456 4.23603C184.627 4.18811 184.772 4.07242 184.891 3.88896C185.01 3.7055 185.057 3.52586 185.031 3.35005C185.005 3.17423 184.909 3.02886 184.742 2.91393L185.034 2.46423C185.331 2.66345 185.499 2.90935 185.538 3.20193C185.572 3.4916 185.483 3.79976 185.271 4.12641Z" fill="#B3B6B5"/>
</g>
<defs>
<clipPath id="clip0_2079_2027">
<rect width="192.511" height="72.361" fill="white"/>
</clipPath>
</defs>
</svg>
