<svg width="957" height="777" viewBox="0 0 957 777" fill="none" xmlns="http://www.w3.org/2000/svg">
<g clip-path="url(#clip0_2073_2)">
<path opacity="0.6" d="M0 327.999V400.169L100 449.362V377.194L0 327.999Z" fill="white"/>
<path d="M20.6059 393.084C19.8686 393.084 19.1873 392.963 18.5619 392.72C17.9366 392.468 17.3953 392.118 16.9379 391.67C16.4806 391.222 16.1213 390.695 15.8599 390.088C15.6079 389.481 15.4819 388.819 15.4819 388.1C15.4819 387.381 15.6079 386.719 15.8599 386.112C16.1213 385.505 16.4806 384.978 16.9379 384.53C17.4046 384.082 17.9506 383.737 18.5759 383.494C19.2013 383.242 19.8826 383.116 20.6199 383.116C21.3293 383.116 21.9966 383.237 22.6219 383.48C23.2473 383.713 23.7746 384.068 24.2039 384.544L23.5459 385.202C23.1446 384.791 22.7013 384.497 22.2159 384.32C21.7306 384.133 21.2079 384.04 20.6479 384.04C20.0599 384.04 19.5139 384.143 19.0099 384.348C18.5059 384.544 18.0673 384.829 17.6939 385.202C17.3206 385.566 17.0266 385.995 16.8119 386.49C16.6066 386.975 16.5039 387.512 16.5039 388.1C16.5039 388.688 16.6066 389.229 16.8119 389.724C17.0266 390.209 17.3206 390.639 17.6939 391.012C18.0673 391.376 18.5059 391.661 19.0099 391.866C19.5139 392.062 20.0599 392.16 20.6479 392.16C21.2079 392.16 21.7306 392.067 22.2159 391.88C22.7013 391.693 23.1446 391.395 23.5459 390.984L24.2039 391.642C23.7746 392.118 23.2473 392.477 22.6219 392.72C21.9966 392.963 21.3246 393.084 20.6059 393.084ZM27.3003 393V386.252L27.5523 386.518H24.5143V385.65H31.0803V386.518H28.0423L28.2943 386.252V393H27.3003ZM36.3115 393.07C35.6768 393.07 35.1028 392.925 34.5895 392.636C34.0762 392.337 33.6655 391.913 33.3575 391.362C33.0588 390.802 32.9095 390.121 32.9095 389.318C32.9095 388.515 33.0588 387.839 33.3575 387.288C33.6562 386.728 34.0622 386.303 34.5755 386.014C35.0888 385.725 35.6675 385.58 36.3115 385.58C37.0115 385.58 37.6368 385.739 38.1875 386.056C38.7475 386.364 39.1862 386.803 39.5035 387.372C39.8208 387.932 39.9795 388.581 39.9795 389.318C39.9795 390.065 39.8208 390.718 39.5035 391.278C39.1862 391.838 38.7475 392.277 38.1875 392.594C37.6368 392.911 37.0115 393.07 36.3115 393.07ZM32.5175 395.716V385.65H33.4695V387.862L33.3715 389.332L33.5115 390.816V395.716H32.5175ZM36.2415 392.188C36.7642 392.188 37.2308 392.071 37.6415 391.838C38.0522 391.595 38.3788 391.259 38.6215 390.83C38.8642 390.391 38.9855 389.887 38.9855 389.318C38.9855 388.749 38.8642 388.249 38.6215 387.82C38.3788 387.391 38.0522 387.055 37.6415 386.812C37.2308 386.569 36.7642 386.448 36.2415 386.448C35.7188 386.448 35.2475 386.569 34.8275 386.812C34.4168 387.055 34.0902 387.391 33.8475 387.82C33.6142 388.249 33.4975 388.749 33.4975 389.318C33.4975 389.887 33.6142 390.391 33.8475 390.83C34.0902 391.259 34.4168 391.595 34.8275 391.838C35.2475 392.071 35.7188 392.188 36.2415 392.188ZM45.1392 393.07C44.4298 393.07 43.7905 392.911 43.2212 392.594C42.6612 392.267 42.2178 391.824 41.8912 391.264C41.5645 390.695 41.4012 390.046 41.4012 389.318C41.4012 388.581 41.5645 387.932 41.8912 387.372C42.2178 386.812 42.6612 386.373 43.2212 386.056C43.7812 385.739 44.4205 385.58 45.1392 385.58C45.8672 385.58 46.5112 385.739 47.0712 386.056C47.6405 386.373 48.0838 386.812 48.4012 387.372C48.7278 387.932 48.8912 388.581 48.8912 389.318C48.8912 390.046 48.7278 390.695 48.4012 391.264C48.0838 391.824 47.6405 392.267 47.0712 392.594C46.5018 392.911 45.8578 393.07 45.1392 393.07ZM45.1392 392.188C45.6712 392.188 46.1425 392.071 46.5532 391.838C46.9638 391.595 47.2858 391.259 47.5192 390.83C47.7618 390.391 47.8832 389.887 47.8832 389.318C47.8832 388.739 47.7618 388.235 47.5192 387.806C47.2858 387.377 46.9638 387.045 46.5532 386.812C46.1425 386.569 45.6758 386.448 45.1532 386.448C44.6305 386.448 44.1638 386.569 43.7532 386.812C43.3425 387.045 43.0158 387.377 42.7732 387.806C42.5305 388.235 42.4092 388.739 42.4092 389.318C42.4092 389.887 42.5305 390.391 42.7732 390.83C43.0158 391.259 43.3425 391.595 43.7532 391.838C44.1638 392.071 44.6258 392.188 45.1392 392.188ZM54.1656 393.07C53.4002 393.07 52.7282 392.911 52.1496 392.594C51.5709 392.267 51.1182 391.824 50.7916 391.264C50.4649 390.695 50.3016 390.046 50.3016 389.318C50.3016 388.59 50.4556 387.946 50.7636 387.386C51.0809 386.826 51.5102 386.387 52.0516 386.07C52.6022 385.743 53.2182 385.58 53.8996 385.58C54.5902 385.58 55.2016 385.739 55.7336 386.056C56.2749 386.364 56.6996 386.803 57.0076 387.372C57.3156 387.932 57.4696 388.581 57.4696 389.318C57.4696 389.365 57.4649 389.416 57.4556 389.472C57.4556 389.519 57.4556 389.57 57.4556 389.626H51.0576V388.884H56.9236L56.5316 389.178C56.5316 388.646 56.4149 388.175 56.1816 387.764C55.9576 387.344 55.6496 387.017 55.2576 386.784C54.8656 386.551 54.4129 386.434 53.8996 386.434C53.3956 386.434 52.9429 386.551 52.5416 386.784C52.1402 387.017 51.8276 387.344 51.6036 387.764C51.3796 388.184 51.2676 388.665 51.2676 389.206V389.36C51.2676 389.92 51.3889 390.415 51.6316 390.844C51.8836 391.264 52.2289 391.595 52.6676 391.838C53.1156 392.071 53.6242 392.188 54.1936 392.188C54.6416 392.188 55.0569 392.109 55.4396 391.95C55.8316 391.791 56.1676 391.549 56.4476 391.222L57.0076 391.866C56.6809 392.258 56.2702 392.557 55.7756 392.762C55.2902 392.967 54.7536 393.07 54.1656 393.07ZM59.6699 393V385.65H60.6639V388.898H65.2979V385.65H66.2919V393H65.2979V389.752H60.6639V393H59.6699ZM69.1171 393V385.65H70.1111V391.488L75.0251 385.65H75.9071V393H74.9131V387.148L70.0131 393H69.1171ZM81.9058 393.07C81.1405 393.07 80.4685 392.911 79.8898 392.594C79.3111 392.267 78.8585 391.824 78.5318 391.264C78.2051 390.695 78.0418 390.046 78.0418 389.318C78.0418 388.59 78.1958 387.946 78.5038 387.386C78.8211 386.826 79.2505 386.387 79.7918 386.07C80.3425 385.743 80.9585 385.58 81.6398 385.58C82.3305 385.58 82.9418 385.739 83.4738 386.056C84.0151 386.364 84.4398 386.803 84.7478 387.372C85.0558 387.932 85.2098 388.581 85.2098 389.318C85.2098 389.365 85.2051 389.416 85.1958 389.472C85.1958 389.519 85.1958 389.57 85.1958 389.626H78.7978V388.884H84.6638L84.2718 389.178C84.2718 388.646 84.1551 388.175 83.9218 387.764C83.6978 387.344 83.3898 387.017 82.9978 386.784C82.6058 386.551 82.1531 386.434 81.6398 386.434C81.1358 386.434 80.6831 386.551 80.2818 386.784C79.8805 387.017 79.5678 387.344 79.3438 387.764C79.1198 388.184 79.0078 388.665 79.0078 389.206V389.36C79.0078 389.92 79.1291 390.415 79.3718 390.844C79.6238 391.264 79.9691 391.595 80.4078 391.838C80.8558 392.071 81.3645 392.188 81.9338 392.188C82.3818 392.188 82.7971 392.109 83.1798 391.95C83.5718 391.791 83.9078 391.549 84.1878 391.222L84.7478 391.866C84.4211 392.258 84.0105 392.557 83.5158 392.762C83.0305 392.967 82.4938 393.07 81.9058 393.07Z" fill="#C4A08A"/>
<path d="M52.3801 366H48.9801V341.76L45.9001 344.96L44.8201 343.84L50.4601 338H52.3801V366Z" fill="#C4A08A"/>
<path opacity="0.6" d="M266 655.317V727.487L366 776.68V704.512L266 655.317Z" fill="white"/>
<path d="M286.606 720.402C285.869 720.402 285.187 720.281 284.562 720.038C283.937 719.786 283.395 719.436 282.938 718.988C282.481 718.54 282.121 718.013 281.86 717.406C281.608 716.8 281.482 716.137 281.482 715.418C281.482 714.7 281.608 714.037 281.86 713.43C282.121 712.824 282.481 712.296 282.938 711.848C283.405 711.4 283.951 711.055 284.576 710.812C285.201 710.56 285.883 710.434 286.62 710.434C287.329 710.434 287.997 710.556 288.622 710.798C289.247 711.032 289.775 711.386 290.204 711.862L289.546 712.52C289.145 712.11 288.701 711.816 288.216 711.638C287.731 711.452 287.208 711.358 286.648 711.358C286.06 711.358 285.514 711.461 285.01 711.666C284.506 711.862 284.067 712.147 283.694 712.52C283.321 712.884 283.027 713.314 282.812 713.808C282.607 714.294 282.504 714.83 282.504 715.418C282.504 716.006 282.607 716.548 282.812 717.042C283.027 717.528 283.321 717.957 283.694 718.33C284.067 718.694 284.506 718.979 285.01 719.184C285.514 719.38 286.06 719.478 286.648 719.478C287.208 719.478 287.731 719.385 288.216 719.198C288.701 719.012 289.145 718.713 289.546 718.302L290.204 718.96C289.775 719.436 289.247 719.796 288.622 720.038C287.997 720.281 287.325 720.402 286.606 720.402ZM293.3 720.318V713.57L293.552 713.836H290.514V712.968H297.08V713.836H294.042L294.294 713.57V720.318H293.3ZM302.312 720.388C301.677 720.388 301.103 720.244 300.59 719.954C300.076 719.656 299.666 719.231 299.358 718.68C299.059 718.12 298.91 717.439 298.91 716.636C298.91 715.834 299.059 715.157 299.358 714.606C299.656 714.046 300.062 713.622 300.576 713.332C301.089 713.043 301.668 712.898 302.312 712.898C303.012 712.898 303.637 713.057 304.188 713.374C304.748 713.682 305.186 714.121 305.504 714.69C305.821 715.25 305.98 715.899 305.98 716.636C305.98 717.383 305.821 718.036 305.504 718.596C305.186 719.156 304.748 719.595 304.188 719.912C303.637 720.23 303.012 720.388 302.312 720.388ZM298.518 723.034V712.968H299.47V715.18L299.372 716.65L299.512 718.134V723.034H298.518ZM302.242 719.506C302.764 719.506 303.231 719.39 303.642 719.156C304.052 718.914 304.379 718.578 304.622 718.148C304.864 717.71 304.986 717.206 304.986 716.636C304.986 716.067 304.864 715.568 304.622 715.138C304.379 714.709 304.052 714.373 303.642 714.13C303.231 713.888 302.764 713.766 302.242 713.766C301.719 713.766 301.248 713.888 300.828 714.13C300.417 714.373 300.09 714.709 299.848 715.138C299.614 715.568 299.498 716.067 299.498 716.636C299.498 717.206 299.614 717.71 299.848 718.148C300.09 718.578 300.417 718.914 300.828 719.156C301.248 719.39 301.719 719.506 302.242 719.506ZM311.139 720.388C310.43 720.388 309.791 720.23 309.221 719.912C308.661 719.586 308.218 719.142 307.891 718.582C307.565 718.013 307.401 717.364 307.401 716.636C307.401 715.899 307.565 715.25 307.891 714.69C308.218 714.13 308.661 713.692 309.221 713.374C309.781 713.057 310.421 712.898 311.139 712.898C311.867 712.898 312.511 713.057 313.071 713.374C313.641 713.692 314.084 714.13 314.401 714.69C314.728 715.25 314.891 715.899 314.891 716.636C314.891 717.364 314.728 718.013 314.401 718.582C314.084 719.142 313.641 719.586 313.071 719.912C312.502 720.23 311.858 720.388 311.139 720.388ZM311.139 719.506C311.671 719.506 312.143 719.39 312.553 719.156C312.964 718.914 313.286 718.578 313.519 718.148C313.762 717.71 313.883 717.206 313.883 716.636C313.883 716.058 313.762 715.554 313.519 715.124C313.286 714.695 312.964 714.364 312.553 714.13C312.143 713.888 311.676 713.766 311.153 713.766C310.631 713.766 310.164 713.888 309.753 714.13C309.343 714.364 309.016 714.695 308.773 715.124C308.531 715.554 308.409 716.058 308.409 716.636C308.409 717.206 308.531 717.71 308.773 718.148C309.016 718.578 309.343 718.914 309.753 719.156C310.164 719.39 310.626 719.506 311.139 719.506ZM320.166 720.388C319.4 720.388 318.728 720.23 318.15 719.912C317.571 719.586 317.118 719.142 316.792 718.582C316.465 718.013 316.302 717.364 316.302 716.636C316.302 715.908 316.456 715.264 316.764 714.704C317.081 714.144 317.51 713.706 318.052 713.388C318.602 713.062 319.218 712.898 319.9 712.898C320.59 712.898 321.202 713.057 321.734 713.374C322.275 713.682 322.7 714.121 323.008 714.69C323.316 715.25 323.47 715.899 323.47 716.636C323.47 716.683 323.465 716.734 323.456 716.79C323.456 716.837 323.456 716.888 323.456 716.944H317.058V716.202H322.924L322.532 716.496C322.532 715.964 322.415 715.493 322.182 715.082C321.958 714.662 321.65 714.336 321.258 714.102C320.866 713.869 320.413 713.752 319.9 713.752C319.396 713.752 318.943 713.869 318.542 714.102C318.14 714.336 317.828 714.662 317.604 715.082C317.38 715.502 317.268 715.983 317.268 716.524V716.678C317.268 717.238 317.389 717.733 317.632 718.162C317.884 718.582 318.229 718.914 318.668 719.156C319.116 719.39 319.624 719.506 320.194 719.506C320.642 719.506 321.057 719.427 321.44 719.268C321.832 719.11 322.168 718.867 322.448 718.54L323.008 719.184C322.681 719.576 322.27 719.875 321.776 720.08C321.29 720.286 320.754 720.388 320.166 720.388ZM325.67 720.318V712.968H326.664V716.216H331.298V712.968H332.292V720.318H331.298V717.07H326.664V720.318H325.67ZM335.117 720.318V712.968H336.111V718.806L341.025 712.968H341.907V720.318H340.913V714.466L336.013 720.318H335.117ZM347.906 720.388C347.14 720.388 346.468 720.23 345.89 719.912C345.311 719.586 344.858 719.142 344.532 718.582C344.205 718.013 344.042 717.364 344.042 716.636C344.042 715.908 344.196 715.264 344.504 714.704C344.821 714.144 345.25 713.706 345.792 713.388C346.342 713.062 346.958 712.898 347.64 712.898C348.33 712.898 348.942 713.057 349.474 713.374C350.015 713.682 350.44 714.121 350.748 714.69C351.056 715.25 351.21 715.899 351.21 716.636C351.21 716.683 351.205 716.734 351.196 716.79C351.196 716.837 351.196 716.888 351.196 716.944H344.798V716.202H350.664L350.272 716.496C350.272 715.964 350.155 715.493 349.922 715.082C349.698 714.662 349.39 714.336 348.998 714.102C348.606 713.869 348.153 713.752 347.64 713.752C347.136 713.752 346.683 713.869 346.282 714.102C345.88 714.336 345.568 714.662 345.344 715.082C345.12 715.502 345.008 715.983 345.008 716.524V716.678C345.008 717.238 345.129 717.733 345.372 718.162C345.624 718.582 345.969 718.914 346.408 719.156C346.856 719.39 347.364 719.506 347.934 719.506C348.382 719.506 348.797 719.427 349.18 719.268C349.572 719.11 349.908 718.867 350.188 718.54L350.748 719.184C350.421 719.576 350.01 719.875 349.516 720.08C349.03 720.286 348.494 720.388 347.906 720.388Z" fill="#C4A08A"/>
<path d="M325.68 693.318H307.28L314.84 684.878C315.507 684.078 316.213 683.212 316.96 682.278C317.733 681.345 318.44 680.358 319.08 679.318C319.72 678.278 320.253 677.198 320.68 676.078C321.107 674.958 321.32 673.812 321.32 672.638C321.32 670.798 320.827 669.332 319.84 668.238C318.88 667.145 317.64 666.598 316.12 666.598C315.213 666.598 314.453 666.772 313.84 667.118C313.253 667.465 312.76 667.932 312.36 668.518C311.987 669.078 311.707 669.745 311.52 670.518C311.333 671.265 311.2 672.052 311.12 672.878H307.12C307.12 671.758 307.347 670.705 307.8 669.718C308.253 668.732 308.88 667.878 309.68 667.158C310.507 666.438 311.467 665.878 312.56 665.478C313.653 665.052 314.84 664.838 316.12 664.838C317.56 664.838 318.853 665.052 320 665.478C321.147 665.878 322.107 666.438 322.88 667.158C323.653 667.878 324.24 668.718 324.64 669.678C325.067 670.612 325.28 671.598 325.28 672.638C325.28 673.945 325.147 675.065 324.88 675.998C324.64 676.932 324.24 677.838 323.68 678.718C323.147 679.572 322.44 680.478 321.56 681.438C320.707 682.398 319.667 683.545 318.44 684.878L313.24 690.438H325.68V693.318Z" fill="#C4A08A"/>
<path opacity="0.6" d="M699 635.999V708.169L799 757.362V685.194L699 635.999Z" fill="white"/>
<path d="M719.606 701.084C718.869 701.084 718.187 700.963 717.562 700.72C716.937 700.468 716.395 700.118 715.938 699.67C715.481 699.222 715.121 698.695 714.86 698.088C714.608 697.481 714.482 696.819 714.482 696.1C714.482 695.381 714.608 694.719 714.86 694.112C715.121 693.505 715.481 692.978 715.938 692.53C716.405 692.082 716.951 691.737 717.576 691.494C718.201 691.242 718.883 691.116 719.62 691.116C720.329 691.116 720.997 691.237 721.622 691.48C722.247 691.713 722.775 692.068 723.204 692.544L722.546 693.202C722.145 692.791 721.701 692.497 721.216 692.32C720.731 692.133 720.208 692.04 719.648 692.04C719.06 692.04 718.514 692.143 718.01 692.348C717.506 692.544 717.067 692.829 716.694 693.202C716.321 693.566 716.027 693.995 715.812 694.49C715.607 694.975 715.504 695.512 715.504 696.1C715.504 696.688 715.607 697.229 715.812 697.724C716.027 698.209 716.321 698.639 716.694 699.012C717.067 699.376 717.506 699.661 718.01 699.866C718.514 700.062 719.06 700.16 719.648 700.16C720.208 700.16 720.731 700.067 721.216 699.88C721.701 699.693 722.145 699.395 722.546 698.984L723.204 699.642C722.775 700.118 722.247 700.477 721.622 700.72C720.997 700.963 720.325 701.084 719.606 701.084ZM726.3 701V694.252L726.552 694.518H723.514V693.65H730.08V694.518H727.042L727.294 694.252V701H726.3ZM735.312 701.07C734.677 701.07 734.103 700.925 733.59 700.636C733.076 700.337 732.666 699.913 732.358 699.362C732.059 698.802 731.91 698.121 731.91 697.318C731.91 696.515 732.059 695.839 732.358 695.288C732.656 694.728 733.062 694.303 733.576 694.014C734.089 693.725 734.668 693.58 735.312 693.58C736.012 693.58 736.637 693.739 737.188 694.056C737.748 694.364 738.186 694.803 738.504 695.372C738.821 695.932 738.98 696.581 738.98 697.318C738.98 698.065 738.821 698.718 738.504 699.278C738.186 699.838 737.748 700.277 737.188 700.594C736.637 700.911 736.012 701.07 735.312 701.07ZM731.518 703.716V693.65H732.47V695.862L732.372 697.332L732.512 698.816V703.716H731.518ZM735.242 700.188C735.764 700.188 736.231 700.071 736.642 699.838C737.052 699.595 737.379 699.259 737.622 698.83C737.864 698.391 737.986 697.887 737.986 697.318C737.986 696.749 737.864 696.249 737.622 695.82C737.379 695.391 737.052 695.055 736.642 694.812C736.231 694.569 735.764 694.448 735.242 694.448C734.719 694.448 734.248 694.569 733.828 694.812C733.417 695.055 733.09 695.391 732.848 695.82C732.614 696.249 732.498 696.749 732.498 697.318C732.498 697.887 732.614 698.391 732.848 698.83C733.09 699.259 733.417 699.595 733.828 699.838C734.248 700.071 734.719 700.188 735.242 700.188ZM744.139 701.07C743.43 701.07 742.791 700.911 742.221 700.594C741.661 700.267 741.218 699.824 740.891 699.264C740.565 698.695 740.401 698.046 740.401 697.318C740.401 696.581 740.565 695.932 740.891 695.372C741.218 694.812 741.661 694.373 742.221 694.056C742.781 693.739 743.421 693.58 744.139 693.58C744.867 693.58 745.511 693.739 746.071 694.056C746.641 694.373 747.084 694.812 747.401 695.372C747.728 695.932 747.891 696.581 747.891 697.318C747.891 698.046 747.728 698.695 747.401 699.264C747.084 699.824 746.641 700.267 746.071 700.594C745.502 700.911 744.858 701.07 744.139 701.07ZM744.139 700.188C744.671 700.188 745.143 700.071 745.553 699.838C745.964 699.595 746.286 699.259 746.519 698.83C746.762 698.391 746.883 697.887 746.883 697.318C746.883 696.739 746.762 696.235 746.519 695.806C746.286 695.377 745.964 695.045 745.553 694.812C745.143 694.569 744.676 694.448 744.153 694.448C743.631 694.448 743.164 694.569 742.753 694.812C742.343 695.045 742.016 695.377 741.773 695.806C741.531 696.235 741.409 696.739 741.409 697.318C741.409 697.887 741.531 698.391 741.773 698.83C742.016 699.259 742.343 699.595 742.753 699.838C743.164 700.071 743.626 700.188 744.139 700.188ZM753.166 701.07C752.4 701.07 751.728 700.911 751.15 700.594C750.571 700.267 750.118 699.824 749.792 699.264C749.465 698.695 749.302 698.046 749.302 697.318C749.302 696.59 749.456 695.946 749.764 695.386C750.081 694.826 750.51 694.387 751.052 694.07C751.602 693.743 752.218 693.58 752.9 693.58C753.59 693.58 754.202 693.739 754.734 694.056C755.275 694.364 755.7 694.803 756.008 695.372C756.316 695.932 756.47 696.581 756.47 697.318C756.47 697.365 756.465 697.416 756.456 697.472C756.456 697.519 756.456 697.57 756.456 697.626H750.058V696.884H755.924L755.532 697.178C755.532 696.646 755.415 696.175 755.182 695.764C754.958 695.344 754.65 695.017 754.258 694.784C753.866 694.551 753.413 694.434 752.9 694.434C752.396 694.434 751.943 694.551 751.542 694.784C751.14 695.017 750.828 695.344 750.604 695.764C750.38 696.184 750.268 696.665 750.268 697.206V697.36C750.268 697.92 750.389 698.415 750.632 698.844C750.884 699.264 751.229 699.595 751.668 699.838C752.116 700.071 752.624 700.188 753.194 700.188C753.642 700.188 754.057 700.109 754.44 699.95C754.832 699.791 755.168 699.549 755.448 699.222L756.008 699.866C755.681 700.258 755.27 700.557 754.776 700.762C754.29 700.967 753.754 701.07 753.166 701.07ZM758.67 701V693.65H759.664V696.898H764.298V693.65H765.292V701H764.298V697.752H759.664V701H758.67ZM768.117 701V693.65H769.111V699.488L774.025 693.65H774.907V701H773.913V695.148L769.013 701H768.117ZM780.906 701.07C780.14 701.07 779.468 700.911 778.89 700.594C778.311 700.267 777.858 699.824 777.532 699.264C777.205 698.695 777.042 698.046 777.042 697.318C777.042 696.59 777.196 695.946 777.504 695.386C777.821 694.826 778.25 694.387 778.792 694.07C779.342 693.743 779.958 693.58 780.64 693.58C781.33 693.58 781.942 693.739 782.474 694.056C783.015 694.364 783.44 694.803 783.748 695.372C784.056 695.932 784.21 696.581 784.21 697.318C784.21 697.365 784.205 697.416 784.196 697.472C784.196 697.519 784.196 697.57 784.196 697.626H777.798V696.884H783.664L783.272 697.178C783.272 696.646 783.155 696.175 782.922 695.764C782.698 695.344 782.39 695.017 781.998 694.784C781.606 694.551 781.153 694.434 780.64 694.434C780.136 694.434 779.683 694.551 779.282 694.784C778.88 695.017 778.568 695.344 778.344 695.764C778.12 696.184 778.008 696.665 778.008 697.206V697.36C778.008 697.92 778.129 698.415 778.372 698.844C778.624 699.264 778.969 699.595 779.408 699.838C779.856 700.071 780.364 700.188 780.934 700.188C781.382 700.188 781.797 700.109 782.18 699.95C782.572 699.791 782.908 699.549 783.188 699.222L783.748 699.866C783.421 700.258 783.01 700.557 782.516 700.762C782.03 700.967 781.494 701.07 780.906 701.07Z" fill="#C4A08A"/>
<path d="M747.16 658.24C747.72 658.24 748.36 658.187 749.08 658.08C749.826 657.947 750.52 657.693 751.16 657.32C751.826 656.92 752.373 656.36 752.8 655.64C753.253 654.92 753.48 653.973 753.48 652.8C753.48 652.08 753.373 651.4 753.16 650.76C752.973 650.093 752.666 649.507 752.24 649C751.84 648.467 751.32 648.053 750.68 647.76C750.04 647.44 749.28 647.28 748.4 647.28C747.84 647.28 747.306 647.347 746.8 647.48C746.293 647.613 745.84 647.867 745.44 648.24C745.04 648.587 744.706 649.08 744.44 649.72C744.173 650.36 743.986 651.173 743.88 652.16H740.32C740.346 651.44 740.493 650.693 740.76 649.92C741.053 649.12 741.52 648.4 742.16 647.76C742.8 647.093 743.64 646.56 744.68 646.16C745.72 645.733 747.026 645.52 748.6 645.52C750.04 645.52 751.28 645.733 752.32 646.16C753.386 646.56 754.253 647.107 754.92 647.8C755.613 648.467 756.12 649.253 756.44 650.16C756.76 651.067 756.92 652.013 756.92 653C756.92 654.387 756.546 655.52 755.8 656.4C755.053 657.253 753.92 658 752.4 658.64L751.96 658.8V659.08L752.4 659.16C753.28 659.293 754.066 659.587 754.76 660.04C755.453 660.467 756.04 661 756.52 661.64C757.026 662.253 757.413 662.947 757.68 663.72C757.946 664.467 758.08 665.213 758.08 665.96C758.08 667.027 757.866 668.067 757.44 669.08C757.04 670.093 756.426 671 755.6 671.8C754.773 672.573 753.733 673.2 752.48 673.68C751.253 674.16 749.813 674.4 748.16 674.4C746.986 674.427 745.88 674.267 744.84 673.92C743.8 673.573 742.88 673.093 742.08 672.48C741.306 671.84 740.68 671.107 740.2 670.28C739.746 669.453 739.52 668.587 739.52 667.68H743.52C743.546 668.32 743.68 668.947 743.92 669.56C744.186 670.173 744.533 670.707 744.96 671.16C745.413 671.613 745.946 671.987 746.56 672.28C747.173 672.547 747.866 672.68 748.64 672.68C750.24 672.68 751.533 672.147 752.52 671.08C753.533 670.013 754.04 668.36 754.04 666.12C754.04 665.64 753.986 665.053 753.88 664.36C753.773 663.667 753.493 663 753.04 662.36C752.613 661.693 751.933 661.133 751 660.68C750.066 660.227 748.786 660 747.16 660V658.24Z" fill="#C4A08A"/>
<path opacity="0.6" d="M857 232.317V304.487L957 353.68V281.512L857 232.317Z" fill="white"/>
<path d="M877.606 297.402C876.869 297.402 876.187 297.281 875.562 297.038C874.937 296.786 874.395 296.436 873.938 295.988C873.481 295.54 873.121 295.013 872.86 294.406C872.608 293.8 872.482 293.137 872.482 292.418C872.482 291.7 872.608 291.037 872.86 290.43C873.121 289.824 873.481 289.296 873.938 288.848C874.405 288.4 874.951 288.055 875.576 287.812C876.201 287.56 876.883 287.434 877.62 287.434C878.329 287.434 878.997 287.556 879.622 287.798C880.247 288.032 880.775 288.386 881.204 288.862L880.546 289.52C880.145 289.11 879.701 288.816 879.216 288.638C878.731 288.452 878.208 288.358 877.648 288.358C877.06 288.358 876.514 288.461 876.01 288.666C875.506 288.862 875.067 289.147 874.694 289.52C874.321 289.884 874.027 290.314 873.812 290.808C873.607 291.294 873.504 291.83 873.504 292.418C873.504 293.006 873.607 293.548 873.812 294.042C874.027 294.528 874.321 294.957 874.694 295.33C875.067 295.694 875.506 295.979 876.01 296.184C876.514 296.38 877.06 296.478 877.648 296.478C878.208 296.478 878.731 296.385 879.216 296.198C879.701 296.012 880.145 295.713 880.546 295.302L881.204 295.96C880.775 296.436 880.247 296.796 879.622 297.038C878.997 297.281 878.325 297.402 877.606 297.402ZM884.3 297.318V290.57L884.552 290.836H881.514V289.968H888.08V290.836H885.042L885.294 290.57V297.318H884.3ZM893.312 297.388C892.677 297.388 892.103 297.244 891.59 296.954C891.076 296.656 890.666 296.231 890.358 295.68C890.059 295.12 889.91 294.439 889.91 293.636C889.91 292.834 890.059 292.157 890.358 291.606C890.656 291.046 891.062 290.622 891.576 290.332C892.089 290.043 892.668 289.898 893.312 289.898C894.012 289.898 894.637 290.057 895.188 290.374C895.748 290.682 896.186 291.121 896.504 291.69C896.821 292.25 896.98 292.899 896.98 293.636C896.98 294.383 896.821 295.036 896.504 295.596C896.186 296.156 895.748 296.595 895.188 296.912C894.637 297.23 894.012 297.388 893.312 297.388ZM889.518 300.034V289.968H890.47V292.18L890.372 293.65L890.512 295.134V300.034H889.518ZM893.242 296.506C893.764 296.506 894.231 296.39 894.642 296.156C895.052 295.914 895.379 295.578 895.622 295.148C895.864 294.71 895.986 294.206 895.986 293.636C895.986 293.067 895.864 292.568 895.622 292.138C895.379 291.709 895.052 291.373 894.642 291.13C894.231 290.888 893.764 290.766 893.242 290.766C892.719 290.766 892.248 290.888 891.828 291.13C891.417 291.373 891.09 291.709 890.848 292.138C890.614 292.568 890.498 293.067 890.498 293.636C890.498 294.206 890.614 294.71 890.848 295.148C891.09 295.578 891.417 295.914 891.828 296.156C892.248 296.39 892.719 296.506 893.242 296.506ZM902.139 297.388C901.43 297.388 900.791 297.23 900.221 296.912C899.661 296.586 899.218 296.142 898.891 295.582C898.565 295.013 898.401 294.364 898.401 293.636C898.401 292.899 898.565 292.25 898.891 291.69C899.218 291.13 899.661 290.692 900.221 290.374C900.781 290.057 901.421 289.898 902.139 289.898C902.867 289.898 903.511 290.057 904.071 290.374C904.641 290.692 905.084 291.13 905.401 291.69C905.728 292.25 905.891 292.899 905.891 293.636C905.891 294.364 905.728 295.013 905.401 295.582C905.084 296.142 904.641 296.586 904.071 296.912C903.502 297.23 902.858 297.388 902.139 297.388ZM902.139 296.506C902.671 296.506 903.143 296.39 903.553 296.156C903.964 295.914 904.286 295.578 904.519 295.148C904.762 294.71 904.883 294.206 904.883 293.636C904.883 293.058 904.762 292.554 904.519 292.124C904.286 291.695 903.964 291.364 903.553 291.13C903.143 290.888 902.676 290.766 902.153 290.766C901.631 290.766 901.164 290.888 900.753 291.13C900.343 291.364 900.016 291.695 899.773 292.124C899.531 292.554 899.409 293.058 899.409 293.636C899.409 294.206 899.531 294.71 899.773 295.148C900.016 295.578 900.343 295.914 900.753 296.156C901.164 296.39 901.626 296.506 902.139 296.506ZM911.166 297.388C910.4 297.388 909.728 297.23 909.15 296.912C908.571 296.586 908.118 296.142 907.792 295.582C907.465 295.013 907.302 294.364 907.302 293.636C907.302 292.908 907.456 292.264 907.764 291.704C908.081 291.144 908.51 290.706 909.052 290.388C909.602 290.062 910.218 289.898 910.9 289.898C911.59 289.898 912.202 290.057 912.734 290.374C913.275 290.682 913.7 291.121 914.008 291.69C914.316 292.25 914.47 292.899 914.47 293.636C914.47 293.683 914.465 293.734 914.456 293.79C914.456 293.837 914.456 293.888 914.456 293.944H908.058V293.202H913.924L913.532 293.496C913.532 292.964 913.415 292.493 913.182 292.082C912.958 291.662 912.65 291.336 912.258 291.102C911.866 290.869 911.413 290.752 910.9 290.752C910.396 290.752 909.943 290.869 909.542 291.102C909.14 291.336 908.828 291.662 908.604 292.082C908.38 292.502 908.268 292.983 908.268 293.524V293.678C908.268 294.238 908.389 294.733 908.632 295.162C908.884 295.582 909.229 295.914 909.668 296.156C910.116 296.39 910.624 296.506 911.194 296.506C911.642 296.506 912.057 296.427 912.44 296.268C912.832 296.11 913.168 295.867 913.448 295.54L914.008 296.184C913.681 296.576 913.27 296.875 912.776 297.08C912.29 297.286 911.754 297.388 911.166 297.388ZM916.67 297.318V289.968H917.664V293.216H922.298V289.968H923.292V297.318H922.298V294.07H917.664V297.318H916.67ZM926.117 297.318V289.968H927.111V295.806L932.025 289.968H932.907V297.318H931.913V291.466L927.013 297.318H926.117ZM938.906 297.388C938.14 297.388 937.468 297.23 936.89 296.912C936.311 296.586 935.858 296.142 935.532 295.582C935.205 295.013 935.042 294.364 935.042 293.636C935.042 292.908 935.196 292.264 935.504 291.704C935.821 291.144 936.25 290.706 936.792 290.388C937.342 290.062 937.958 289.898 938.64 289.898C939.33 289.898 939.942 290.057 940.474 290.374C941.015 290.682 941.44 291.121 941.748 291.69C942.056 292.25 942.21 292.899 942.21 293.636C942.21 293.683 942.205 293.734 942.196 293.79C942.196 293.837 942.196 293.888 942.196 293.944H935.798V293.202H941.664L941.272 293.496C941.272 292.964 941.155 292.493 940.922 292.082C940.698 291.662 940.39 291.336 939.998 291.102C939.606 290.869 939.153 290.752 938.64 290.752C938.136 290.752 937.683 290.869 937.282 291.102C936.88 291.336 936.568 291.662 936.344 292.082C936.12 292.502 936.008 292.983 936.008 293.524V293.678C936.008 294.238 936.129 294.733 936.372 295.162C936.624 295.582 936.969 295.914 937.408 296.156C937.856 296.39 938.364 296.506 938.934 296.506C939.382 296.506 939.797 296.427 940.18 296.268C940.572 296.11 940.908 295.867 941.188 295.54L941.748 296.184C941.421 296.576 941.01 296.875 940.516 297.08C940.03 297.286 939.494 297.388 938.906 297.388Z" fill="#C4A08A"/>
<path d="M912.54 261.478H916.34V263.598H912.54V270.318H909.3V263.598H897.26L911.06 242.318H912.54V261.478ZM900.38 261.478H909.3V247.678L900.38 261.478Z" fill="#C4A08A"/>
<path opacity="0.6" d="M405.059 -0.000976562V72.169L505.059 121.362V49.194L405.059 -0.000976562Z" fill="white"/>
<path d="M425.665 65.084C424.927 65.084 424.246 64.9627 423.621 64.72C422.995 64.468 422.454 64.118 421.997 63.67C421.539 63.222 421.18 62.6947 420.919 62.088C420.667 61.4813 420.541 60.8187 420.541 60.1C420.541 59.3813 420.667 58.7187 420.919 58.112C421.18 57.5053 421.539 56.978 421.997 56.53C422.463 56.082 423.009 55.7367 423.635 55.494C424.26 55.242 424.941 55.116 425.679 55.116C426.388 55.116 427.055 55.2373 427.681 55.48C428.306 55.7133 428.833 56.068 429.263 56.544L428.605 57.202C428.203 56.7913 427.76 56.4973 427.275 56.32C426.789 56.1333 426.267 56.04 425.707 56.04C425.119 56.04 424.573 56.1427 424.069 56.348C423.565 56.544 423.126 56.8287 422.753 57.202C422.379 57.566 422.085 57.9953 421.871 58.49C421.665 58.9753 421.563 59.512 421.563 60.1C421.563 60.688 421.665 61.2293 421.871 61.724C422.085 62.2093 422.379 62.6387 422.753 63.012C423.126 63.376 423.565 63.6607 424.069 63.866C424.573 64.062 425.119 64.16 425.707 64.16C426.267 64.16 426.789 64.0667 427.275 63.88C427.76 63.6933 428.203 63.3947 428.605 62.984L429.263 63.642C428.833 64.118 428.306 64.4773 427.681 64.72C427.055 64.9627 426.383 65.084 425.665 65.084ZM432.359 65V58.252L432.611 58.518H429.573V57.65H436.139V58.518H433.101L433.353 58.252V65H432.359ZM441.37 65.07C440.735 65.07 440.161 64.9253 439.648 64.636C439.135 64.3373 438.724 63.9127 438.416 63.362C438.117 62.802 437.968 62.1207 437.968 61.318C437.968 60.5153 438.117 59.8387 438.416 59.288C438.715 58.728 439.121 58.3033 439.634 58.014C440.147 57.7247 440.726 57.58 441.37 57.58C442.07 57.58 442.695 57.7387 443.246 58.056C443.806 58.364 444.245 58.8027 444.562 59.372C444.879 59.932 445.038 60.5807 445.038 61.318C445.038 62.0647 444.879 62.718 444.562 63.278C444.245 63.838 443.806 64.2767 443.246 64.594C442.695 64.9113 442.07 65.07 441.37 65.07ZM437.576 67.716V57.65H438.528V59.862L438.43 61.332L438.57 62.816V67.716H437.576ZM441.3 64.188C441.823 64.188 442.289 64.0713 442.7 63.838C443.111 63.5953 443.437 63.2593 443.68 62.83C443.923 62.3913 444.044 61.8873 444.044 61.318C444.044 60.7487 443.923 60.2493 443.68 59.82C443.437 59.3907 443.111 59.0547 442.7 58.812C442.289 58.5693 441.823 58.448 441.3 58.448C440.777 58.448 440.306 58.5693 439.886 58.812C439.475 59.0547 439.149 59.3907 438.906 59.82C438.673 60.2493 438.556 60.7487 438.556 61.318C438.556 61.8873 438.673 62.3913 438.906 62.83C439.149 63.2593 439.475 63.5953 439.886 63.838C440.306 64.0713 440.777 64.188 441.3 64.188ZM450.198 65.07C449.488 65.07 448.849 64.9113 448.28 64.594C447.72 64.2673 447.276 63.824 446.95 63.264C446.623 62.6947 446.46 62.046 446.46 61.318C446.46 60.5807 446.623 59.932 446.95 59.372C447.276 58.812 447.72 58.3733 448.28 58.056C448.84 57.7387 449.479 57.58 450.198 57.58C450.926 57.58 451.57 57.7387 452.13 58.056C452.699 58.3733 453.142 58.812 453.46 59.372C453.786 59.932 453.95 60.5807 453.95 61.318C453.95 62.046 453.786 62.6947 453.46 63.264C453.142 63.824 452.699 64.2673 452.13 64.594C451.56 64.9113 450.916 65.07 450.198 65.07ZM450.198 64.188C450.73 64.188 451.201 64.0713 451.612 63.838C452.022 63.5953 452.344 63.2593 452.578 62.83C452.82 62.3913 452.942 61.8873 452.942 61.318C452.942 60.7393 452.82 60.2353 452.578 59.806C452.344 59.3767 452.022 59.0453 451.612 58.812C451.201 58.5693 450.734 58.448 450.212 58.448C449.689 58.448 449.222 58.5693 448.812 58.812C448.401 59.0453 448.074 59.3767 447.832 59.806C447.589 60.2353 447.468 60.7393 447.468 61.318C447.468 61.8873 447.589 62.3913 447.832 62.83C448.074 63.2593 448.401 63.5953 448.812 63.838C449.222 64.0713 449.684 64.188 450.198 64.188ZM459.224 65.07C458.459 65.07 457.787 64.9113 457.208 64.594C456.629 64.2673 456.177 63.824 455.85 63.264C455.523 62.6947 455.36 62.046 455.36 61.318C455.36 60.59 455.514 59.946 455.822 59.386C456.139 58.826 456.569 58.3873 457.11 58.07C457.661 57.7433 458.277 57.58 458.958 57.58C459.649 57.58 460.26 57.7387 460.792 58.056C461.333 58.364 461.758 58.8027 462.066 59.372C462.374 59.932 462.528 60.5807 462.528 61.318C462.528 61.3647 462.523 61.416 462.514 61.472C462.514 61.5187 462.514 61.57 462.514 61.626H456.116V60.884H461.982L461.59 61.178C461.59 60.646 461.473 60.1747 461.24 59.764C461.016 59.344 460.708 59.0173 460.316 58.784C459.924 58.5507 459.471 58.434 458.958 58.434C458.454 58.434 458.001 58.5507 457.6 58.784C457.199 59.0173 456.886 59.344 456.662 59.764C456.438 60.184 456.326 60.6647 456.326 61.206V61.36C456.326 61.92 456.447 62.4147 456.69 62.844C456.942 63.264 457.287 63.5953 457.726 63.838C458.174 64.0713 458.683 64.188 459.252 64.188C459.7 64.188 460.115 64.1087 460.498 63.95C460.89 63.7913 461.226 63.5487 461.506 63.222L462.066 63.866C461.739 64.258 461.329 64.5567 460.834 64.762C460.349 64.9673 459.812 65.07 459.224 65.07ZM464.728 65V57.65H465.722V60.898H470.356V57.65H471.35V65H470.356V61.752H465.722V65H464.728ZM474.176 65V57.65H475.17V63.488L480.084 57.65H480.966V65H479.972V59.148L475.072 65H474.176ZM486.964 65.07C486.199 65.07 485.527 64.9113 484.948 64.594C484.37 64.2673 483.917 63.824 483.59 63.264C483.264 62.6947 483.1 62.046 483.1 61.318C483.1 60.59 483.254 59.946 483.562 59.386C483.88 58.826 484.309 58.3873 484.85 58.07C485.401 57.7433 486.017 57.58 486.698 57.58C487.389 57.58 488 57.7387 488.532 58.056C489.074 58.364 489.498 58.8027 489.806 59.372C490.114 59.932 490.268 60.5807 490.268 61.318C490.268 61.3647 490.264 61.416 490.254 61.472C490.254 61.5187 490.254 61.57 490.254 61.626H483.856V60.884H489.722L489.33 61.178C489.33 60.646 489.214 60.1747 488.98 59.764C488.756 59.344 488.448 59.0173 488.056 58.784C487.664 58.5507 487.212 58.434 486.698 58.434C486.194 58.434 485.742 58.5507 485.34 58.784C484.939 59.0173 484.626 59.344 484.402 59.764C484.178 60.184 484.066 60.6647 484.066 61.206V61.36C484.066 61.92 484.188 62.4147 484.43 62.844C484.682 63.264 485.028 63.5953 485.466 63.838C485.914 64.0713 486.423 64.188 486.992 64.188C487.44 64.188 487.856 64.1087 488.238 63.95C488.63 63.7913 488.966 63.5487 489.246 63.222L489.806 63.866C489.48 64.258 489.069 64.5567 488.574 64.762C488.089 64.9673 487.552 65.07 486.964 65.07Z" fill="#C4A08A"/>
<path d="M450.858 20.04C451.605 19.7467 452.272 19.5333 452.858 19.4C453.472 19.24 454.152 19.16 454.898 19.16C456.178 19.16 457.365 19.3733 458.458 19.8C459.552 20.2 460.498 20.8 461.298 21.6C462.125 22.3733 462.765 23.3067 463.218 24.4C463.698 25.4933 463.938 26.72 463.938 28.08C463.938 29.7333 463.658 31.2 463.098 32.48C462.565 33.76 461.818 34.84 460.858 35.72C459.925 36.6 458.818 37.28 457.538 37.76C456.285 38.2133 454.938 38.44 453.498 38.44C452.272 38.44 451.138 38.2667 450.098 37.92C449.085 37.5467 448.205 37.0533 447.458 36.44C446.712 35.8267 446.112 35.0933 445.658 34.24C445.232 33.3867 445.005 32.48 444.978 31.52H447.898C447.925 32.24 448.072 32.92 448.338 33.56C448.605 34.1733 448.965 34.72 449.418 35.2C449.898 35.6533 450.472 36.0133 451.138 36.28C451.805 36.5467 452.565 36.68 453.418 36.68C454.192 36.68 454.965 36.5333 455.738 36.24C456.512 35.92 457.205 35.4267 457.818 34.76C458.458 34.0667 458.965 33.2 459.338 32.16C459.738 31.0933 459.938 29.8133 459.938 28.32C459.938 26.2133 459.378 24.5067 458.258 23.2C457.138 21.8933 455.458 21.24 453.218 21.24C452.685 21.24 451.952 21.2933 451.018 21.4C450.085 21.5067 449.045 21.8533 447.898 22.44L451.458 10H463.578L462.778 12.2H453.178L450.858 20.04Z" fill="#C4A08A"/>
<path d="M99.3012 615.868C99.0063 615.794 98.7316 615.672 98.4774 615.501C98.2211 615.338 98.0153 615.139 97.86 614.902L98.5464 614.183C98.6649 614.369 98.8076 614.524 98.9745 614.648C99.1414 614.772 99.3297 614.86 99.5393 614.913C99.811 614.98 100.054 614.967 100.267 614.872C100.48 614.776 100.709 614.57 100.953 614.251L101.55 613.497L101.701 613.386L105.519 608.39L106.614 608.662L101.929 614.705C101.642 615.095 101.355 615.386 101.068 615.578C100.788 615.772 100.504 615.887 100.215 615.922C99.9241 615.965 99.6195 615.947 99.3012 615.868ZM101.3 614.103L100.07 607.031L101.234 607.321L102.263 613.415L101.3 614.103ZM104.868 614.77L105.173 613.844C105.225 613.865 105.274 613.886 105.318 613.905C105.363 613.924 105.405 613.939 105.444 613.948C105.692 614.01 105.907 613.973 106.09 613.837C106.28 613.703 106.444 613.505 106.584 613.243C106.725 612.974 106.856 612.664 106.976 612.315C107.096 611.965 107.209 611.614 107.313 611.261L107.987 609.005L112.726 610.186L111.187 616.358L110.07 616.079L111.446 610.56L111.632 610.953L108.465 610.163L108.805 609.889L108.297 611.58C108.138 612.118 107.969 612.616 107.789 613.074C107.609 613.532 107.408 613.923 107.187 614.247C106.974 614.573 106.73 614.809 106.454 614.955C106.186 615.102 105.878 615.133 105.529 615.046C105.428 615.02 105.322 614.982 105.211 614.929C105.107 614.887 104.992 614.834 104.868 614.77ZM113.576 617.027C113.358 616.973 113.191 616.853 113.072 616.667C112.956 616.473 112.926 616.259 112.984 616.026C113.042 615.794 113.167 615.623 113.359 615.514C113.552 615.405 113.756 615.378 113.974 615.432C114.183 615.484 114.343 615.603 114.454 615.787C114.572 615.973 114.603 616.183 114.545 616.415C114.487 616.648 114.361 616.823 114.167 616.94C113.982 617.05 113.785 617.08 113.576 617.027ZM120.965 618.795L122.82 611.355L123.036 611.73L119.962 610.964L120.214 609.951L126.933 611.626L126.68 612.639L123.606 611.873L123.961 611.64L122.106 619.08L120.965 618.795ZM128.223 620.679C127.563 620.515 127.015 620.234 126.578 619.836C126.149 619.441 125.854 618.971 125.692 618.428C125.539 617.887 125.538 617.31 125.691 616.696C125.844 616.083 126.112 615.573 126.494 615.165C126.883 614.759 127.344 614.483 127.876 614.335C128.417 614.181 128.982 614.178 129.572 614.325C130.17 614.474 130.665 614.738 131.057 615.116C131.449 615.494 131.714 615.955 131.85 616.5C131.996 617.04 131.989 617.628 131.83 618.264C131.819 618.311 131.801 618.364 131.778 618.424C131.763 618.486 131.744 618.544 131.723 618.596L126.472 617.287L126.672 616.483L131.341 617.648L130.817 617.814C130.924 617.42 130.93 617.046 130.837 616.693C130.744 616.34 130.567 616.04 130.307 615.794C130.056 615.542 129.733 615.367 129.337 615.268C128.949 615.171 128.581 615.174 128.234 615.277C127.889 615.373 127.591 615.558 127.341 615.834C127.093 616.102 126.918 616.438 126.818 616.841L126.771 617.028C126.669 617.439 126.67 617.831 126.775 618.203C126.89 618.57 127.096 618.885 127.393 619.149C127.69 619.413 128.059 619.6 128.502 619.71C128.867 619.801 129.212 619.821 129.538 619.77C129.872 619.722 130.182 619.601 130.469 619.409L130.906 620.285C130.545 620.541 130.134 620.702 129.672 620.769C129.218 620.837 128.735 620.807 128.223 620.679ZM136.058 622.633C135.546 622.505 135.105 622.272 134.737 621.932C134.377 621.587 134.128 621.15 133.988 620.62C133.855 620.092 133.876 619.479 134.051 618.781C134.225 618.082 134.49 617.53 134.847 617.124C135.212 616.72 135.632 616.454 136.11 616.326C136.595 616.199 137.101 616.202 137.629 616.334C138.234 616.485 138.737 616.75 139.137 617.13C139.537 617.51 139.814 617.971 139.967 618.512C140.123 619.046 140.122 619.627 139.966 620.255C139.809 620.884 139.536 621.401 139.146 621.807C138.756 622.213 138.295 622.49 137.764 622.638C137.232 622.785 136.664 622.784 136.058 622.633ZM132.241 624.006L134.343 615.576L135.414 615.843L134.999 617.508L134.572 618.923L134.331 620.384L133.358 624.285L132.241 624.006ZM136.209 621.632C136.605 621.73 136.98 621.729 137.335 621.628C137.698 621.529 138.009 621.338 138.269 621.057C138.539 620.77 138.728 620.409 138.836 619.974C138.946 619.531 138.948 619.128 138.841 618.763C138.744 618.393 138.558 618.078 138.285 617.82C138.019 617.565 137.688 617.387 137.292 617.288C136.904 617.192 136.528 617.193 136.166 617.292C135.811 617.393 135.499 617.584 135.232 617.863C134.974 618.137 134.79 618.495 134.679 618.937C134.571 619.372 134.564 619.779 134.66 620.157C134.765 620.529 134.95 620.844 135.216 621.1C135.49 621.357 135.821 621.535 136.209 621.632ZM140.82 623.746L142.359 617.575L143.477 617.853L142.823 620.473L146.34 621.35L146.993 618.73L148.111 619.009L146.572 625.18L145.454 624.901L146.099 622.316L142.582 621.44L141.938 624.025L140.82 623.746ZM151.371 626.451C150.75 626.296 150.233 626.023 149.819 625.631C149.406 625.239 149.118 624.772 148.957 624.229C148.798 623.678 148.793 623.1 148.944 622.494C149.097 621.881 149.372 621.372 149.77 620.969C150.167 620.565 150.64 620.291 151.187 620.147C151.736 619.995 152.321 619.997 152.942 620.152C153.555 620.304 154.068 620.577 154.482 620.968C154.905 621.354 155.194 621.818 155.347 622.359C155.511 622.894 155.515 623.473 155.36 624.094C155.207 624.707 154.932 625.215 154.534 625.619C154.145 626.025 153.671 626.303 153.115 626.453C152.566 626.604 151.984 626.604 151.371 626.451ZM151.615 625.473C152.011 625.571 152.386 625.57 152.741 625.469C153.104 625.37 153.415 625.18 153.675 624.898C153.937 624.609 154.122 624.247 154.231 623.812C154.341 623.37 154.346 622.967 154.247 622.604C154.15 622.234 153.964 621.919 153.691 621.662C153.425 621.406 153.094 621.228 152.698 621.13C152.302 621.031 151.927 621.032 151.572 621.133C151.217 621.234 150.905 621.425 150.638 621.704C150.372 621.976 150.184 622.333 150.074 622.776C149.965 623.21 149.963 623.618 150.066 623.998C150.171 624.371 150.356 624.685 150.622 624.941C150.888 625.197 151.219 625.374 151.615 625.473ZM156.205 627.582L157.743 621.411L163.46 622.836L161.922 629.007L160.804 628.728L162.168 623.256L162.366 623.602L158.349 622.601L158.687 622.388L157.322 627.86L156.205 627.582ZM166.71 630.275C166.089 630.12 165.572 629.847 165.158 629.455C164.745 629.064 164.457 628.596 164.296 628.053C164.137 627.502 164.132 626.924 164.283 626.319C164.436 625.705 164.711 625.197 165.109 624.793C165.506 624.389 165.979 624.115 166.526 623.971C167.075 623.82 167.66 623.821 168.281 623.976C168.894 624.129 169.407 624.401 169.821 624.793C170.244 625.179 170.533 625.642 170.686 626.184C170.85 626.719 170.854 627.297 170.699 627.918C170.546 628.531 170.271 629.04 169.873 629.444C169.484 629.849 169.01 630.127 168.454 630.277C167.905 630.429 167.323 630.428 166.71 630.275ZM166.954 629.297C167.35 629.396 167.725 629.395 168.08 629.294C168.443 629.194 168.754 629.004 169.014 628.722C169.276 628.433 169.461 628.071 169.57 627.637C169.68 627.194 169.685 626.791 169.586 626.429C169.489 626.058 169.303 625.744 169.03 625.486C168.764 625.23 168.433 625.053 168.037 624.954C167.641 624.855 167.266 624.857 166.911 624.958C166.556 625.059 166.244 625.249 165.977 625.529C165.711 625.801 165.523 626.158 165.413 626.6C165.304 627.035 165.302 627.442 165.405 627.823C165.51 628.195 165.695 628.509 165.961 628.765C166.227 629.021 166.558 629.198 166.954 629.297ZM170.477 631.128L170.782 630.202C170.834 630.223 170.882 630.244 170.927 630.263C170.972 630.282 171.013 630.297 171.052 630.307C171.301 630.368 171.516 630.331 171.698 630.196C171.888 630.062 172.053 629.864 172.193 629.601C172.334 629.332 172.465 629.022 172.585 628.673C172.705 628.323 172.817 627.972 172.922 627.619L173.596 625.363L178.335 626.545L176.796 632.716L175.678 632.437L177.054 626.918L177.241 627.311L174.074 626.521L174.414 626.247L173.906 627.939C173.747 628.476 173.578 628.974 173.398 629.432C173.217 629.89 173.017 630.281 172.796 630.605C172.583 630.931 172.338 631.167 172.063 631.313C171.795 631.461 171.487 631.491 171.137 631.404C171.036 631.379 170.931 631.34 170.82 631.288C170.715 631.245 170.601 631.192 170.477 631.128ZM182.826 629.891C183.608 630.094 184.161 630.421 184.486 630.873C184.81 631.325 184.893 631.869 184.734 632.506C184.568 633.173 184.214 633.633 183.673 633.886C183.133 634.131 182.453 634.147 181.632 633.934L178.957 633.255L180.496 627.083L181.614 627.362L181.094 629.446L182.826 629.891ZM181.751 633.061C182.254 633.194 182.659 633.188 182.968 633.042C183.284 632.899 183.493 632.621 183.596 632.21C183.697 631.806 183.642 631.479 183.432 631.229C183.223 630.979 182.863 630.786 182.352 630.65L180.891 630.261L180.287 632.683L181.751 633.061ZM188.327 635.665C187.698 635.508 187.169 635.232 186.74 634.836C186.319 634.443 186.028 633.974 185.866 633.431C185.705 632.888 185.701 632.31 185.853 631.697C186.006 631.083 186.282 630.575 186.679 630.171C187.077 629.767 187.553 629.494 188.108 629.352C188.672 629.204 189.269 629.209 189.897 629.366C190.456 629.505 190.925 629.741 191.304 630.075C191.692 630.403 191.952 630.814 192.084 631.308L191.098 631.644C190.972 631.291 190.778 631.008 190.518 630.794C190.268 630.575 189.976 630.424 189.642 630.341C189.238 630.24 188.855 630.239 188.492 630.339C188.13 630.438 187.814 630.627 187.547 630.907C187.281 631.179 187.093 631.536 186.983 631.978C186.873 632.421 186.87 632.828 186.975 633.201C187.08 633.573 187.269 633.888 187.543 634.146C187.817 634.404 188.156 634.583 188.559 634.684C188.893 634.767 189.221 634.775 189.543 634.707C189.875 634.633 190.179 634.469 190.456 634.217L191.173 634.965C190.826 635.331 190.402 635.576 189.902 635.699C189.411 635.815 188.886 635.804 188.327 635.665ZM196.778 637.698L195.14 634.098L196.199 633.769L198.093 638.026L196.778 637.698ZM192.307 636.583L193.845 630.412L194.963 630.69L193.424 636.862L192.307 636.583ZM193.737 634.169L193.975 633.214L196.013 633.722L195.775 634.677L193.737 634.169ZM196.141 634.398L195.14 634L198.27 631.515L199.469 631.814L196.141 634.398ZM202.936 639.233L203.261 637.929L203.264 637.67L203.818 635.446C203.936 634.972 203.887 634.573 203.672 634.247C203.466 633.915 203.088 633.681 202.536 633.543C202.172 633.452 201.799 633.426 201.419 633.463C201.04 633.492 200.706 633.578 200.415 633.719L200.158 632.765C200.54 632.588 200.969 632.489 201.444 632.467C201.929 632.44 202.416 632.487 202.905 632.609C203.752 632.82 204.352 633.188 204.708 633.714C205.063 634.239 205.135 634.925 204.924 635.771L203.995 639.497L202.936 639.233ZM200.892 638.798C200.434 638.684 200.05 638.505 199.74 638.263C199.437 638.023 199.226 637.743 199.107 637.425C198.991 637.099 198.976 636.762 199.063 636.412C199.146 636.079 199.299 635.795 199.522 635.562C199.753 635.331 200.067 635.179 200.465 635.105C200.871 635.033 201.38 635.073 201.993 635.226L203.949 635.714L203.749 636.517L201.839 636.041C201.281 635.902 200.881 635.901 200.64 636.039C200.4 636.177 200.247 636.378 200.181 636.642C200.105 636.944 200.165 637.219 200.359 637.465C200.555 637.704 200.867 637.876 201.294 637.983C201.713 638.087 202.101 638.085 202.458 637.976C202.822 637.869 203.119 637.654 203.348 637.332L203.378 638.156C203.139 638.484 202.806 638.71 202.38 638.835C201.955 638.951 201.459 638.939 200.892 638.798ZM209.955 640.983L210.495 638.817L210.618 639.071L208.65 638.58C207.827 638.375 207.226 638.04 206.848 637.574C206.477 637.111 206.375 636.545 206.541 635.878C206.719 635.163 207.098 634.685 207.678 634.442C208.266 634.201 208.971 634.183 209.794 634.388L212.495 635.062L210.957 641.233L209.955 640.983ZM205.484 639.868L207.75 637.923L208.903 638.21L206.683 640.167L205.484 639.868ZM210.582 638.468L211.328 635.476L211.425 635.834L209.585 635.375C209.073 635.247 208.653 635.246 208.325 635.37C207.999 635.487 207.782 635.762 207.673 636.197C207.472 637.004 207.892 637.538 208.932 637.797L210.818 638.267L210.582 638.468Z" fill="#B3B6B5"/>
<path d="M785.312 539.311L779.976 535.844L783.187 530.901L788.523 534.367L787.895 535.334L783.163 532.26L783.555 532.185L781.299 535.659L781.208 535.27L785.94 538.344L785.312 539.311ZM791.636 529.707C791.348 530.15 790.984 530.491 790.543 530.729C790.099 530.956 789.604 531.05 789.058 531.01C788.515 530.963 787.942 530.743 787.338 530.351C786.734 529.959 786.298 529.528 786.031 529.058C785.768 528.582 785.653 528.097 785.687 527.604C785.726 527.104 785.893 526.625 786.189 526.169C786.53 525.645 786.944 525.256 787.434 525.002C787.924 524.747 788.45 524.636 789.012 524.667C789.567 524.693 790.117 524.883 790.661 525.237C791.204 525.59 791.604 526.017 791.861 526.518C792.118 527.018 792.23 527.544 792.196 528.095C792.163 528.646 791.976 529.184 791.636 529.707ZM791.691 533.766L784.402 529.031L785.004 528.104L786.443 529.04L787.643 529.905L788.946 530.608L792.319 532.799L791.691 533.766ZM790.738 529.238C790.961 528.896 791.082 528.54 791.102 528.172C791.126 527.796 791.048 527.44 790.866 527.102C790.682 526.754 790.402 526.457 790.026 526.213C789.644 525.965 789.262 525.831 788.883 525.814C788.5 525.785 788.143 525.858 787.81 526.033C787.481 526.201 787.205 526.457 786.983 526.799C786.765 527.134 786.644 527.49 786.619 527.865C786.599 528.234 786.678 528.591 786.855 528.935C787.03 529.268 787.309 529.559 787.691 529.807C788.067 530.052 788.45 530.19 788.839 530.223C789.225 530.245 789.583 530.172 789.911 530.004C790.245 529.829 790.52 529.574 790.738 529.238ZM794.362 525.511C794.24 525.699 794.071 525.819 793.857 525.87C793.635 525.917 793.424 525.875 793.222 525.745C793.021 525.614 792.9 525.44 792.86 525.223C792.82 525.006 792.86 524.803 792.983 524.615C793.1 524.434 793.264 524.321 793.475 524.276C793.689 524.225 793.897 524.265 794.099 524.395C794.3 524.526 794.424 524.702 794.471 524.924C794.516 525.134 794.48 525.33 794.362 525.511ZM799.634 517.438C799.286 517.975 798.876 518.415 798.405 518.758C797.931 519.09 797.425 519.32 796.884 519.446C796.342 519.561 795.791 519.571 795.233 519.476C794.675 519.38 794.134 519.162 793.61 518.822C793.087 518.482 792.668 518.077 792.354 517.605C792.039 517.134 791.83 516.626 791.726 516.081C791.615 515.532 791.619 514.975 791.736 514.412C791.851 513.838 792.083 513.283 792.432 512.746C792.785 512.202 793.204 511.763 793.689 511.429C794.171 511.083 794.698 510.867 795.269 510.781L795.478 511.847C795.022 511.932 794.618 512.099 794.266 512.348C793.907 512.592 793.603 512.905 793.354 513.288C793.097 513.684 792.924 514.096 792.836 514.526C792.753 514.949 792.751 515.363 792.831 515.768C792.912 516.173 793.074 516.555 793.318 516.914C793.559 517.262 793.875 517.563 794.264 517.815C794.654 518.068 795.06 518.237 795.482 518.32C795.903 518.393 796.314 518.384 796.717 518.292C797.12 518.201 797.498 518.031 797.85 517.783C798.207 517.528 798.514 517.202 798.771 516.806C799.02 516.423 799.186 516.021 799.269 515.598C799.346 515.171 799.328 514.729 799.214 514.273L800.273 514.031C800.426 514.589 800.446 515.16 800.333 515.745C800.225 516.324 799.992 516.888 799.634 517.438ZM802.687 512.562L797.945 509.482L798.354 509.404L796.928 511.599L796.082 511.049L799.248 506.176L800.094 506.726L798.674 508.911L798.573 508.515L803.315 511.596L802.687 512.562ZM807.124 505.864C806.836 506.307 806.472 506.648 806.031 506.886C805.587 507.114 805.092 507.207 804.545 507.167C804.003 507.12 803.43 506.901 802.826 506.508C802.222 506.116 801.786 505.685 801.519 505.215C801.255 504.739 801.141 504.254 801.175 503.761C801.213 503.261 801.381 502.783 801.677 502.326C802.017 501.803 802.432 501.414 802.922 501.159C803.412 500.905 803.938 500.793 804.5 500.824C805.055 500.851 805.605 501.041 806.148 501.394C806.692 501.747 807.092 502.174 807.349 502.675C807.606 503.176 807.718 503.702 807.684 504.253C807.651 504.804 807.464 505.341 807.124 505.864ZM807.179 509.923L799.89 505.188L800.492 504.262L801.931 505.197L803.13 506.062L804.434 506.766L807.807 508.957L807.179 509.923ZM806.226 505.396C806.448 505.053 806.57 504.698 806.59 504.329C806.614 503.954 806.535 503.597 806.354 503.26C806.17 502.911 805.89 502.615 805.514 502.37C805.131 502.122 804.75 501.989 804.37 501.971C803.988 501.942 803.63 502.015 803.297 502.19C802.969 502.359 802.693 502.614 802.471 502.956C802.253 503.292 802.131 503.647 802.107 504.023C802.087 504.392 802.166 504.748 802.343 505.092C802.518 505.425 802.797 505.716 803.179 505.965C803.555 506.209 803.937 506.348 804.326 506.381C804.713 506.403 805.071 506.33 805.399 506.161C805.732 505.986 806.008 505.731 806.226 505.396ZM811.274 499.476C810.925 500.013 810.498 500.414 809.992 500.677C809.487 500.941 808.951 501.06 808.385 501.036C807.812 501.007 807.264 500.823 806.74 500.483C806.21 500.138 805.818 499.712 805.566 499.205C805.313 498.697 805.208 498.161 805.25 497.597C805.286 497.028 805.478 496.475 805.827 495.938C806.171 495.408 806.596 495.011 807.101 494.748C807.604 494.473 808.137 494.351 808.699 494.382C809.258 494.402 809.807 494.587 810.344 494.935C810.874 495.28 811.265 495.706 811.518 496.214C811.774 496.714 811.883 497.253 811.843 497.828C811.808 498.397 811.618 498.946 811.274 499.476ZM810.428 498.927C810.65 498.585 810.771 498.229 810.791 497.861C810.816 497.485 810.737 497.129 810.556 496.791C810.367 496.449 810.085 496.156 809.709 495.912C809.327 495.664 808.948 495.527 808.572 495.503C808.19 495.474 807.832 495.547 807.499 495.722C807.17 495.89 806.895 496.145 806.672 496.488C806.45 496.83 806.329 497.186 806.309 497.554C806.289 497.923 806.367 498.28 806.545 498.624C806.715 498.964 806.992 499.258 807.374 499.506C807.75 499.75 808.135 499.886 808.528 499.912C808.915 499.934 809.272 499.861 809.601 499.693C809.93 499.525 810.205 499.269 810.428 498.927ZM813.918 495.273L808.582 491.807L809.21 490.84L813.096 493.365L811.335 487.568L811.904 486.692L817.241 490.158L816.613 491.125L812.726 488.6L814.494 494.387L813.918 495.273ZM819.146 487.225L814.404 484.145L814.812 484.067L813.387 486.262L812.541 485.712L815.706 480.839L816.552 481.389L815.133 483.573L815.032 483.178L819.774 486.259L819.146 487.225ZM823.135 481.216C822.764 481.787 822.32 482.214 821.802 482.498C821.288 482.775 820.748 482.901 820.181 482.877C819.619 482.846 819.073 482.658 818.543 482.313C818.012 481.969 817.617 481.55 817.356 481.055C817.099 480.555 816.987 480.029 817.02 479.478C817.051 478.916 817.233 478.38 817.564 477.869C817.9 477.353 818.31 476.97 818.796 476.723C819.281 476.475 819.804 476.375 820.364 476.424C820.922 476.462 821.476 476.66 822.026 477.017C822.066 477.043 822.111 477.077 822.16 477.119C822.214 477.154 822.262 477.19 822.305 477.227L819.355 481.768L818.661 481.316L821.283 477.279L821.27 477.829C820.932 477.6 820.581 477.472 820.216 477.445C819.852 477.418 819.511 477.488 819.193 477.654C818.873 477.808 818.602 478.057 818.379 478.399C818.161 478.735 818.045 479.084 818.029 479.446C818.007 479.803 818.085 480.145 818.264 480.472C818.437 480.794 818.698 481.068 819.047 481.295L819.208 481.4C819.564 481.631 819.935 481.757 820.321 481.779C820.705 481.79 821.071 481.698 821.417 481.503C821.763 481.308 822.06 481.019 822.309 480.637C822.514 480.321 822.645 480.001 822.704 479.676C822.766 479.345 822.754 479.012 822.665 478.678L823.636 478.55C823.761 478.974 823.78 479.416 823.692 479.874C823.608 480.326 823.423 480.773 823.135 481.216ZM824.995 478.199L824.218 477.609C824.256 477.566 824.291 477.527 824.324 477.491C824.357 477.455 824.384 477.42 824.406 477.387C824.545 477.172 824.58 476.956 824.511 476.74C824.446 476.516 824.313 476.296 824.11 476.078C823.901 475.857 823.651 475.632 823.36 475.405C823.068 475.177 822.773 474.957 822.473 474.743L820.558 473.37L823.22 469.272L828.556 472.739L827.928 473.705L823.156 470.605L823.588 470.557L821.809 473.295L821.661 472.884L823.096 473.916C823.552 474.241 823.968 474.564 824.343 474.883C824.717 475.203 825.022 475.52 825.256 475.835C825.495 476.143 825.639 476.451 825.687 476.759C825.739 477.06 825.667 477.362 825.471 477.664C825.415 477.751 825.343 477.839 825.258 477.926C825.183 478.011 825.096 478.102 824.995 478.199ZM831.374 468.533C831.003 469.103 830.559 469.531 830.041 469.814C829.527 470.091 828.986 470.218 828.42 470.193C827.858 470.162 827.312 469.974 826.782 469.63C826.251 469.286 825.856 468.866 825.594 468.372C825.338 467.871 825.226 467.345 825.259 466.794C825.29 466.232 825.471 465.696 825.803 465.186C826.139 464.669 826.549 464.287 827.035 464.039C827.52 463.791 828.043 463.692 828.603 463.741C829.16 463.779 829.714 463.976 830.265 464.334C830.305 464.36 830.35 464.394 830.399 464.435C830.453 464.47 830.501 464.506 830.544 464.544L827.594 469.084L826.9 468.633L829.522 464.596L829.509 465.145C829.171 464.916 828.82 464.788 828.455 464.762C828.091 464.735 827.75 464.804 827.432 464.97C827.112 465.125 826.841 465.374 826.618 465.716C826.4 466.051 826.284 466.4 826.268 466.762C826.245 467.12 826.324 467.462 826.503 467.789C826.676 468.111 826.937 468.385 827.286 468.612L827.447 468.716C827.802 468.947 828.174 469.074 828.56 469.096C828.944 469.107 829.309 469.015 829.656 468.82C830.002 468.625 830.299 468.336 830.548 467.953C830.753 467.638 830.884 467.318 830.943 466.993C831.005 466.661 830.992 466.329 830.904 465.994L831.875 465.866C832 466.291 832.018 466.733 831.931 467.191C831.847 467.643 831.662 468.09 831.374 468.533ZM833.877 464.548L828.541 461.082L829.168 460.115L833.055 462.639L831.294 456.843L831.863 455.967L837.199 459.433L836.571 460.4L832.685 457.875L834.452 463.662L833.877 464.548ZM829.468 458.133C829.15 458.623 828.781 458.933 828.363 459.062C827.943 459.181 827.506 459.097 827.052 458.812L827.477 458.157C827.736 458.316 827.992 458.363 828.244 458.298C828.501 458.226 828.719 458.052 828.898 457.777C829.076 457.502 829.146 457.233 829.108 456.969C829.069 456.705 828.924 456.487 828.674 456.315L829.112 455.64C829.557 455.939 829.809 456.308 829.868 456.747C829.919 457.181 829.786 457.643 829.468 458.133Z" fill="#B3B6B5"/>
</g>
<defs>
<clipPath id="clip0_2073_2">
<rect width="957" height="776.682" fill="white"/>
</clipPath>
</defs>
</svg>
