<svg version="1.1" xmlns="http://www.w3.org/2000/svg" xmlns:xlink="http://www.w3.org/1999/xlink">

    <symbol viewBox="0 0 200 30" id="logo">
        <path d="M3.17377 24.218L0.86377 29.999H13.0008L15.3108 24.218H3.17377Z" fill="#B71916" />
        <path d="M105.862 0.00402832V29.757H133.532V26.569H112.436V16.155H128.993V12.968H112.436V3.19503H133.529V0.00402832H105.862Z" />
        <path d="M175.964 23.784V0.00195312H169.386V29.756H175.964L193.423 6.18095V29.757H200V0.00295313H193.423L175.964 23.784Z" />
        <path d="M16.3211 0L24.3621 18.493H17.7621L15.3081 24.233H26.8591L29.2591 29.758H35.9141L22.9751 0H16.3211Z" />
        <path d="M66.2082 6.02206C65.589 4.73481 64.6741 3.61226 63.5382 2.74606C62.2639 1.79763 60.8179 1.10488 59.2802 0.706064C57.4205 0.2166 55.5031 -0.0188716 53.5802 0.00606397H38.3232V29.7731H44.4682V20.8431H53.5792C55.5021 20.868 57.4195 20.6325 59.2792 20.1431C60.8169 19.7442 62.2629 19.0515 63.5372 18.1031C64.673 17.2368 65.5879 16.1143 66.2072 14.8271C66.8474 13.45 67.1661 11.9454 67.1392 10.4271C67.1662 8.9087 66.8475 7.40408 66.2072 6.02706M60.5702 10.4271C60.5702 12.8937 59.9629 14.7151 58.7482 15.8911C58.0447 16.5107 57.2258 16.9855 56.3385 17.2882C55.4511 17.5909 54.5128 17.7155 53.5772 17.6551H44.4682V3.19506H53.5792C54.5146 3.13458 55.4527 3.25916 56.3398 3.56168C57.227 3.8642 58.0457 4.33872 58.7492 4.95806C59.9639 6.13406 60.5712 7.95573 60.5712 10.4231L60.5702 10.4271Z" />
        <path d="M165.374 6.02206C164.755 4.73481 163.84 3.61226 162.704 2.74606C161.43 1.79761 159.984 1.10486 158.446 0.706064C156.587 0.2166 154.669 -0.0188716 152.746 0.00606397H137.489V29.7731H143.634V20.8431H152.745C154.668 20.868 156.586 20.6325 158.445 20.1431C159.983 19.7443 161.429 19.0515 162.703 18.1031C163.839 17.2368 164.754 16.1143 165.373 14.8271C166.013 13.45 166.332 11.9454 166.305 10.4271C166.332 8.9087 166.014 7.40408 165.373 6.02706M159.736 10.4271C159.736 12.8937 159.129 14.7151 157.914 15.8911C157.211 16.5107 156.392 16.9855 155.504 17.2882C154.617 17.5909 153.679 17.7155 152.743 17.6551H143.632V3.19506H152.743C153.679 3.13458 154.617 3.25926 155.504 3.56195C156.392 3.86465 157.211 4.33942 157.914 4.95906C159.129 6.13506 159.736 7.95673 159.736 10.4241V10.4271Z" />
        <path d="M100.535 14.9521C99.9159 13.6649 99.001 12.5423 97.8652 11.6761C96.5907 10.7278 95.1448 10.035 93.6072 9.63605C91.7475 9.14659 89.8301 8.91112 87.9072 8.93605H78.7902V3.19505H98.4422V0.00305176H72.5962L72.6502 0.0310518V29.7721H87.9062C89.8291 29.797 91.7465 29.5615 93.6062 29.0721C95.1439 28.6732 96.5898 27.9805 97.8642 27.0321C99 26.1658 99.9149 25.0433 100.534 23.7561C101.174 22.379 101.493 20.8744 101.466 19.3561C101.493 17.8377 101.175 16.3331 100.534 14.9561M94.8972 19.3561C94.8972 21.8227 94.2899 23.6441 93.0752 24.8201C92.3716 25.4397 91.5527 25.9145 90.6654 26.2172C89.7781 26.5199 88.8398 26.6445 87.9042 26.5841H78.7902V12.1231H87.9012C88.8368 12.0627 89.775 12.1874 90.6624 12.4901C91.5497 12.7928 92.3686 13.2675 93.0722 13.8871C94.2869 15.0631 94.8942 16.8847 94.8942 19.3521L94.8972 19.3561Z" />
    </symbol>

    <symbol viewBox="0 0 132 114" id="main-us-logo">
        <path d="M8.441 92.4561L0 113.584H44.356L52.8 92.4561H8.441Z" fill="#B71916" />
        <path d="M56.6549 0.000976562L87.3479 70.585H62.1419L52.7949 92.501H96.8749L106.044 113.589H131.444L82.0549 0.000976562H56.6549Z" />
    </symbol>

    <symbol viewBox="0 0 58 51" id="logo-letter">
        <path d="M3.723 40.7842L0 50.1042H19.567L23.29 40.7842H3.723Z" />
        <path d="M24.9881 0L38.5281 31.137H27.4121L23.2881 40.8H42.7351L46.7801 50.1H57.9881L36.1971 0H24.9881Z" />
    </symbol>

    <symbol viewBox="0 0 70 70" id="footer-social-telegram">
        <path d="M33.9929 43.723C32.9869 44.64 32.0319 45.518 31.0689 46.387C29.7539 47.573 28.3969 47.287 27.8149 45.606C27.0639 43.438 26.4149 41.233 25.7599 39.033C25.7173 38.8447 25.6236 38.6717 25.4892 38.5331C25.3548 38.3945 25.1848 38.2955 24.9979 38.247C23.4549 37.747 21.9209 37.22 20.3839 36.704C20.3169 36.683 20.2499 36.669 20.1839 36.645C19.6699 36.527 19.2056 36.2515 18.8557 35.8569C18.5057 35.4624 18.2877 34.9684 18.2319 34.444C18.2399 33.266 19.0419 32.692 20.0129 32.282C25.2203 30.0874 30.4303 27.8927 35.6429 25.698C38.4596 24.5147 41.2789 23.3327 44.1009 22.152C44.2509 22.088 44.4009 22.018 44.5489 21.962C44.947 21.7626 45.3937 21.681 45.8365 21.7267C46.2794 21.7724 46.7 21.9436 47.0489 22.22C47.3744 22.5238 47.6073 22.9135 47.7207 23.344C47.8341 23.7745 47.8235 24.2283 47.6899 24.653C47.3719 26.339 47.0319 28.023 46.7039 29.706C45.6553 35.0794 44.6053 40.4537 43.5539 45.829C43.5071 46.3305 43.3216 46.809 43.0182 47.211C42.7147 47.6129 42.3053 47.9225 41.8359 48.1049C41.3664 48.2873 40.8554 48.3354 40.3602 48.2437C39.865 48.1521 39.405 47.9243 39.0319 47.586C37.3739 46.317 35.7159 45.045 33.9939 43.726M20.7589 34.436C22.8969 35.158 24.8739 35.81 26.8349 36.499C27.0221 36.5758 27.2258 36.6036 27.4267 36.5796C27.6276 36.5556 27.8191 36.4807 27.9829 36.362C32.3129 33.6634 36.6509 30.978 40.9969 28.306C41.2756 28.1965 41.57 28.1323 41.8689 28.116C41.7459 28.384 41.6219 28.653 41.4959 28.916C41.4849 28.935 41.4609 28.948 41.4449 28.964C38.3549 31.845 35.3019 34.769 32.1449 37.584C31.6135 38.0005 31.1756 38.524 30.8595 39.1206C30.5434 39.7171 30.3561 40.3735 30.3099 41.047C30.2429 42.133 30.0039 43.209 29.8219 44.441C31.2519 43.141 32.5499 41.957 33.8619 40.763C36.0219 42.421 38.1379 44.044 40.2619 45.663C40.9809 46.21 41.1619 46.138 41.3349 45.269C42.3463 40.1237 43.3559 34.9784 44.3639 29.833C44.7319 27.95 45.0909 26.066 45.4879 24.022C37.2099 27.509 29.0649 30.937 20.7589 34.436Z" stroke="none" />
    </symbol>

    <symbol viewBox="0 0 70 70" id="footer-social-vk">
        <path d="M37.6558 39.1085V39.6605C37.6558 41.7552 37.6558 43.8502 37.6558 45.9455C37.6558 46.5985 37.4868 46.7645 36.8418 46.7605C32.2761 46.6994 27.8696 45.0732 24.3586 42.1538C20.8476 39.2344 18.4449 35.1985 17.5518 30.7205C17.23 28.7118 17.11 26.676 17.1938 24.6435C17.1875 24.5668 17.1979 24.4896 17.2244 24.4174C17.2509 24.3452 17.2928 24.2796 17.3473 24.2252C17.4018 24.1708 17.4674 24.129 17.5397 24.1026C17.612 24.0763 17.6892 24.066 17.7658 24.0725C19.7878 24.0645 21.8098 24.0642 23.8318 24.0715C24.2318 24.0715 24.4008 24.2845 24.4488 24.7715C24.5488 25.8185 24.6138 26.8715 24.7708 27.9125C25.1079 30.8961 26.2163 33.7405 27.9868 36.1655C28.7 37.1034 29.588 37.8943 30.6018 38.4945C30.7228 38.5655 30.8498 38.6245 31.0228 38.7135V38.2275C31.0228 33.8075 31.0228 29.3872 31.0228 24.9665C31.0228 24.2025 31.1658 24.0605 31.9358 24.0605H36.7308C37.5158 24.0605 37.6438 24.1865 37.6438 24.9605V32.4365C38.5656 32.1725 39.4329 31.7461 40.2048 31.1775C42.1519 29.7085 43.6068 27.6828 44.3768 25.3685C44.4768 25.0965 44.5768 24.8225 44.6598 24.5455C44.6895 24.4015 44.7702 24.2731 44.8871 24.1839C45.004 24.0948 45.1492 24.051 45.2958 24.0605C47.1238 24.0605 48.9518 24.0605 50.7808 24.0605C51.2498 24.0605 51.4608 24.3115 51.4168 24.8255C51.2691 26.3468 50.8208 27.8237 50.0978 29.1705C48.8769 31.4673 47.1588 33.4628 45.0688 35.0115L44.6738 35.3115C45.5528 35.9995 46.4438 36.6295 47.2588 37.3455C49.8846 39.5827 51.7968 42.5407 52.7588 45.8535C52.9338 46.4645 52.7178 46.7535 52.0758 46.7535C50.1752 46.7535 48.2752 46.7535 46.3758 46.7535C45.7758 46.7535 45.6868 46.6775 45.4808 46.1195C45.0318 44.7329 44.2962 43.4563 43.3218 42.3725C42.3474 41.2887 41.156 40.422 39.8248 39.8285C39.1568 39.5365 38.4388 39.3565 37.6618 39.0975M18.3868 25.2375C17.4748 37.4185 27.5668 45.6815 36.4938 45.5375V45.0675C36.4938 42.9342 36.4938 40.8028 36.4938 38.6735C36.4938 38.0895 36.7278 37.8835 37.3078 37.9545C38.403 38.0829 39.4703 38.3868 40.4688 38.8545C43.1917 40.1718 45.3101 42.4772 46.3928 45.3015C46.4156 45.3981 46.4734 45.4828 46.5551 45.5392C46.6367 45.5956 46.7365 45.6195 46.8348 45.6065C48.2638 45.5935 49.6918 45.6005 51.1208 45.5995C51.2208 45.5995 51.3208 45.5805 51.4488 45.5685C51.3948 45.4045 51.3568 45.2785 51.3108 45.1555C49.8656 41.3396 47.1338 38.1477 43.5868 36.1305C42.8958 35.7185 42.6868 35.2545 43.5428 34.6765C45.8229 33.1839 47.6942 31.1456 48.9868 28.7465C49.5809 27.6459 49.9919 26.4561 50.2038 25.2235H49.8228C48.5638 25.2235 47.3048 25.2345 46.0458 25.2155C45.9296 25.1979 45.811 25.2267 45.7158 25.2957C45.6205 25.3648 45.5563 25.4685 45.5368 25.5845C44.9411 27.382 43.9888 29.0408 42.7368 30.4615C41.3719 32.0552 39.5395 33.1784 37.4998 33.6715C36.7318 33.8475 36.4948 33.6435 36.4938 32.8615C36.4938 30.4615 36.4938 28.0638 36.4938 25.6685V25.2375H32.1938V25.7195C32.1938 30.1995 32.1778 34.6805 32.2058 39.1605C32.2118 40.1775 31.7558 40.3165 31.0058 39.9825C30.9838 39.9725 30.9618 39.9615 30.9398 39.9525C29.089 39.1324 27.5284 37.7732 26.4618 36.0525C24.8286 33.4345 23.824 30.4738 23.5268 27.4025C23.4328 26.6865 23.3728 25.9665 23.2948 25.2375H18.3868Z" stroke="none" />
        <path d="M37.6558 39.1085V39.6605C37.6558 41.7552 37.6558 43.8502 37.6558 45.9455C37.6558 46.5985 37.4868 46.7645 36.8418 46.7605C32.2761 46.6994 27.8696 45.0732 24.3586 42.1538C20.8476 39.2344 18.4449 35.1985 17.5518 30.7205C17.23 28.7118 17.11 26.676 17.1938 24.6435C17.1875 24.5668 17.1979 24.4896 17.2244 24.4174C17.2509 24.3452 17.2928 24.2796 17.3473 24.2252C17.4018 24.1708 17.4674 24.129 17.5397 24.1026C17.612 24.0763 17.6892 24.066 17.7658 24.0725C19.7878 24.0645 21.8098 24.0642 23.8318 24.0715C24.2318 24.0715 24.4008 24.2845 24.4488 24.7715C24.5488 25.8185 24.6138 26.8715 24.7708 27.9125C25.1079 30.8961 26.2163 33.7405 27.9868 36.1655C28.7 37.1034 29.588 37.8943 30.6018 38.4945C30.7228 38.5655 30.8498 38.6245 31.0228 38.7135V38.2275C31.0228 33.8075 31.0228 29.3872 31.0228 24.9665C31.0228 24.2025 31.1658 24.0605 31.9358 24.0605H36.7308C37.5158 24.0605 37.6438 24.1865 37.6438 24.9605V32.4365C38.5656 32.1725 39.4329 31.7461 40.2048 31.1775C42.1519 29.7085 43.6068 27.6828 44.3768 25.3685C44.4768 25.0965 44.5768 24.8225 44.6598 24.5455C44.6895 24.4015 44.7702 24.2731 44.8871 24.1839C45.004 24.0948 45.1492 24.051 45.2958 24.0605C47.1238 24.0605 48.9518 24.0605 50.7808 24.0605C51.2498 24.0605 51.4608 24.3115 51.4168 24.8255C51.2691 26.3468 50.8208 27.8237 50.0978 29.1705C48.8769 31.4673 47.1588 33.4628 45.0688 35.0115L44.6738 35.3115C45.5528 35.9995 46.4438 36.6295 47.2588 37.3455C49.8846 39.5827 51.7968 42.5407 52.7588 45.8535C52.9338 46.4645 52.7178 46.7535 52.0758 46.7535C50.1752 46.7535 48.2752 46.7535 46.3758 46.7535C45.7758 46.7535 45.6868 46.6775 45.4808 46.1195C45.0318 44.7329 44.2962 43.4563 43.3218 42.3725C42.3474 41.2887 41.156 40.422 39.8248 39.8285C39.1568 39.5365 38.4388 39.3565 37.6618 39.0975M18.3868 25.2375C17.4748 37.4185 27.5668 45.6815 36.4938 45.5375V45.0675C36.4938 42.9342 36.4938 40.8028 36.4938 38.6735C36.4938 38.0895 36.7278 37.8835 37.3078 37.9545C38.403 38.0829 39.4703 38.3868 40.4688 38.8545C43.1917 40.1718 45.3101 42.4772 46.3928 45.3015C46.4156 45.3981 46.4734 45.4828 46.5551 45.5392C46.6367 45.5956 46.7365 45.6195 46.8348 45.6065C48.2638 45.5935 49.6918 45.6005 51.1208 45.5995C51.2208 45.5995 51.3208 45.5805 51.4488 45.5685C51.3948 45.4045 51.3568 45.2785 51.3108 45.1555C49.8656 41.3396 47.1338 38.1477 43.5868 36.1305C42.8958 35.7185 42.6868 35.2545 43.5428 34.6765C45.8229 33.1839 47.6942 31.1456 48.9868 28.7465C49.5809 27.6459 49.9919 26.4561 50.2038 25.2235H49.8228C48.5638 25.2235 47.3048 25.2345 46.0458 25.2155C45.9296 25.1979 45.811 25.2267 45.7158 25.2957C45.6205 25.3648 45.5563 25.4685 45.5368 25.5845C44.9411 27.382 43.9888 29.0408 42.7368 30.4615C41.3719 32.0552 39.5395 33.1784 37.4998 33.6715C36.7318 33.8475 36.4948 33.6435 36.4938 32.8615C36.4938 30.4615 36.4938 28.0638 36.4938 25.6685V25.2375H32.1938V25.7195C32.1938 30.1995 32.1778 34.6805 32.2058 39.1605C32.2118 40.1775 31.7558 40.3165 31.0058 39.9825C30.9838 39.9725 30.9618 39.9615 30.9398 39.9525C29.089 39.1324 27.5284 37.7732 26.4618 36.0525C24.8286 33.4345 23.824 30.4738 23.5268 27.4025C23.4328 26.6865 23.3728 25.9665 23.2948 25.2375H18.3868Z" fill="none" stroke-width="0.4" />
    </symbol>

    <symbol viewBox="0 0 70 70" id="footer-social-whatsapp">
        <path d="M36.818 18.8203C37.186 18.8583 37.554 18.8933 37.918 18.9373C40.4652 19.225 42.9031 20.1329 45.018 21.5813C47.1412 23.0057 48.8955 24.9143 50.136 27.1499C51.3766 29.3855 52.0679 31.884 52.153 34.4393C52.3255 38.0878 51.2118 41.681 49.006 44.5923C46.75 47.72 43.4237 49.91 39.659 50.7463C35.6612 51.7054 31.4473 51.0751 27.905 48.9883C27.8336 48.9422 27.7525 48.9131 27.6681 48.9034C27.5836 48.8937 27.498 48.9036 27.418 48.9323C25.408 49.5593 23.394 50.1733 21.383 50.7943C21.2601 50.8509 21.1232 50.8697 20.9896 50.8481C20.856 50.8266 20.7319 50.7657 20.633 50.6733C20.5435 50.5762 20.4839 50.4552 20.4616 50.3249C20.4392 50.1947 20.455 50.0608 20.507 49.9393C21.0824 47.8726 21.6574 45.806 22.232 43.7393C22.2509 43.683 22.2565 43.6231 22.2484 43.5643C22.2402 43.5055 22.2185 43.4493 22.185 43.4003C21.0067 41.4765 20.2504 39.3243 19.966 37.0863C19.919 36.7263 19.901 36.3623 19.866 36.0003C19.859 35.9203 19.844 35.8433 19.832 35.7653V33.8653C19.844 33.8063 19.86 33.7483 19.868 33.6883C19.949 33.1013 19.998 32.5083 20.115 31.9293C20.8954 27.8073 23.2662 24.1578 26.715 21.7693C28.8998 20.2055 31.4496 19.2289 34.12 18.9333C34.466 18.8923 34.813 18.8573 35.159 18.8203H36.818ZM21.975 49.3083L22.192 49.2443C23.909 48.7203 25.632 48.1973 27.341 47.6583C27.5013 47.6026 27.6722 47.5848 27.8404 47.6061C28.0087 47.6275 28.1698 47.6874 28.311 47.7813C31.3834 49.664 35.0427 50.346 38.587 49.6963C41.953 49.1453 45.014 47.4173 47.225 44.8203C48.6975 43.1944 49.7784 41.2531 50.385 39.1451C50.9917 37.0371 51.108 34.8182 50.725 32.6583C50.4121 30.5326 49.6331 28.5024 48.4437 26.7131C47.2542 24.9238 45.6839 23.4196 43.845 22.3083C41.944 21.1036 39.7855 20.3645 37.545 20.1513C35.6038 19.9371 33.6393 20.1201 31.771 20.6893C29.7804 21.266 27.9334 22.2553 26.3502 23.5927C24.7671 24.9302 23.4832 26.586 22.582 28.4523C21.5285 30.4987 21.0143 32.7799 21.088 35.0803C21.1116 35.9349 21.1884 36.7873 21.318 37.6323C21.6375 39.558 22.3526 41.3967 23.418 43.0323C23.4895 43.138 23.5357 43.2587 23.553 43.3852C23.5703 43.5116 23.5584 43.6403 23.518 43.7613C23.173 44.9613 22.839 46.1693 22.503 47.3753C22.327 48.0083 22.156 48.6433 21.973 49.3123" stroke="none" />
        <path d="M21.975 49.3083L22.192 49.2443C23.909 48.7203 25.632 48.1973 27.341 47.6583C27.5013 47.6026 27.6722 47.5848 27.8404 47.6061C28.0087 47.6275 28.1698 47.6874 28.311 47.7813C31.3834 49.664 35.0427 50.346 38.587 49.6963C41.953 49.1453 45.014 47.4173 47.225 44.8203C48.6975 43.1944 49.7784 41.2531 50.385 39.1451C50.9917 37.0371 51.108 34.8182 50.725 32.6583C50.4121 30.5326 49.6331 28.5024 48.4437 26.7131C47.2542 24.9238 45.6839 23.4196 43.845 22.3083C41.944 21.1036 39.7855 20.3645 37.545 20.1513C35.6038 19.9371 33.6393 20.1201 31.771 20.6893C29.7804 21.266 27.9334 22.2553 26.3502 23.5927C24.7671 24.9302 23.4832 26.586 22.582 28.4523C21.5285 30.4987 21.0143 32.7799 21.088 35.0803C21.1116 35.9349 21.1884 36.7873 21.318 37.6323C21.6375 39.558 22.3526 41.3967 23.418 43.0323C23.4895 43.138 23.5357 43.2587 23.553 43.3852C23.5703 43.5116 23.5584 43.6403 23.518 43.7613C23.173 44.9613 22.839 46.1693 22.503 47.3753C22.327 48.0083 22.156 48.6433 21.973 49.3123M36.818 18.8203C37.186 18.8583 37.554 18.8933 37.918 18.9373C40.4652 19.225 42.9031 20.1329 45.018 21.5813C47.1412 23.0057 48.8955 24.9143 50.136 27.1499C51.3766 29.3855 52.0679 31.884 52.153 34.4393C52.3255 38.0878 51.2118 41.681 49.006 44.5923C46.75 47.72 43.4237 49.91 39.659 50.7463C35.6612 51.7054 31.4473 51.0751 27.905 48.9883C27.8336 48.9422 27.7525 48.9131 27.6681 48.9034C27.5836 48.8937 27.498 48.9036 27.418 48.9323C25.408 49.5593 23.394 50.1733 21.383 50.7943C21.2601 50.8509 21.1232 50.8697 20.9896 50.8481C20.856 50.8266 20.7319 50.7657 20.633 50.6733C20.5435 50.5762 20.4839 50.4552 20.4616 50.3249C20.4392 50.1947 20.455 50.0608 20.507 49.9393C21.0824 47.8726 21.6574 45.806 22.232 43.7393C22.2509 43.683 22.2565 43.6231 22.2484 43.5643C22.2402 43.5055 22.2185 43.4493 22.185 43.4003C21.0067 41.4765 20.2504 39.3243 19.966 37.0863C19.919 36.7263 19.901 36.3623 19.866 36.0003C19.859 35.9203 19.844 35.8433 19.832 35.7653V33.8653C19.844 33.8063 19.86 33.7483 19.868 33.6883C19.949 33.1013 19.998 32.5083 20.115 31.9293C20.8954 27.8073 23.2662 24.1578 26.715 21.7693C28.8998 20.2055 31.4496 19.2289 34.12 18.9333C34.466 18.8923 34.813 18.8573 35.159 18.8203H36.818Z" fill="none" stroke-width="0.4" />
        <path d="M26.7881 31.2623C26.8574 29.612 27.4774 28.0323 28.5491 26.7753C29.0991 26.0813 29.0011 26.1403 29.8901 26.0273C30.2859 25.9434 30.6965 25.962 31.0831 26.0813C31.2674 26.148 31.4285 26.2664 31.5471 26.4223C32.2628 27.5176 32.8731 28.6781 33.3701 29.8883C33.5063 30.2076 33.5537 30.5577 33.5073 30.9017C33.4608 31.2457 33.3222 31.5707 33.1061 31.8423C32.8551 32.1993 32.5581 32.5243 32.2721 32.8563C32.2357 32.8902 32.21 32.9341 32.1983 32.9824C32.1865 33.0308 32.1892 33.0815 32.2061 33.1283C32.4135 33.7326 32.748 34.2853 33.1871 34.7493C34.1182 35.8049 35.1864 36.7311 36.3631 37.5033C36.8831 37.8563 37.4431 38.1493 37.9801 38.4783C38.0675 38.5416 38.1755 38.5694 38.2825 38.5562C38.3896 38.543 38.4877 38.4899 38.5571 38.4073C39.1809 37.8248 39.7325 37.1694 40.2001 36.4553C40.2894 36.3162 40.4109 36.2007 40.5543 36.1185C40.6978 36.0363 40.8589 35.99 41.0241 35.9833C41.3568 35.9634 41.6871 36.051 41.9661 36.2333C42.5591 36.5983 43.1421 36.9783 43.7341 37.3443C44.2701 37.6753 44.8101 37.9993 45.3521 38.3213C45.5007 38.378 45.6212 38.4907 45.6874 38.6353C45.7536 38.78 45.7603 38.9448 45.7061 39.0943C45.5822 39.8665 45.3243 40.611 44.9441 41.2943C44.6087 41.8876 44.1456 42.3989 43.5884 42.7913C43.0312 43.1838 42.3937 43.4474 41.7221 43.5633C40.5906 43.7696 39.4305 43.7638 38.3011 43.5463C35.9885 43.1281 33.8419 42.063 32.1101 40.4743C29.8707 38.5334 28.152 36.0636 27.1101 33.2893C26.8794 32.6408 26.7689 31.9556 26.7841 31.2673M40.1541 42.6243C40.5481 42.5873 40.9451 42.5693 41.3351 42.5083C42.0541 42.414 42.7301 42.112 43.2801 41.6393C43.9434 41.0033 44.3859 40.1718 44.5431 39.2663C44.5691 39.1543 44.5071 39.1233 44.4331 39.0763C43.6841 38.6103 42.9331 38.1403 42.1901 37.6763C41.8901 37.4923 41.5971 37.3113 41.3011 37.1303C41.1941 37.0643 41.1241 37.0753 41.0391 37.1913C40.7191 37.6263 40.3951 38.0593 40.0481 38.4733C39.7199 38.8817 39.323 39.2296 38.8751 39.5013C38.7227 39.6043 38.5469 39.6674 38.3638 39.6849C38.1808 39.7023 37.9962 39.6736 37.8271 39.6013C37.6511 39.5243 37.4691 39.4603 37.3001 39.3703C35.4053 38.381 33.7117 37.0468 32.3061 35.4363C31.7566 34.8439 31.3517 34.1323 31.1231 33.3573C31.0406 33.1475 31.0251 32.9172 31.0788 32.6982C31.1326 32.4792 31.2528 32.2822 31.4231 32.1343C31.748 31.807 32.0376 31.4463 32.2871 31.0583C32.3675 30.9453 32.4154 30.8123 32.4256 30.6739C32.4359 30.5356 32.408 30.397 32.3451 30.2733C31.8908 29.2213 31.3632 28.2024 30.7661 27.2243C30.7388 27.1886 30.7041 27.1593 30.6644 27.1382C30.6247 27.1172 30.581 27.1049 30.5361 27.1023C30.3151 27.1023 30.0931 27.1383 29.8721 27.1473C29.8038 27.15 29.737 27.1686 29.6772 27.2016C29.6173 27.2346 29.5659 27.281 29.5271 27.3373C28.9432 28.0405 28.4918 28.8439 28.1951 29.7083C27.7869 30.8575 27.8186 32.1171 28.2841 33.2443C29.0557 35.0858 30.128 36.7863 31.4571 38.2763C32.4244 39.3891 33.561 40.3425 34.8251 41.1013C36.4395 42.0617 38.2759 42.5859 40.1541 42.6223" stroke="none" />
        <path d="M26.7881 31.2623C26.8574 29.612 27.4774 28.0323 28.5491 26.7753C29.0991 26.0813 29.0011 26.1403 29.8901 26.0273C30.2859 25.9434 30.6965 25.962 31.0831 26.0813C31.2674 26.148 31.4285 26.2664 31.5471 26.4223C32.2628 27.5176 32.8731 28.6781 33.3701 29.8883C33.5063 30.2076 33.5537 30.5577 33.5073 30.9017C33.4608 31.2457 33.3222 31.5707 33.1061 31.8423C32.8551 32.1993 32.5581 32.5243 32.2721 32.8563C32.2357 32.8902 32.21 32.9341 32.1983 32.9824C32.1865 33.0308 32.1892 33.0815 32.2061 33.1283C32.4135 33.7326 32.748 34.2853 33.1871 34.7493C34.1182 35.8049 35.1864 36.7311 36.3631 37.5033C36.8831 37.8563 37.4431 38.1493 37.9801 38.4783C38.0675 38.5416 38.1755 38.5694 38.2825 38.5562C38.3896 38.543 38.4877 38.4899 38.5571 38.4073C39.1809 37.8248 39.7325 37.1694 40.2001 36.4553C40.2894 36.3162 40.4109 36.2007 40.5543 36.1185C40.6978 36.0363 40.8589 35.99 41.0241 35.9833C41.3568 35.9634 41.6871 36.051 41.9661 36.2333C42.5591 36.5983 43.1421 36.9783 43.7341 37.3443C44.2701 37.6753 44.8101 37.9993 45.3521 38.3213C45.5007 38.378 45.6212 38.4907 45.6874 38.6353C45.7536 38.78 45.7603 38.9448 45.7061 39.0943C45.5822 39.8665 45.3243 40.611 44.9441 41.2943C44.6087 41.8876 44.1456 42.3989 43.5884 42.7913C43.0312 43.1838 42.3937 43.4474 41.7221 43.5633C40.5906 43.7696 39.4305 43.7638 38.3011 43.5463C35.9885 43.1281 33.8419 42.063 32.1101 40.4743C29.8707 38.5334 28.152 36.0636 27.1101 33.2893C26.8794 32.6408 26.7689 31.9556 26.7841 31.2673M40.1541 42.6243C40.5481 42.5873 40.9451 42.5693 41.3351 42.5083C42.0541 42.414 42.7301 42.112 43.2801 41.6393C43.9434 41.0033 44.3859 40.1718 44.5431 39.2663C44.5691 39.1543 44.5071 39.1233 44.4331 39.0763C43.6841 38.6103 42.9331 38.1403 42.1901 37.6763C41.8901 37.4923 41.5971 37.3113 41.3011 37.1303C41.1941 37.0643 41.1241 37.0753 41.0391 37.1913C40.7191 37.6263 40.3951 38.0593 40.0481 38.4733C39.7199 38.8817 39.323 39.2296 38.8751 39.5013C38.7227 39.6043 38.5469 39.6674 38.3638 39.6849C38.1808 39.7023 37.9962 39.6736 37.8271 39.6013C37.6511 39.5243 37.4691 39.4603 37.3001 39.3703C35.4053 38.381 33.7117 37.0468 32.3061 35.4363C31.7566 34.8439 31.3517 34.1323 31.1231 33.3573C31.0406 33.1475 31.0251 32.9172 31.0788 32.6982C31.1326 32.4792 31.2528 32.2822 31.4231 32.1343C31.748 31.807 32.0376 31.4463 32.2871 31.0583C32.3675 30.9453 32.4154 30.8123 32.4256 30.6739C32.4359 30.5356 32.408 30.397 32.3451 30.2733C31.8908 29.2213 31.3632 28.2024 30.7661 27.2243C30.7388 27.1886 30.7041 27.1593 30.6644 27.1382C30.6247 27.1172 30.581 27.1049 30.5361 27.1023C30.3151 27.1023 30.0931 27.1383 29.8721 27.1473C29.8038 27.15 29.737 27.1686 29.6772 27.2016C29.6173 27.2346 29.5659 27.281 29.5271 27.3373C28.9432 28.0405 28.4918 28.8439 28.1951 29.7083C27.7869 30.8575 27.8186 32.1171 28.2841 33.2443C29.0557 35.0858 30.128 36.7863 31.4571 38.2763C32.4244 39.3891 33.561 40.3425 34.8251 41.1013C36.4395 42.0617 38.2759 42.5859 40.1541 42.6223" fill="none" stroke-width="0.4" />
    </symbol>

    <symbol viewBox="0 0 120 20" id="logo-avtor">
        <path d="M53.775 5.11199H59.141V19.646H64.3V5.11199H69.528V0.223988H53.775V5.11199ZM9.59303 0.245988L0.0820312 19.664L7.44003 19.653L10.082 14.379C10.511 15.393 12.426 19.664 12.426 19.664H27.936L19.864 0.245988H9.59303ZM10.193 14.162L14.153 6.24599C14.2034 6.15646 14.2777 6.08268 14.3675 6.03286C14.4574 5.98304 14.5593 5.95913 14.6619 5.96379C14.7645 5.96845 14.8638 6.00151 14.9488 6.05928C15.0337 6.11705 15.101 6.19726 15.143 6.29099L19.082 14.163L10.193 14.162ZM117.512 3.06199C116.832 2.17616 115.957 1.45941 114.954 0.967642C113.951 0.475878 112.849 0.222402 111.732 0.226988H97.335V19.646H102.493V15.859H111.302C113.407 15.8911 115.438 15.0862 116.949 13.6214C118.46 12.1565 119.328 10.1515 119.362 8.04699C119.357 6.21671 118.7 4.44817 117.508 3.05899M114.031 8.25899C114.018 8.99235 113.716 9.6908 113.189 10.2012C112.662 10.7117 111.954 10.9924 111.221 10.982H102.343V5.28199H106.983V5.29299H111.22C111.583 5.2869 111.944 5.35254 112.282 5.48616C112.62 5.61978 112.929 5.81874 113.19 6.07167C113.451 6.3246 113.659 6.62652 113.804 6.96015C113.948 7.29378 114.025 7.65257 114.03 8.01599L114.031 8.25899ZM51.725 4.81099C51.7155 4.18859 51.5835 3.57417 51.3364 3.00283C51.0893 2.43149 50.7321 1.91444 50.2851 1.48121C49.8382 1.04799 49.3102 0.707083 48.7314 0.477979C48.1527 0.248874 47.5344 0.136062 46.912 0.145988H29.801V19.546L46.282 19.531C46.9863 19.5422 47.6859 19.4146 48.3409 19.1553C48.9958 18.8961 49.5932 18.5103 50.099 18.02C50.6047 17.5298 51.0089 16.9447 51.2885 16.2981C51.568 15.6516 51.7173 14.9563 51.728 14.252V12.868C51.7247 12.0527 51.5304 11.2496 51.1606 10.523C50.7909 9.79645 50.2561 9.1666 49.599 8.68399C50.2493 8.26756 50.7849 7.69481 51.1568 7.01807C51.5287 6.34133 51.7251 5.58218 51.728 4.80999M34.939 5.03999H44.663C44.8253 5.03734 44.9865 5.0667 45.1374 5.1264C45.2883 5.18609 45.426 5.27494 45.5426 5.38787C45.6591 5.50081 45.7523 5.63561 45.8167 5.78456C45.8811 5.93352 45.9156 6.09371 45.918 6.25599V6.36499C45.9122 6.69246 45.7769 7.0043 45.5417 7.23221C45.3065 7.46012 44.9905 7.58554 44.663 7.58099H34.936L34.939 5.03999ZM46.724 12.84C46.7185 13.1676 46.5833 13.4797 46.348 13.7079C46.1128 13.936 45.7967 14.0615 45.469 14.057H34.976V11.29H45.466C45.6283 11.2873 45.7895 11.3167 45.9404 11.3764C46.0913 11.4361 46.229 11.5249 46.3456 11.6379C46.4621 11.7508 46.5553 11.8856 46.6197 12.0346C46.6841 12.1835 46.7186 12.3437 46.721 12.506L46.724 12.84ZM86.65 0.190988H78.566C77.5957 0.193015 76.6344 0.378612 75.733 0.737988C74.8395 1.09339 74.0241 1.6203 73.333 2.28899C72.6509 2.94527 72.1076 3.73204 71.7357 4.60252C71.3638 5.473 71.1707 6.40939 71.168 7.35599V12.434C71.1707 13.3806 71.3638 14.317 71.7357 15.1875C72.1076 16.0579 72.6509 16.8447 73.333 17.501C74.0231 18.1709 74.8387 18.698 75.733 19.052C76.6341 19.4124 77.5955 19.5981 78.566 19.599H86.649C88.5978 19.6018 90.4717 18.849 91.877 17.499C92.5587 16.8423 93.1015 16.0554 93.4734 15.1851C93.8453 14.3147 94.0387 13.3785 94.042 12.432V7.35499C94.0392 6.40902 93.8465 5.47324 93.4755 4.60306C93.1045 3.73288 92.5626 2.94599 91.882 2.28899C90.4767 0.93895 88.6028 0.186221 86.654 0.188988M89.022 11.574C89.0162 11.9671 88.9329 12.3553 88.7768 12.7162C88.6208 13.0771 88.3952 13.4037 88.1129 13.6773C87.8305 13.9509 87.497 14.1662 87.1313 14.3108C86.7657 14.4554 86.3752 14.5265 85.982 14.52H79.246C78.8529 14.5265 78.4624 14.4554 78.0967 14.3108C77.7311 14.1662 77.3976 13.9509 77.1152 13.6773C76.8329 13.4037 76.6072 13.0771 76.4512 12.7162C76.2952 12.3553 76.2119 11.9671 76.206 11.574V8.23699C76.2119 7.84385 76.2952 7.45572 76.4512 7.09482C76.6072 6.73391 76.8329 6.4073 77.1152 6.13368C77.3976 5.86006 77.7311 5.64479 78.0967 5.50019C78.4624 5.35559 78.8529 5.2845 79.246 5.29099H85.982C86.3752 5.2845 86.7657 5.35559 87.1313 5.50019C87.497 5.64479 87.8305 5.86006 88.1129 6.13368C88.3952 6.4073 88.6208 6.73391 88.7768 7.09482C88.9329 7.45572 89.0162 7.84385 89.022 8.23699V11.574Z" />
    </symbol>

    <symbol viewBox="0 0 19 19" id="slider-prev">
        <path d="M18.9082 8.80005L1.20813 8.80005L9.65515 0.352051" />
        <path d="M3.71802 11.8391L10.0571 18.178" />
    </symbol>

    <symbol viewBox="0 0 19 19" id="slider-next">
        <path d="M0 9.73218H17.7001L9.25305 18.1802" />
        <path d="M15.1902 6.69312L8.85107 0.354248" />
    </symbol>

    <symbol viewBox="0 0 28 28" id="icon-zoom">
        <path d="M0 13.766H27.532" stroke-miterlimit="10" />
        <path d="M13.766 13.859V0" stroke-miterlimit="10" />
        <path d="M13.766 27.533V16.769" stroke-miterlimit="10" />
    </symbol>

    <symbol viewBox="0 0 20 20" id="window-close">
        <path fill-rule="evenodd" clip-rule="evenodd" d="M19.6669 1.89905C19.7721 1.79706 19.8558 1.67498 19.9129 1.54005C19.97 1.40511 19.9995 1.26008 19.9995 1.11355C19.9995 0.967023 19.97 0.821989 19.9129 0.687056C19.8558 0.552122 19.7721 0.430038 19.6669 0.32805C19.5654 0.224766 19.4443 0.142733 19.3107 0.086737C19.1771 0.0307406 19.0338 0.00190137 18.8889 0.00190137C18.7441 0.00190137 18.6007 0.0307406 18.4671 0.086737C18.3336 0.142733 18.2125 0.224766 18.1109 0.32805L9.99992 8.42805L1.88893 0.32505C1.78739 0.221766 1.6663 0.139733 1.53272 0.083737C1.39915 0.0277406 1.25576 -0.00109863 1.11092 -0.00109863C0.966088 -0.00109863 0.822701 0.0277406 0.689126 0.083737C0.555552 0.139733 0.434464 0.221766 0.332925 0.32505C0.227467 0.426895 0.143597 0.548932 0.0863151 0.683885C0.0290329 0.818838 -0.000488281 0.963944 -0.000488281 1.11055C-0.000488281 1.25716 0.0290329 1.40226 0.0863151 1.53722C0.143597 1.67217 0.227467 1.79421 0.332925 1.89605L8.44292 9.99905L0.332925 18.0991C0.227467 18.2009 0.143597 18.3229 0.0863151 18.4579C0.0290329 18.5928 -0.000488281 18.7379 -0.000488281 18.8846C-0.000488281 19.0312 0.0290329 19.1763 0.0863151 19.3112C0.143597 19.4462 0.227467 19.5682 0.332925 19.67C0.434464 19.7733 0.555552 19.8554 0.689126 19.9114C0.822701 19.9674 0.966088 19.9962 1.11092 19.9962C1.25576 19.9962 1.39915 19.9674 1.53272 19.9114C1.6663 19.8554 1.78739 19.7733 1.88893 19.67L9.99992 11.5701L18.1109 19.67C18.2141 19.7722 18.3363 19.8531 18.4707 19.908C18.6051 19.9629 18.749 19.9908 18.8942 19.9901C19.0394 19.9894 19.183 19.9601 19.3169 19.9039C19.4508 19.8477 19.5723 19.7657 19.6744 19.6625C19.7766 19.5594 19.8574 19.4371 19.9124 19.3027C19.9673 19.1683 19.9952 19.0244 19.9945 18.8792C19.9938 18.7341 19.9645 18.5904 19.9083 18.4566C19.8521 18.3227 19.7701 18.2012 19.6669 18.0991L11.5559 9.99905L19.6669 1.89905Z" />
    </symbol>

    <symbol viewBox="0 0 19 19" id="header-phone">
        <path d="M3.97505 1.2C4.06398 1.2118 4.14947 1.24199 4.22608 1.28865C4.3027 1.3353 4.36876 1.39741 4.42005 1.471L6.30005 4.466C6.31005 4.484 6.54605 4.888 6.32005 5.107C6.05405 5.363 5.72005 5.664 5.34905 5.967C5.19405 6.107 5.04205 6.243 4.88705 6.361L4.04905 7L4.57605 7.914C5.92794 10.3208 7.96349 12.2725 10.4251 13.522L11.3131 13.958L11.9131 13.17L13.0611 11.651C13.1281 11.5728 13.2108 11.5097 13.3038 11.4656C13.3969 11.4215 13.4981 11.3974 13.6011 11.395C13.7217 11.3952 13.8401 11.4277 13.9441 11.489C14.6441 11.92 15.6741 12.544 16.5681 13.038C16.6731 13.1062 16.7597 13.1993 16.8201 13.309C16.8805 13.4188 16.9128 13.5417 16.9141 13.667C16.7917 14.5787 16.3637 15.422 15.7001 16.059C15.1272 16.5091 14.438 16.7866 13.7131 16.859C13.4963 16.8836 13.2782 16.8956 13.0601 16.895C12.2354 16.8846 11.4164 16.758 10.6271 16.519L10.4541 16.441C9.01126 15.6951 7.64449 14.8106 6.37305 13.8C4.20216 12.2099 2.54319 10.0202 1.60005 7.5C1.31557 6.82341 1.17944 6.0937 1.20083 5.36005C1.22222 4.6264 1.40064 3.90586 1.72405 3.247C2.16671 2.37978 2.87962 1.68021 3.75505 1.254C3.82378 1.22076 3.89874 1.20236 3.97505 1.2ZM3.97505 0C3.72937 0.00218143 3.48698 0.0567277 3.26405 0.16C2.13126 0.699655 1.20896 1.5991 0.641051 2.718C0.244431 3.51626 0.0230901 4.39011 -0.00812725 5.28092C-0.0393446 6.17174 0.120284 7.05893 0.460051 7.883C1.49181 10.611 3.28091 12.9878 5.61705 14.734C6.96744 15.8097 8.42201 16.7477 9.95905 17.534C9.95905 17.569 10.0491 17.595 10.1401 17.622C11.0839 17.928 12.0689 18.0879 13.0611 18.096C13.324 18.0965 13.5867 18.0821 13.8481 18.053C14.8074 17.9552 15.7183 17.5834 16.4721 16.982C17.3624 16.1533 17.9378 15.0415 18.1001 13.836C18.1335 13.479 18.067 13.1198 17.9081 12.7984C17.7492 12.477 17.504 12.2061 17.2001 12.016C16.3001 11.516 15.3001 10.916 14.5761 10.467C14.2822 10.2902 13.946 10.1962 13.6031 10.195C13.3225 10.1975 13.0458 10.261 12.7921 10.381C12.5385 10.501 12.314 10.6747 12.1341 10.89L10.9571 12.446C8.71112 11.2997 6.85428 9.51485 5.62005 7.316C5.80105 7.179 5.98105 7.016 6.16205 6.856C6.52405 6.556 6.88505 6.233 7.16205 5.972C7.42764 5.69199 7.59006 5.32995 7.62259 4.94539C7.65512 4.56083 7.55583 4.17664 7.34105 3.856L5.43505 0.833C5.27784 0.585835 5.06269 0.380772 4.80826 0.235609C4.55383 0.0904458 4.26782 0.0095697 3.97505 0Z" />
    </symbol>

    <symbol viewBox="0 0 15 15" id="select-filter-clear">
        <path fill-rule="evenodd" clip-rule="evenodd" d="M14.0752 1.35801C14.1504 1.28502 14.2103 1.19767 14.2511 1.10113C14.292 1.00459 14.313 0.900833 14.313 0.796009C14.313 0.691184 14.292 0.587427 14.2511 0.490889C14.2103 0.394351 14.1504 0.306998 14.0752 0.234009C14.0025 0.160205 13.9159 0.101593 13.8204 0.0615864C13.7248 0.0215796 13.6223 0.000976562 13.5187 0.000976562C13.4151 0.000976562 13.3126 0.0215796 13.2171 0.0615864C13.1215 0.101593 13.0349 0.160205 12.9622 0.234009L7.15721 6.03401L1.35221 0.234009C1.27954 0.160205 1.19291 0.101593 1.09737 0.0615864C1.00183 0.0215796 0.89929 0.000976562 0.795712 0.000976562C0.692134 0.000976562 0.589591 0.0215796 0.494051 0.0615864C0.398512 0.101593 0.311884 0.160205 0.239212 0.234009C0.163849 0.306926 0.103922 0.394256 0.0629946 0.490804C0.0220675 0.587352 0.000976563 0.691145 0.000976562 0.796009C0.000976562 0.900873 0.0220675 1.00467 0.0629946 1.10121C0.103922 1.19776 0.163849 1.28509 0.239212 1.35801L6.03921 7.15801L0.239212 12.958C0.163849 13.0309 0.103922 13.1183 0.0629946 13.2148C0.0220675 13.3114 0.000976562 13.4151 0.000976562 13.52C0.000976562 13.6249 0.0220675 13.7287 0.0629946 13.8252C0.103922 13.9218 0.163849 14.0091 0.239212 14.082C0.311884 14.1558 0.398512 14.2144 0.494051 14.2544C0.589591 14.2944 0.692134 14.315 0.795712 14.315C0.89929 14.315 1.00183 14.2944 1.09737 14.2544C1.19291 14.2144 1.27954 14.1558 1.35221 14.082L7.15721 8.28201L12.9622 14.082C13.112 14.2259 13.3124 14.3051 13.5201 14.3025C13.7278 14.2999 13.9261 14.2157 14.0722 14.0681C14.2184 13.9205 14.3006 13.7214 14.3012 13.5137C14.3017 13.306 14.2206 13.1064 14.0752 12.958L8.27021 7.15801L14.0752 1.35801Z" />
    </symbol>

    <symbol viewBox="0 0 28 28" id="icon-minus">
        <path d="M0.234375 13.999H27.7664"  stroke-miterlimit="10" />
    </symbol>

    <symbol viewBox="0 0 32 32" id="detail-side-feedback-whatsapp">
        <path d="M1.003 30.2778C1.203 29.6778 1.378 29.1238 1.568 28.5718C2.05467 27.1565 2.54433 25.7418 3.037 24.3278C3.214 23.8168 3.404 23.3088 3.552 22.7888C3.59471 22.6119 3.57346 22.4256 3.492 22.2628C2.85421 21.0926 2.36413 19.8478 2.033 18.5568C1.70942 17.324 1.55202 16.0534 1.565 14.7788C1.58288 13.4849 1.77048 12.1989 2.123 10.9538C2.42953 9.85316 2.85889 8.79048 3.403 7.78582C3.75132 7.13523 4.15268 6.51446 4.603 5.92982C5.14738 5.23154 5.73557 4.56853 6.364 3.94482C7.31534 3.00951 8.40304 2.22391 9.59 1.61482C10.5955 1.08695 11.6599 0.679795 12.761 0.401818C13.7266 0.151513 14.7186 0.0172318 15.716 0.00181837C16.7229 -0.0110168 17.7295 0.0441085 18.729 0.166818C20.1614 0.36199 21.5554 0.776159 22.862 1.39482C24.9693 2.36204 26.8122 3.82352 28.234 5.65514C29.6558 7.48677 30.6146 9.63445 31.029 11.9158C31.1524 12.6436 31.2302 13.3783 31.262 14.1158C31.3734 16.2322 31.0116 18.3468 30.203 20.3058C29.6372 21.7622 28.8231 23.1095 27.797 24.2878C27.2389 24.9324 26.6439 25.5441 26.015 26.1198C25.087 26.9355 24.0525 27.6214 22.94 28.1588C21.7434 28.76 20.4657 29.1837 19.147 29.4168C17.8867 29.6475 16.601 29.706 15.325 29.5908C14.1345 29.4987 12.9594 29.2637 11.825 28.8908C11.431 28.7296 11.0469 28.545 10.675 28.3378C10.1785 28.0154 9.60001 27.8419 9.008 27.8378C8.4416 27.9037 7.88401 28.0308 7.345 28.2168C6.133 28.6168 4.945 29.0868 3.732 29.5018C2.909 29.7848 2.071 30.0248 1.238 30.2798C1.15892 30.2889 1.07908 30.2889 1 30.2798" />
        <path d="M12.8283 13.5202C13.156 14.2277 13.5712 14.8912 14.0643 15.4952C14.7439 16.3491 15.5631 17.0818 16.4873 17.6622C16.9803 17.9622 17.5083 18.2152 18.0083 18.5102C18.0866 18.5634 18.1826 18.5841 18.2759 18.5679C18.3692 18.5516 18.4525 18.4998 18.5083 18.4232C19.0156 17.8986 19.5156 17.3672 20.0083 16.8292C20.0623 16.7483 20.1445 16.6902 20.239 16.6664C20.3334 16.6426 20.4333 16.6546 20.5193 16.7002C21.7179 17.1752 22.8646 17.772 23.9413 18.4812C24.0123 18.5211 24.0705 18.5803 24.1092 18.6521C24.1478 18.7238 24.1651 18.805 24.1593 18.8862C24.1684 19.6281 23.9195 20.3502 23.4551 20.9288C22.9907 21.5074 22.3396 21.9067 21.6133 22.0582C20.3532 22.3615 19.0279 22.2334 17.8493 21.6942C16.3794 21.0913 15.0235 20.2414 13.8403 19.1812C13.1963 18.6092 12.5543 18.0302 11.9683 17.4002C10.8664 16.26 9.97592 14.933 9.33829 13.4812C8.99265 12.633 8.87675 11.7086 9.00229 10.8012C9.06403 10.0229 9.32582 9.27367 9.76229 8.62625C10.0108 8.24246 10.3652 7.93888 10.7826 7.75219C11.2 7.5655 11.6625 7.50369 12.1143 7.57425C12.1573 7.57925 12.2003 7.58825 12.2433 7.59125C12.3984 7.5813 12.5527 7.621 12.6838 7.70461C12.8149 7.78821 12.9159 7.91137 12.9723 8.05625C13.3985 8.89431 13.7254 9.77931 13.9463 10.6932C14.0535 11.0717 14.0708 11.4699 13.9968 11.8562C13.9229 12.2425 13.7597 12.6062 13.5203 12.9182C13.3067 13.1368 13.0756 13.3374 12.8293 13.5182" fill="white"/>
    </symbol>

    <symbol viewBox="0 0 32 32" id="detail-side-feedback-telegram">
        <path d="M11.721 27.6607C11.741 27.3487 11.758 27.0607 11.78 26.7697C11.9133 25.0577 12.0446 23.3453 12.174 21.6327C12.203 21.2587 12.214 20.8817 12.274 20.5127C12.3039 20.3546 12.383 20.2101 12.5 20.0997C14.256 18.4997 16.024 16.9047 17.781 15.2997C19.809 13.4497 21.833 11.5943 23.853 9.73366C24.461 9.17466 25.053 8.60366 25.653 8.03366C25.753 7.93866 25.8819 7.82566 25.7819 7.69366C25.7396 7.6455 25.6875 7.607 25.629 7.58078C25.5705 7.55455 25.5071 7.54121 25.443 7.54166C25.2572 7.55543 25.077 7.61116 24.916 7.70466C23.909 8.33666 22.8999 8.96866 21.8899 9.59966C19.8066 10.9063 17.7243 12.2143 15.643 13.5237C13.225 15.0437 10.806 16.5623 8.38595 18.0797C8.28199 18.1446 8.15719 18.1675 8.03695 18.1437C5.78695 17.4623 3.53895 16.7737 1.29295 16.0777C1.00565 15.9945 0.724887 15.8902 0.452951 15.7657C0.345844 15.7315 0.249437 15.6702 0.173175 15.5876C0.0969116 15.505 0.0434073 15.404 0.0179022 15.2945C-0.00760296 15.1851 -0.00423422 15.0708 0.0276784 14.963C0.0595911 14.8553 0.118953 14.7576 0.199951 14.6797C0.399609 14.4377 0.650701 14.2433 0.934951 14.1107C1.86695 13.7037 2.81595 13.3337 3.76595 12.9667C6.60128 11.87 9.43795 10.7773 12.276 9.68866C15.3426 8.506 18.4093 7.32166 21.476 6.13566C23.66 5.28966 25.844 4.44133 28.028 3.59066C28.468 3.42066 28.909 3.25366 29.354 3.09766C29.5835 2.99903 29.8355 2.96444 30.0832 2.99755C30.3309 3.03067 30.5649 3.13027 30.7605 3.28576C30.9561 3.44125 31.1059 3.64682 31.194 3.88063C31.2821 4.11444 31.3053 4.36776 31.261 4.61366C31.181 5.29566 31.0199 5.97066 30.8799 6.64466C30.3733 9.08733 29.863 11.529 29.349 13.9697C28.905 16.0697 28.449 18.1577 27.999 20.2527C27.581 22.2167 27.1739 24.1827 26.7579 26.1467C26.6319 26.7397 26.5 27.3327 26.347 27.9197C26.2772 28.1801 26.1765 28.4312 26.047 28.6677C25.9374 28.9199 25.7361 29.1211 25.4837 29.2305C25.2314 29.3398 24.9469 29.3492 24.688 29.2567C24.3152 29.1476 23.9626 28.9787 23.6439 28.7567C22.3369 27.8237 21.052 26.8627 19.761 25.9097C18.787 25.1857 17.8133 24.4593 16.84 23.7307C16.8171 23.7047 16.7885 23.6843 16.7565 23.6711C16.7244 23.658 16.6898 23.6524 16.6553 23.6548C16.6207 23.6572 16.5872 23.6676 16.5573 23.6851C16.5274 23.7026 16.502 23.7267 16.483 23.7557C15.426 24.7897 14.361 25.8137 13.299 26.8417C12.9374 27.227 12.472 27.4993 11.959 27.6257C11.888 27.6407 11.816 27.6467 11.721 27.6607Z" />
    </symbol>

</svg>