<svg width="151" height="135" viewBox="0 0 151 135" fill="none" xmlns="http://www.w3.org/2000/svg">
<g clip-path="url(#clip0_2118_534)">
<mask id="mask0_2118_534" style="mask-type:luminance" maskUnits="userSpaceOnUse" x="0" y="0" width="151" height="135">
<path d="M150.134 0H0V134.699H150.134V0Z" fill="white"/>
</mask>
<g mask="url(#mask0_2118_534)">
<path d="M8.44478 7.3118L1.58278 4.2468C1.10749 4.07098 0.686287 3.77421 0.360781 3.3858C0.114777 3.04322 -0.012041 2.62939 -0.000218996 2.2078C-0.00258325 1.92767 0.0448194 1.64935 0.139781 1.3858C0.226287 1.13361 0.369651 0.904708 0.558781 0.716797L1.17678 1.1008C1.02651 1.24496 0.907571 1.41855 0.827393 1.61074C0.747214 1.80293 0.707518 2.00958 0.710781 2.2178C0.703507 2.47618 0.78504 2.72925 0.941781 2.9348C1.15986 3.17859 1.4317 3.36827 1.73578 3.4888L2.32878 3.7568L8.44478 1.0198V1.8858L3.23678 4.1858L8.44478 6.4958V7.3118Z" fill="black"/>
<path d="M8.44433 13.3585H2.31633V12.5305H7.71633V9.59449L6.19233 9.51349C5.19917 9.49475 4.21275 9.34581 3.25833 9.07049C2.97091 9.01116 2.71257 8.85493 2.52654 8.62794C2.34051 8.40095 2.23806 8.11697 2.23633 7.82349C2.24183 7.62241 2.27274 7.42282 2.32833 7.22949L3.03933 7.28749C3.01482 7.38278 2.99975 7.48025 2.99433 7.57849C2.99022 7.72858 3.02968 7.87664 3.10795 8.00478C3.18621 8.13291 3.29992 8.23562 3.43533 8.30049C3.77812 8.47765 4.15136 8.58827 4.53533 8.62649C4.96933 8.67949 5.54533 8.72649 6.26133 8.76649L8.45033 8.86649L8.44433 13.3585Z" fill="black"/>
<path d="M2.44582 15.3327C2.50543 15.2727 2.57658 15.2255 2.65496 15.1939C2.73334 15.1623 2.81732 15.1469 2.90182 15.1487C2.98498 15.1465 3.06771 15.1613 3.14492 15.1922C3.22214 15.2232 3.2922 15.2696 3.35082 15.3286C3.40925 15.3854 3.45538 15.4536 3.48635 15.5289C3.51732 15.6043 3.53245 15.6852 3.53082 15.7667C3.53164 15.8484 3.51615 15.9296 3.48524 16.0053C3.45434 16.081 3.40864 16.1498 3.35082 16.2077C3.29362 16.2693 3.22409 16.3183 3.14673 16.3514C3.06938 16.3845 2.98593 16.4009 2.90182 16.3997C2.81743 16.4012 2.73364 16.3853 2.65569 16.3529C2.57774 16.3206 2.50731 16.2725 2.44882 16.2117C2.38921 16.1548 2.34194 16.0864 2.30994 16.0105C2.27794 15.9346 2.2619 15.853 2.26282 15.7707C2.26115 15.6887 2.27686 15.6072 2.30892 15.5317C2.34098 15.4562 2.38865 15.3884 2.44882 15.3327" fill="black"/>
<path d="M9.72438 26.7675V23.9015H2.31738V23.0505H9.72438V20.1855H10.4704V26.7675H9.72438Z" fill="black"/>
<path d="M5.12476 32.8138V27.6888C4.83151 27.7015 4.5438 27.773 4.27873 27.8991C4.01366 28.0252 3.77664 28.2033 3.58176 28.4228C3.18161 28.8882 2.97164 29.4874 2.99376 30.1008C2.98881 30.4604 3.05685 30.8173 3.19376 31.1498C3.32962 31.4668 3.53462 31.7493 3.79376 31.9768L3.25976 32.4428C2.93227 32.1688 2.67713 31.8186 2.51676 31.4228C2.32451 30.9385 2.238 30.4186 2.263 29.8981C2.28801 29.3776 2.42397 28.8685 2.66176 28.4048C2.91903 27.9293 3.30513 27.5359 3.77576 27.2698C4.26515 26.9931 4.81963 26.8522 5.38176 26.8618C5.94218 26.8521 6.49574 26.9861 6.98976 27.2508C7.45102 27.4983 7.83405 27.8695 8.09576 28.3228C8.35656 28.7904 8.49346 29.3169 8.49346 29.8523C8.49346 30.3877 8.35656 30.9142 8.09576 31.3818C7.83404 31.8297 7.45327 32.1963 6.99576 32.4408C6.49906 32.7035 5.94351 32.835 5.38176 32.8228L5.12476 32.8138ZM7.21676 28.3698C6.82898 27.9644 6.30189 27.721 5.74176 27.6888V32.0328C6.30189 32.0006 6.82898 31.7573 7.21676 31.3518C7.58145 30.9406 7.78282 30.41 7.78282 29.8603C7.78282 29.3107 7.58145 28.7811 7.21676 28.3698Z" fill="black"/>
<path d="M8.10162 39.3732C7.84525 39.8357 7.4641 40.2169 7.00162 40.4732C6.50439 40.7414 5.94648 40.8771 5.38162 40.8672C4.81246 40.8785 4.25003 40.7428 3.74862 40.4732C3.28696 40.2194 2.90583 39.841 2.64862 39.3812C2.38445 38.9021 2.25033 38.3622 2.25962 37.8152C2.25225 37.348 2.35792 36.8859 2.56762 36.4682C2.775 36.0667 3.08566 35.7277 3.46762 35.4862H0.0576172V34.6572H8.44462V35.4492H7.23262C7.62659 35.6873 7.94867 36.0277 8.16462 36.4342C8.38668 36.8598 8.49875 37.3342 8.49062 37.8142C8.49825 38.3595 8.36421 38.8973 8.10162 39.3752M3.28962 38.9212C3.48635 39.2705 3.77931 39.5558 4.13362 39.7432C4.51801 39.946 4.94708 40.0491 5.38162 40.0432C5.81425 40.0492 6.24141 39.946 6.62362 39.7432C6.97523 39.5528 7.26681 39.2682 7.46562 38.9212C7.6644 38.5642 7.76873 38.1624 7.76873 37.7537C7.76873 37.3451 7.6644 36.9432 7.46562 36.5862C7.26517 36.2418 6.97388 35.9592 6.62362 35.7692C6.24171 35.5657 5.81434 35.4624 5.38162 35.4692C4.94697 35.4624 4.51766 35.5656 4.13362 35.7692C3.78069 35.9563 3.48803 36.2396 3.28962 36.5862C3.09417 36.9443 2.99176 37.3458 2.99176 37.7537C2.99176 38.1617 3.09417 38.5631 3.28962 38.9212Z" fill="black"/>
<path d="M8.44541 42.6484V43.4754H5.73041V47.3324H8.44541V48.1614H2.31641V47.3324H5.02441V43.4754H2.32441V42.6484H8.44541Z" fill="black"/>
<path d="M2.6598 51.4455C2.92155 50.9777 3.30694 50.5909 3.7738 50.3275C4.26443 50.0502 4.82033 49.9093 5.3838 49.9195C5.94588 49.9103 6.50025 50.0511 6.9898 50.3275C7.45741 50.5892 7.84257 50.9764 8.1018 51.4455C8.36079 51.9376 8.49612 52.4853 8.49612 53.0415C8.49612 53.5976 8.36079 54.1453 8.1018 54.6375C7.84365 55.1047 7.45938 55.4901 6.9928 55.7495C6.50163 56.0209 5.94789 56.1588 5.3868 56.1495C4.8243 56.16 4.26897 56.022 3.7768 55.7495C3.30986 55.4888 2.92426 55.1039 2.6628 54.6375C2.3995 54.1467 2.26172 53.5984 2.26172 53.0415C2.26172 52.4845 2.3995 51.9362 2.6628 51.4455M3.2938 54.2115C3.49064 54.5573 3.7839 54.8384 4.1378 55.0205C4.5229 55.2203 4.952 55.3204 5.3858 55.3115C5.81922 55.3199 6.24789 55.2199 6.6328 55.0205C6.98669 54.8384 7.27995 54.5573 7.4768 54.2115C7.67127 53.8518 7.77311 53.4493 7.77311 53.0405C7.77311 52.6316 7.67127 52.2291 7.4768 51.8695C7.27877 51.5232 6.98594 51.2408 6.6328 51.0555C6.24923 50.8515 5.82016 50.7483 5.3858 50.7555C4.95107 50.7478 4.52156 50.8511 4.1378 51.0555C3.78465 51.2408 3.49183 51.5232 3.2938 51.8695C3.09827 52.2288 2.99583 52.6314 2.99583 53.0405C2.99583 53.4495 3.09827 53.8521 3.2938 54.2115Z" fill="black"/>
<path d="M8.44541 63.4229H2.31641V62.5959H7.71641V58.7499H2.31641V57.9229H8.44541V63.4229Z" fill="black"/>
<path d="M2.6598 66.7091C2.92155 66.2413 3.30694 65.8546 3.7738 65.5911C4.26443 65.3139 4.82033 65.173 5.3838 65.1831C5.94588 65.1739 6.50025 65.3148 6.9898 65.5911C7.45741 65.8529 7.84257 66.2401 8.1018 66.7091C8.36079 67.2013 8.49612 67.749 8.49612 68.3051C8.49612 68.8612 8.36079 69.409 8.1018 69.9011C7.84365 70.3684 7.45938 70.7537 6.9928 71.0131C6.50163 71.2846 5.94789 71.4225 5.3868 71.4131C4.8243 71.4236 4.26897 71.2857 3.7768 71.0131C3.30986 70.7525 2.92426 70.3676 2.6628 69.9011C2.3995 69.4104 2.26172 68.8621 2.26172 68.3051C2.26172 67.7482 2.3995 67.1999 2.6628 66.7091M3.2938 69.4751C3.49064 69.821 3.7839 70.1021 4.1378 70.2841C4.5229 70.484 4.952 70.5841 5.3858 70.5751C5.81922 70.5836 6.24789 70.4836 6.6328 70.2841C6.98669 70.1021 7.27995 69.821 7.4768 69.4751C7.67127 69.1155 7.77311 68.713 7.77311 68.3041C7.77311 67.8952 7.67127 67.4928 7.4768 67.1331C7.27877 66.7869 6.98594 66.5045 6.6328 66.3191C6.24815 66.1154 5.81799 66.0128 5.3828 66.0211C4.94807 66.0135 4.51856 66.1167 4.1348 66.3211C3.78165 66.5065 3.48883 66.7889 3.2908 67.1351C3.09527 67.4945 2.99283 67.897 2.99283 68.3061C2.99283 68.7152 3.09527 69.1178 3.2908 69.4771" fill="black"/>
<path d="M8.4444 78.1602H2.3164V77.3332H7.7164V74.3962L6.1924 74.3153C5.19924 74.2965 4.21282 74.1476 3.2584 73.8722C2.97042 73.8135 2.7114 73.6576 2.52477 73.4305C2.33815 73.2035 2.23527 72.9191 2.2334 72.6252C2.2389 72.4242 2.26981 72.2246 2.3254 72.0312L3.0364 72.0892C3.01189 72.1845 2.99682 72.282 2.9914 72.3802C2.98729 72.5303 3.02675 72.6784 3.10502 72.8065C3.18328 72.9347 3.29699 73.0374 3.4324 73.1022C3.77519 73.2794 4.14843 73.39 4.5324 73.4282C4.9664 73.4812 5.5424 73.5282 6.2584 73.5682L8.4474 73.6683L8.4444 78.1602Z" fill="black"/>
<path d="M5.76755 84.8996C5.58854 85.1034 5.36522 85.2634 5.11473 85.3674C4.86424 85.4714 4.59324 85.5167 4.32255 85.4996C4.03942 85.516 3.75639 85.466 3.49598 85.3537C3.23557 85.2413 3.00497 85.0698 2.82255 84.8526C2.43886 84.3077 2.25742 83.646 2.30955 82.9816L2.32055 80.5156H8.44555V81.3416H6.30155L6.27955 83.1476C6.31501 83.7729 6.13383 84.3913 5.76655 84.8986M3.27855 84.2246C3.40684 84.3734 3.56789 84.4904 3.74904 84.5664C3.9302 84.6424 4.12651 84.6753 4.32255 84.6626C4.51181 84.6766 4.70163 84.6445 4.87578 84.5691C5.04993 84.4937 5.20322 84.3772 5.32255 84.2296C5.56669 83.8459 5.68551 83.3958 5.66255 82.9416L5.68555 81.3416H2.95955L2.93655 82.9416C2.89723 83.3975 3.01857 83.8528 3.27955 84.2286" fill="black"/>
<path d="M2.65625 88.011C2.91406 87.5393 3.29942 87.1498 3.76825 86.887C4.261 86.6105 4.8183 86.4697 5.38325 86.479C5.94599 86.4695 6.50107 86.6104 6.99125 86.887C7.45937 87.1504 7.84427 87.5398 8.10225 88.011C8.37316 88.5096 8.51093 89.0696 8.50225 89.637C8.51061 90.1263 8.40445 90.6109 8.19225 91.052C7.99347 91.4602 7.68093 91.8023 7.29225 92.037L6.86225 91.423C7.15465 91.2327 7.39027 90.967 7.54425 90.654C7.69566 90.3375 7.77295 89.9907 7.77025 89.64C7.77653 89.2207 7.67311 88.807 7.47025 88.44C7.27349 88.089 6.97977 87.8023 6.62425 87.614C6.24054 87.4104 5.81156 87.3072 5.37725 87.314C4.94118 87.3058 4.51026 87.4091 4.12525 87.614C3.77138 87.8021 3.47988 88.0891 3.28625 88.44C3.08342 88.807 2.98001 89.2207 2.98625 89.64C2.98268 89.9903 3.05822 90.3369 3.20725 90.654C3.35797 90.9673 3.59179 91.2333 3.88325 91.423L3.46425 92.041C3.07473 91.805 2.76208 91.4611 2.56425 91.051C2.35412 90.611 2.2487 90.1284 2.25625 89.641C2.24756 89.0736 2.38533 88.5136 2.65625 88.015" fill="black"/>
<path d="M5.04341 95.8598V94.4598H2.31641V93.6328H8.44541V94.4598H5.75541V95.8698L8.44541 98.0248V98.9248L5.47541 96.5118L2.31641 99.0988V98.1188L5.04341 95.8598Z" fill="black"/>
<path d="M7.89238 104.25C7.65707 104.475 7.37729 104.648 7.07106 104.758C6.76483 104.868 6.43894 104.912 6.11438 104.889H2.31438V104.097H3.26938C2.94513 103.903 2.68556 103.617 2.52338 103.276C2.33601 102.873 2.24429 102.432 2.25538 101.988C2.22495 101.404 2.39776 100.828 2.74438 100.358C2.89723 100.161 3.09446 100.004 3.31991 99.8985C3.54536 99.793 3.79261 99.7424 4.04138 99.7509C4.28015 99.7431 4.51756 99.7898 4.73556 99.8876C4.95355 99.9853 5.14638 100.131 5.29938 100.315C5.6623 100.841 5.83124 101.478 5.77738 102.115V104.061H6.15038C6.37099 104.076 6.5923 104.045 6.80002 103.969C7.00775 103.893 7.19728 103.774 7.35638 103.621C7.65706 103.257 7.80573 102.792 7.77138 102.321C7.77249 101.939 7.70649 101.561 7.57638 101.202C7.46122 100.864 7.28156 100.552 7.04738 100.283L7.66538 99.9089C7.93985 100.239 8.14739 100.619 8.27638 101.028C8.42204 101.472 8.49498 101.936 8.49238 102.403C8.5374 103.072 8.32245 103.732 7.89238 104.246M3.23238 103.321C3.45306 103.663 3.77816 103.924 4.15938 104.067H5.15938V102.14C5.15938 101.091 4.79272 100.568 4.05938 100.569C3.89625 100.563 3.73404 100.596 3.58692 100.667C3.43979 100.738 3.31224 100.843 3.21538 100.975C2.99176 101.314 2.88533 101.716 2.91238 102.121C2.89951 102.544 3.01076 102.961 3.23238 103.321Z" fill="black"/>
<path d="M8.44541 111.797H2.31641V111.041H4.34341V108.885L2.31641 107.463V106.563L4.46041 108.089C4.56296 107.66 4.79978 107.275 5.13641 106.989C5.48328 106.724 5.91199 106.588 6.34841 106.605C6.64578 106.587 6.9431 106.642 7.21494 106.764C7.48678 106.886 7.72506 107.071 7.90941 107.305C8.29453 107.866 8.48303 108.538 8.44541 109.216V111.797ZM4.96141 109.187V111.041H7.71141V109.241C7.71141 108.041 7.24941 107.443 6.32541 107.447C5.41674 107.447 4.96241 108.026 4.96241 109.183" fill="black"/>
<path d="M43.6894 126.31V132.439H42.8624V127.039H39.0174V132.439H38.1904V126.31H43.6894Z" fill="black"/>
<path d="M50.7609 126.653C51.2241 126.908 51.6055 127.29 51.8609 127.753C52.1212 128.255 52.2571 128.813 52.2571 129.379C52.2571 129.944 52.1212 130.502 51.8609 131.004C51.6077 131.466 51.2301 131.847 50.7709 132.104C50.2917 132.368 49.7519 132.502 49.2049 132.493C48.7376 132.5 48.2755 132.395 47.8579 132.185C47.4561 131.977 47.1165 131.667 46.8739 131.285V134.699H46.0469V126.311H46.8389V127.523C47.077 127.129 47.4169 126.807 47.8229 126.591C48.2492 126.369 48.7242 126.257 49.2049 126.265C49.7501 126.258 50.2879 126.392 50.7659 126.654M50.3119 131.466C50.6611 131.269 50.9464 130.976 51.1339 130.622C51.3367 130.238 51.4399 129.809 51.4339 129.375C51.4403 128.942 51.3371 128.515 51.1339 128.133C50.944 127.781 50.6593 127.488 50.3119 127.289C49.9549 127.09 49.553 126.986 49.1444 126.986C48.7358 126.986 48.3339 127.09 47.9769 127.289C47.632 127.49 47.3493 127.782 47.1599 128.133C46.9559 128.515 46.8527 128.942 46.8599 129.375C46.8531 129.809 46.9563 130.238 47.1599 130.622C47.3469 130.975 47.6302 131.268 47.9769 131.466C48.335 131.662 48.7364 131.764 49.1444 131.764C49.5523 131.764 49.9538 131.662 50.3119 131.466Z" fill="black"/>
<path d="M53.4937 132.311C53.4349 132.251 53.3886 132.18 53.3577 132.102C53.3268 132.025 53.3118 131.941 53.3137 131.858C53.3115 131.774 53.3263 131.692 53.3573 131.614C53.3882 131.537 53.4347 131.467 53.4937 131.409C53.5507 131.35 53.6189 131.304 53.6942 131.274C53.7695 131.243 53.8503 131.227 53.9317 131.229C54.0135 131.228 54.0947 131.243 54.1704 131.274C54.2462 131.305 54.3149 131.351 54.3727 131.409C54.4337 131.466 54.4819 131.536 54.5143 131.613C54.5467 131.691 54.5625 131.774 54.5607 131.858C54.5622 131.942 54.5463 132.026 54.514 132.104C54.4816 132.182 54.4335 132.252 54.3727 132.311C54.3159 132.37 54.2474 132.417 54.1715 132.449C54.0957 132.481 54.014 132.498 53.9317 132.497C53.8497 132.498 53.7684 132.482 53.6929 132.45C53.6174 132.418 53.5496 132.371 53.4937 132.311Z" fill="black"/>
<path d="M60.9728 131.973C60.336 131.628 59.8074 131.113 59.4458 130.486C59.0824 129.836 58.8916 129.104 58.8916 128.36C58.8916 127.616 59.0824 126.884 59.4458 126.235C59.8099 125.607 60.3405 125.093 60.9788 124.749C61.5712 124.441 62.2218 124.261 62.8882 124.221C63.5546 124.182 64.222 124.282 64.8468 124.518C65.3423 124.709 65.7871 125.012 66.1468 125.403L65.5988 125.949C65.2846 125.63 64.9082 125.38 64.4931 125.214C64.0779 125.047 63.6329 124.968 63.1858 124.982C62.5713 124.974 61.9655 125.127 61.4278 125.425C60.9113 125.708 60.4819 126.127 60.1858 126.637C59.8921 127.164 59.7379 127.758 59.7379 128.361C59.7379 128.965 59.8921 129.558 60.1858 130.086C60.482 130.595 60.9114 131.015 61.4278 131.299C61.966 131.595 62.5716 131.747 63.1858 131.74C63.6341 131.754 64.0805 131.675 64.4962 131.506C64.9118 131.338 65.2875 131.084 65.5988 130.761L66.1468 131.31C65.7824 131.702 65.3338 132.006 64.8348 132.2C64.2984 132.409 63.7267 132.514 63.1508 132.508C62.3889 132.519 61.6368 132.335 60.9668 131.972" fill="black"/>
<path d="M71.884 127.044H69.566V132.439H68.739V127.044H66.415V126.312H71.879L71.884 127.044Z" fill="black"/>
<path d="M77.8038 126.653C78.267 126.908 78.6484 127.29 78.9038 127.753C79.1642 128.255 79.3001 128.813 79.3001 129.379C79.3001 129.944 79.1642 130.502 78.9038 131.004C78.6507 131.466 78.273 131.847 77.8138 132.104C77.3347 132.368 76.7948 132.502 76.2478 132.493C75.7806 132.5 75.3185 132.395 74.9008 132.185C74.499 131.977 74.1595 131.667 73.9168 131.285V134.699H73.0898V126.311H73.8758V127.523C74.1139 127.129 74.4539 126.807 74.8598 126.591C75.2859 126.369 75.7605 126.257 76.2408 126.265C76.7861 126.258 77.3239 126.392 77.8018 126.654M77.3478 131.466C77.6993 131.27 77.9867 130.977 78.1758 130.622C78.3787 130.238 78.4818 129.809 78.4758 129.375C78.4823 128.942 78.379 128.515 78.1758 128.133C77.986 127.781 77.7012 127.488 77.3538 127.289C76.9968 127.09 76.595 126.986 76.1863 126.986C75.7777 126.986 75.3759 127.09 75.0188 127.289C74.674 127.49 74.3912 127.782 74.2018 128.133C73.9979 128.515 73.8946 128.942 73.9018 129.375C73.8951 129.809 73.9983 130.238 74.2018 130.622C74.3889 130.975 74.6722 131.268 75.0188 131.466C75.3769 131.661 75.7784 131.764 76.1863 131.764C76.5943 131.764 76.9957 131.661 77.3538 131.466" fill="black"/>
<path d="M82.0089 132.096C81.5417 131.834 81.1553 131.448 80.8919 130.982C80.6232 130.488 80.4824 129.936 80.4824 129.374C80.4824 128.812 80.6232 128.259 80.8919 127.766C81.1542 127.3 81.541 126.917 82.0089 126.659C82.5007 126.399 83.0486 126.263 83.6049 126.263C84.1612 126.263 84.7091 126.399 85.2009 126.659C85.669 126.916 86.0551 127.299 86.3149 127.766C86.5794 128.26 86.7177 128.813 86.7177 129.374C86.7177 129.935 86.5794 130.487 86.3149 130.982C86.054 131.449 85.6683 131.835 85.2009 132.096C84.7101 132.359 84.1618 132.497 83.6049 132.497C83.048 132.497 82.4997 132.359 82.0089 132.096ZM84.7769 131.465C85.1228 131.268 85.4039 130.975 85.5859 130.621C85.7774 130.233 85.877 129.807 85.877 129.374C85.877 128.942 85.7774 128.515 85.5859 128.128C85.404 127.773 85.1229 127.479 84.7769 127.282C84.4172 127.087 84.0148 126.985 83.6059 126.985C83.197 126.985 82.7946 127.087 82.4349 127.282C82.0879 127.48 81.8048 127.774 81.6189 128.128C81.4231 128.514 81.321 128.941 81.321 129.374C81.321 129.807 81.4231 130.234 81.6189 130.621C81.8051 130.974 82.0882 131.267 82.4349 131.465C82.7942 131.66 83.1968 131.763 83.6059 131.763C84.015 131.763 84.4176 131.66 84.7769 131.465Z" fill="black"/>
<path d="M88.4863 126.31H89.3133V131.18L93.4033 126.31H94.1373V132.439H93.3103V127.569L89.2323 132.439H88.4863V126.31Z" fill="black"/>
<path d="M100.814 127.044H98.4946V132.439H97.6636V127.044H95.3486V126.312H100.814V127.044Z" fill="black"/>
<path d="M107.093 129.63H101.968C101.981 129.924 102.053 130.211 102.179 130.476C102.305 130.741 102.483 130.978 102.702 131.173C103.166 131.573 103.764 131.782 104.376 131.76C104.735 131.765 105.091 131.697 105.423 131.56C105.741 131.425 106.024 131.22 106.252 130.96L106.718 131.494C106.444 131.822 106.094 132.079 105.698 132.24C105.214 132.433 104.694 132.519 104.174 132.494C103.653 132.469 103.144 132.333 102.68 132.095C102.205 131.838 101.811 131.452 101.545 130.981C101.268 130.492 101.128 129.938 101.137 129.375C101.128 128.815 101.261 128.261 101.526 127.767C101.773 127.306 102.145 126.922 102.598 126.66C103.066 126.4 103.592 126.263 104.128 126.263C104.663 126.263 105.19 126.4 105.657 126.66C106.105 126.923 106.472 127.303 106.717 127.76C106.98 128.257 107.112 128.813 107.101 129.375L107.093 129.63ZM102.649 127.538C102.244 127.926 102 128.453 101.968 129.013H106.314C106.281 128.453 106.037 127.927 105.632 127.538C105.221 127.174 104.69 126.972 104.141 126.972C103.591 126.972 103.06 127.174 102.649 127.538Z" fill="black"/>
<path d="M113.815 126.31V132.439H112.988V127.039H110.051L109.969 128.555C109.952 129.548 109.803 130.535 109.526 131.489C109.47 131.778 109.315 132.039 109.088 132.228C108.861 132.416 108.576 132.52 108.28 132.523C108.08 132.515 107.881 132.481 107.688 132.423L107.746 131.712C107.842 131.736 107.939 131.751 108.037 131.757C108.188 131.761 108.336 131.721 108.464 131.643C108.592 131.565 108.695 131.451 108.759 131.316C108.937 130.973 109.047 130.6 109.085 130.216C109.14 129.781 109.187 129.206 109.225 128.49L109.325 126.301L113.815 126.31Z" fill="black"/>
<path d="M121.529 129.63H116.404C116.417 129.924 116.488 130.211 116.615 130.477C116.741 130.742 116.919 130.979 117.139 131.173C117.604 131.574 118.203 131.784 118.817 131.761C119.176 131.766 119.532 131.698 119.864 131.561C120.182 131.426 120.465 131.221 120.693 130.961L121.159 131.495C120.884 131.823 120.534 132.08 120.139 132.241C119.654 132.434 119.134 132.52 118.614 132.495C118.093 132.47 117.584 132.334 117.121 132.096C116.645 131.839 116.252 131.453 115.986 130.982C115.709 130.493 115.568 129.939 115.578 129.376C115.568 128.816 115.702 128.262 115.967 127.768C116.214 127.306 116.585 126.922 117.039 126.659C117.506 126.399 118.033 126.262 118.568 126.262C119.104 126.262 119.63 126.399 120.098 126.659C120.545 126.922 120.912 127.302 121.158 127.759C121.421 128.256 121.553 128.812 121.542 129.374L121.529 129.63ZM117.085 127.538C116.679 127.926 116.436 128.453 116.404 129.013H120.75C120.716 128.453 120.473 127.927 120.068 127.538C119.656 127.174 119.126 126.972 118.576 126.972C118.026 126.972 117.496 127.174 117.085 127.538Z" fill="black"/>
<path d="M123.371 126.312H124.198V131.181L128.288 126.312H129.022V132.439H128.195V127.565L124.117 132.435H123.371V126.312ZM124.897 125.029C124.739 124.89 124.615 124.717 124.532 124.523C124.449 124.33 124.411 124.12 124.419 123.91H125.013C125.012 124.048 125.04 124.184 125.096 124.31C125.153 124.436 125.235 124.548 125.339 124.639C125.568 124.828 125.859 124.925 126.155 124.912C126.453 124.924 126.745 124.827 126.977 124.639C127.082 124.549 127.166 124.437 127.223 124.311C127.28 124.185 127.309 124.048 127.308 123.91H127.902C127.91 124.121 127.871 124.331 127.788 124.524C127.704 124.718 127.578 124.891 127.419 125.029C127.059 125.31 126.61 125.452 126.154 125.429C125.7 125.453 125.254 125.311 124.897 125.029Z" fill="black"/>
<path d="M137.89 0.470703H106.926V36.3767H137.89V0.470703Z" stroke="black" stroke-width="0.567" stroke-linecap="round" stroke-linejoin="round"/>
<path d="M149.663 77.7051H118.699V113.611H149.663V77.7051Z" fill="#C52D1F" stroke="black" stroke-width="0.567" stroke-linecap="round" stroke-linejoin="round"/>
<path d="M118.593 84.1494H53.04V113.61H118.593V84.1494Z" stroke="black" stroke-width="0.567" stroke-linecap="round" stroke-linejoin="round"/>
<path d="M53.0311 84.1494H20.9941V113.61H53.0311V84.1494Z" stroke="black" stroke-width="0.567" stroke-linecap="round" stroke-linejoin="round"/>
<path d="M37.9951 40.1943H20.9941V84.0473H37.9951V40.1943Z" stroke="black" stroke-width="0.567" stroke-linecap="round" stroke-linejoin="round"/>
<path d="M60.7661 0.470703H20.9941V40.2427H60.7661V0.470703Z" stroke="black" stroke-width="0.567" stroke-linejoin="round"/>
</g>
</g>
<defs>
<clipPath id="clip0_2118_534">
<rect width="150.134" height="134.699" fill="white"/>
</clipPath>
</defs>
</svg>
