<svg width="70" height="70" viewBox="0 0 70 70" fill="none" xmlns="http://www.w3.org/2000/svg">
<g clip-path="url(#clip0_2122_1583)">
<path d="M41.2346 50.8849L36.1956 39.0159L36.8616 38.7329L41.9006 50.6039L41.2346 50.8849ZM19.0526 41.9259L18.7686 41.2599L50.5756 27.7599L50.8596 28.4259L19.0526 41.9259ZM32.7726 30.9509L27.7336 19.0799L28.3996 18.7969L33.4386 30.6679L32.7726 30.9509Z" fill="black"/>
<mask id="mask0_2122_1583" style="mask-type:luminance" maskUnits="userSpaceOnUse" x="0" y="0" width="70" height="70">
<path d="M69.924 0H0V69.562H69.924V0Z" fill="white"/>
</mask>
<g mask="url(#mask0_2122_1583)">
<path d="M58.0098 24.727C58.2577 24.8547 58.451 25.0678 58.5538 25.327C58.6694 25.5887 58.6851 25.8836 58.5978 26.156C58.4999 26.4502 58.3277 26.714 58.0978 26.922C57.8426 27.1606 57.5466 27.3513 57.2238 27.485C56.9116 27.6165 56.5817 27.701 56.2448 27.736C55.9067 27.7731 55.5647 27.7518 55.2338 27.673L55.2568 27.085C55.5281 27.1578 55.8103 27.1809 56.0898 27.153C56.3691 27.1282 56.6429 27.0607 56.9018 26.953C57.2338 26.8257 57.523 26.6069 57.7358 26.322C57.8241 26.2092 57.88 26.0745 57.8976 25.9324C57.9152 25.7902 57.8939 25.646 57.8358 25.515C57.7944 25.4063 57.7251 25.3105 57.6349 25.2371C57.5446 25.1637 57.4367 25.1154 57.3218 25.097C57.0197 25.0605 56.7135 25.113 56.4408 25.248L55.4078 25.686L55.1808 25.15L56.1668 24.731C56.4171 24.6415 56.6324 24.4749 56.7818 24.255C56.8376 24.1638 56.8699 24.06 56.8756 23.9532C56.8814 23.8464 56.8605 23.7398 56.8148 23.643C56.7675 23.526 56.6898 23.4238 56.5898 23.3468C56.4898 23.2698 56.371 23.2209 56.2458 23.205C55.9354 23.1601 55.6186 23.2074 55.3348 23.341C55.1125 23.4369 54.904 23.562 54.7148 23.713C54.5183 23.87 54.3452 24.0542 54.2008 24.26L53.7578 23.808C53.9347 23.5766 54.1418 23.3701 54.3738 23.194C54.6009 23.0202 54.8488 22.8754 55.1118 22.763C55.4175 22.6294 55.7447 22.5515 56.0778 22.533C56.3677 22.5135 56.6575 22.5711 56.9178 22.7C57.1591 22.8223 57.3478 23.0281 57.4488 23.279C57.5468 23.4989 57.57 23.7448 57.5148 23.979C57.4544 24.2192 57.3255 24.4367 57.1438 24.605C57.4355 24.5563 57.7352 24.6 58.0008 24.73" fill="#12110C"/>
<path d="M14.2822 44.097C14.2431 43.9808 14.1751 43.8764 14.0844 43.7939C13.9938 43.7113 13.8836 43.6532 13.7642 43.625C13.4631 43.5843 13.1567 43.6367 12.8862 43.775L11.4362 44.39L12.1032 45.959L13.5532 45.343C14.2639 45.0417 14.5069 44.627 14.2822 44.097ZM11.2232 43.886L12.5152 43.338C12.7817 43.2463 13.0115 43.0709 13.1702 42.838C13.2276 42.7361 13.2591 42.6216 13.2621 42.5046C13.265 42.3877 13.2393 42.2718 13.1872 42.167C13.1473 42.0559 13.0809 41.9563 12.9938 41.8766C12.9067 41.797 12.8014 41.7398 12.6872 41.71C12.4091 41.6597 12.1221 41.7008 11.8692 41.827L10.5782 42.375L11.2232 43.886ZM14.4172 43.23C14.6728 43.3682 14.8699 43.5941 14.9722 43.866C15.057 44.0421 15.0973 44.2363 15.0894 44.4316C15.0816 44.6269 15.0259 44.8173 14.9272 44.986C14.6511 45.3922 14.2518 45.6989 13.7882 45.861L11.6692 46.761L9.69922 42.127L11.6992 41.281C12.107 41.0777 12.5685 41.0077 13.0182 41.081C13.1995 41.1214 13.3678 41.2066 13.5076 41.3289C13.6473 41.4512 13.7542 41.6067 13.8182 41.781C13.9216 42.0068 13.951 42.2595 13.9022 42.503C13.8453 42.7425 13.7187 42.9596 13.5382 43.127C13.835 43.064 14.1441 43.0991 14.4192 43.227" fill="#12110C"/>
<path d="M46.7641 58.2761C46.9574 58.016 47.0753 57.7077 47.1051 57.3851C47.1307 57.0409 47.0737 56.6955 46.9387 56.3779C46.8037 56.0602 46.5947 55.7795 46.3291 55.5591C46.0767 55.3561 45.7732 55.2267 45.4521 55.1851C45.1251 55.1426 44.7928 55.1904 44.4911 55.3231C44.1898 55.4454 43.9279 55.6481 43.7339 55.9091C43.54 56.1701 43.4214 56.4793 43.3911 56.8031C43.3656 57.1474 43.4227 57.4928 43.5577 57.8106C43.6927 58.1284 43.9016 58.4093 44.1671 58.6301C44.4203 58.833 44.7242 58.9628 45.0459 59.0053C45.3676 59.0478 45.6949 59.0014 45.9921 58.8711C46.2977 58.7448 46.5629 58.5373 46.7591 58.2711M45.5691 54.5181C46.0058 54.5701 46.4204 54.739 46.7691 55.0071C47.1296 55.2944 47.4127 55.667 47.5929 56.0913C47.7731 56.5156 47.8447 56.9782 47.8011 57.4371C47.7516 57.8756 47.5839 58.2924 47.3161 58.6431C47.0417 58.9902 46.6869 59.2653 46.2823 59.4444C45.8777 59.6236 45.4355 59.7014 44.9941 59.6711C44.585 59.6354 44.1914 59.4979 43.8491 59.2711C43.4974 59.0368 43.2098 58.7185 43.0121 58.3451L42.1651 58.7041L43.0361 60.7561L42.3811 61.0351L40.4141 56.4011L41.0691 56.1221L41.9201 58.1161L42.7731 57.7541C42.6556 57.3579 42.6374 56.9389 42.7201 56.5341C42.8008 56.1385 42.9784 55.7691 43.2371 55.4591C43.5226 55.1265 43.8841 54.8677 44.2909 54.7046C44.6977 54.5415 45.1379 54.4789 45.5741 54.5221" fill="#12110C"/>
<path d="M24.5815 14.36C24.1333 14.3173 23.7053 14.1531 23.3435 13.885C22.9777 13.6025 22.6908 13.2305 22.5104 12.8049C22.33 12.3793 22.2622 11.9144 22.3135 11.455C22.3719 11.0081 22.5518 10.5858 22.8335 10.234C23.1315 9.86073 23.5197 9.56956 23.9615 9.38805C24.2994 9.23993 24.6627 9.15876 25.0315 9.14905C25.3769 9.14094 25.7194 9.21389 26.0315 9.36205L25.7775 9.96205C25.5358 9.85383 25.2739 9.79789 25.009 9.79789C24.7441 9.79789 24.4823 9.85383 24.2405 9.96205C23.9131 10.0961 23.6258 10.3124 23.4065 10.59C23.1969 10.8542 23.0647 11.1713 23.0245 11.506C22.9883 11.8501 23.0403 12.1977 23.1755 12.5161C23.3107 12.8345 23.5248 13.1132 23.7975 13.326C24.0662 13.5297 24.386 13.655 24.7215 13.688C25.0736 13.7234 25.4288 13.6669 25.7525 13.524C25.9991 13.4254 26.2218 13.2754 26.406 13.084C26.5901 12.8926 26.7314 12.6642 26.8205 12.414L27.4285 12.649C27.318 12.9773 27.1324 13.2752 26.8865 13.519C26.6233 13.7798 26.3114 13.9864 25.9685 14.127C25.5344 14.3194 25.0582 14.3969 24.5855 14.352" fill="#12110C"/>
<path d="M68.7736 30.1743C68.6029 29.531 68.4199 28.8853 68.2246 28.2373L68.9176 28.0273C69.1176 28.6847 69.3029 29.3383 69.4736 29.9883L68.7736 30.1743Z" fill="black"/>
<path d="M53.4681 64.1299L53.0811 63.5179C54.6877 62.5001 56.2058 61.3486 57.6191 60.0759L58.1041 60.6139C56.6596 61.913 55.1089 63.0898 53.4681 64.1299ZM60.1191 58.6419L59.5931 58.1419C60.8977 56.7575 62.0844 55.2666 63.1411 53.6849L63.7411 54.0849C62.6626 55.701 61.4507 57.224 60.1181 58.6379M65.2101 51.6799L64.5781 51.3289C65.502 49.6653 66.2863 47.928 66.9231 46.1349L67.6051 46.3769C66.9538 48.2072 66.1511 49.98 65.2051 51.6769M68.4351 43.6769L67.7351 43.4909C68.2248 41.6521 68.5593 39.7755 68.7351 37.8809L69.4561 37.9469C69.2766 39.8817 68.9354 41.798 68.4361 43.6759" fill="black"/>
<path d="M34.0172 69.561C32.039 69.5163 30.0682 69.3029 28.1262 68.923L28.2652 68.213C30.1664 68.5841 32.0957 68.7928 34.0322 68.837L34.0172 69.561ZM36.9422 69.503L36.8972 68.781C38.8305 68.6597 40.7498 68.3733 42.6342 67.925L42.8012 68.625C40.8766 69.0839 38.916 69.3764 36.9412 69.499M25.2832 68.245C23.3802 67.7027 21.5266 67.0002 19.7422 66.145L20.0542 65.493C21.8021 66.3281 23.6171 67.0145 25.4802 67.545L25.2832 68.245ZM17.1592 64.775C15.4525 63.7719 13.8349 62.6244 12.3242 61.345L12.7922 60.793C14.2713 62.043 15.8543 63.1644 17.5242 64.145L17.1592 64.775Z" fill="black"/>
<path d="M45.617 67.8335L45.39 67.1465C46.303 66.8465 47.217 66.5025 48.109 66.1245C48.981 65.7535 49.849 65.3435 50.687 64.9025L51.024 65.5425C50.167 65.9935 49.282 66.4135 48.392 66.7905C47.482 67.1775 46.549 67.5285 45.617 67.8335ZM10.167 59.3685C9.46699 58.6685 8.79699 57.9345 8.16699 57.1825L8.72099 56.7155C9.33999 57.4515 9.99899 58.1735 10.681 58.8575L10.167 59.3685ZM69.607 35.1405L68.883 35.1325C68.893 34.1855 68.863 33.2265 68.792 32.2825L69.514 32.2285C69.585 33.1945 69.614 34.1725 69.607 35.1405Z" fill="black"/>
<path d="M7.27077 56.3896C6.92543 55.821 6.58677 55.2413 6.25477 54.6506L6.88577 54.2966C7.21443 54.8793 7.54777 55.452 7.88577 56.0146L7.27077 56.3896ZM0.678766 41.5146C0.484766 40.8653 0.303432 40.2193 0.134766 39.5766L0.834766 39.3906C1.0021 40.0266 1.18177 40.6653 1.37377 41.3066L0.678766 41.5146Z" fill="black"/>
<path d="M0.866508 31.6716L0.145508 31.6066C0.3254 29.6719 0.666586 27.7556 1.16551 25.8776L1.86551 26.0626C1.37596 27.9014 1.04146 29.778 0.865508 31.6726M2.68251 23.4226L2.00251 23.1816C2.65415 21.3515 3.45691 19.5787 4.40251 17.8816L5.03551 18.2316C4.10879 19.8938 3.32175 21.6301 2.68251 23.4226ZM6.46651 15.8726L5.86651 15.4726C6.94527 13.8567 8.15715 12.3337 9.48951 10.9196L10.0165 11.4196C8.71137 12.8035 7.52455 14.2944 6.46851 15.8766M11.9895 9.48962L11.5025 8.94862C12.947 7.64972 14.4974 6.47364 16.1375 5.43262L16.5255 6.04562C14.9189 7.06311 13.4008 8.21418 11.9875 9.48662" fill="black"/>
<path d="M56.8176 8.765C55.338 7.51451 53.7543 6.39276 52.0836 5.412L52.4486 4.788C54.1551 5.78974 55.7729 6.93522 57.2846 8.212L56.8176 8.765ZM49.5546 4.065C47.8073 3.22897 45.9925 2.54186 44.1296 2.011L44.3296 1.311C46.2328 1.8526 48.0865 2.55513 49.8706 3.411L49.5546 4.065ZM26.9736 1.635L26.8066 0.935C28.7314 0.476513 30.6919 0.184106 32.6666 0.061L32.7116 0.783C30.7785 0.904791 28.8592 1.19116 26.9746 1.639M41.3436 1.352C39.4427 0.978784 37.5134 0.768686 35.5766 0.724L35.5926 0C37.5709 0.0447967 39.5418 0.258574 41.4836 0.639L41.3436 1.352Z" fill="black"/>
<path d="M0.0949919 37.3355C0.0239919 36.3635 -0.00500805 35.3845 0.00199195 34.4235L0.725992 34.4315C0.715992 35.3705 0.745992 36.3315 0.816992 37.2805L0.0949919 37.3355ZM60.886 12.8475C60.267 12.1105 59.608 11.3895 58.926 10.7055L59.438 10.1955C60.138 10.8955 60.808 11.6285 61.438 12.3825L60.886 12.8475ZM18.923 4.65952L18.586 4.01952C19.437 3.57152 20.324 3.15052 21.218 2.77152C22.112 2.39252 23.06 2.03552 23.992 1.72852L24.219 2.41652C23.305 2.71652 22.391 3.06052 21.5 3.43852C20.625 3.81052 19.757 4.22052 18.923 4.65952Z" fill="black"/>
<path d="M3.61079 50.843C2.84347 50.8452 2.09906 50.5816 1.50409 50.097C0.909123 49.6125 0.500305 48.9368 0.347125 48.185C0.193945 47.4331 0.305854 46.6514 0.663833 45.9727C1.02181 45.294 1.60377 44.7602 2.31079 44.462C2.85061 44.2297 3.4433 44.1482 4.02579 44.226L4.64679 44.31L4.26379 44.81C3.98807 45.1725 3.81308 45.6014 3.75657 46.0533C3.70006 46.5052 3.76404 46.964 3.94201 47.3832C4.11999 47.8024 4.40564 48.1671 4.77001 48.4403C5.13438 48.7136 5.56451 48.8856 6.01679 48.939L6.64079 49.009L6.26779 49.509C5.95834 49.9224 5.55686 50.2581 5.09516 50.4895C4.63346 50.7209 4.12422 50.8416 3.60779 50.842M3.33979 44.934C2.93547 44.9764 2.54672 45.113 2.20477 45.3328C1.86281 45.5527 1.57718 45.8497 1.37081 46.2C1.16444 46.5502 1.04308 46.944 1.01647 47.3497C0.989865 47.7553 1.05876 48.1616 1.21762 48.5358C1.37648 48.91 1.62087 49.2418 1.93118 49.5044C2.24149 49.767 2.60907 49.9532 3.00439 50.0481C3.39971 50.1429 3.81176 50.1437 4.20746 50.0504C4.60315 49.9572 4.97145 49.7724 5.28279 49.511C4.83667 49.3625 4.42727 49.1208 4.0818 48.8018C3.73633 48.4829 3.46269 48.0941 3.27909 47.6612C3.09549 47.2284 3.00613 46.7614 3.01694 46.2914C3.02775 45.8213 3.13848 45.3589 3.34179 44.935M64.4338 25.335L63.7618 25.063L64.4368 23.395C64.0554 23.1763 63.7363 22.8637 63.5098 22.487L61.8528 23.187L61.5698 22.521L63.2268 21.821C63.1131 21.3955 63.1096 20.9481 63.2168 20.521L61.5488 19.849L61.8198 19.176L63.4888 19.85C63.7083 19.468 64.0219 19.1485 64.3998 18.922L63.6958 17.271L64.3628 16.988L65.0628 18.642C65.4882 18.5279 65.9357 18.5245 66.3628 18.632L67.0378 16.963L67.7088 17.235L67.0338 18.904C67.4153 19.1233 67.7346 19.4361 67.9618 19.813L69.6168 19.113L69.8998 19.779L68.2448 20.479C68.3599 20.9042 68.3637 21.3519 68.2558 21.779L69.9218 22.452L69.6508 23.124L67.9838 22.451C67.7635 22.8322 67.4496 23.1509 67.0718 23.377L67.7718 25.032L67.1058 25.315L66.4058 23.659C65.9803 23.7723 65.5331 23.7761 65.1058 23.67L64.4338 25.335ZM65.7338 19.277C65.4253 19.278 65.1218 19.3551 64.8502 19.5015C64.5787 19.6479 64.3474 19.859 64.177 20.1162C64.0066 20.3734 63.9022 20.6686 63.8732 20.9758C63.8443 21.2829 63.8915 21.5925 64.0108 21.877C64.1562 22.2175 64.3992 22.5074 64.7092 22.71C65.0192 22.9126 65.3822 23.0189 65.7525 23.0155C66.1228 23.0121 66.4837 22.8991 66.7899 22.6908C67.0961 22.4825 67.3337 22.1882 67.4728 21.845C67.5658 21.6174 67.6127 21.3736 67.6106 21.1278C67.6086 20.8819 67.5576 20.639 67.4608 20.413C67.3166 20.0746 67.0761 19.7861 66.7692 19.5834C66.4623 19.3807 66.1026 19.2728 65.7348 19.273M62.8598 15.273C62.4848 14.732 62.0818 14.188 61.6598 13.655L62.2298 13.209C62.6568 13.752 63.0678 14.309 63.4518 14.861L62.8598 15.273Z" fill="black"/>
</g>
</g>
<defs>
<clipPath id="clip0_2122_1583">
<rect width="69.924" height="69.562" fill="white"/>
</clipPath>
</defs>
</svg>
