<svg width="257" height="265" viewBox="0 0 257 265" fill="none" xmlns="http://www.w3.org/2000/svg">
<g clip-path="url(#clip0_2024_4494)">
<path d="M154.87 104.3H118.72V115.35H154.87V104.3Z" stroke="#C7C6C5" stroke-width="0.43" stroke-miterlimit="10"/>
<path d="M141.57 108.97L147.73 106.15L148.01 106.77L139.43 111.99V112.63C139.43 112.63 139.4 113.14 138.93 113.14H134.2C133.72 113.14 133.7 112.63 133.7 112.63V111.99L125.12 106.77L125.4 106.15L131.56 108.97H141.59H141.57Z" stroke="#C7C6C5" stroke-width="0.43" stroke-miterlimit="10"/>
<path d="M153.09 109.51H120.03V110.45H153.09V109.51Z" stroke="#C7C6C5" stroke-width="0.43" stroke-miterlimit="10"/>
<path d="M128.18 110.45C129.26 110.45 129.17 111.42 130.37 111.42H142.75C143.96 111.42 143.86 110.45 144.94 110.45H128.17H128.18Z" stroke="#C7C6C5" stroke-width="0.43" stroke-miterlimit="10"/>
<path d="M121 187.39H109.95V230.02H121V187.39Z" stroke="#C7C6C5" stroke-width="0.43" stroke-miterlimit="10"/>
<path d="M114.62 203.92L111.8 197.77L112.42 197.49L117.64 206.07H118.28C118.28 206.07 118.79 206.1 118.79 206.57V211.3C118.79 211.78 118.28 211.8 118.28 211.8H117.64L112.42 220.38L111.8 220.1L114.62 213.94V203.91V203.92Z" stroke="#C7C6C5" stroke-width="0.43" stroke-miterlimit="10"/>
<path d="M116.11 192.4H115.17V225.46H116.11V192.4Z" stroke="#C7C6C5" stroke-width="0.43" stroke-miterlimit="10"/>
<path d="M116.1 217.32C116.1 216.24 117.07 216.33 117.07 215.13V202.75C117.07 201.55 116.1 201.64 116.1 200.56V217.33V217.32Z" stroke="#C7C6C5" stroke-width="0.43" stroke-miterlimit="10"/>
<path d="M186.24 32.96H188.7C189.09 32.96 189.41 33.28 189.41 33.67V49.11C189.41 49.5 189.09 49.82 188.7 49.82H186.24C185.85 49.82 185.53 49.5 185.53 49.11V33.67C185.53 33.28 185.85 32.96 186.24 32.96Z" stroke="#C7C6C5" stroke-width="0.43" stroke-miterlimit="10"/>
<path d="M189.41 32.25V11.21C189.41 10.82 189.09 10.5 188.7 10.5H167.37C166.98 10.5 166.66 10.82 166.66 11.21V13.67C166.66 14.06 166.98 14.38 167.37 14.38H185.54V32.25C185.54 32.64 185.86 32.96 186.25 32.96H188.71C189.1 32.96 189.42 32.64 189.42 32.25H189.41Z" stroke="#C7C6C5" stroke-width="0.43" stroke-miterlimit="10"/>
<path d="M190.12 32.96H191.45C191.84 32.96 192.16 33.28 192.16 33.67V49.11C192.16 49.5 191.84 49.82 191.45 49.82H190.12C189.73 49.82 189.41 49.5 189.41 49.11V33.67C189.41 33.28 189.73 32.96 190.12 32.96Z" stroke="#C7C6C5" stroke-width="0.43" stroke-miterlimit="10"/>
<path d="M144.91 14.3398H165.95C166.34 14.3398 166.66 14.6598 166.66 15.0498V32.2498C166.66 32.6398 166.34 32.9598 165.95 32.9598H144.91C144.52 32.9598 144.2 32.6398 144.2 32.2498V15.0498C144.2 14.6598 144.52 14.3398 144.91 14.3398Z" stroke="#C7C6C5" stroke-width="0.43" stroke-miterlimit="10"/>
<path d="M165.95 10.46H144.91C144.518 10.46 144.2 10.7778 144.2 11.17V13.63C144.2 14.0221 144.518 14.34 144.91 14.34H165.95C166.342 14.34 166.66 14.0221 166.66 13.63V11.17C166.66 10.7778 166.342 10.46 165.95 10.46Z" stroke="#C7C6C5" stroke-width="0.43" stroke-miterlimit="10"/>
<path d="M165.95 7.58008H144.91C144.518 7.58008 144.2 7.89796 144.2 8.29008V9.75008C144.2 10.1422 144.518 10.4601 144.91 10.4601H165.95C166.342 10.4601 166.66 10.1422 166.66 9.75008V8.29008C166.66 7.89796 166.342 7.58008 165.95 7.58008Z" stroke="#C7C6C5" stroke-width="0.43" stroke-miterlimit="10"/>
<path d="M192.16 32.2501V8.29008C192.16 7.90008 191.84 7.58008 191.45 7.58008H167.37C166.98 7.58008 166.66 7.90008 166.66 8.29008V9.62008C166.66 10.0101 166.98 10.5001 167.37 10.5001H189.41V32.2501C189.41 32.6401 189.73 32.9601 190.12 32.9601H191.45C191.84 32.9601 192.16 32.6401 192.16 32.2501Z" stroke="#C7C6C5" stroke-width="0.43" stroke-miterlimit="10"/>
<path d="M185.53 14.3799L189.07 10.8599" stroke="#C7C6C5" stroke-width="0.43" stroke-miterlimit="10"/>
<path d="M167.37 14.3799H184.83C185.22 14.3799 185.54 14.6999 185.54 15.0899V49.0799C185.54 49.4699 185.22 49.7899 184.83 49.7899H167.37C166.98 49.7899 166.66 49.4699 166.66 49.0799V15.0899C166.66 14.6999 166.98 14.3799 167.37 14.3799Z" stroke="#C7C6C5" stroke-width="0.43" stroke-miterlimit="10"/>
<path d="M121.45 32.25V11.21C121.45 10.82 121.77 10.5 122.16 10.5H143.49C143.88 10.5 144.2 10.82 144.2 11.21V13.67C144.2 14.06 143.88 14.38 143.49 14.38H125.32V32.25C125.32 32.64 125 32.96 124.61 32.96H122.15C121.76 32.96 121.44 32.64 121.44 32.25H121.45Z" stroke="#C7C6C5" stroke-width="0.43" stroke-miterlimit="10"/>
<path d="M118.7 32.2501V8.29008C118.7 7.90008 119.02 7.58008 119.41 7.58008H143.49C143.88 7.58008 144.2 7.90008 144.2 8.29008V9.62008C144.2 10.0101 143.88 10.5001 143.49 10.5001H121.45V32.2501C121.45 32.6401 121.13 32.9601 120.74 32.9601H119.41C119.02 32.9601 118.7 32.6401 118.7 32.2501Z" stroke="#C7C6C5" stroke-width="0.43" stroke-miterlimit="10"/>
<path d="M125.32 14.3799L121.78 10.8599" stroke="#C7C6C5" stroke-width="0.43" stroke-miterlimit="10"/>
<path d="M126.03 14.3799H143.49C143.88 14.3799 144.2 14.6999 144.2 15.0899V32.2599C144.2 32.6499 143.88 32.9699 143.49 32.9699H126.03C125.64 32.9699 125.32 32.6499 125.32 32.2599V15.0899C125.32 14.6999 125.64 14.3799 126.03 14.3799Z" stroke="#C7C6C5" stroke-width="0.43" stroke-miterlimit="10"/>
<path d="M155.94 79.8198C155.94 79.8198 157.06 79.9698 157.48 80.3898C157.76 80.6698 158.05 82.0198 154.42 85.6598C150.79 89.2998 149.43 88.9998 149.15 88.7198C148.56 88.1298 148.58 87.1698 148.58 87.1698" stroke="#C7C6C5" stroke-width="0.43" stroke-miterlimit="10"/>
<path d="M155.94 79.8198C155.94 79.8198 157.06 79.9698 157.48 80.3898C157.76 80.6698 158.05 82.0198 154.42 85.6598C150.79 89.2998 149.43 88.9998 149.15 88.7198C148.56 88.1298 148.58 87.1698 148.58 87.1698" stroke="#C7C6C5" stroke-width="0.43" stroke-miterlimit="10"/>
<path d="M141.63 81.2099C141.36 80.9299 141.35 80.4799 141.63 80.2099L148.96 72.8799C149.24 72.5999 149.68 72.5999 149.96 72.8799L155.87 78.7899C156.15 79.0699 156.44 80.4199 152.81 84.0599C149.18 87.6899 147.82 87.3999 147.54 87.1199L141.62 81.2099H141.63Z" stroke="#C7C6C5" stroke-width="0.43" stroke-miterlimit="10"/>
<path d="M141.63 81.2099C141.36 80.9299 141.35 80.4799 141.63 80.2099L148.96 72.8799C149.24 72.5999 149.68 72.5999 149.96 72.8799L155.87 78.7899C156.15 79.0699 156.44 80.4199 152.81 84.0599C149.18 87.6899 147.82 87.3999 147.54 87.1199L141.62 81.2099H141.63Z" stroke="#C7C6C5" stroke-width="0.43" stroke-miterlimit="10"/>
<path d="M122.26 60.8599C122.26 60.8599 121.14 60.7199 120.72 60.2899C120.44 60.0099 120.15 58.6599 123.78 55.0199C127.42 51.3799 128.77 51.6799 129.05 51.9599C129.64 52.5499 129.62 53.4999 129.62 53.4999" stroke="#C7C6C5" stroke-width="0.43" stroke-miterlimit="10"/>
<path d="M122.26 60.8599C122.26 60.8599 121.14 60.7199 120.72 60.2899C120.44 60.0099 120.15 58.6599 123.78 55.0199C127.42 51.3799 128.77 51.6799 129.05 51.9599C129.64 52.5499 129.62 53.4999 129.62 53.4999" stroke="#C7C6C5" stroke-width="0.43" stroke-miterlimit="10"/>
<path d="M136.57 59.4801C136.85 59.7601 136.85 60.2001 136.57 60.4801L129.24 67.8101C128.97 68.0801 128.52 68.0901 128.24 67.8101L122.33 61.9001C122.05 61.6201 121.76 60.2701 125.39 56.6301C129.02 53.0001 130.38 53.2901 130.66 53.5701L136.58 59.4901H136.57V59.4801Z" stroke="#C7C6C5" stroke-width="0.43" stroke-miterlimit="10"/>
<path d="M136.57 59.4801C136.85 59.7601 136.85 60.2001 136.57 60.4801L129.24 67.8101C128.97 68.0801 128.52 68.0901 128.24 67.8101L122.33 61.9001C122.05 61.6201 121.76 60.2701 125.39 56.6301C129.02 53.0001 130.38 53.2901 130.66 53.5701L136.58 59.4901H136.57V59.4801Z" stroke="#C7C6C5" stroke-width="0.43" stroke-miterlimit="10"/>
<path d="M148.58 53.51C148.58 53.51 148.72 52.39 149.15 51.97C149.43 51.69 150.78 51.4 154.42 55.03C158.06 58.67 157.76 60.02 157.48 60.3C156.89 60.88 155.94 60.87 155.94 60.87" stroke="#C7C6C5" stroke-width="0.43" stroke-miterlimit="10"/>
<path d="M148.58 53.51C148.58 53.51 148.72 52.39 149.15 51.97C149.43 51.69 150.78 51.4 154.42 55.03C158.06 58.67 157.76 60.02 157.48 60.3C156.89 60.88 155.94 60.87 155.94 60.87" stroke="#C7C6C5" stroke-width="0.43" stroke-miterlimit="10"/>
<path d="M149.97 67.8101C149.69 68.0901 149.24 68.0901 148.97 67.8101L141.64 60.4801C141.36 60.2001 141.36 59.7601 141.64 59.4801L147.55 53.5701C147.83 53.2901 149.18 53.0001 152.82 56.6301C156.45 60.2701 156.16 61.6201 155.88 61.9001L149.97 67.8201V67.8101Z" stroke="#C7C6C5" stroke-width="0.43" stroke-miterlimit="10"/>
<path d="M149.97 67.8101C149.69 68.0901 149.24 68.0901 148.97 67.8101L141.64 60.4801C141.36 60.2001 141.36 59.7601 141.64 59.4801L147.55 53.5701C147.83 53.2901 149.18 53.0001 152.82 56.6301C156.45 60.2701 156.16 61.6201 155.88 61.9001L149.97 67.8201V67.8101Z" stroke="#C7C6C5" stroke-width="0.43" stroke-miterlimit="10"/>
<path d="M129.62 87.1799C129.62 87.1799 129.47 88.2999 129.05 88.7199C128.77 88.9999 127.42 89.2899 123.78 85.6599C120.14 82.0299 120.44 80.6699 120.72 80.3899C121.31 79.7999 122.26 79.8199 122.26 79.8199" stroke="#C7C6C5" stroke-width="0.43" stroke-miterlimit="10"/>
<path d="M129.62 87.1799C129.62 87.1799 129.47 88.2999 129.05 88.7199C128.77 88.9999 127.42 89.2899 123.78 85.6599C120.14 82.0299 120.44 80.6699 120.72 80.3899C121.31 79.7999 122.26 79.8199 122.26 79.8199" stroke="#C7C6C5" stroke-width="0.43" stroke-miterlimit="10"/>
<path d="M128.24 72.8799C128.52 72.5999 128.96 72.5999 129.24 72.8799L136.57 80.2099C136.84 80.4899 136.85 80.9399 136.57 81.2099L130.65 87.1299C130.37 87.4099 129.02 87.6999 125.38 84.0699C121.75 80.4299 122.04 79.0799 122.32 78.7999L128.24 72.8799Z" stroke="#C7C6C5" stroke-width="0.43" stroke-miterlimit="10"/>
<path d="M128.24 72.8799C128.52 72.5999 128.96 72.5999 129.24 72.8799L136.57 80.2099C136.84 80.4899 136.85 80.9399 136.57 81.2099L130.65 87.1299C130.37 87.4099 129.02 87.6999 125.38 84.0699C121.75 80.4299 122.04 79.0799 122.32 78.7999L128.24 72.8799Z" stroke="#C7C6C5" stroke-width="0.43" stroke-miterlimit="10"/>
<path d="M149.12 80.3099C143.6 85.8299 134.65 85.8299 129.13 80.3099C123.61 74.7899 123.61 65.8499 129.13 60.3299C134.65 54.8099 143.6 54.8099 149.12 60.3299C154.64 65.8499 154.64 74.7999 149.12 80.3199" stroke="#C7C6C5" stroke-width="0.43" stroke-miterlimit="10"/>
<path d="M149.12 80.3099C143.6 85.8299 134.65 85.8299 129.13 80.3099C123.61 74.7899 123.61 65.8499 129.13 60.3299C134.65 54.8099 143.6 54.8099 149.12 60.3299C154.64 65.8499 154.64 74.7999 149.12 80.3199V80.3099Z" stroke="#C7C6C5" stroke-width="0.43" stroke-miterlimit="10"/>
<path d="M84.87 7.6499H35.13V24.5899H84.87V7.6499Z" stroke="#C7C6C5" stroke-width="0.43" stroke-linecap="round" stroke-linejoin="round"/>
<path d="M60.36 11.8998C60.36 10.6998 58.59 10.7198 58.59 11.8998C58.59 12.7798 59.48 12.5398 59.48 13.3398" stroke="#C7C6C5" stroke-width="0.43" stroke-linecap="round" stroke-linejoin="round"/>
<path d="M59.47 13.3398L65.42 15.3498C65.42 15.3498 65.97 15.5598 65.89 16.1598C65.81 16.7598 65.25 16.6898 65.25 16.6898H53.68C53.68 16.6898 53.12 16.7598 53.04 16.1598C52.96 15.5598 53.51 15.3498 53.51 15.3498L59.46 13.3398H59.47Z" stroke="#C7C6C5" stroke-width="0.43" stroke-linecap="round" stroke-linejoin="round"/>
<path d="M68.19 16.1201H83.66" stroke="#C7C6C5" stroke-width="0.43" stroke-linecap="round" stroke-linejoin="round"/>
<path d="M36.38 16.1201H50.48" stroke="#C7C6C5" stroke-width="0.43" stroke-linecap="round" stroke-linejoin="round"/>
<path d="M84.87 139.28H35.13V157.42H84.87V139.28Z" stroke="#C7C6C5" stroke-width="0.43" stroke-linecap="round" stroke-linejoin="round"/>
<path d="M60.36 145.2C60.36 144 58.59 144.02 58.59 145.2C58.59 146.08 59.48 145.84 59.48 146.64" stroke="#C7C6C5" stroke-width="0.43" stroke-linecap="round" stroke-linejoin="round"/>
<path d="M59.47 146.63L65.42 148.64C65.42 148.64 65.97 148.85 65.89 149.45C65.81 150.05 65.25 149.98 65.25 149.98H53.68C53.68 149.98 53.12 150.05 53.04 149.45C52.96 148.85 53.51 148.64 53.51 148.64L59.46 146.63H59.47Z" stroke="#C7C6C5" stroke-width="0.43" stroke-linecap="round" stroke-linejoin="round"/>
<path d="M68.19 148.4H83.66" stroke="#C7C6C5" stroke-width="0.43" stroke-linecap="round" stroke-linejoin="round"/>
<path d="M36.38 148.4H50.48" stroke="#C7C6C5" stroke-width="0.43" stroke-linecap="round" stroke-linejoin="round"/>
<path d="M224.08 157.7H153V171.86H224.08V157.7Z" stroke="#C7C6C5" stroke-width="0.43" stroke-linecap="round" stroke-linejoin="round"/>
<path d="M189.06 161.42C189.06 159.92 186.85 159.95 186.85 161.42C186.85 162.52 187.96 162.22 187.96 163.22" stroke="#C7C6C5" stroke-width="0.43" stroke-linecap="round" stroke-linejoin="round"/>
<path d="M187.95 163.22L195.38 165.72C195.38 165.72 196.06 165.98 195.96 166.73C195.86 167.48 195.16 167.4 195.16 167.4H180.72C180.72 167.4 180.02 167.48 179.92 166.73C179.82 165.98 180.51 165.72 180.51 165.72L187.94 163.22H187.95Z" stroke="#C7C6C5" stroke-width="0.43" stroke-linecap="round" stroke-linejoin="round"/>
<path d="M198.85 164.9H222.55" stroke="#C7C6C5" stroke-width="0.43" stroke-linecap="round" stroke-linejoin="round"/>
<path d="M154 164.9H176.73" stroke="#C7C6C5" stroke-width="0.43" stroke-linecap="round" stroke-linejoin="round"/>
<path d="M224.12 94.9399H206.66V112.56H224.12V94.9399Z" stroke="#C7C6C5" stroke-width="0.43" stroke-miterlimit="10"/>
<path d="M209.8 96.4399H220.96C221.86 96.4399 222.58 97.1699 222.58 98.0599V109.43C222.58 110.33 221.85 111.05 220.96 111.05H209.8C208.9 111.05 208.18 110.32 208.18 109.43V98.0599C208.18 97.1599 208.91 96.4399 209.8 96.4399Z" stroke="#C7C6C5" stroke-width="0.43" stroke-miterlimit="10"/>
<path d="M209.8 96.4399H220.96C221.86 96.4399 222.58 97.1699 222.58 98.0599V109.43C222.58 110.33 221.85 111.05 220.96 111.05H209.8C208.9 111.05 208.18 110.32 208.18 109.43V98.0599C208.18 97.1599 208.91 96.4399 209.8 96.4399Z" stroke="#C7C6C5" stroke-width="0.43" stroke-miterlimit="10"/>
<path d="M219.43 108.83C219.43 108.31 219.86 107.88 220.38 107.88C220.9 107.88 221.33 108.3 221.33 108.83C221.33 109.36 220.91 109.78 220.38 109.78C219.85 109.78 219.43 109.36 219.43 108.83Z" stroke="#C7C6C5" stroke-width="0.43" stroke-miterlimit="10"/>
<path d="M223.16 103.04H217.78V104.47H223.16V103.04Z" stroke="#C7C6C5" stroke-width="0.43" stroke-miterlimit="10"/>
<path d="M224.12 112.56H206.66V124.4H224.12V112.56Z" stroke="#C7C6C5" stroke-width="0.43" stroke-miterlimit="10"/>
<path d="M224.12 124.4H206.66V142.22H224.12V124.4Z" stroke="#C7C6C5" stroke-width="0.43" stroke-miterlimit="10"/>
<path d="M188.52 124.4H172.53V142.22H188.52V124.4Z" stroke="#C7C6C5" stroke-width="0.43" stroke-miterlimit="10"/>
<path d="M224.12 80.1802H206.66V94.9402H224.12V80.1802Z" stroke="#C7C6C5" stroke-width="0.43" stroke-miterlimit="10"/>
<path d="M206.65 124.4H188.52V142.22H206.65V124.4Z" stroke="#C7C6C5" stroke-width="0.43" stroke-miterlimit="10"/>
<path d="M201.97 131.58C200.46 131.58 199.25 130.36 199.25 128.85C199.25 127.34 200.47 126.13 201.97 126.13C203.47 126.13 204.7 127.35 204.7 128.85C204.7 130.35 203.48 131.58 201.97 131.58Z" stroke="#C7C6C5" stroke-width="0.43" stroke-miterlimit="10"/>
<path d="M201.97 131.58C200.46 131.58 199.25 130.36 199.25 128.85C199.25 127.34 200.47 126.13 201.97 126.13C203.47 126.13 204.7 127.35 204.7 128.85C204.7 130.35 203.48 131.58 201.97 131.58Z" stroke="#C7C6C5" stroke-width="0.43" stroke-miterlimit="10"/>
<path d="M201.97 140.5C200.46 140.5 199.25 139.28 199.25 137.77C199.25 136.26 200.47 135.05 201.97 135.05C203.47 135.05 204.7 136.27 204.7 137.77C204.7 139.27 203.48 140.5 201.97 140.5Z" stroke="#C7C6C5" stroke-width="0.43" stroke-miterlimit="10"/>
<path d="M201.97 140.5C200.46 140.5 199.25 139.28 199.25 137.77C199.25 136.26 200.47 135.05 201.97 135.05C203.47 135.05 204.7 136.27 204.7 137.77C204.7 139.27 203.48 140.5 201.97 140.5Z" stroke="#C7C6C5" stroke-width="0.43" stroke-miterlimit="10"/>
<path d="M193.76 131.58C192.25 131.58 191.04 130.36 191.04 128.85C191.04 127.34 192.26 126.13 193.76 126.13C195.26 126.13 196.49 127.35 196.49 128.85C196.49 130.35 195.27 131.58 193.76 131.58Z" stroke="#C7C6C5" stroke-width="0.43" stroke-miterlimit="10"/>
<path d="M193.76 131.58C192.25 131.58 191.04 130.36 191.04 128.85C191.04 127.34 192.26 126.13 193.76 126.13C195.26 126.13 196.49 127.35 196.49 128.85C196.49 130.35 195.27 131.58 193.76 131.58Z" stroke="#C7C6C5" stroke-width="0.43" stroke-miterlimit="10"/>
<path d="M193.76 140.5C192.25 140.5 191.04 139.28 191.04 137.77C191.04 136.26 192.26 135.05 193.76 135.05C195.26 135.05 196.49 136.27 196.49 137.77C196.49 139.27 195.27 140.5 193.76 140.5Z" stroke="#C7C6C5" stroke-width="0.43" stroke-miterlimit="10"/>
<path d="M193.76 140.5C192.25 140.5 191.04 139.28 191.04 137.77C191.04 136.26 192.26 135.05 193.76 135.05C195.26 135.05 196.49 136.27 196.49 137.77C196.49 139.27 195.27 140.5 193.76 140.5Z" stroke="#C7C6C5" stroke-width="0.43" stroke-miterlimit="10"/>
<path d="M172.53 124.4H155.07V142.22H172.53V124.4Z" stroke="#C7C6C5" stroke-width="0.43" stroke-miterlimit="10"/>
<path d="M162.43 132.57L165.18 135.32" stroke="#C7C6C5" stroke-width="0.43" stroke-miterlimit="10" stroke-linecap="round"/>
<path d="M162.43 135.32L165.18 132.57" stroke="#C7C6C5" stroke-width="0.43" stroke-miterlimit="10" stroke-linecap="round"/>
<path d="M163.8 137.19V130.69" stroke="#C7C6C5" stroke-width="0.43" stroke-miterlimit="10" stroke-linecap="round"/>
<path d="M167.05 133.94H160.55" stroke="#C7C6C5" stroke-width="0.43" stroke-miterlimit="10" stroke-linecap="round"/>
<path d="M205.98 242.93H195.54C195.148 242.93 194.83 243.248 194.83 243.64V254.08C194.83 254.472 195.148 254.79 195.54 254.79H205.98C206.372 254.79 206.69 254.472 206.69 254.08V243.64C206.69 243.248 206.372 242.93 205.98 242.93Z" stroke="#C7C6C5" stroke-width="0.43" stroke-linecap="round" stroke-linejoin="round"/>
<path d="M149.65 242.93H139.21C138.818 242.93 138.5 243.248 138.5 243.64V254.08C138.5 254.472 138.818 254.79 139.21 254.79H149.65C150.042 254.79 150.36 254.472 150.36 254.08V243.64C150.36 243.248 150.042 242.93 149.65 242.93Z" stroke="#C7C6C5" stroke-width="0.43" stroke-linecap="round" stroke-linejoin="round"/>
<path d="M193.91 252.94C193.91 252.94 193.94 254.07 192.78 254.07H152.42C151.23 254.07 151.29 252.94 151.29 252.94V202.99C151.29 202.99 151.26 201.86 152.42 201.86H192.78C193.96 201.86 193.91 202.99 193.91 202.99V252.94Z" stroke="#C7C6C5" stroke-width="0.43" stroke-miterlimit="10"/>
<path d="M174.41 240.51H190.67C191.2 240.51 191.64 240.94 191.64 241.48V251.3C191.64 251.83 191.21 252.27 190.67 252.27H174.42C173.89 252.27 173.45 251.84 173.45 251.3V241.48C173.45 240.95 173.88 240.51 174.42 240.51H174.41Z" stroke="#C7C6C5" stroke-width="0.43" stroke-miterlimit="10"/>
<path d="M154.52 240.51H170.78C171.31 240.51 171.75 240.94 171.75 241.48V251.3C171.75 251.83 171.32 252.27 170.78 252.27H154.53C154 252.27 153.56 251.84 153.56 251.3V241.48C153.56 240.95 153.99 240.51 154.53 240.51H154.52Z" stroke="#C7C6C5" stroke-width="0.43" stroke-miterlimit="10"/>
<path d="M193.91 239.35H151.28" stroke="#C7C6C5" stroke-width="0.43" stroke-miterlimit="10"/>
<path d="M151.28 248.69C152 248.69 151.99 249.54 151.99 249.54V252.94C151.99 253.03 152.01 253.2 152.09 253.28C152.16 253.35 152.3 253.37 152.41 253.37H192.77C192.92 253.37 193.02 253.34 193.08 253.28C193.17 253.18 193.19 252.99 193.19 252.96V249.54C193.19 249.54 193.16 248.69 193.9 248.69C194.64 248.69 194.61 249.54 194.61 249.54V252.93C194.61 253.06 194.59 253.47 194.37 253.88C194.06 254.45 193.49 254.77 192.77 254.77H152.41C151.71 254.77 151.29 254.48 151.06 254.24C150.55 253.7 150.56 252.98 150.57 252.89V249.52C150.57 249.52 150.55 248.67 151.28 248.67V248.69Z" stroke="#C7C6C5" stroke-width="0.43" stroke-miterlimit="10"/>
<path d="M193.91 249.54V252.94C193.91 252.94 193.94 254.07 192.78 254.07H152.42C151.23 254.07 151.29 252.94 151.29 252.94V249.54" stroke="#C7C6C5" stroke-width="0.43" stroke-miterlimit="10" stroke-linecap="round"/>
<path d="M35.91 230.94H46.35C46.74 230.94 47.06 231.26 47.06 231.65V242.09C47.06 242.48 46.74 242.8 46.35 242.8H35.91C35.52 242.8 35.2 242.48 35.2 242.09V231.65C35.2 231.26 35.52 230.94 35.91 230.94Z" stroke="#C7C6C5" stroke-width="0.43" stroke-linecap="round" stroke-linejoin="round"/>
<path d="M35.91 174.61H46.35C46.74 174.61 47.06 174.93 47.06 175.32V185.76C47.06 186.15 46.74 186.47 46.35 186.47H35.91C35.52 186.47 35.2 186.15 35.2 185.76V175.32C35.2 174.93 35.52 174.61 35.91 174.61Z" stroke="#C7C6C5" stroke-width="0.43" stroke-linecap="round" stroke-linejoin="round"/>
<path d="M37.03 230.02C37.03 230.02 35.9 230.05 35.9 228.89V188.53C35.9 187.34 37.03 187.4 37.03 187.4H86.98C86.98 187.4 88.11 187.37 88.11 188.53V228.89C88.11 230.08 86.98 230.02 86.98 230.02H37.03Z" stroke="#C7C6C5" stroke-width="0.43" stroke-miterlimit="10"/>
<path d="M38.68 209.56H48.5C49.03 209.56 49.47 209.99 49.47 210.53V226.78C49.47 227.31 49.04 227.75 48.5 227.75H38.68C38.15 227.75 37.72 227.32 37.72 226.79V210.53C37.72 210 38.15 209.56 38.69 209.56H38.68Z" stroke="#C7C6C5" stroke-width="0.43" stroke-miterlimit="10"/>
<path d="M38.68 189.66H48.5C49.03 189.66 49.47 190.09 49.47 190.63V206.89C49.47 207.42 49.04 207.85 48.51 207.85H38.69C38.16 207.85 37.72 207.42 37.72 206.88V190.63C37.72 190.1 38.15 189.66 38.69 189.66H38.68Z" stroke="#C7C6C5" stroke-width="0.43" stroke-miterlimit="10"/>
<path d="M50.62 230.02V187.39" stroke="#C7C6C5" stroke-width="0.43" stroke-miterlimit="10"/>
<path d="M41.28 187.39C41.28 188.11 40.43 188.1 40.43 188.1H37.03C36.94 188.1 36.77 188.12 36.69 188.2C36.62 188.27 36.6 188.41 36.6 188.52V228.88C36.6 229.03 36.63 229.13 36.69 229.19C36.79 229.28 36.98 229.31 37.01 229.3H40.43C40.43 229.3 41.28 229.27 41.28 230.01C41.28 230.75 40.43 230.72 40.43 230.72H37.02C36.9 230.72 36.49 230.7 36.08 230.48C35.51 230.17 35.19 229.6 35.19 228.88V188.52C35.19 187.82 35.48 187.4 35.72 187.17C36.26 186.66 36.98 186.67 37.07 186.68H40.44C40.44 186.68 41.29 186.66 41.29 187.39H41.28Z" stroke="#C7C6C5" stroke-width="0.43" stroke-miterlimit="10"/>
<path d="M40.43 230.02H37.03C37.03 230.02 35.9 230.05 35.9 228.89V188.53C35.9 187.34 37.03 187.4 37.03 187.4H40.43" stroke="#C7C6C5" stroke-width="0.43" stroke-miterlimit="10" stroke-linecap="round"/>
<path d="M44.39 93.6601C39.28 93.6601 35.13 89.5001 35.13 84.4001C35.13 79.3001 39.29 75.1401 44.39 75.1401H75.47C80.58 75.1401 84.73 79.2901 84.73 84.4001C84.73 89.5101 80.57 93.6601 75.47 93.6601H44.39Z" stroke="#C7C6C5" stroke-width="0.43" stroke-linecap="round" stroke-linejoin="round"/>
<path d="M44.61 91.9101C40.47 91.9101 37.1 88.5401 37.1 84.4001C37.1 80.2601 40.47 76.8901 44.61 76.8901H75.47C79.61 76.8901 82.98 80.2601 82.98 84.4001C82.98 88.5401 79.61 91.9101 75.47 91.9101H44.61Z" stroke="#C7C6C5" stroke-width="0.43" stroke-linecap="round" stroke-linejoin="round"/>
<path d="M77.81 84.3903C77.81 86.2203 76.33 87.7103 74.49 87.7103H46.71C44.88 87.7103 43.39 86.2303 43.39 84.3903C43.39 82.5603 44.87 81.0703 46.71 81.0703H74.49C76.32 81.0703 77.81 82.5603 77.81 84.3903Z" stroke="#C7C6C5" stroke-width="0.43" stroke-linecap="round" stroke-linejoin="round"/>
<path d="M60.06 77.7003C60.06 77.9303 59.67 78.1203 59.2 78.1203C58.73 78.1203 58.33 77.9303 58.33 77.7003C58.33 77.4703 58.72 77.2803 59.2 77.2803C59.68 77.2803 60.06 77.4703 60.06 77.7003Z" stroke="#C7C6C5" stroke-width="0.43" stroke-linecap="round" stroke-linejoin="round"/>
<path d="M35.97 93.6602H46.91C47.29 93.6602 47.6 93.9702 47.6 94.3502V123.79C47.6 124.17 47.29 124.48 46.91 124.48H35.97C35.59 124.48 35.28 124.17 35.28 123.79V94.3502C35.28 93.9702 35.59 93.6602 35.97 93.6602Z" stroke="#C7C6C5" stroke-width="0.43" stroke-linecap="round" stroke-linejoin="round"/>
<path d="M41.72 94.7402C39.12 94.7402 37.02 97.7602 37.02 101.49C37.02 105.22 39.13 108.24 41.72 108.24C44.31 108.24 46.42 105.21 46.42 101.49C46.42 97.7702 44.32 94.7402 41.72 94.7402Z" stroke="#C7C6C5" stroke-width="0.43" stroke-linecap="round" stroke-linejoin="round"/>
<path d="M36.79 103.78C36.38 103.78 36.05 104.11 36.05 104.52C36.05 104.93 36.38 105.26 36.79 105.26C37.2 105.26 37.53 104.93 37.53 104.52C37.53 104.11 37.2 103.78 36.79 103.78Z" stroke="#C7C6C5" stroke-width="0.43" stroke-linecap="round" stroke-linejoin="round"/>
<path d="M36.79 97.6304C36.38 97.6304 36.05 97.9604 36.05 98.3604C36.05 98.7604 36.38 99.1004 36.79 99.1004C37.2 99.1004 37.53 98.7704 37.53 98.3604C37.53 97.9504 37.2 97.6304 36.79 97.6304Z" stroke="#C7C6C5" stroke-width="0.43" stroke-linecap="round" stroke-linejoin="round"/>
<path d="M39.1 101.07C39.33 101.07 39.52 101.26 39.52 101.49C39.52 101.72 39.33 101.91 39.1 101.91L36.83 102.04C36.53 102.04 36.28 101.79 36.28 101.49C36.28 101.19 36.53 100.94 36.83 100.94L39.1 101.07Z" stroke="#C7C6C5" stroke-width="0.43" stroke-linecap="round" stroke-linejoin="round"/>
<path d="M41.72 109.8C39.12 109.8 37.02 112.82 37.02 116.55C37.02 120.28 39.13 123.3 41.72 123.3C44.31 123.3 46.42 120.28 46.42 116.55C46.42 112.82 44.32 109.8 41.72 109.8Z" stroke="#C7C6C5" stroke-width="0.43" stroke-linecap="round" stroke-linejoin="round"/>
<path d="M36.79 118.84C36.38 118.84 36.05 119.17 36.05 119.58C36.05 119.99 36.38 120.32 36.79 120.32C37.2 120.32 37.53 119.99 37.53 119.58C37.53 119.17 37.2 118.84 36.79 118.84Z" stroke="#C7C6C5" stroke-width="0.43" stroke-linecap="round" stroke-linejoin="round"/>
<path d="M36.79 112.7C36.38 112.7 36.05 113.03 36.05 113.43C36.05 113.83 36.38 114.17 36.79 114.17C37.2 114.17 37.53 113.84 37.53 113.43C37.53 113.02 37.2 112.7 36.79 112.7Z" stroke="#C7C6C5" stroke-width="0.43" stroke-linecap="round" stroke-linejoin="round"/>
<path d="M39.1 116.13C39.33 116.13 39.52 116.32 39.52 116.55C39.52 116.78 39.33 116.97 39.1 116.97L36.83 117.1C36.53 117.1 36.28 116.85 36.28 116.55C36.28 116.25 36.53 116 36.83 116L39.1 116.13Z" stroke="#C7C6C5" stroke-width="0.43" stroke-linecap="round" stroke-linejoin="round"/>
<path d="M47.6 124.48H35.13V136.93H47.6V124.48Z" stroke="#C7C6C5" stroke-width="0.43" stroke-linecap="round" stroke-linejoin="round"/>
<path d="M41.27 133.73C39.6 133.73 38.25 132.38 38.25 130.71C38.25 129.04 39.6 127.69 41.27 127.69C42.94 127.69 44.29 129.04 44.29 130.71C44.29 132.38 42.94 133.73 41.27 133.73Z" stroke="#C7C6C5" stroke-width="0.43" stroke-linecap="round" stroke-linejoin="round"/>
<path d="M41.27 133.73C42.82 133.73 43.72 132.47 43.72 130.92C43.72 129.68 42.71 128.67 41.47 128.67C40.48 128.67 39.67 129.47 39.67 130.47C39.67 131.26 40.31 131.91 41.11 131.91C41.75 131.91 42.26 131.4 42.26 130.76C42.26 130.25 41.85 129.84 41.34 129.84C40.93 129.84 40.6 130.17 40.6 130.58C40.6 130.9 40.86 131.17 41.19 131.17C41.45 131.17 41.66 130.96 41.66 130.7C41.66 130.49 41.49 130.32 41.28 130.32C41.11 130.32 40.98 130.45 40.98 130.62" stroke="#C7C6C5" stroke-width="0.43" stroke-linecap="round" stroke-linejoin="round"/>
<path d="M41.27 131.13C41.5 131.13 41.69 130.94 41.69 130.71C41.69 130.48 41.5 130.29 41.27 130.29C41.04 130.29 40.85 130.48 40.85 130.71C40.85 130.94 41.04 131.13 41.27 131.13Z" fill="#C7C6C5"/>
<path d="M69.39 118.88C71.77 118.88 71.77 120.73 71.77 121.26V136.1C71.77 136.63 71.34 137.06 70.81 137.06H60.99C60.46 137.06 60.03 136.63 60.03 136.1V121.26C60.03 120.73 60.03 118.88 62.41 118.88H69.39Z" stroke="#C7C6C5" stroke-width="0.43" stroke-miterlimit="10"/>
<path d="M68.87 120.97H62.94C62.4264 120.97 62.01 121.386 62.01 121.9V133.38C62.01 133.893 62.4264 134.31 62.94 134.31H68.87C69.3836 134.31 69.8 133.893 69.8 133.38V121.9C69.8 121.386 69.3836 120.97 68.87 120.97Z" stroke="#C7C6C5" stroke-width="0.43" stroke-miterlimit="10"/>
<path d="M64.37 134.31C64.37 133.46 65.06 132.78 65.9 132.78C66.74 132.78 67.43 133.47 67.43 134.31" stroke="#C7C6C5" stroke-width="0.43" stroke-miterlimit="10"/>
<path d="M48.77 44.9202C48.38 44.9202 47.99 44.8602 47.61 44.7502C47.23 44.6302 46.92 44.4802 46.66 44.2702L47.11 43.4602C47.31 43.6302 47.56 43.7602 47.85 43.8602C48.14 43.9602 48.44 44.0102 48.75 44.0102C49.12 44.0102 49.41 43.9302 49.62 43.7802C49.83 43.6302 49.93 43.4202 49.93 43.1602C49.93 42.9002 49.83 42.7002 49.64 42.5502C49.45 42.4002 49.14 42.3302 48.71 42.3302H48.2V41.6202L49.8 39.7202L49.94 40.1102H46.93V39.2402H50.75V39.9402L49.15 41.8402L48.61 41.5202H48.92C49.61 41.5202 50.12 41.6702 50.47 41.9802C50.81 42.2902 50.99 42.6802 50.99 43.1602C50.99 43.4702 50.91 43.7702 50.75 44.0302C50.59 44.3002 50.35 44.5102 50.02 44.6702C49.69 44.8302 49.28 44.9102 48.78 44.9102L48.77 44.9202Z" fill="#12100B"/>
<path d="M51.7 46.0503L52.16 44.2803L52.3 44.8703C52.11 44.8703 51.96 44.8103 51.83 44.7003C51.71 44.5803 51.64 44.4303 51.64 44.2303C51.64 44.0303 51.7 43.8703 51.83 43.7503C51.96 43.6303 52.11 43.5703 52.29 43.5703C52.47 43.5703 52.63 43.6303 52.75 43.7503C52.87 43.8703 52.93 44.0303 52.93 44.2303C52.93 44.2803 52.93 44.3403 52.91 44.4003C52.9 44.4603 52.88 44.5303 52.86 44.6103C52.84 44.6903 52.8 44.7903 52.74 44.9103L52.33 46.0403H51.68L51.7 46.0503Z" fill="#12100B"/>
<path d="M55.45 44.9202C55.06 44.9202 54.67 44.8602 54.29 44.7502C53.91 44.6302 53.6 44.4802 53.34 44.2702L53.79 43.4602C53.99 43.6302 54.24 43.7602 54.53 43.8602C54.82 43.9602 55.12 44.0102 55.43 44.0102C55.8 44.0102 56.09 43.9302 56.3 43.7802C56.51 43.6302 56.61 43.4202 56.61 43.1602C56.61 42.9002 56.51 42.7002 56.32 42.5502C56.13 42.4002 55.82 42.3302 55.39 42.3302H54.88V41.6202L56.48 39.7202L56.62 40.1102H53.61V39.2402H57.43V39.9402L55.83 41.8402L55.29 41.5202H55.6C56.29 41.5202 56.8 41.6702 57.15 41.9802C57.49 42.2902 57.67 42.6802 57.67 43.1602C57.67 43.4702 57.59 43.7702 57.43 44.0302C57.27 44.3002 57.03 44.5102 56.7 44.6702C56.37 44.8302 55.96 44.9102 55.46 44.9102L55.45 44.9202Z" fill="#12100B"/>
<path d="M60.69 44.9202C60.25 44.9202 59.85 44.8102 59.49 44.5802C59.14 44.3602 58.86 44.0302 58.65 43.6002C58.45 43.1702 58.35 42.6502 58.35 42.0402C58.35 41.4302 58.45 40.9102 58.65 40.4802C58.85 40.0502 59.13 39.7202 59.49 39.5002C59.84 39.2802 60.24 39.1602 60.69 39.1602C61.14 39.1602 61.54 39.2702 61.89 39.5002C62.24 39.7202 62.52 40.0502 62.73 40.4802C62.94 40.9102 63.04 41.4302 63.04 42.0402C63.04 42.6502 62.94 43.1702 62.73 43.6002C62.52 44.0302 62.25 44.3602 61.89 44.5802C61.54 44.8002 61.14 44.9202 60.69 44.9202ZM60.69 44.0202C60.95 44.0202 61.18 43.9502 61.37 43.8102C61.56 43.6702 61.71 43.4502 61.82 43.1602C61.93 42.8702 61.98 42.5002 61.98 42.0502C61.98 41.6002 61.93 41.2202 61.82 40.9302C61.71 40.6402 61.56 40.4202 61.37 40.2802C61.18 40.1402 60.95 40.0702 60.69 40.0702C60.43 40.0702 60.22 40.1402 60.02 40.2802C59.82 40.4202 59.67 40.6402 59.56 40.9302C59.45 41.2202 59.4 41.5902 59.4 42.0502C59.4 42.5102 59.45 42.8702 59.56 43.1602C59.67 43.4502 59.82 43.6702 60.02 43.8102C60.21 43.9502 60.44 44.0202 60.69 44.0202Z" fill="#12100B"/>
<path d="M201.19 45.8599V45.1599L203.41 43.0499C203.6 42.8699 203.74 42.7199 203.83 42.5899C203.92 42.4599 203.98 42.3299 204.01 42.2199C204.04 42.0999 204.05 41.9999 204.05 41.8999C204.05 41.6399 203.96 41.4399 203.79 41.2999C203.61 41.1599 203.36 41.0899 203.01 41.0899C202.74 41.0899 202.49 41.1399 202.27 41.2299C202.05 41.3199 201.86 41.4699 201.7 41.6699L200.97 41.1099C201.19 40.8199 201.48 40.5899 201.85 40.4299C202.22 40.2699 202.64 40.1899 203.09 40.1899C203.5 40.1899 203.85 40.2599 204.15 40.3899C204.45 40.5199 204.68 40.7099 204.85 40.9499C205.01 41.1899 205.09 41.4799 205.09 41.8099C205.09 41.9899 205.07 42.1699 205.02 42.3499C204.97 42.5299 204.88 42.7199 204.75 42.9099C204.62 43.1099 204.42 43.3299 204.17 43.5699L202.26 45.3899L202.04 44.9999H205.31V45.8799H201.18L201.19 45.8599Z" fill="#12100B"/>
<path d="M206.04 47.0703L206.5 45.3003L206.64 45.8903C206.45 45.8903 206.3 45.8303 206.17 45.7203C206.05 45.6003 205.98 45.4503 205.98 45.2503C205.98 45.0503 206.04 44.8903 206.17 44.7703C206.3 44.6503 206.45 44.5903 206.63 44.5903C206.81 44.5903 206.97 44.6503 207.09 44.7703C207.21 44.8903 207.27 45.0503 207.27 45.2503C207.27 45.3003 207.27 45.3603 207.25 45.4203C207.24 45.4803 207.22 45.5503 207.2 45.6303C207.18 45.7103 207.14 45.8103 207.08 45.9303L206.67 47.0603H206.02L206.04 47.0703Z" fill="#12100B"/>
<path d="M209.79 45.9403C209.4 45.9403 209.01 45.8803 208.63 45.7703C208.25 45.6503 207.94 45.5003 207.68 45.2903L208.13 44.4803C208.33 44.6503 208.58 44.7803 208.87 44.8803C209.16 44.9803 209.46 45.0303 209.77 45.0303C210.14 45.0303 210.43 44.9503 210.64 44.8003C210.85 44.6503 210.95 44.4403 210.95 44.1803C210.95 43.9203 210.85 43.7203 210.66 43.5703C210.47 43.4203 210.16 43.3503 209.73 43.3503H209.22V42.6403L210.82 40.7403L210.96 41.1303H207.95V40.2603H211.77V40.9603L210.17 42.8603L209.63 42.5403H209.94C210.63 42.5403 211.14 42.6903 211.49 43.0003C211.83 43.3103 212.01 43.7003 212.01 44.1803C212.01 44.4903 211.93 44.7903 211.77 45.0503C211.61 45.3203 211.37 45.5303 211.04 45.6903C210.71 45.8503 210.3 45.9303 209.8 45.9303L209.79 45.9403Z" fill="#12100B"/>
<path d="M214.94 45.9402C214.48 45.9402 214.07 45.8702 213.73 45.7302C213.39 45.5902 213.12 45.4002 212.94 45.1402C212.75 44.8902 212.66 44.5902 212.66 44.2502C212.66 43.9102 212.75 43.6202 212.93 43.3902C213.11 43.1502 213.37 42.9802 213.71 42.8502C214.05 42.7302 214.46 42.6702 214.93 42.6702C215.4 42.6702 215.81 42.7302 216.16 42.8502C216.51 42.9702 216.77 43.1502 216.95 43.3902C217.13 43.6302 217.23 43.9102 217.23 44.2502C217.23 44.5902 217.14 44.8902 216.95 45.1402C216.76 45.3902 216.49 45.5902 216.15 45.7302C215.81 45.8702 215.4 45.9402 214.94 45.9402ZM214.94 43.2102C214.51 43.2102 214.14 43.1502 213.83 43.0402C213.52 42.9302 213.28 42.7602 213.11 42.5402C212.94 42.3202 212.86 42.0502 212.86 41.7402C212.86 41.4302 212.95 41.1402 213.12 40.9102C213.29 40.6802 213.54 40.5002 213.85 40.3702C214.16 40.2402 214.53 40.1802 214.94 40.1802C215.35 40.1802 215.72 40.2402 216.04 40.3702C216.36 40.5002 216.6 40.6802 216.78 40.9102C216.96 41.1402 217.04 41.4202 217.04 41.7402C217.04 42.0602 216.96 42.3202 216.79 42.5402C216.62 42.7602 216.38 42.9302 216.07 43.0402C215.75 43.1602 215.38 43.2102 214.95 43.2102H214.94ZM214.94 45.1202C215.32 45.1202 215.63 45.0402 215.85 44.8802C216.07 44.7202 216.19 44.5002 216.19 44.2202C216.19 43.9402 216.08 43.7202 215.85 43.5602C215.63 43.4002 215.32 43.3202 214.94 43.3202C214.56 43.3202 214.25 43.4002 214.04 43.5602C213.83 43.7202 213.71 43.9402 213.71 44.2202C213.71 44.5002 213.82 44.7202 214.04 44.8802C214.26 45.0402 214.56 45.1202 214.94 45.1202ZM214.94 42.5702C215.27 42.5702 215.53 42.5002 215.72 42.3602C215.91 42.2202 216.01 42.0302 216.01 41.7902C216.01 41.5502 215.91 41.3402 215.71 41.2102C215.51 41.0802 215.25 41.0002 214.93 41.0002C214.61 41.0002 214.35 41.0702 214.16 41.2102C213.97 41.3502 213.87 41.5402 213.87 41.7902C213.87 42.0402 213.96 42.2202 214.15 42.3602C214.34 42.5002 214.6 42.5702 214.92 42.5702H214.94Z" fill="#12100B"/>
<path d="M173.78 99.4696V94.2696L174.24 94.7396H172.6V93.8696H174.82V99.4696H173.78Z" fill="#12100B"/>
<path d="M176.87 99.4699L179.18 94.2899L179.45 94.7499H176.27L176.77 94.2499V95.7099H175.8V93.8799H180.15V94.5799L177.97 99.4799H176.86L176.87 99.4699Z" fill="#12100B"/>
<path d="M180.44 100.68L180.9 98.9097L181.04 99.4997C180.85 99.4997 180.7 99.4397 180.57 99.3297C180.44 99.2097 180.38 99.0597 180.38 98.8597C180.38 98.6597 180.44 98.4997 180.57 98.3797C180.69 98.2597 180.85 98.1997 181.03 98.1997C181.21 98.1997 181.37 98.2597 181.49 98.3797C181.61 98.4997 181.67 98.6597 181.67 98.8597C181.67 98.9097 181.67 98.9697 181.65 99.0297C181.64 99.0897 181.62 99.1597 181.6 99.2397C181.58 99.3197 181.54 99.4197 181.48 99.5397L181.07 100.67H180.42L180.44 100.68Z" fill="#12100B"/>
<path d="M184.24 93.7898C184.75 93.7898 185.19 93.8998 185.55 94.1098C185.91 94.3298 186.19 94.6398 186.38 95.0498C186.57 95.4598 186.67 95.9698 186.67 96.5698C186.67 97.2098 186.55 97.7498 186.32 98.1898C186.09 98.6298 185.77 98.9698 185.36 99.1998C184.95 99.4298 184.47 99.5398 183.93 99.5398C183.65 99.5398 183.38 99.5098 183.12 99.4498C182.86 99.3898 182.64 99.2998 182.46 99.1798L182.84 98.3998C183 98.4998 183.16 98.5698 183.34 98.6098C183.52 98.6498 183.71 98.6698 183.9 98.6698C184.43 98.6698 184.85 98.5098 185.16 98.1798C185.47 97.8498 185.62 97.3798 185.62 96.7398C185.62 96.6398 185.62 96.5198 185.62 96.3798C185.62 96.2398 185.6 96.1098 185.56 95.9698L185.88 96.3198C185.79 96.5398 185.66 96.7198 185.49 96.8698C185.32 97.0198 185.12 97.1298 184.89 97.1998C184.66 97.2698 184.41 97.3098 184.13 97.3098C183.77 97.3098 183.44 97.2398 183.15 97.0998C182.86 96.9598 182.63 96.7598 182.46 96.4998C182.29 96.2398 182.2 95.9398 182.2 95.5898C182.2 95.2198 182.29 94.8998 182.47 94.6298C182.65 94.3598 182.9 94.1498 183.21 93.9998C183.52 93.8498 183.87 93.7798 184.25 93.7798L184.24 93.7898ZM184.3 94.6098C184.09 94.6098 183.9 94.6498 183.73 94.7298C183.56 94.8098 183.44 94.9198 183.34 95.0598C183.25 95.1998 183.2 95.3698 183.2 95.5698C183.2 95.8598 183.3 96.0998 183.5 96.2698C183.7 96.4398 183.97 96.5298 184.32 96.5298C184.54 96.5298 184.74 96.4898 184.91 96.4098C185.08 96.3298 185.21 96.2098 185.31 96.0698C185.41 95.9198 185.45 95.7598 185.45 95.5798C185.45 95.3998 185.41 95.2498 185.31 95.0998C185.22 94.9598 185.09 94.8498 184.92 94.7598C184.75 94.6798 184.54 94.6298 184.29 94.6298L184.3 94.6098Z" fill="#12100B"/>
<path d="M189.05 99.5496C188.66 99.5496 188.27 99.4896 187.89 99.3796C187.51 99.2596 187.2 99.1096 186.94 98.8996L187.39 98.0896C187.59 98.2596 187.84 98.3896 188.13 98.4896C188.42 98.5896 188.72 98.6396 189.03 98.6396C189.4 98.6396 189.69 98.5596 189.9 98.4096C190.11 98.2596 190.21 98.0496 190.21 97.7896C190.21 97.5296 190.11 97.3296 189.92 97.1796C189.73 97.0296 189.42 96.9596 188.99 96.9596H188.48V96.2496L190.08 94.3496L190.22 94.7396H187.21V93.8696H191.03V94.5696L189.43 96.4696L188.89 96.1496H189.2C189.89 96.1496 190.4 96.2996 190.75 96.6096C191.1 96.9196 191.27 97.3096 191.27 97.7896C191.27 98.0996 191.19 98.3996 191.03 98.6596C190.87 98.9196 190.63 99.1396 190.3 99.2996C189.97 99.4596 189.56 99.5396 189.06 99.5396L189.05 99.5496Z" fill="#12100B"/>
<path d="M113.71 137.77V137.07L115.93 134.96C116.12 134.78 116.26 134.63 116.35 134.5C116.44 134.37 116.5 134.24 116.53 134.13C116.56 134.01 116.57 133.91 116.57 133.81C116.57 133.55 116.48 133.35 116.31 133.21C116.13 133.07 115.88 133 115.53 133C115.26 133 115.01 133.05 114.79 133.14C114.57 133.24 114.38 133.38 114.22 133.58L113.49 133.02C113.71 132.73 114 132.5 114.37 132.34C114.74 132.18 115.16 132.1 115.61 132.1C116.02 132.1 116.37 132.17 116.67 132.3C116.97 132.43 117.2 132.62 117.37 132.86C117.53 133.1 117.61 133.39 117.61 133.72C117.61 133.9 117.59 134.08 117.54 134.26C117.49 134.44 117.4 134.63 117.27 134.82C117.14 135.02 116.94 135.24 116.69 135.48L114.78 137.3L114.56 136.91H117.83V137.79H113.7L113.71 137.77Z" fill="#12100B"/>
<path d="M118.56 138.98L119.02 137.21L119.16 137.8C118.97 137.8 118.82 137.74 118.69 137.63C118.56 137.51 118.5 137.36 118.5 137.16C118.5 136.96 118.56 136.8 118.69 136.68C118.81 136.56 118.97 136.5 119.15 136.5C119.33 136.5 119.49 136.56 119.61 136.68C119.73 136.8 119.79 136.96 119.79 137.16C119.79 137.21 119.79 137.27 119.77 137.33C119.76 137.39 119.74 137.46 119.72 137.54C119.7 137.62 119.66 137.72 119.6 137.84L119.19 138.97H118.54L118.56 138.98Z" fill="#12100B"/>
<path d="M121.29 137.77L123.6 132.59L123.87 133.05H120.69L121.19 132.55V134.01H120.22V132.18H124.57V132.88L122.39 137.78H121.28L121.29 137.77Z" fill="#12100B"/>
<path d="M127.11 132.09C127.62 132.09 128.06 132.2 128.42 132.41C128.78 132.63 129.06 132.94 129.25 133.35C129.44 133.76 129.54 134.27 129.54 134.87C129.54 135.51 129.42 136.05 129.19 136.49C128.96 136.93 128.64 137.27 128.23 137.5C127.82 137.73 127.34 137.84 126.8 137.84C126.52 137.84 126.25 137.81 125.99 137.75C125.73 137.69 125.51 137.6 125.33 137.48L125.71 136.7C125.86 136.8 126.03 136.87 126.21 136.91C126.39 136.95 126.58 136.97 126.77 136.97C127.3 136.97 127.72 136.81 128.03 136.48C128.34 136.15 128.49 135.68 128.49 135.04C128.49 134.94 128.49 134.82 128.49 134.68C128.49 134.54 128.47 134.41 128.43 134.27L128.75 134.62C128.66 134.84 128.53 135.02 128.36 135.17C128.19 135.32 127.99 135.43 127.76 135.5C127.53 135.57 127.28 135.61 127 135.61C126.64 135.61 126.31 135.54 126.02 135.4C125.73 135.26 125.5 135.06 125.33 134.8C125.16 134.54 125.07 134.24 125.07 133.89C125.07 133.52 125.16 133.2 125.34 132.93C125.52 132.66 125.77 132.45 126.08 132.3C126.39 132.15 126.74 132.08 127.12 132.08L127.11 132.09ZM127.17 132.91C126.96 132.91 126.77 132.95 126.6 133.03C126.43 133.11 126.31 133.22 126.21 133.36C126.12 133.5 126.07 133.67 126.07 133.87C126.07 134.16 126.17 134.4 126.37 134.57C126.57 134.74 126.84 134.83 127.19 134.83C127.41 134.83 127.61 134.79 127.78 134.71C127.95 134.63 128.08 134.51 128.18 134.37C128.28 134.22 128.32 134.06 128.32 133.88C128.32 133.7 128.27 133.55 128.18 133.4C128.09 133.26 127.96 133.15 127.79 133.06C127.62 132.98 127.41 132.93 127.16 132.93L127.17 132.91Z" fill="#12100B"/>
<path d="M61.59 112.18C61.2 112.18 60.81 112.12 60.43 112.01C60.05 111.89 59.74 111.74 59.48 111.53L59.93 110.72C60.13 110.89 60.38 111.02 60.67 111.12C60.96 111.22 61.26 111.27 61.57 111.27C61.94 111.27 62.23 111.19 62.44 111.04C62.65 110.89 62.75 110.68 62.75 110.42C62.75 110.16 62.65 109.96 62.46 109.81C62.27 109.66 61.96 109.59 61.53 109.59H61.02V108.88L62.62 106.98L62.76 107.37H59.75V106.5H63.57V107.2L61.97 109.1L61.43 108.78H61.74C62.43 108.78 62.94 108.93 63.29 109.24C63.64 109.55 63.81 109.94 63.81 110.42C63.81 110.73 63.73 111.03 63.57 111.29C63.41 111.55 63.17 111.77 62.84 111.93C62.51 112.09 62.1 112.17 61.6 112.17L61.59 112.18Z" fill="#12100B"/>
<path d="M64.52 113.31L64.98 111.54L65.12 112.13C64.93 112.13 64.78 112.07 64.65 111.96C64.52 111.84 64.46 111.69 64.46 111.49C64.46 111.29 64.52 111.13 64.65 111.01C64.77 110.89 64.93 110.83 65.11 110.83C65.29 110.83 65.45 110.89 65.57 111.01C65.69 111.13 65.75 111.29 65.75 111.49C65.75 111.54 65.75 111.6 65.73 111.66C65.72 111.72 65.7 111.79 65.68 111.87C65.66 111.95 65.62 112.05 65.56 112.17L65.15 113.3H64.5L64.52 113.31Z" fill="#12100B"/>
<path d="M67.25 112.1L69.56 106.92L69.83 107.38H66.65L67.15 106.88V108.34H66.18V106.51H70.53V107.21L68.35 112.11H67.24L67.25 112.1Z" fill="#12100B"/>
<path d="M73.36 112.18C72.92 112.18 72.52 112.07 72.16 111.84C71.81 111.62 71.53 111.29 71.32 110.86C71.12 110.43 71.02 109.91 71.02 109.3C71.02 108.69 71.12 108.17 71.32 107.74C71.52 107.31 71.8 106.98 72.16 106.76C72.51 106.54 72.91 106.42 73.36 106.42C73.81 106.42 74.21 106.53 74.56 106.76C74.91 106.98 75.19 107.31 75.4 107.74C75.61 108.17 75.71 108.69 75.71 109.3C75.71 109.91 75.61 110.43 75.4 110.86C75.19 111.29 74.92 111.62 74.56 111.84C74.21 112.06 73.81 112.18 73.36 112.18ZM73.36 111.28C73.62 111.28 73.85 111.21 74.04 111.07C74.23 110.93 74.38 110.71 74.49 110.42C74.6 110.13 74.65 109.76 74.65 109.31C74.65 108.86 74.6 108.48 74.49 108.19C74.38 107.9 74.23 107.68 74.04 107.54C73.85 107.4 73.62 107.33 73.36 107.33C73.1 107.33 72.89 107.4 72.69 107.54C72.49 107.68 72.34 107.9 72.23 108.19C72.12 108.48 72.07 108.85 72.07 109.31C72.07 109.77 72.12 110.13 72.23 110.42C72.34 110.71 72.49 110.93 72.69 111.07C72.88 111.21 73.11 111.28 73.36 111.28Z" fill="#12100B"/>
<path d="M92.83 210.71V205.51L93.29 205.98H91.65V205.11H93.87V210.71H92.83Z" fill="#12100B"/>
<path d="M95.88 210.71V205.51L96.34 205.98H94.7V205.11H96.92V210.71H95.88Z" fill="#12100B"/>
<path d="M98.07 211.92L98.53 210.15L98.67 210.74C98.48 210.74 98.33 210.68 98.2 210.57C98.07 210.45 98.01 210.3 98.01 210.1C98.01 209.9 98.07 209.74 98.2 209.62C98.33 209.5 98.48 209.44 98.66 209.44C98.84 209.44 99 209.5 99.12 209.62C99.24 209.74 99.3 209.9 99.3 210.1C99.3 210.15 99.3 210.21 99.28 210.27C99.27 210.33 99.25 210.4 99.23 210.48C99.21 210.56 99.17 210.66 99.11 210.78L98.7 211.91H98.05L98.07 211.92Z" fill="#12100B"/>
<path d="M101.82 210.79C101.43 210.79 101.04 210.73 100.66 210.62C100.28 210.5 99.97 210.35 99.71 210.14L100.16 209.33C100.36 209.5 100.61 209.63 100.9 209.73C101.19 209.83 101.49 209.88 101.8 209.88C102.17 209.88 102.46 209.8 102.67 209.65C102.88 209.5 102.98 209.29 102.98 209.03C102.98 208.77 102.88 208.57 102.69 208.42C102.5 208.27 102.19 208.2 101.76 208.2H101.25V207.49L102.85 205.59L102.99 205.98H99.98V205.11H103.8V205.81L102.2 207.71L101.66 207.39H101.97C102.66 207.39 103.17 207.54 103.52 207.85C103.86 208.16 104.04 208.55 104.04 209.03C104.04 209.34 103.96 209.64 103.8 209.9C103.64 210.16 103.4 210.38 103.07 210.54C102.74 210.7 102.33 210.78 101.83 210.78L101.82 210.79Z" fill="#12100B"/>
<path d="M105.62 210.71V205.51L106.08 205.98H104.44V205.11H106.66V210.71H105.62Z" fill="#12100B"/>
<path d="M163.92 189.38V184.18L164.38 184.65H162.74V183.78H164.96V189.38H163.92Z" fill="#12100B"/>
<path d="M166 189.38V188.68L168.22 186.57C168.41 186.39 168.55 186.24 168.64 186.11C168.73 185.98 168.79 185.85 168.82 185.74C168.85 185.62 168.86 185.52 168.86 185.42C168.86 185.16 168.77 184.96 168.6 184.82C168.42 184.68 168.17 184.61 167.82 184.61C167.55 184.61 167.3 184.66 167.08 184.75C166.86 184.85 166.67 184.99 166.51 185.19L165.78 184.63C166 184.34 166.29 184.11 166.66 183.95C167.03 183.79 167.45 183.71 167.9 183.71C168.31 183.71 168.66 183.78 168.96 183.91C169.26 184.04 169.49 184.23 169.66 184.47C169.82 184.71 169.9 185 169.9 185.33C169.9 185.51 169.88 185.69 169.83 185.87C169.78 186.05 169.69 186.24 169.56 186.43C169.43 186.63 169.23 186.85 168.98 187.09L167.07 188.91L166.85 188.52H170.12V189.4H165.99L166 189.38Z" fill="#12100B"/>
<path d="M170.85 190.59L171.31 188.82L171.45 189.41C171.26 189.41 171.11 189.35 170.98 189.24C170.85 189.12 170.79 188.97 170.79 188.77C170.79 188.57 170.85 188.41 170.98 188.29C171.1 188.17 171.26 188.11 171.44 188.11C171.62 188.11 171.78 188.17 171.9 188.29C172.02 188.41 172.08 188.57 172.08 188.77C172.08 188.82 172.08 188.88 172.06 188.94C172.05 189 172.03 189.07 172.01 189.15C171.99 189.23 171.95 189.33 171.89 189.45L171.48 190.58H170.83L170.85 190.59Z" fill="#12100B"/>
<path d="M175 189.46C174.56 189.46 174.16 189.35 173.8 189.12C173.44 188.9 173.17 188.57 172.96 188.14C172.76 187.71 172.66 187.19 172.66 186.58C172.66 185.97 172.76 185.45 172.96 185.02C173.16 184.59 173.44 184.26 173.8 184.04C174.15 183.82 174.55 183.7 175 183.7C175.45 183.7 175.85 183.81 176.2 184.04C176.55 184.26 176.83 184.59 177.04 185.02C177.25 185.45 177.35 185.97 177.35 186.58C177.35 187.19 177.25 187.71 177.04 188.14C176.83 188.57 176.56 188.9 176.2 189.12C175.85 189.34 175.45 189.46 175 189.46ZM175 188.56C175.26 188.56 175.49 188.49 175.68 188.35C175.87 188.21 176.02 187.99 176.13 187.7C176.24 187.41 176.29 187.04 176.29 186.59C176.29 186.14 176.24 185.76 176.13 185.47C176.02 185.18 175.87 184.96 175.68 184.82C175.49 184.68 175.26 184.61 175 184.61C174.74 184.61 174.53 184.68 174.33 184.82C174.14 184.96 173.98 185.18 173.87 185.47C173.76 185.76 173.71 186.13 173.71 186.59C173.71 187.05 173.76 187.41 173.87 187.7C173.98 187.99 174.13 188.21 174.33 188.35C174.53 188.49 174.75 188.56 175 188.56Z" fill="#12100B"/>
<path d="M177.97 188.11V187.39L180.73 183.78H181.84L179.12 187.39L178.6 187.23H183.04V188.11H177.97ZM181.04 189.38V188.11L181.07 187.23V186.1H182.05V189.38H181.04Z" fill="#12100B"/>
<path d="M236.69 205.02V199.82L237.15 200.29H235.51V199.42H237.73V205.02H236.69Z" fill="#12100B"/>
<path d="M238.89 206.23L239.35 204.46L239.49 205.05C239.3 205.05 239.15 204.99 239.02 204.88C238.89 204.76 238.83 204.61 238.83 204.41C238.83 204.21 238.89 204.05 239.02 203.93C239.14 203.81 239.3 203.75 239.48 203.75C239.66 203.75 239.82 203.81 239.94 203.93C240.06 204.05 240.12 204.21 240.12 204.41C240.12 204.46 240.12 204.52 240.1 204.58C240.09 204.64 240.07 204.71 240.05 204.79C240.03 204.87 239.99 204.97 239.93 205.09L239.52 206.22H238.87L238.89 206.23Z" fill="#12100B"/>
<path d="M243.13 205.1C242.67 205.1 242.26 205.03 241.92 204.89C241.58 204.75 241.31 204.56 241.13 204.3C240.94 204.05 240.85 203.75 240.85 203.41C240.85 203.07 240.94 202.78 241.12 202.55C241.3 202.31 241.56 202.14 241.9 202.01C242.24 201.89 242.65 201.83 243.12 201.83C243.59 201.83 244 201.89 244.35 202.01C244.7 202.13 244.96 202.31 245.14 202.55C245.32 202.79 245.42 203.07 245.42 203.41C245.42 203.75 245.33 204.05 245.14 204.3C244.95 204.55 244.68 204.75 244.34 204.89C244 205.03 243.59 205.1 243.13 205.1ZM243.13 202.37C242.7 202.37 242.33 202.31 242.02 202.2C241.71 202.09 241.47 201.92 241.3 201.7C241.13 201.48 241.05 201.21 241.05 200.9C241.05 200.59 241.14 200.3 241.31 200.07C241.48 199.84 241.73 199.66 242.04 199.53C242.35 199.4 242.72 199.34 243.13 199.34C243.54 199.34 243.91 199.4 244.23 199.53C244.55 199.66 244.79 199.84 244.97 200.07C245.15 200.3 245.23 200.58 245.23 200.9C245.23 201.22 245.15 201.48 244.98 201.7C244.81 201.92 244.57 202.09 244.26 202.2C243.94 202.32 243.57 202.37 243.14 202.37H243.13ZM243.13 204.28C243.51 204.28 243.82 204.2 244.04 204.04C244.26 203.88 244.38 203.66 244.38 203.38C244.38 203.1 244.27 202.88 244.04 202.72C243.82 202.56 243.51 202.48 243.13 202.48C242.75 202.48 242.44 202.56 242.23 202.72C242.02 202.88 241.9 203.1 241.9 203.38C241.9 203.66 242.01 203.88 242.23 204.04C242.45 204.2 242.75 204.28 243.13 204.28ZM243.13 201.73C243.46 201.73 243.72 201.66 243.91 201.52C244.1 201.38 244.2 201.19 244.2 200.95C244.2 200.71 244.1 200.5 243.9 200.37C243.7 200.24 243.44 200.16 243.12 200.16C242.8 200.16 242.54 200.23 242.35 200.37C242.16 200.51 242.06 200.7 242.06 200.95C242.06 201.2 242.15 201.38 242.34 201.52C242.53 201.66 242.79 201.73 243.11 201.73H243.13Z" fill="#12100B"/>
<path d="M246.02 205.02V204.32L248.24 202.21C248.43 202.03 248.57 201.88 248.66 201.75C248.75 201.62 248.81 201.49 248.84 201.38C248.87 201.26 248.88 201.16 248.88 201.06C248.88 200.8 248.79 200.6 248.62 200.46C248.44 200.32 248.19 200.25 247.84 200.25C247.57 200.25 247.32 200.3 247.1 200.39C246.88 200.48 246.69 200.63 246.53 200.83L245.8 200.27C246.02 199.98 246.31 199.75 246.68 199.59C247.05 199.43 247.47 199.35 247.92 199.35C248.33 199.35 248.68 199.42 248.98 199.55C249.28 199.68 249.51 199.87 249.68 200.11C249.84 200.35 249.92 200.64 249.92 200.97C249.92 201.15 249.9 201.33 249.85 201.51C249.8 201.69 249.71 201.88 249.58 202.07C249.45 202.27 249.25 202.49 249 202.73L247.09 204.55L246.87 204.16H250.14V205.04H246.01L246.02 205.02Z" fill="#12100B"/>
<path d="M105.13 40.0101C104.74 40.0101 104.35 39.9501 103.97 39.8401C103.59 39.7201 103.28 39.5701 103.02 39.3601L103.47 38.5501C103.67 38.7201 103.92 38.8501 104.21 38.9501C104.5 39.0501 104.8 39.1001 105.11 39.1001C105.48 39.1001 105.77 39.0201 105.98 38.8701C106.19 38.7201 106.29 38.5101 106.29 38.2501C106.29 37.9901 106.19 37.7901 106 37.6401C105.81 37.4901 105.5 37.4201 105.07 37.4201H104.56V36.7101L106.16 34.8101L106.3 35.2001H103.29V34.3301H107.11V35.0301L105.51 36.9301L104.97 36.6101H105.28C105.97 36.6101 106.48 36.7601 106.83 37.0701C107.18 37.3801 107.35 37.7701 107.35 38.2501C107.35 38.5601 107.27 38.8601 107.11 39.1201C106.95 39.3801 106.71 39.6001 106.38 39.7601C106.05 39.9201 105.64 40.0001 105.14 40.0001L105.13 40.0101Z" fill="#C43020"/>
<path d="M110.45 40.0098C109.94 40.0098 109.51 39.8998 109.15 39.6898C108.79 39.4698 108.51 39.1598 108.32 38.7498C108.13 38.3398 108.03 37.8298 108.03 37.2298C108.03 36.5898 108.15 36.0498 108.38 35.6098C108.61 35.1698 108.93 34.8298 109.35 34.5998C109.77 34.3698 110.24 34.2598 110.78 34.2598C111.06 34.2598 111.33 34.2898 111.59 34.3498C111.85 34.4098 112.07 34.4998 112.25 34.6198L111.87 35.3998C111.71 35.2998 111.55 35.2298 111.37 35.1898C111.19 35.1498 111 35.1298 110.81 35.1298C110.28 35.1298 109.86 35.2898 109.55 35.6198C109.24 35.9498 109.09 36.4298 109.09 37.0598C109.09 37.1598 109.09 37.2798 109.09 37.4198C109.09 37.5598 109.11 37.6898 109.15 37.8298L108.83 37.4798C108.93 37.2598 109.06 37.0798 109.23 36.9298C109.4 36.7798 109.6 36.6698 109.83 36.5998C110.06 36.5198 110.31 36.4898 110.59 36.4898C110.96 36.4898 111.29 36.5598 111.57 36.6998C111.86 36.8398 112.09 37.0398 112.26 37.2998C112.43 37.5598 112.52 37.8598 112.52 38.2098C112.52 38.5798 112.43 38.8998 112.25 39.1698C112.07 39.4398 111.82 39.6498 111.51 39.7998C111.2 39.9498 110.85 40.0198 110.47 40.0198L110.45 40.0098ZM110.39 39.1898C110.6 39.1898 110.79 39.1498 110.96 39.0698C111.13 38.9898 111.25 38.8798 111.35 38.7398C111.44 38.5998 111.49 38.4298 111.49 38.2398C111.49 37.9498 111.39 37.7198 111.19 37.5398C110.99 37.3698 110.71 37.2798 110.37 37.2798C110.15 37.2798 109.95 37.3198 109.78 37.3998C109.61 37.4798 109.48 37.5998 109.38 37.7398C109.28 37.8798 109.23 38.0498 109.23 38.2398C109.23 38.4098 109.27 38.5698 109.37 38.7098C109.47 38.8498 109.59 38.9698 109.77 39.0498C109.94 39.1398 110.15 39.1798 110.4 39.1798L110.39 39.1898Z" fill="#C43020"/>
<path d="M113.16 41.1402L113.62 39.3702L113.76 39.9602C113.57 39.9602 113.42 39.9002 113.29 39.7902C113.17 39.6702 113.1 39.5202 113.1 39.3202C113.1 39.1202 113.16 38.9602 113.29 38.8402C113.42 38.7202 113.57 38.6602 113.75 38.6602C113.93 38.6602 114.09 38.7202 114.21 38.8402C114.33 38.9602 114.39 39.1202 114.39 39.3202C114.39 39.3702 114.39 39.4302 114.37 39.4902C114.36 39.5502 114.34 39.6202 114.32 39.7002C114.3 39.7802 114.26 39.8802 114.2 40.0002L113.79 41.1302H113.14L113.16 41.1402Z" fill="#C43020"/>
<path d="M117.31 40.01C116.87 40.01 116.47 39.9 116.11 39.67C115.76 39.45 115.48 39.12 115.27 38.69C115.07 38.26 114.97 37.74 114.97 37.13C114.97 36.52 115.07 36 115.27 35.57C115.47 35.14 115.75 34.81 116.11 34.59C116.46 34.37 116.86 34.25 117.31 34.25C117.76 34.25 118.16 34.36 118.51 34.59C118.86 34.81 119.14 35.14 119.35 35.57C119.56 36 119.66 36.52 119.66 37.13C119.66 37.74 119.56 38.26 119.35 38.69C119.14 39.12 118.87 39.45 118.51 39.67C118.16 39.89 117.76 40.01 117.31 40.01ZM117.31 39.11C117.57 39.11 117.8 39.04 117.99 38.9C118.18 38.76 118.33 38.54 118.44 38.25C118.55 37.96 118.6 37.59 118.6 37.14C118.6 36.69 118.55 36.31 118.44 36.02C118.33 35.73 118.18 35.51 117.99 35.37C117.8 35.23 117.57 35.16 117.31 35.16C117.05 35.16 116.84 35.23 116.64 35.37C116.44 35.51 116.29 35.73 116.18 36.02C116.07 36.31 116.02 36.68 116.02 37.14C116.02 37.6 116.07 37.96 116.18 38.25C116.29 38.54 116.44 38.76 116.64 38.9C116.83 39.04 117.06 39.11 117.31 39.11Z" fill="#C43020"/>
<path d="M122.61 40.01C122.15 40.01 121.74 39.94 121.4 39.8C121.06 39.66 120.79 39.47 120.61 39.21C120.42 38.96 120.33 38.66 120.33 38.32C120.33 37.98 120.42 37.69 120.6 37.46C120.78 37.22 121.04 37.05 121.38 36.92C121.72 36.8 122.13 36.74 122.6 36.74C123.07 36.74 123.48 36.8 123.83 36.92C124.18 37.04 124.44 37.22 124.62 37.46C124.8 37.7 124.9 37.98 124.9 38.32C124.9 38.66 124.81 38.96 124.62 39.21C124.43 39.46 124.16 39.66 123.82 39.8C123.48 39.94 123.07 40.01 122.61 40.01ZM122.61 37.28C122.18 37.28 121.81 37.22 121.5 37.11C121.19 37 120.95 36.83 120.78 36.61C120.61 36.39 120.53 36.12 120.53 35.81C120.53 35.5 120.62 35.21 120.79 34.98C120.96 34.75 121.21 34.57 121.52 34.44C121.83 34.31 122.2 34.25 122.61 34.25C123.02 34.25 123.39 34.31 123.71 34.44C124.03 34.57 124.27 34.75 124.45 34.98C124.63 35.21 124.71 35.49 124.71 35.81C124.71 36.13 124.63 36.39 124.46 36.61C124.29 36.83 124.05 37 123.74 37.11C123.42 37.23 123.05 37.28 122.62 37.28H122.61ZM122.61 39.19C122.99 39.19 123.3 39.11 123.52 38.95C123.74 38.79 123.86 38.57 123.86 38.29C123.86 38.01 123.75 37.79 123.52 37.63C123.3 37.47 122.99 37.39 122.61 37.39C122.23 37.39 121.92 37.47 121.71 37.63C121.5 37.79 121.38 38.01 121.38 38.29C121.38 38.57 121.49 38.79 121.71 38.95C121.93 39.11 122.23 39.19 122.61 39.19ZM122.61 36.64C122.94 36.64 123.2 36.57 123.39 36.43C123.58 36.29 123.68 36.1 123.68 35.86C123.68 35.62 123.58 35.41 123.38 35.28C123.18 35.15 122.92 35.07 122.6 35.07C122.28 35.07 122.02 35.14 121.83 35.28C121.64 35.42 121.54 35.61 121.54 35.86C121.54 36.11 121.63 36.29 121.82 36.43C122.01 36.57 122.27 36.64 122.59 36.64H122.61Z" fill="#C43020"/>
<path d="M105.22 49.4595C104.83 49.4595 104.44 49.3996 104.06 49.2896C103.68 49.1696 103.37 49.0196 103.11 48.8096L103.55 47.9995C103.75 48.1695 104 48.2996 104.29 48.3996C104.58 48.4996 104.88 48.5495 105.2 48.5495C105.57 48.5495 105.86 48.4695 106.07 48.3195C106.28 48.1595 106.39 47.9596 106.39 47.6996C106.39 47.5196 106.35 47.3696 106.26 47.2396C106.17 47.1096 106.02 46.9995 105.8 46.9395C105.58 46.8695 105.28 46.8396 104.89 46.8396H103.54L103.83 43.7896H107.12V44.6595H104.22L104.76 44.1595L104.54 46.4395L104 45.9496H105.13C105.68 45.9496 106.13 46.0195 106.47 46.1695C106.81 46.3195 107.06 46.5195 107.21 46.7795C107.37 47.0395 107.45 47.3295 107.45 47.6595C107.45 47.9895 107.37 48.2796 107.21 48.5596C107.05 48.8296 106.81 49.0496 106.48 49.2196C106.15 49.3896 105.74 49.4696 105.24 49.4696L105.22 49.4595Z" fill="#C43020"/>
<path d="M109.76 49.4598C109.37 49.4598 108.98 49.3998 108.6 49.2898C108.22 49.1698 107.91 49.0198 107.65 48.8098L108.1 47.9998C108.3 48.1698 108.55 48.2998 108.84 48.3998C109.13 48.4998 109.43 48.5498 109.74 48.5498C110.11 48.5498 110.4 48.4698 110.61 48.3198C110.82 48.1698 110.92 47.9598 110.92 47.6998C110.92 47.4398 110.82 47.2398 110.63 47.0898C110.44 46.9398 110.13 46.8698 109.7 46.8698H109.19V46.1598L110.79 44.2598L110.93 44.6498H107.92V43.7798H111.74V44.4798L110.14 46.3798L109.6 46.0598H109.91C110.6 46.0598 111.11 46.2098 111.46 46.5198C111.81 46.8298 111.98 47.2198 111.98 47.6998C111.98 48.0098 111.9 48.3098 111.74 48.5698C111.58 48.8298 111.34 49.0498 111.01 49.2098C110.68 49.3698 110.27 49.4498 109.77 49.4498L109.76 49.4598Z" fill="#C43020"/>
<path d="M112.69 50.5899L113.15 48.8199L113.29 49.4099C113.1 49.4099 112.95 49.3499 112.82 49.2399C112.7 49.1199 112.63 48.9699 112.63 48.7699C112.63 48.5699 112.69 48.4099 112.82 48.2899C112.95 48.1699 113.1 48.1099 113.28 48.1099C113.46 48.1099 113.62 48.1699 113.74 48.2899C113.86 48.4099 113.92 48.5699 113.92 48.7699C113.92 48.8199 113.92 48.8799 113.9 48.9399C113.89 48.9999 113.87 49.0699 113.85 49.1499C113.83 49.2299 113.79 49.3299 113.73 49.4499L113.32 50.5799H112.67L112.69 50.5899Z" fill="#C43020"/>
<path d="M114.49 48.1098V47.3898L117.25 43.7798H118.36L115.64 47.3898L115.12 47.2298H119.56V48.1098H114.49ZM117.56 49.3798V48.1098L117.59 47.2298V46.0998H118.57V49.3798H117.56Z" fill="#C43020"/>
<path d="M121.86 49.4595C121.47 49.4595 121.08 49.3996 120.7 49.2896C120.32 49.1696 120.01 49.0196 119.75 48.8096L120.19 47.9995C120.39 48.1695 120.64 48.2996 120.93 48.3996C121.22 48.4996 121.52 48.5495 121.84 48.5495C122.21 48.5495 122.5 48.4695 122.71 48.3195C122.92 48.1595 123.03 47.9596 123.03 47.6996C123.03 47.5196 122.99 47.3696 122.9 47.2396C122.81 47.1096 122.66 46.9995 122.44 46.9395C122.22 46.8695 121.92 46.8396 121.53 46.8396H120.18L120.47 43.7896H123.76V44.6595H120.86L121.4 44.1595L121.18 46.4395L120.64 45.9496H121.77C122.32 45.9496 122.77 46.0195 123.11 46.1695C123.45 46.3195 123.7 46.5195 123.85 46.7795C124.01 47.0395 124.09 47.3295 124.09 47.6595C124.09 47.9895 124.01 48.2796 123.85 48.5596C123.69 48.8296 123.45 49.0496 123.12 49.2196C122.79 49.3896 122.38 49.4696 121.88 49.4696L121.86 49.4595Z" fill="#C43020"/>
<path d="M70.69 51.1599V49.8999L73.93 46.8399C74.19 46.6099 74.37 46.3999 74.49 46.2199C74.61 46.0399 74.69 45.8699 74.74 45.7199C74.78 45.5699 74.81 45.4299 74.81 45.2999C74.81 44.9599 74.7 44.7099 74.47 44.5299C74.24 44.3499 73.91 44.2599 73.47 44.2599C73.12 44.2599 72.79 44.3299 72.49 44.4599C72.19 44.5999 71.94 44.8099 71.73 45.0999L70.31 44.1899C70.63 43.7099 71.08 43.3299 71.65 43.0499C72.22 42.7699 72.89 42.6299 73.64 42.6299C74.26 42.6299 74.81 42.7299 75.28 42.9399C75.75 43.1499 76.11 43.4299 76.37 43.7999C76.63 44.1699 76.76 44.6099 76.76 45.1199C76.76 45.3899 76.73 45.6599 76.66 45.9299C76.59 46.1999 76.46 46.4799 76.25 46.7799C76.05 47.0799 75.75 47.4099 75.36 47.7799L72.67 50.3099L72.3 49.5999H77.04V51.1799H70.69V51.1599Z" fill="#C43020"/>
<path d="M78.43 51.1598V42.7598H85.21V44.3098H80.36V46.0398H82.69C83.71 46.0398 84.48 46.2498 85.01 46.6798C85.54 47.0998 85.81 47.7198 85.81 48.5298C85.81 49.3398 85.51 50.0098 84.92 50.4698C84.33 50.9298 83.49 51.1698 82.41 51.1698H78.43V51.1598ZM80.36 49.7198H82.3C82.8 49.7198 83.18 49.6198 83.44 49.4298C83.7 49.2298 83.84 48.9498 83.84 48.5698C83.84 47.8298 83.33 47.4698 82.3 47.4698H80.36V49.7298V49.7198Z" fill="#C43020"/>
<path d="M86.86 48.5298V47.0298H90.26V48.5298H86.86Z" fill="#C43020"/>
<path d="M92.39 51.1598V43.4798L93.23 44.3198H90.71V42.7598H94.33V51.1598H92.39Z" fill="#C43020"/>
<path d="M105.22 58.5699C104.83 58.5699 104.44 58.5099 104.06 58.3999C103.68 58.2799 103.37 58.1299 103.11 57.9199L103.55 57.1099C103.75 57.2799 104 57.4099 104.29 57.5099C104.58 57.6099 104.88 57.6599 105.2 57.6599C105.57 57.6599 105.86 57.5799 106.07 57.4299C106.28 57.2699 106.39 57.0699 106.39 56.8099C106.39 56.6299 106.35 56.4799 106.26 56.3499C106.17 56.2199 106.02 56.1099 105.8 56.0499C105.58 55.9799 105.28 55.9499 104.89 55.9499H103.54L103.83 52.8999H107.12V53.7699H104.22L104.76 53.2699L104.54 55.5499L104 55.0599H105.13C105.68 55.0599 106.13 55.1299 106.47 55.2799C106.81 55.4299 107.06 55.6299 107.21 55.8899C107.37 56.1499 107.45 56.4399 107.45 56.7699C107.45 57.0999 107.37 57.3899 107.21 57.6699C107.05 57.9399 106.81 58.1599 106.48 58.3299C106.15 58.4999 105.74 58.5799 105.24 58.5799L105.22 58.5699Z" fill="#C43020"/>
<path d="M107.96 57.2201V56.5001L110.72 52.8901H111.83L109.11 56.5001L108.59 56.3401H113.03V57.2201H107.96ZM111.03 58.4901V57.2201L111.06 56.3401V55.2101H112.04V58.4901H111.03Z" fill="#C43020"/>
<path d="M113.67 59.7002L114.13 57.9302L114.27 58.5202C114.08 58.5202 113.93 58.4602 113.8 58.3502C113.68 58.2302 113.61 58.0802 113.61 57.8802C113.61 57.6802 113.67 57.5202 113.8 57.4002C113.93 57.2802 114.08 57.2202 114.26 57.2202C114.44 57.2202 114.6 57.2802 114.72 57.4002C114.84 57.5202 114.9 57.6802 114.9 57.8802C114.9 57.9302 114.9 57.9902 114.88 58.0502C114.87 58.1102 114.85 58.1802 114.83 58.2602C114.81 58.3402 114.77 58.4402 114.71 58.5602L114.3 59.6902H113.65L113.67 59.7002Z" fill="#C43020"/>
<path d="M117.82 58.5701C117.38 58.5701 116.98 58.4601 116.62 58.2301C116.27 58.0101 115.99 57.6801 115.78 57.2501C115.58 56.8201 115.48 56.3001 115.48 55.6901C115.48 55.0801 115.58 54.5601 115.78 54.1301C115.98 53.7001 116.26 53.3701 116.62 53.1501C116.97 52.9301 117.37 52.8101 117.82 52.8101C118.27 52.8101 118.67 52.9201 119.02 53.1501C119.37 53.3701 119.65 53.7001 119.86 54.1301C120.07 54.5601 120.17 55.0801 120.17 55.6901C120.17 56.3001 120.07 56.8201 119.86 57.2501C119.65 57.6801 119.38 58.0101 119.02 58.2301C118.67 58.4501 118.27 58.5701 117.82 58.5701ZM117.82 57.6701C118.08 57.6701 118.31 57.6001 118.5 57.4601C118.69 57.3201 118.84 57.1001 118.95 56.8101C119.06 56.5201 119.11 56.1501 119.11 55.7001C119.11 55.2501 119.06 54.8701 118.95 54.5801C118.84 54.2901 118.69 54.0701 118.5 53.9301C118.31 53.7901 118.08 53.7201 117.82 53.7201C117.56 53.7201 117.35 53.7901 117.15 53.9301C116.95 54.0701 116.8 54.2901 116.69 54.5801C116.58 54.8701 116.53 55.2401 116.53 55.7001C116.53 56.1601 116.58 56.5201 116.69 56.8101C116.8 57.1001 116.95 57.3201 117.15 57.4601C117.34 57.6001 117.57 57.6701 117.82 57.6701Z" fill="#C43020"/>
<path d="M123.21 58.5701C122.77 58.5701 122.37 58.4601 122.01 58.2301C121.65 58.0101 121.38 57.6801 121.17 57.2501C120.97 56.8201 120.87 56.3001 120.87 55.6901C120.87 55.0801 120.97 54.5601 121.17 54.1301C121.37 53.7001 121.65 53.3701 122.01 53.1501C122.36 52.9301 122.76 52.8101 123.21 52.8101C123.66 52.8101 124.06 52.9201 124.41 53.1501C124.76 53.3701 125.04 53.7001 125.25 54.1301C125.46 54.5601 125.56 55.0801 125.56 55.6901C125.56 56.3001 125.46 56.8201 125.25 57.2501C125.04 57.6801 124.77 58.0101 124.41 58.2301C124.06 58.4501 123.66 58.5701 123.21 58.5701ZM123.21 57.6701C123.47 57.6701 123.7 57.6001 123.89 57.4601C124.08 57.3201 124.23 57.1001 124.34 56.8101C124.45 56.5201 124.5 56.1501 124.5 55.7001C124.5 55.2501 124.45 54.8701 124.34 54.5801C124.23 54.2901 124.08 54.0701 123.89 53.9301C123.7 53.7901 123.47 53.7201 123.21 53.7201C122.95 53.7201 122.74 53.7901 122.54 53.9301C122.35 54.0701 122.19 54.2901 122.08 54.5801C121.97 54.8701 121.92 55.2401 121.92 55.7001C121.92 56.1601 121.97 56.5201 122.08 56.8101C122.19 57.1001 122.34 57.3201 122.54 57.4601C122.74 57.6001 122.96 57.6701 123.21 57.6701Z" fill="#C43020"/>
<path d="M98.58 62.0298V29.8198" stroke="#C43020" stroke-width="0.71" stroke-miterlimit="10"/>
<path d="M233.92 0.5H231.16V12.86H233.92V0.5Z" fill="#511F19"/>
<path d="M233.91 0.5H224.07V11.06H233.91V0.5Z" fill="#511F19"/>
<path d="M233.92 68.4199H231.16V97.8199H233.92V68.4199Z" fill="#511F19"/>
<path d="M233.91 70.3398H224.07V95.8998H233.91V70.3398Z" fill="#511F19"/>
<path d="M233.92 122.06H231.16V173.66H233.92V122.06Z" fill="#511F19"/>
<path d="M233.91 123.86H224.07V171.86H233.91V123.86Z" fill="#511F19"/>
<path d="M233.91 261.86H109.47V264.62H233.91V261.86Z" fill="#511F19"/>
<path d="M233.92 229.22H231.16V264.62H233.92V229.22Z" fill="#511F19"/>
<path d="M231.15 254.78H111.27V264.62H231.15V254.78Z" fill="#511F19"/>
<path d="M42.63 261.86H28.23V264.62H42.63V261.86Z" fill="#511F19"/>
<path d="M40.71 254.78H28.23V264.62H40.71V254.78Z" fill="#511F19"/>
<path d="M233.91 231.02H224.07V264.62H233.91V231.02Z" fill="#511F19"/>
<path d="M224.77 0.5H28.23V7.58H224.77V0.5Z" fill="#511F19"/>
<path d="M195.64 4.93994H192.16V41.4199H195.64V4.93994Z" fill="#511F19"/>
<path d="M225.69 77.8999H192.16V80.1799H225.69V77.8999Z" fill="#511F19"/>
<path d="M35.19 0.5H28.23V29.3H35.19V0.5Z" fill="#511F19"/>
<path d="M30.51 27.8599H28.23V30.8599H30.51V27.8599Z" fill="#511F19"/>
<path d="M30.51 58.7598H28.23V61.7598H30.51V58.7598Z" fill="#511F19"/>
<path d="M87.04 5H84.76V32.06H87.04V5Z" fill="#511F19"/>
<path d="M225.27 142.22H152.79V157.7H225.27V142.22Z" fill="#511F19"/>
<path d="M155.07 115.34H152.79V147.98H155.07V115.34Z" fill="#511F19"/>
<path d="M155.07 115.34H118.47V122.3H155.07V115.34Z" fill="#511F19"/>
<path d="M127.11 155.54H115.47V157.7H127.11V155.54Z" fill="#511F19"/>
<path d="M123.15 155.54H120.87V257.24H123.15V155.54Z" fill="#511F19"/>
<path d="M35.19 60.2598H28.23V256.64H35.19V60.2598Z" fill="#511F19"/>
<path d="M87.03 60.2598H28.23V75.1398H87.03V60.2598Z" fill="#511F19"/>
<path d="M87.04 60.2598H84.76V96.3798H87.04V60.2598Z" fill="#511F19"/>
<path d="M87.03 137.06H34.23V139.46H87.03V137.06Z" fill="#511F19"/>
<path d="M87.04 119.3H84.76V157.7H87.04V119.3Z" fill="#511F19"/>
<path d="M89.8 155.54H84.76V157.7H89.8V155.54Z" fill="#511F19"/>
<path d="M28.23 58.7603H0.22" stroke="#511F19" stroke-width="0.85" stroke-miterlimit="10"/>
<path d="M0.22 58.7602C0.22 43.2902 12.76 30.7402 28.24 30.7402" stroke="#511F19" stroke-width="0.43" stroke-miterlimit="10"/>
<path d="M42.51 261.86H109.35" stroke="#511F19" stroke-width="0.43" stroke-miterlimit="10"/>
<path d="M40.72 260.2H111.27" stroke="#511F19" stroke-width="0.43" stroke-miterlimit="10"/>
<path d="M40.72 254.78H111.27" stroke="#511F19" stroke-width="0.43" stroke-miterlimit="10"/>
<path d="M231.16 68.4199V12.8599" stroke="#511F19" stroke-width="0.43" stroke-miterlimit="10"/>
<path d="M224.07 70.3401V11.0601" stroke="#511F19" stroke-width="0.43" stroke-miterlimit="10"/>
<path d="M229.47 70.3401V11.0601" stroke="#511F19" stroke-width="0.43" stroke-miterlimit="10"/>
<path d="M231.16 122.06V97.8198" stroke="#511F19" stroke-width="0.43" stroke-miterlimit="10"/>
<path d="M224.07 123.86V95.9102" stroke="#511F19" stroke-width="0.43" stroke-miterlimit="10"/>
<path d="M229.47 123.86V95.9102" stroke="#511F19" stroke-width="0.43" stroke-miterlimit="10"/>
<path d="M192.81 41.4199V49.8199" stroke="#511F19" stroke-width="0.43" stroke-miterlimit="10"/>
<path d="M193.89 41.4199V49.8199" stroke="#511F19" stroke-width="0.43" stroke-miterlimit="10"/>
<path d="M194.98 41.4199V49.8199" stroke="#511F19" stroke-width="0.43" stroke-miterlimit="10"/>
<path d="M192.81 49.8198H194.98" stroke="#511F19" stroke-width="0.43" stroke-miterlimit="10"/>
<path d="M192.81 77.9V69.5" stroke="#511F19" stroke-width="0.43" stroke-miterlimit="10"/>
<path d="M193.89 77.9V69.5" stroke="#511F19" stroke-width="0.43" stroke-miterlimit="10"/>
<path d="M194.98 77.9V69.5" stroke="#511F19" stroke-width="0.43" stroke-miterlimit="10"/>
<path d="M192.81 69.5H194.98" stroke="#511F19" stroke-width="0.43" stroke-miterlimit="10"/>
<path d="M85.89 95.8701L94.44 114.26" stroke="#511F19" stroke-width="0.85" stroke-miterlimit="10"/>
<path d="M89.79 156.78L111.19 165.84" stroke="#511F19" stroke-width="0.85" stroke-miterlimit="10"/>
<path d="M153.16 156.78L131.77 165.84" stroke="#511F19" stroke-width="0.85" stroke-miterlimit="10"/>
<path d="M231.16 229.22V194.46" stroke="#511F19" stroke-width="0.43" stroke-miterlimit="10"/>
<path d="M224.07 231.02V194.46" stroke="#511F19" stroke-width="0.43" stroke-miterlimit="10"/>
<path d="M229.47 231.02V194.46" stroke="#511F19" stroke-width="0.43" stroke-miterlimit="10"/>
<path d="M224.07 194.46H231.16" stroke="#511F19" stroke-width="0.43" stroke-miterlimit="10"/>
<path d="M233.91 165.64H254.38V237.97H233.93" stroke="#511F19" stroke-width="0.43" stroke-miterlimit="10"/>
<path d="M233.91 163.72H256.32V239.89H233.94" stroke="#511F19" stroke-width="0.43" stroke-miterlimit="10"/>
<path d="M228.48 192.66H226.93V194.45H228.48V192.66Z" fill="#511F19"/>
<path d="M228.48 171.87H226.93V173.66H228.48V171.87Z" fill="#511F19"/>
<path d="M226.91 173.66H207.91" stroke="#511F19" stroke-width="0.85" stroke-miterlimit="10"/>
<path d="M207.91 173.66C207.91 184.16 216.42 192.66 226.91 192.66" stroke="#511F19" stroke-width="0.43" stroke-miterlimit="10"/>
<path d="M194.51 49.8198H193.16V51.3798H194.51V49.8198Z" fill="#511F19"/>
<path d="M194.51 67.98H193.16V69.54H194.51V67.98Z" fill="#511F19"/>
<path d="M193.16 67.9795H176.56" stroke="#511F19" stroke-width="0.85" stroke-miterlimit="10"/>
<path d="M176.56 67.9797C176.56 58.8197 183.99 51.3896 193.15 51.3896" stroke="#511F19" stroke-width="0.43" stroke-miterlimit="10"/>
</g>
<defs>
<clipPath id="clip0_2024_4494">
<rect width="256.54" height="264.12" fill="white" transform="translate(0 0.5)"/>
</clipPath>
</defs>
</svg>
