<svg width="230" height="221" viewBox="0 0 230 221" fill="none" xmlns="http://www.w3.org/2000/svg">
<g clip-path="url(#clip0_2024_6953)">
<path d="M194.16 165.36H176.56V213.6H194.16V165.36Z" stroke="#C7C6C5" stroke-width="0.43" stroke-miterlimit="10"/>
<path d="M88.96 98.3701H38.66V109.42H88.96V98.3701Z" stroke="#C7C6C5" stroke-width="0.43" stroke-miterlimit="10"/>
<path d="M88.96 98.3701H38.66V109.42H88.96V98.3701Z" stroke="#C7C6C5" stroke-width="0.43" stroke-miterlimit="10"/>
<path d="M58.19 103.59L51.28 100.47L50.97 101.16L60.59 106.95V107.66C60.59 107.66 60.62 108.22 61.15 108.22H66.46C66.99 108.22 67.02 107.66 67.02 107.66V106.95L76.64 101.16L76.33 100.47L69.42 103.59H58.17H58.19Z" stroke="#C7C6C5" stroke-width="0.43" stroke-miterlimit="10"/>
<path d="M58.19 103.59L51.28 100.47L50.97 101.16L60.59 106.95V107.66C60.59 107.66 60.62 108.22 61.15 108.22H66.46C66.99 108.22 67.02 107.66 67.02 107.66V106.95L76.64 101.16L76.33 100.47L69.42 103.59H58.17H58.19Z" stroke="#C7C6C5" stroke-width="0.43" stroke-miterlimit="10"/>
<path d="M84.16 103.59H43.47V104.53H84.16V103.59Z" stroke="#C7C6C5" stroke-width="0.43" stroke-miterlimit="10"/>
<path d="M84.16 103.59H43.47V104.53H84.16V103.59Z" stroke="#C7C6C5" stroke-width="0.43" stroke-miterlimit="10"/>
<path d="M72.3 104.52C71.21 104.52 71.3 105.49 70.08 105.49H57.55C56.33 105.49 56.43 104.52 55.33 104.52H72.3Z" stroke="#C7C6C5" stroke-width="0.43" stroke-miterlimit="10"/>
<path d="M72.3 104.52C71.21 104.52 71.3 105.49 70.08 105.49H57.55C56.33 105.49 56.43 104.52 55.33 104.52H72.3Z" stroke="#C7C6C5" stroke-width="0.43" stroke-miterlimit="10"/>
<path d="M121.41 111.66H52.32V122.71H121.41V111.66Z" stroke="#C7C6C5" stroke-width="0.43" stroke-linecap="round" stroke-linejoin="round"/>
<path d="M92.49 117.49L99.4 120.61L99.71 119.92L90.09 114.13V113.42C90.09 113.42 90.06 112.86 89.53 112.86H84.22C83.69 112.86 83.66 113.42 83.66 113.42V114.13L74.04 119.92L74.35 120.61L81.26 117.49H92.51H92.49Z" stroke="#C7C6C5" stroke-width="0.43" stroke-miterlimit="10"/>
<path d="M92.49 117.49L99.4 120.61L99.71 119.92L90.09 114.13V113.42C90.09 113.42 90.06 112.86 89.53 112.86H84.22C83.69 112.86 83.66 113.42 83.66 113.42V114.13L74.04 119.92L74.35 120.61L81.26 117.49H92.51H92.49Z" stroke="#C7C6C5" stroke-width="0.43" stroke-miterlimit="10"/>
<path d="M107.21 116.56H66.52V117.5H107.21V116.56Z" stroke="#C7C6C5" stroke-width="0.43" stroke-miterlimit="10"/>
<path d="M107.21 116.56H66.52V117.5H107.21V116.56Z" stroke="#C7C6C5" stroke-width="0.43" stroke-miterlimit="10"/>
<path d="M78.38 116.56C79.47 116.56 79.38 115.59 80.6 115.59H93.13C94.35 115.59 94.25 116.56 95.35 116.56H78.38Z" stroke="#C7C6C5" stroke-width="0.43" stroke-miterlimit="10"/>
<path d="M78.38 116.56C79.47 116.56 79.38 115.59 80.6 115.59H93.13C94.35 115.59 94.25 116.56 95.35 116.56H78.38Z" stroke="#C7C6C5" stroke-width="0.43" stroke-miterlimit="10"/>
<path d="M162.26 46.7801C162.26 52.1901 166.66 56.6001 172.08 56.6001C177.5 56.6001 181.9 52.2001 181.9 46.7801V17.4001C181.9 11.9901 177.5 7.58008 172.08 7.58008C166.66 7.58008 162.26 11.9801 162.26 17.4001V46.7801Z" stroke="#C7C6C5" stroke-width="0.43" stroke-linecap="round" stroke-linejoin="round"/>
<path d="M164.11 46.5502C164.11 50.9402 167.68 54.5102 172.07 54.5102C176.46 54.5102 180.03 50.9402 180.03 46.5502V17.4002C180.03 13.0102 176.46 9.44019 172.07 9.44019C167.68 9.44019 164.11 13.0102 164.11 17.4002V46.5502Z" stroke="#C7C6C5" stroke-width="0.43" stroke-linecap="round" stroke-linejoin="round"/>
<path d="M172.07 14.9202C170.13 14.9202 168.55 16.4902 168.55 18.4402V44.3302C168.55 46.2702 170.12 47.8502 172.07 47.8502C174.01 47.8502 175.59 46.2802 175.59 44.3302V18.4402C175.59 16.5002 174.02 14.9202 172.07 14.9202Z" stroke="#C7C6C5" stroke-width="0.43" stroke-linecap="round" stroke-linejoin="round"/>
<path d="M179.16 30.47C178.91 30.47 178.72 30.88 178.72 31.39C178.72 31.9 178.92 32.3 179.16 32.3C179.4 32.3 179.6 31.89 179.6 31.39C179.6 30.89 179.4 30.47 179.16 30.47Z" stroke="#C7C6C5" stroke-width="0.43" stroke-linecap="round" stroke-linejoin="round"/>
<path d="M40.87 25.1499H30.43C30.0379 25.1499 29.72 25.4678 29.72 25.8599V36.2999C29.72 36.692 30.0379 37.0099 30.43 37.0099H40.87C41.2621 37.0099 41.58 36.692 41.58 36.2999V25.8599C41.58 25.4678 41.2621 25.1499 40.87 25.1499Z" stroke="#C7C6C5" stroke-width="0.43" stroke-linecap="round" stroke-linejoin="round"/>
<path d="M97.2 25.1499H86.76C86.3679 25.1499 86.05 25.4678 86.05 25.8599V36.2999C86.05 36.692 86.3679 37.0099 86.76 37.0099H97.2C97.5921 37.0099 97.91 36.692 97.91 36.2999V25.8599C97.91 25.4678 97.5921 25.1499 97.2 25.1499Z" stroke="#C7C6C5" stroke-width="0.43" stroke-linecap="round" stroke-linejoin="round"/>
<path d="M42.5 26.9899C42.5 26.9899 42.47 25.8599 43.63 25.8599H83.99C85.17 25.8599 85.12 26.9899 85.12 26.9899V76.9399C85.12 76.9399 85.15 78.0699 83.99 78.0699H43.63C42.45 78.0699 42.5 76.9399 42.5 76.9399V26.9899Z" stroke="#C7C6C5" stroke-width="0.43" stroke-miterlimit="10"/>
<path d="M62 27.6699H45.75C45.2143 27.6699 44.78 28.1042 44.78 28.6399V38.4499C44.78 38.9856 45.2143 39.4199 45.75 39.4199H62C62.5357 39.4199 62.97 38.9856 62.97 38.4499V28.6399C62.97 28.1042 62.5357 27.6699 62 27.6699Z" stroke="#C7C6C5" stroke-width="0.43" stroke-miterlimit="10"/>
<path d="M81.89 27.6699H65.64C65.1043 27.6699 64.67 28.1042 64.67 28.6399V38.4499C64.67 38.9856 65.1043 39.4199 65.64 39.4199H81.89C82.4257 39.4199 82.86 38.9856 82.86 38.4499V28.6399C82.86 28.1042 82.4257 27.6699 81.89 27.6699Z" stroke="#C7C6C5" stroke-width="0.43" stroke-miterlimit="10"/>
<path d="M42.5 40.5698H85.13" stroke="#C7C6C5" stroke-width="0.43" stroke-miterlimit="10"/>
<path d="M85.13 31.2299C84.41 31.2299 84.42 30.3799 84.42 30.3799V26.9799C84.42 26.8899 84.4 26.7199 84.32 26.6399C84.25 26.5699 84.11 26.5499 84 26.5499H43.64C43.49 26.5499 43.39 26.5799 43.33 26.6399C43.24 26.7399 43.22 26.9399 43.22 26.9599V30.3699C43.22 30.3699 43.25 31.2199 42.51 31.2199C41.77 31.2199 41.8 30.3699 41.8 30.3699V26.9799C41.8 26.8499 41.82 26.4399 42.04 26.0299C42.35 25.4499 42.92 25.1399 43.64 25.1399H84C84.7 25.1399 85.12 25.4299 85.35 25.6699C85.86 26.2099 85.85 26.9299 85.84 27.0199V30.3899C85.84 30.3899 85.86 31.2399 85.13 31.2399V31.2299Z" stroke="#C7C6C5" stroke-width="0.43" stroke-miterlimit="10"/>
<path d="M42.5 30.3799V26.9799C42.5 26.9799 42.47 25.8499 43.63 25.8499H83.99C85.17 25.8499 85.12 26.9799 85.12 26.9799V30.3799" stroke="#C7C6C5" stroke-width="0.43" stroke-miterlimit="10" stroke-linecap="round"/>
<path d="M138.23 42.34C138.23 44.72 136.38 44.72 135.85 44.72H121.01C120.48 44.72 120.04 44.29 120.04 43.75V33.93C120.04 33.4 120.47 32.96 121.01 32.96H135.85C136.38 32.96 138.23 32.96 138.23 35.34V42.33V42.34Z" stroke="#C7C6C5" stroke-width="0.43" stroke-miterlimit="10"/>
<path d="M123.72 34.95H135.21C135.72 34.95 136.14 35.37 136.14 35.88V41.81C136.14 42.32 135.72 42.74 135.21 42.74H123.72C123.21 42.74 122.79 42.32 122.79 41.81V35.88C122.79 35.37 123.21 34.95 123.72 34.95Z" stroke="#C7C6C5" stroke-width="0.43" stroke-miterlimit="10"/>
<path d="M122.8 37.3101C123.65 37.3101 124.33 38.0001 124.33 38.8401C124.33 39.6801 123.64 40.3701 122.8 40.3701" stroke="#C7C6C5" stroke-width="0.43" stroke-miterlimit="10"/>
<path d="M194.16 97.54H154.16V115.19H194.16V97.54Z" stroke="#C7C6C5" stroke-width="0.43" stroke-linecap="round" stroke-linejoin="round"/>
<path d="M174.47 102.1C174.47 100.9 172.7 100.92 172.7 102.1C172.7 102.98 173.58 102.74 173.58 103.54" stroke="#C7C6C5" stroke-width="0.43" stroke-linecap="round" stroke-linejoin="round"/>
<path d="M173.59 103.54L179.54 105.54C179.54 105.54 180.09 105.75 180.01 106.35C179.93 106.95 179.37 106.88 179.37 106.88H167.82C167.82 106.88 167.26 106.95 167.18 106.35C167.1 105.75 167.65 105.54 167.65 105.54L173.6 103.54H173.59Z" stroke="#C7C6C5" stroke-width="0.43" stroke-linecap="round" stroke-linejoin="round"/>
<path d="M181.92 106.32H192.94" stroke="#C7C6C5" stroke-width="0.43" stroke-linecap="round" stroke-linejoin="round"/>
<path d="M154.96 106.32H165.22" stroke="#C7C6C5" stroke-width="0.43" stroke-linecap="round" stroke-linejoin="round"/>
<path d="M117.56 7.5H10.43V25.15H117.56V7.5Z" stroke="#C7C6C5" stroke-width="0.43" stroke-linecap="round" stroke-linejoin="round"/>
<path d="M64.84 12.06C64.84 10.86 63.07 10.88 63.07 12.06C63.07 12.94 63.95 12.7 63.95 13.5" stroke="#C7C6C5" stroke-width="0.43" stroke-linecap="round" stroke-linejoin="round"/>
<path d="M63.96 13.5L69.91 15.5C69.91 15.5 70.46 15.71 70.38 16.31C70.3 16.91 69.74 16.84 69.74 16.84H58.19C58.19 16.84 57.63 16.91 57.55 16.31C57.47 15.71 58.02 15.5 58.02 15.5L63.97 13.5H63.96Z" stroke="#C7C6C5" stroke-width="0.43" stroke-linecap="round" stroke-linejoin="round"/>
<path d="M72.29 16.28H116.34" stroke="#C7C6C5" stroke-width="0.43" stroke-linecap="round" stroke-linejoin="round"/>
<path d="M11.23 16.28H55.59" stroke="#C7C6C5" stroke-width="0.43" stroke-linecap="round" stroke-linejoin="round"/>
<path d="M168.89 130.14H151.92V147.74H168.89V130.14Z" stroke="#C7C6C5" stroke-width="0.43" stroke-miterlimit="10"/>
<path d="M159.12 140.5L161.87 137.75" stroke="#C7C6C5" stroke-width="0.43" stroke-miterlimit="10" stroke-linecap="round"/>
<path d="M159.12 137.75L161.87 140.5" stroke="#C7C6C5" stroke-width="0.43" stroke-miterlimit="10" stroke-linecap="round"/>
<path d="M160.49 135.87V142.37" stroke="#C7C6C5" stroke-width="0.43" stroke-miterlimit="10" stroke-linecap="round"/>
<path d="M163.74 139.12H157.24" stroke="#C7C6C5" stroke-width="0.43" stroke-miterlimit="10" stroke-linecap="round"/>
<path d="M143.05 198.89C143.05 198.89 143.95 198.2 144.55 198.2C144.94 198.2 146.11 198.95 146.11 204.09C146.11 209.23 144.94 209.98 144.55 209.98C143.72 209.98 143.06 209.29 143.06 209.29" stroke="#C7C6C5" stroke-width="0.43" stroke-miterlimit="10"/>
<path d="M133.91 209.98C133.52 209.98 133.2 209.66 133.2 209.27V198.91C133.2 198.52 133.52 198.2 133.91 198.2H142.27C142.66 198.2 143.83 198.95 143.83 204.09C143.83 209.23 142.66 209.98 142.27 209.98H133.9H133.91Z" stroke="#C7C6C5" stroke-width="0.43" stroke-miterlimit="10"/>
<path d="M128 170.54C128 170.54 127.85 169.42 127.43 168.99C127.15 168.71 125.8 168.42 122.16 172.05C118.52 175.68 118.82 177.04 119.1 177.32C119.69 177.91 120.64 177.89 120.64 177.89" stroke="#C7C6C5" stroke-width="0.43" stroke-miterlimit="10"/>
<path d="M126.62 184.85C126.9 185.13 127.34 185.13 127.62 184.85L134.95 177.52C135.23 177.24 135.23 176.8 134.95 176.52L129.04 170.61C128.76 170.33 127.41 170.04 123.77 173.67C120.13 177.3 120.43 178.66 120.71 178.94L126.63 184.85H126.62Z" stroke="#C7C6C5" stroke-width="0.43" stroke-miterlimit="10"/>
<path d="M143.05 184.26C143.05 184.26 143.95 183.57 144.55 183.57C144.94 183.57 146.11 184.32 146.11 189.46C146.11 194.6 144.94 195.35 144.55 195.35C143.72 195.35 143.06 194.66 143.06 194.66" stroke="#C7C6C5" stroke-width="0.43" stroke-miterlimit="10"/>
<path d="M133.91 195.35C133.52 195.35 133.2 195.03 133.2 194.64V184.28C133.2 183.89 133.52 183.57 133.91 183.57H142.27C142.66 183.57 143.83 184.32 143.83 189.46C143.83 194.6 142.66 195.35 142.27 195.35H133.9H133.91Z" stroke="#C7C6C5" stroke-width="0.43" stroke-miterlimit="10"/>
<path d="M112.13 198.89C112.13 198.89 111.23 198.2 110.63 198.2C110.24 198.2 109.07 198.95 109.07 204.09C109.07 209.23 110.24 209.98 110.63 209.98C111.46 209.98 112.12 209.29 112.12 209.29" stroke="#C7C6C5" stroke-width="0.43" stroke-miterlimit="10"/>
<path d="M121.27 209.98C121.66 209.98 121.98 209.66 121.98 209.27V198.91C121.98 198.52 121.66 198.2 121.27 198.2H112.91C112.52 198.2 111.35 198.95 111.35 204.09C111.35 209.23 112.52 209.98 112.91 209.98H121.28H121.27Z" stroke="#C7C6C5" stroke-width="0.43" stroke-miterlimit="10"/>
<path d="M112.13 184.26C112.13 184.26 111.23 183.57 110.63 183.57C110.24 183.57 109.07 184.32 109.07 189.46C109.07 194.6 110.24 195.35 110.63 195.35C111.46 195.35 112.12 194.66 112.12 194.66" stroke="#C7C6C5" stroke-width="0.43" stroke-miterlimit="10"/>
<path d="M121.27 195.35C121.66 195.35 121.98 195.03 121.98 194.64V184.28C121.98 183.89 121.66 183.57 121.27 183.57H112.91C112.52 183.57 111.35 184.32 111.35 189.46C111.35 194.6 112.52 195.35 112.91 195.35H121.28H121.27Z" stroke="#C7C6C5" stroke-width="0.43" stroke-miterlimit="10"/>
<path d="M138.69 179.95H116.16V213.6H138.69V179.95Z" stroke="#C7C6C5" stroke-width="0.43" stroke-miterlimit="10"/>
<path d="M140.27 7.59009H161.55C161.94 7.59009 162.26 7.91009 162.26 8.30009V19.5201C162.26 19.9101 161.94 20.2301 161.55 20.2301H140.27C139.88 20.2301 139.56 19.9101 139.56 19.5201V8.30009C139.56 7.91009 139.88 7.59009 140.27 7.59009Z" stroke="#C7C6C5" stroke-width="0.43" stroke-linecap="round" stroke-linejoin="round"/>
<path d="M141.65 14.1901C141.65 11.5301 145.81 9.37012 150.94 9.37012C156.07 9.37012 160.23 11.5301 160.23 14.1901C160.23 16.8501 156.07 19.0101 150.94 19.0101C145.81 19.0101 141.65 16.8501 141.65 14.1901Z" stroke="#C7C6C5" stroke-width="0.43" stroke-miterlimit="10"/>
<path d="M141.65 14.1901C141.65 11.5301 145.81 9.37012 150.94 9.37012C156.07 9.37012 160.23 11.5301 160.23 14.1901C160.23 16.8501 156.07 19.0101 150.94 19.0101C145.81 19.0101 141.65 16.8501 141.65 14.1901Z" stroke="#C7C6C5" stroke-width="0.43" stroke-linecap="round" stroke-linejoin="round"/>
<path d="M153.28 9.13013C153.28 8.71013 153.62 8.38013 154.03 8.38013C154.44 8.38013 154.78 8.72013 154.78 9.13013C154.78 9.54013 154.44 9.88013 154.03 9.88013C153.62 9.88013 153.28 9.54013 153.28 9.13013Z" stroke="#C7C6C5" stroke-width="0.43" stroke-miterlimit="10"/>
<path d="M154.04 9.88013C154.454 9.88013 154.79 9.54434 154.79 9.13013C154.79 8.71591 154.454 8.38013 154.04 8.38013C153.626 8.38013 153.29 8.71591 153.29 9.13013C153.29 9.54434 153.626 9.88013 154.04 9.88013Z" stroke="#C7C6C5" stroke-width="0.43" stroke-linecap="round" stroke-linejoin="round"/>
<path d="M146.98 9.13013C146.98 8.71013 147.32 8.38013 147.73 8.38013C148.14 8.38013 148.48 8.72013 148.48 9.13013C148.48 9.54013 148.14 9.88013 147.73 9.88013C147.32 9.88013 146.98 9.54013 146.98 9.13013Z" stroke="#C7C6C5" stroke-width="0.43" stroke-miterlimit="10"/>
<path d="M147.73 9.88013C148.144 9.88013 148.48 9.54434 148.48 9.13013C148.48 8.71591 148.144 8.38013 147.73 8.38013C147.316 8.38013 146.98 8.71591 146.98 9.13013C146.98 9.54434 147.316 9.88013 147.73 9.88013Z" stroke="#C7C6C5" stroke-width="0.43" stroke-linecap="round" stroke-linejoin="round"/>
<path d="M150.51 11.5101C150.51 11.7501 150.7 11.9401 150.94 11.9401C151.18 11.9401 151.37 11.7501 151.37 11.5101L151.5 9.18012C151.5 8.87012 151.25 8.62012 150.93 8.62012C150.61 8.62012 150.36 8.87012 150.36 9.18012L150.49 11.5101H150.51Z" stroke="#C7C6C5" stroke-width="0.43" stroke-miterlimit="10"/>
<path d="M150.51 11.5101C150.51 11.7501 150.7 11.9401 150.94 11.9401C151.18 11.9401 151.37 11.7501 151.37 11.5101L151.5 9.18012C151.5 8.87012 151.25 8.62012 150.93 8.62012C150.61 8.62012 150.36 8.87012 150.36 9.18012L150.49 11.5101H150.51Z" stroke="#C7C6C5" stroke-width="0.43" stroke-linecap="round" stroke-linejoin="round"/>
<path d="M135.63 7.59009H119.85V20.3101H135.63V7.59009Z" stroke="#C7C6C5" stroke-width="0.43" stroke-linecap="round" stroke-linejoin="round"/>
<path d="M127.69 9.53003C130.13 9.53003 132.11 11.51 132.11 13.95C132.11 16.39 130.13 18.37 127.69 18.37C125.25 18.37 123.27 16.39 123.27 13.95C123.27 11.51 125.25 9.53003 127.69 9.53003Z" stroke="#C7C6C5" stroke-width="0.43" stroke-linecap="round" stroke-linejoin="round"/>
<path d="M127.69 9.53003C125.43 9.53003 124.12 11.37 124.12 13.63C124.12 15.44 125.59 16.91 127.4 16.91C128.85 16.91 130.02 15.74 130.02 14.29C130.02 13.13 129.08 12.19 127.92 12.19C126.99 12.19 126.24 12.94 126.24 13.87C126.24 14.61 126.84 15.21 127.58 15.21C128.17 15.21 128.66 14.73 128.66 14.13C128.66 13.66 128.28 13.27 127.8 13.27C127.42 13.27 127.11 13.58 127.11 13.96C127.11 14.26 127.36 14.51 127.66 14.51C127.9 14.51 128.1 14.31 128.1 14.07" stroke="#C7C6C5" stroke-width="0.43" stroke-linecap="round" stroke-linejoin="round"/>
<path d="M127.69 13.3301C127.35 13.3301 127.07 13.6101 127.07 13.9501C127.07 14.2901 127.35 14.5701 127.69 14.5701C128.03 14.5701 128.31 14.2901 128.31 13.9501C128.31 13.6101 128.03 13.3301 127.69 13.3301Z" fill="#144E30"/>
<path d="M194.09 182.89H176.56V200.51H194.09V182.89Z" stroke="#C7C6C5" stroke-width="0.43" stroke-miterlimit="10"/>
<path d="M189.58 190.26C191.027 190.26 192.2 189.087 192.2 187.64C192.2 186.193 191.027 185.02 189.58 185.02C188.133 185.02 186.96 186.193 186.96 187.64C186.96 189.087 188.133 190.26 189.58 190.26Z" stroke="#C7C6C5" stroke-width="0.43" stroke-miterlimit="10"/>
<path d="M189.58 198.85C191.027 198.85 192.2 197.677 192.2 196.23C192.2 194.783 191.027 193.61 189.58 193.61C188.133 193.61 186.96 194.783 186.96 196.23C186.96 197.677 188.133 198.85 189.58 198.85Z" stroke="#C7C6C5" stroke-width="0.43" stroke-miterlimit="10"/>
<path d="M181.68 190.26C183.127 190.26 184.3 189.087 184.3 187.64C184.3 186.193 183.127 185.02 181.68 185.02C180.233 185.02 179.06 186.193 179.06 187.64C179.06 189.087 180.233 190.26 181.68 190.26Z" stroke="#C7C6C5" stroke-width="0.43" stroke-miterlimit="10"/>
<path d="M181.68 198.85C183.127 198.85 184.3 197.677 184.3 196.23C184.3 194.783 183.127 193.61 181.68 193.61C180.233 193.61 179.06 194.783 179.06 196.23C179.06 197.677 180.233 198.85 181.68 198.85Z" stroke="#C7C6C5" stroke-width="0.43" stroke-miterlimit="10"/>
<path d="M194.2 147.74H176.58V165.36H194.2V147.74Z" stroke="#C7C6C5" stroke-width="0.43" stroke-miterlimit="10"/>
<path d="M194.2 147.74H176.58V165.36H194.2V147.74Z" stroke="#C7C6C5" stroke-width="0.43" stroke-miterlimit="10"/>
<path d="M178.1 150.86C178.1 149.96 178.83 149.24 179.72 149.24H191.04C191.94 149.24 192.66 149.97 192.66 150.86V162.24C192.66 163.14 191.93 163.86 191.04 163.86H179.72C178.82 163.86 178.1 163.13 178.1 162.24V150.86Z" stroke="#C7C6C5" stroke-width="0.43" stroke-miterlimit="10"/>
<path d="M178.1 150.86C178.1 149.96 178.83 149.24 179.72 149.24H191.04C191.94 149.24 192.66 149.97 192.66 150.86V162.24C192.66 163.14 191.93 163.86 191.04 163.86H179.72C178.82 163.86 178.1 163.13 178.1 162.24V150.86Z" stroke="#C7C6C5" stroke-width="0.43" stroke-miterlimit="10"/>
<path d="M189.52 161.62C189.52 161.1 189.95 160.67 190.47 160.67C190.99 160.67 191.42 161.09 191.42 161.62C191.42 162.15 191 162.57 190.47 162.57C189.94 162.57 189.52 162.15 189.52 161.62Z" stroke="#C7C6C5" stroke-width="0.43" stroke-miterlimit="10"/>
<path d="M193.25 155.84H187.87V157.27H193.25V155.84Z" stroke="#C7C6C5" stroke-width="0.43" stroke-miterlimit="10"/>
<path d="M194.16 130.28H168.89V147.74H194.16V130.28Z" stroke="#C7C6C5" stroke-width="0.43" stroke-miterlimit="10"/>
<path d="M44.23 188.93V209.97C44.23 210.36 44.55 210.68 44.94 210.68H66.27C66.66 210.68 66.98 210.36 66.98 209.97V207.51C66.98 207.12 66.66 206.8 66.27 206.8H48.1V188.92C48.1 188.53 47.78 188.21 47.39 188.21H44.93C44.54 188.21 44.22 188.53 44.22 188.92" stroke="#C7C6C5" stroke-width="0.43" stroke-miterlimit="10"/>
<path d="M44.23 188.93V209.97C44.23 210.36 44.55 210.68 44.94 210.68H66.27C66.66 210.68 66.98 210.36 66.98 209.97V207.51C66.98 207.12 66.66 206.8 66.27 206.8H48.1V188.92C48.1 188.53 47.78 188.21 47.39 188.21H44.93C44.54 188.21 44.22 188.53 44.22 188.92H44.23V188.93Z" stroke="#C7C6C5" stroke-width="0.43" stroke-miterlimit="10"/>
<path d="M41.48 188.93V212.89C41.48 213.28 41.8 213.6 42.19 213.6H66.27C66.66 213.6 66.98 213.28 66.98 212.89V211.56C66.98 211.17 66.66 210.68 66.27 210.68H44.23V188.93C44.23 188.54 43.91 188.22 43.52 188.22H42.19C41.8 188.22 41.48 188.54 41.48 188.93Z" stroke="#C7C6C5" stroke-width="0.43" stroke-miterlimit="10"/>
<path d="M41.48 188.93V212.89C41.48 213.28 41.8 213.6 42.19 213.6H66.27C66.66 213.6 66.98 213.28 66.98 212.89V211.56C66.98 211.17 66.66 210.68 66.27 210.68H44.23V188.93C44.23 188.54 43.91 188.22 43.52 188.22H42.19C41.8 188.22 41.48 188.54 41.48 188.93Z" stroke="#C7C6C5" stroke-width="0.43" stroke-miterlimit="10"/>
<path d="M48.1 206.81L44.56 210.33" stroke="#C7C6C5" stroke-width="0.43" stroke-miterlimit="10"/>
<path d="M48.81 188.23H66.27C66.66 188.23 66.98 188.55 66.98 188.94V206.11C66.98 206.5 66.66 206.82 66.27 206.82H48.81C48.42 206.82 48.1 206.5 48.1 206.11V188.94C48.1 188.55 48.42 188.23 48.81 188.23Z" stroke="#C7C6C5" stroke-width="0.43" stroke-miterlimit="10"/>
<path d="M48.81 188.23H66.27C66.66 188.23 66.98 188.55 66.98 188.94V206.11C66.98 206.5 66.66 206.82 66.27 206.82H48.81C48.42 206.82 48.1 206.5 48.1 206.11V188.94C48.1 188.55 48.42 188.23 48.81 188.23Z" stroke="#C7C6C5" stroke-width="0.43" stroke-miterlimit="10"/>
<path d="M89.73 188.93V209.97C89.73 210.36 89.41 210.68 89.02 210.68H67.69C67.3 210.68 66.98 210.36 66.98 209.97V207.51C66.98 207.12 67.3 206.8 67.69 206.8H85.86V188.92C85.86 188.53 86.18 188.21 86.57 188.21H89.03C89.42 188.21 89.74 188.53 89.74 188.92" stroke="#C7C6C5" stroke-width="0.43" stroke-miterlimit="10"/>
<path d="M89.73 188.93V209.97C89.73 210.36 89.41 210.68 89.02 210.68H67.69C67.3 210.68 66.98 210.36 66.98 209.97V207.51C66.98 207.12 67.3 206.8 67.69 206.8H85.86V188.92C85.86 188.53 86.18 188.21 86.57 188.21H89.03C89.42 188.21 89.74 188.53 89.74 188.92H89.73V188.93Z" stroke="#C7C6C5" stroke-width="0.43" stroke-miterlimit="10"/>
<path d="M92.48 188.93V212.89C92.48 213.28 92.16 213.6 91.77 213.6H67.69C67.3 213.6 66.98 213.28 66.98 212.89V211.56C66.98 211.17 67.3 210.68 67.69 210.68H89.73V188.93C89.73 188.54 90.05 188.22 90.44 188.22H91.77C92.16 188.22 92.48 188.54 92.48 188.93Z" stroke="#C7C6C5" stroke-width="0.43" stroke-miterlimit="10"/>
<path d="M92.48 188.93V212.89C92.48 213.28 92.16 213.6 91.77 213.6H67.69C67.3 213.6 66.98 213.28 66.98 212.89V211.56C66.98 211.17 67.3 210.68 67.69 210.68H89.73V188.93C89.73 188.54 90.05 188.22 90.44 188.22H91.77C92.16 188.22 92.48 188.54 92.48 188.93Z" stroke="#C7C6C5" stroke-width="0.43" stroke-miterlimit="10"/>
<path d="M85.85 206.81L89.39 210.33" stroke="#C7C6C5" stroke-width="0.43" stroke-miterlimit="10"/>
<path d="M67.68 188.23H85.14C85.53 188.23 85.85 188.55 85.85 188.94V206.1C85.85 206.49 85.53 206.81 85.14 206.81H67.68C67.29 206.81 66.97 206.49 66.97 206.1V188.93C66.97 188.54 67.29 188.22 67.68 188.22V188.23Z" stroke="#C7C6C5" stroke-width="0.43" stroke-miterlimit="10"/>
<path d="M67.68 188.23H85.14C85.53 188.23 85.85 188.55 85.85 188.94V206.1C85.85 206.49 85.53 206.81 85.14 206.81H67.68C67.29 206.81 66.97 206.49 66.97 206.1V188.93C66.97 188.54 67.29 188.22 67.68 188.22V188.23Z" stroke="#C7C6C5" stroke-width="0.43" stroke-miterlimit="10"/>
<path d="M106.91 140.16V139.46L109.13 137.35C109.32 137.17 109.46 137.02 109.55 136.89C109.64 136.76 109.7 136.63 109.73 136.52C109.76 136.4 109.77 136.3 109.77 136.2C109.77 135.94 109.68 135.74 109.51 135.6C109.33 135.46 109.08 135.39 108.73 135.39C108.46 135.39 108.21 135.44 107.99 135.53C107.77 135.63 107.58 135.77 107.42 135.97L106.69 135.41C106.91 135.12 107.2 134.89 107.57 134.73C107.94 134.57 108.36 134.49 108.81 134.49C109.22 134.49 109.57 134.56 109.87 134.69C110.17 134.82 110.4 135.01 110.57 135.25C110.73 135.49 110.81 135.78 110.81 136.11C110.81 136.29 110.79 136.47 110.74 136.65C110.69 136.83 110.6 137.02 110.47 137.21C110.34 137.41 110.14 137.63 109.89 137.87L107.98 139.69L107.76 139.3H111.03V140.18H106.9L106.91 140.16Z" fill="#C42F20"/>
<path d="M112.57 140.16L114.88 134.98L115.15 135.44H111.97L112.47 134.94V136.4H111.5V134.57H115.85V135.27L113.67 140.17H112.56L112.57 140.16Z" fill="#C42F20"/>
<path d="M116.14 141.37L116.6 139.6L116.74 140.19C116.55 140.19 116.4 140.13 116.27 140.02C116.15 139.9 116.08 139.75 116.08 139.55C116.08 139.35 116.14 139.19 116.27 139.07C116.4 138.95 116.55 138.89 116.73 138.89C116.91 138.89 117.07 138.95 117.19 139.07C117.31 139.19 117.37 139.35 117.37 139.55C117.37 139.6 117.37 139.66 117.35 139.72C117.34 139.78 117.32 139.85 117.3 139.93C117.28 140.01 117.24 140.11 117.18 140.23L116.77 141.36H116.12L116.14 141.37Z" fill="#C42F20"/>
<path d="M119.89 140.24C119.5 140.24 119.11 140.18 118.73 140.07C118.35 139.95 118.04 139.8 117.78 139.59L118.23 138.78C118.43 138.95 118.68 139.08 118.97 139.18C119.26 139.28 119.56 139.33 119.87 139.33C120.24 139.33 120.53 139.25 120.74 139.1C120.95 138.95 121.05 138.74 121.05 138.48C121.05 138.22 120.95 138.02 120.76 137.87C120.57 137.72 120.26 137.65 119.83 137.65H119.32V136.94L120.92 135.04L121.06 135.43H118.05V134.56H121.87V135.26L120.27 137.16L119.73 136.84H120.04C120.73 136.84 121.24 136.99 121.59 137.3C121.93 137.61 122.11 138 122.11 138.48C122.11 138.79 122.03 139.09 121.87 139.35C121.71 139.62 121.47 139.83 121.14 139.99C120.81 140.15 120.4 140.23 119.9 140.23L119.89 140.24Z" fill="#C42F20"/>
<path d="M124.57 140.24C124.18 140.24 123.79 140.18 123.41 140.07C123.03 139.95 122.72 139.8 122.46 139.59L122.9 138.78C123.1 138.95 123.35 139.08 123.64 139.18C123.93 139.28 124.23 139.33 124.55 139.33C124.92 139.33 125.21 139.25 125.42 139.1C125.63 138.94 125.74 138.74 125.74 138.48C125.74 138.3 125.7 138.15 125.61 138.02C125.52 137.89 125.37 137.78 125.15 137.72C124.93 137.65 124.63 137.62 124.24 137.62H122.89L123.18 134.57H126.47V135.44H123.57L124.11 134.94L123.89 137.22L123.35 136.73H124.48C125.03 136.73 125.48 136.8 125.82 136.95C126.16 137.1 126.41 137.3 126.56 137.56C126.72 137.82 126.8 138.11 126.8 138.44C126.8 138.77 126.72 139.06 126.56 139.34C126.4 139.61 126.16 139.83 125.83 140C125.5 140.17 125.09 140.25 124.59 140.25L124.57 140.24Z" fill="#C42F20"/>
<path d="M106.9 148.33V147.61L109.66 144H110.77L108.05 147.61L107.53 147.45H111.97V148.33H106.9ZM109.97 149.6V148.33L110 147.45V146.32H110.98V149.6H109.97Z" fill="#C42F20"/>
<path d="M114.09 149.68C113.7 149.68 113.31 149.62 112.93 149.51C112.55 149.39 112.24 149.24 111.98 149.03L112.43 148.22C112.63 148.39 112.88 148.52 113.17 148.62C113.46 148.72 113.76 148.77 114.07 148.77C114.44 148.77 114.73 148.69 114.94 148.54C115.15 148.39 115.25 148.18 115.25 147.92C115.25 147.66 115.15 147.46 114.96 147.31C114.77 147.16 114.46 147.09 114.03 147.09H113.52V146.38L115.12 144.48L115.26 144.87H112.25V144H116.07V144.7L114.47 146.6L113.93 146.28H114.24C114.93 146.28 115.44 146.43 115.79 146.74C116.13 147.05 116.31 147.44 116.31 147.92C116.31 148.23 116.23 148.53 116.07 148.79C115.91 149.06 115.67 149.27 115.34 149.43C115.01 149.59 114.6 149.67 114.1 149.67L114.09 149.68Z" fill="#C42F20"/>
<path d="M117.03 150.81L117.49 149.04L117.63 149.63C117.44 149.63 117.29 149.57 117.16 149.46C117.04 149.34 116.97 149.19 116.97 148.99C116.97 148.79 117.03 148.63 117.16 148.51C117.29 148.39 117.44 148.33 117.62 148.33C117.8 148.33 117.96 148.39 118.08 148.51C118.2 148.63 118.26 148.79 118.26 148.99C118.26 149.04 118.26 149.1 118.24 149.16C118.23 149.22 118.21 149.29 118.19 149.37C118.17 149.45 118.13 149.55 118.07 149.67L117.66 150.8H117.01L117.03 150.81Z" fill="#C42F20"/>
<path d="M118.82 148.33V147.61L121.58 144H122.69L119.97 147.61L119.45 147.45H123.89V148.33H118.82ZM121.89 149.6V148.33L121.92 147.45V146.32H122.9V149.6H121.89Z" fill="#C42F20"/>
<path d="M124.25 148.33V147.61L127.01 144H128.12L125.4 147.61L124.88 147.45H129.32V148.33H124.25ZM127.32 149.6V148.33L127.35 147.45V146.32H128.33V149.6H127.32Z" fill="#C42F20"/>
<path d="M74.96 151.38V143.7L75.8 144.54H73.28V142.98H76.9V151.38H74.96Z" fill="#C42F20"/>
<path d="M78.95 151.38V142.98H82.86C83.84 142.98 84.6 143.17 85.14 143.54C85.68 143.91 85.96 144.45 85.96 145.15C85.96 145.85 85.7 146.37 85.19 146.75C84.68 147.13 84 147.32 83.15 147.32L83.38 146.82C84.32 146.82 85.06 147.01 85.58 147.38C86.1 147.76 86.36 148.3 86.36 149.01C86.36 149.72 86.08 150.32 85.53 150.74C84.98 151.16 84.16 151.37 83.1 151.37H78.96L78.95 151.38ZM80.88 146.46H82.69C83.11 146.46 83.43 146.37 83.65 146.2C83.87 146.03 83.97 145.77 83.97 145.44C83.97 145.11 83.86 144.85 83.65 144.68C83.44 144.51 83.11 144.42 82.69 144.42H80.88V146.46ZM80.88 149.94H83.02C83.47 149.94 83.81 149.85 84.04 149.68C84.27 149.5 84.39 149.23 84.39 148.86C84.39 148.49 84.27 148.25 84.04 148.07C83.81 147.9 83.47 147.81 83.02 147.81H80.88V149.93V149.94Z" fill="#C42F20"/>
<path d="M87.47 148.75V147.25H90.87V148.75H87.47Z" fill="#C42F20"/>
<path d="M94.8 151.52C94.22 151.52 93.64 151.44 93.07 151.29C92.5 151.14 92.01 150.91 91.6 150.62L92.37 149.13C92.69 149.36 93.06 149.55 93.48 149.68C93.9 149.82 94.33 149.88 94.76 149.88C95.25 149.88 95.63 149.78 95.91 149.59C96.19 149.4 96.33 149.13 96.33 148.79C96.33 148.57 96.27 148.38 96.16 148.21C96.05 148.04 95.85 147.91 95.57 147.83C95.29 147.75 94.89 147.7 94.38 147.7H92.23L92.66 142.97H97.78V144.53H93.35L94.36 143.64L94.06 147.01L93.05 146.12H94.83C95.66 146.12 96.33 146.23 96.84 146.46C97.35 146.69 97.72 147 97.95 147.39C98.18 147.78 98.3 148.23 98.3 148.72C98.3 149.21 98.18 149.67 97.93 150.09C97.68 150.51 97.3 150.85 96.78 151.11C96.26 151.37 95.61 151.5 94.81 151.5L94.8 151.52Z" fill="#C42F20"/>
<path d="M106.9 157.44V156.72L109.66 153.11H110.77L108.05 156.72L107.53 156.56H111.97V157.44H106.9ZM109.97 158.71V157.44L110 156.56V155.43H110.98V158.71H109.97Z" fill="#C42F20"/>
<path d="M114.09 158.79C113.7 158.79 113.31 158.73 112.93 158.62C112.55 158.5 112.24 158.35 111.98 158.14L112.43 157.33C112.63 157.5 112.88 157.63 113.17 157.73C113.46 157.83 113.76 157.88 114.07 157.88C114.44 157.88 114.73 157.8 114.94 157.65C115.15 157.5 115.25 157.29 115.25 157.03C115.25 156.77 115.15 156.57 114.96 156.42C114.77 156.27 114.46 156.2 114.03 156.2H113.52V155.49L115.12 153.59L115.26 153.98H112.25V153.11H116.07V153.81L114.47 155.71L113.93 155.39H114.24C114.93 155.39 115.44 155.54 115.79 155.85C116.13 156.16 116.31 156.55 116.31 157.03C116.31 157.34 116.23 157.64 116.07 157.9C115.91 158.17 115.67 158.38 115.34 158.54C115.01 158.7 114.6 158.78 114.1 158.78L114.09 158.79Z" fill="#C42F20"/>
<path d="M117.03 159.92L117.49 158.15L117.63 158.74C117.44 158.74 117.29 158.68 117.16 158.57C117.04 158.45 116.97 158.3 116.97 158.1C116.97 157.9 117.03 157.74 117.16 157.62C117.29 157.5 117.44 157.44 117.62 157.44C117.8 157.44 117.96 157.5 118.08 157.63C118.2 157.75 118.26 157.91 118.26 158.11C118.26 158.16 118.26 158.22 118.24 158.28C118.23 158.34 118.21 158.41 118.19 158.49C118.17 158.57 118.13 158.67 118.07 158.79L117.66 159.92H117.01H117.03Z" fill="#C42F20"/>
<path d="M118.82 157.44V156.72L121.58 153.11H122.69L119.97 156.72L119.45 156.56H123.89V157.44H118.82ZM121.89 158.71V157.44L121.92 156.56V155.43H122.9V158.71H121.89Z" fill="#C42F20"/>
<path d="M124.25 157.44V156.72L127.01 153.11H128.12L125.4 156.72L124.88 156.56H129.32V157.44H124.25ZM127.32 158.71V157.44L127.35 156.56V155.43H128.33V158.71H127.32Z" fill="#C42F20"/>
<path d="M103.62 162.25V130.04" stroke="#C42F20" stroke-miterlimit="10"/>
<path d="M17.76 165.59C17.37 165.59 16.98 165.53 16.6 165.42C16.22 165.3 15.91 165.15 15.65 164.94L16.1 164.13C16.3 164.3 16.55 164.43 16.84 164.53C17.13 164.63 17.43 164.68 17.74 164.68C18.11 164.68 18.4 164.6 18.61 164.45C18.82 164.3 18.92 164.09 18.92 163.83C18.92 163.57 18.82 163.37 18.63 163.22C18.44 163.07 18.13 163 17.7 163H17.19V162.29L18.79 160.39L18.93 160.78H15.92V159.91H19.74V160.61L18.14 162.51L17.6 162.19H17.91C18.6 162.19 19.11 162.34 19.46 162.65C19.8 162.96 19.98 163.35 19.98 163.83C19.98 164.14 19.9 164.44 19.74 164.7C19.58 164.97 19.34 165.18 19.01 165.34C18.68 165.5 18.27 165.58 17.77 165.58L17.76 165.59Z" fill="#13110C"/>
<path d="M20.7 166.72L21.16 164.95L21.3 165.54C21.11 165.54 20.96 165.48 20.83 165.37C20.71 165.25 20.64 165.1 20.64 164.9C20.64 164.7 20.7 164.54 20.83 164.42C20.96 164.3 21.11 164.24 21.29 164.24C21.47 164.24 21.63 164.3 21.75 164.42C21.87 164.54 21.93 164.7 21.93 164.9C21.93 164.95 21.93 165.01 21.91 165.07C21.9 165.13 21.88 165.2 21.86 165.28C21.84 165.36 21.8 165.46 21.74 165.58L21.33 166.71H20.68L20.7 166.72Z" fill="#13110C"/>
<path d="M22.62 165.51V164.81L24.84 162.7C25.03 162.52 25.17 162.37 25.26 162.24C25.35 162.11 25.41 161.98 25.44 161.87C25.47 161.75 25.48 161.65 25.48 161.55C25.48 161.29 25.39 161.09 25.22 160.95C25.04 160.81 24.79 160.74 24.44 160.74C24.17 160.74 23.92 160.79 23.7 160.88C23.48 160.97 23.29 161.12 23.13 161.32L22.4 160.76C22.62 160.47 22.91 160.24 23.28 160.08C23.65 159.92 24.07 159.84 24.52 159.84C24.93 159.84 25.28 159.91 25.58 160.04C25.88 160.17 26.11 160.36 26.28 160.6C26.44 160.84 26.52 161.13 26.52 161.46C26.52 161.64 26.5 161.82 26.45 162C26.4 162.18 26.31 162.37 26.18 162.56C26.05 162.76 25.85 162.98 25.6 163.22L23.69 165.04L23.47 164.65H26.74V165.53H22.61L22.62 165.51Z" fill="#13110C"/>
<path d="M29.11 165.59C28.72 165.59 28.33 165.53 27.95 165.42C27.57 165.3 27.26 165.15 27 164.94L27.45 164.13C27.65 164.3 27.9 164.43 28.19 164.53C28.48 164.63 28.78 164.68 29.09 164.68C29.46 164.68 29.75 164.6 29.96 164.45C30.17 164.3 30.27 164.09 30.27 163.83C30.27 163.57 30.17 163.37 29.98 163.22C29.79 163.07 29.48 163 29.05 163H28.54V162.29L30.14 160.39L30.28 160.78H27.27V159.91H31.09V160.61L29.49 162.51L28.95 162.19H29.26C29.95 162.19 30.46 162.34 30.81 162.65C31.15 162.96 31.33 163.35 31.33 163.83C31.33 164.14 31.25 164.44 31.09 164.7C30.93 164.97 30.69 165.18 30.36 165.34C30.03 165.5 29.62 165.58 29.12 165.58L29.11 165.59Z" fill="#13110C"/>
<path d="M70.24 174.88V169.68L70.7 170.15H69.06V169.28H71.28V174.88H70.24Z" fill="#13110C"/>
<path d="M74.64 174.96C74.18 174.96 73.77 174.89 73.43 174.75C73.09 174.61 72.82 174.42 72.64 174.16C72.45 173.91 72.36 173.61 72.36 173.27C72.36 172.93 72.45 172.64 72.63 172.41C72.81 172.17 73.07 172 73.41 171.87C73.75 171.75 74.16 171.69 74.63 171.69C75.1 171.69 75.51 171.75 75.86 171.87C76.21 171.99 76.47 172.17 76.65 172.41C76.83 172.65 76.93 172.93 76.93 173.27C76.93 173.61 76.84 173.91 76.65 174.16C76.46 174.41 76.19 174.61 75.85 174.75C75.51 174.89 75.1 174.96 74.64 174.96ZM74.64 172.23C74.21 172.23 73.84 172.17 73.53 172.06C73.22 171.95 72.98 171.78 72.81 171.56C72.64 171.34 72.56 171.07 72.56 170.76C72.56 170.45 72.65 170.16 72.82 169.93C72.99 169.7 73.24 169.52 73.55 169.39C73.86 169.26 74.23 169.2 74.64 169.2C75.05 169.2 75.42 169.26 75.74 169.39C76.06 169.52 76.3 169.7 76.48 169.93C76.66 170.16 76.74 170.44 76.74 170.76C76.74 171.08 76.66 171.34 76.49 171.56C76.32 171.78 76.08 171.95 75.77 172.06C75.45 172.18 75.08 172.23 74.65 172.23H74.64ZM74.64 174.14C75.02 174.14 75.33 174.06 75.55 173.9C75.77 173.74 75.89 173.52 75.89 173.24C75.89 172.96 75.78 172.74 75.55 172.58C75.33 172.42 75.02 172.34 74.64 172.34C74.26 172.34 73.95 172.42 73.74 172.58C73.53 172.74 73.41 172.96 73.41 173.24C73.41 173.52 73.52 173.74 73.74 173.9C73.96 174.06 74.26 174.14 74.64 174.14ZM74.64 171.59C74.97 171.59 75.23 171.52 75.42 171.38C75.61 171.24 75.71 171.05 75.71 170.81C75.71 170.57 75.61 170.36 75.41 170.23C75.21 170.1 74.95 170.02 74.63 170.02C74.31 170.02 74.05 170.09 73.86 170.23C73.67 170.37 73.57 170.56 73.57 170.81C73.57 171.06 73.66 171.24 73.85 171.38C74.04 171.52 74.3 171.59 74.62 171.59H74.64Z" fill="#13110C"/>
<path d="M77.73 176.09L78.19 174.32L78.33 174.91C78.14 174.91 77.99 174.85 77.86 174.74C77.73 174.62 77.67 174.47 77.67 174.27C77.67 174.07 77.73 173.91 77.86 173.79C77.98 173.67 78.14 173.61 78.32 173.61C78.5 173.61 78.66 173.67 78.78 173.79C78.9 173.91 78.96 174.07 78.96 174.27C78.96 174.32 78.96 174.38 78.94 174.44C78.93 174.5 78.91 174.57 78.89 174.65C78.87 174.73 78.83 174.83 78.77 174.95L78.36 176.08H77.71L77.73 176.09Z" fill="#13110C"/>
<path d="M79.65 174.88V174.18L81.87 172.07C82.06 171.89 82.2 171.74 82.29 171.61C82.38 171.48 82.44 171.35 82.47 171.24C82.5 171.12 82.51 171.02 82.51 170.92C82.51 170.66 82.42 170.46 82.25 170.32C82.07 170.18 81.82 170.11 81.47 170.11C81.2 170.11 80.95 170.16 80.73 170.25C80.51 170.34 80.32 170.49 80.16 170.69L79.43 170.13C79.65 169.84 79.94 169.61 80.31 169.45C80.68 169.29 81.1 169.21 81.55 169.21C81.96 169.21 82.31 169.28 82.61 169.41C82.91 169.54 83.14 169.73 83.31 169.97C83.47 170.21 83.55 170.5 83.55 170.83C83.55 171.01 83.53 171.19 83.48 171.37C83.43 171.55 83.34 171.74 83.21 171.93C83.08 172.13 82.88 172.35 82.63 172.59L80.72 174.41L80.5 174.02H83.77V174.9H79.64L79.65 174.88Z" fill="#13110C"/>
<path d="M84.17 173.61V172.89L86.93 169.28H88.04L85.32 172.89L84.8 172.73H89.24V173.61H84.17ZM87.24 174.88V173.61L87.27 172.73V171.6H88.25V174.88H87.24Z" fill="#13110C"/>
<path d="M148.25 80.7301V80.0101L151.01 76.4001H152.12L149.4 80.0101L148.88 79.8501H153.32V80.7301H148.25ZM151.32 82.0001V80.7301L151.35 79.8501V78.7201H152.33V82.0001H151.32Z" fill="#13110C"/>
<path d="M153.96 83.21L154.42 81.44L154.56 82.03C154.37 82.03 154.22 81.97 154.09 81.86C153.97 81.74 153.9 81.59 153.9 81.39C153.9 81.19 153.96 81.03 154.09 80.91C154.22 80.79 154.37 80.73 154.55 80.73C154.73 80.73 154.89 80.79 155.01 80.91C155.13 81.03 155.19 81.19 155.19 81.39C155.19 81.44 155.19 81.5 155.17 81.56C155.16 81.62 155.14 81.69 155.12 81.77C155.1 81.85 155.06 81.95 155 82.07L154.59 83.2H153.94L153.96 83.21Z" fill="#13110C"/>
<path d="M158.2 82.0801C157.74 82.0801 157.33 82.0101 156.99 81.8701C156.65 81.7301 156.38 81.5401 156.2 81.2801C156.01 81.0301 155.92 80.7301 155.92 80.3901C155.92 80.0501 156.01 79.7601 156.19 79.5301C156.37 79.2901 156.63 79.1201 156.98 78.9901C157.32 78.8701 157.73 78.8101 158.2 78.8101C158.67 78.8101 159.08 78.8701 159.43 78.9901C159.78 79.1101 160.04 79.2901 160.22 79.5301C160.4 79.7701 160.5 80.0501 160.5 80.3901C160.5 80.7301 160.41 81.0301 160.22 81.2801C160.03 81.5301 159.76 81.7301 159.42 81.8701C159.08 82.0101 158.67 82.0801 158.21 82.0801H158.2ZM158.2 79.3501C157.77 79.3501 157.4 79.2901 157.09 79.1801C156.78 79.0701 156.54 78.9001 156.37 78.6801C156.2 78.4601 156.12 78.1901 156.12 77.8801C156.12 77.5701 156.21 77.2801 156.38 77.0501C156.55 76.8201 156.8 76.6401 157.11 76.5101C157.42 76.3801 157.79 76.3201 158.2 76.3201C158.61 76.3201 158.98 76.3801 159.3 76.5101C159.62 76.6401 159.86 76.8201 160.04 77.0501C160.22 77.2801 160.3 77.5601 160.3 77.8801C160.3 78.2001 160.22 78.4601 160.05 78.6801C159.88 78.9001 159.64 79.0701 159.33 79.1801C159.02 79.3001 158.64 79.3501 158.21 79.3501H158.2ZM158.2 81.2601C158.58 81.2601 158.89 81.1801 159.11 81.0201C159.33 80.8601 159.45 80.6401 159.45 80.3601C159.45 80.0801 159.34 79.8601 159.11 79.7001C158.88 79.5401 158.58 79.4601 158.2 79.4601C157.82 79.4601 157.51 79.5401 157.3 79.7001C157.09 79.8601 156.97 80.0801 156.97 80.3601C156.97 80.6401 157.08 80.8601 157.3 81.0201C157.52 81.1801 157.82 81.2601 158.2 81.2601ZM158.2 78.7101C158.53 78.7101 158.79 78.6401 158.98 78.5001C159.17 78.3601 159.27 78.1701 159.27 77.9301C159.27 77.6901 159.17 77.4801 158.98 77.3501C158.79 77.2201 158.52 77.1401 158.2 77.1401C157.88 77.1401 157.62 77.2101 157.43 77.3501C157.24 77.4901 157.14 77.6801 157.14 77.9301C157.14 78.1801 157.23 78.3601 157.42 78.5001C157.61 78.6401 157.87 78.7101 158.19 78.7101H158.2Z" fill="#13110C"/>
<path d="M162.93 82.0801C162.54 82.0801 162.15 82.0201 161.77 81.9101C161.39 81.7901 161.08 81.6401 160.82 81.4301L161.27 80.6201C161.47 80.7901 161.72 80.9201 162.01 81.0201C162.3 81.1201 162.6 81.1701 162.91 81.1701C163.28 81.1701 163.57 81.0901 163.78 80.9401C163.99 80.7901 164.09 80.5801 164.09 80.3201C164.09 80.0601 163.99 79.8601 163.8 79.7101C163.61 79.5601 163.3 79.4901 162.87 79.4901H162.36V78.7801L163.96 76.8801L164.1 77.2701H161.09V76.4001H164.91V77.1001L163.31 79.0001L162.77 78.6801H163.08C163.77 78.6801 164.28 78.8301 164.63 79.1401C164.97 79.4501 165.15 79.8401 165.15 80.3201C165.15 80.6301 165.07 80.9301 164.91 81.1901C164.75 81.4501 164.51 81.6701 164.18 81.8301C163.85 81.9901 163.44 82.0701 162.94 82.0701L162.93 82.0801Z" fill="#13110C"/>
<path d="M143.76 39.42C143.37 39.42 142.98 39.36 142.6 39.25C142.22 39.13 141.91 38.98 141.65 38.77L142.1 37.96C142.3 38.13 142.55 38.26 142.84 38.36C143.13 38.46 143.43 38.51 143.74 38.51C144.11 38.51 144.4 38.43 144.61 38.28C144.82 38.13 144.92 37.92 144.92 37.66C144.92 37.4 144.82 37.2 144.63 37.05C144.44 36.9 144.13 36.83 143.7 36.83H143.19V36.12L144.79 34.22L144.93 34.61H141.92V33.74H145.74V34.44L144.14 36.34L143.6 36.02H143.91C144.6 36.02 145.11 36.17 145.46 36.48C145.8 36.79 145.98 37.18 145.98 37.66C145.98 37.97 145.9 38.27 145.74 38.53C145.58 38.8 145.34 39.01 145.01 39.17C144.68 39.33 144.27 39.41 143.77 39.41L143.76 39.42Z" fill="#13110C"/>
<path d="M146.7 40.5498L147.16 38.7798L147.3 39.3698C147.11 39.3698 146.96 39.3098 146.83 39.1998C146.71 39.0798 146.64 38.9298 146.64 38.7298C146.64 38.5298 146.7 38.3698 146.83 38.2498C146.96 38.1298 147.11 38.0698 147.29 38.0698C147.47 38.0698 147.63 38.1298 147.75 38.2498C147.87 38.3698 147.93 38.5298 147.93 38.7298C147.93 38.7798 147.93 38.8398 147.91 38.8998C147.9 38.9598 147.88 39.0298 147.86 39.1098C147.84 39.1898 147.8 39.2898 147.74 39.4098L147.33 40.5398H146.68L146.7 40.5498Z" fill="#13110C"/>
<path d="M150.94 39.4199C150.43 39.4199 150 39.3099 149.64 39.0999C149.28 38.8799 149 38.5699 148.81 38.1599C148.62 37.7499 148.52 37.2399 148.52 36.6399C148.52 35.9999 148.64 35.4599 148.87 35.0199C149.1 34.5799 149.42 34.2399 149.84 34.0099C150.26 33.7799 150.73 33.6699 151.27 33.6699C151.55 33.6699 151.82 33.6999 152.08 33.7599C152.34 33.8199 152.56 33.9099 152.74 34.0299L152.36 34.8099C152.2 34.7099 152.04 34.6399 151.86 34.5999C151.68 34.5599 151.49 34.5399 151.3 34.5399C150.77 34.5399 150.35 34.6999 150.04 35.0299C149.73 35.3599 149.58 35.8399 149.58 36.4699C149.58 36.5699 149.58 36.6899 149.58 36.8299C149.58 36.9699 149.6 37.0999 149.64 37.2399L149.32 36.8899C149.42 36.6699 149.55 36.4899 149.72 36.3399C149.89 36.1899 150.09 36.0799 150.32 36.0099C150.55 35.9299 150.8 35.8999 151.08 35.8999C151.45 35.8999 151.78 35.9699 152.06 36.1099C152.35 36.2499 152.58 36.4499 152.75 36.7099C152.92 36.9699 153.01 37.2699 153.01 37.6199C153.01 37.9899 152.92 38.3099 152.74 38.5799C152.56 38.8499 152.31 39.0599 152 39.2099C151.69 39.3599 151.34 39.4299 150.96 39.4299L150.94 39.4199ZM150.88 38.5999C151.09 38.5999 151.28 38.5599 151.45 38.4799C151.62 38.3999 151.74 38.2899 151.84 38.1499C151.93 38.0099 151.98 37.8399 151.98 37.6499C151.98 37.3599 151.88 37.1299 151.68 36.9499C151.48 36.7799 151.2 36.6899 150.86 36.6899C150.64 36.6899 150.44 36.7299 150.27 36.8099C150.1 36.8899 149.97 37.0099 149.87 37.1499C149.77 37.2899 149.72 37.4599 149.72 37.6499C149.72 37.8199 149.76 37.9799 149.86 38.1199C149.96 38.2599 150.08 38.3799 150.26 38.4599C150.43 38.5499 150.64 38.5899 150.89 38.5899L150.88 38.5999Z" fill="#13110C"/>
<path d="M154.43 39.34L156.74 34.16L157.01 34.62H153.83L154.33 34.12V35.58H153.36V33.75H157.71V34.45L155.53 39.35H154.42L154.43 39.34Z" fill="#13110C"/>
<path d="M55.12 91.0399V85.8399L55.58 86.3099H53.94V85.4399H56.16V91.0399H55.12Z" fill="#13110C"/>
<path d="M59.03 91.1199C58.64 91.1199 58.25 91.0599 57.87 90.9499C57.49 90.8299 57.18 90.6799 56.92 90.4699L57.37 89.6599C57.57 89.8299 57.82 89.9599 58.11 90.0599C58.4 90.1599 58.7 90.2099 59.01 90.2099C59.38 90.2099 59.67 90.1299 59.88 89.9799C60.09 89.8299 60.19 89.6199 60.19 89.3599C60.19 89.0999 60.09 88.8999 59.9 88.7499C59.71 88.5999 59.4 88.5299 58.97 88.5299H58.46V87.8199L60.06 85.9199L60.2 86.3099H57.19V85.4399H61.01V86.1399L59.41 88.0399L58.87 87.7199H59.18C59.87 87.7199 60.38 87.8699 60.73 88.1799C61.08 88.4899 61.25 88.8799 61.25 89.3599C61.25 89.6699 61.17 89.9699 61.01 90.2299C60.85 90.4999 60.61 90.7099 60.28 90.8699C59.95 91.0299 59.54 91.1099 59.04 91.1099L59.03 91.1199Z" fill="#13110C"/>
<path d="M61.97 92.25L62.43 90.48L62.57 91.07C62.38 91.07 62.23 91.01 62.1 90.9C61.97 90.78 61.91 90.63 61.91 90.43C61.91 90.23 61.97 90.07 62.1 89.95C62.23 89.83 62.38 89.77 62.56 89.77C62.74 89.77 62.9 89.83 63.02 89.95C63.14 90.07 63.2 90.23 63.2 90.43C63.2 90.48 63.2 90.54 63.18 90.6C63.17 90.66 63.15 90.73 63.13 90.81C63.11 90.89 63.07 90.99 63.01 91.11L62.6 92.24H61.95L61.97 92.25Z" fill="#13110C"/>
<path d="M63.76 89.7699V89.0499L66.52 85.4399H67.63L64.91 89.0499L64.39 88.8899H68.83V89.7699H63.76ZM66.83 91.0399V89.7699L66.86 88.8899V87.7599H67.84V91.0399H66.83Z" fill="#13110C"/>
<path d="M69.85 91.04L72.16 85.86L72.43 86.32H69.25L69.75 85.82V87.28H68.78V85.45H73.13V86.15L70.95 91.05H69.84L69.85 91.04Z" fill="#13110C"/>
<path d="M2.88 201.04H0V220.84H2.88V201.04Z" fill="#511F19"/>
<path d="M9.96 202.84H2.88V220.84H9.96V202.84Z" fill="#511F19"/>
<path d="M2.88 66.8101H0V131.31H2.88V66.8101Z" fill="#511F19"/>
<path d="M9.96 68.6201H2.88V129.52H9.96V68.6201Z" fill="#511F19"/>
<path d="M2.88 0.5H0V31H2.88V0.5Z" fill="#511F19"/>
<path d="M9.96 0.5H2.88V29.2H9.96V0.5Z" fill="#511F19"/>
<path d="M41.48 179.84H38.09V217.22H41.48V179.84Z" fill="#511F19"/>
<path d="M201.24 0.5H7.23001V7.59H201.24V0.5Z" fill="#511F19"/>
<path d="M119.85 3.90991H117.6V62.2599H119.85V3.90991Z" fill="#511F19"/>
<path d="M136.56 56.6699H117.6V58.9499H136.56V56.6699Z" fill="#511F19"/>
<path d="M199.47 56.6699H159.44V58.9499H199.47V56.6699Z" fill="#511F19"/>
<path d="M201.24 4.81006H181.93V58.8901H201.24V4.81006Z" fill="#511F19"/>
<path d="M201.24 54.97H194.16V63.88H201.24V54.97Z" fill="#511F19"/>
<path d="M201.24 94.95H194.16V220.83H201.24V94.95Z" fill="#511F19"/>
<path d="M52.31 109.26H9.13V116.34H52.31V109.26Z" fill="#511F19"/>
<path d="M123.6 109.26H51.82V111.51H123.6V109.26Z" fill="#511F19"/>
<path d="M119.98 88.1101H117.6V110.38H119.98V88.1101Z" fill="#511F19"/>
<path d="M154.17 97.23H151.79V130.23H154.17V97.23Z" fill="#511F19"/>
<path d="M153.6 109.23H149.28V111.51H153.6V109.23Z" fill="#511F19"/>
<path d="M196.81 115.18H151.79V130.23H196.81V115.18Z" fill="#511F19"/>
<path d="M197.01 213.6H8.92999V220.83H197.01V213.6Z" fill="#511F19"/>
<path d="M2.88 131.3V201.04" stroke="#511F19" stroke-width="0.43" stroke-miterlimit="10"/>
<path d="M9.95999 202.84V129.52" stroke="#511F19" stroke-width="0.43" stroke-miterlimit="10"/>
<path d="M6.42001 129.52V202.84" stroke="#511F19" stroke-width="0.43" stroke-miterlimit="10"/>
<path d="M2.88 30.99V66.81" stroke="#511F19" stroke-width="0.43" stroke-miterlimit="10"/>
<path d="M9.95999 68.6199V29.1899" stroke="#511F19" stroke-width="0.43" stroke-miterlimit="10"/>
<path d="M6.42001 29.1899V68.6199" stroke="#511F19" stroke-width="0.43" stroke-miterlimit="10"/>
<path d="M38.66 179.84V159.26H40.94V179.84" stroke="#511F19" stroke-width="0.43" stroke-miterlimit="10"/>
<path d="M39.76 159.26V179.84" stroke="#511F19" stroke-width="0.43" stroke-miterlimit="10"/>
<path d="M38.66 116.15V139.47H40.94V116.15" stroke="#511F19" stroke-width="0.43" stroke-miterlimit="10"/>
<path d="M39.76 139.47V116.15" stroke="#511F19" stroke-width="0.43" stroke-miterlimit="10"/>
<path d="M138.89 70.4099L159.67 58.8899" stroke="#511F19" stroke-width="0.85" stroke-miterlimit="10"/>
<path d="M123.6 110.71L144.39 122.24" stroke="#511F19" stroke-width="0.85" stroke-miterlimit="10"/>
<path d="M106.85 83.05L118.37 62.27" stroke="#511F19" stroke-width="0.85" stroke-miterlimit="10"/>
<path d="M201.24 63.8799H229.5" stroke="#511F19" stroke-width="0.85" stroke-miterlimit="10"/>
<path d="M229.5 63.8799C229.5 79.4899 216.85 92.1399 201.24 92.1399" stroke="#511F19" stroke-width="0.43" stroke-miterlimit="10"/>
<path d="M201.24 92.1399H198.93V96.0999H201.24V92.1399Z" fill="#511F19"/>
<path d="M40.97 139.47H39.22V140.66H40.97V139.47Z" fill="#511F19"/>
<path d="M40.97 158.02H39.22V159.21H40.97V158.02Z" fill="#511F19"/>
<path d="M40.96 140.66H58.3" stroke="#511F19" stroke-width="0.85" stroke-miterlimit="10"/>
<path d="M58.3 140.66C58.3 150.23 50.54 157.99 40.96 157.99" stroke="#511F19" stroke-width="0.43" stroke-miterlimit="10"/>
</g>
<defs>
<clipPath id="clip0_2024_6953">
<rect width="229.71" height="220.34" fill="white" transform="translate(0 0.5)"/>
</clipPath>
</defs>
</svg>
