<svg width="307" height="221" viewBox="0 0 307 221" fill="none" xmlns="http://www.w3.org/2000/svg">
<g clip-path="url(#clip0_2024_4217)">
<path d="M140.05 124.79H81.63V136H140.05V124.79Z" stroke="#C7C6C5" stroke-width="0.43" stroke-miterlimit="10"/>
<path d="M117.28 130.08L124.29 126.91L124.61 127.61L114.84 133.48V134.2C114.84 134.2 114.81 134.77 114.27 134.77H108.88C108.34 134.77 108.31 134.2 108.31 134.2V133.48L98.54 127.61L98.86 126.91L105.87 130.08H117.29H117.28Z" stroke="#C7C6C5" stroke-width="0.43" stroke-miterlimit="10"/>
<path d="M117.28 130.08L124.29 126.91L124.61 127.61L114.84 133.48V134.2C114.84 134.2 114.81 134.77 114.27 134.77H108.88C108.34 134.77 108.31 134.2 108.31 134.2V133.48L98.54 127.61L98.86 126.91L105.87 130.08H117.29H117.28Z" stroke="#C7C6C5" stroke-width="0.43" stroke-miterlimit="10"/>
<path d="M132.23 130.08H90.93V131.03H132.23V130.08Z" stroke="#C7C6C5" stroke-width="0.43" stroke-miterlimit="10"/>
<path d="M132.23 130.08H90.93V131.03H132.23V130.08Z" stroke="#C7C6C5" stroke-width="0.43" stroke-miterlimit="10"/>
<path d="M102.97 131.03C104.08 131.03 103.98 132.02 105.22 132.02H117.93C119.17 132.02 119.07 131.03 120.18 131.03H102.96H102.97Z" stroke="#C7C6C5" stroke-width="0.43" stroke-miterlimit="10"/>
<path d="M102.97 131.03C104.08 131.03 103.98 132.02 105.22 132.02H117.93C119.17 132.02 119.07 131.03 120.18 131.03H102.96H102.97Z" stroke="#C7C6C5" stroke-width="0.43" stroke-miterlimit="10"/>
<path d="M142.81 35.1299V14.0899C142.81 13.6999 142.49 13.3799 142.1 13.3799H120.77C120.38 13.3799 120.06 13.6999 120.06 14.0899V16.5499C120.06 16.9399 120.38 17.2599 120.77 17.2599H138.94V35.1399C138.94 35.5299 139.26 35.8499 139.65 35.8499H142.11C142.5 35.8499 142.82 35.5299 142.82 35.1399H142.81V35.1299Z" stroke="#C7C6C5" stroke-width="0.43" stroke-miterlimit="10"/>
<path d="M145.56 35.13V11.17C145.56 10.78 145.24 10.46 144.85 10.46H120.77C120.38 10.46 120.06 10.78 120.06 11.17V12.5C120.06 12.89 120.38 13.38 120.77 13.38H142.81V35.13C142.81 35.52 143.13 35.84 143.52 35.84H144.85C145.24 35.84 145.56 35.52 145.56 35.13Z" stroke="#C7C6C5" stroke-width="0.43" stroke-miterlimit="10"/>
<path d="M138.93 17.2597L142.47 13.7397" stroke="#C7C6C5" stroke-width="0.43" stroke-miterlimit="10"/>
<path d="M120.76 17.2598H138.22C138.61 17.2598 138.93 17.5798 138.93 17.9698V52.8298C138.93 53.2198 138.61 53.5398 138.22 53.5398H120.76C120.37 53.5398 120.05 53.2198 120.05 52.8298V17.9698C120.05 17.5798 120.37 17.2598 120.76 17.2598Z" stroke="#C7C6C5" stroke-width="0.43" stroke-miterlimit="10"/>
<path d="M58.02 35.1299V14.0899C58.02 13.6999 58.34 13.3799 58.73 13.3799H119.35C119.74 13.3799 120.06 13.6999 120.06 14.0899V16.5499C120.06 16.9399 119.74 17.2599 119.35 17.2599H61.9V35.1399C61.9 35.5299 61.58 35.8499 61.19 35.8499H58.73C58.34 35.8499 58.02 35.5299 58.02 35.1399V35.1299Z" stroke="#C7C6C5" stroke-width="0.43" stroke-miterlimit="10"/>
<path d="M55.27 35.13V11.17C55.27 10.78 55.59 10.46 55.98 10.46H119.35C119.74 10.46 120.06 10.78 120.06 11.17V12.5C120.06 12.89 119.74 13.38 119.35 13.38H58.02V35.13C58.02 35.52 57.7 35.84 57.31 35.84H55.98C55.59 35.84 55.27 35.52 55.27 35.13Z" stroke="#C7C6C5" stroke-width="0.43" stroke-miterlimit="10"/>
<path d="M61.9 17.2597L58.36 13.7397" stroke="#C7C6C5" stroke-width="0.43" stroke-miterlimit="10"/>
<path d="M62.61 17.2598H119.35C119.74 17.2598 120.06 17.5798 120.06 17.9698V35.1398C120.06 35.5298 119.74 35.8498 119.35 35.8498H62.61C62.22 35.8498 61.9 35.5298 61.9 35.1398V17.9698C61.9 17.5798 62.22 17.2598 62.61 17.2598Z" stroke="#C7C6C5" stroke-width="0.43" stroke-miterlimit="10"/>
<path d="M113.49 180.85C113.49 186.03 109.27 190.25 104.09 190.25C98.91 190.25 94.69 186.03 94.69 180.85V147.74C94.69 142.55 98.91 138.34 104.09 138.34C109.27 138.34 113.49 142.56 113.49 147.74V180.85Z" stroke="#C7C6C5" stroke-width="0.43" stroke-linecap="round" stroke-linejoin="round"/>
<path d="M111.72 180.63C111.72 184.84 108.3 188.26 104.09 188.26C99.88 188.26 96.46 184.84 96.46 180.63V147.73C96.46 143.52 99.88 140.1 104.09 140.1C108.3 140.1 111.72 143.52 111.72 147.73V180.63Z" stroke="#C7C6C5" stroke-width="0.43" stroke-linecap="round" stroke-linejoin="round"/>
<path d="M104.09 145.36C105.95 145.36 107.46 146.87 107.46 148.73V178.5C107.46 180.36 105.95 181.87 104.09 181.87C102.23 181.87 100.72 180.36 100.72 178.5V148.73C100.72 146.87 102.23 145.36 104.09 145.36Z" stroke="#C7C6C5" stroke-width="0.43" stroke-linecap="round" stroke-linejoin="round"/>
<path d="M97.29 162.74C97.52 162.74 97.72 163.13 97.72 163.62C97.72 164.11 97.53 164.5 97.29 164.5C97.05 164.5 96.87 164.11 96.87 163.62C96.87 163.13 97.06 162.74 97.29 162.74Z" stroke="#C7C6C5" stroke-width="0.43" stroke-linecap="round" stroke-linejoin="round"/>
<path d="M24.4 156.12H7.07999V190.23H24.4V156.12Z" stroke="#C7C6C5" stroke-width="0.43" stroke-linecap="round" stroke-linejoin="round"/>
<path d="M15.74 168.2V157.25" stroke="#C7C6C5" stroke-width="0.43" stroke-linecap="round" stroke-linejoin="round"/>
<path d="M16.65 170.16C16.65 168.94 14.84 168.95 14.84 170.16C14.84 171.06 15.75 170.82 15.75 171.63" stroke="#C7C6C5" stroke-width="0.43" stroke-linecap="round" stroke-linejoin="round"/>
<path d="M15.74 171.63L21.83 173.68C21.83 173.68 22.39 173.89 22.31 174.51C22.23 175.12 21.66 175.06 21.66 175.06H9.83C9.83 175.06 9.26 175.13 9.18 174.51C9.1 173.9 9.66 173.68 9.66 173.68L15.75 171.63H15.74Z" stroke="#C7C6C5" stroke-width="0.43" stroke-linecap="round" stroke-linejoin="round"/>
<path d="M15.74 189.5V176.18" stroke="#C7C6C5" stroke-width="0.43" stroke-linecap="round" stroke-linejoin="round"/>
<path d="M243.24 87.5698H179.27V100.59H243.24V87.5698Z" stroke="#C7C6C5" stroke-width="0.43" stroke-linecap="round" stroke-linejoin="round"/>
<path d="M211.82 90.54C211.82 89.34 210.05 89.36 210.05 90.54C210.05 91.42 210.93 91.18 210.93 91.98" stroke="#C7C6C5" stroke-width="0.43" stroke-linecap="round" stroke-linejoin="round"/>
<path d="M210.93 91.98L216.88 93.98C216.88 93.98 217.43 94.19 217.35 94.79C217.27 95.39 216.71 95.32 216.71 95.32H205.16C205.16 95.32 204.6 95.39 204.52 94.79C204.44 94.19 204.99 93.98 204.99 93.98L210.94 91.98H210.93Z" stroke="#C7C6C5" stroke-width="0.43" stroke-linecap="round" stroke-linejoin="round"/>
<path d="M219.65 94.7598H242.02" stroke="#C7C6C5" stroke-width="0.43" stroke-linecap="round" stroke-linejoin="round"/>
<path d="M180.08 94.7598H201.95" stroke="#C7C6C5" stroke-width="0.43" stroke-linecap="round" stroke-linejoin="round"/>
<path d="M182.43 138.59H165.11V190.22H182.43V138.59Z" stroke="#C7C6C5" stroke-width="0.43" stroke-linecap="round" stroke-linejoin="round"/>
<path d="M174.67 162.45C174.67 161.23 172.86 161.24 172.86 162.45C172.86 163.35 173.77 163.11 173.77 163.92" stroke="#C7C6C5" stroke-width="0.43" stroke-linecap="round" stroke-linejoin="round"/>
<path d="M173.77 163.92L179.86 165.97C179.86 165.97 180.42 166.18 180.34 166.8C180.26 167.41 179.69 167.35 179.69 167.35H167.86C167.86 167.35 167.29 167.42 167.21 166.8C167.13 166.19 167.69 165.97 167.69 165.97L173.78 163.92H173.77Z" stroke="#C7C6C5" stroke-width="0.43" stroke-linecap="round" stroke-linejoin="round"/>
<path d="M173.77 160.49V139.73" stroke="#C7C6C5" stroke-width="0.43" stroke-linecap="round" stroke-linejoin="round"/>
<path d="M173.77 189.51V168.46" stroke="#C7C6C5" stroke-width="0.43" stroke-linecap="round" stroke-linejoin="round"/>
<path d="M24.54 34.2798H7.07999V51.4398H24.54V34.2798Z" stroke="#C7C6C5" stroke-width="0.43" stroke-miterlimit="10"/>
<path d="M24.54 71.77H7.07999V89.39H24.54V71.77Z" stroke="#C7C6C5" stroke-width="0.43" stroke-miterlimit="10"/>
<path d="M10.23 73.2702H21.39C22.29 73.2702 23.01 74.0003 23.01 74.8903V86.2603C23.01 87.1603 22.28 87.8802 21.39 87.8802H10.23C9.32999 87.8802 8.60999 87.1503 8.60999 86.2603V74.8802C8.60999 73.9802 9.33999 73.2603 10.23 73.2603V73.2702Z" stroke="#C7C6C5" stroke-width="0.43" stroke-miterlimit="10"/>
<path d="M10.23 73.2702H21.39C22.29 73.2702 23.01 74.0003 23.01 74.8903V86.2603C23.01 87.1603 22.28 87.8802 21.39 87.8802H10.23C9.32999 87.8802 8.60999 87.1503 8.60999 86.2603V74.8802C8.60999 73.9802 9.33999 73.2603 10.23 73.2603V73.2702Z" stroke="#C7C6C5" stroke-width="0.43" stroke-miterlimit="10"/>
<path d="M11.76 75.5101C11.76 76.0301 11.34 76.4601 10.81 76.4601C10.28 76.4601 9.85999 76.0401 9.85999 75.5101C9.85999 74.9801 10.28 74.5601 10.81 74.5601C11.34 74.5601 11.76 74.9801 11.76 75.5101Z" stroke="#C7C6C5" stroke-width="0.43" stroke-miterlimit="10"/>
<path d="M13.41 79.8701H8.03V81.3001H13.41V79.8701Z" stroke="#C7C6C5" stroke-width="0.43" stroke-miterlimit="10"/>
<path d="M24.54 10.46H7.07999V34.28H24.54V10.46Z" stroke="#C7C6C5" stroke-width="0.43" stroke-miterlimit="10"/>
<path d="M24.54 51.4399H7.07999V71.9399H24.54V51.4399Z" stroke="#C7C6C5" stroke-width="0.43" stroke-miterlimit="10"/>
<path d="M24.54 89.3901H7.07999V101.75H24.54V89.3901Z" stroke="#C7C6C5" stroke-width="0.43" stroke-miterlimit="10"/>
<path d="M11.59 44.54C13.04 44.54 14.21 45.72 14.21 47.16C14.21 48.6 13.04 49.78 11.59 49.78C10.14 49.78 8.97 48.61 8.97 47.16C8.97 45.71 10.15 44.54 11.59 44.54Z" stroke="#C7C6C5" stroke-width="0.43" stroke-miterlimit="10"/>
<path d="M11.59 49.78C13.037 49.78 14.21 48.607 14.21 47.16C14.21 45.7131 13.037 44.54 11.59 44.54C10.143 44.54 8.97 45.7131 8.97 47.16C8.97 48.607 10.143 49.78 11.59 49.78Z" stroke="#C7C6C5" stroke-width="0.43" stroke-miterlimit="10"/>
<path d="M11.59 35.9399C13.04 35.9399 14.21 37.1199 14.21 38.5599C14.21 39.9999 13.04 41.1799 11.59 41.1799C10.14 41.1799 8.97 40.0099 8.97 38.5599C8.97 37.1099 10.15 35.9399 11.59 35.9399Z" stroke="#C7C6C5" stroke-width="0.43" stroke-miterlimit="10"/>
<path d="M11.59 41.1902C13.037 41.1902 14.21 40.0172 14.21 38.5702C14.21 37.1232 13.037 35.9502 11.59 35.9502C10.143 35.9502 8.97 37.1232 8.97 38.5702C8.97 40.0172 10.143 41.1902 11.59 41.1902Z" stroke="#C7C6C5" stroke-width="0.43" stroke-miterlimit="10"/>
<path d="M19.5 44.54C20.95 44.54 22.12 45.72 22.12 47.16C22.12 48.6 20.95 49.78 19.5 49.78C18.05 49.78 16.88 48.61 16.88 47.16C16.88 45.71 18.06 44.54 19.5 44.54Z" stroke="#C7C6C5" stroke-width="0.43" stroke-miterlimit="10"/>
<path d="M19.5 49.78C20.947 49.78 22.12 48.607 22.12 47.16C22.12 45.7131 20.947 44.54 19.5 44.54C18.053 44.54 16.88 45.7131 16.88 47.16C16.88 48.607 18.053 49.78 19.5 49.78Z" stroke="#C7C6C5" stroke-width="0.43" stroke-miterlimit="10"/>
<path d="M19.5 35.9399C20.95 35.9399 22.12 37.1199 22.12 38.5599C22.12 39.9999 20.95 41.1799 19.5 41.1799C18.05 41.1799 16.88 40.0099 16.88 38.5599C16.88 37.1099 18.06 35.9399 19.5 35.9399Z" stroke="#C7C6C5" stroke-width="0.43" stroke-miterlimit="10"/>
<path d="M19.5 41.1902C20.947 41.1902 22.12 40.0172 22.12 38.5702C22.12 37.1232 20.947 35.9502 19.5 35.9502C18.053 35.9502 16.88 37.1232 16.88 38.5702C16.88 40.0172 18.053 41.1902 19.5 41.1902Z" stroke="#C7C6C5" stroke-width="0.43" stroke-miterlimit="10"/>
<path d="M24.54 101.75H7.07999V135.86H24.54V101.75Z" stroke="#C7C6C5" stroke-width="0.43" stroke-miterlimit="10"/>
<path d="M17.19 120.8L14.44 118.05" stroke="#C7C6C5" stroke-width="0.43" stroke-miterlimit="10" stroke-linecap="round"/>
<path d="M17.19 118.05L14.44 120.8" stroke="#C7C6C5" stroke-width="0.43" stroke-miterlimit="10" stroke-linecap="round"/>
<path d="M15.81 116.17V122.67" stroke="#C7C6C5" stroke-width="0.43" stroke-miterlimit="10" stroke-linecap="round"/>
<path d="M12.56 119.42H19.06" stroke="#C7C6C5" stroke-width="0.43" stroke-miterlimit="10" stroke-linecap="round"/>
<path d="M173.68 10.46H163.24C162.848 10.46 162.53 10.7778 162.53 11.17V21.61C162.53 22.0021 162.848 22.32 163.24 22.32H173.68C174.072 22.32 174.39 22.0021 174.39 21.61V11.17C174.39 10.7778 174.072 10.46 173.68 10.46Z" stroke="#C7C6C5" stroke-width="0.43" stroke-linecap="round" stroke-linejoin="round"/>
<path d="M230.01 10.46H219.57C219.178 10.46 218.86 10.7778 218.86 11.17V21.61C218.86 22.0021 219.178 22.32 219.57 22.32H230.01C230.402 22.32 230.72 22.0021 230.72 21.61V11.17C230.72 10.7778 230.402 10.46 230.01 10.46Z" stroke="#C7C6C5" stroke-width="0.43" stroke-linecap="round" stroke-linejoin="round"/>
<path d="M175.31 12.3102C175.31 12.3102 175.28 11.1802 176.44 11.1802H216.8C217.99 11.1802 217.93 12.3102 217.93 12.3102V62.2602C217.93 62.2602 217.96 63.3902 216.8 63.3902H176.44C175.26 63.3902 175.31 62.2602 175.31 62.2602V12.3102Z" stroke="#C7C6C5" stroke-width="0.43" stroke-miterlimit="10"/>
<path d="M194.8 12.9902H178.55C178.014 12.9902 177.58 13.4245 177.58 13.9602V23.7702C177.58 24.306 178.014 24.7402 178.55 24.7402H194.8C195.336 24.7402 195.77 24.306 195.77 23.7702V13.9602C195.77 13.4245 195.336 12.9902 194.8 12.9902Z" stroke="#C7C6C5" stroke-width="0.43" stroke-miterlimit="10"/>
<path d="M214.69 12.9902H198.44C197.904 12.9902 197.47 13.4245 197.47 13.9602V23.7702C197.47 24.306 197.904 24.7402 198.44 24.7402H214.69C215.226 24.7402 215.66 24.306 215.66 23.7702V13.9602C215.66 13.4245 215.226 12.9902 214.69 12.9902Z" stroke="#C7C6C5" stroke-width="0.43" stroke-miterlimit="10"/>
<path d="M175.31 25.8901H217.93" stroke="#C7C6C5" stroke-width="0.43" stroke-miterlimit="10"/>
<path d="M217.93 16.5502C217.21 16.5502 217.22 15.7002 217.22 15.7002V12.3002C217.22 12.2102 217.2 12.0402 217.12 11.9602C217.05 11.8902 216.91 11.8702 216.8 11.8702H176.44C176.29 11.8702 176.19 11.9002 176.13 11.9602C176.04 12.0602 176.02 12.2602 176.02 12.2802V15.7002C176.02 15.7002 176.05 16.5502 175.31 16.5502C174.57 16.5502 174.6 15.7002 174.6 15.7002V12.3102C174.6 12.1802 174.62 11.7702 174.84 11.3602C175.15 10.7802 175.72 10.4702 176.44 10.4702H216.8C217.5 10.4702 217.92 10.7602 218.15 11.0002C218.66 11.5402 218.65 12.2602 218.64 12.3502V15.7202C218.64 15.7202 218.66 16.5702 217.93 16.5702V16.5502Z" stroke="#C7C6C5" stroke-width="0.43" stroke-miterlimit="10"/>
<path d="M175.31 15.7004V12.3004C175.31 12.3004 175.28 11.1704 176.44 11.1704H216.8C217.99 11.1704 217.93 12.3004 217.93 12.3004V15.7004" stroke="#C7C6C5" stroke-width="0.43" stroke-miterlimit="10" stroke-linecap="round"/>
<path d="M252.1 178.37H262.54C262.93 178.37 263.25 178.69 263.25 179.08V189.52C263.25 189.91 262.93 190.23 262.54 190.23H252.1C251.71 190.23 251.39 189.91 251.39 189.52V179.08C251.39 178.69 251.71 178.37 252.1 178.37Z" stroke="#C7C6C5" stroke-width="0.43" stroke-linecap="round" stroke-linejoin="round"/>
<path d="M195.78 178.37H206.22C206.61 178.37 206.93 178.69 206.93 179.08V189.52C206.93 189.91 206.61 190.23 206.22 190.23H195.78C195.39 190.23 195.07 189.91 195.07 189.52V179.08C195.07 178.69 195.39 178.37 195.78 178.37Z" stroke="#C7C6C5" stroke-width="0.43" stroke-linecap="round" stroke-linejoin="round"/>
<path d="M250.47 188.38C250.47 188.38 250.5 189.51 249.34 189.51H208.98C207.79 189.51 207.85 188.38 207.85 188.38V138.43C207.85 138.43 207.82 137.3 208.98 137.3H249.34C250.52 137.3 250.47 138.43 250.47 138.43V188.38Z" stroke="#C7C6C5" stroke-width="0.43" stroke-miterlimit="10"/>
<path d="M247.23 175.95H230.98C230.444 175.95 230.01 176.384 230.01 176.92V186.73C230.01 187.265 230.444 187.7 230.98 187.7H247.23C247.766 187.7 248.2 187.265 248.2 186.73V176.92C248.2 176.384 247.766 175.95 247.23 175.95Z" stroke="#C7C6C5" stroke-width="0.43" stroke-miterlimit="10"/>
<path d="M227.34 175.95H211.09C210.554 175.95 210.12 176.384 210.12 176.92V186.73C210.12 187.265 210.554 187.7 211.09 187.7H227.34C227.876 187.7 228.31 187.265 228.31 186.73V176.92C228.31 176.384 227.876 175.95 227.34 175.95Z" stroke="#C7C6C5" stroke-width="0.43" stroke-miterlimit="10"/>
<path d="M250.47 174.79H207.85" stroke="#C7C6C5" stroke-width="0.43" stroke-miterlimit="10"/>
<path d="M207.85 184.13C208.57 184.13 208.56 184.98 208.56 184.98V188.38C208.56 188.47 208.58 188.64 208.66 188.72C208.73 188.79 208.87 188.81 208.98 188.81H249.34C249.49 188.81 249.59 188.78 249.65 188.72C249.74 188.62 249.76 188.42 249.76 188.4V184.98C249.76 184.98 249.73 184.13 250.47 184.13C251.21 184.13 251.18 184.98 251.18 184.98V188.37C251.18 188.5 251.16 188.91 250.94 189.32C250.63 189.9 250.06 190.21 249.34 190.21H208.98C208.28 190.21 207.86 189.92 207.63 189.68C207.12 189.14 207.13 188.42 207.14 188.33V184.96C207.14 184.96 207.12 184.11 207.85 184.11V184.13Z" stroke="#C7C6C5" stroke-width="0.43" stroke-miterlimit="10"/>
<path d="M250.47 184.99V188.39C250.47 188.39 250.5 189.52 249.34 189.52H208.98C207.79 189.52 207.85 188.39 207.85 188.39V184.99" stroke="#C7C6C5" stroke-width="0.43" stroke-miterlimit="10" stroke-linecap="round"/>
<path d="M118.07 177.42H142.34C142.73 177.42 143.05 177.74 143.05 178.13V189.35C143.05 189.74 142.73 190.06 142.34 190.06H118.07C117.68 190.06 117.36 189.74 117.36 189.35V178.13C117.36 177.74 117.68 177.42 118.07 177.42Z" stroke="#C7C6C5" stroke-width="0.43" stroke-linecap="round" stroke-linejoin="round"/>
<path d="M120.91 183.46C120.91 186.12 125.07 188.28 130.2 188.28C135.33 188.28 139.49 186.12 139.49 183.46C139.49 180.8 135.33 178.64 130.2 178.64C125.07 178.64 120.91 180.8 120.91 183.46Z" stroke="#C7C6C5" stroke-width="0.43" stroke-miterlimit="10"/>
<path d="M120.91 183.46C120.91 186.12 125.07 188.28 130.2 188.28C135.33 188.28 139.49 186.12 139.49 183.46C139.49 180.8 135.33 178.64 130.2 178.64C125.07 178.64 120.91 180.8 120.91 183.46Z" stroke="#C7C6C5" stroke-width="0.43" stroke-linecap="round" stroke-linejoin="round"/>
<path d="M132.55 188.51C132.55 188.93 132.89 189.26 133.3 189.26C133.71 189.26 134.05 188.92 134.05 188.51C134.05 188.1 133.71 187.76 133.3 187.76C132.89 187.76 132.55 188.1 132.55 188.51Z" stroke="#C7C6C5" stroke-width="0.43" stroke-miterlimit="10"/>
<path d="M132.55 188.51C132.55 188.93 132.89 189.26 133.3 189.26C133.71 189.26 134.05 188.92 134.05 188.51C134.05 188.1 133.71 187.76 133.3 187.76C132.89 187.76 132.55 188.1 132.55 188.51Z" stroke="#C7C6C5" stroke-width="0.43" stroke-linecap="round" stroke-linejoin="round"/>
<path d="M126.24 188.51C126.24 188.93 126.58 189.26 126.99 189.26C127.4 189.26 127.74 188.92 127.74 188.51C127.74 188.1 127.4 187.76 126.99 187.76C126.58 187.76 126.24 188.1 126.24 188.51Z" stroke="#C7C6C5" stroke-width="0.43" stroke-miterlimit="10"/>
<path d="M126.24 188.51C126.24 188.93 126.58 189.26 126.99 189.26C127.4 189.26 127.74 188.92 127.74 188.51C127.74 188.1 127.4 187.76 126.99 187.76C126.58 187.76 126.24 188.1 126.24 188.51Z" stroke="#C7C6C5" stroke-width="0.43" stroke-linecap="round" stroke-linejoin="round"/>
<path d="M129.77 186.14C129.77 185.9 129.96 185.71 130.2 185.71C130.44 185.71 130.63 185.9 130.63 186.14L130.76 188.47C130.76 188.78 130.51 189.03 130.19 189.03C129.87 189.03 129.63 188.78 129.63 188.47L129.76 186.14H129.77Z" stroke="#C7C6C5" stroke-width="0.43" stroke-miterlimit="10"/>
<path d="M129.77 186.14C129.77 185.9 129.96 185.71 130.2 185.71C130.44 185.71 130.63 185.9 130.63 186.14L130.76 188.47C130.76 188.78 130.51 189.03 130.19 189.03C129.87 189.03 129.63 188.78 129.63 188.47L129.76 186.14H129.77Z" stroke="#C7C6C5" stroke-width="0.43" stroke-linecap="round" stroke-linejoin="round"/>
<path d="M136.8 138.38H118.57V151.1H136.8V138.38Z" stroke="#C7C6C5" stroke-width="0.43" stroke-linecap="round" stroke-linejoin="round"/>
<path d="M127.54 149.16C125.1 149.16 123.12 147.18 123.12 144.74C123.12 142.3 125.1 140.32 127.54 140.32C129.98 140.32 131.96 142.3 131.96 144.74C131.96 147.18 129.98 149.16 127.54 149.16Z" stroke="#C7C6C5" stroke-width="0.43" stroke-linecap="round" stroke-linejoin="round"/>
<path d="M127.54 149.16C129.8 149.16 131.11 147.32 131.11 145.06C131.11 143.25 129.64 141.78 127.83 141.78C126.38 141.78 125.21 142.95 125.21 144.4C125.21 145.56 126.15 146.5 127.31 146.5C128.24 146.5 128.99 145.75 128.99 144.82C128.99 144.08 128.39 143.48 127.65 143.48C127.06 143.48 126.57 143.96 126.57 144.56C126.57 145.03 126.95 145.42 127.43 145.42C127.81 145.42 128.12 145.11 128.12 144.73C128.12 144.43 127.87 144.18 127.57 144.18C127.33 144.18 127.13 144.38 127.13 144.62" stroke="#C7C6C5" stroke-width="0.43" stroke-linecap="round" stroke-linejoin="round"/>
<path d="M127.54 145.36C127.88 145.36 128.16 145.08 128.16 144.74C128.16 144.4 127.88 144.12 127.54 144.12C127.2 144.12 126.92 144.4 126.92 144.74C126.92 145.08 127.2 145.36 127.54 145.36Z" fill="#C7C6C5"/>
<path d="M157.11 172.13C159.49 172.13 159.49 173.98 159.49 174.51V189.35C159.49 189.88 159.06 190.32 158.52 190.32H148.7C148.17 190.32 147.73 189.89 147.73 189.35V174.51C147.73 173.98 147.73 172.13 150.11 172.13H157.11Z" stroke="#C7C6C5" stroke-width="0.43" stroke-miterlimit="10"/>
<path d="M150.65 174.22H156.58C157.09 174.22 157.51 174.63 157.51 175.15V186.64C157.51 187.15 157.09 187.57 156.58 187.57H150.65C150.14 187.57 149.72 187.15 149.72 186.64V175.15C149.72 174.64 150.14 174.22 150.65 174.22Z" stroke="#C7C6C5" stroke-width="0.43" stroke-miterlimit="10"/>
<path d="M152.08 187.56C152.08 186.71 152.77 186.03 153.61 186.03C154.45 186.03 155.14 186.72 155.14 187.56" stroke="#C7C6C5" stroke-width="0.43" stroke-miterlimit="10"/>
<path d="M52.05 84.9297C52.05 84.9297 51.16 84.2397 50.55 84.2397C50.16 84.2397 48.99 84.9897 48.99 90.1297C48.99 95.2697 50.16 96.0197 50.55 96.0197C51.38 96.0197 52.04 95.3298 52.04 95.3298" stroke="#C7C6C5" stroke-width="0.43" stroke-miterlimit="10"/>
<path d="M61.19 96.0197C61.58 96.0197 61.9 95.6997 61.9 95.3097V84.9497C61.9 84.5597 61.58 84.2397 61.19 84.2397H52.83C52.44 84.2397 51.27 84.9897 51.27 90.1297C51.27 95.2697 52.44 96.0197 52.83 96.0197H61.2H61.19Z" stroke="#C7C6C5" stroke-width="0.43" stroke-miterlimit="10"/>
<path d="M62.47 103.85C62.47 103.85 61.78 104.75 61.78 105.35C61.78 105.74 62.53 106.91 67.67 106.91C72.81 106.91 73.56 105.74 73.56 105.35C73.56 104.52 72.87 103.86 72.87 103.86" stroke="#C7C6C5" stroke-width="0.43" stroke-miterlimit="10"/>
<path d="M73.57 94.7198C73.57 94.3298 73.25 94.0098 72.86 94.0098H62.5C62.11 94.0098 61.79 94.3298 61.79 94.7198V103.08C61.79 103.47 62.54 104.64 67.68 104.64C72.82 104.64 73.57 103.47 73.57 103.08V94.7098V94.7198Z" stroke="#C7C6C5" stroke-width="0.43" stroke-miterlimit="10"/>
<path d="M62.52 62.1498C62.52 62.1498 61.83 61.2498 61.83 60.6498C61.83 60.2598 62.58 59.0898 67.72 59.0898C72.86 59.0898 73.61 60.2598 73.61 60.6498C73.61 61.4798 72.92 62.1398 72.92 62.1398" stroke="#C7C6C5" stroke-width="0.43" stroke-miterlimit="10"/>
<path d="M73.61 71.2896C73.61 71.6796 73.29 71.9996 72.9 71.9996H62.54C62.15 71.9996 61.83 71.6796 61.83 71.2896V62.9296C61.83 62.5396 62.58 61.3696 67.72 61.3696C72.86 61.3696 73.61 62.5396 73.61 62.9296V71.2996V71.2896Z" stroke="#C7C6C5" stroke-width="0.43" stroke-miterlimit="10"/>
<path d="M52.05 70.2999C52.05 70.2999 51.16 69.6099 50.55 69.6099C50.16 69.6099 48.99 70.3599 48.99 75.4999C48.99 80.6399 50.16 81.3899 50.55 81.3899C51.38 81.3899 52.04 80.6999 52.04 80.6999" stroke="#C7C6C5" stroke-width="0.43" stroke-miterlimit="10"/>
<path d="M61.19 81.3899C61.58 81.3899 61.9 81.0699 61.9 80.6799V70.3199C61.9 69.9299 61.58 69.6099 61.19 69.6099H52.83C52.44 69.6099 51.27 70.3599 51.27 75.4999C51.27 80.6399 52.44 81.3899 52.83 81.3899H61.2H61.19Z" stroke="#C7C6C5" stroke-width="0.43" stroke-miterlimit="10"/>
<path d="M82.78 84.9297C82.78 84.9297 83.67 84.2397 84.28 84.2397C84.67 84.2397 85.84 84.9897 85.84 90.1297C85.84 95.2697 84.67 96.0197 84.28 96.0197C83.45 96.0197 82.79 95.3298 82.79 95.3298" stroke="#C7C6C5" stroke-width="0.43" stroke-miterlimit="10"/>
<path d="M73.64 96.0197C73.25 96.0197 72.93 95.6997 72.93 95.3097V84.9497C72.93 84.5597 73.25 84.2397 73.64 84.2397H82C82.39 84.2397 83.56 84.9897 83.56 90.1297C83.56 95.2697 82.39 96.0197 82 96.0197H73.63H73.64Z" stroke="#C7C6C5" stroke-width="0.43" stroke-miterlimit="10"/>
<path d="M82.78 70.2999C82.78 70.2999 83.67 69.6099 84.28 69.6099C84.67 69.6099 85.84 70.3599 85.84 75.4999C85.84 80.6399 84.67 81.3899 84.28 81.3899C83.45 81.3899 82.79 80.6999 82.79 80.6999" stroke="#C7C6C5" stroke-width="0.43" stroke-miterlimit="10"/>
<path d="M73.64 81.3899C73.25 81.3899 72.93 81.0699 72.93 80.6799V70.3199C72.93 69.9299 73.25 69.6099 73.64 69.6099H82C82.39 69.6099 83.56 70.3599 83.56 75.4999C83.56 80.6399 82.39 81.3899 82 81.3899H73.63H73.64Z" stroke="#C7C6C5" stroke-width="0.43" stroke-miterlimit="10"/>
<path d="M78.94 66.0601H56.41V99.6401H78.94V66.0601Z" stroke="#C7C6C5" stroke-width="0.43" stroke-miterlimit="10"/>
<path d="M98.86 47.2798C99.43 50.8898 96.98 54.2698 93.37 54.8498C89.76 55.4198 86.38 52.9698 85.8 49.3598C85.23 45.7498 87.68 42.3698 91.29 41.7898C94.9 41.2198 98.28 43.6698 98.86 47.2798Z" stroke="#C7C6C5" stroke-width="0.43" stroke-miterlimit="10"/>
<path d="M109.92 51.7602C110.65 56.3502 107.52 60.6602 102.93 61.3902C98.34 62.1202 94.03 58.9902 93.3 54.4002C92.57 49.8102 95.7 45.5002 100.29 44.7702C104.88 44.0402 109.19 47.1702 109.92 51.7602Z" stroke="#C7C6C5" stroke-width="0.43" stroke-miterlimit="10"/>
<path d="M96.76 74.0601V73.3601L98.98 71.2501C99.17 71.0701 99.31 70.9201 99.4 70.7901C99.49 70.6601 99.55 70.5301 99.58 70.4201C99.61 70.3001 99.62 70.2001 99.62 70.1001C99.62 69.8401 99.53 69.6401 99.36 69.5001C99.18 69.3601 98.93 69.2901 98.58 69.2901C98.31 69.2901 98.06 69.3401 97.84 69.4301C97.62 69.5301 97.43 69.6701 97.27 69.8701L96.54 69.3101C96.76 69.0201 97.05 68.7901 97.42 68.6301C97.79 68.4701 98.21 68.3901 98.66 68.3901C99.07 68.3901 99.42 68.4601 99.72 68.5901C100.02 68.7201 100.25 68.9101 100.42 69.1501C100.58 69.3901 100.66 69.6801 100.66 70.0101C100.66 70.1901 100.64 70.3701 100.59 70.5501C100.54 70.7301 100.45 70.9201 100.32 71.1101C100.19 71.3101 99.99 71.5301 99.74 71.7701L97.83 73.5901L97.61 73.2001H100.88V74.0801H96.75L96.76 74.0601Z" fill="#12100B"/>
<path d="M102.38 74.06V68.86L102.84 69.33H101.2V68.46H103.42V74.06H102.38Z" fill="#12100B"/>
<path d="M104.58 75.27L105.04 73.5L105.18 74.09C104.99 74.09 104.84 74.03 104.71 73.92C104.59 73.8 104.52 73.65 104.52 73.45C104.52 73.25 104.58 73.09 104.71 72.97C104.84 72.85 104.99 72.79 105.17 72.79C105.35 72.79 105.51 72.85 105.63 72.97C105.75 73.09 105.81 73.25 105.81 73.45C105.81 73.5 105.81 73.56 105.79 73.62C105.78 73.68 105.76 73.75 105.74 73.83C105.72 73.91 105.68 74.01 105.62 74.13L105.21 75.26H104.56L104.58 75.27Z" fill="#12100B"/>
<path d="M108.38 68.3801C108.89 68.3801 109.33 68.4901 109.69 68.7001C110.05 68.9201 110.33 69.2301 110.52 69.6401C110.71 70.0501 110.81 70.5601 110.81 71.1601C110.81 71.8001 110.69 72.3401 110.46 72.7801C110.23 73.2201 109.91 73.5601 109.5 73.7901C109.09 74.0201 108.61 74.1301 108.07 74.1301C107.79 74.1301 107.52 74.1001 107.26 74.0401C107 73.9801 106.78 73.8901 106.6 73.7701L106.98 72.9901C107.14 73.0901 107.3 73.1601 107.48 73.2001C107.66 73.2401 107.85 73.2601 108.04 73.2601C108.57 73.2601 108.99 73.1001 109.3 72.7701C109.61 72.4401 109.76 71.9701 109.76 71.3301C109.76 71.2301 109.76 71.1101 109.76 70.9701C109.76 70.8301 109.74 70.7001 109.7 70.5601L110.02 70.9101C109.93 71.1301 109.8 71.3101 109.63 71.4601C109.46 71.6101 109.26 71.7201 109.03 71.7901C108.8 71.8601 108.55 71.9001 108.27 71.9001C107.91 71.9001 107.58 71.8301 107.29 71.6901C107 71.5501 106.77 71.3501 106.6 71.0901C106.43 70.8301 106.34 70.5301 106.34 70.1801C106.34 69.8101 106.43 69.4901 106.61 69.2201C106.79 68.9501 107.04 68.7401 107.35 68.5901C107.66 68.4401 108.01 68.3701 108.39 68.3701L108.38 68.3801ZM108.44 69.2001C108.23 69.2001 108.04 69.2401 107.87 69.3201C107.7 69.4001 107.58 69.5101 107.48 69.6501C107.39 69.7901 107.34 69.9601 107.34 70.1601C107.34 70.4501 107.44 70.6901 107.64 70.8601C107.84 71.0301 108.11 71.1201 108.46 71.1201C108.68 71.1201 108.88 71.0801 109.05 71.0001C109.22 70.9201 109.35 70.8001 109.45 70.6601C109.55 70.5101 109.59 70.3501 109.59 70.1701C109.59 69.9901 109.55 69.8401 109.45 69.6901C109.36 69.5501 109.23 69.4401 109.06 69.3501C108.89 69.2701 108.68 69.2201 108.43 69.2201L108.44 69.2001Z" fill="#12100B"/>
<path d="M113.39 68.3801C113.9 68.3801 114.34 68.4901 114.7 68.7001C115.06 68.9201 115.34 69.2301 115.53 69.6401C115.72 70.0501 115.82 70.5601 115.82 71.1601C115.82 71.8001 115.7 72.3401 115.47 72.7801C115.24 73.2201 114.92 73.5601 114.51 73.7901C114.1 74.0201 113.62 74.1301 113.08 74.1301C112.8 74.1301 112.53 74.1001 112.27 74.0401C112.01 73.9801 111.79 73.8901 111.61 73.7701L111.99 72.9901C112.14 73.0901 112.31 73.1601 112.49 73.2001C112.67 73.2401 112.86 73.2601 113.05 73.2601C113.58 73.2601 114 73.1001 114.31 72.7701C114.62 72.4401 114.77 71.9701 114.77 71.3301C114.77 71.2301 114.77 71.1101 114.77 70.9701C114.77 70.8301 114.75 70.7001 114.71 70.5601L115.03 70.9101C114.94 71.1301 114.81 71.3101 114.64 71.4601C114.47 71.6101 114.27 71.7201 114.04 71.7901C113.81 71.8601 113.56 71.9001 113.28 71.9001C112.92 71.9001 112.59 71.8301 112.3 71.6901C112.01 71.5501 111.78 71.3501 111.61 71.0901C111.44 70.8301 111.35 70.5301 111.35 70.1801C111.35 69.8101 111.44 69.4901 111.62 69.2201C111.8 68.9501 112.05 68.7401 112.36 68.5901C112.67 68.4401 113.02 68.3701 113.4 68.3701L113.39 68.3801ZM113.45 69.2001C113.24 69.2001 113.05 69.2401 112.88 69.3201C112.71 69.4001 112.59 69.5101 112.49 69.6501C112.4 69.7901 112.35 69.9601 112.35 70.1601C112.35 70.4501 112.45 70.6901 112.65 70.8601C112.85 71.0301 113.12 71.1201 113.47 71.1201C113.69 71.1201 113.89 71.0801 114.06 71.0001C114.23 70.9201 114.36 70.8001 114.46 70.6601C114.56 70.5101 114.6 70.3501 114.6 70.1701C114.6 69.9901 114.55 69.8401 114.46 69.6901C114.37 69.5501 114.24 69.4401 114.07 69.3501C113.9 69.2701 113.69 69.2201 113.44 69.2201L113.45 69.2001Z" fill="#12100B"/>
<path d="M43.06 174.84V174.12L45.82 170.51H46.93L44.21 174.12L43.69 173.96H48.13V174.84H43.06ZM46.13 176.11V174.84L46.16 173.96V172.83H47.14V176.11H46.13Z" fill="#12100B"/>
<path d="M48.77 177.32L49.23 175.55L49.37 176.14C49.18 176.14 49.03 176.08 48.9 175.97C48.77 175.85 48.71 175.7 48.71 175.5C48.71 175.3 48.77 175.14 48.9 175.02C49.02 174.9 49.18 174.84 49.36 174.84C49.54 174.84 49.7 174.9 49.82 175.02C49.94 175.14 50 175.3 50 175.5C50 175.55 50 175.61 49.98 175.67C49.97 175.73 49.95 175.8 49.93 175.88C49.91 175.96 49.87 176.06 49.81 176.18L49.4 177.31H48.75L48.77 177.32Z" fill="#12100B"/>
<path d="M50.69 176.11V175.41L52.91 173.3C53.1 173.12 53.24 172.97 53.33 172.84C53.42 172.71 53.48 172.58 53.51 172.47C53.54 172.35 53.55 172.25 53.55 172.15C53.55 171.89 53.46 171.69 53.29 171.55C53.11 171.41 52.86 171.34 52.51 171.34C52.24 171.34 51.99 171.39 51.77 171.48C51.55 171.58 51.36 171.72 51.2 171.92L50.47 171.36C50.69 171.07 50.98 170.84 51.35 170.68C51.72 170.52 52.14 170.44 52.59 170.44C53 170.44 53.35 170.51 53.65 170.64C53.95 170.77 54.18 170.96 54.35 171.2C54.51 171.44 54.59 171.73 54.59 172.06C54.59 172.24 54.57 172.42 54.52 172.6C54.47 172.78 54.38 172.97 54.25 173.16C54.12 173.36 53.92 173.58 53.67 173.82L51.76 175.64L51.54 175.25H54.81V176.13H50.68L50.69 176.11Z" fill="#12100B"/>
<path d="M57.76 176.19C57.32 176.19 56.92 176.08 56.56 175.85C56.21 175.63 55.93 175.3 55.72 174.87C55.52 174.44 55.42 173.92 55.42 173.31C55.42 172.7 55.52 172.18 55.72 171.75C55.92 171.32 56.2 170.99 56.56 170.77C56.91 170.55 57.31 170.43 57.76 170.43C58.21 170.43 58.61 170.54 58.96 170.77C59.31 170.99 59.59 171.32 59.8 171.75C60.01 172.18 60.11 172.7 60.11 173.31C60.11 173.92 60.01 174.44 59.8 174.87C59.59 175.3 59.32 175.63 58.96 175.85C58.61 176.07 58.21 176.19 57.76 176.19ZM57.76 175.29C58.02 175.29 58.25 175.22 58.44 175.08C58.63 174.94 58.78 174.72 58.89 174.43C59 174.14 59.05 173.77 59.05 173.32C59.05 172.87 59 172.49 58.89 172.2C58.78 171.91 58.63 171.69 58.44 171.55C58.25 171.41 58.02 171.34 57.76 171.34C57.5 171.34 57.29 171.41 57.09 171.55C56.89 171.69 56.74 171.91 56.63 172.2C56.52 172.49 56.47 172.86 56.47 173.32C56.47 173.78 56.52 174.14 56.63 174.43C56.74 174.72 56.89 174.94 57.09 175.08C57.28 175.22 57.51 175.29 57.76 175.29Z" fill="#12100B"/>
<path d="M128.81 163.87V163.15L131.57 159.54H132.68L129.96 163.15L129.44 162.99H133.88V163.87H128.81ZM131.88 165.14V163.87L131.91 162.99V161.86H132.89V165.14H131.88Z" fill="#12100B"/>
<path d="M134.52 166.35L134.98 164.58L135.12 165.17C134.93 165.17 134.78 165.11 134.65 165C134.52 164.88 134.46 164.73 134.46 164.53C134.46 164.33 134.52 164.17 134.65 164.05C134.77 163.93 134.93 163.87 135.11 163.87C135.29 163.87 135.45 163.93 135.57 164.05C135.69 164.17 135.75 164.33 135.75 164.53C135.75 164.58 135.75 164.64 135.73 164.7C135.72 164.76 135.7 164.83 135.68 164.91C135.66 164.99 135.62 165.09 135.56 165.21L135.15 166.34H134.5L134.52 166.35Z" fill="#12100B"/>
<path d="M136.44 165.14V164.44L138.66 162.33C138.85 162.15 138.99 162 139.08 161.87C139.17 161.74 139.23 161.61 139.26 161.5C139.29 161.38 139.3 161.28 139.3 161.18C139.3 160.92 139.21 160.72 139.04 160.58C138.86 160.44 138.61 160.37 138.26 160.37C137.99 160.37 137.74 160.42 137.52 160.51C137.3 160.61 137.11 160.75 136.95 160.95L136.22 160.39C136.44 160.1 136.73 159.87 137.1 159.71C137.47 159.55 137.89 159.47 138.34 159.47C138.75 159.47 139.1 159.54 139.4 159.67C139.7 159.8 139.93 159.99 140.1 160.23C140.26 160.47 140.34 160.76 140.34 161.09C140.34 161.27 140.32 161.45 140.27 161.63C140.22 161.81 140.13 162 140 162.19C139.87 162.39 139.67 162.61 139.42 162.85L137.51 164.67L137.29 164.28H140.56V165.16H136.43L136.44 165.14Z" fill="#12100B"/>
<path d="M143.42 165.22C142.96 165.22 142.55 165.15 142.21 165.01C141.87 164.87 141.6 164.68 141.42 164.42C141.23 164.17 141.14 163.87 141.14 163.53C141.14 163.19 141.23 162.9 141.41 162.67C141.59 162.43 141.85 162.26 142.19 162.13C142.53 162.01 142.94 161.95 143.41 161.95C143.88 161.95 144.29 162.01 144.64 162.13C144.99 162.25 145.25 162.43 145.43 162.67C145.61 162.91 145.71 163.19 145.71 163.53C145.71 163.87 145.62 164.17 145.43 164.42C145.24 164.67 144.97 164.87 144.63 165.01C144.29 165.15 143.88 165.22 143.42 165.22ZM143.42 162.49C142.99 162.49 142.62 162.43 142.31 162.32C142 162.21 141.76 162.04 141.59 161.82C141.42 161.6 141.34 161.33 141.34 161.02C141.34 160.71 141.43 160.42 141.6 160.19C141.77 159.96 142.02 159.78 142.33 159.65C142.64 159.52 143.01 159.46 143.42 159.46C143.83 159.46 144.2 159.52 144.52 159.65C144.84 159.78 145.08 159.96 145.26 160.19C145.44 160.42 145.52 160.7 145.52 161.02C145.52 161.34 145.44 161.6 145.27 161.82C145.1 162.04 144.86 162.21 144.55 162.32C144.23 162.44 143.86 162.49 143.43 162.49H143.42ZM143.42 164.4C143.8 164.4 144.11 164.32 144.33 164.16C144.55 164 144.67 163.78 144.67 163.5C144.67 163.22 144.56 163 144.33 162.84C144.11 162.68 143.8 162.6 143.42 162.6C143.04 162.6 142.73 162.68 142.52 162.84C142.31 163 142.19 163.22 142.19 163.5C142.19 163.78 142.3 164 142.52 164.16C142.74 164.32 143.04 164.4 143.42 164.4ZM143.42 161.85C143.75 161.85 144.01 161.78 144.2 161.64C144.39 161.5 144.49 161.31 144.49 161.07C144.49 160.83 144.39 160.62 144.19 160.49C143.99 160.36 143.73 160.28 143.41 160.28C143.09 160.28 142.83 160.35 142.64 160.49C142.45 160.63 142.35 160.82 142.35 161.07C142.35 161.32 142.44 161.5 142.63 161.64C142.82 161.78 143.08 161.85 143.4 161.85H143.42Z" fill="#12100B"/>
<path d="M153.35 122.68V117.48L153.81 117.95H152.17V117.08H154.39V122.68H153.35Z" fill="#12100B"/>
<path d="M155.54 123.89L156 122.12L156.14 122.71C155.95 122.71 155.8 122.65 155.67 122.54C155.55 122.42 155.48 122.27 155.48 122.07C155.48 121.87 155.54 121.71 155.67 121.59C155.8 121.47 155.95 121.41 156.13 121.41C156.31 121.41 156.47 121.47 156.59 121.59C156.71 121.71 156.77 121.87 156.77 122.07C156.77 122.12 156.77 122.18 156.75 122.24C156.75 122.3 156.72 122.37 156.7 122.45C156.68 122.53 156.64 122.63 156.58 122.75L156.17 123.88H155.52L155.54 123.89Z" fill="#12100B"/>
<path d="M157.46 122.68V121.98L159.68 119.87C159.87 119.69 160.01 119.54 160.1 119.41C160.19 119.28 160.25 119.15 160.28 119.04C160.31 118.92 160.32 118.82 160.32 118.72C160.32 118.46 160.23 118.26 160.06 118.12C159.88 117.98 159.62 117.91 159.28 117.91C159.01 117.91 158.76 117.96 158.54 118.05C158.32 118.14 158.13 118.29 157.97 118.49L157.24 117.93C157.46 117.64 157.75 117.41 158.12 117.25C158.49 117.09 158.91 117.01 159.36 117.01C159.77 117.01 160.12 117.08 160.42 117.21C160.72 117.34 160.95 117.53 161.12 117.77C161.28 118.01 161.36 118.3 161.36 118.63C161.36 118.81 161.34 118.99 161.29 119.17C161.24 119.35 161.15 119.54 161.02 119.73C160.89 119.92 160.69 120.15 160.44 120.39L158.53 122.21L158.31 121.82H161.58V122.7H157.45L157.46 122.68Z" fill="#12100B"/>
<path d="M164.44 122.76C163.98 122.76 163.57 122.69 163.23 122.55C162.89 122.41 162.62 122.22 162.44 121.96C162.25 121.71 162.16 121.41 162.16 121.07C162.16 120.73 162.25 120.44 162.43 120.21C162.61 119.97 162.87 119.8 163.21 119.67C163.55 119.54 163.96 119.49 164.43 119.49C164.9 119.49 165.31 119.55 165.66 119.67C166.01 119.79 166.27 119.97 166.45 120.21C166.63 120.45 166.73 120.73 166.73 121.07C166.73 121.41 166.63 121.71 166.44 121.96C166.25 122.21 165.98 122.41 165.64 122.55C165.3 122.69 164.89 122.76 164.43 122.76H164.44ZM164.44 120.03C164.01 120.03 163.64 119.97 163.33 119.86C163.02 119.75 162.78 119.58 162.61 119.36C162.44 119.14 162.36 118.87 162.36 118.56C162.36 118.25 162.45 117.96 162.62 117.73C162.79 117.5 163.04 117.32 163.35 117.19C163.66 117.06 164.03 117 164.44 117C164.85 117 165.22 117.06 165.54 117.19C165.86 117.32 166.1 117.5 166.28 117.73C166.46 117.96 166.54 118.24 166.54 118.56C166.54 118.88 166.46 119.14 166.29 119.36C166.12 119.58 165.88 119.75 165.57 119.86C165.25 119.98 164.88 120.03 164.45 120.03H164.44ZM164.44 121.94C164.82 121.94 165.13 121.86 165.35 121.7C165.57 121.54 165.69 121.32 165.69 121.04C165.69 120.76 165.58 120.54 165.35 120.38C165.13 120.22 164.82 120.14 164.44 120.14C164.06 120.14 163.75 120.22 163.54 120.38C163.33 120.54 163.21 120.76 163.21 121.04C163.21 121.32 163.32 121.54 163.54 121.7C163.76 121.86 164.06 121.94 164.44 121.94ZM164.44 119.39C164.77 119.39 165.03 119.32 165.22 119.18C165.41 119.04 165.51 118.85 165.51 118.61C165.51 118.37 165.41 118.16 165.21 118.03C165.01 117.9 164.75 117.82 164.43 117.82C164.11 117.82 163.85 117.89 163.66 118.03C163.47 118.17 163.37 118.36 163.37 118.61C163.37 118.86 163.46 119.04 163.65 119.18C163.84 119.32 164.1 119.39 164.42 119.39H164.44Z" fill="#12100B"/>
<path d="M219.58 123.38V118.18L220.04 118.65H218.4V117.78H220.62V123.38H219.58Z" fill="#12100B"/>
<path d="M224.07 123.46C223.63 123.46 223.23 123.35 222.87 123.12C222.52 122.9 222.24 122.57 222.03 122.14C221.83 121.71 221.73 121.19 221.73 120.58C221.73 119.97 221.83 119.45 222.03 119.02C222.23 118.59 222.51 118.26 222.87 118.04C223.22 117.82 223.62 117.7 224.07 117.7C224.52 117.7 224.92 117.81 225.27 118.04C225.62 118.26 225.9 118.59 226.11 119.02C226.32 119.45 226.42 119.97 226.42 120.58C226.42 121.19 226.32 121.71 226.11 122.14C225.9 122.57 225.63 122.9 225.27 123.12C224.92 123.34 224.52 123.46 224.07 123.46ZM224.07 122.56C224.33 122.56 224.56 122.49 224.75 122.35C224.94 122.21 225.09 121.99 225.2 121.7C225.31 121.41 225.36 121.04 225.36 120.59C225.36 120.14 225.31 119.76 225.2 119.47C225.09 119.18 224.94 118.96 224.75 118.82C224.56 118.68 224.33 118.61 224.07 118.61C223.81 118.61 223.6 118.68 223.4 118.82C223.2 118.96 223.05 119.18 222.94 119.47C222.83 119.76 222.78 120.13 222.78 120.59C222.78 121.05 222.83 121.41 222.94 121.7C223.05 121.99 223.2 122.21 223.4 122.35C223.59 122.49 223.82 122.56 224.07 122.56Z" fill="#12100B"/>
<path d="M227.06 124.59L227.52 122.82L227.66 123.41C227.47 123.41 227.32 123.35 227.19 123.24C227.07 123.12 227 122.97 227 122.77C227 122.57 227.06 122.41 227.19 122.29C227.32 122.17 227.47 122.11 227.65 122.11C227.83 122.11 227.99 122.17 228.11 122.29C228.23 122.41 228.29 122.57 228.29 122.77C228.29 122.82 228.29 122.88 228.27 122.94C228.26 123 228.24 123.07 228.22 123.15C228.2 123.23 228.16 123.33 228.1 123.45L227.69 124.58H227.04L227.06 124.59Z" fill="#12100B"/>
<path d="M229.79 123.38L232.1 118.2L232.37 118.66H229.19L229.69 118.16V119.62H228.72V117.79H233.07V118.49L230.89 123.39H229.78L229.79 123.38Z" fill="#12100B"/>
<path d="M235.89 123.46C235.45 123.46 235.05 123.35 234.69 123.12C234.34 122.9 234.06 122.57 233.85 122.14C233.65 121.71 233.55 121.19 233.55 120.58C233.55 119.97 233.65 119.45 233.85 119.02C234.05 118.59 234.33 118.26 234.69 118.04C235.04 117.82 235.44 117.7 235.89 117.7C236.34 117.7 236.74 117.81 237.09 118.04C237.44 118.26 237.72 118.59 237.93 119.02C238.14 119.45 238.24 119.97 238.24 120.58C238.24 121.19 238.14 121.71 237.93 122.14C237.72 122.57 237.45 122.9 237.09 123.12C236.74 123.34 236.34 123.46 235.89 123.46ZM235.89 122.56C236.15 122.56 236.38 122.49 236.57 122.35C236.76 122.21 236.91 121.99 237.02 121.7C237.13 121.41 237.18 121.04 237.18 120.59C237.18 120.14 237.13 119.76 237.02 119.47C236.91 119.18 236.76 118.96 236.57 118.82C236.38 118.68 236.15 118.61 235.89 118.61C235.63 118.61 235.42 118.68 235.22 118.82C235.02 118.96 234.87 119.18 234.76 119.47C234.65 119.76 234.6 120.13 234.6 120.59C234.6 121.05 234.65 121.41 234.76 121.7C234.87 121.99 235.02 122.21 235.22 122.35C235.41 122.49 235.64 122.56 235.89 122.56Z" fill="#12100B"/>
<path d="M286.26 153.96V148.76L286.72 149.23H285.08V148.36H287.3V153.96H286.26Z" fill="#12100B"/>
<path d="M288.45 155.17L288.91 153.4L289.05 153.99C288.86 153.99 288.71 153.93 288.58 153.82C288.45 153.7 288.39 153.55 288.39 153.35C288.39 153.15 288.45 152.99 288.58 152.87C288.7 152.75 288.86 152.69 289.04 152.69C289.22 152.69 289.38 152.75 289.5 152.87C289.62 152.99 289.68 153.15 289.68 153.35C289.68 153.4 289.68 153.46 289.66 153.52C289.65 153.58 289.63 153.65 289.61 153.73C289.59 153.81 289.55 153.91 289.49 154.03L289.08 155.16H288.43L288.45 155.17Z" fill="#12100B"/>
<path d="M292.69 154.04C292.23 154.04 291.82 153.97 291.48 153.83C291.14 153.69 290.87 153.5 290.69 153.24C290.5 152.99 290.41 152.69 290.41 152.35C290.41 152.01 290.5 151.72 290.68 151.49C290.86 151.25 291.12 151.08 291.46 150.95C291.8 150.83 292.21 150.77 292.68 150.77C293.15 150.77 293.56 150.83 293.91 150.95C294.26 151.07 294.52 151.25 294.7 151.49C294.88 151.73 294.98 152.01 294.98 152.35C294.98 152.69 294.89 152.99 294.7 153.24C294.51 153.49 294.24 153.69 293.9 153.83C293.56 153.97 293.15 154.04 292.69 154.04ZM292.69 151.31C292.26 151.31 291.89 151.25 291.58 151.14C291.27 151.03 291.03 150.86 290.86 150.64C290.69 150.42 290.61 150.15 290.61 149.84C290.61 149.53 290.7 149.24 290.87 149.01C291.04 148.78 291.29 148.6 291.6 148.47C291.91 148.34 292.28 148.28 292.69 148.28C293.1 148.28 293.47 148.34 293.79 148.47C294.11 148.6 294.35 148.78 294.53 149.01C294.71 149.24 294.79 149.52 294.79 149.84C294.79 150.16 294.71 150.42 294.54 150.64C294.37 150.86 294.13 151.03 293.82 151.14C293.5 151.26 293.13 151.31 292.7 151.31H292.69ZM292.69 153.22C293.07 153.22 293.38 153.14 293.6 152.98C293.82 152.82 293.94 152.6 293.94 152.32C293.94 152.04 293.83 151.82 293.6 151.66C293.38 151.5 293.07 151.42 292.69 151.42C292.31 151.42 292 151.5 291.79 151.66C291.58 151.82 291.46 152.04 291.46 152.32C291.46 152.6 291.57 152.82 291.79 152.98C292.01 153.14 292.31 153.22 292.69 153.22ZM292.69 150.67C293.02 150.67 293.28 150.6 293.47 150.46C293.66 150.32 293.76 150.13 293.76 149.89C293.76 149.65 293.66 149.44 293.46 149.31C293.26 149.18 293 149.1 292.68 149.1C292.36 149.1 292.1 149.17 291.91 149.31C291.72 149.45 291.62 149.64 291.62 149.89C291.62 150.14 291.71 150.32 291.9 150.46C292.09 150.6 292.35 150.67 292.67 150.67H292.69Z" fill="#12100B"/>
<path d="M295.59 153.96V153.26L297.81 151.15C298 150.97 298.14 150.82 298.23 150.69C298.32 150.56 298.38 150.43 298.41 150.32C298.44 150.2 298.45 150.1 298.45 150C298.45 149.74 298.36 149.54 298.19 149.4C298.01 149.26 297.76 149.19 297.41 149.19C297.14 149.19 296.89 149.24 296.67 149.33C296.45 149.42 296.26 149.57 296.1 149.77L295.37 149.21C295.59 148.92 295.88 148.69 296.25 148.53C296.62 148.37 297.04 148.29 297.49 148.29C297.9 148.29 298.25 148.36 298.55 148.49C298.85 148.62 299.08 148.81 299.25 149.05C299.41 149.29 299.49 149.58 299.49 149.91C299.49 150.09 299.47 150.27 299.42 150.45C299.37 150.63 299.28 150.82 299.15 151.01C299.02 151.21 298.82 151.43 298.57 151.67L296.66 153.49L296.44 153.1H299.71V153.98H295.58L295.59 153.96Z" fill="#12100B"/>
<path d="M188.69 77.31V72.11L189.15 72.58H187.51V71.71H189.73V77.31H188.69Z" fill="#12100B"/>
<path d="M193.18 77.3899C192.74 77.3899 192.34 77.2799 191.98 77.0499C191.62 76.8299 191.35 76.4999 191.14 76.0699C190.94 75.6399 190.84 75.1199 190.84 74.5099C190.84 73.8999 190.94 73.3799 191.14 72.9499C191.34 72.5199 191.62 72.1899 191.98 71.9699C192.33 71.7499 192.73 71.6299 193.18 71.6299C193.63 71.6299 194.03 71.7399 194.38 71.9699C194.73 72.1899 195.01 72.5199 195.22 72.9499C195.43 73.3799 195.53 73.8999 195.53 74.5099C195.53 75.1199 195.43 75.6399 195.22 76.0699C195.01 76.4999 194.74 76.8299 194.38 77.0499C194.03 77.2699 193.63 77.3899 193.18 77.3899ZM193.18 76.4899C193.44 76.4899 193.67 76.4199 193.86 76.2799C194.05 76.1399 194.2 75.9199 194.31 75.6299C194.42 75.3399 194.47 74.9699 194.47 74.5199C194.47 74.0699 194.42 73.6899 194.31 73.3999C194.2 73.1099 194.05 72.8899 193.86 72.7499C193.67 72.6099 193.44 72.5399 193.18 72.5399C192.92 72.5399 192.71 72.6099 192.51 72.7499C192.32 72.8899 192.16 73.1099 192.05 73.3999C191.94 73.6899 191.89 74.0599 191.89 74.5199C191.89 74.9799 191.94 75.3399 192.05 75.6299C192.16 75.9199 192.31 76.1399 192.51 76.2799C192.71 76.4199 192.93 76.4899 193.18 76.4899Z" fill="#12100B"/>
<path d="M196.17 78.52L196.63 76.75L196.77 77.34C196.58 77.34 196.43 77.28 196.3 77.17C196.18 77.05 196.11 76.9 196.11 76.7C196.11 76.5 196.17 76.34 196.3 76.22C196.43 76.1 196.58 76.04 196.76 76.04C196.94 76.04 197.1 76.1 197.22 76.22C197.34 76.34 197.4 76.5 197.4 76.7C197.4 76.75 197.4 76.81 197.38 76.87C197.37 76.93 197.35 77 197.33 77.08C197.31 77.16 197.27 77.26 197.21 77.38L196.8 78.51H196.15L196.17 78.52Z" fill="#12100B"/>
<path d="M200.32 77.3899C199.88 77.3899 199.48 77.2799 199.12 77.0499C198.77 76.8299 198.49 76.4999 198.28 76.0699C198.08 75.6399 197.98 75.1199 197.98 74.5099C197.98 73.8999 198.08 73.3799 198.28 72.9499C198.48 72.5199 198.76 72.1899 199.12 71.9699C199.47 71.7499 199.87 71.6299 200.32 71.6299C200.77 71.6299 201.17 71.7399 201.52 71.9699C201.87 72.1899 202.15 72.5199 202.36 72.9499C202.57 73.3799 202.67 73.8999 202.67 74.5099C202.67 75.1199 202.57 75.6399 202.36 76.0699C202.15 76.4999 201.88 76.8299 201.52 77.0499C201.17 77.2699 200.77 77.3899 200.32 77.3899ZM200.32 76.4899C200.58 76.4899 200.81 76.4199 201 76.2799C201.19 76.1399 201.34 75.9199 201.45 75.6299C201.56 75.3399 201.61 74.9699 201.61 74.5199C201.61 74.0699 201.56 73.6899 201.45 73.3999C201.34 73.1099 201.19 72.8899 201 72.7499C200.81 72.6099 200.58 72.5399 200.32 72.5399C200.06 72.5399 199.85 72.6099 199.65 72.7499C199.45 72.8899 199.3 73.1099 199.19 73.3999C199.08 73.6899 199.03 74.0599 199.03 74.5199C199.03 74.9799 199.08 75.3399 199.19 75.6299C199.3 75.9199 199.45 76.1399 199.65 76.2799C199.84 76.4199 200.07 76.4899 200.32 76.4899Z" fill="#12100B"/>
<path d="M205.7 77.3899C205.26 77.3899 204.86 77.2799 204.5 77.0499C204.15 76.8299 203.87 76.4999 203.66 76.0699C203.46 75.6399 203.36 75.1199 203.36 74.5099C203.36 73.8999 203.46 73.3799 203.66 72.9499C203.86 72.5199 204.14 72.1899 204.5 71.9699C204.85 71.7499 205.25 71.6299 205.7 71.6299C206.15 71.6299 206.55 71.7399 206.9 71.9699C207.25 72.1899 207.53 72.5199 207.74 72.9499C207.95 73.3799 208.05 73.8999 208.05 74.5099C208.05 75.1199 207.95 75.6399 207.74 76.0699C207.53 76.4999 207.26 76.8299 206.9 77.0499C206.55 77.2699 206.15 77.3899 205.7 77.3899ZM205.7 76.4899C205.96 76.4899 206.19 76.4199 206.38 76.2799C206.57 76.1399 206.72 75.9199 206.83 75.6299C206.94 75.3399 206.99 74.9699 206.99 74.5199C206.99 74.0699 206.94 73.6899 206.83 73.3999C206.72 73.1099 206.57 72.8899 206.38 72.7499C206.19 72.6099 205.96 72.5399 205.7 72.5399C205.44 72.5399 205.23 72.6099 205.03 72.7499C204.83 72.8899 204.68 73.1099 204.57 73.3999C204.46 73.6899 204.41 74.0599 204.41 74.5199C204.41 74.9799 204.46 75.3399 204.57 75.6299C204.68 75.9199 204.83 76.1399 205.03 76.2799C205.22 76.4199 205.45 76.4899 205.7 76.4899Z" fill="#12100B"/>
<path d="M254.18 60.47C253.79 60.47 253.4 60.41 253.02 60.3C252.64 60.18 252.33 60.03 252.07 59.82L252.52 59.01C252.72 59.18 252.97 59.31 253.26 59.41C253.55 59.51 253.85 59.56 254.16 59.56C254.53 59.56 254.82 59.48 255.03 59.33C255.24 59.18 255.34 58.97 255.34 58.71C255.34 58.45 255.24 58.25 255.05 58.1C254.86 57.95 254.55 57.88 254.12 57.88H253.61V57.17L255.21 55.27L255.35 55.66H252.34V54.79H256.16V55.49L254.56 57.39L254.02 57.07H254.33C255.02 57.07 255.53 57.22 255.88 57.53C256.23 57.84 256.4 58.23 256.4 58.71C256.4 59.02 256.32 59.32 256.16 59.58C256 59.84 255.76 60.06 255.43 60.22C255.1 60.38 254.69 60.46 254.19 60.46L254.18 60.47Z" fill="#12100B"/>
<path d="M257.12 61.6001L257.58 59.8301L257.72 60.4201C257.53 60.4201 257.38 60.3601 257.25 60.2501C257.12 60.1301 257.06 59.9801 257.06 59.7801C257.06 59.5801 257.12 59.4201 257.25 59.3001C257.37 59.1801 257.53 59.1201 257.71 59.1201C257.89 59.1201 258.05 59.1801 258.17 59.3001C258.29 59.4201 258.35 59.5801 258.35 59.7801C258.35 59.8301 258.35 59.8901 258.33 59.9501C258.32 60.0101 258.3 60.0801 258.28 60.1601C258.26 60.2401 258.22 60.3401 258.16 60.4601L257.75 61.5901H257.1L257.12 61.6001Z" fill="#12100B"/>
<path d="M261.27 60.47C260.83 60.47 260.43 60.36 260.07 60.13C259.71 59.91 259.44 59.58 259.23 59.15C259.03 58.72 258.93 58.2 258.93 57.59C258.93 56.98 259.03 56.46 259.23 56.03C259.43 55.6 259.71 55.27 260.07 55.05C260.42 54.83 260.82 54.71 261.27 54.71C261.72 54.71 262.12 54.82 262.47 55.05C262.82 55.27 263.1 55.6 263.31 56.03C263.52 56.46 263.62 56.98 263.62 57.59C263.62 58.2 263.52 58.72 263.31 59.15C263.1 59.58 262.83 59.91 262.47 60.13C262.12 60.35 261.72 60.47 261.27 60.47ZM261.27 59.57C261.53 59.57 261.76 59.5 261.95 59.36C262.14 59.22 262.29 59 262.4 58.71C262.51 58.42 262.56 58.05 262.56 57.6C262.56 57.15 262.51 56.77 262.4 56.48C262.29 56.19 262.14 55.97 261.95 55.83C261.76 55.69 261.53 55.62 261.27 55.62C261.01 55.62 260.8 55.69 260.6 55.83C260.41 55.97 260.25 56.19 260.14 56.48C260.03 56.77 259.98 57.14 259.98 57.6C259.98 58.06 260.03 58.42 260.14 58.71C260.25 59 260.4 59.22 260.6 59.36C260.8 59.5 261.02 59.57 261.27 59.57Z" fill="#12100B"/>
<path d="M266.65 60.47C266.21 60.47 265.81 60.36 265.45 60.13C265.09 59.91 264.82 59.58 264.61 59.15C264.41 58.72 264.31 58.2 264.31 57.59C264.31 56.98 264.41 56.46 264.61 56.03C264.81 55.6 265.09 55.27 265.45 55.05C265.8 54.83 266.2 54.71 266.65 54.71C267.1 54.71 267.5 54.82 267.85 55.05C268.2 55.27 268.48 55.6 268.69 56.03C268.9 56.46 269 56.98 269 57.59C269 58.2 268.9 58.72 268.69 59.15C268.48 59.58 268.21 59.91 267.85 60.13C267.5 60.35 267.1 60.47 266.65 60.47ZM266.65 59.57C266.91 59.57 267.14 59.5 267.33 59.36C267.52 59.22 267.67 59 267.78 58.71C267.89 58.42 267.94 58.05 267.94 57.6C267.94 57.15 267.89 56.77 267.78 56.48C267.67 56.19 267.52 55.97 267.33 55.83C267.14 55.69 266.91 55.62 266.65 55.62C266.39 55.62 266.18 55.69 265.98 55.83C265.79 55.97 265.63 56.19 265.52 56.48C265.41 56.77 265.36 57.14 265.36 57.6C265.36 58.06 265.41 58.42 265.52 58.71C265.63 59 265.78 59.22 265.98 59.36C266.18 59.5 266.4 59.57 266.65 59.57Z" fill="#12100B"/>
<path d="M123.27 93.9495C122.88 93.9495 122.49 93.8895 122.11 93.7795C121.73 93.6595 121.42 93.5095 121.16 93.2995L121.61 92.4895C121.81 92.6595 122.06 92.7895 122.35 92.8895C122.64 92.9895 122.94 93.0395 123.25 93.0395C123.62 93.0395 123.91 92.9595 124.12 92.8095C124.33 92.6595 124.43 92.4495 124.43 92.1895C124.43 91.9295 124.33 91.7295 124.14 91.5795C123.95 91.4295 123.64 91.3595 123.21 91.3595H122.7V90.6495L124.3 88.7495L124.44 89.1395H121.43V88.2695H125.25V88.9695L123.65 90.8695L123.11 90.5495H123.42C124.11 90.5495 124.62 90.6995 124.97 91.0095C125.31 91.3195 125.49 91.7095 125.49 92.1895C125.49 92.4995 125.41 92.7995 125.25 93.0595C125.09 93.3195 124.85 93.5395 124.52 93.6995C124.19 93.8595 123.78 93.9395 123.28 93.9395L123.27 93.9495Z" fill="#C43020"/>
<path d="M127.94 93.9498C127.55 93.9498 127.16 93.8898 126.78 93.7798C126.4 93.6598 126.09 93.5098 125.83 93.2998L126.27 92.4898C126.47 92.6598 126.72 92.7898 127.01 92.8898C127.3 92.9898 127.6 93.0398 127.92 93.0398C128.29 93.0398 128.58 92.9598 128.79 92.8098C129 92.6498 129.11 92.4498 129.11 92.1898C129.11 92.0098 129.07 91.8598 128.98 91.7298C128.89 91.5998 128.74 91.4898 128.52 91.4298C128.3 91.3598 128 91.3298 127.61 91.3298H126.26L126.55 88.2798H129.84V89.1498H126.94L127.48 88.6498L127.26 90.9298L126.72 90.4398H127.85C128.4 90.4398 128.85 90.5098 129.19 90.6598C129.53 90.8098 129.78 91.0098 129.93 91.2698C130.09 91.5298 130.17 91.8198 130.17 92.1498C130.17 92.4798 130.09 92.7698 129.93 93.0498C129.77 93.3198 129.53 93.5398 129.2 93.7098C128.87 93.8798 128.46 93.9598 127.96 93.9598L127.94 93.9498Z" fill="#C43020"/>
<path d="M130.8 95.0796L131.26 93.3096L131.4 93.8996C131.21 93.8996 131.06 93.8396 130.93 93.7296C130.81 93.6096 130.74 93.4596 130.74 93.2596C130.74 93.0596 130.8 92.8996 130.93 92.7796C131.06 92.6596 131.21 92.5996 131.39 92.5996C131.57 92.5996 131.73 92.6596 131.85 92.7796C131.97 92.8996 132.03 93.0596 132.03 93.2596C132.03 93.3096 132.03 93.3696 132.01 93.4296C132 93.4896 131.98 93.5596 131.96 93.6396C131.94 93.7196 131.9 93.8196 131.84 93.9396L131.43 95.0696H130.78L130.8 95.0796Z" fill="#C43020"/>
<path d="M134.55 93.9495C134.16 93.9495 133.77 93.8895 133.39 93.7795C133.01 93.6595 132.7 93.5095 132.44 93.2995L132.89 92.4895C133.09 92.6595 133.34 92.7895 133.63 92.8895C133.92 92.9895 134.22 93.0395 134.53 93.0395C134.9 93.0395 135.19 92.9595 135.4 92.8095C135.61 92.6595 135.71 92.4495 135.71 92.1895C135.71 91.9295 135.61 91.7295 135.42 91.5795C135.23 91.4295 134.92 91.3595 134.49 91.3595H133.98V90.6495L135.58 88.7495L135.72 89.1395H132.71V88.2695H136.53V88.9695L134.93 90.8695L134.39 90.5495H134.7C135.39 90.5495 135.9 90.6995 136.25 91.0095C136.6 91.3195 136.77 91.7095 136.77 92.1895C136.77 92.4995 136.69 92.7995 136.53 93.0595C136.37 93.3295 136.13 93.5395 135.8 93.6995C135.47 93.8595 135.06 93.9395 134.56 93.9395L134.55 93.9495Z" fill="#C43020"/>
<path d="M137.34 93.8697V93.1697L139.56 91.0597C139.75 90.8797 139.89 90.7297 139.98 90.5997C140.07 90.4697 140.13 90.3397 140.16 90.2297C140.19 90.1097 140.2 90.0097 140.2 89.9097C140.2 89.6497 140.11 89.4497 139.94 89.3097C139.76 89.1697 139.51 89.0997 139.16 89.0997C138.89 89.0997 138.64 89.1497 138.42 89.2397C138.2 89.3397 138.01 89.4797 137.85 89.6797L137.12 89.1197C137.34 88.8297 137.63 88.5997 138 88.4397C138.37 88.2797 138.79 88.1997 139.24 88.1997C139.64 88.1997 140 88.2697 140.3 88.3997C140.6 88.5297 140.83 88.7197 141 88.9597C141.16 89.1997 141.24 89.4897 141.24 89.8197C141.24 89.9997 141.22 90.1797 141.17 90.3597C141.12 90.5397 141.03 90.7297 140.9 90.9197C140.77 91.1197 140.57 91.3397 140.32 91.5797L138.41 93.3997L138.19 93.0097H141.46V93.8897H137.33L137.34 93.8697Z" fill="#C43020"/>
<path d="M123.37 103.399C122.98 103.399 122.59 103.339 122.21 103.229C121.83 103.109 121.52 102.959 121.26 102.749L121.7 101.939C121.9 102.109 122.15 102.239 122.44 102.339C122.73 102.439 123.03 102.489 123.35 102.489C123.72 102.489 124.01 102.409 124.22 102.259C124.43 102.099 124.54 101.899 124.54 101.639C124.54 101.459 124.5 101.309 124.41 101.179C124.32 101.049 124.17 100.939 123.95 100.879C123.73 100.809 123.43 100.779 123.04 100.779H121.69L121.98 97.7295H125.27V98.5995H122.37L122.91 98.0995L122.69 100.379L122.15 99.8895H123.28C123.83 99.8895 124.28 99.9595 124.62 100.109C124.96 100.259 125.21 100.459 125.36 100.719C125.52 100.979 125.6 101.269 125.6 101.599C125.6 101.929 125.52 102.219 125.36 102.499C125.2 102.769 124.96 102.989 124.63 103.159C124.3 103.329 123.89 103.409 123.39 103.409L123.37 103.399Z" fill="#C43020"/>
<path d="M128 103.399C127.61 103.399 127.22 103.339 126.84 103.229C126.46 103.109 126.15 102.959 125.89 102.749L126.33 101.939C126.53 102.109 126.78 102.239 127.07 102.339C127.36 102.439 127.66 102.489 127.98 102.489C128.35 102.489 128.64 102.409 128.85 102.259C129.06 102.099 129.17 101.899 129.17 101.639C129.17 101.459 129.13 101.309 129.04 101.179C128.95 101.049 128.8 100.939 128.58 100.879C128.36 100.809 128.06 100.779 127.67 100.779H126.32L126.61 97.7295H129.9V98.5995H127L127.54 98.0995L127.33 100.379L126.79 99.8895H127.92C128.47 99.8895 128.92 99.9595 129.26 100.109C129.6 100.259 129.85 100.459 130 100.719C130.16 100.979 130.24 101.269 130.24 101.599C130.24 101.929 130.16 102.219 130 102.499C129.84 102.769 129.6 102.989 129.27 103.159C128.94 103.329 128.53 103.409 128.03 103.409L128 103.399Z" fill="#C43020"/>
<path d="M130.86 104.53L131.32 102.76L131.46 103.35C131.27 103.35 131.12 103.29 130.99 103.18C130.87 103.06 130.8 102.91 130.8 102.71C130.8 102.51 130.86 102.35 130.99 102.23C131.12 102.11 131.27 102.05 131.45 102.05C131.63 102.05 131.79 102.11 131.91 102.23C132.03 102.35 132.09 102.51 132.09 102.71C132.09 102.76 132.09 102.82 132.07 102.88C132.07 102.94 132.04 103.01 132.02 103.09C132 103.17 131.96 103.27 131.9 103.39L131.49 104.52H130.84L130.86 104.53Z" fill="#C43020"/>
<path d="M132.65 102.05V101.33L135.41 97.7197H136.52L133.8 101.33L133.28 101.17H137.72V102.05H132.65ZM135.72 103.32V102.05L135.75 101.17V100.04H136.73V103.32H135.72Z" fill="#C43020"/>
<path d="M140.02 103.399C139.63 103.399 139.24 103.339 138.86 103.229C138.48 103.109 138.17 102.959 137.91 102.749L138.35 101.939C138.55 102.109 138.8 102.239 139.09 102.339C139.38 102.439 139.68 102.489 140 102.489C140.37 102.489 140.66 102.409 140.87 102.259C141.08 102.099 141.19 101.899 141.19 101.639C141.19 101.459 141.15 101.309 141.06 101.179C140.97 101.049 140.82 100.939 140.6 100.879C140.38 100.809 140.08 100.779 139.69 100.779H138.34L138.63 97.7295H141.92V98.5995H139.02L139.56 98.0995L139.34 100.379L138.8 99.8895H139.93C140.48 99.8895 140.93 99.9595 141.27 100.109C141.61 100.259 141.86 100.459 142.01 100.719C142.17 100.979 142.25 101.269 142.25 101.599C142.25 101.929 142.17 102.219 142.01 102.499C141.85 102.769 141.61 102.989 141.28 103.159C140.95 103.329 140.54 103.409 140.04 103.409L140.02 103.399Z" fill="#C43020"/>
<path d="M86.84 105.1V103.84L90.08 100.78C90.34 100.55 90.52 100.34 90.64 100.16C90.76 99.9798 90.84 99.8098 90.89 99.6598C90.93 99.5098 90.96 99.3698 90.96 99.2398C90.96 98.8998 90.85 98.6498 90.62 98.4698C90.39 98.2898 90.06 98.1998 89.62 98.1998C89.27 98.1998 88.94 98.2698 88.64 98.3998C88.34 98.5398 88.09 98.7498 87.88 99.0398L86.46 98.1298C86.78 97.6498 87.23 97.2698 87.8 96.9898C88.37 96.7098 89.04 96.5698 89.79 96.5698C90.41 96.5698 90.96 96.6698 91.43 96.8798C91.9 97.0798 92.26 97.3698 92.52 97.7398C92.78 98.1098 92.91 98.5498 92.91 99.0598C92.91 99.3298 92.88 99.5998 92.81 99.8698C92.74 100.14 92.61 100.42 92.4 100.72C92.19 101.02 91.9 101.35 91.51 101.72L88.82 104.25L88.45 103.54H93.19V105.12H86.84V105.1Z" fill="#C43020"/>
<path d="M93.63 105.1L97.37 96.6997H99.29L103.05 105.1H101.01L97.94 97.6797H98.71L95.63 105.1H93.64H93.63ZM95.5 103.3L96.02 101.82H100.34L100.87 103.3H95.51H95.5Z" fill="#C43020"/>
<path d="M103.47 102.47V100.97H106.87V102.47H103.47Z" fill="#C43020"/>
<path d="M108.99 105.1V97.4197L109.83 98.2597H107.31V96.6997H110.93V105.1H108.99Z" fill="#C43020"/>
<path d="M123.37 112.51C122.98 112.51 122.59 112.45 122.21 112.34C121.83 112.22 121.52 112.07 121.26 111.86L121.7 111.05C121.9 111.22 122.15 111.35 122.44 111.45C122.73 111.55 123.03 111.6 123.35 111.6C123.72 111.6 124.01 111.52 124.22 111.37C124.43 111.21 124.54 111.01 124.54 110.75C124.54 110.57 124.5 110.42 124.41 110.29C124.32 110.16 124.17 110.05 123.95 109.99C123.73 109.92 123.43 109.89 123.04 109.89H121.69L121.98 106.84H125.27V107.71H122.37L122.91 107.21L122.69 109.49L122.15 109H123.28C123.83 109 124.28 109.07 124.62 109.22C124.96 109.37 125.21 109.57 125.36 109.83C125.52 110.09 125.6 110.38 125.6 110.71C125.6 111.04 125.52 111.33 125.36 111.61C125.2 111.88 124.96 112.1 124.63 112.27C124.3 112.44 123.89 112.52 123.39 112.52L123.37 112.51Z" fill="#C43020"/>
<path d="M128.61 112.51C128.1 112.51 127.67 112.4 127.31 112.19C126.95 111.97 126.67 111.66 126.48 111.25C126.29 110.84 126.19 110.33 126.19 109.73C126.19 109.09 126.31 108.55 126.54 108.11C126.77 107.67 127.09 107.33 127.51 107.1C127.92 106.87 128.4 106.76 128.94 106.76C129.22 106.76 129.49 106.79 129.75 106.85C130.01 106.91 130.23 107 130.41 107.12L130.03 107.9C129.88 107.8 129.71 107.73 129.53 107.69C129.35 107.65 129.16 107.63 128.97 107.63C128.44 107.63 128.02 107.79 127.71 108.12C127.4 108.45 127.25 108.93 127.25 109.56C127.25 109.66 127.25 109.78 127.25 109.92C127.25 110.06 127.27 110.19 127.31 110.33L126.99 109.98C127.09 109.76 127.22 109.58 127.39 109.43C127.56 109.28 127.76 109.17 127.99 109.1C128.22 109.02 128.47 108.99 128.75 108.99C129.12 108.99 129.45 109.06 129.73 109.2C130.02 109.34 130.25 109.54 130.42 109.8C130.59 110.06 130.68 110.36 130.68 110.71C130.68 111.08 130.59 111.4 130.41 111.67C130.23 111.94 129.98 112.15 129.67 112.3C129.36 112.45 129.01 112.52 128.63 112.52L128.61 112.51ZM128.56 111.69C128.77 111.69 128.96 111.65 129.13 111.57C129.3 111.49 129.42 111.38 129.52 111.24C129.61 111.1 129.66 110.93 129.66 110.74C129.66 110.45 129.56 110.22 129.36 110.04C129.16 109.86 128.89 109.78 128.54 109.78C128.32 109.78 128.12 109.82 127.95 109.9C127.78 109.98 127.65 110.1 127.55 110.24C127.45 110.38 127.4 110.55 127.4 110.74C127.4 110.91 127.44 111.07 127.53 111.21C127.62 111.35 127.75 111.47 127.93 111.55C128.1 111.64 128.31 111.68 128.56 111.68V111.69Z" fill="#C43020"/>
<path d="M131.32 113.64L131.78 111.87L131.92 112.46C131.73 112.46 131.58 112.4 131.45 112.29C131.32 112.17 131.26 112.02 131.26 111.82C131.26 111.62 131.32 111.46 131.45 111.34C131.58 111.22 131.73 111.16 131.91 111.16C132.09 111.16 132.25 111.22 132.37 111.34C132.49 111.46 132.55 111.62 132.55 111.82C132.55 111.87 132.55 111.93 132.53 111.99C132.52 112.05 132.5 112.12 132.48 112.2C132.46 112.28 132.42 112.38 132.36 112.5L131.95 113.63H131.3L131.32 113.64Z" fill="#C43020"/>
<path d="M135.47 112.51C135.03 112.51 134.63 112.4 134.27 112.17C133.92 111.95 133.64 111.62 133.43 111.19C133.23 110.76 133.13 110.24 133.13 109.63C133.13 109.02 133.23 108.5 133.43 108.07C133.63 107.64 133.91 107.31 134.27 107.09C134.62 106.87 135.02 106.75 135.47 106.75C135.92 106.75 136.32 106.86 136.67 107.09C137.02 107.31 137.3 107.64 137.51 108.07C137.72 108.5 137.82 109.02 137.82 109.63C137.82 110.24 137.72 110.76 137.51 111.19C137.3 111.62 137.03 111.95 136.67 112.17C136.32 112.39 135.92 112.51 135.47 112.51ZM135.47 111.61C135.73 111.61 135.96 111.54 136.15 111.4C136.34 111.26 136.49 111.04 136.6 110.75C136.71 110.46 136.76 110.09 136.76 109.64C136.76 109.19 136.71 108.81 136.6 108.52C136.49 108.23 136.34 108.01 136.15 107.87C135.96 107.73 135.73 107.66 135.47 107.66C135.21 107.66 135 107.73 134.8 107.87C134.6 108.01 134.45 108.23 134.34 108.52C134.23 108.81 134.18 109.18 134.18 109.64C134.18 110.1 134.23 110.46 134.34 110.75C134.45 111.04 134.6 111.26 134.8 111.4C134.99 111.54 135.22 111.61 135.47 111.61Z" fill="#C43020"/>
<path d="M140.86 112.51C140.42 112.51 140.02 112.4 139.66 112.17C139.3 111.95 139.03 111.62 138.82 111.19C138.62 110.76 138.52 110.24 138.52 109.63C138.52 109.02 138.62 108.5 138.82 108.07C139.02 107.64 139.3 107.31 139.66 107.09C140.01 106.87 140.41 106.75 140.86 106.75C141.31 106.75 141.71 106.86 142.06 107.09C142.41 107.31 142.69 107.64 142.9 108.07C143.11 108.5 143.21 109.02 143.21 109.63C143.21 110.24 143.11 110.76 142.9 111.19C142.69 111.62 142.42 111.95 142.06 112.17C141.71 112.39 141.31 112.51 140.86 112.51ZM140.86 111.61C141.12 111.61 141.35 111.54 141.54 111.4C141.73 111.26 141.88 111.04 141.99 110.75C142.1 110.46 142.15 110.09 142.15 109.64C142.15 109.19 142.1 108.81 141.99 108.52C141.88 108.23 141.73 108.01 141.54 107.87C141.35 107.73 141.12 107.66 140.86 107.66C140.6 107.66 140.39 107.73 140.19 107.87C140 108.01 139.84 108.23 139.73 108.52C139.62 108.81 139.57 109.18 139.57 109.64C139.57 110.1 139.62 110.46 139.73 110.75C139.84 111.04 139.99 111.26 140.19 111.4C140.39 111.54 140.61 111.61 140.86 111.61Z" fill="#C43020"/>
<path d="M116.72 115.97V83.7598" stroke="#C43020" stroke-width="0.71" stroke-miterlimit="10"/>
<path d="M38.28 0.5H0V10.46H38.28V0.5Z" fill="#511F19"/>
<path d="M40.08 0.5H0V3.38H40.08V0.5Z" fill="#511F19"/>
<path d="M284.16 0.5H119.98V10.46H284.16V0.5Z" fill="#511F19"/>
<path d="M284.16 0.5H118.18V3.38H284.16V0.5Z" fill="#511F19"/>
<path d="M284.17 0.5H281.41V36.14H284.17V0.5Z" fill="#511F19"/>
<path d="M284.16 0.5H274.32V34.34H284.16V0.5Z" fill="#511F19"/>
<path d="M284.17 91.46H281.41V123.38H284.17V91.46Z" fill="#511F19"/>
<path d="M284.16 93.3799H274.32V121.58H284.16V93.3799Z" fill="#511F19"/>
<path d="M284.17 178.94H281.41V197.36H284.17V178.94Z" fill="#511F19"/>
<path d="M284.16 180.74H274.32V197.36H284.16V180.74Z" fill="#511F19"/>
<path d="M7.08 7.93994H0V197.3H7.08V7.93994Z" fill="#511F19"/>
<path d="M152.64 7.93994H145.56V58.2199H152.64V7.93994Z" fill="#511F19"/>
<path d="M152.63 49.3599H150.36V102.74H152.63V49.3599Z" fill="#511F19"/>
<path d="M275.06 100.58H243.24V107.54H275.06V100.58Z" fill="#511F19"/>
<path d="M246.72 66.7402H243.24V101.66H246.72V66.7402Z" fill="#511F19"/>
<path d="M244.86 100.58H178.32V102.74H244.86V100.58Z" fill="#511F19"/>
<path d="M183.48 101.77H181.2V105.14H183.48V101.77Z" fill="#511F19"/>
<path d="M276.78 190.22H67.1V197.36H276.78V190.22Z" fill="#511F19"/>
<path d="M36 136.11H3.26999V156.14H36V136.11Z" fill="#511F19"/>
<path d="M140.04 136.1H81.36V138.38H140.04V136.1Z" fill="#511F19"/>
<path d="M183.48 136.1H162.96V138.74H183.48V136.1Z" fill="#511F19"/>
<path d="M94.68 136.1H81.36V191.36H94.68V136.1Z" fill="#511F19"/>
<path d="M36 190.22H0V197.3H36V190.22Z" fill="#511F19"/>
<path d="M37.56 190.22H34.92V192.5H37.56V190.22Z" fill="#511F19"/>
<path d="M68.16 190.22H65.52V192.5H68.16V190.22Z" fill="#511F19"/>
<path d="M183.48 130.83H181.2V138.75H183.48V130.83Z" fill="#511F19"/>
<path d="M165.12 136.1H162.96V192.8H165.12V136.1Z" fill="#511F19"/>
<path d="M65.58 192.52V220.54" stroke="#511F19" stroke-width="0.85" stroke-miterlimit="10"/>
<path d="M65.58 220.54C50.11 220.54 37.56 208 37.56 192.52" stroke="#511F19" stroke-width="0.43" stroke-miterlimit="10"/>
<path d="M281.41 178.94V144.17" stroke="#511F19" stroke-width="0.43" stroke-miterlimit="10"/>
<path d="M274.32 180.74V144.17" stroke="#511F19" stroke-width="0.43" stroke-miterlimit="10"/>
<path d="M279.71 180.74V144.17" stroke="#511F19" stroke-width="0.43" stroke-miterlimit="10"/>
<path d="M281.41 91.4599V36.1499" stroke="#511F19" stroke-width="0.43" stroke-miterlimit="10"/>
<path d="M274.32 93.3801V34.3501" stroke="#511F19" stroke-width="0.43" stroke-miterlimit="10"/>
<path d="M279.71 93.3801V34.3501" stroke="#511F19" stroke-width="0.43" stroke-miterlimit="10"/>
<path d="M274.32 144.17H281.41" stroke="#511F19" stroke-width="0.43" stroke-miterlimit="10"/>
<path d="M243.94 10.46V28.7" stroke="#511F19" stroke-width="0.43" stroke-miterlimit="10"/>
<path d="M245.02 10.46V28.7" stroke="#511F19" stroke-width="0.43" stroke-miterlimit="10"/>
<path d="M246.1 10.46V28.7" stroke="#511F19" stroke-width="0.43" stroke-miterlimit="10"/>
<path d="M243.94 28.7002H246.1" stroke="#511F19" stroke-width="0.43" stroke-miterlimit="10"/>
<path d="M243.94 66.74V48.5" stroke="#511F19" stroke-width="0.43" stroke-miterlimit="10"/>
<path d="M245.02 66.74V48.5" stroke="#511F19" stroke-width="0.43" stroke-miterlimit="10"/>
<path d="M246.1 66.74V48.5" stroke="#511F19" stroke-width="0.43" stroke-miterlimit="10"/>
<path d="M243.94 48.5H246.1" stroke="#511F19" stroke-width="0.43" stroke-miterlimit="10"/>
<path d="M284.16 115.1H304.83V187.43H284.18" stroke="#511F19" stroke-width="0.43" stroke-miterlimit="10"/>
<path d="M284.16 113.18H306.77V189.35H284.19" stroke="#511F19" stroke-width="0.43" stroke-miterlimit="10"/>
<path d="M178.16 101.81L155.16 91.3101" stroke="#511F19" stroke-width="0.85" stroke-miterlimit="10"/>
<path d="M181.81 131.86L193.21 111.31" stroke="#511F19" stroke-width="0.85" stroke-miterlimit="10"/>
<path d="M139.17 137.24L159.19 128.36" stroke="#511F19" stroke-width="0.85" stroke-miterlimit="10"/>
<path d="M278.72 142.38H277.17V144.17H278.72V142.38Z" fill="#511F19"/>
<path d="M278.72 121.58H277.17V123.37H278.72V121.58Z" fill="#511F19"/>
<path d="M277.16 123.38H258.16" stroke="#511F19" stroke-width="0.85" stroke-miterlimit="10"/>
<path d="M258.16 123.38C258.16 133.88 266.67 142.38 277.16 142.38" stroke="#511F19" stroke-width="0.43" stroke-miterlimit="10"/>
<path d="M118.18 3.37988H38.28" stroke="#511F19" stroke-width="0.43" stroke-miterlimit="10"/>
<path d="M119.98 5.0498H38.28" stroke="#511F19" stroke-width="0.43" stroke-miterlimit="10"/>
<path d="M119.98 10.46H38.28" stroke="#511F19" stroke-width="0.43" stroke-miterlimit="10"/>
<path d="M245.74 28.7002H244.39V30.2602H245.74V28.7002Z" fill="#511F19"/>
<path d="M245.74 46.8604H244.39V48.4203H245.74V46.8604Z" fill="#511F19"/>
<path d="M244.38 46.8599H227.79" stroke="#511F19" stroke-width="0.85" stroke-miterlimit="10"/>
<path d="M227.79 46.86C227.79 37.7 235.22 30.27 244.38 30.27" stroke="#511F19" stroke-width="0.43" stroke-miterlimit="10"/>
</g>
<defs>
<clipPath id="clip0_2024_4217">
<rect width="306.98" height="220.26" fill="white" transform="translate(0 0.5)"/>
</clipPath>
</defs>
</svg>
