<svg width="227" height="362" viewBox="0 0 227 362" fill="none" xmlns="http://www.w3.org/2000/svg">
<g clip-path="url(#clip0_2024_7714)">
<path d="M50.84 23.98H32.48V82.05H50.84V23.98Z" stroke="#C7C6C5" stroke-width="0.43" stroke-linecap="round" stroke-linejoin="round"/>
<path d="M42.52 50.7499C42.52 49.5299 40.71 49.5399 40.71 50.7499C40.71 51.6499 41.62 51.4099 41.62 52.2199" stroke="#C7C6C5" stroke-width="0.43" stroke-linecap="round" stroke-linejoin="round"/>
<path d="M41.61 52.22L47.7 54.27C47.7 54.27 48.26 54.48 48.18 55.1C48.1 55.71 47.53 55.65 47.53 55.65H35.7C35.7 55.65 35.08 55.72 34.99 55.1C34.91 54.49 35.52 54.27 35.52 54.27L41.61 52.22Z" stroke="#C7C6C5" stroke-width="0.43" stroke-linecap="round" stroke-linejoin="round"/>
<path d="M41.61 48.7799V25.3599" stroke="#C7C6C5" stroke-width="0.43" stroke-linecap="round" stroke-linejoin="round"/>
<path d="M41.61 80.75V56.76" stroke="#C7C6C5" stroke-width="0.43" stroke-linecap="round" stroke-linejoin="round"/>
<path d="M84.49 7.65991H32.48V23.9799H84.49V7.65991Z" stroke="#C7C6C5" stroke-width="0.43" stroke-linecap="round" stroke-linejoin="round"/>
<path d="M59.52 12.2299C59.52 11.0299 57.75 11.0499 57.75 12.2299C57.75 13.1099 58.63 12.8699 58.63 13.6699" stroke="#C7C6C5" stroke-width="0.43" stroke-linecap="round" stroke-linejoin="round"/>
<path d="M58.64 13.6699L64.59 15.6699C64.59 15.6699 65.14 15.8799 65.06 16.4799C64.98 17.0799 64.42 17.0099 64.42 17.0099H52.87C52.87 17.0099 52.31 17.0799 52.23 16.4799C52.15 15.8799 52.7 15.6699 52.7 15.6699L58.65 13.6699H58.64Z" stroke="#C7C6C5" stroke-width="0.43" stroke-linecap="round" stroke-linejoin="round"/>
<path d="M66.98 16.45H83.26" stroke="#C7C6C5" stroke-width="0.43" stroke-linecap="round" stroke-linejoin="round"/>
<path d="M33.27 16.45H50.29" stroke="#C7C6C5" stroke-width="0.43" stroke-linecap="round" stroke-linejoin="round"/>
<path d="M129.97 123.82H118.92V178.78H129.97V123.82Z" stroke="#C7C6C5" stroke-width="0.43" stroke-miterlimit="10"/>
<path d="M124.74 145.18L127.86 138.27L127.17 137.96L121.38 147.58H120.67C120.67 147.58 120.11 147.61 120.11 148.14V153.45C120.11 153.98 120.67 154.01 120.67 154.01H121.38L127.17 163.63L127.86 163.32L124.74 156.41V145.16V145.18Z" stroke="#C7C6C5" stroke-width="0.43" stroke-miterlimit="10"/>
<path d="M124.74 145.18L127.86 138.27L127.17 137.96L121.38 147.58H120.67C120.67 147.58 120.11 147.61 120.11 148.14V153.45C120.11 153.98 120.67 154.01 120.67 154.01H121.38L127.17 163.63L127.86 163.32L124.74 156.41V145.16V145.18Z" stroke="#C7C6C5" stroke-width="0.43" stroke-miterlimit="10"/>
<path d="M124.75 130.46H123.81V171.15H124.75V130.46Z" stroke="#C7C6C5" stroke-width="0.43" stroke-miterlimit="10"/>
<path d="M124.75 130.46H123.81V171.15H124.75V130.46Z" stroke="#C7C6C5" stroke-width="0.43" stroke-miterlimit="10"/>
<path d="M123.81 159.29C123.81 158.2 122.84 158.29 122.84 157.07V144.54C122.84 143.32 123.81 143.42 123.81 142.32V159.28V159.29Z" stroke="#C7C6C5" stroke-width="0.43" stroke-miterlimit="10"/>
<path d="M123.81 159.29C123.81 158.2 122.84 158.29 122.84 157.07V144.54C122.84 143.32 123.81 143.42 123.81 142.32V159.28V159.29Z" stroke="#C7C6C5" stroke-width="0.43" stroke-miterlimit="10"/>
<path d="M170.8 153.85H191.31C191.69 153.85 192 154.16 192 154.54V171.56C192 171.94 191.69 172.25 191.31 172.25H170.8C170.42 172.25 170.11 171.94 170.11 171.56V154.55C170.11 154.17 170.42 153.86 170.8 153.86V153.85Z" stroke="#C7C6C5" stroke-width="0.43" stroke-miterlimit="10"/>
<path d="M170.8 153.85H191.31C191.69 153.85 192 154.16 192 154.54V171.56C192 171.94 191.69 172.25 191.31 172.25H170.8C170.42 172.25 170.11 171.94 170.11 171.56V154.55C170.11 154.17 170.42 153.86 170.8 153.86V153.85Z" stroke="#C7C6C5" stroke-width="0.43" stroke-miterlimit="10"/>
<path d="M170.11 175.33C170.11 175.71 170.42 176.02 170.8 176.02H191.31C191.69 176.02 192 175.71 192 175.33V172.93C192 172.55 191.69 172.24 191.31 172.24H170.8C170.42 172.24 170.11 172.55 170.11 172.93V175.33Z" stroke="#C7C6C5" stroke-width="0.43" stroke-miterlimit="10"/>
<path d="M170.11 175.33C170.11 175.71 170.42 176.02 170.8 176.02H191.31C191.69 176.02 192 175.71 192 175.33V172.93C192 172.55 191.69 172.24 191.31 172.24H170.8C170.42 172.24 170.11 172.55 170.11 172.93V175.33Z" stroke="#C7C6C5" stroke-width="0.43" stroke-miterlimit="10"/>
<path d="M192.69 176.02H213.2C213.58 176.02 213.89 175.71 213.89 175.33V154.54C213.89 154.16 213.58 153.85 213.2 153.85H210.81C210.43 153.85 210.12 154.16 210.12 154.54V172.25H192.7C192.32 172.25 192.01 172.56 192.01 172.94V175.34C192.01 175.72 192.32 176.03 192.7 176.03" stroke="#C7C6C5" stroke-width="0.43" stroke-miterlimit="10"/>
<path d="M192.69 176.02H213.2C213.58 176.02 213.89 175.71 213.89 175.33V154.54C213.89 154.16 213.58 153.85 213.2 153.85H210.81C210.43 153.85 210.12 154.16 210.12 154.54V172.25H192.7C192.32 172.25 192.01 172.56 192.01 172.94V175.34C192.01 175.72 192.32 176.03 192.7 176.03H192.69V176.02Z" stroke="#C7C6C5" stroke-width="0.43" stroke-miterlimit="10"/>
<path d="M170.12 178.01C170.12 178.39 170.43 178.7 170.81 178.7H191.32C191.7 178.7 192.01 178.39 192.01 178.01V176.71C192.01 176.33 191.7 176.02 191.32 176.02H170.81C170.43 176.02 170.12 176.33 170.12 176.71V178.01Z" stroke="#C7C6C5" stroke-width="0.43" stroke-miterlimit="10"/>
<path d="M170.12 178.01C170.12 178.39 170.43 178.7 170.81 178.7H191.32C191.7 178.7 192.01 178.39 192.01 178.01V176.71C192.01 176.33 191.7 176.02 191.32 176.02H170.81C170.43 176.02 170.12 176.33 170.12 176.71V178.01Z" stroke="#C7C6C5" stroke-width="0.43" stroke-miterlimit="10"/>
<path d="M209.47 131.96C209.85 131.96 210.16 132.27 210.16 132.65V153.16C210.16 153.54 209.85 153.85 209.47 153.85H192.7C192.32 153.85 192.01 153.54 192.01 153.16V132.65C192.01 132.27 192.32 131.96 192.7 131.96H209.47Z" stroke="#C7C6C5" stroke-width="0.43" stroke-miterlimit="10"/>
<path d="M209.47 131.96C209.85 131.96 210.16 132.27 210.16 132.65V153.16C210.16 153.54 209.85 153.85 209.47 153.85H192.7C192.32 153.85 192.01 153.54 192.01 153.16V132.65C192.01 132.27 192.32 131.96 192.7 131.96H209.47Z" stroke="#C7C6C5" stroke-width="0.43" stroke-miterlimit="10"/>
<path d="M210.85 131.96H213.25C213.63 131.96 213.94 132.27 213.94 132.65V153.16C213.94 153.54 213.63 153.85 213.25 153.85H210.86C210.48 153.85 210.17 153.54 210.17 153.16V132.65C210.17 132.27 210.48 131.96 210.86 131.96H210.85Z" stroke="#C7C6C5" stroke-width="0.43" stroke-miterlimit="10"/>
<path d="M210.85 131.96H213.25C213.63 131.96 213.94 132.27 213.94 132.65V153.16C213.94 153.54 213.63 153.85 213.25 153.85H210.86C210.48 153.85 210.17 153.54 210.17 153.16V132.65C210.17 132.27 210.48 131.96 210.86 131.96H210.85Z" stroke="#C7C6C5" stroke-width="0.43" stroke-miterlimit="10"/>
<path d="M214.62 131.96H216.05C216.43 131.96 216.74 132.27 216.74 132.65V153.16C216.74 153.54 216.43 153.85 216.05 153.85H214.62C214.24 153.85 213.93 153.54 213.93 153.16V132.65C213.93 132.27 214.24 131.96 214.62 131.96Z" stroke="#C7C6C5" stroke-width="0.43" stroke-miterlimit="10"/>
<path d="M214.62 131.96H216.05C216.43 131.96 216.74 132.27 216.74 132.65V153.16C216.74 153.54 216.43 153.85 216.05 153.85H214.62C214.24 153.85 213.93 153.54 213.93 153.16V132.65C213.93 132.27 214.24 131.96 214.62 131.96Z" stroke="#C7C6C5" stroke-width="0.43" stroke-miterlimit="10"/>
<path d="M192.69 178.7H216.04C216.42 178.7 216.73 178.39 216.73 178.01V154.54C216.73 154.16 216.42 153.85 216.04 153.85H214.74C214.36 153.85 213.89 154.16 213.89 154.54V176.02H192.69C192.31 176.02 192 176.33 192 176.71V178.01C192 178.39 192.31 178.7 192.69 178.7Z" stroke="#C7C6C5" stroke-width="0.43" stroke-miterlimit="10"/>
<path d="M192.69 178.7H216.04C216.42 178.7 216.73 178.39 216.73 178.01V154.54C216.73 154.16 216.42 153.85 216.04 153.85H214.74C214.36 153.85 213.89 154.16 213.89 154.54V176.02H192.69C192.31 176.02 192 176.33 192 176.71V178.01C192 178.39 192.31 178.7 192.69 178.7Z" stroke="#C7C6C5" stroke-width="0.43" stroke-miterlimit="10"/>
<path d="M210.11 172.24L213.55 175.69" stroke="#C7C6C5" stroke-width="0.43" stroke-miterlimit="10"/>
<path d="M192 154.54C192 154.16 192.31 153.85 192.69 153.85H209.42C209.8 153.85 210.11 154.16 210.11 154.54V171.55C210.11 171.93 209.8 172.24 209.42 172.24H192.69C192.31 172.24 192 171.93 192 171.55V154.54Z" stroke="#C7C6C5" stroke-width="0.43" stroke-miterlimit="10"/>
<path d="M192 154.54C192 154.16 192.31 153.85 192.69 153.85H209.42C209.8 153.85 210.11 154.16 210.11 154.54V171.55C210.11 171.93 209.8 172.24 209.42 172.24H192.69C192.31 172.24 192 171.93 192 171.55V154.54Z" stroke="#C7C6C5" stroke-width="0.43" stroke-miterlimit="10"/>
<path d="M192.69 109.78H213.2C213.58 109.78 213.89 110.09 213.89 110.47V131.26C213.89 131.64 213.58 131.95 213.2 131.95H210.81C210.43 131.95 210.12 131.64 210.12 131.26V113.56H192.7C192.32 113.56 192.01 113.25 192.01 112.87V110.47C192.01 110.09 192.32 109.78 192.7 109.78" stroke="#C7C6C5" stroke-width="0.43" stroke-miterlimit="10"/>
<path d="M192.69 109.78H213.2C213.58 109.78 213.89 110.09 213.89 110.47V131.26C213.89 131.64 213.58 131.95 213.2 131.95H210.81C210.43 131.95 210.12 131.64 210.12 131.26V113.56H192.7C192.32 113.56 192.01 113.25 192.01 112.87V110.47C192.01 110.09 192.32 109.78 192.7 109.78H192.69Z" stroke="#C7C6C5" stroke-width="0.43" stroke-miterlimit="10"/>
<path d="M192.69 107.1H216.04C216.42 107.1 216.73 107.41 216.73 107.79V131.26C216.73 131.64 216.42 131.95 216.04 131.95H214.74C214.36 131.95 213.89 131.64 213.89 131.26V109.78H192.69C192.31 109.78 192 109.47 192 109.09V107.79C192 107.41 192.31 107.1 192.69 107.1Z" stroke="#C7C6C5" stroke-width="0.43" stroke-miterlimit="10"/>
<path d="M192.69 107.1H216.04C216.42 107.1 216.73 107.41 216.73 107.79V131.26C216.73 131.64 216.42 131.95 216.04 131.95H214.74C214.36 131.95 213.89 131.64 213.89 131.26V109.78H192.69C192.31 109.78 192 109.47 192 109.09V107.79C192 107.41 192.31 107.1 192.69 107.1Z" stroke="#C7C6C5" stroke-width="0.43" stroke-miterlimit="10"/>
<path d="M210.11 113.56L213.55 110.11" stroke="#C7C6C5" stroke-width="0.43" stroke-miterlimit="10"/>
<path d="M192.69 113.56H209.42C209.8 113.56 210.11 113.87 210.11 114.25V131.26C210.11 131.64 209.8 131.95 209.42 131.95H192.69C192.31 131.95 192 131.64 192 131.26V114.24C192 113.86 192.31 113.55 192.69 113.55V113.56Z" stroke="#C7C6C5" stroke-width="0.43" stroke-miterlimit="10"/>
<path d="M192.69 113.56H209.42C209.8 113.56 210.11 113.87 210.11 114.25V131.26C210.11 131.64 209.8 131.95 209.42 131.95H192.69C192.31 131.95 192 131.64 192 131.26V114.24C192 113.86 192.31 113.55 192.69 113.55V113.56Z" stroke="#C7C6C5" stroke-width="0.43" stroke-miterlimit="10"/>
<path d="M86.79 218.66H32.48V234.98H86.79V218.66Z" stroke="#C7C6C5" stroke-width="0.43" stroke-linecap="round" stroke-linejoin="round"/>
<path d="M60.54 223.23C60.54 222.03 58.77 222.05 58.77 223.23C58.77 224.11 59.65 223.87 59.65 224.67" stroke="#C7C6C5" stroke-width="0.43" stroke-linecap="round" stroke-linejoin="round"/>
<path d="M59.66 224.67L65.61 226.67C65.61 226.67 66.16 226.88 66.08 227.48C66 228.08 65.44 228.01 65.44 228.01H53.89C53.89 228.01 53.33 228.08 53.25 227.48C53.17 226.88 53.72 226.67 53.72 226.67L59.67 224.67H59.66Z" stroke="#C7C6C5" stroke-width="0.43" stroke-linecap="round" stroke-linejoin="round"/>
<path d="M67.99 227.44H85.57" stroke="#C7C6C5" stroke-width="0.43" stroke-linecap="round" stroke-linejoin="round"/>
<path d="M33.27 227.44H51.29" stroke="#C7C6C5" stroke-width="0.43" stroke-linecap="round" stroke-linejoin="round"/>
<path d="M216.61 185.66H174.68V201.98H216.61V185.66Z" stroke="#C7C6C5" stroke-width="0.43" stroke-linecap="round" stroke-linejoin="round"/>
<path d="M174.69 180.98H152.35V201.98H174.69V180.98Z" stroke="#C7C6C5" stroke-width="0.43" stroke-linecap="round" stroke-linejoin="round"/>
<path d="M196.73 190.23C196.73 189.03 194.96 189.05 194.96 190.23C194.96 191.11 195.84 190.87 195.84 191.67" stroke="#C7C6C5" stroke-width="0.43" stroke-linecap="round" stroke-linejoin="round"/>
<path d="M195.86 191.67L201.81 193.67C201.81 193.67 202.35 193.88 202.28 194.48C202.2 195.08 201.64 195.01 201.64 195.01H190.09C190.09 195.01 189.53 195.07 189.45 194.48C189.37 193.88 189.92 193.67 189.92 193.67L195.87 191.67H195.86Z" stroke="#C7C6C5" stroke-width="0.43" stroke-linecap="round" stroke-linejoin="round"/>
<path d="M204.18 194.45H215.38" stroke="#C7C6C5" stroke-width="0.43" stroke-linecap="round" stroke-linejoin="round"/>
<path d="M175.48 194.45H187.48" stroke="#C7C6C5" stroke-width="0.43" stroke-linecap="round" stroke-linejoin="round"/>
<path d="M34.3199 280.91C34.3199 280.91 33.1899 280.94 33.1899 279.78V253.59C33.1899 252.41 34.3199 252.46 34.3199 252.46H84.2699C84.2699 252.46 85.3999 252.43 85.3999 253.59V279.78C85.3999 280.96 84.2699 280.91 84.2699 280.91H34.3199Z" stroke="#C7C6C5" stroke-width="0.43" stroke-miterlimit="10"/>
<path d="M35.98 257.59H45.8C46.33 257.59 46.77 258.02 46.77 258.56V274.82C46.77 275.35 46.34 275.78 45.81 275.78H35.99C35.46 275.78 35.02 275.35 35.02 274.81V258.55C35.02 258.02 35.45 257.59 35.98 257.59Z" stroke="#C7C6C5" stroke-width="0.43" stroke-miterlimit="10"/>
<path d="M47.92 280.91V252.46" stroke="#C7C6C5" stroke-width="0.43" stroke-miterlimit="10"/>
<path d="M38.57 252.46C38.57 253.18 37.72 253.17 37.72 253.17H34.32C34.23 253.17 34.06 253.19 33.98 253.28C33.91 253.35 33.89 253.49 33.89 253.6V279.79C33.89 279.94 33.92 280.04 33.98 280.1C34.08 280.19 34.27 280.22 34.3 280.22H37.71C37.71 280.22 38.56 280.19 38.56 280.93C38.56 281.67 37.71 281.64 37.71 281.64H34.3C34.18 281.64 33.77 281.62 33.36 281.4C32.78 281.09 32.47 280.52 32.47 279.8V253.61C32.47 252.91 32.76 252.49 33 252.26C33.54 251.74 34.27 251.76 34.35 251.77H37.72C37.72 251.77 38.57 251.75 38.57 252.48V252.46Z" stroke="#C7C6C5" stroke-width="0.43" stroke-miterlimit="10"/>
<path d="M37.7299 280.91H34.33C34.33 280.91 33.2 280.94 33.2 279.78V253.59C33.2 252.41 34.33 252.46 34.33 252.46H37.7299" stroke="#C7C6C5" stroke-width="0.43" stroke-miterlimit="10" stroke-linecap="round"/>
<path d="M170.83 52.02C170.83 52.02 170.14 51.12 170.14 50.52C170.14 50.13 170.89 48.96 176.03 48.96C181.17 48.96 181.92 50.13 181.92 50.52C181.92 51.35 181.23 52.01 181.23 52.01" stroke="#C7C6C5" stroke-width="0.43" stroke-miterlimit="10"/>
<path d="M181.92 61.15C181.92 61.54 181.6 61.86 181.21 61.86H170.85C170.46 61.86 170.14 61.54 170.14 61.15V52.79C170.14 52.4 170.89 51.23 176.03 51.23C181.17 51.23 181.92 52.4 181.92 52.79V61.16V61.15Z" stroke="#C7C6C5" stroke-width="0.43" stroke-miterlimit="10"/>
<path d="M189.75 62.44C189.75 62.44 190.65 61.75 191.25 61.75C191.64 61.75 192.81 62.5 192.81 67.64C192.81 72.78 191.64 73.53 191.25 73.53C190.42 73.53 189.76 72.84 189.76 72.84" stroke="#C7C6C5" stroke-width="0.43" stroke-miterlimit="10"/>
<path d="M180.62 73.53C180.23 73.53 179.91 73.21 179.91 72.82V62.46C179.91 62.07 180.23 61.75 180.62 61.75H188.98C189.37 61.75 190.54 62.5 190.54 67.64C190.54 72.78 189.37 73.53 188.98 73.53H180.61H180.62Z" stroke="#C7C6C5" stroke-width="0.43" stroke-miterlimit="10"/>
<path d="M142.49 67.0598C142.49 67.0598 141.37 67.2098 140.95 67.6298C140.67 67.9098 140.38 69.2598 144.01 72.8998C147.64 76.5398 149 76.2398 149.28 75.9598C149.87 75.3698 149.85 74.4198 149.85 74.4198" stroke="#C7C6C5" stroke-width="0.43" stroke-miterlimit="10"/>
<path d="M156.79 68.4499C157.07 68.1699 157.07 67.7299 156.79 67.4499L149.46 60.1199C149.18 59.8399 148.73 59.8399 148.46 60.1199L142.55 66.0299C142.27 66.3099 141.98 67.6599 145.61 71.2999C149.24 74.9399 150.6 74.6399 150.88 74.3599L156.79 68.4399V68.4499Z" stroke="#C7C6C5" stroke-width="0.43" stroke-miterlimit="10"/>
<path d="M156.22 52.02C156.22 52.02 155.53 51.12 155.53 50.52C155.53 50.13 156.28 48.96 161.42 48.96C166.56 48.96 167.31 50.13 167.31 50.52C167.31 51.35 166.62 52.01 166.62 52.01" stroke="#C7C6C5" stroke-width="0.43" stroke-miterlimit="10"/>
<path d="M167.3 61.15C167.3 61.54 166.98 61.86 166.59 61.86H156.23C155.84 61.86 155.52 61.54 155.52 61.15V52.79C155.52 52.4 156.27 51.23 161.41 51.23C166.55 51.23 167.3 52.4 167.3 52.79V61.16V61.15Z" stroke="#C7C6C5" stroke-width="0.43" stroke-miterlimit="10"/>
<path d="M170.83 83.3801C170.83 83.3801 170.14 84.2801 170.14 84.8801C170.14 85.2701 170.89 86.4401 176.03 86.4401C181.17 86.4401 181.92 85.2701 181.92 84.8801C181.92 84.0501 181.23 83.3901 181.23 83.3901" stroke="#C7C6C5" stroke-width="0.43" stroke-miterlimit="10"/>
<path d="M181.92 74.24C181.92 73.85 181.6 73.53 181.21 73.53H170.85C170.46 73.53 170.14 73.85 170.14 74.24V82.6C170.14 82.99 170.89 84.16 176.03 84.16C181.17 84.16 181.92 82.99 181.92 82.6V74.23V74.24Z" stroke="#C7C6C5" stroke-width="0.43" stroke-miterlimit="10"/>
<path d="M156.22 83.3801C156.22 83.3801 155.53 84.2801 155.53 84.8801C155.53 85.2701 156.28 86.4401 161.42 86.4401C166.56 86.4401 167.31 85.2701 167.31 84.8801C167.31 84.0501 166.62 83.3901 166.62 83.3901" stroke="#C7C6C5" stroke-width="0.43" stroke-miterlimit="10"/>
<path d="M167.3 74.24C167.3 73.85 166.98 73.53 166.59 73.53H156.23C155.84 73.53 155.52 73.85 155.52 74.24V82.6C155.52 82.99 156.27 84.16 161.41 84.16C166.55 84.16 167.3 82.99 167.3 82.6V74.23V74.24Z" stroke="#C7C6C5" stroke-width="0.43" stroke-miterlimit="10"/>
<path d="M185.56 56.3699H151.91V78.8999H185.56V56.3699Z" stroke="#C7C6C5" stroke-width="0.43" stroke-miterlimit="10"/>
<path d="M63.11 291.56L66.43 294.88C66.43 294.88 66.64 295.24 67.26 294.95C67.88 294.66 67.62 294.04 67.62 294.04C67.62 294.04 67.48 292.03 65.05 289.6" stroke="#C7C6C5" stroke-width="0.43" stroke-miterlimit="10"/>
<path d="M63.11 291.56L66.43 294.88C66.43 294.88 66.64 295.24 67.26 294.95C67.88 294.66 67.62 294.04 67.62 294.04C67.62 294.04 67.48 292.03 65.05 289.6" stroke="#C7C6C5" stroke-width="0.43" stroke-linecap="round" stroke-linejoin="round"/>
<path d="M66.62 295.03C67.03 295.03 67.15 293.73 64.04 290.63" stroke="#C7C6C5" stroke-width="0.43" stroke-linecap="round" stroke-linejoin="round"/>
<path d="M62.38 300.19L65.73 296.11C65.91 295.89 66.25 295.85 66.48 296.04L66.83 296.33C67.05 296.51 67.09 296.85 66.9 297.08L63.55 301.16C63.37 301.38 63.03 301.42 62.8 301.23L62.45 300.94C62.23 300.76 62.19 300.42 62.38 300.19Z" stroke="#C7C6C5" stroke-width="0.43" stroke-miterlimit="10"/>
<path d="M62.38 300.19L65.73 296.11C65.91 295.89 66.25 295.85 66.48 296.04L66.83 296.33C67.05 296.51 67.09 296.85 66.9 297.08L63.55 301.16C63.37 301.38 63.03 301.42 62.8 301.23L62.45 300.94C62.23 300.76 62.19 300.42 62.38 300.19Z" stroke="#C7C6C5" stroke-width="0.43" stroke-linecap="round" stroke-linejoin="round"/>
<path d="M55.22 299.46C59.16 303.4 60.44 303.17 62.26 300.68C62.26 300.68 62.14 300.55 62.47 300.15C62.8 299.75 65.36 296.64 65.36 296.64C65.73 296.19 65.96 294.42 64.32 292.78L61.89 290.35C60.25 288.71 58.48 288.94 58.03 289.31C58.03 289.31 54.69 292.06 54.47 292.24C54.25 292.42 53.99 292.41 53.99 292.41C51.5 294.23 51.27 295.51 55.21 299.45" stroke="#C7C6C5" stroke-width="0.43" stroke-miterlimit="10"/>
<path d="M55.22 299.46C59.16 303.4 60.44 303.17 62.26 300.68C62.26 300.68 62.14 300.55 62.47 300.15C62.8 299.75 65.36 296.64 65.36 296.64C65.73 296.19 65.96 294.42 64.32 292.78L61.89 290.35C60.25 288.71 58.48 288.94 58.03 289.31C58.03 289.31 54.69 292.06 54.47 292.24C54.25 292.42 53.99 292.41 53.99 292.41C51.5 294.23 51.27 295.51 55.21 299.45" stroke="#C7C6C5" stroke-width="0.43" stroke-linecap="round" stroke-linejoin="round"/>
<path d="M63.1099 291.56L59.7899 288.24C59.7899 288.24 59.4299 288.03 59.7199 287.41C60.0099 286.79 60.6299 287.04 60.6299 287.04C60.6299 287.04 62.6399 287.19 65.0699 289.61" stroke="#C7C6C5" stroke-width="0.43" stroke-miterlimit="10"/>
<path d="M63.1099 291.56L59.7899 288.24C59.7899 288.24 59.4299 288.03 59.7199 287.41C60.0099 286.79 60.6299 287.04 60.6299 287.04C60.6299 287.04 62.6399 287.19 65.0699 289.61" stroke="#C7C6C5" stroke-width="0.43" stroke-linecap="round" stroke-linejoin="round"/>
<path d="M59.6299 288.05C59.6299 287.64 60.9299 287.52 64.0299 290.63" stroke="#C7C6C5" stroke-width="0.43" stroke-linecap="round" stroke-linejoin="round"/>
<path d="M53.46 291.09L57.53 287.72C57.75 287.54 58.09 287.57 58.28 287.79L58.57 288.14C58.75 288.36 58.72 288.7 58.5 288.89L54.43 292.26C54.21 292.44 53.87 292.41 53.68 292.19L53.39 291.84C53.21 291.62 53.24 291.28 53.46 291.09Z" stroke="#C7C6C5" stroke-width="0.43" stroke-miterlimit="10"/>
<path d="M53.46 291.09L57.53 287.72C57.75 287.54 58.09 287.57 58.28 287.79L58.57 288.14C58.75 288.36 58.72 288.7 58.5 288.89L54.43 292.26C54.21 292.44 53.87 292.41 53.68 292.19L53.39 291.84C53.21 291.62 53.24 291.28 53.46 291.09Z" stroke="#C7C6C5" stroke-width="0.43" stroke-linecap="round" stroke-linejoin="round"/>
<path d="M81.39 300.9H32.48V320.3H81.39V300.9Z" stroke="#C7C6C5" stroke-width="0.43" stroke-miterlimit="10"/>
<path d="M81.39 300.9H32.48V320.3H81.39V300.9Z" stroke="#C7C6C5" stroke-width="0.43" stroke-linecap="round" stroke-linejoin="round"/>
<path d="M64.27 145.35C64.27 147.73 62.42 147.73 61.89 147.73H47.05C46.52 147.73 46.09 147.3 46.09 146.76V136.94C46.09 136.41 46.52 135.97 47.05 135.97H61.89C62.42 135.97 64.27 135.97 64.27 138.35V145.34V145.35Z" stroke="#C7C6C5" stroke-width="0.43" stroke-miterlimit="10"/>
<path d="M49.77 137.97H61.26C61.77 137.97 62.19 138.39 62.19 138.9V144.83C62.19 145.34 61.78 145.76 61.26 145.76H49.77C49.26 145.76 48.84 145.34 48.84 144.83V138.9C48.84 138.39 49.25 137.97 49.77 137.97Z" stroke="#C7C6C5" stroke-width="0.43" stroke-miterlimit="10"/>
<path d="M48.85 140.33C49.7 140.33 50.38 141.02 50.38 141.86C50.38 142.7 49.69 143.39 48.85 143.39" stroke="#C7C6C5" stroke-width="0.43" stroke-miterlimit="10"/>
<path d="M52.39 177.02C50.01 177.02 50.01 175.17 50.01 174.64V159.8C50.01 159.27 50.44 158.84 50.98 158.84H60.8C61.33 158.84 61.77 159.27 61.77 159.8V174.64C61.77 175.17 61.77 177.02 59.39 177.02H52.39Z" stroke="#C7C6C5" stroke-width="0.43" stroke-miterlimit="10"/>
<path d="M52.92 161.59H58.85C59.36 161.59 59.78 162.01 59.78 162.52V174.01C59.78 174.52 59.37 174.94 58.85 174.94H52.92C52.41 174.94 51.99 174.53 51.99 174.01V162.52C51.99 162.01 52.4 161.59 52.92 161.59Z" stroke="#C7C6C5" stroke-width="0.43" stroke-miterlimit="10"/>
<path d="M57.42 161.59C57.42 162.44 56.73 163.12 55.89 163.12C55.05 163.12 54.36 162.43 54.36 161.59" stroke="#C7C6C5" stroke-width="0.43" stroke-miterlimit="10"/>
<path d="M117.12 65.0801H99.52V82.0501H117.12V65.0801Z" stroke="#C7C6C5" stroke-width="0.43" stroke-miterlimit="10"/>
<path d="M106.76 74.8601L109.51 72.1101" stroke="#C7C6C5" stroke-width="0.43" stroke-miterlimit="10" stroke-linecap="round"/>
<path d="M109.51 74.8601L106.76 72.1101" stroke="#C7C6C5" stroke-width="0.43" stroke-miterlimit="10" stroke-linecap="round"/>
<path d="M111.39 73.49H104.89" stroke="#C7C6C5" stroke-width="0.43" stroke-miterlimit="10" stroke-linecap="round"/>
<path d="M108.14 70.24V76.74" stroke="#C7C6C5" stroke-width="0.43" stroke-miterlimit="10" stroke-linecap="round"/>
<path d="M117.12 48.1099H99.52V65.0799H117.12V48.1099Z" stroke="#C7C6C5" stroke-width="0.43" stroke-miterlimit="10"/>
<path d="M117.12 25.1299H99.52V48.1099H117.12V25.1299Z" stroke="#C7C6C5" stroke-width="0.43" stroke-miterlimit="10"/>
<path d="M106.76 57.8896L109.51 55.1396" stroke="#C7C6C5" stroke-width="0.43" stroke-miterlimit="10" stroke-linecap="round"/>
<path d="M109.51 57.8896L106.76 55.1396" stroke="#C7C6C5" stroke-width="0.43" stroke-miterlimit="10" stroke-linecap="round"/>
<path d="M111.39 56.5098H104.89" stroke="#C7C6C5" stroke-width="0.43" stroke-miterlimit="10" stroke-linecap="round"/>
<path d="M108.14 53.2598V59.7598" stroke="#C7C6C5" stroke-width="0.43" stroke-miterlimit="10" stroke-linecap="round"/>
<path d="M178.23 7.65991H160.61V25.1199H178.23V7.65991Z" stroke="#C7C6C5" stroke-width="0.43" stroke-miterlimit="10"/>
<path d="M173.49 23.0999C174.937 23.0999 176.11 21.9268 176.11 20.4799C176.11 19.0329 174.937 17.8599 173.49 17.8599C172.043 17.8599 170.87 19.0329 170.87 20.4799C170.87 21.9268 172.043 23.0999 173.49 23.0999Z" stroke="#C7C6C5" stroke-width="0.43" stroke-miterlimit="10"/>
<path d="M164.89 23.0999C166.337 23.0999 167.51 21.9268 167.51 20.4799C167.51 19.0329 166.337 17.8599 164.89 17.8599C163.443 17.8599 162.27 19.0329 162.27 20.4799C162.27 21.9268 163.443 23.0999 164.89 23.0999Z" stroke="#C7C6C5" stroke-width="0.43" stroke-miterlimit="10"/>
<path d="M173.49 15.19C174.937 15.19 176.11 14.0169 176.11 12.57C176.11 11.123 174.937 9.94995 173.49 9.94995C172.043 9.94995 170.87 11.123 170.87 12.57C170.87 14.0169 172.043 15.19 173.49 15.19Z" stroke="#C7C6C5" stroke-width="0.43" stroke-miterlimit="10"/>
<path d="M164.89 15.19C166.337 15.19 167.51 14.0169 167.51 12.57C167.51 11.123 166.337 9.94995 164.89 9.94995C163.443 9.94995 162.27 11.123 162.27 12.57C162.27 14.0169 163.443 15.19 164.89 15.19Z" stroke="#C7C6C5" stroke-width="0.43" stroke-miterlimit="10"/>
<path d="M147 7.58008H129.38V25.1201H147V7.58008Z" stroke="#C7C6C5" stroke-width="0.43" stroke-miterlimit="10"/>
<path d="M132.5 23.6801C131.6 23.6801 130.88 22.9501 130.88 22.0601V10.7401C130.88 9.84012 131.61 9.12012 132.5 9.12012H143.87C144.77 9.12012 145.49 9.84012 145.49 10.7401V22.0601C145.49 22.9601 144.76 23.6801 143.87 23.6801H132.5Z" stroke="#C7C6C5" stroke-width="0.43" stroke-miterlimit="10"/>
<path d="M132.5 23.6801C131.6 23.6801 130.88 22.9501 130.88 22.0601V10.7401C130.88 9.84012 131.61 9.12012 132.5 9.12012H143.87C144.77 9.12012 145.49 9.84012 145.49 10.7401V22.0601C145.49 22.9601 144.76 23.6801 143.87 23.6801H132.5Z" stroke="#C7C6C5" stroke-width="0.43" stroke-miterlimit="10"/>
<path d="M143.26 12.2601C142.74 12.2601 142.31 11.8301 142.31 11.3101C142.31 10.7901 142.74 10.3601 143.26 10.3601C143.78 10.3601 144.21 10.7801 144.21 11.3101C144.21 11.8401 143.79 12.2601 143.26 12.2601Z" stroke="#C7C6C5" stroke-width="0.43" stroke-miterlimit="10"/>
<path d="M138.91 8.53003H137.48V13.91H138.91V8.53003Z" stroke="#C7C6C5" stroke-width="0.43" stroke-miterlimit="10"/>
<path d="M129.38 7.65991H99.52V25.1199H129.38V7.65991Z" stroke="#C7C6C5" stroke-width="0.43" stroke-miterlimit="10"/>
<path d="M160.61 7.65991H147V25.1199H160.61V7.65991Z" stroke="#C7C6C5" stroke-width="0.43" stroke-miterlimit="10"/>
<path d="M216.73 7.65991H178.23V25.1199H216.73V7.65991Z" stroke="#C7C6C5" stroke-width="0.43" stroke-miterlimit="10"/>
<path d="M129.97 214.73H118.92V277.94H129.97V214.73Z" stroke="#C7C6C5" stroke-width="0.43" stroke-miterlimit="10"/>
<path d="M129.97 214.73H118.92V277.94H129.97V214.73Z" stroke="#C7C6C5" stroke-width="0.43" stroke-miterlimit="10"/>
<path d="M124.74 240.72L127.86 233.81L127.17 233.5L121.38 243.12H120.67C120.67 243.12 120.11 243.15 120.11 243.68V248.99C120.11 249.52 120.67 249.55 120.67 249.55H121.38L127.17 259.17L127.86 258.86L124.74 251.95V240.7V240.72Z" stroke="#C7C6C5" stroke-width="0.43" stroke-miterlimit="10"/>
<path d="M124.74 240.72L127.86 233.81L127.17 233.5L121.38 243.12H120.67C120.67 243.12 120.11 243.15 120.11 243.68V248.99C120.11 249.52 120.67 249.55 120.67 249.55H121.38L127.17 259.17L127.86 258.86L124.74 251.95V240.7V240.72Z" stroke="#C7C6C5" stroke-width="0.43" stroke-miterlimit="10"/>
<path d="M124.75 226H123.81V266.69H124.75V226Z" stroke="#C7C6C5" stroke-width="0.43" stroke-miterlimit="10"/>
<path d="M124.75 226H123.81V266.69H124.75V226Z" stroke="#C7C6C5" stroke-width="0.43" stroke-miterlimit="10"/>
<path d="M123.81 254.82C123.81 253.73 122.84 253.82 122.84 252.6V240.07C122.84 238.85 123.81 238.95 123.81 237.85V254.81V254.82Z" stroke="#C7C6C5" stroke-width="0.43" stroke-miterlimit="10"/>
<path d="M123.81 254.82C123.81 253.73 122.84 253.82 122.84 252.6V240.07C122.84 238.85 123.81 238.95 123.81 237.85V254.81V254.82Z" stroke="#C7C6C5" stroke-width="0.43" stroke-miterlimit="10"/>
<path d="M216.03 212.58H205.59C205.198 212.58 204.88 212.898 204.88 213.29V223.73C204.88 224.122 205.198 224.44 205.59 224.44H216.03C216.422 224.44 216.74 224.122 216.74 223.73V213.29C216.74 212.898 216.422 212.58 216.03 212.58Z" stroke="#C7C6C5" stroke-width="0.43" stroke-linecap="round" stroke-linejoin="round"/>
<path d="M216.03 268.9H205.59C205.198 268.9 204.88 269.218 204.88 269.61V280.05C204.88 280.442 205.198 280.76 205.59 280.76H216.03C216.422 280.76 216.74 280.442 216.74 280.05V269.61C216.74 269.218 216.422 268.9 216.03 268.9Z" stroke="#C7C6C5" stroke-width="0.43" stroke-linecap="round" stroke-linejoin="round"/>
<path d="M214.91 225.36C214.91 225.36 216.04 225.33 216.04 226.49V266.85C216.04 268.04 214.91 267.98 214.91 267.98H164.96C164.96 267.98 163.83 268.01 163.83 266.85V226.49C163.83 225.31 164.96 225.36 164.96 225.36H214.91Z" stroke="#C7C6C5" stroke-width="0.43" stroke-miterlimit="10"/>
<path d="M203.43 227.63H213.25C213.78 227.63 214.21 228.06 214.21 228.59V244.85C214.21 245.38 213.78 245.82 213.24 245.82H203.42C202.89 245.82 202.45 245.39 202.45 244.85V228.6C202.45 228.07 202.88 227.63 203.42 227.63H203.43Z" stroke="#C7C6C5" stroke-width="0.43" stroke-miterlimit="10"/>
<path d="M203.43 247.52H213.25C213.78 247.52 214.22 247.95 214.22 248.49V264.74C214.22 265.27 213.79 265.71 213.25 265.71H203.43C202.9 265.71 202.47 265.28 202.47 264.75V248.49C202.47 247.96 202.9 247.52 203.44 247.52H203.43Z" stroke="#C7C6C5" stroke-width="0.43" stroke-miterlimit="10"/>
<path d="M201.31 225.36V267.98" stroke="#C7C6C5" stroke-width="0.43" stroke-miterlimit="10"/>
<path d="M210.66 267.98C210.66 267.26 211.51 267.27 211.51 267.27H214.91C215 267.27 215.16 267.24 215.25 267.16C215.32 267.09 215.34 266.95 215.34 266.84V226.48C215.34 226.33 215.31 226.23 215.25 226.17C215.15 226.08 214.95 226.06 214.93 226.06H211.52C211.52 226.06 210.67 226.09 210.67 225.35C210.67 224.61 211.52 224.64 211.52 224.64H214.92C215.04 224.64 215.45 224.66 215.86 224.88C216.44 225.19 216.75 225.76 216.75 226.48V266.84C216.75 267.54 216.46 267.96 216.22 268.19C215.68 268.71 214.95 268.69 214.87 268.68H211.5C211.5 268.68 210.65 268.7 210.65 267.97L210.66 267.98Z" stroke="#C7C6C5" stroke-width="0.43" stroke-miterlimit="10"/>
<path d="M211.5 225.36H214.9C214.9 225.36 216.03 225.33 216.03 226.49V266.85C216.03 268.04 214.9 267.98 214.9 267.98H211.5" stroke="#C7C6C5" stroke-width="0.43" stroke-miterlimit="10" stroke-linecap="round"/>
<path d="M42.17 196.53C36.73 196.53 32.3 200.95 32.3 206.4C32.3 211.85 36.73 216.26 42.17 216.26H71.69C77.13 216.26 81.56 211.84 81.56 206.4C81.56 200.96 77.13 196.53 71.69 196.53H42.17Z" stroke="#C7C6C5" stroke-width="0.43" stroke-linecap="round" stroke-linejoin="round"/>
<path d="M42.39 198.39C37.98 198.39 34.39 201.98 34.39 206.39C34.39 210.8 37.98 214.39 42.39 214.39H71.69C76.1 214.39 79.7 210.8 79.7 206.39C79.7 201.98 76.11 198.39 71.69 198.39H42.39Z" stroke="#C7C6C5" stroke-width="0.43" stroke-linecap="round" stroke-linejoin="round"/>
<path d="M74.18 206.4C74.18 204.45 72.6 202.86 70.65 202.86H44.63C42.68 202.86 41.1 204.44 41.1 206.4C41.1 208.35 42.68 209.93 44.63 209.93H70.65C72.6 209.93 74.18 208.35 74.18 206.4Z" stroke="#C7C6C5" stroke-width="0.43" stroke-linecap="round" stroke-linejoin="round"/>
<path d="M58.55 213.53C58.55 213.28 58.14 213.08 57.63 213.08C57.12 213.08 56.71 213.28 56.71 213.53C56.71 213.78 57.12 213.97 57.63 213.97C58.14 213.97 58.55 213.77 58.55 213.53Z" stroke="#C7C6C5" stroke-width="0.43" stroke-linecap="round" stroke-linejoin="round"/>
<path d="M33.19 169.19H44.41C44.8 169.19 45.12 169.51 45.12 169.9V191.18C45.12 191.57 44.8 191.89 44.41 191.89H33.19C32.8 191.89 32.48 191.57 32.48 191.18V169.9C32.48 169.51 32.8 169.19 33.19 169.19Z" stroke="#C7C6C5" stroke-width="0.43" stroke-linecap="round" stroke-linejoin="round"/>
<path d="M39.08 171.28C36.42 171.28 34.26 175.44 34.26 180.57C34.26 185.7 36.42 189.86 39.08 189.86C41.74 189.86 43.9 185.7 43.9 180.57C43.9 175.44 41.74 171.28 39.08 171.28Z" stroke="#C7C6C5" stroke-width="0.43" stroke-miterlimit="10"/>
<path d="M39.08 171.28C36.42 171.28 34.26 175.44 34.26 180.57C34.26 185.7 36.42 189.86 39.08 189.86C41.74 189.86 43.9 185.7 43.9 180.57C43.9 175.44 41.74 171.28 39.08 171.28Z" stroke="#C7C6C5" stroke-width="0.43" stroke-linecap="round" stroke-linejoin="round"/>
<path d="M34.04 182.92C33.62 182.92 33.29 183.26 33.29 183.67C33.29 184.08 33.63 184.42 34.04 184.42C34.45 184.42 34.79 184.08 34.79 183.67C34.79 183.26 34.45 182.92 34.04 182.92Z" stroke="#C7C6C5" stroke-width="0.43" stroke-miterlimit="10"/>
<path d="M34.04 182.92C33.62 182.92 33.29 183.26 33.29 183.67C33.29 184.08 33.63 184.42 34.04 184.42C34.45 184.42 34.79 184.08 34.79 183.67C34.79 183.26 34.45 182.92 34.04 182.92Z" stroke="#C7C6C5" stroke-width="0.43" stroke-linecap="round" stroke-linejoin="round"/>
<path d="M34.04 176.61C33.62 176.61 33.29 176.95 33.29 177.36C33.29 177.77 33.63 178.11 34.04 178.11C34.45 178.11 34.79 177.77 34.79 177.36C34.79 176.95 34.45 176.61 34.04 176.61Z" stroke="#C7C6C5" stroke-width="0.43" stroke-miterlimit="10"/>
<path d="M34.04 176.61C33.62 176.61 33.29 176.95 33.29 177.36C33.29 177.77 33.63 178.11 34.04 178.11C34.45 178.11 34.79 177.77 34.79 177.36C34.79 176.95 34.45 176.61 34.04 176.61Z" stroke="#C7C6C5" stroke-width="0.43" stroke-linecap="round" stroke-linejoin="round"/>
<path d="M36.42 180.14C36.66 180.14 36.85 180.33 36.85 180.57C36.85 180.81 36.66 181 36.42 181L34.09 181.13C33.78 181.13 33.53 180.88 33.53 180.56C33.53 180.24 33.78 179.99 34.09 179.99L36.42 180.12V180.14Z" stroke="#C7C6C5" stroke-width="0.43" stroke-miterlimit="10"/>
<path d="M36.42 180.14C36.66 180.14 36.85 180.33 36.85 180.57C36.85 180.81 36.66 181 36.42 181L34.09 181.13C33.78 181.13 33.53 180.88 33.53 180.56C33.53 180.24 33.78 179.99 34.09 179.99L36.42 180.12V180.14Z" stroke="#C7C6C5" stroke-width="0.43" stroke-linecap="round" stroke-linejoin="round"/>
<path d="M81.6 158.78H65.82V171.5H81.6V158.78Z" stroke="#C7C6C5" stroke-width="0.43" stroke-linecap="round" stroke-linejoin="round"/>
<path d="M73.77 160.73C71.33 160.73 69.35 162.71 69.35 165.15C69.35 167.59 71.33 169.57 73.77 169.57C76.21 169.57 78.19 167.59 78.19 165.15C78.19 162.71 76.21 160.73 73.77 160.73Z" stroke="#C7C6C5" stroke-width="0.43" stroke-linecap="round" stroke-linejoin="round"/>
<path d="M73.77 160.73C76.03 160.73 77.34 162.57 77.34 164.83C77.34 166.64 75.87 168.11 74.06 168.11C72.61 168.11 71.44 166.94 71.44 165.49C71.44 164.33 72.38 163.39 73.54 163.39C74.47 163.39 75.22 164.14 75.22 165.07C75.22 165.81 74.62 166.41 73.88 166.41C73.29 166.41 72.8 165.93 72.8 165.34C72.8 164.87 73.18 164.48 73.66 164.48C74.04 164.48 74.35 164.79 74.35 165.17C74.35 165.47 74.1 165.72 73.8 165.72C73.56 165.72 73.36 165.52 73.36 165.28" stroke="#C7C6C5" stroke-width="0.43" stroke-linecap="round" stroke-linejoin="round"/>
<path d="M73.77 164.53C74.11 164.53 74.39 164.81 74.39 165.15C74.39 165.49 74.11 165.77 73.77 165.77C73.43 165.77 73.15 165.49 73.15 165.15C73.15 164.81 73.43 164.53 73.77 164.53Z" fill="#C7C6C5"/>
<path d="M148 103.54C147.61 103.54 147.22 103.48 146.84 103.37C146.46 103.25 146.15 103.1 145.89 102.89L146.34 102.08C146.54 102.25 146.79 102.38 147.08 102.48C147.37 102.58 147.67 102.63 147.98 102.63C148.35 102.63 148.64 102.55 148.85 102.4C149.06 102.25 149.16 102.04 149.16 101.78C149.16 101.52 149.06 101.32 148.87 101.17C148.68 101.02 148.37 100.95 147.94 100.95H147.43V100.24L149.03 98.3401L149.17 98.7301H146.16V97.8601H149.98V98.5601L148.38 100.46L147.84 100.14H148.15C148.84 100.14 149.35 100.29 149.7 100.6C150.04 100.91 150.22 101.3 150.22 101.78C150.22 102.09 150.14 102.39 149.98 102.65C149.82 102.91 149.58 103.13 149.25 103.29C148.92 103.45 148.51 103.53 148.01 103.53L148 103.54Z" fill="#C42F20"/>
<path d="M152.67 103.54C152.28 103.54 151.89 103.48 151.51 103.37C151.13 103.25 150.82 103.1 150.56 102.89L151 102.08C151.2 102.25 151.45 102.38 151.74 102.48C152.03 102.58 152.33 102.63 152.65 102.63C153.02 102.63 153.31 102.55 153.52 102.4C153.73 102.24 153.84 102.04 153.84 101.78C153.84 101.6 153.8 101.45 153.71 101.32C153.62 101.19 153.47 101.08 153.25 101.02C153.03 100.95 152.73 100.92 152.34 100.92H150.99L151.28 97.8701H154.57V98.7401H151.67L152.21 98.2401L151.99 100.52L151.45 100.03H152.58C153.13 100.03 153.58 100.1 153.92 100.25C154.26 100.4 154.51 100.6 154.66 100.86C154.82 101.12 154.9 101.41 154.9 101.74C154.9 102.07 154.82 102.36 154.66 102.64C154.5 102.91 154.26 103.13 153.93 103.3C153.6 103.47 153.19 103.55 152.69 103.55L152.67 103.54Z" fill="#C42F20"/>
<path d="M155.53 104.67L155.99 102.9L156.13 103.49C155.94 103.49 155.79 103.43 155.66 103.32C155.54 103.2 155.47 103.05 155.47 102.85C155.47 102.65 155.53 102.49 155.66 102.37C155.79 102.25 155.94 102.19 156.12 102.19C156.3 102.19 156.46 102.25 156.58 102.37C156.7 102.49 156.76 102.65 156.76 102.85C156.76 102.9 156.76 102.96 156.74 103.02C156.74 103.08 156.71 103.15 156.69 103.23C156.67 103.31 156.63 103.41 156.57 103.53L156.16 104.66H155.51L155.53 104.67Z" fill="#C42F20"/>
<path d="M157.44 103.46V102.76L159.66 100.65C159.85 100.47 159.99 100.32 160.08 100.19C160.17 100.06 160.23 99.93 160.26 99.82C160.29 99.7 160.3 99.6 160.3 99.5C160.3 99.24 160.21 99.04 160.04 98.9C159.86 98.76 159.61 98.69 159.26 98.69C158.99 98.69 158.74 98.74 158.52 98.83C158.3 98.93 158.11 99.07 157.95 99.27L157.22 98.71C157.44 98.42 157.73 98.19 158.1 98.03C158.47 97.87 158.89 97.79 159.34 97.79C159.75 97.79 160.1 97.86 160.4 97.99C160.7 98.12 160.93 98.31 161.1 98.55C161.26 98.79 161.34 99.08 161.34 99.41C161.34 99.59 161.32 99.77 161.27 99.95C161.22 100.13 161.13 100.32 161 100.51C160.87 100.71 160.67 100.93 160.42 101.17L158.51 102.99L158.3 102.6H161.57V103.48H157.44V103.46Z" fill="#C42F20"/>
<path d="M163.93 103.54C163.54 103.54 163.15 103.48 162.77 103.37C162.39 103.25 162.08 103.1 161.82 102.89L162.27 102.08C162.47 102.25 162.72 102.38 163.01 102.48C163.3 102.58 163.6 102.63 163.91 102.63C164.28 102.63 164.57 102.55 164.78 102.4C164.99 102.25 165.09 102.04 165.09 101.78C165.09 101.52 164.99 101.32 164.8 101.17C164.61 101.02 164.3 100.95 163.87 100.95H163.36V100.24L164.96 98.3401L165.1 98.7301H162.09V97.8601H165.91V98.5601L164.31 100.46L163.77 100.14H164.08C164.77 100.14 165.28 100.29 165.63 100.6C165.97 100.91 166.15 101.3 166.15 101.78C166.15 102.09 166.07 102.39 165.91 102.65C165.75 102.91 165.51 103.13 165.18 103.29C164.85 103.45 164.44 103.53 163.94 103.53L163.93 103.54Z" fill="#C42F20"/>
<path d="M148.66 112.99C148.15 112.99 147.72 112.88 147.36 112.67C147 112.46 146.72 112.14 146.53 111.73C146.34 111.32 146.24 110.81 146.24 110.21C146.24 109.57 146.36 109.03 146.59 108.59C146.82 108.15 147.14 107.81 147.56 107.58C147.97 107.35 148.45 107.24 148.99 107.24C149.27 107.24 149.54 107.27 149.8 107.33C150.06 107.39 150.28 107.48 150.46 107.6L150.08 108.38C149.93 108.28 149.76 108.21 149.58 108.17C149.4 108.13 149.21 108.11 149.02 108.11C148.49 108.11 148.07 108.27 147.76 108.6C147.45 108.93 147.3 109.41 147.3 110.04C147.3 110.14 147.3 110.26 147.3 110.4C147.3 110.54 147.32 110.67 147.35 110.81L147.03 110.46C147.13 110.24 147.26 110.06 147.43 109.91C147.6 109.76 147.8 109.65 148.03 109.58C148.26 109.5 148.51 109.47 148.79 109.47C149.16 109.47 149.49 109.54 149.77 109.68C150.06 109.82 150.29 110.02 150.46 110.28C150.63 110.54 150.72 110.84 150.72 111.19C150.72 111.56 150.63 111.88 150.45 112.15C150.27 112.42 150.02 112.63 149.71 112.78C149.4 112.93 149.05 113 148.67 113L148.66 112.99ZM148.6 112.17C148.81 112.17 149 112.13 149.17 112.05C149.34 111.97 149.46 111.86 149.56 111.72C149.65 111.58 149.7 111.41 149.7 111.22C149.7 110.93 149.6 110.7 149.4 110.52C149.2 110.34 148.93 110.26 148.58 110.26C148.36 110.26 148.16 110.3 147.99 110.38C147.82 110.46 147.69 110.58 147.59 110.72C147.49 110.86 147.44 111.03 147.44 111.22C147.44 111.39 147.49 111.55 147.58 111.69C147.67 111.83 147.8 111.95 147.98 112.03C148.15 112.12 148.36 112.16 148.61 112.16L148.6 112.17Z" fill="#C42F20"/>
<path d="M153.68 112.99C153.17 112.99 152.74 112.88 152.38 112.67C152.02 112.45 151.74 112.14 151.55 111.73C151.36 111.32 151.26 110.81 151.26 110.21C151.26 109.57 151.38 109.03 151.61 108.59C151.84 108.15 152.16 107.81 152.58 107.58C152.99 107.35 153.47 107.24 154.01 107.24C154.29 107.24 154.56 107.27 154.82 107.33C155.08 107.39 155.3 107.48 155.48 107.6L155.1 108.38C154.95 108.28 154.78 108.21 154.6 108.17C154.42 108.13 154.23 108.11 154.04 108.11C153.51 108.11 153.09 108.27 152.78 108.6C152.47 108.93 152.32 109.41 152.32 110.04C152.32 110.14 152.32 110.26 152.32 110.4C152.32 110.54 152.34 110.67 152.38 110.81L152.06 110.46C152.16 110.24 152.29 110.06 152.46 109.91C152.63 109.76 152.83 109.65 153.06 109.58C153.29 109.5 153.54 109.47 153.82 109.47C154.19 109.47 154.52 109.54 154.8 109.68C155.09 109.82 155.32 110.02 155.49 110.28C155.66 110.54 155.75 110.84 155.75 111.19C155.75 111.56 155.66 111.88 155.48 112.15C155.3 112.42 155.05 112.63 154.74 112.78C154.43 112.93 154.08 113 153.7 113L153.68 112.99ZM153.63 112.17C153.84 112.17 154.03 112.13 154.2 112.05C154.37 111.97 154.49 111.86 154.59 111.72C154.68 111.58 154.73 111.41 154.73 111.22C154.73 110.93 154.63 110.7 154.43 110.52C154.23 110.34 153.96 110.26 153.61 110.26C153.39 110.26 153.19 110.3 153.02 110.38C152.85 110.46 152.72 110.58 152.62 110.72C152.52 110.86 152.47 111.03 152.47 111.22C152.47 111.39 152.51 111.55 152.6 111.69C152.69 111.83 152.82 111.95 153 112.03C153.17 112.12 153.38 112.16 153.63 112.16V112.17Z" fill="#C42F20"/>
<path d="M156.39 114.12L156.85 112.35L156.99 112.94C156.8 112.94 156.65 112.88 156.52 112.77C156.4 112.65 156.33 112.5 156.33 112.3C156.33 112.1 156.39 111.94 156.52 111.82C156.65 111.7 156.8 111.64 156.98 111.64C157.16 111.64 157.32 111.7 157.44 111.82C157.56 111.94 157.62 112.1 157.62 112.3C157.62 112.35 157.62 112.41 157.6 112.47C157.59 112.53 157.57 112.6 157.55 112.68C157.53 112.76 157.49 112.86 157.43 112.98L157.02 114.11H156.37L156.39 114.12Z" fill="#C42F20"/>
<path d="M160.54 112.99C160.1 112.99 159.7 112.88 159.34 112.65C158.99 112.43 158.71 112.1 158.5 111.67C158.3 111.24 158.2 110.72 158.2 110.11C158.2 109.5 158.3 108.98 158.5 108.55C158.7 108.12 158.98 107.79 159.34 107.57C159.7 107.35 160.09 107.23 160.54 107.23C160.99 107.23 161.39 107.34 161.74 107.57C162.09 107.79 162.37 108.12 162.58 108.55C162.79 108.98 162.89 109.5 162.89 110.11C162.89 110.72 162.79 111.24 162.58 111.67C162.37 112.1 162.1 112.43 161.74 112.65C161.39 112.87 160.99 112.99 160.54 112.99ZM160.54 112.09C160.8 112.09 161.03 112.02 161.22 111.88C161.41 111.74 161.56 111.52 161.67 111.23C161.78 110.94 161.83 110.57 161.83 110.12C161.83 109.67 161.78 109.29 161.67 109C161.56 108.71 161.41 108.49 161.22 108.35C161.03 108.21 160.8 108.14 160.54 108.14C160.28 108.14 160.07 108.21 159.87 108.35C159.68 108.49 159.52 108.71 159.41 109C159.3 109.29 159.25 109.66 159.25 110.12C159.25 110.58 159.3 110.94 159.41 111.23C159.52 111.52 159.67 111.74 159.87 111.88C160.07 112.02 160.29 112.09 160.54 112.09Z" fill="#C42F20"/>
<path d="M166.01 112.99C165.5 112.99 165.07 112.88 164.71 112.67C164.35 112.46 164.07 112.14 163.88 111.73C163.69 111.32 163.59 110.81 163.59 110.21C163.59 109.57 163.71 109.03 163.94 108.59C164.17 108.15 164.49 107.81 164.91 107.58C165.32 107.35 165.8 107.24 166.34 107.24C166.62 107.24 166.89 107.27 167.15 107.33C167.41 107.39 167.63 107.48 167.81 107.6L167.43 108.38C167.28 108.28 167.11 108.21 166.93 108.17C166.75 108.13 166.56 108.11 166.37 108.11C165.84 108.11 165.42 108.27 165.11 108.6C164.8 108.93 164.65 109.41 164.65 110.04C164.65 110.14 164.65 110.26 164.65 110.4C164.65 110.54 164.67 110.67 164.7 110.81L164.38 110.46C164.48 110.24 164.61 110.06 164.78 109.91C164.95 109.76 165.15 109.65 165.38 109.58C165.61 109.5 165.86 109.47 166.14 109.47C166.51 109.47 166.84 109.54 167.12 109.68C167.41 109.82 167.64 110.02 167.81 110.28C167.98 110.54 168.07 110.84 168.07 111.19C168.07 111.56 167.98 111.88 167.8 112.15C167.62 112.42 167.37 112.63 167.06 112.78C166.75 112.93 166.4 113 166.02 113L166.01 112.99ZM165.95 112.17C166.16 112.17 166.35 112.13 166.52 112.05C166.69 111.97 166.81 111.86 166.91 111.72C167 111.58 167.05 111.41 167.05 111.22C167.05 110.93 166.95 110.7 166.75 110.52C166.55 110.34 166.28 110.26 165.93 110.26C165.71 110.26 165.51 110.3 165.34 110.38C165.17 110.46 165.04 110.58 164.94 110.72C164.84 110.86 164.79 111.03 164.79 111.22C164.79 111.39 164.84 111.55 164.93 111.69C165.02 111.83 165.15 111.95 165.33 112.03C165.5 112.12 165.71 112.16 165.96 112.16L165.95 112.17Z" fill="#C42F20"/>
<path d="M112.85 114.69V113.43L116.09 110.37C116.35 110.14 116.53 109.93 116.65 109.75C116.77 109.57 116.85 109.4 116.9 109.25C116.94 109.1 116.97 108.96 116.97 108.83C116.97 108.49 116.86 108.24 116.63 108.06C116.4 107.88 116.07 107.79 115.63 107.79C115.28 107.79 114.95 107.86 114.65 107.99C114.35 108.12 114.1 108.34 113.89 108.63L112.47 107.72C112.79 107.24 113.24 106.86 113.81 106.58C114.38 106.3 115.05 106.16 115.8 106.16C116.42 106.16 116.97 106.26 117.44 106.47C117.91 106.68 118.27 106.96 118.53 107.33C118.79 107.7 118.92 108.14 118.92 108.65C118.92 108.92 118.89 109.19 118.82 109.46C118.75 109.73 118.62 110.01 118.41 110.31C118.2 110.61 117.91 110.94 117.52 111.31L114.83 113.84L114.46 113.13H119.2V114.71H112.85V114.69Z" fill="#C42F20"/>
<path d="M120.58 114.69V106.29H127.36V107.84H122.51V109.57H124.84C125.86 109.57 126.63 109.78 127.16 110.21C127.69 110.63 127.96 111.25 127.96 112.06C127.96 112.87 127.66 113.54 127.07 114C126.48 114.46 125.64 114.7 124.56 114.7H120.58V114.69ZM122.51 113.25H124.45C124.95 113.25 125.33 113.15 125.59 112.96C125.85 112.76 125.99 112.48 125.99 112.1C125.99 111.36 125.48 111 124.45 111H122.51V113.26V113.25Z" fill="#C42F20"/>
<path d="M129.02 112.06V110.56H132.42V112.06H129.02Z" fill="#C42F20"/>
<path d="M137.29 114.83C136.52 114.83 135.86 114.67 135.29 114.35C134.73 114.03 134.29 113.56 133.99 112.95C133.69 112.33 133.53 111.57 133.53 110.67C133.53 109.7 133.71 108.88 134.08 108.21C134.44 107.54 134.95 107.03 135.59 106.67C136.23 106.32 136.98 106.14 137.82 106.14C138.27 106.14 138.7 106.19 139.1 106.28C139.51 106.38 139.86 106.52 140.16 106.71L139.44 108.14C139.21 107.98 138.96 107.87 138.7 107.81C138.44 107.75 138.16 107.72 137.87 107.72C137.14 107.72 136.57 107.94 136.14 108.38C135.72 108.82 135.5 109.47 135.5 110.34C135.5 110.48 135.5 110.64 135.5 110.82C135.5 111 135.53 111.17 135.57 111.35L135.03 110.85C135.18 110.54 135.38 110.28 135.62 110.06C135.86 109.84 136.15 109.69 136.48 109.58C136.81 109.47 137.18 109.42 137.58 109.42C138.12 109.42 138.61 109.53 139.04 109.74C139.47 109.96 139.82 110.26 140.08 110.65C140.34 111.04 140.47 111.5 140.47 112.03C140.47 112.6 140.33 113.09 140.04 113.51C139.75 113.93 139.38 114.25 138.9 114.48C138.42 114.71 137.89 114.82 137.29 114.82V114.83ZM137.18 113.38C137.45 113.38 137.69 113.33 137.91 113.23C138.12 113.13 138.29 112.98 138.41 112.79C138.53 112.6 138.59 112.38 138.59 112.13C138.59 111.75 138.46 111.44 138.2 111.21C137.94 110.98 137.59 110.87 137.16 110.87C136.87 110.87 136.62 110.92 136.4 111.03C136.18 111.14 136.01 111.29 135.89 111.47C135.77 111.66 135.7 111.88 135.7 112.12C135.7 112.36 135.76 112.57 135.88 112.76C136 112.95 136.17 113.1 136.38 113.2C136.6 113.31 136.86 113.36 137.17 113.36L137.18 113.38Z" fill="#C42F20"/>
<path d="M148.66 122.1C148.15 122.1 147.72 121.99 147.36 121.78C147 121.56 146.72 121.25 146.53 120.84C146.34 120.43 146.24 119.92 146.24 119.32C146.24 118.68 146.36 118.14 146.59 117.7C146.82 117.26 147.14 116.92 147.56 116.69C147.97 116.46 148.45 116.35 148.99 116.35C149.27 116.35 149.54 116.38 149.8 116.44C150.06 116.5 150.28 116.59 150.46 116.71L150.08 117.49C149.93 117.39 149.76 117.32 149.58 117.28C149.4 117.24 149.21 117.22 149.02 117.22C148.49 117.22 148.07 117.38 147.76 117.71C147.45 118.04 147.3 118.51 147.3 119.15C147.3 119.25 147.3 119.37 147.3 119.51C147.3 119.65 147.32 119.78 147.35 119.92L147.03 119.57C147.13 119.35 147.26 119.17 147.43 119.02C147.6 118.87 147.8 118.76 148.03 118.69C148.26 118.61 148.51 118.58 148.79 118.58C149.16 118.58 149.49 118.65 149.77 118.79C150.06 118.93 150.29 119.13 150.46 119.39C150.63 119.65 150.72 119.95 150.72 120.3C150.72 120.67 150.63 120.99 150.45 121.26C150.27 121.53 150.02 121.74 149.71 121.89C149.4 122.04 149.05 122.11 148.67 122.11L148.66 122.1ZM148.6 121.28C148.81 121.28 149 121.24 149.17 121.16C149.34 121.08 149.46 120.97 149.56 120.83C149.65 120.69 149.7 120.52 149.7 120.32C149.7 120.03 149.6 119.8 149.4 119.62C149.2 119.45 148.93 119.36 148.58 119.36C148.36 119.36 148.16 119.4 147.99 119.48C147.82 119.56 147.69 119.68 147.59 119.82C147.49 119.96 147.44 120.13 147.44 120.32C147.44 120.49 147.49 120.65 147.58 120.79C147.67 120.93 147.8 121.05 147.98 121.13C148.15 121.22 148.36 121.26 148.61 121.26L148.6 121.28Z" fill="#C42F20"/>
<path d="M153.68 122.1C153.17 122.1 152.74 121.99 152.38 121.78C152.02 121.56 151.74 121.25 151.55 120.84C151.36 120.43 151.26 119.92 151.26 119.32C151.26 118.68 151.38 118.14 151.61 117.7C151.84 117.26 152.16 116.92 152.58 116.69C152.99 116.46 153.47 116.35 154.01 116.35C154.29 116.35 154.56 116.38 154.82 116.44C155.08 116.5 155.3 116.59 155.48 116.71L155.1 117.49C154.95 117.39 154.78 117.32 154.6 117.28C154.42 117.24 154.23 117.22 154.04 117.22C153.51 117.22 153.09 117.38 152.78 117.71C152.47 118.04 152.32 118.51 152.32 119.15C152.32 119.25 152.32 119.37 152.32 119.51C152.32 119.65 152.34 119.78 152.38 119.92L152.06 119.57C152.16 119.35 152.29 119.17 152.46 119.02C152.63 118.87 152.83 118.76 153.06 118.69C153.29 118.61 153.54 118.58 153.82 118.58C154.19 118.58 154.52 118.65 154.8 118.79C155.08 118.93 155.32 119.13 155.49 119.39C155.66 119.65 155.75 119.95 155.75 120.3C155.75 120.67 155.66 120.99 155.48 121.26C155.3 121.53 155.05 121.74 154.74 121.89C154.43 122.04 154.08 122.11 153.7 122.11L153.68 122.1ZM153.63 121.28C153.84 121.28 154.03 121.24 154.2 121.16C154.37 121.08 154.49 120.97 154.59 120.83C154.68 120.69 154.73 120.52 154.73 120.32C154.73 120.03 154.63 119.8 154.43 119.62C154.23 119.45 153.96 119.36 153.61 119.36C153.39 119.36 153.19 119.4 153.02 119.48C152.85 119.56 152.72 119.68 152.62 119.82C152.52 119.96 152.47 120.13 152.47 120.32C152.47 120.49 152.51 120.65 152.6 120.79C152.69 120.93 152.82 121.05 153 121.13C153.17 121.22 153.38 121.26 153.63 121.26V121.28Z" fill="#C42F20"/>
<path d="M156.39 123.23L156.85 121.46L156.99 122.05C156.8 122.05 156.65 121.99 156.52 121.88C156.4 121.76 156.33 121.61 156.33 121.41C156.33 121.21 156.39 121.05 156.52 120.93C156.65 120.81 156.8 120.75 156.98 120.75C157.16 120.75 157.32 120.81 157.44 120.94C157.56 121.06 157.62 121.22 157.62 121.42C157.62 121.47 157.62 121.53 157.6 121.59C157.59 121.65 157.57 121.72 157.55 121.8C157.53 121.88 157.49 121.98 157.43 122.1L157.02 123.23H156.37H156.39Z" fill="#C42F20"/>
<path d="M160.19 116.34C160.7 116.34 161.14 116.45 161.5 116.66C161.86 116.88 162.14 117.19 162.33 117.6C162.52 118.01 162.62 118.52 162.62 119.12C162.62 119.76 162.5 120.3 162.27 120.74C162.04 121.18 161.72 121.52 161.31 121.75C160.9 121.98 160.42 122.09 159.88 122.09C159.6 122.09 159.33 122.06 159.07 122C158.81 121.94 158.59 121.85 158.41 121.73L158.79 120.95C158.95 121.05 159.11 121.12 159.29 121.16C159.47 121.2 159.66 121.22 159.85 121.22C160.38 121.22 160.8 121.06 161.11 120.73C161.42 120.41 161.57 119.93 161.57 119.29C161.57 119.19 161.57 119.07 161.57 118.93C161.57 118.79 161.55 118.66 161.51 118.52L161.83 118.87C161.74 119.09 161.61 119.27 161.44 119.42C161.27 119.57 161.07 119.68 160.84 119.75C160.61 119.82 160.36 119.86 160.08 119.86C159.72 119.86 159.39 119.79 159.1 119.65C158.81 119.51 158.58 119.31 158.41 119.05C158.24 118.79 158.15 118.49 158.15 118.14C158.15 117.77 158.24 117.45 158.42 117.18C158.6 116.91 158.85 116.7 159.16 116.55C159.47 116.4 159.82 116.33 160.2 116.33L160.19 116.34ZM160.25 117.15C160.04 117.15 159.85 117.19 159.68 117.27C159.51 117.35 159.39 117.46 159.29 117.6C159.2 117.74 159.15 117.91 159.15 118.11C159.15 118.4 159.25 118.64 159.45 118.81C159.65 118.98 159.92 119.07 160.27 119.07C160.49 119.07 160.69 119.03 160.86 118.95C161.03 118.87 161.16 118.75 161.26 118.61C161.36 118.46 161.4 118.3 161.4 118.12C161.4 117.94 161.36 117.78 161.26 117.64C161.17 117.5 161.04 117.39 160.87 117.3C160.7 117.21 160.49 117.17 160.24 117.17L160.25 117.15Z" fill="#C42F20"/>
<path d="M164.21 122.02L166.52 116.84L166.79 117.3H163.61L164.11 116.8V118.26H163.14V116.43H167.49V117.13L165.31 122.03H164.2L164.21 122.02Z" fill="#C42F20"/>
<path d="M142.87 125.56V93.3501" stroke="#C42F20" stroke-miterlimit="10"/>
<path d="M63.6 345.11C63.21 345.11 62.82 345.05 62.44 344.94C62.06 344.82 61.75 344.67 61.49 344.46L61.94 343.65C62.14 343.82 62.39 343.95 62.68 344.05C62.97 344.15 63.27 344.2 63.58 344.2C63.95 344.2 64.24 344.12 64.45 343.97C64.66 343.82 64.76 343.61 64.76 343.35C64.76 343.09 64.66 342.89 64.47 342.74C64.28 342.59 63.97 342.52 63.54 342.52H63.03V341.81L64.63 339.91L64.77 340.3H61.76V339.43H65.58V340.13L63.98 342.03L63.44 341.71H63.75C64.44 341.71 64.95 341.86 65.3 342.17C65.65 342.48 65.82 342.87 65.82 343.35C65.82 343.66 65.74 343.96 65.58 344.22C65.42 344.48 65.18 344.7 64.85 344.86C64.52 345.02 64.11 345.1 63.61 345.1L63.6 345.11Z" fill="#13110C"/>
<path d="M66.53 346.24L66.99 344.47L67.13 345.06C66.94 345.06 66.79 345 66.66 344.89C66.53 344.77 66.47 344.62 66.47 344.42C66.47 344.22 66.53 344.06 66.66 343.94C66.78 343.82 66.94 343.76 67.12 343.76C67.3 343.76 67.46 343.82 67.58 343.94C67.7 344.06 67.76 344.22 67.76 344.42C67.76 344.47 67.76 344.53 67.74 344.59C67.73 344.65 67.71 344.72 67.69 344.8C67.67 344.88 67.63 344.98 67.57 345.1L67.16 346.23H66.51L66.53 346.24Z" fill="#13110C"/>
<path d="M70.68 345.11C70.24 345.11 69.84 345 69.48 344.77C69.12 344.55 68.85 344.22 68.64 343.79C68.44 343.36 68.34 342.84 68.34 342.23C68.34 341.62 68.44 341.1 68.64 340.67C68.84 340.24 69.12 339.91 69.48 339.69C69.83 339.47 70.23 339.35 70.68 339.35C71.13 339.35 71.53 339.46 71.88 339.69C72.23 339.91 72.51 340.24 72.72 340.67C72.93 341.1 73.03 341.62 73.03 342.23C73.03 342.84 72.93 343.36 72.72 343.79C72.51 344.22 72.24 344.55 71.88 344.77C71.53 344.99 71.13 345.11 70.68 345.11ZM70.68 344.21C70.94 344.21 71.17 344.14 71.36 344C71.55 343.86 71.7 343.64 71.81 343.35C71.92 343.06 71.97 342.69 71.97 342.24C71.97 341.79 71.92 341.41 71.81 341.12C71.7 340.83 71.55 340.61 71.36 340.47C71.17 340.33 70.94 340.26 70.68 340.26C70.42 340.26 70.21 340.33 70.01 340.47C69.82 340.61 69.66 340.83 69.55 341.12C69.44 341.41 69.39 341.78 69.39 342.24C69.39 342.7 69.44 343.06 69.55 343.35C69.66 343.64 69.81 343.86 70.01 344C70.21 344.14 70.43 344.21 70.68 344.21Z" fill="#13110C"/>
<path d="M75.59 345.11C75.2 345.11 74.81 345.05 74.43 344.94C74.05 344.82 73.74 344.67 73.48 344.46L73.92 343.65C74.12 343.82 74.37 343.95 74.66 344.05C74.95 344.15 75.25 344.2 75.57 344.2C75.94 344.2 76.23 344.12 76.44 343.97C76.65 343.81 76.76 343.61 76.76 343.35C76.76 343.17 76.72 343.02 76.63 342.89C76.54 342.76 76.39 342.65 76.17 342.59C75.95 342.52 75.65 342.49 75.26 342.49H73.91L74.2 339.44H77.49V340.31H74.59L75.13 339.81L74.91 342.09L74.37 341.6H75.5C76.05 341.6 76.5 341.67 76.84 341.82C77.18 341.97 77.43 342.17 77.58 342.43C77.74 342.69 77.82 342.98 77.82 343.31C77.82 343.64 77.74 343.93 77.58 344.21C77.42 344.48 77.18 344.7 76.85 344.87C76.52 345.04 76.11 345.12 75.61 345.12L75.59 345.11Z" fill="#13110C"/>
<path d="M58.75 53.2399V52.5199L61.51 48.9099H62.62L59.9 52.5199L59.38 52.3599H63.82V53.2399H58.75ZM61.82 54.5099V53.2399L61.85 52.3599V51.2299H62.83V54.5099H61.82Z" fill="#13110C"/>
<path d="M64.46 55.72L64.92 53.95L65.06 54.54C64.87 54.54 64.72 54.48 64.59 54.37C64.47 54.25 64.4 54.1 64.4 53.9C64.4 53.7 64.46 53.54 64.59 53.42C64.72 53.3 64.87 53.24 65.05 53.24C65.23 53.24 65.39 53.3 65.51 53.42C65.63 53.54 65.69 53.7 65.69 53.9C65.69 53.95 65.69 54.01 65.67 54.07C65.66 54.13 65.64 54.2 65.62 54.28C65.6 54.36 65.56 54.46 65.5 54.58L65.09 55.71H64.44L64.46 55.72Z" fill="#13110C"/>
<path d="M68.23 54.5899C67.84 54.5899 67.45 54.5299 67.07 54.4199C66.69 54.2999 66.38 54.1499 66.12 53.9399L66.56 53.1299C66.76 53.2999 67.01 53.4299 67.3 53.5299C67.59 53.6299 67.89 53.6799 68.21 53.6799C68.58 53.6799 68.87 53.5999 69.08 53.4499C69.29 53.2899 69.4 53.0899 69.4 52.8299C69.4 52.6499 69.36 52.4999 69.27 52.3699C69.18 52.2399 69.03 52.1299 68.81 52.0699C68.59 51.9999 68.29 51.9699 67.9 51.9699H66.55L66.84 48.9199H70.13V49.7899H67.23L67.77 49.2899L67.55 51.5699L67.01 51.0799H68.14C68.69 51.0799 69.14 51.1499 69.48 51.2999C69.82 51.4499 70.07 51.6499 70.22 51.9099C70.38 52.1699 70.46 52.4599 70.46 52.7899C70.46 53.1199 70.38 53.4099 70.22 53.6899C70.06 53.9599 69.82 54.1799 69.49 54.3499C69.16 54.5199 68.75 54.5999 68.25 54.5999L68.23 54.5899Z" fill="#13110C"/>
<path d="M71.87 54.5099L74.18 49.3299L74.45 49.7899H71.27L71.77 49.2899V50.7499H70.8V48.9199H75.15V49.6199L72.97 54.5199H71.86L71.87 54.5099Z" fill="#13110C"/>
<path d="M164.09 142.32V141.62L166.31 139.51C166.5 139.33 166.64 139.18 166.73 139.05C166.82 138.92 166.88 138.79 166.91 138.68C166.94 138.56 166.95 138.46 166.95 138.36C166.95 138.1 166.86 137.9 166.69 137.76C166.51 137.62 166.26 137.55 165.91 137.55C165.64 137.55 165.39 137.6 165.17 137.69C164.95 137.79 164.76 137.93 164.6 138.13L163.87 137.57C164.09 137.28 164.38 137.05 164.75 136.89C165.12 136.73 165.54 136.65 165.99 136.65C166.4 136.65 166.75 136.72 167.05 136.85C167.35 136.98 167.58 137.17 167.75 137.41C167.91 137.65 167.99 137.94 167.99 138.27C167.99 138.45 167.97 138.63 167.92 138.81C167.87 138.99 167.78 139.18 167.65 139.37C167.52 139.57 167.32 139.79 167.07 140.03L165.16 141.85L164.94 141.46H168.21V142.34H164.08L164.09 142.32Z" fill="#13110C"/>
<path d="M168.75 142.32V141.62L170.97 139.51C171.16 139.33 171.3 139.18 171.39 139.05C171.48 138.92 171.54 138.79 171.57 138.68C171.6 138.56 171.61 138.46 171.61 138.36C171.61 138.1 171.52 137.9 171.35 137.76C171.17 137.62 170.92 137.55 170.57 137.55C170.3 137.55 170.05 137.6 169.83 137.69C169.61 137.78 169.42 137.93 169.26 138.13L168.53 137.57C168.75 137.28 169.04 137.05 169.41 136.89C169.78 136.73 170.2 136.65 170.65 136.65C171.06 136.65 171.41 136.72 171.71 136.85C172.01 136.98 172.24 137.17 172.41 137.41C172.57 137.65 172.65 137.94 172.65 138.27C172.65 138.45 172.63 138.63 172.58 138.81C172.53 138.99 172.44 139.18 172.31 139.37C172.18 139.57 171.98 139.79 171.73 140.03L169.82 141.85L169.6 141.46H172.87V142.34H168.74L168.75 142.32Z" fill="#13110C"/>
<path d="M173.6 143.53L174.06 141.76L174.2 142.35C174.01 142.35 173.86 142.29 173.73 142.18C173.61 142.06 173.54 141.91 173.54 141.71C173.54 141.51 173.6 141.35 173.73 141.23C173.86 141.11 174.01 141.05 174.19 141.05C174.37 141.05 174.53 141.11 174.65 141.23C174.77 141.35 174.83 141.51 174.83 141.71C174.83 141.76 174.83 141.82 174.81 141.88C174.8 141.94 174.78 142.01 174.76 142.09C174.74 142.17 174.7 142.27 174.64 142.39L174.23 143.52H173.58L173.6 143.53Z" fill="#13110C"/>
<path d="M177.84 142.4C177.38 142.4 176.97 142.33 176.63 142.19C176.29 142.05 176.02 141.86 175.84 141.6C175.65 141.35 175.56 141.05 175.56 140.71C175.56 140.37 175.65 140.08 175.83 139.85C176.01 139.61 176.27 139.44 176.61 139.31C176.95 139.19 177.36 139.13 177.83 139.13C178.3 139.13 178.71 139.19 179.06 139.31C179.4 139.43 179.67 139.61 179.85 139.85C180.03 140.09 180.13 140.37 180.13 140.71C180.13 141.05 180.04 141.35 179.85 141.6C179.66 141.85 179.39 142.05 179.05 142.19C178.71 142.33 178.3 142.4 177.84 142.4ZM177.84 139.67C177.41 139.67 177.04 139.61 176.73 139.5C176.42 139.39 176.18 139.22 176.01 139C175.84 138.78 175.76 138.51 175.76 138.2C175.76 137.89 175.85 137.6 176.02 137.37C176.19 137.14 176.44 136.96 176.75 136.83C177.06 136.7 177.43 136.64 177.84 136.64C178.25 136.64 178.62 136.7 178.94 136.83C179.26 136.96 179.5 137.14 179.68 137.37C179.86 137.6 179.94 137.88 179.94 138.2C179.94 138.52 179.86 138.78 179.69 139C179.52 139.22 179.28 139.39 178.97 139.5C178.66 139.62 178.28 139.67 177.85 139.67H177.84ZM177.84 141.58C178.22 141.58 178.53 141.5 178.75 141.34C178.97 141.18 179.09 140.96 179.09 140.68C179.09 140.4 178.98 140.18 178.75 140.02C178.52 139.86 178.22 139.78 177.84 139.78C177.46 139.78 177.15 139.86 176.94 140.02C176.73 140.18 176.61 140.4 176.61 140.68C176.61 140.96 176.72 141.18 176.94 141.34C177.16 141.5 177.46 141.58 177.84 141.58ZM177.84 139.03C178.17 139.03 178.43 138.96 178.62 138.82C178.81 138.68 178.91 138.49 178.91 138.25C178.91 138.01 178.81 137.8 178.61 137.67C178.41 137.54 178.15 137.46 177.83 137.46C177.51 137.46 177.25 137.53 177.06 137.67C176.87 137.81 176.77 138 176.77 138.25C176.77 138.5 176.86 138.68 177.05 138.82C177.24 138.96 177.5 139.03 177.82 139.03H177.84Z" fill="#13110C"/>
<path d="M181.7 142.32V137.12L182.16 137.59H180.52V136.72H182.74V142.32H181.7Z" fill="#13110C"/>
<path d="M44.76 108.14L47.07 102.96L47.34 103.42H44.16L44.66 102.92V104.38H43.69V102.55H48.04V103.25L45.86 108.15H44.75L44.76 108.14Z" fill="#13110C"/>
<path d="M48.33 109.35L48.79 107.58L48.93 108.17C48.74 108.17 48.59 108.11 48.46 108C48.34 107.88 48.27 107.73 48.27 107.53C48.27 107.33 48.33 107.17 48.46 107.05C48.59 106.93 48.74 106.87 48.92 106.87C49.1 106.87 49.26 106.93 49.38 107.05C49.5 107.17 49.56 107.33 49.56 107.53C49.56 107.58 49.56 107.64 49.54 107.7C49.53 107.76 49.51 107.83 49.49 107.91C49.47 107.99 49.43 108.09 49.37 108.21L48.96 109.34H48.31L48.33 109.35Z" fill="#13110C"/>
<path d="M52.57 108.22C52.11 108.22 51.7 108.15 51.36 108.01C51.02 107.87 50.75 107.68 50.57 107.42C50.38 107.17 50.29 106.87 50.29 106.53C50.29 106.19 50.38 105.9 50.56 105.67C50.74 105.43 51 105.26 51.34 105.13C51.68 105.01 52.09 104.95 52.56 104.95C53.03 104.95 53.44 105.01 53.79 105.13C54.13 105.25 54.4 105.43 54.58 105.67C54.76 105.91 54.86 106.19 54.86 106.53C54.86 106.87 54.77 107.17 54.58 107.42C54.39 107.67 54.12 107.87 53.78 108.01C53.44 108.15 53.03 108.22 52.57 108.22ZM52.57 105.49C52.14 105.49 51.77 105.43 51.46 105.32C51.15 105.21 50.91 105.04 50.74 104.82C50.57 104.6 50.49 104.33 50.49 104.02C50.49 103.71 50.58 103.42 50.75 103.19C50.92 102.96 51.17 102.78 51.48 102.65C51.79 102.52 52.16 102.46 52.57 102.46C52.98 102.46 53.35 102.52 53.67 102.65C53.99 102.78 54.23 102.96 54.41 103.19C54.59 103.42 54.67 103.7 54.67 104.02C54.67 104.34 54.59 104.6 54.42 104.82C54.25 105.04 54.01 105.21 53.7 105.32C53.39 105.44 53.01 105.49 52.58 105.49H52.57ZM52.57 107.4C52.95 107.4 53.26 107.32 53.48 107.16C53.7 107 53.82 106.78 53.82 106.5C53.82 106.22 53.71 106 53.48 105.84C53.25 105.68 52.95 105.6 52.57 105.6C52.19 105.6 51.88 105.68 51.67 105.84C51.46 106 51.34 106.22 51.34 106.5C51.34 106.78 51.45 107 51.67 107.16C51.89 107.32 52.19 107.4 52.57 107.4ZM52.57 104.85C52.9 104.85 53.16 104.78 53.35 104.64C53.54 104.5 53.64 104.31 53.64 104.07C53.64 103.83 53.54 103.62 53.34 103.49C53.14 103.36 52.88 103.28 52.56 103.28C52.24 103.28 51.98 103.35 51.79 103.49C51.6 103.63 51.5 103.82 51.5 104.07C51.5 104.32 51.59 104.5 51.78 104.64C51.97 104.78 52.23 104.85 52.55 104.85H52.57Z" fill="#13110C"/>
<path d="M57.87 108.22C57.43 108.22 57.03 108.11 56.67 107.88C56.31 107.66 56.04 107.33 55.83 106.9C55.63 106.47 55.53 105.95 55.53 105.34C55.53 104.73 55.63 104.21 55.83 103.78C56.03 103.35 56.31 103.02 56.67 102.8C57.02 102.58 57.42 102.46 57.87 102.46C58.32 102.46 58.72 102.57 59.07 102.8C59.42 103.02 59.7 103.35 59.91 103.78C60.12 104.21 60.22 104.73 60.22 105.34C60.22 105.95 60.12 106.47 59.91 106.9C59.7 107.33 59.43 107.66 59.07 107.88C58.72 108.1 58.32 108.22 57.87 108.22ZM57.87 107.32C58.13 107.32 58.36 107.25 58.55 107.11C58.74 106.97 58.89 106.75 59 106.46C59.11 106.17 59.16 105.8 59.16 105.35C59.16 104.9 59.11 104.52 59 104.23C58.89 103.94 58.74 103.72 58.55 103.58C58.36 103.44 58.13 103.37 57.87 103.37C57.61 103.37 57.4 103.44 57.2 103.58C57.01 103.72 56.85 103.94 56.74 104.23C56.63 104.52 56.58 104.89 56.58 105.35C56.58 105.81 56.63 106.17 56.74 106.46C56.85 106.75 57 106.97 57.2 107.11C57.4 107.25 57.62 107.32 57.87 107.32Z" fill="#13110C"/>
<path d="M90.86 269.3V264.1L91.32 264.57H89.68V263.7H91.9V269.3H90.86Z" fill="#13110C"/>
<path d="M95.35 269.38C94.91 269.38 94.51 269.27 94.15 269.04C93.79 268.82 93.52 268.49 93.31 268.06C93.11 267.63 93.01 267.11 93.01 266.5C93.01 265.89 93.11 265.37 93.31 264.94C93.51 264.51 93.79 264.18 94.15 263.96C94.5 263.74 94.9 263.62 95.35 263.62C95.8 263.62 96.2 263.73 96.55 263.96C96.9 264.18 97.18 264.51 97.39 264.94C97.6 265.37 97.7 265.89 97.7 266.5C97.7 267.11 97.6 267.63 97.39 268.06C97.18 268.49 96.91 268.82 96.55 269.04C96.2 269.26 95.8 269.38 95.35 269.38ZM95.35 268.48C95.61 268.48 95.84 268.41 96.03 268.27C96.22 268.13 96.37 267.91 96.48 267.62C96.59 267.33 96.64 266.96 96.64 266.51C96.64 266.06 96.59 265.68 96.48 265.39C96.37 265.1 96.22 264.88 96.03 264.74C95.84 264.6 95.61 264.53 95.35 264.53C95.09 264.53 94.88 264.6 94.68 264.74C94.49 264.88 94.33 265.1 94.22 265.39C94.11 265.68 94.06 266.05 94.06 266.51C94.06 266.97 94.11 267.33 94.22 267.62C94.33 267.91 94.48 268.13 94.68 268.27C94.88 268.41 95.1 268.48 95.35 268.48Z" fill="#13110C"/>
<path d="M98.34 270.51L98.8 268.74L98.94 269.33C98.75 269.33 98.6 269.27 98.47 269.16C98.34 269.04 98.28 268.89 98.28 268.69C98.28 268.49 98.34 268.33 98.47 268.21C98.59 268.09 98.75 268.03 98.93 268.03C99.11 268.03 99.27 268.09 99.39 268.21C99.51 268.33 99.57 268.49 99.57 268.69C99.57 268.74 99.57 268.8 99.55 268.86C99.54 268.92 99.52 268.99 99.5 269.07C99.48 269.15 99.44 269.25 99.38 269.37L98.97 270.5H98.32L98.34 270.51Z" fill="#13110C"/>
<path d="M100.14 268.03V267.31L102.9 263.7H104.01L101.29 267.31L100.77 267.15H105.21V268.03H100.14ZM103.21 269.3V268.03L103.24 267.15V266.02H104.22V269.3H103.21Z" fill="#13110C"/>
<path d="M107.49 263.62C108 263.62 108.44 263.73 108.8 263.94C109.16 264.16 109.44 264.47 109.63 264.88C109.82 265.29 109.92 265.8 109.92 266.4C109.92 267.04 109.8 267.58 109.57 268.02C109.34 268.46 109.02 268.8 108.61 269.03C108.2 269.26 107.72 269.37 107.18 269.37C106.9 269.37 106.63 269.34 106.37 269.28C106.11 269.22 105.89 269.13 105.71 269.01L106.09 268.23C106.24 268.33 106.41 268.4 106.59 268.44C106.77 268.48 106.96 268.5 107.15 268.5C107.68 268.5 108.1 268.34 108.41 268.01C108.72 267.68 108.87 267.21 108.87 266.57C108.87 266.47 108.87 266.35 108.87 266.21C108.87 266.07 108.85 265.94 108.81 265.8L109.13 266.15C109.04 266.37 108.91 266.55 108.74 266.7C108.57 266.85 108.37 266.96 108.14 267.03C107.91 267.1 107.66 267.14 107.38 267.14C107.02 267.14 106.69 267.07 106.4 266.93C106.11 266.79 105.88 266.59 105.71 266.33C105.54 266.07 105.45 265.77 105.45 265.42C105.45 265.05 105.54 264.73 105.72 264.46C105.9 264.19 106.15 263.98 106.46 263.83C106.77 263.68 107.12 263.61 107.5 263.61L107.49 263.62ZM107.55 264.44C107.34 264.44 107.15 264.48 106.98 264.56C106.81 264.64 106.69 264.75 106.59 264.89C106.49 265.03 106.45 265.2 106.45 265.4C106.45 265.69 106.55 265.93 106.75 266.1C106.95 266.27 107.22 266.36 107.57 266.36C107.79 266.36 107.99 266.32 108.16 266.24C108.33 266.16 108.46 266.04 108.56 265.9C108.66 265.75 108.7 265.59 108.7 265.41C108.7 265.23 108.65 265.08 108.56 264.93C108.47 264.79 108.34 264.68 108.17 264.59C108 264.51 107.79 264.46 107.54 264.46L107.55 264.44Z" fill="#13110C"/>
<path d="M137.58 242.49V237.29L138.04 237.76H136.4V236.89H138.62V242.49H137.58Z" fill="#13110C"/>
<path d="M139.66 242.49V241.79L141.88 239.68C142.07 239.5 142.21 239.35 142.3 239.22C142.39 239.09 142.45 238.96 142.48 238.85C142.51 238.73 142.52 238.63 142.52 238.53C142.52 238.27 142.43 238.07 142.26 237.93C142.08 237.79 141.83 237.72 141.48 237.72C141.21 237.72 140.96 237.77 140.74 237.86C140.52 237.95 140.33 238.1 140.17 238.3L139.44 237.74C139.66 237.45 139.95 237.22 140.32 237.06C140.69 236.9 141.11 236.82 141.56 236.82C141.97 236.82 142.32 236.89 142.62 237.02C142.92 237.15 143.15 237.34 143.32 237.58C143.48 237.82 143.56 238.11 143.56 238.44C143.56 238.62 143.54 238.8 143.49 238.98C143.44 239.16 143.35 239.35 143.22 239.54C143.09 239.74 142.89 239.96 142.64 240.2L140.73 242.02L140.51 241.63H143.78V242.51H139.65L139.66 242.49Z" fill="#13110C"/>
<path d="M144.51 243.7L144.97 241.93L145.11 242.52C144.92 242.52 144.77 242.46 144.64 242.35C144.52 242.23 144.45 242.08 144.45 241.88C144.45 241.68 144.51 241.52 144.64 241.4C144.77 241.28 144.92 241.22 145.1 241.22C145.28 241.22 145.44 241.28 145.56 241.4C145.68 241.52 145.74 241.68 145.74 241.88C145.74 241.93 145.74 241.99 145.72 242.05C145.71 242.11 145.69 242.18 145.67 242.26C145.65 242.34 145.61 242.44 145.55 242.56L145.14 243.69H144.49L144.51 243.7Z" fill="#13110C"/>
<path d="M148.75 242.57C148.24 242.57 147.81 242.46 147.45 242.25C147.09 242.03 146.81 241.72 146.62 241.31C146.43 240.9 146.33 240.39 146.33 239.79C146.33 239.15 146.45 238.61 146.68 238.17C146.91 237.73 147.23 237.39 147.65 237.16C148.07 236.93 148.54 236.82 149.08 236.82C149.36 236.82 149.63 236.85 149.89 236.91C150.15 236.97 150.37 237.06 150.55 237.18L150.17 237.96C150.01 237.86 149.85 237.79 149.67 237.75C149.49 237.71 149.3 237.69 149.11 237.69C148.58 237.69 148.16 237.85 147.85 238.18C147.54 238.51 147.39 238.99 147.39 239.62C147.39 239.72 147.39 239.84 147.39 239.98C147.39 240.12 147.41 240.25 147.45 240.39L147.13 240.04C147.23 239.82 147.36 239.64 147.53 239.49C147.7 239.34 147.9 239.23 148.13 239.16C148.36 239.08 148.61 239.05 148.89 239.05C149.26 239.05 149.59 239.12 149.87 239.26C150.16 239.4 150.39 239.6 150.56 239.86C150.73 240.12 150.82 240.42 150.82 240.77C150.82 241.14 150.73 241.46 150.55 241.73C150.37 242 150.12 242.21 149.81 242.36C149.5 242.51 149.15 242.58 148.77 242.58L148.75 242.57ZM148.69 241.75C148.9 241.75 149.09 241.71 149.26 241.63C149.43 241.55 149.55 241.44 149.65 241.3C149.74 241.16 149.79 240.99 149.79 240.8C149.79 240.51 149.69 240.28 149.49 240.1C149.29 239.93 149.01 239.84 148.67 239.84C148.45 239.84 148.25 239.88 148.08 239.96C147.91 240.04 147.78 240.16 147.68 240.3C147.58 240.44 147.53 240.61 147.53 240.8C147.53 240.97 147.57 241.13 147.67 241.27C147.77 241.41 147.89 241.53 148.07 241.61C148.24 241.7 148.45 241.74 148.7 241.74L148.69 241.75Z" fill="#13110C"/>
<path d="M153.23 236.81C153.74 236.81 154.18 236.92 154.54 237.13C154.9 237.35 155.18 237.66 155.37 238.07C155.56 238.48 155.66 238.99 155.66 239.59C155.66 240.23 155.54 240.77 155.31 241.21C155.08 241.65 154.76 241.99 154.35 242.22C153.94 242.45 153.46 242.56 152.92 242.56C152.64 242.56 152.37 242.53 152.11 242.47C151.85 242.41 151.63 242.32 151.45 242.2L151.83 241.42C151.98 241.52 152.15 241.59 152.33 241.63C152.51 241.67 152.7 241.69 152.89 241.69C153.42 241.69 153.84 241.53 154.15 241.2C154.46 240.87 154.61 240.4 154.61 239.76C154.61 239.66 154.61 239.54 154.61 239.4C154.61 239.26 154.59 239.13 154.55 238.99L154.87 239.34C154.78 239.56 154.65 239.74 154.48 239.89C154.31 240.04 154.11 240.15 153.88 240.22C153.65 240.29 153.4 240.33 153.12 240.33C152.76 240.33 152.43 240.26 152.14 240.12C151.85 239.98 151.62 239.78 151.45 239.52C151.28 239.26 151.19 238.96 151.19 238.61C151.19 238.24 151.28 237.92 151.46 237.65C151.64 237.38 151.89 237.17 152.2 237.02C152.51 236.87 152.86 236.8 153.24 236.8L153.23 236.81ZM153.29 237.63C153.08 237.63 152.89 237.67 152.72 237.75C152.55 237.83 152.43 237.94 152.33 238.08C152.24 238.22 152.19 238.39 152.19 238.59C152.19 238.88 152.29 239.12 152.49 239.29C152.69 239.46 152.96 239.55 153.31 239.55C153.53 239.55 153.73 239.51 153.9 239.43C154.07 239.35 154.2 239.23 154.3 239.09C154.4 238.94 154.44 238.78 154.44 238.6C154.44 238.42 154.39 238.27 154.3 238.12C154.21 237.98 154.08 237.87 153.91 237.78C153.74 237.7 153.53 237.65 153.28 237.65L153.29 237.63Z" fill="#13110C"/>
<path d="M163.97 309.23C163.58 309.23 163.19 309.17 162.81 309.06C162.43 308.94 162.12 308.79 161.86 308.58L162.31 307.77C162.51 307.94 162.76 308.07 163.05 308.17C163.34 308.27 163.64 308.32 163.95 308.32C164.32 308.32 164.61 308.24 164.82 308.09C165.03 307.94 165.13 307.73 165.13 307.47C165.13 307.21 165.03 307.01 164.84 306.86C164.65 306.71 164.34 306.64 163.91 306.64H163.4V305.93L165 304.03L165.14 304.42H162.13V303.55H165.95V304.25L164.35 306.15L163.81 305.83H164.12C164.81 305.83 165.32 305.98 165.67 306.29C166.02 306.6 166.19 306.99 166.19 307.47C166.19 307.78 166.11 308.08 165.95 308.34C165.79 308.6 165.55 308.82 165.22 308.98C164.89 309.14 164.48 309.22 163.98 309.22L163.97 309.23Z" fill="#13110C"/>
<path d="M166.9 310.36L167.36 308.59L167.5 309.18C167.31 309.18 167.16 309.12 167.03 309.01C166.9 308.89 166.84 308.74 166.84 308.54C166.84 308.34 166.9 308.18 167.03 308.06C167.15 307.94 167.31 307.88 167.49 307.88C167.67 307.88 167.83 307.94 167.95 308.06C168.07 308.18 168.13 308.34 168.13 308.54C168.13 308.59 168.13 308.65 168.11 308.71C168.1 308.77 168.08 308.84 168.06 308.92C168.04 309 168 309.1 167.94 309.22L167.53 310.35H166.88L166.9 310.36Z" fill="#13110C"/>
<path d="M169.59 309.15V303.95L170.05 304.42H168.41V303.55H170.63V309.15H169.59Z" fill="#13110C"/>
<path d="M173.6 309.23C173.21 309.23 172.82 309.17 172.44 309.06C172.06 308.94 171.75 308.79 171.49 308.58L171.93 307.77C172.13 307.94 172.38 308.07 172.67 308.17C172.96 308.27 173.26 308.32 173.58 308.32C173.95 308.32 174.24 308.24 174.45 308.09C174.66 307.93 174.77 307.73 174.77 307.47C174.77 307.29 174.73 307.14 174.64 307.01C174.55 306.88 174.4 306.77 174.18 306.71C173.96 306.65 173.66 306.61 173.27 306.61H171.92L172.21 303.56H175.5V304.43H172.6L173.14 303.93L172.92 306.21L172.38 305.72H173.51C174.06 305.72 174.51 305.79 174.85 305.94C175.19 306.09 175.44 306.29 175.59 306.55C175.75 306.81 175.83 307.1 175.83 307.43C175.83 307.76 175.75 308.05 175.59 308.33C175.43 308.6 175.19 308.82 174.86 308.99C174.53 309.16 174.12 309.24 173.62 309.24L173.6 309.23Z" fill="#13110C"/>
<path d="M58.78 188.09C58.39 188.09 58 188.03 57.62 187.92C57.24 187.81 56.93 187.65 56.67 187.45L57.12 186.64C57.32 186.81 57.57 186.94 57.86 187.04C58.15 187.14 58.45 187.19 58.76 187.19C59.13 187.19 59.42 187.11 59.63 186.96C59.84 186.81 59.94 186.6 59.94 186.34C59.94 186.08 59.84 185.88 59.65 185.73C59.46 185.58 59.15 185.51 58.72 185.51H58.21V184.8L59.8 182.89L59.94 183.28H56.93V182.42H60.75V183.1L59.15 185.01L58.61 184.69H58.92C59.61 184.69 60.12 184.84 60.47 185.15C60.82 185.46 60.99 185.85 60.99 186.33C60.99 186.64 60.91 186.94 60.75 187.2C60.59 187.47 60.35 187.68 60.02 187.85C59.69 188.01 59.28 188.1 58.78 188.1V188.09Z" fill="#13110C"/>
<path d="M61.72 189.21L62.18 187.44L62.32 188.03C62.13 188.03 61.98 187.97 61.85 187.86C61.72 187.75 61.66 187.59 61.66 187.39C61.66 187.19 61.72 187.03 61.85 186.91C61.97 186.79 62.13 186.73 62.31 186.73C62.5 186.73 62.65 186.79 62.77 186.91C62.89 187.03 62.95 187.19 62.95 187.39C62.95 187.44 62.95 187.5 62.94 187.56C62.93 187.62 62.91 187.69 62.89 187.77C62.87 187.85 62.83 187.95 62.77 188.07L62.36 189.2H61.71L61.72 189.21Z" fill="#13110C"/>
<path d="M63.63 188V187.3L65.85 185.18C66.04 185 66.17 184.85 66.26 184.71C66.35 184.58 66.41 184.45 66.44 184.34C66.47 184.22 66.48 184.12 66.48 184.02C66.48 183.76 66.39 183.56 66.21 183.42C66.03 183.28 65.77 183.21 65.43 183.21C65.16 183.21 64.91 183.26 64.69 183.36C64.47 183.46 64.28 183.6 64.12 183.8L63.39 183.24C63.61 182.95 63.9 182.72 64.27 182.55C64.64 182.39 65.05 182.3 65.51 182.3C65.92 182.3 66.27 182.36 66.57 182.49C66.87 182.62 67.1 182.8 67.27 183.04C67.43 183.28 67.52 183.56 67.52 183.89C67.52 184.07 67.5 184.25 67.45 184.43C67.4 184.61 67.31 184.8 67.18 185C67.05 185.2 66.85 185.42 66.6 185.67L64.69 187.49L64.47 187.1H67.74V187.97H63.61L63.63 188Z" fill="#13110C"/>
<path d="M70.23 182.3C70.74 182.3 71.18 182.4 71.54 182.62C71.9 182.84 72.18 183.15 72.37 183.56C72.56 183.97 72.66 184.48 72.66 185.08C72.66 185.72 72.55 186.26 72.32 186.7C72.09 187.14 71.77 187.48 71.36 187.71C70.95 187.94 70.47 188.06 69.93 188.06C69.65 188.06 69.38 188.03 69.12 187.97C68.86 187.91 68.64 187.82 68.45 187.7L68.83 186.91C68.99 187.01 69.15 187.08 69.33 187.12C69.51 187.16 69.7 187.18 69.89 187.18C70.42 187.18 70.84 187.01 71.14 186.69C71.45 186.36 71.6 185.88 71.6 185.25C71.6 185.15 71.6 185.03 71.6 184.89C71.6 184.75 71.58 184.62 71.54 184.48L71.86 184.83C71.77 185.05 71.64 185.23 71.47 185.38C71.3 185.53 71.1 185.64 70.87 185.71C70.64 185.78 70.39 185.82 70.11 185.82C69.75 185.82 69.42 185.75 69.13 185.61C68.84 185.47 68.61 185.27 68.44 185.01C68.27 184.75 68.18 184.45 68.18 184.1C68.18 183.73 68.27 183.41 68.45 183.14C68.63 182.87 68.88 182.66 69.19 182.51C69.5 182.36 69.85 182.28 70.23 182.28V182.3ZM70.29 183.12C70.08 183.12 69.89 183.16 69.72 183.24C69.55 183.32 69.43 183.43 69.33 183.57C69.24 183.71 69.19 183.88 69.19 184.08C69.19 184.37 69.29 184.6 69.5 184.78C69.7 184.95 69.97 185.03 70.32 185.03C70.54 185.03 70.74 184.99 70.91 184.9C71.08 184.82 71.21 184.7 71.31 184.56C71.41 184.41 71.45 184.25 71.45 184.07C71.45 183.89 71.4 183.74 71.31 183.59C71.22 183.45 71.09 183.34 70.92 183.25C70.75 183.17 70.54 183.12 70.29 183.12Z" fill="#13110C"/>
<path d="M69.2 144.75V139.55L69.66 140.02H68.02V139.15H70.24V144.75H69.2Z" fill="#13110C"/>
<path d="M71.4 145.96L71.86 144.19L72 144.78C71.81 144.78 71.66 144.72 71.53 144.61C71.4 144.49 71.34 144.34 71.34 144.14C71.34 143.94 71.4 143.78 71.53 143.66C71.65 143.54 71.81 143.48 71.99 143.48C72.17 143.48 72.33 143.54 72.45 143.66C72.57 143.78 72.63 143.94 72.63 144.14C72.63 144.19 72.63 144.25 72.61 144.31C72.6 144.37 72.58 144.44 72.56 144.52C72.54 144.6 72.5 144.7 72.44 144.82L72.03 145.95H71.38L71.4 145.96Z" fill="#13110C"/>
<path d="M73.32 144.75V144.05L75.54 141.94C75.73 141.76 75.87 141.61 75.96 141.48C76.05 141.35 76.11 141.22 76.14 141.11C76.17 140.99 76.18 140.89 76.18 140.79C76.18 140.53 76.09 140.33 75.92 140.19C75.74 140.05 75.49 139.98 75.14 139.98C74.87 139.98 74.62 140.03 74.4 140.12C74.18 140.21 73.99 140.36 73.83 140.56L73.1 140C73.32 139.71 73.61 139.48 73.98 139.32C74.35 139.16 74.77 139.08 75.22 139.08C75.63 139.08 75.98 139.15 76.28 139.28C76.58 139.41 76.81 139.6 76.98 139.84C77.14 140.08 77.22 140.37 77.22 140.7C77.22 140.88 77.2 141.06 77.15 141.24C77.1 141.42 77.01 141.61 76.88 141.8C76.75 142 76.55 142.22 76.3 142.46L74.39 144.28L74.17 143.89H77.44V144.77H73.31L73.32 144.75Z" fill="#13110C"/>
<path d="M80.47 144.83C79.96 144.83 79.53 144.72 79.17 144.51C78.81 144.3 78.53 143.98 78.34 143.57C78.15 143.16 78.05 142.65 78.05 142.05C78.05 141.41 78.17 140.87 78.4 140.43C78.63 139.99 78.95 139.65 79.37 139.42C79.78 139.19 80.26 139.08 80.8 139.08C81.08 139.08 81.35 139.11 81.61 139.17C81.87 139.23 82.09 139.32 82.27 139.44L81.89 140.22C81.74 140.12 81.57 140.05 81.39 140.01C81.21 139.97 81.02 139.95 80.83 139.95C80.3 139.95 79.88 140.11 79.57 140.44C79.26 140.77 79.11 141.25 79.11 141.88C79.11 141.98 79.11 142.1 79.11 142.24C79.11 142.38 79.13 142.51 79.17 142.65L78.85 142.3C78.95 142.08 79.08 141.9 79.25 141.75C79.42 141.6 79.62 141.49 79.85 141.42C80.08 141.34 80.33 141.31 80.61 141.31C80.98 141.31 81.31 141.38 81.59 141.52C81.88 141.66 82.11 141.86 82.28 142.12C82.45 142.38 82.54 142.68 82.54 143.03C82.54 143.4 82.45 143.72 82.27 143.99C82.09 144.26 81.84 144.47 81.53 144.62C81.22 144.77 80.87 144.84 80.49 144.84L80.47 144.83ZM80.41 144.01C80.62 144.01 80.81 143.97 80.98 143.89C81.15 143.81 81.27 143.7 81.37 143.56C81.46 143.42 81.51 143.25 81.51 143.06C81.51 142.77 81.41 142.54 81.21 142.36C81.01 142.18 80.74 142.1 80.39 142.1C80.17 142.1 79.97 142.14 79.8 142.22C79.63 142.3 79.5 142.42 79.4 142.56C79.3 142.7 79.25 142.87 79.25 143.06C79.25 143.23 79.3 143.39 79.39 143.53C79.48 143.67 79.61 143.79 79.79 143.87C79.96 143.96 80.17 144 80.42 144L80.41 144.01Z" fill="#13110C"/>
<path d="M223.79 0.5H216.74V24.9H223.79V0.5Z" fill="#511F19"/>
<path d="M226.69 0.5H223.79V26.7H226.69V0.5Z" fill="#511F19"/>
<path d="M223.79 84.1101H216.74V115.23H223.79V84.1101Z" fill="#511F19"/>
<path d="M226.69 82.3701H223.79V117.15H226.69V82.3701Z" fill="#511F19"/>
<path d="M223.79 154.61H216.74V330.14H223.79V154.61Z" fill="#511F19"/>
<path d="M226.69 152.92H223.79V330.15H226.69V152.92Z" fill="#511F19"/>
<path d="M226.69 320.3H195.61V327.29H226.69V320.3Z" fill="#511F19"/>
<path d="M136.33 320.3H104.89V327.29H136.33V320.3Z" fill="#511F19"/>
<path d="M226.69 327.29H193.69V330.14H226.69V327.29Z" fill="#511F19"/>
<path d="M138.14 327.29H103.1V330.14H138.14V327.29Z" fill="#511F19"/>
<path d="M45.58 320.3H25.45V327.29H45.58V320.3Z" fill="#511F19"/>
<path d="M47.38 327.29H25.45V330.14H47.38V327.29Z" fill="#511F19"/>
<path d="M58.8 82.0601H29.68V84.3401H58.8V82.0601Z" fill="#511F19"/>
<path d="M83.89 123.82H25.45V126.1H83.89V123.82Z" fill="#511F19"/>
<path d="M83.89 156.51H25.45V158.79H83.89V156.51Z" fill="#511F19"/>
<path d="M175.07 178.7H116.63V180.98H175.07V178.7Z" fill="#511F19"/>
<path d="M88.09 216.38H25.45V218.66H88.09V216.38Z" fill="#511F19"/>
<path d="M118.92 216.38H113.7V218.66H118.92V216.38Z" fill="#511F19"/>
<path d="M117.49 82.0601H81.55V84.3401H117.49V82.0601Z" fill="#511F19"/>
<path d="M32.48 0.5H25.45V66.74H32.48V0.5Z" fill="#511F19"/>
<path d="M32.48 66.74H25.45V90.02H32.48V66.74Z" fill="#511F19"/>
<path d="M32.48 121.07H25.45V330.14H32.48V121.07Z" fill="#511F19"/>
<path d="M99.52 3.37988H84.49V83.1999H99.52V3.37988Z" fill="#511F19"/>
<path d="M226.69 0.5H26.89V7.58H226.69V0.5Z" fill="#511F19"/>
<path d="M83.89 123.82H81.61V130.82H83.89V123.82Z" fill="#511F19"/>
<path d="M83.89 153.64H81.61V170.91H83.89V153.64Z" fill="#511F19"/>
<path d="M118.91 178.7H116.63V184.35H118.91V178.7Z" fill="#511F19"/>
<path d="M118.91 209.95H116.63V280.85H118.91V209.95Z" fill="#511F19"/>
<path d="M83.89 193.82H81.61V218.66H83.89V193.82Z" fill="#511F19"/>
<path d="M46.09 124.67H30.48V165.15H46.09V124.67Z" fill="#511F19"/>
<path d="M123.74 277.94H116.66V330.14H123.74V277.94Z" fill="#511F19"/>
<path d="M221.86 178.7H174.37V185.67H221.86V178.7Z" fill="#511F19"/>
<path d="M224.49 288.67H182.89V291.98H224.49V288.67Z" fill="#511F19"/>
<path d="M123.73 291.45H143.29V289.2H123.73" stroke="#511F19" stroke-width="0.43" stroke-miterlimit="10"/>
<path d="M143.29 290.33H123.73" stroke="#511F19" stroke-width="0.43" stroke-miterlimit="10"/>
<path d="M182.89 291.45H163.12V289.2H182.89" stroke="#511F19" stroke-width="0.43" stroke-miterlimit="10"/>
<path d="M163.12 290.33H182.89" stroke="#511F19" stroke-width="0.43" stroke-miterlimit="10"/>
<path d="M136.33 320.3H195.61" stroke="#511F19" stroke-width="0.43" stroke-miterlimit="10"/>
<path d="M136.33 323.8H195.61" stroke="#511F19" stroke-width="0.43" stroke-miterlimit="10"/>
<path d="M137.92 327.29H194.04" stroke="#511F19" stroke-width="0.43" stroke-miterlimit="10"/>
<path d="M216.74 24.8999V84.1099" stroke="#511F19" stroke-width="0.43" stroke-miterlimit="10"/>
<path d="M223.79 26.7V82.37" stroke="#511F19" stroke-width="0.43" stroke-miterlimit="10"/>
<path d="M220.26 84.1099V24.8999" stroke="#511F19" stroke-width="0.43" stroke-miterlimit="10"/>
<path d="M216.74 115.22V154.61" stroke="#511F19" stroke-width="0.43" stroke-miterlimit="10"/>
<path d="M223.79 117.02V152.87" stroke="#511F19" stroke-width="0.43" stroke-miterlimit="10"/>
<path d="M220.26 154.61V115.22" stroke="#511F19" stroke-width="0.43" stroke-miterlimit="10"/>
<path d="M110.88 330.14V359.16H27.36V330.14" stroke="#511F19" stroke-width="0.43" stroke-miterlimit="10"/>
<path d="M25.32 330.14V361.2H112.92V330.14" stroke="#511F19" stroke-width="0.43" stroke-miterlimit="10"/>
<path d="M144.48 289.37H143.29V291.11H144.48V289.37Z" fill="#511F19"/>
<path d="M163.05 289.37H161.86V291.11H163.05V289.37Z" fill="#511F19"/>
<path d="M144.49 289.37V272.03" stroke="#511F19" stroke-width="0.85" stroke-miterlimit="10"/>
<path d="M144.49 272.03C154.06 272.03 161.82 279.79 161.82 289.37" stroke="#511F19" stroke-width="0.43" stroke-miterlimit="10"/>
<path d="M30.29 119.19H27.54V121.07H30.29V119.19Z" fill="#511F19"/>
<path d="M30.29 89.9399H27.54V91.8199H30.29V89.9399Z" fill="#511F19"/>
<path d="M27.54 119.19H0.219971" stroke="#511F19" stroke-width="0.85" stroke-miterlimit="10"/>
<path d="M0.219971 119.19C0.219971 104.1 12.46 91.8599 27.55 91.8599" stroke="#511F19" stroke-width="0.43" stroke-miterlimit="10"/>
<path d="M45.5 320.3H83.2V327.38H47.38" stroke="#511F19" stroke-width="0.43" stroke-miterlimit="10"/>
<path d="M83.2 323.8H45.52" stroke="#511F19" stroke-width="0.43" stroke-miterlimit="10"/>
<path d="M104.88 322.9H103.57V324.82H104.88V322.9Z" fill="#511F19"/>
<path d="M84.51 322.9H83.2V324.82H84.51V322.9Z" fill="#511F19"/>
<path d="M103.57 322.9V303.86" stroke="#511F19" stroke-width="0.85" stroke-miterlimit="10"/>
<path d="M103.57 303.86C93.05 303.86 84.53 312.38 84.53 322.9" stroke="#511F19" stroke-width="0.43" stroke-miterlimit="10"/>
<path d="M91.7 150.14L83.95 130.82" stroke="#511F19" stroke-width="0.85" stroke-miterlimit="10"/>
<path d="M91.7 190.64L83.95 171.33" stroke="#511F19" stroke-width="0.85" stroke-miterlimit="10"/>
<path d="M127.86 188.25L118.79 210.83" stroke="#511F19" stroke-width="0.85" stroke-miterlimit="10"/>
<path d="M110.67 207.32L88.1 216.38" stroke="#511F19" stroke-width="0.85" stroke-miterlimit="10"/>
</g>
<defs>
<clipPath id="clip0_2024_7714">
<rect width="226.69" height="360.92" fill="white" transform="translate(0 0.5)"/>
</clipPath>
</defs>
</svg>
