<svg width="235" height="163" viewBox="0 0 235 163" fill="none" xmlns="http://www.w3.org/2000/svg">
<path d="M100.47 7.40991H83.31V24.8699H100.47V7.40991Z" stroke="#C7C6C5" stroke-width="0.43" stroke-miterlimit="10"/>
<path d="M83.31 7.40991H59.55V24.8699H83.31V7.40991Z" stroke="#C7C6C5" stroke-width="0.43" stroke-miterlimit="10"/>
<path d="M113.25 7.40991H100.47V24.8699H113.25V7.40991Z" stroke="#C7C6C5" stroke-width="0.43" stroke-miterlimit="10"/>
<path d="M140.86 7.40991H130.87V24.8699H140.86V7.40991Z" stroke="#C7C6C5" stroke-width="0.43" stroke-miterlimit="10"/>
<path d="M59.55 7.40991H41.73V24.8699H59.55V7.40991Z" stroke="#C7C6C5" stroke-width="0.43" stroke-miterlimit="10"/>
<path d="M90.22 11.91C90.22 13.36 89.04 14.5301 87.6 14.5301C86.16 14.5301 84.98 13.36 84.98 11.91C84.98 10.46 86.15 9.29004 87.6 9.29004C89.05 9.29004 90.22 10.47 90.22 11.91Z" stroke="#C7C6C5" stroke-width="0.43" stroke-miterlimit="10"/>
<path d="M87.6 14.5301C89.047 14.5301 90.22 13.357 90.22 11.91C90.22 10.463 89.047 9.29004 87.6 9.29004C86.153 9.29004 84.98 10.463 84.98 11.91C84.98 13.357 86.153 14.5301 87.6 14.5301Z" stroke="#C7C6C5" stroke-width="0.43" stroke-miterlimit="10"/>
<path d="M98.8101 11.91C98.8101 13.36 97.6299 14.5301 96.1899 14.5301C94.7499 14.5301 93.57 13.36 93.57 11.91C93.57 10.46 94.7399 9.29004 96.1899 9.29004C97.6399 9.29004 98.8101 10.47 98.8101 11.91Z" stroke="#C7C6C5" stroke-width="0.43" stroke-miterlimit="10"/>
<path d="M96.1899 14.5301C97.6369 14.5301 98.8101 13.357 98.8101 11.91C98.8101 10.463 97.6369 9.29004 96.1899 9.29004C94.743 9.29004 93.57 10.463 93.57 11.91C93.57 13.357 94.743 14.5301 96.1899 14.5301Z" stroke="#C7C6C5" stroke-width="0.43" stroke-miterlimit="10"/>
<path d="M90.22 19.8199C90.22 21.2699 89.04 22.4399 87.6 22.4399C86.16 22.4399 84.98 21.2699 84.98 19.8199C84.98 18.3699 86.15 17.2 87.6 17.2C89.05 17.2 90.22 18.3799 90.22 19.8199Z" stroke="#C7C6C5" stroke-width="0.43" stroke-miterlimit="10"/>
<path d="M87.6 22.4399C89.047 22.4399 90.22 21.2669 90.22 19.8199C90.22 18.373 89.047 17.2 87.6 17.2C86.153 17.2 84.98 18.373 84.98 19.8199C84.98 21.2669 86.153 22.4399 87.6 22.4399Z" stroke="#C7C6C5" stroke-width="0.43" stroke-miterlimit="10"/>
<path d="M98.8101 19.8199C98.8101 21.2699 97.6299 22.4399 96.1899 22.4399C94.7499 22.4399 93.57 21.2699 93.57 19.8199C93.57 18.3699 94.7399 17.2 96.1899 17.2C97.6399 17.2 98.8101 18.3799 98.8101 19.8199Z" stroke="#C7C6C5" stroke-width="0.43" stroke-miterlimit="10"/>
<path d="M96.1899 22.4399C97.6369 22.4399 98.8101 21.2669 98.8101 19.8199C98.8101 18.373 97.6369 17.2 96.1899 17.2C94.743 17.2 93.57 18.373 93.57 19.8199C93.57 21.2669 94.743 22.4399 96.1899 22.4399Z" stroke="#C7C6C5" stroke-width="0.43" stroke-miterlimit="10"/>
<path d="M112.31 71.6099H70.15V82.6599H112.31V71.6099Z" stroke="#C7C6C5" stroke-width="0.43" stroke-miterlimit="10"/>
<path d="M85.61 77.2499L78.7 80.3699L78.39 79.6799L88.01 73.8899V73.1799C88.01 73.1799 88.04 72.6199 88.57 72.6199H93.88C94.41 72.6199 94.4399 73.1799 94.4399 73.1799V73.8899L104.06 79.6799L103.75 80.3699L96.84 77.2499H85.59H85.61Z" stroke="#C7C6C5" stroke-width="0.43" stroke-miterlimit="10"/>
<path d="M111.58 76.3198H70.89V77.2598H111.58V76.3198Z" stroke="#C7C6C5" stroke-width="0.43" stroke-miterlimit="10"/>
<path d="M99.72 76.3199C98.63 76.3199 98.72 75.3499 97.5 75.3499H84.97C83.75 75.3499 83.85 76.3199 82.75 76.3199H99.71H99.72Z" stroke="#C7C6C5" stroke-width="0.43" stroke-miterlimit="10"/>
<path d="M121.9 130.64V151.68C121.9 152.07 121.58 152.39 121.19 152.39H99.86C99.47 152.39 99.15 152.07 99.15 151.68V149.22C99.15 148.83 99.47 148.51 99.86 148.51H118.03V130.64C118.03 130.25 118.35 129.93 118.74 129.93H121.2C121.59 129.93 121.91 130.25 121.91 130.64H121.9Z" stroke="#C7C6C5" stroke-width="0.43" stroke-miterlimit="10"/>
<path d="M124.65 130.64V154.6C124.65 154.99 124.33 155.31 123.94 155.31H99.86C99.47 155.31 99.15 154.99 99.15 154.6V153.27C99.15 152.88 99.47 152.39 99.86 152.39H121.9V130.64C121.9 130.25 122.22 129.93 122.61 129.93H123.94C124.33 129.93 124.65 130.25 124.65 130.64Z" stroke="#C7C6C5" stroke-width="0.43" stroke-miterlimit="10"/>
<path d="M118.02 148.51L121.56 152.04" stroke="#C7C6C5" stroke-width="0.43" stroke-miterlimit="10"/>
<path d="M99.85 112.23H117.31C117.7 112.23 118.02 112.55 118.02 112.94V147.8C118.02 148.19 117.7 148.51 117.31 148.51H99.85C99.46 148.51 99.14 148.19 99.14 147.8V112.94C99.14 112.55 99.46 112.23 99.85 112.23Z" stroke="#C7C6C5" stroke-width="0.43" stroke-miterlimit="10"/>
<path d="M59.77 130.64V151.68C59.77 152.07 60.09 152.39 60.48 152.39H98.4399C98.8299 152.39 99.15 152.07 99.15 151.68V149.22C99.15 148.83 98.8299 148.51 98.4399 148.51H63.65V130.64C63.65 130.25 63.33 129.93 62.94 129.93H60.48C60.09 129.93 59.77 130.25 59.77 130.64Z" stroke="#C7C6C5" stroke-width="0.43" stroke-miterlimit="10"/>
<path d="M57.02 130.64V154.6C57.02 154.99 57.34 155.31 57.73 155.31H98.4399C98.8299 155.31 99.15 154.99 99.15 154.6V153.27C99.15 152.88 98.8299 152.39 98.4399 152.39H59.77V130.64C59.77 130.25 59.45 129.93 59.06 129.93H57.73C57.34 129.93 57.02 130.25 57.02 130.64Z" stroke="#C7C6C5" stroke-width="0.43" stroke-miterlimit="10"/>
<path d="M63.64 148.51L60.1 152.04" stroke="#C7C6C5" stroke-width="0.43" stroke-miterlimit="10"/>
<path d="M64.35 129.93H98.4399C98.8299 129.93 99.15 130.25 99.15 130.64V147.8C99.15 148.19 98.8299 148.51 98.4399 148.51H64.35C63.96 148.51 63.64 148.19 63.64 147.8V130.63C63.64 130.24 63.96 129.92 64.35 129.92V129.93Z" stroke="#C7C6C5" stroke-width="0.43" stroke-miterlimit="10"/>
<path d="M188.93 24.3901H171.61V53.6101H188.93V24.3901Z" stroke="#C7C6C5" stroke-width="0.43" stroke-linecap="round" stroke-linejoin="round"/>
<path d="M180.27 34.02V25.52" stroke="#C7C6C5" stroke-width="0.43" stroke-linecap="round" stroke-linejoin="round"/>
<path d="M181.18 35.9801C181.18 34.7601 179.37 34.7701 179.37 35.9801C179.37 36.8801 180.28 36.6401 180.28 37.4501" stroke="#C7C6C5" stroke-width="0.43" stroke-linecap="round" stroke-linejoin="round"/>
<path d="M180.27 37.4502L186.36 39.5002C186.36 39.5002 186.92 39.7102 186.84 40.3302C186.76 40.9402 186.19 40.8802 186.19 40.8802H174.36C174.36 40.8802 173.79 40.9502 173.71 40.3302C173.63 39.7202 174.19 39.5002 174.19 39.5002L180.28 37.4502H180.27Z" stroke="#C7C6C5" stroke-width="0.43" stroke-linecap="round" stroke-linejoin="round"/>
<path d="M180.27 52.8903V41.9902" stroke="#C7C6C5" stroke-width="0.43" stroke-linecap="round" stroke-linejoin="round"/>
<path d="M188.97 7.46997H142.97V24.39H188.97V7.46997Z" stroke="#C7C6C5" stroke-width="0.43" stroke-linecap="round" stroke-linejoin="round"/>
<path d="M166.8 11.7099C166.8 10.5099 165.03 10.5299 165.03 11.7099C165.03 12.5899 165.91 12.3499 165.91 13.1499" stroke="#C7C6C5" stroke-width="0.43" stroke-linecap="round" stroke-linejoin="round"/>
<path d="M165.92 13.1499L171.87 15.1499C171.87 15.1499 172.42 15.3599 172.34 15.9599C172.26 16.5599 171.7 16.4899 171.7 16.4899H160.15C160.15 16.4899 159.59 16.5599 159.51 15.9599C159.43 15.3599 159.98 15.1499 159.98 15.1499L165.93 13.1499H165.92Z" stroke="#C7C6C5" stroke-width="0.43" stroke-linecap="round" stroke-linejoin="round"/>
<path d="M174.63 15.9299H187.75" stroke="#C7C6C5" stroke-width="0.43" stroke-linecap="round" stroke-linejoin="round"/>
<path d="M144.22 15.9299H156.94" stroke="#C7C6C5" stroke-width="0.43" stroke-linecap="round" stroke-linejoin="round"/>
<path d="M130.87 7.40991H113.25V24.8699H130.87V7.40991Z" stroke="#C7C6C5" stroke-width="0.43" stroke-miterlimit="10"/>
<path d="M116.38 8.92993H127.75C128.65 8.92993 129.37 9.65993 129.37 10.5499V21.71C129.37 22.61 128.64 23.33 127.75 23.33H116.38C115.48 23.33 114.76 22.6 114.76 21.71V10.5499C114.76 9.64993 115.49 8.92993 116.38 8.92993Z" stroke="#C7C6C5" stroke-width="0.43" stroke-miterlimit="10"/>
<path d="M116.38 8.92993H127.75C128.65 8.92993 129.37 9.65993 129.37 10.5499V21.71C129.37 22.61 128.64 23.33 127.75 23.33H116.38C115.48 23.33 114.76 22.6 114.76 21.71V10.5499C114.76 9.64993 115.49 8.92993 116.38 8.92993Z" stroke="#C7C6C5" stroke-width="0.43" stroke-miterlimit="10"/>
<path d="M127.14 12.08C126.62 12.08 126.19 11.6499 126.19 11.1299C126.19 10.6099 126.61 10.1799 127.14 10.1799C127.67 10.1799 128.09 10.5999 128.09 11.1299C128.09 11.6599 127.67 12.08 127.14 12.08Z" stroke="#C7C6C5" stroke-width="0.43" stroke-miterlimit="10"/>
<path d="M122.78 8.34985H121.35V13.7299H122.78V8.34985Z" stroke="#C7C6C5" stroke-width="0.43" stroke-miterlimit="10"/>
<path d="M49.9 17.5103L52.65 14.7603" stroke="#C7C6C5" stroke-width="0.43" stroke-miterlimit="10" stroke-linecap="round"/>
<path d="M52.65 17.5103L49.9 14.7603" stroke="#C7C6C5" stroke-width="0.43" stroke-miterlimit="10" stroke-linecap="round"/>
<path d="M54.52 16.1401H48.02" stroke="#C7C6C5" stroke-width="0.43" stroke-miterlimit="10" stroke-linecap="round"/>
<path d="M51.27 12.8901V19.3901" stroke="#C7C6C5" stroke-width="0.43" stroke-miterlimit="10" stroke-linecap="round"/>
<path d="M144.94 145.94C144.94 150.91 140.9 154.95 135.93 154.95C130.96 154.95 126.92 150.91 126.92 145.94V115.71C126.92 110.74 130.96 106.7 135.93 106.7C140.9 106.7 144.94 110.74 144.94 115.71V145.94Z" stroke="#C7C6C5" stroke-width="0.43" stroke-linecap="round" stroke-linejoin="round"/>
<path d="M143.24 145.73C143.24 149.76 139.96 153.04 135.93 153.04C131.9 153.04 128.62 149.76 128.62 145.73V115.71C128.62 111.68 131.9 108.4 135.93 108.4C139.96 108.4 143.24 111.68 143.24 115.71V145.73Z" stroke="#C7C6C5" stroke-width="0.43" stroke-linecap="round" stroke-linejoin="round"/>
<path d="M135.93 113.44C137.71 113.44 139.16 114.88 139.16 116.67V143.69C139.16 145.47 137.72 146.92 135.93 146.92C134.15 146.92 132.7 145.48 132.7 143.69V116.67C132.7 114.89 134.14 113.44 135.93 113.44Z" stroke="#C7C6C5" stroke-width="0.43" stroke-linecap="round" stroke-linejoin="round"/>
<path d="M129.43 130.71C129.65 130.71 129.84 131.09 129.84 131.55C129.84 132.01 129.66 132.39 129.43 132.39C129.2 132.39 129.02 132.01 129.02 131.55C129.02 131.09 129.2 130.71 129.43 130.71Z" stroke="#C7C6C5" stroke-width="0.43" stroke-linecap="round" stroke-linejoin="round"/>
<path d="M145.65 142.52H169.92C170.31 142.52 170.63 142.84 170.63 143.23V154.45C170.63 154.84 170.31 155.16 169.92 155.16H145.65C145.26 155.16 144.94 154.84 144.94 154.45V143.23C144.94 142.84 145.26 142.52 145.65 142.52Z" stroke="#C7C6C5" stroke-width="0.43" stroke-linecap="round" stroke-linejoin="round"/>
<path d="M167.07 148.56C167.07 151.22 162.91 153.38 157.78 153.38C152.65 153.38 148.49 151.22 148.49 148.56C148.49 145.9 152.65 143.74 157.78 143.74C162.91 143.74 167.07 145.9 167.07 148.56Z" stroke="#C7C6C5" stroke-width="0.43" stroke-miterlimit="10"/>
<path d="M167.07 148.56C167.07 151.22 162.91 153.38 157.78 153.38C152.65 153.38 148.49 151.22 148.49 148.56C148.49 145.9 152.65 143.74 157.78 143.74C162.91 143.74 167.07 145.9 167.07 148.56Z" stroke="#C7C6C5" stroke-width="0.43" stroke-linecap="round" stroke-linejoin="round"/>
<path d="M155.44 153.62C155.44 154.04 155.1 154.37 154.69 154.37C154.28 154.37 153.94 154.03 153.94 153.62C153.94 153.21 154.28 152.87 154.69 152.87C155.1 152.87 155.44 153.21 155.44 153.62Z" stroke="#C7C6C5" stroke-width="0.43" stroke-miterlimit="10"/>
<path d="M155.44 153.62C155.44 154.04 155.1 154.37 154.69 154.37C154.28 154.37 153.94 154.03 153.94 153.62C153.94 153.21 154.28 152.87 154.69 152.87C155.1 152.87 155.44 153.21 155.44 153.62Z" stroke="#C7C6C5" stroke-width="0.43" stroke-linecap="round" stroke-linejoin="round"/>
<path d="M161.74 153.62C161.74 154.04 161.4 154.37 160.99 154.37C160.58 154.37 160.24 154.03 160.24 153.62C160.24 153.21 160.58 152.87 160.99 152.87C161.4 152.87 161.74 153.21 161.74 153.62Z" stroke="#C7C6C5" stroke-width="0.43" stroke-miterlimit="10"/>
<path d="M161.74 153.62C161.74 154.04 161.4 154.37 160.99 154.37C160.58 154.37 160.24 154.03 160.24 153.62C160.24 153.21 160.58 152.87 160.99 152.87C161.4 152.87 161.74 153.21 161.74 153.62Z" stroke="#C7C6C5" stroke-width="0.43" stroke-linecap="round" stroke-linejoin="round"/>
<path d="M158.22 151.24C158.22 151 158.03 150.81 157.79 150.81C157.55 150.81 157.36 151 157.36 151.24L157.23 153.57C157.23 153.88 157.48 154.14 157.79 154.14C158.1 154.14 158.36 153.89 158.36 153.57L158.23 151.24H158.22Z" stroke="#C7C6C5" stroke-width="0.43" stroke-miterlimit="10"/>
<path d="M158.22 151.24C158.22 151 158.03 150.81 157.79 150.81C157.55 150.81 157.36 151 157.36 151.24L157.23 153.57C157.23 153.88 157.48 154.14 157.79 154.14C158.1 154.14 158.36 153.89 158.36 153.57L158.23 151.24H158.22Z" stroke="#C7C6C5" stroke-width="0.43" stroke-linecap="round" stroke-linejoin="round"/>
<path d="M188.86 142.52H170.63V155.24H188.86V142.52Z" stroke="#C7C6C5" stroke-width="0.43" stroke-linecap="round" stroke-linejoin="round"/>
<path d="M179.6 144.46C177.16 144.46 175.18 146.44 175.18 148.88C175.18 151.32 177.16 153.3 179.6 153.3C182.04 153.3 184.02 151.32 184.02 148.88C184.02 146.44 182.04 144.46 179.6 144.46Z" stroke="#C7C6C5" stroke-width="0.43" stroke-linecap="round" stroke-linejoin="round"/>
<path d="M179.6 144.46C181.86 144.46 183.17 146.3 183.17 148.56C183.17 150.37 181.7 151.84 179.89 151.84C178.44 151.84 177.27 150.67 177.27 149.22C177.27 148.06 178.21 147.12 179.37 147.12C180.3 147.12 181.05 147.87 181.05 148.8C181.05 149.54 180.45 150.14 179.71 150.14C179.12 150.14 178.63 149.66 178.63 149.07C178.63 148.6 179.01 148.21 179.49 148.21C179.87 148.21 180.18 148.52 180.18 148.9C180.18 149.2 179.93 149.45 179.63 149.45C179.39 149.45 179.19 149.25 179.19 149.01" stroke="#C7C6C5" stroke-width="0.43" stroke-linecap="round" stroke-linejoin="round"/>
<path d="M179.6 148.27C179.94 148.27 180.22 148.55 180.22 148.89C180.22 149.23 179.94 149.51 179.6 149.51C179.26 149.51 178.98 149.23 178.98 148.89C178.98 148.55 179.26 148.27 179.6 148.27Z" fill="#C7C6C5"/>
<path d="M170.81 121.46C170.81 119.08 172.66 119.08 173.19 119.08H188.03C188.56 119.08 189 119.51 189 120.04V129.86C189 130.39 188.57 130.82 188.03 130.82H173.19C172.66 130.82 170.81 130.82 170.81 128.44V121.46Z" stroke="#C7C6C5" stroke-width="0.43" stroke-miterlimit="10"/>
<path d="M185.31 121.06H173.83C173.316 121.06 172.9 121.476 172.9 121.99V127.92C172.9 128.434 173.316 128.85 173.83 128.85H185.31C185.824 128.85 186.24 128.434 186.24 127.92V121.99C186.24 121.476 185.824 121.06 185.31 121.06Z" stroke="#C7C6C5" stroke-width="0.43" stroke-miterlimit="10"/>
<path d="M186.25 126.48C185.4 126.48 184.72 125.79 184.72 124.95C184.72 124.11 185.41 123.42 186.25 123.42" stroke="#C7C6C5" stroke-width="0.43" stroke-miterlimit="10"/>
<path d="M93.91 42.29C93.91 42.29 93.22 41.39 93.22 40.79C93.22 40.4 93.97 39.23 99.11 39.23C104.25 39.23 105 40.4 105 40.79C105 41.62 104.31 42.28 104.31 42.28" stroke="#C7C6C5" stroke-width="0.43" stroke-miterlimit="10"/>
<path d="M105 51.43C105 51.82 104.68 52.14 104.29 52.14H93.93C93.54 52.14 93.22 51.82 93.22 51.43V43.07C93.22 42.68 93.97 41.51 99.11 41.51C104.25 41.51 105 42.68 105 43.07V51.44V51.43Z" stroke="#C7C6C5" stroke-width="0.43" stroke-miterlimit="10"/>
<path d="M112.83 52.71C112.83 52.71 113.73 52.02 114.33 52.02C114.72 52.02 115.89 52.77 115.89 57.91C115.89 63.05 114.72 63.8 114.33 63.8C113.5 63.8 112.84 63.11 112.84 63.11" stroke="#C7C6C5" stroke-width="0.43" stroke-miterlimit="10"/>
<path d="M103.7 63.8C103.31 63.8 102.99 63.48 102.99 63.09V52.73C102.99 52.34 103.31 52.02 103.7 52.02H112.06C112.45 52.02 113.62 52.77 113.62 57.91C113.62 63.05 112.45 63.8 112.06 63.8H103.69H103.7Z" stroke="#C7C6C5" stroke-width="0.43" stroke-miterlimit="10"/>
<path d="M65.57 57.3398C65.57 57.3398 64.4501 57.4898 64.0301 57.9098C63.7501 58.1898 63.46 59.5398 67.09 63.1798C70.72 66.8198 72.08 66.5198 72.36 66.2398C72.95 65.6498 72.93 64.6998 72.93 64.6998" stroke="#C7C6C5" stroke-width="0.43" stroke-miterlimit="10"/>
<path d="M79.87 58.7199C80.15 58.4399 80.15 57.9999 79.87 57.7199L72.54 50.3899C72.26 50.1099 71.81 50.1099 71.54 50.3899L65.63 56.2999C65.35 56.5799 65.06 57.9299 68.69 61.5699C72.32 65.2099 73.68 64.9099 73.96 64.6299L79.87 58.7099V58.7199Z" stroke="#C7C6C5" stroke-width="0.43" stroke-miterlimit="10"/>
<path d="M79.28 42.29C79.28 42.29 78.59 41.39 78.59 40.79C78.59 40.4 79.34 39.23 84.48 39.23C89.62 39.23 90.37 40.4 90.37 40.79C90.37 41.62 89.68 42.28 89.68 42.28" stroke="#C7C6C5" stroke-width="0.43" stroke-miterlimit="10"/>
<path d="M90.38 51.43C90.38 51.82 90.06 52.14 89.67 52.14H79.31C78.92 52.14 78.6 51.82 78.6 51.43V43.07C78.6 42.68 79.35 41.51 84.49 41.51C89.63 41.51 90.38 42.68 90.38 43.07V51.44V51.43Z" stroke="#C7C6C5" stroke-width="0.43" stroke-miterlimit="10"/>
<path d="M108.62 46.6499H74.97V69.1799H108.62V46.6499Z" stroke="#C7C6C5" stroke-width="0.43" stroke-miterlimit="10"/>
<path d="M16.3 42.73V42.0301L18.52 39.92C18.71 39.74 18.85 39.5901 18.94 39.4601C19.03 39.3301 19.09 39.2001 19.12 39.0901C19.15 38.9701 19.16 38.8701 19.16 38.7701C19.16 38.5101 19.07 38.31 18.9 38.17C18.72 38.03 18.47 37.9601 18.12 37.9601C17.85 37.9601 17.6 38.01 17.38 38.1C17.16 38.19 16.97 38.34 16.81 38.54L16.08 37.98C16.3 37.69 16.59 37.46 16.96 37.3C17.33 37.14 17.75 37.0601 18.2 37.0601C18.61 37.0601 18.96 37.1301 19.26 37.2601C19.56 37.3901 19.79 37.5801 19.96 37.8201C20.13 38.0601 20.2 38.3501 20.2 38.6801C20.2 38.8601 20.18 39.04 20.13 39.22C20.08 39.4 19.99 39.5901 19.86 39.7801C19.73 39.9801 19.53 40.2001 19.28 40.4401L17.37 42.2601L17.15 41.8701H20.42V42.7501H16.29L16.3 42.73Z" fill="#12100B"/>
<path d="M21.06 43.9399L21.52 42.1699L21.66 42.7599C21.47 42.7599 21.32 42.7 21.19 42.59C21.07 42.48 21 42.3199 21 42.1199C21 41.9199 21.06 41.76 21.19 41.64C21.32 41.52 21.47 41.46 21.65 41.46C21.83 41.46 21.99 41.52 22.11 41.64C22.23 41.76 22.29 41.9199 22.29 42.1199C22.29 42.1699 22.29 42.2299 22.27 42.2899C22.26 42.3499 22.24 42.4199 22.22 42.4999C22.2 42.5799 22.16 42.6799 22.1 42.7999L21.69 43.9299H21.04L21.06 43.9399Z" fill="#12100B"/>
<path d="M25.31 42.8101C24.87 42.8101 24.47 42.7 24.11 42.47C23.75 42.25 23.48 41.9201 23.27 41.4901C23.07 41.0601 22.97 40.5401 22.97 39.9301C22.97 39.3201 23.07 38.8001 23.27 38.3701C23.47 37.9401 23.75 37.6101 24.11 37.3901C24.46 37.1701 24.86 37.05 25.31 37.05C25.76 37.05 26.16 37.1601 26.51 37.3901C26.86 37.6101 27.14 37.9401 27.35 38.3701C27.56 38.8001 27.66 39.3201 27.66 39.9301C27.66 40.5401 27.56 41.0601 27.35 41.4901C27.14 41.9201 26.87 42.25 26.51 42.47C26.16 42.69 25.76 42.8101 25.31 42.8101ZM25.31 41.91C25.57 41.91 25.8 41.8401 25.99 41.7001C26.18 41.5601 26.33 41.34 26.44 41.05C26.55 40.76 26.6 40.3901 26.6 39.9401C26.6 39.4901 26.55 39.1101 26.44 38.8201C26.33 38.5301 26.18 38.31 25.99 38.17C25.8 38.03 25.57 37.9601 25.31 37.9601C25.05 37.9601 24.84 38.03 24.64 38.17C24.45 38.31 24.29 38.5301 24.18 38.8201C24.07 39.1101 24.02 39.4801 24.02 39.9401C24.02 40.4001 24.07 40.76 24.18 41.05C24.29 41.34 24.44 41.5601 24.64 41.7001C24.84 41.8401 25.06 41.91 25.31 41.91Z" fill="#12100B"/>
<path d="M30.22 42.8101C29.83 42.8101 29.44 42.7501 29.06 42.6401C28.68 42.5301 28.37 42.3701 28.11 42.1601L28.55 41.3501C28.75 41.5201 29 41.6501 29.29 41.7501C29.58 41.8501 29.88 41.9001 30.2 41.9001C30.57 41.9001 30.86 41.8201 31.07 41.6701C31.28 41.5201 31.39 41.3101 31.39 41.0501C31.39 40.8701 31.35 40.7201 31.26 40.5901C31.17 40.4601 31.02 40.3601 30.8 40.2901C30.58 40.2201 30.28 40.1901 29.89 40.1901H28.54L28.83 37.1401H32.12V38.0101H29.22L29.76 37.5101L29.54 39.7901L29 39.3001H30.13C30.68 39.3001 31.13 39.3701 31.47 39.5201C31.81 39.6701 32.06 39.8701 32.21 40.1301C32.36 40.3901 32.45 40.6801 32.45 41.0101C32.45 41.3401 32.37 41.6301 32.21 41.9101C32.05 42.1801 31.81 42.4001 31.48 42.5701C31.15 42.7401 30.74 42.8201 30.24 42.8201L30.22 42.8101Z" fill="#12100B"/>
<path d="M149.3 41.39V40.69L151.52 38.58C151.71 38.4 151.85 38.25 151.94 38.12C152.03 37.99 152.09 37.86 152.12 37.75C152.15 37.63 152.16 37.53 152.16 37.43C152.16 37.17 152.07 36.97 151.9 36.83C151.72 36.69 151.47 36.62 151.12 36.62C150.85 36.62 150.6 36.67 150.38 36.76C150.16 36.86 149.97 37 149.81 37.2L149.08 36.64C149.3 36.35 149.59 36.12 149.96 35.96C150.33 35.8 150.75 35.72 151.2 35.72C151.61 35.72 151.96 35.79 152.26 35.92C152.56 36.05 152.79 36.24 152.96 36.48C153.12 36.72 153.2 37.01 153.2 37.34C153.2 37.52 153.18 37.7 153.13 37.88C153.08 38.06 152.99 38.25 152.86 38.44C152.73 38.64 152.53 38.86 152.28 39.1L150.37 40.92L150.15 40.53H153.42V41.41H149.29L149.3 41.39Z" fill="#12100B"/>
<path d="M154.06 42.6001L154.52 40.8301L154.66 41.4201C154.47 41.4201 154.32 41.3601 154.19 41.2501C154.06 41.1401 154 40.9802 154 40.7802C154 40.5802 154.06 40.4201 154.19 40.3001C154.31 40.1801 154.47 40.1201 154.65 40.1201C154.83 40.1201 154.99 40.1801 155.11 40.3001C155.23 40.4201 155.29 40.5802 155.29 40.7802C155.29 40.8302 155.29 40.8901 155.27 40.9501C155.25 41.0101 155.24 41.0801 155.22 41.1601C155.2 41.2401 155.16 41.3401 155.1 41.4601L154.69 42.5901H154.04L154.06 42.6001Z" fill="#12100B"/>
<path d="M157.83 41.47C157.44 41.47 157.05 41.41 156.67 41.3C156.29 41.19 155.98 41.0301 155.72 40.8201L156.16 40.0101C156.36 40.1801 156.61 40.31 156.9 40.41C157.19 40.51 157.49 40.5601 157.81 40.5601C158.18 40.5601 158.47 40.4801 158.68 40.3301C158.89 40.1801 159 39.9701 159 39.7101C159 39.5301 158.96 39.3801 158.87 39.2501C158.78 39.1201 158.63 39.0201 158.41 38.9501C158.19 38.8801 157.89 38.85 157.5 38.85H156.15L156.44 35.8H159.73V36.67H156.83L157.37 36.17L157.15 38.4501L156.61 37.9601H157.74C158.29 37.9601 158.74 38.0301 159.08 38.1801C159.42 38.3301 159.67 38.53 159.82 38.79C159.97 39.05 160.06 39.34 160.06 39.67C160.06 40 159.98 40.2901 159.82 40.5701C159.66 40.8401 159.42 41.06 159.09 41.23C158.76 41.4 158.35 41.48 157.85 41.48L157.83 41.47Z" fill="#12100B"/>
<path d="M160.58 41.39V40.69L162.8 38.58C162.99 38.4 163.13 38.25 163.22 38.12C163.31 37.99 163.37 37.86 163.4 37.75C163.43 37.63 163.44 37.53 163.44 37.43C163.44 37.17 163.35 36.97 163.18 36.83C163 36.69 162.75 36.62 162.4 36.62C162.13 36.62 161.88 36.67 161.66 36.76C161.44 36.85 161.25 37 161.09 37.2L160.36 36.64C160.58 36.35 160.87 36.12 161.24 35.96C161.61 35.8 162.03 35.72 162.48 35.72C162.89 35.72 163.24 35.79 163.54 35.92C163.84 36.05 164.07 36.24 164.24 36.48C164.41 36.72 164.48 37.01 164.48 37.34C164.48 37.52 164.46 37.7 164.41 37.88C164.36 38.06 164.27 38.25 164.14 38.44C164.01 38.64 163.81 38.86 163.56 39.1L161.65 40.92L161.43 40.53H164.7V41.41H160.57L160.58 41.39Z" fill="#12100B"/>
<path d="M180.76 88.3599C180.37 88.3599 179.98 88.2999 179.6 88.1899C179.22 88.0799 178.91 87.92 178.65 87.71L179.1 86.9C179.3 87.07 179.55 87.1999 179.84 87.2999C180.13 87.3999 180.43 87.45 180.74 87.45C181.11 87.45 181.4 87.3699 181.61 87.2199C181.82 87.0699 181.92 86.8599 181.92 86.5999C181.92 86.3399 181.82 86.1399 181.63 85.9899C181.44 85.8399 181.13 85.77 180.7 85.77H180.19V85.0599L181.79 83.1599L181.93 83.5499H178.92V82.6799H182.74V83.3799L181.14 85.28L180.6 84.96H180.91C181.6 84.96 182.11 85.1099 182.46 85.4199C182.81 85.7299 182.98 86.1199 182.98 86.5999C182.98 86.9099 182.9 87.2099 182.74 87.4699C182.58 87.7299 182.34 87.9499 182.01 88.1099C181.68 88.2699 181.27 88.3499 180.77 88.3499L180.76 88.3599Z" fill="#12100B"/>
<path d="M183.7 89.49L184.16 87.72L184.3 88.31C184.11 88.31 183.96 88.25 183.83 88.14C183.7 88.03 183.64 87.87 183.64 87.67C183.64 87.47 183.7 87.31 183.83 87.19C183.95 87.07 184.11 87.01 184.29 87.01C184.47 87.01 184.63 87.07 184.75 87.19C184.87 87.31 184.93 87.47 184.93 87.67C184.93 87.72 184.93 87.78 184.91 87.84C184.89 87.9 184.88 87.97 184.86 88.05C184.84 88.13 184.8 88.23 184.74 88.35L184.33 89.48H183.68L183.7 89.49Z" fill="#12100B"/>
<path d="M185.53 87.0099V86.2899L188.29 82.6799H189.4L186.68 86.2899L186.16 86.1299H190.6V87.0099H185.53ZM188.6 88.28V87.0099L188.63 86.1299V84.9999H189.61V88.28H188.6Z" fill="#12100B"/>
<path d="M191.94 88.28V83.08L192.4 83.5499H190.76V82.6799H192.98V88.28H191.94Z" fill="#12100B"/>
<path d="M151.8 127.84C151.41 127.84 151.02 127.78 150.64 127.67C150.26 127.56 149.95 127.4 149.69 127.19L150.14 126.38C150.34 126.55 150.59 126.68 150.88 126.78C151.17 126.88 151.47 126.93 151.78 126.93C152.15 126.93 152.44 126.85 152.65 126.7C152.86 126.55 152.96 126.34 152.96 126.08C152.96 125.82 152.86 125.62 152.67 125.47C152.48 125.32 152.17 125.25 151.74 125.25H151.23V124.54L152.83 122.64L152.97 123.03H149.96V122.16H153.78V122.86L152.18 124.76L151.64 124.44H151.95C152.64 124.44 153.15 124.59 153.5 124.9C153.85 125.21 154.02 125.6 154.02 126.08C154.02 126.39 153.94 126.69 153.78 126.95C153.62 127.21 153.38 127.43 153.05 127.59C152.72 127.75 152.31 127.83 151.81 127.83L151.8 127.84Z" fill="#12100B"/>
<path d="M154.74 128.96L155.2 127.19L155.34 127.78C155.15 127.78 155 127.72 154.87 127.61C154.74 127.5 154.68 127.34 154.68 127.14C154.68 126.94 154.74 126.78 154.87 126.66C154.99 126.54 155.15 126.48 155.33 126.48C155.51 126.48 155.67 126.54 155.79 126.66C155.91 126.78 155.97 126.94 155.97 127.14C155.97 127.19 155.97 127.25 155.95 127.31C155.93 127.37 155.92 127.44 155.9 127.52C155.88 127.6 155.84 127.7 155.78 127.82L155.37 128.95H154.72L154.74 128.96Z" fill="#12100B"/>
<path d="M159.07 127.84C158.56 127.84 158.13 127.73 157.77 127.52C157.41 127.3 157.13 126.99 156.94 126.58C156.75 126.17 156.65 125.66 156.65 125.06C156.65 124.42 156.77 123.88 157 123.44C157.23 123 157.55 122.66 157.97 122.43C158.39 122.2 158.86 122.09 159.4 122.09C159.68 122.09 159.95 122.12 160.21 122.18C160.47 122.24 160.69 122.33 160.87 122.45L160.49 123.23C160.33 123.13 160.17 123.06 159.99 123.02C159.81 122.98 159.62 122.96 159.43 122.96C158.9 122.96 158.48 123.12 158.17 123.45C157.86 123.78 157.71 124.25 157.71 124.89C157.71 124.99 157.71 125.11 157.71 125.25C157.71 125.39 157.73 125.52 157.77 125.66L157.45 125.31C157.55 125.09 157.68 124.91 157.85 124.76C158.02 124.61 158.22 124.5 158.45 124.43C158.68 124.36 158.93 124.32 159.21 124.32C159.58 124.32 159.91 124.39 160.19 124.53C160.48 124.67 160.71 124.87 160.88 125.13C161.05 125.39 161.14 125.69 161.14 126.04C161.14 126.41 161.05 126.73 160.87 127C160.69 127.27 160.44 127.48 160.13 127.63C159.82 127.78 159.47 127.85 159.09 127.85L159.07 127.84ZM159.01 127.02C159.22 127.02 159.41 126.98 159.58 126.9C159.75 126.82 159.87 126.71 159.97 126.57C160.06 126.43 160.11 126.26 160.11 126.07C160.11 125.78 160.01 125.54 159.81 125.37C159.61 125.2 159.33 125.11 158.99 125.11C158.77 125.11 158.57 125.15 158.4 125.23C158.23 125.31 158.1 125.43 158 125.57C157.9 125.71 157.85 125.88 157.85 126.07C157.85 126.24 157.89 126.4 157.99 126.54C158.08 126.68 158.21 126.8 158.39 126.88C158.56 126.96 158.77 127.01 159.02 127.01L159.01 127.02Z" fill="#12100B"/>
<path d="M163.43 127.84C163.04 127.84 162.65 127.78 162.27 127.67C161.89 127.56 161.58 127.4 161.32 127.19L161.77 126.38C161.97 126.55 162.22 126.68 162.51 126.78C162.8 126.88 163.1 126.93 163.41 126.93C163.78 126.93 164.07 126.85 164.28 126.7C164.49 126.55 164.59 126.34 164.59 126.08C164.59 125.82 164.49 125.62 164.3 125.47C164.11 125.32 163.8 125.25 163.37 125.25H162.86V124.54L164.46 122.64L164.6 123.03H161.59V122.16H165.41V122.86L163.81 124.76L163.27 124.44H163.58C164.27 124.44 164.78 124.59 165.13 124.9C165.48 125.21 165.65 125.6 165.65 126.08C165.65 126.39 165.57 126.69 165.41 126.95C165.25 127.21 165.01 127.43 164.68 127.59C164.35 127.75 163.94 127.83 163.44 127.83L163.43 127.84Z" fill="#12100B"/>
<path d="M81.69 99.5701V98.8701L83.91 96.7601C84.1 96.5801 84.24 96.4301 84.33 96.3001C84.42 96.1701 84.48 96.0401 84.51 95.9301C84.54 95.8101 84.55 95.7101 84.55 95.6101C84.55 95.3501 84.46 95.1501 84.29 95.0101C84.11 94.8701 83.86 94.8001 83.51 94.8001C83.24 94.8001 82.99 94.8501 82.77 94.9401C82.55 95.0301 82.36 95.1801 82.2 95.3801L81.47 94.8201C81.69 94.5301 81.98 94.3001 82.35 94.1401C82.72 93.9801 83.14 93.9001 83.59 93.9001C84 93.9001 84.35 93.9701 84.65 94.1001C84.95 94.2301 85.18 94.4201 85.35 94.6601C85.52 94.9001 85.59 95.1901 85.59 95.5201C85.59 95.7001 85.57 95.8801 85.52 96.0601C85.47 96.2401 85.38 96.4301 85.25 96.6201C85.12 96.8201 84.92 97.0402 84.67 97.2802L82.76 99.1001L82.54 98.7101H85.81V99.5901H81.68L81.69 99.5701Z" fill="#12100B"/>
<path d="M88.76 99.6501C88.32 99.6501 87.92 99.5401 87.56 99.3101C87.2 99.0901 86.93 98.7601 86.72 98.3301C86.52 97.9001 86.42 97.3801 86.42 96.7701C86.42 96.1601 86.52 95.6401 86.72 95.2101C86.92 94.7801 87.2 94.4501 87.56 94.2301C87.91 94.0101 88.31 93.8901 88.76 93.8901C89.21 93.8901 89.61 94.0001 89.96 94.2301C90.31 94.4501 90.59 94.7801 90.8 95.2101C91.01 95.6401 91.11 96.1601 91.11 96.7701C91.11 97.3801 91.01 97.9001 90.8 98.3301C90.59 98.7601 90.32 99.0901 89.96 99.3101C89.61 99.5301 89.21 99.6501 88.76 99.6501ZM88.76 98.7501C89.02 98.7501 89.25 98.6801 89.44 98.5401C89.63 98.4001 89.78 98.1801 89.89 97.8901C90 97.6001 90.05 97.2302 90.05 96.7802C90.05 96.3302 90 95.9501 89.89 95.6601C89.78 95.3701 89.63 95.1501 89.44 95.0101C89.25 94.8701 89.02 94.8001 88.76 94.8001C88.5 94.8001 88.29 94.8701 88.09 95.0101C87.9 95.1501 87.74 95.3701 87.63 95.6601C87.52 95.9501 87.47 96.3202 87.47 96.7802C87.47 97.2402 87.52 97.6001 87.63 97.8901C87.74 98.1801 87.89 98.4001 88.09 98.5401C88.29 98.6801 88.51 98.7501 88.76 98.7501Z" fill="#12100B"/>
<path d="M91.84 100.77L92.3 99.0001L92.44 99.5901C92.25 99.5901 92.1 99.53 91.97 99.42C91.84 99.31 91.78 99.1501 91.78 98.9501C91.78 98.7501 91.84 98.59 91.97 98.47C92.09 98.35 92.25 98.29 92.43 98.29C92.61 98.29 92.77 98.35 92.89 98.47C93.01 98.59 93.07 98.7501 93.07 98.9501C93.07 99.0001 93.07 99.0601 93.05 99.1201C93.03 99.1801 93.02 99.2501 93 99.3301C92.98 99.4101 92.94 99.5101 92.88 99.6301L92.47 100.76H91.82L91.84 100.77Z" fill="#12100B"/>
<path d="M94.65 99.5703V94.3702L95.11 94.8403H93.47V93.9702H95.6899V99.5703H94.65Z" fill="#12100B"/>
<path d="M45.35 95.2501V90.0501L45.81 90.5201H44.17V89.6501H46.39V95.2501H45.35Z" fill="#C43020"/>
<path d="M47.43 95.2501V94.55L49.65 92.4401C49.84 92.2601 49.98 92.11 50.07 91.98C50.16 91.85 50.22 91.72 50.25 91.61C50.28 91.5 50.29 91.39 50.29 91.29C50.29 91.03 50.2 90.8301 50.03 90.6901C49.85 90.5501 49.6 90.48 49.25 90.48C48.98 90.48 48.73 90.5301 48.51 90.6201C48.29 90.7201 48.1 90.8601 47.94 91.0601L47.21 90.5001C47.43 90.2101 47.72 89.9801 48.09 89.8201C48.46 89.6601 48.88 89.5801 49.33 89.5801C49.74 89.5801 50.09 89.6501 50.39 89.7801C50.69 89.9101 50.92 90.1001 51.09 90.3401C51.25 90.5801 51.33 90.8701 51.33 91.2001C51.33 91.3801 51.31 91.5601 51.26 91.7401C51.21 91.9201 51.12 92.11 50.99 92.3C50.86 92.5 50.66 92.7201 50.41 92.9601L48.5 94.7801L48.28 94.3901H51.55V95.2701H47.42L47.43 95.2501Z" fill="#C43020"/>
<path d="M52.2 96.46L52.66 94.69L52.8 95.28C52.61 95.28 52.46 95.22 52.33 95.11C52.21 95 52.14 94.84 52.14 94.64C52.14 94.44 52.2 94.28 52.33 94.16C52.46 94.04 52.61 93.98 52.79 93.98C52.97 93.98 53.13 94.04 53.25 94.16C53.37 94.28 53.43 94.44 53.43 94.64C53.43 94.69 53.43 94.75 53.41 94.81C53.4 94.87 53.38 94.94 53.36 95.02C53.34 95.1 53.3 95.2 53.24 95.32L52.83 96.45H52.18L52.2 96.46Z" fill="#C43020"/>
<path d="M56.53 95.3301C56.02 95.3301 55.59 95.2201 55.23 95.0101C54.87 94.8001 54.59 94.4801 54.4 94.0701C54.21 93.6601 54.11 93.15 54.11 92.55C54.11 91.91 54.23 91.3701 54.46 90.9301C54.69 90.4901 55.01 90.15 55.43 89.92C55.84 89.69 56.32 89.5801 56.86 89.5801C57.14 89.5801 57.41 89.61 57.67 89.67C57.93 89.73 58.15 89.8201 58.33 89.9401L57.95 90.72C57.8 90.62 57.63 90.5501 57.45 90.5101C57.27 90.4701 57.08 90.4501 56.89 90.4501C56.36 90.4501 55.94 90.6101 55.63 90.9401C55.32 91.2701 55.17 91.7501 55.17 92.3801C55.17 92.4801 55.17 92.6001 55.17 92.7401C55.17 92.8801 55.19 93.0101 55.23 93.1501L54.91 92.8C55.01 92.58 55.14 92.4001 55.31 92.2501C55.48 92.1001 55.68 91.99 55.91 91.92C56.14 91.85 56.39 91.8101 56.67 91.8101C57.04 91.8101 57.37 91.8801 57.65 92.0201C57.93 92.1601 58.17 92.3601 58.34 92.6201C58.51 92.8801 58.6 93.1801 58.6 93.5301C58.6 93.9001 58.51 94.2201 58.33 94.4901C58.15 94.7601 57.9 94.9701 57.59 95.1201C57.28 95.2701 56.93 95.3401 56.55 95.3401L56.53 95.3301ZM56.47 94.5101C56.68 94.5101 56.87 94.4701 57.04 94.3901C57.21 94.3101 57.33 94.2001 57.43 94.0601C57.52 93.9201 57.57 93.7501 57.57 93.5601C57.57 93.2701 57.47 93.03 57.27 92.86C57.07 92.69 56.8 92.6 56.45 92.6C56.23 92.6 56.03 92.64 55.86 92.72C55.69 92.8 55.56 92.9201 55.46 93.0601C55.36 93.2001 55.31 93.3701 55.31 93.5601C55.31 93.7301 55.36 93.8901 55.45 94.0301C55.54 94.1701 55.67 94.2901 55.85 94.3701C56.02 94.4501 56.23 94.5001 56.48 94.5001L56.47 94.5101Z" fill="#C43020"/>
<path d="M61.46 95.3301C61.02 95.3301 60.62 95.2201 60.26 94.9901C59.91 94.7701 59.63 94.4401 59.42 94.0101C59.22 93.5801 59.12 93.0601 59.12 92.4501C59.12 91.8401 59.22 91.3201 59.42 90.8901C59.62 90.4601 59.9 90.13 60.26 89.91C60.61 89.69 61.01 89.5701 61.46 89.5701C61.91 89.5701 62.31 89.68 62.66 89.91C63.01 90.13 63.29 90.4601 63.5 90.8901C63.71 91.3201 63.81 91.8401 63.81 92.4501C63.81 93.0601 63.71 93.5801 63.5 94.0101C63.29 94.4401 63.02 94.7701 62.66 94.9901C62.31 95.2101 61.91 95.3301 61.46 95.3301ZM61.46 94.4301C61.72 94.4301 61.95 94.36 62.14 94.22C62.33 94.08 62.48 93.8601 62.59 93.5701C62.7 93.2801 62.75 92.9101 62.75 92.4601C62.75 92.0101 62.7 91.6301 62.59 91.3401C62.48 91.0501 62.33 90.8301 62.14 90.6901C61.95 90.5501 61.72 90.48 61.46 90.48C61.2 90.48 60.99 90.5501 60.79 90.6901C60.59 90.8301 60.44 91.0501 60.33 91.3401C60.22 91.6301 60.17 92.0001 60.17 92.4601C60.17 92.9201 60.22 93.2801 60.33 93.5701C60.44 93.8601 60.59 94.08 60.79 94.22C60.98 94.36 61.21 94.4301 61.46 94.4301Z" fill="#C43020"/>
<path d="M46.65 104.78C46.26 104.78 45.87 104.72 45.49 104.61C45.11 104.49 44.8 104.34 44.54 104.13L44.99 103.32C45.19 103.49 45.44 103.62 45.73 103.72C46.02 103.82 46.32 103.87 46.63 103.87C47 103.87 47.29 103.79 47.5 103.64C47.71 103.49 47.81 103.28 47.81 103.02C47.81 102.76 47.71 102.56 47.52 102.41C47.33 102.26 47.02 102.19 46.59 102.19H46.08V101.48L47.68 99.5801L47.82 99.9701H44.81V99.1001H48.63V99.8001L47.03 101.7L46.49 101.38H46.8C47.49 101.38 48 101.53 48.35 101.84C48.7 102.15 48.87 102.54 48.87 103.02C48.87 103.34 48.79 103.63 48.63 103.89C48.47 104.16 48.23 104.37 47.9 104.53C47.57 104.69 47.16 104.77 46.66 104.77L46.65 104.78Z" fill="#C43020"/>
<path d="M50.42 104.7V99.5001L50.88 99.9701H49.24V99.1001H51.46V104.7H50.42Z" fill="#C43020"/>
<path d="M52.57 105.91L53.03 104.14L53.17 104.73C52.98 104.73 52.83 104.67 52.7 104.56C52.58 104.45 52.51 104.29 52.51 104.09C52.51 103.89 52.57 103.73 52.7 103.61C52.83 103.49 52.98 103.43 53.16 103.43C53.34 103.43 53.5 103.49 53.62 103.61C53.74 103.73 53.8 103.89 53.8 104.09C53.8 104.14 53.8 104.2 53.78 104.26C53.77 104.32 53.75 104.39 53.73 104.47C53.71 104.55 53.67 104.65 53.61 104.77L53.2 105.9H52.55L52.57 105.91Z" fill="#C43020"/>
<path d="M55.39 104.7L57.7 99.5201L57.97 99.9801H54.79L55.29 99.4801V100.94H54.32V99.1101H58.67V99.8101L56.49 104.71H55.38L55.39 104.7Z" fill="#C43020"/>
<path d="M60.18 104.7V99.5001L60.64 99.9701H59V99.1001H61.22V104.7H60.18Z" fill="#C43020"/>
<path d="M25.14 106.48V98.8L25.98 99.6401H23.46V98.0801H27.08V106.48H25.14Z" fill="#C43020"/>
<path d="M28.19 106.48L31.93 98.0801H33.85L37.61 106.48H35.57L32.5 99.0601H33.27L30.19 106.48H28.2H28.19ZM30.06 104.68L30.58 103.2H34.9L35.43 104.68H30.07H30.06Z" fill="#C43020"/>
<path d="M46.41 113.89C46.02 113.89 45.63 113.83 45.25 113.72C44.87 113.6 44.56 113.45 44.3 113.24L44.75 112.43C44.95 112.6 45.2 112.73 45.49 112.83C45.78 112.93 46.08 112.98 46.39 112.98C46.76 112.98 47.05 112.9 47.26 112.75C47.47 112.6 47.57 112.39 47.57 112.13C47.57 111.87 47.47 111.67 47.28 111.52C47.09 111.37 46.78 111.3 46.35 111.3H45.84V110.59L47.44 108.69L47.58 109.08H44.57V108.21H48.39V108.91L46.79 110.81L46.25 110.49H46.56C47.25 110.49 47.76 110.64 48.11 110.95C48.45 111.26 48.63 111.65 48.63 112.13C48.63 112.45 48.55 112.74 48.39 113C48.23 113.27 47.99 113.48 47.66 113.64C47.33 113.8 46.92 113.88 46.42 113.88L46.41 113.89Z" fill="#C43020"/>
<path d="M50.15 113.81V108.61L50.61 109.08H48.97V108.21H51.19V113.81H50.15Z" fill="#C43020"/>
<path d="M52.29 115.02L52.75 113.25L52.89 113.84C52.7 113.84 52.55 113.78 52.42 113.67C52.29 113.56 52.23 113.4 52.23 113.2C52.23 113 52.29 112.84 52.42 112.72C52.54 112.6 52.7 112.54 52.88 112.54C53.06 112.54 53.22 112.6 53.34 112.72C53.46 112.84 53.52 113 53.52 113.2C53.52 113.25 53.52 113.31 53.5 113.37C53.49 113.43 53.47 113.5 53.45 113.58C53.43 113.66 53.39 113.76 53.33 113.88L52.92 115.01H52.27L52.29 115.02Z" fill="#C43020"/>
<path d="M55.08 113.81L57.39 108.63L57.66 109.09H54.48L54.98 108.59V110.05H54.01V108.22H58.36V108.92L56.18 113.82H55.07L55.08 113.81Z" fill="#C43020"/>
<path d="M59.85 113.81V108.61L60.31 109.08H58.67V108.21H60.89V113.81H59.85Z" fill="#C43020"/>
<path d="M41.09 117.35V85.1401" stroke="#C43020" stroke-width="0.71" stroke-miterlimit="10"/>
<path d="M10.53 137.61H0.570007V162.21H10.53V137.61Z" fill="#511F19"/>
<path d="M3.45001 135.68H0.570007V162.2H3.45001V135.68Z" fill="#511F19"/>
<path d="M10.53 61.4099H0.570007V89.6099H10.53V61.4099Z" fill="#511F19"/>
<path d="M3.45001 59.48H0.570007V91.4H3.45001V59.48Z" fill="#511F19"/>
<path d="M10.53 0.330078H0.570007V13.2601H10.53V0.330078Z" fill="#511F19"/>
<path d="M3.45001 0.330078H0.570007V15.3301H3.45001V0.330078Z" fill="#511F19"/>
<path d="M206.61 104.37H188.97V162.21H206.61V104.37Z" fill="#511F19"/>
<path d="M206.61 0.330078H188.97V68.4901H206.61V0.330078Z" fill="#511F19"/>
<path d="M206.61 99.45H199.53V108.75H206.61V99.45Z" fill="#511F19"/>
<path d="M206.61 97.8799H204.33V101.24H206.61V97.8799Z" fill="#511F19"/>
<path d="M206.61 66.6899H204.33V70.0499H206.61V66.6899Z" fill="#511F19"/>
<path d="M194.43 0.330078H6.69V7.41003H194.43V0.330078Z" fill="#511F19"/>
<path d="M41.73 0.330078H38.37V41.2501H41.73V0.330078Z" fill="#511F19"/>
<path d="M41.73 69.3301H8.13V71.61H41.73V69.3301Z" fill="#511F19"/>
<path d="M112.53 69.3301H69.93V71.61H112.53V69.3301Z" fill="#511F19"/>
<path d="M143.01 6.09009H140.73V55.6501H143.01V6.09009Z" fill="#511F19"/>
<path d="M147.69 53.3701H140.73V55.6501H147.69V53.3701Z" fill="#511F19"/>
<path d="M192.1 53.3701H170.49V55.6501H192.1V53.3701Z" fill="#511F19"/>
<path d="M192.1 104.37H171.81V106.65H192.1V104.37Z" fill="#511F19"/>
<path d="M192.1 155.25H7.53003V162.21H192.1V155.25Z" fill="#511F19"/>
<path d="M126.93 104.37H124.65V158.13H126.93V104.37Z" fill="#511F19"/>
<path d="M149.01 104.37H124.65V106.65H149.01V104.37Z" fill="#511F19"/>
<path d="M206.62 98.0701H234.64" stroke="#511F19" stroke-width="0.85" stroke-miterlimit="10"/>
<path d="M234.64 98.0701C234.64 82.6001 222.1 70.05 206.62 70.05" stroke="#511F19" stroke-width="0.43" stroke-miterlimit="10"/>
<path d="M3.45001 15.3301V59.61" stroke="#511F19" stroke-width="0.43" stroke-miterlimit="10"/>
<path d="M5.12 13.25V61.41" stroke="#511F19" stroke-width="0.43" stroke-miterlimit="10"/>
<path d="M10.53 13.25V61.41" stroke="#511F19" stroke-width="0.43" stroke-miterlimit="10"/>
<path d="M39.02 41.25V45.44" stroke="#511F19" stroke-width="0.43" stroke-miterlimit="10"/>
<path d="M40.12 41.25V45.44" stroke="#511F19" stroke-width="0.43" stroke-miterlimit="10"/>
<path d="M41.21 41.25V45.44" stroke="#511F19" stroke-width="0.43" stroke-miterlimit="10"/>
<path d="M39.02 45.4399H41.21" stroke="#511F19" stroke-width="0.43" stroke-miterlimit="10"/>
<path d="M39.02 69.3299V65.1299" stroke="#511F19" stroke-width="0.43" stroke-miterlimit="10"/>
<path d="M40.12 69.3299V65.1299" stroke="#511F19" stroke-width="0.43" stroke-miterlimit="10"/>
<path d="M41.21 69.3299V65.1299" stroke="#511F19" stroke-width="0.43" stroke-miterlimit="10"/>
<path d="M39.02 65.1299H41.21" stroke="#511F19" stroke-width="0.43" stroke-miterlimit="10"/>
<path d="M169.16 97.01L148.3 105.48" stroke="#511F19" stroke-width="0.85" stroke-miterlimit="10"/>
<path d="M171.43 54.51L150.58 62.97" stroke="#511F19" stroke-width="0.85" stroke-miterlimit="10"/>
<path d="M40.77 63.5601H39.42V65.1201H40.77V63.5601Z" fill="#511F19"/>
<path d="M40.77 45.4099H39.42V46.9699H40.77V45.4099Z" fill="#511F19"/>
<path d="M40.78 46.97H57.37" stroke="#511F19" stroke-width="0.85" stroke-miterlimit="10"/>
<path d="M57.37 46.97C57.37 56.13 49.94 63.56 40.78 63.56" stroke="#511F19" stroke-width="0.43" stroke-miterlimit="10"/>
<path d="M3.45001 91.4099V135.68" stroke="#511F19" stroke-width="0.43" stroke-miterlimit="10"/>
<path d="M5.12 89.6099V137.61" stroke="#511F19" stroke-width="0.43" stroke-miterlimit="10"/>
<path d="M10.53 89.6099V137.61" stroke="#511F19" stroke-width="0.43" stroke-miterlimit="10"/>
</svg>
