<svg width="192" height="415" viewBox="0 0 192 415" fill="none" xmlns="http://www.w3.org/2000/svg">
<g clip-path="url(#clip0_2024_5068)">
<path d="M184.65 24.5H166.29V58.82H184.65V24.5Z" stroke="#C7C6C5" stroke-width="0.43" stroke-linecap="round" stroke-linejoin="round"/>
<path d="M176.32 37.63C176.32 36.41 174.51 36.42 174.51 37.63C174.51 38.53 175.42 38.29 175.42 39.1" stroke="#C7C6C5" stroke-width="0.43" stroke-linecap="round" stroke-linejoin="round"/>
<path d="M175.42 39.1099L181.51 41.1599C181.51 41.1599 182.07 41.3699 181.99 41.9899C181.91 42.5999 181.34 42.5399 181.34 42.5399H169.51C169.51 42.5399 168.88 42.6099 168.8 41.9899C168.72 41.3799 169.33 41.1599 169.33 41.1599L175.42 39.1099Z" stroke="#C7C6C5" stroke-width="0.43" stroke-linecap="round" stroke-linejoin="round"/>
<path d="M175.42 35.67V26.21" stroke="#C7C6C5" stroke-width="0.43" stroke-linecap="round" stroke-linejoin="round"/>
<path d="M175.42 57.5099V43.6499" stroke="#C7C6C5" stroke-width="0.43" stroke-linecap="round" stroke-linejoin="round"/>
<path d="M184.54 7.58008H135.31V24.5001H184.54V7.58008Z" stroke="#C7C6C5" stroke-width="0.43" stroke-linecap="round" stroke-linejoin="round"/>
<path d="M161.79 11.8203C161.79 10.6203 160.02 10.6403 160.02 11.8203C160.02 12.7003 160.9 12.4603 160.9 13.2603" stroke="#C7C6C5" stroke-width="0.43" stroke-linecap="round" stroke-linejoin="round"/>
<path d="M160.92 13.2603L166.87 15.2603C166.87 15.2603 167.42 15.4703 167.34 16.0703C167.26 16.6703 166.7 16.6003 166.7 16.6003H155.15C155.15 16.6003 154.59 16.6703 154.51 16.0703C154.43 15.4703 154.98 15.2603 154.98 15.2603L160.93 13.2603H160.92Z" stroke="#C7C6C5" stroke-width="0.43" stroke-linecap="round" stroke-linejoin="round"/>
<path d="M169.62 16.04H183.32" stroke="#C7C6C5" stroke-width="0.43" stroke-linecap="round" stroke-linejoin="round"/>
<path d="M136.12 16.04H151.93" stroke="#C7C6C5" stroke-width="0.43" stroke-linecap="round" stroke-linejoin="round"/>
<path d="M61.48 90.3999L58.16 93.7199C58.16 93.7199 57.8 93.9299 58.09 94.5499C58.38 95.1699 59 94.9099 59 94.9099C59 94.9099 61.01 94.7599 63.44 92.3399" stroke="#C7C6C5" stroke-width="0.43" stroke-miterlimit="10"/>
<path d="M61.48 90.3999L58.16 93.7199C58.16 93.7199 57.8 93.9299 58.09 94.5499C58.38 95.1699 59 94.9099 59 94.9099C59 94.9099 61.01 94.7599 63.44 92.3399" stroke="#C7C6C5" stroke-width="0.43" stroke-linecap="round" stroke-linejoin="round"/>
<path d="M58.01 93.9198C58 94.3298 59.31 94.4498 62.41 91.3398" stroke="#C7C6C5" stroke-width="0.43" stroke-linecap="round" stroke-linejoin="round"/>
<path d="M51.8 90.1499L52.09 89.7999C52.27 89.5799 52.61 89.5399 52.84 89.7299L56.91 93.0899C57.13 93.2699 57.17 93.6099 56.98 93.8399L56.69 94.1899C56.51 94.4099 56.17 94.4499 55.94 94.2599L51.87 90.8999C51.65 90.7199 51.61 90.3799 51.8 90.1499Z" stroke="#C7C6C5" stroke-width="0.43" stroke-miterlimit="10"/>
<path d="M51.8 90.1499L52.09 89.7999C52.27 89.5799 52.61 89.5399 52.84 89.7299L56.91 93.0899C57.13 93.2699 57.17 93.6099 56.98 93.8399L56.69 94.1899C56.51 94.4099 56.17 94.4499 55.94 94.2599L51.87 90.8999C51.65 90.7199 51.61 90.3799 51.8 90.1499Z" stroke="#C7C6C5" stroke-width="0.43" stroke-linecap="round" stroke-linejoin="round"/>
<path d="M53.6 82.51C49.66 86.45 49.89 87.73 52.38 89.55C52.38 89.55 52.51 89.43 52.9 89.76C53.3 90.09 56.41 92.65 56.41 92.65C56.85 93.02 58.63 93.25 60.27 91.61L62.7 89.18C64.34 87.54 64.11 85.77 63.74 85.32C63.74 85.32 60.99 81.98 60.81 81.76C60.63 81.54 60.64 81.28 60.64 81.28C58.82 78.79 57.54 78.56 53.6 82.5" stroke="#C7C6C5" stroke-width="0.43" stroke-miterlimit="10"/>
<path d="M53.6 82.51C49.66 86.45 49.89 87.73 52.38 89.55C52.38 89.55 52.51 89.43 52.9 89.76C53.3 90.09 56.41 92.65 56.41 92.65C56.85 93.02 58.63 93.25 60.27 91.61L62.7 89.18C64.34 87.54 64.11 85.77 63.74 85.32C63.74 85.32 60.99 81.98 60.81 81.76C60.63 81.54 60.64 81.28 60.64 81.28C58.82 78.79 57.54 78.56 53.6 82.5" stroke="#C7C6C5" stroke-width="0.43" stroke-linecap="round" stroke-linejoin="round"/>
<path d="M61.48 90.3999L64.8 87.0799C64.8 87.0799 65.02 86.7199 65.63 87.0099C66.25 87.2999 65.99 87.9199 65.99 87.9199C65.99 87.9199 65.84 89.9299 63.42 92.3599" stroke="#C7C6C5" stroke-width="0.43" stroke-miterlimit="10"/>
<path d="M61.48 90.3999L64.8 87.0799C64.8 87.0799 65.02 86.7199 65.63 87.0099C66.25 87.2999 65.99 87.9199 65.99 87.9199C65.99 87.9199 65.84 89.9299 63.42 92.3599" stroke="#C7C6C5" stroke-width="0.43" stroke-linecap="round" stroke-linejoin="round"/>
<path d="M64.99 86.94C65.4 86.93 65.52 88.24 62.41 91.34" stroke="#C7C6C5" stroke-width="0.43" stroke-linecap="round" stroke-linejoin="round"/>
<path d="M60.8 80.9L61.15 80.61C61.37 80.43 61.71 80.46 61.9 80.68L65.26 84.75C65.44 84.97 65.41 85.31 65.19 85.5L64.84 85.79C64.62 85.97 64.28 85.94 64.09 85.72L60.73 81.65C60.55 81.43 60.58 81.09 60.8 80.9Z" stroke="#C7C6C5" stroke-width="0.43" stroke-miterlimit="10"/>
<path d="M60.8 80.9L61.15 80.61C61.37 80.43 61.71 80.46 61.9 80.68L65.26 84.75C65.44 84.97 65.41 85.31 65.19 85.5L64.84 85.79C64.62 85.97 64.28 85.94 64.09 85.72L60.73 81.65C60.55 81.43 60.58 81.09 60.8 80.9Z" stroke="#C7C6C5" stroke-width="0.43" stroke-linecap="round" stroke-linejoin="round"/>
<path d="M52.14 66.02H32.74V102.14H52.14V66.02Z" stroke="#C7C6C5" stroke-width="0.43" stroke-miterlimit="10"/>
<path d="M52.14 66.02H32.74V102.14H52.14V66.02Z" stroke="#C7C6C5" stroke-width="0.43" stroke-linecap="round" stroke-linejoin="round"/>
<path d="M170.85 114.51H183.77C184.22 114.51 184.59 114.88 184.59 115.33V139.84C184.59 140.29 184.22 140.66 183.77 140.66H170.85C170.4 140.66 170.03 140.29 170.03 139.84V115.33C170.03 114.88 170.4 114.51 170.85 114.51Z" stroke="#C7C6C5" stroke-width="0.43" stroke-linecap="round" stroke-linejoin="round"/>
<path d="M176.98 138.24C180.05 138.24 182.53 133.45 182.53 127.54C182.53 121.63 180.04 116.84 176.98 116.84C173.92 116.84 171.43 121.63 171.43 127.54C171.43 133.45 173.92 138.24 176.98 138.24Z" stroke="#C7C6C5" stroke-width="0.43" stroke-miterlimit="10"/>
<path d="M176.98 138.24C180.05 138.24 182.53 133.45 182.53 127.54C182.53 121.63 180.04 116.84 176.98 116.84C173.92 116.84 171.43 121.63 171.43 127.54C171.43 133.45 173.92 138.24 176.98 138.24Z" stroke="#C7C6C5" stroke-width="0.43" stroke-linecap="round" stroke-linejoin="round"/>
<path d="M182.8 124.85C183.28 124.85 183.67 124.46 183.67 123.98C183.67 123.5 183.28 123.11 182.8 123.11C182.32 123.11 181.93 123.5 181.93 123.98C181.93 124.46 182.32 124.85 182.8 124.85Z" stroke="#C7C6C5" stroke-width="0.43" stroke-miterlimit="10"/>
<path d="M182.8 124.85C183.28 124.85 183.67 124.46 183.67 123.98C183.67 123.5 183.28 123.11 182.8 123.11C182.32 123.11 181.93 123.5 181.93 123.98C181.93 124.46 182.32 124.85 182.8 124.85Z" stroke="#C7C6C5" stroke-width="0.43" stroke-linecap="round" stroke-linejoin="round"/>
<path d="M182.8 132.11C183.28 132.11 183.67 131.72 183.67 131.24C183.67 130.76 183.28 130.37 182.8 130.37C182.32 130.37 181.93 130.76 181.93 131.24C181.93 131.72 182.32 132.11 182.8 132.11Z" stroke="#C7C6C5" stroke-width="0.43" stroke-miterlimit="10"/>
<path d="M182.8 132.11C183.28 132.11 183.67 131.72 183.67 131.24C183.67 130.76 183.28 130.37 182.8 130.37C182.32 130.37 181.93 130.76 181.93 131.24C181.93 131.72 182.32 132.11 182.8 132.11Z" stroke="#C7C6C5" stroke-width="0.43" stroke-linecap="round" stroke-linejoin="round"/>
<path d="M180.06 128.05C179.79 128.05 179.56 127.83 179.56 127.55C179.56 127.27 179.78 127.05 180.06 127.05L182.74 126.9C183.1 126.9 183.39 127.19 183.39 127.55C183.39 127.91 183.1 128.2 182.74 128.2L180.06 128.05Z" stroke="#C7C6C5" stroke-width="0.43" stroke-miterlimit="10"/>
<path d="M180.06 128.05C179.79 128.05 179.56 127.83 179.56 127.55C179.56 127.27 179.78 127.05 180.06 127.05L182.74 126.9C183.1 126.9 183.39 127.19 183.39 127.55C183.39 127.91 183.1 128.2 182.74 128.2L180.06 128.05Z" stroke="#C7C6C5" stroke-width="0.43" stroke-linecap="round" stroke-linejoin="round"/>
<path d="M104.32 306.14H54.02V317.19H104.32V306.14Z" stroke="#C7C6C5" stroke-width="0.43" stroke-miterlimit="10"/>
<path d="M104.32 306.14H54.02V317.19H104.32V306.14Z" stroke="#C7C6C5" stroke-width="0.43" stroke-miterlimit="10"/>
<path d="M73.55 311.97L66.64 315.09L66.33 314.4L75.95 308.61V307.9C75.95 307.9 75.98 307.34 76.51 307.34H81.82C82.35 307.34 82.38 307.9 82.38 307.9V308.61L92 314.4L91.69 315.09L84.78 311.97H73.53H73.55Z" stroke="#C7C6C5" stroke-width="0.43" stroke-miterlimit="10"/>
<path d="M73.55 311.97L66.64 315.09L66.33 314.4L75.95 308.61V307.9C75.95 307.9 75.98 307.34 76.51 307.34H81.82C82.35 307.34 82.38 307.9 82.38 307.9V308.61L92 314.4L91.69 315.09L84.78 311.97H73.53H73.55Z" stroke="#C7C6C5" stroke-width="0.43" stroke-miterlimit="10"/>
<path d="M99.52 311.03H58.83V311.97H99.52V311.03Z" stroke="#C7C6C5" stroke-width="0.43" stroke-miterlimit="10"/>
<path d="M99.52 311.03H58.83V311.97H99.52V311.03Z" stroke="#C7C6C5" stroke-width="0.43" stroke-miterlimit="10"/>
<path d="M87.66 311.03C86.57 311.03 86.66 310.06 85.44 310.06H72.91C71.69 310.06 71.79 311.03 70.69 311.03H87.66Z" stroke="#C7C6C5" stroke-width="0.43" stroke-miterlimit="10"/>
<path d="M87.66 311.03C86.57 311.03 86.66 310.06 85.44 310.06H72.91C71.69 310.06 71.79 311.03 70.69 311.03H87.66Z" stroke="#C7C6C5" stroke-width="0.43" stroke-miterlimit="10"/>
<path d="M104.32 288.14H54.02V299.19H104.32V288.14Z" stroke="#C7C6C5" stroke-width="0.43" stroke-miterlimit="10"/>
<path d="M104.32 288.14H54.02V299.19H104.32V288.14Z" stroke="#C7C6C5" stroke-width="0.43" stroke-miterlimit="10"/>
<path d="M84.79 293.36L91.7 290.24L92.01 290.93L82.39 296.72V297.43C82.39 297.43 82.36 297.99 81.83 297.99H76.52C75.99 297.99 75.96 297.43 75.96 297.43V296.72L66.34 290.93L66.65 290.24L73.56 293.36H84.81H84.79Z" stroke="#C7C6C5" stroke-width="0.43" stroke-miterlimit="10"/>
<path d="M84.79 293.36L91.7 290.24L92.01 290.93L82.39 296.72V297.43C82.39 297.43 82.36 297.99 81.83 297.99H76.52C75.99 297.99 75.96 297.43 75.96 297.43V296.72L66.34 290.93L66.65 290.24L73.56 293.36H84.81H84.79Z" stroke="#C7C6C5" stroke-width="0.43" stroke-miterlimit="10"/>
<path d="M99.51 293.36H58.82V294.3H99.51V293.36Z" stroke="#C7C6C5" stroke-width="0.43" stroke-miterlimit="10"/>
<path d="M99.51 293.36H58.82V294.3H99.51V293.36Z" stroke="#C7C6C5" stroke-width="0.43" stroke-miterlimit="10"/>
<path d="M70.68 294.29C71.77 294.29 71.68 295.26 72.9 295.26H85.43C86.65 295.26 86.55 294.29 87.65 294.29H70.68Z" stroke="#C7C6C5" stroke-width="0.43" stroke-miterlimit="10"/>
<path d="M70.68 294.29C71.77 294.29 71.68 295.26 72.9 295.26H85.43C86.65 295.26 86.55 294.29 87.65 294.29H70.68Z" stroke="#C7C6C5" stroke-width="0.43" stroke-miterlimit="10"/>
<path d="M39.89 129.13H56.91C57.29 129.13 57.6 129.44 57.6 129.82V150.33C57.6 150.71 57.29 151.02 56.91 151.02H39.9C39.52 151.02 39.21 150.71 39.21 150.33V129.82C39.21 129.44 39.52 129.13 39.9 129.13H39.89Z" stroke="#C7C6C5" stroke-width="0.43" stroke-miterlimit="10"/>
<path d="M39.89 129.13H56.91C57.29 129.13 57.6 129.44 57.6 129.82V150.33C57.6 150.71 57.29 151.02 56.91 151.02H39.9C39.52 151.02 39.21 150.71 39.21 150.33V129.82C39.21 129.44 39.52 129.13 39.9 129.13H39.89Z" stroke="#C7C6C5" stroke-width="0.43" stroke-miterlimit="10"/>
<path d="M36.11 151.02C35.73 151.02 35.42 150.71 35.42 150.33V129.82C35.42 129.44 35.73 129.13 36.11 129.13H38.51C38.89 129.13 39.2 129.44 39.2 129.82V150.33C39.2 150.71 38.89 151.02 38.51 151.02H36.11Z" stroke="#C7C6C5" stroke-width="0.43" stroke-miterlimit="10"/>
<path d="M36.11 151.02C35.73 151.02 35.42 150.71 35.42 150.33V129.82C35.42 129.44 35.73 129.13 36.11 129.13H38.51C38.89 129.13 39.2 129.44 39.2 129.82V150.33C39.2 150.71 38.89 151.02 38.51 151.02H36.11Z" stroke="#C7C6C5" stroke-width="0.43" stroke-miterlimit="10"/>
<path d="M35.42 128.44V107.94C35.42 107.56 35.73 107.25 36.11 107.25H56.9C57.28 107.25 57.59 107.56 57.59 107.94V110.33C57.59 110.71 57.28 111.02 56.9 111.02H39.19V128.44C39.19 128.82 38.88 129.13 38.5 129.13H36.1C35.72 129.13 35.41 128.82 35.41 128.44" stroke="#C7C6C5" stroke-width="0.43" stroke-miterlimit="10"/>
<path d="M35.42 128.44V107.94C35.42 107.56 35.73 107.25 36.11 107.25H56.9C57.28 107.25 57.59 107.56 57.59 107.94V110.33C57.59 110.71 57.28 111.02 56.9 111.02H39.19V128.44C39.19 128.82 38.88 129.13 38.5 129.13H36.1C35.72 129.13 35.41 128.82 35.41 128.44H35.42Z" stroke="#C7C6C5" stroke-width="0.43" stroke-miterlimit="10"/>
<path d="M33.43 151.01C33.05 151.01 32.74 150.7 32.74 150.32V129.81C32.74 129.43 33.05 129.12 33.43 129.12H34.73C35.11 129.12 35.42 129.43 35.42 129.81V150.32C35.42 150.7 35.11 151.01 34.73 151.01H33.43Z" stroke="#C7C6C5" stroke-width="0.43" stroke-miterlimit="10"/>
<path d="M33.43 151.01C33.05 151.01 32.74 150.7 32.74 150.32V129.81C32.74 129.43 33.05 129.12 33.43 129.12H34.73C35.11 129.12 35.42 129.43 35.42 129.81V150.32C35.42 150.7 35.11 151.01 34.73 151.01H33.43Z" stroke="#C7C6C5" stroke-width="0.43" stroke-miterlimit="10"/>
<path d="M79.48 111.67C79.48 111.29 79.17 110.98 78.79 110.98H58.28C57.9 110.98 57.59 111.29 57.59 111.67V128.44C57.59 128.82 57.9 129.13 58.28 129.13H78.79C79.17 129.13 79.48 128.82 79.48 128.44V111.67Z" stroke="#C7C6C5" stroke-width="0.43" stroke-miterlimit="10"/>
<path d="M79.48 111.67C79.48 111.29 79.17 110.98 78.79 110.98H58.28C57.9 110.98 57.59 111.29 57.59 111.67V128.44C57.59 128.82 57.9 129.13 58.28 129.13H78.79C79.17 129.13 79.48 128.82 79.48 128.44V111.67Z" stroke="#C7C6C5" stroke-width="0.43" stroke-miterlimit="10"/>
<path d="M57.6 107.89C57.6 107.51 57.91 107.2 58.29 107.2H78.8C79.18 107.2 79.49 107.51 79.49 107.89V110.29C79.49 110.67 79.18 110.98 78.8 110.98H58.29C57.91 110.98 57.6 110.67 57.6 110.29V107.89Z" stroke="#C7C6C5" stroke-width="0.43" stroke-miterlimit="10"/>
<path d="M57.6 107.89C57.6 107.51 57.91 107.2 58.29 107.2H78.8C79.18 107.2 79.49 107.51 79.49 107.89V110.29C79.49 110.67 79.18 110.98 78.8 110.98H58.29C57.91 110.98 57.6 110.67 57.6 110.29V107.89Z" stroke="#C7C6C5" stroke-width="0.43" stroke-miterlimit="10"/>
<path d="M57.6 105.09C57.6 104.71 57.91 104.4 58.29 104.4H78.8C79.18 104.4 79.49 104.71 79.49 105.09V106.52C79.49 106.9 79.18 107.21 78.8 107.21H58.29C57.91 107.21 57.6 106.9 57.6 106.52V105.09Z" stroke="#C7C6C5" stroke-width="0.43" stroke-miterlimit="10"/>
<path d="M57.6 105.09C57.6 104.71 57.91 104.4 58.29 104.4H78.8C79.18 104.4 79.49 104.71 79.49 105.09V106.52C79.49 106.9 79.18 107.21 78.8 107.21H58.29C57.91 107.21 57.6 106.9 57.6 106.52V105.09Z" stroke="#C7C6C5" stroke-width="0.43" stroke-miterlimit="10"/>
<path d="M32.74 128.44V105.09C32.74 104.71 33.05 104.4 33.43 104.4H56.9C57.28 104.4 57.59 104.71 57.59 105.09V106.39C57.59 106.77 57.28 107.24 56.9 107.24H35.42V128.44C35.42 128.82 35.11 129.13 34.73 129.13H33.43C33.05 129.13 32.74 128.82 32.74 128.44Z" stroke="#C7C6C5" stroke-width="0.43" stroke-miterlimit="10"/>
<path d="M32.74 128.44V105.09C32.74 104.71 33.05 104.4 33.43 104.4H56.9C57.28 104.4 57.59 104.71 57.59 105.09V106.39C57.59 106.77 57.28 107.24 56.9 107.24H35.42V128.44C35.42 128.82 35.11 129.13 34.73 129.13H33.43C33.05 129.13 32.74 128.82 32.74 128.44Z" stroke="#C7C6C5" stroke-width="0.43" stroke-miterlimit="10"/>
<path d="M39.2 111.02L35.74 107.58" stroke="#C7C6C5" stroke-width="0.43" stroke-miterlimit="10"/>
<path d="M39.89 111.02H56.91C57.29 111.02 57.6 111.33 57.6 111.71V128.44C57.6 128.82 57.29 129.13 56.91 129.13H39.9C39.52 129.13 39.21 128.82 39.21 128.44V111.71C39.21 111.33 39.52 111.02 39.9 111.02H39.89Z" stroke="#C7C6C5" stroke-width="0.43" stroke-miterlimit="10"/>
<path d="M39.89 111.02H56.91C57.29 111.02 57.6 111.33 57.6 111.71V128.44C57.6 128.82 57.29 129.13 56.91 129.13H39.9C39.52 129.13 39.21 128.82 39.21 128.44V111.71C39.21 111.33 39.52 111.02 39.9 111.02H39.89Z" stroke="#C7C6C5" stroke-width="0.43" stroke-miterlimit="10"/>
<path d="M101.66 128.44V107.93C101.66 107.55 101.35 107.24 100.97 107.24H80.18C79.8 107.24 79.49 107.55 79.49 107.93V110.32C79.49 110.7 79.8 111.01 80.18 111.01H97.89V128.43C97.89 128.81 98.2 129.12 98.58 129.12H100.98C101.36 129.12 101.67 128.81 101.67 128.43" stroke="#C7C6C5" stroke-width="0.43" stroke-miterlimit="10"/>
<path d="M101.66 128.44V107.93C101.66 107.55 101.35 107.24 100.97 107.24H80.18C79.8 107.24 79.49 107.55 79.49 107.93V110.32C79.49 110.7 79.8 111.01 80.18 111.01H97.89V128.43C97.89 128.81 98.2 129.12 98.58 129.12H100.98C101.36 129.12 101.67 128.81 101.67 128.43H101.66V128.44Z" stroke="#C7C6C5" stroke-width="0.43" stroke-miterlimit="10"/>
<path d="M104.33 128.44V105.09C104.33 104.71 104.02 104.4 103.64 104.4H80.17C79.79 104.4 79.48 104.71 79.48 105.09V106.39C79.48 106.77 79.79 107.24 80.17 107.24H101.65V128.44C101.65 128.82 101.96 129.13 102.34 129.13H103.64C104.02 129.13 104.33 128.82 104.33 128.44Z" stroke="#C7C6C5" stroke-width="0.43" stroke-miterlimit="10"/>
<path d="M104.33 128.44V105.09C104.33 104.71 104.02 104.4 103.64 104.4H80.17C79.79 104.4 79.48 104.71 79.48 105.09V106.39C79.48 106.77 79.79 107.24 80.17 107.24H101.65V128.44C101.65 128.82 101.96 129.13 102.34 129.13H103.64C104.02 129.13 104.33 128.82 104.33 128.44Z" stroke="#C7C6C5" stroke-width="0.43" stroke-miterlimit="10"/>
<path d="M97.87 111.02L101.33 107.58" stroke="#C7C6C5" stroke-width="0.43" stroke-miterlimit="10"/>
<path d="M80.17 111.02H97.19C97.57 111.02 97.88 111.33 97.88 111.71V128.44C97.88 128.82 97.57 129.13 97.19 129.13H80.18C79.8 129.13 79.49 128.82 79.49 128.44V111.71C79.49 111.33 79.8 111.02 80.18 111.02H80.17Z" stroke="#C7C6C5" stroke-width="0.43" stroke-miterlimit="10"/>
<path d="M80.17 111.02H97.19C97.57 111.02 97.88 111.33 97.88 111.71V128.44C97.88 128.82 97.57 129.13 97.19 129.13H80.18C79.8 129.13 79.49 128.82 79.49 128.44V111.71C79.49 111.33 79.8 111.02 80.18 111.02H80.17Z" stroke="#C7C6C5" stroke-width="0.43" stroke-miterlimit="10"/>
<path d="M93.37 98.41C98.56 98.41 102.57 91.3 103.56 86.93C104.55 82.56 101 78.27 93.37 78.27C85.74 78.27 82.2 82.56 83.18 86.93C84.17 91.3 88.18 98.41 93.37 98.41Z" stroke="#C7C6C5" stroke-width="0.43" stroke-miterlimit="10"/>
<path d="M100.01 88.3398C98.51 89.3298 98.18 91.3298 98.18 91.3298C98.18 91.3298 96.81 91.7499 95.81 93.1599C95.81 93.1599 94.35 92.8998 93.37 92.8998C92.39 92.8998 90.93 93.1599 90.93 93.1599C89.93 91.7399 88.56 91.3298 88.56 91.3298C88.56 91.3298 88.23 89.3298 86.73 88.3398" stroke="#C7C6C5" stroke-width="0.43" stroke-miterlimit="10"/>
<path d="M145.11 368.36C139.72 368.36 135.33 363.98 135.33 358.58C135.33 353.18 139.72 348.8 145.11 348.8H174.37C179.76 348.8 184.15 353.19 184.15 358.58C184.15 363.97 179.76 368.36 174.37 368.36H145.11Z" stroke="#C7C6C5" stroke-width="0.43" stroke-linecap="round" stroke-linejoin="round"/>
<path d="M145.35 366.52C140.98 366.52 137.42 362.96 137.42 358.59C137.42 354.22 140.98 350.66 145.35 350.66H174.38C178.75 350.66 182.31 354.22 182.31 358.59C182.31 362.96 178.75 366.52 174.38 366.52H145.35Z" stroke="#C7C6C5" stroke-width="0.43" stroke-linecap="round" stroke-linejoin="round"/>
<path d="M176.85 358.59C176.85 360.52 175.28 362.09 173.35 362.09H147.56C145.63 362.09 144.06 360.52 144.06 358.59C144.06 356.66 145.63 355.09 147.56 355.09H173.35C175.28 355.09 176.85 356.66 176.85 358.59Z" stroke="#C7C6C5" stroke-width="0.43" stroke-linecap="round" stroke-linejoin="round"/>
<path d="M161.36 351.52C161.36 351.76 160.95 351.96 160.45 351.96C159.95 351.96 159.54 351.76 159.54 351.52C159.54 351.28 159.95 351.08 160.45 351.08C160.95 351.08 161.36 351.28 161.36 351.52Z" stroke="#C7C6C5" stroke-width="0.43" stroke-linecap="round" stroke-linejoin="round"/>
<path d="M184.55 185.92H135.23V204.92H184.55V185.92Z" stroke="#C7C6C5" stroke-width="0.43" stroke-linecap="round" stroke-linejoin="round"/>
<path d="M160.98 192.24C160.98 191.04 159.21 191.06 159.21 192.24C159.21 193.12 160.09 192.88 160.09 193.68" stroke="#C7C6C5" stroke-width="0.43" stroke-linecap="round" stroke-linejoin="round"/>
<path d="M160.1 193.68L166.05 195.68C166.05 195.68 166.6 195.89 166.52 196.49C166.44 197.09 165.88 197.02 165.88 197.02H154.33C154.33 197.02 153.77 197.09 153.69 196.49C153.61 195.89 154.16 195.68 154.16 195.68L160.11 193.68H160.1Z" stroke="#C7C6C5" stroke-width="0.43" stroke-linecap="round" stroke-linejoin="round"/>
<path d="M167.38 196.46H183.64" stroke="#C7C6C5" stroke-width="0.43" stroke-linecap="round" stroke-linejoin="round"/>
<path d="M136.13 196.46H152.51" stroke="#C7C6C5" stroke-width="0.43" stroke-linecap="round" stroke-linejoin="round"/>
<path d="M133.18 7.58008H86.23V24.5001H133.18V7.58008Z" stroke="#C7C6C5" stroke-width="0.43" stroke-linecap="round" stroke-linejoin="round"/>
<path d="M110.73 11.8203C110.73 10.6203 108.96 10.6403 108.96 11.8203C108.96 12.7003 109.84 12.4603 109.84 13.2603" stroke="#C7C6C5" stroke-width="0.43" stroke-linecap="round" stroke-linejoin="round"/>
<path d="M109.85 13.2603L115.8 15.2603C115.8 15.2603 116.35 15.4703 116.27 16.0703C116.19 16.6703 115.63 16.6003 115.63 16.6003H104.08C104.08 16.6003 103.52 16.6703 103.44 16.0703C103.36 15.4703 103.91 15.2603 103.91 15.2603L109.86 13.2603H109.85Z" stroke="#C7C6C5" stroke-width="0.43" stroke-linecap="round" stroke-linejoin="round"/>
<path d="M118.55 16.04H131.95" stroke="#C7C6C5" stroke-width="0.43" stroke-linecap="round" stroke-linejoin="round"/>
<path d="M87.04 16.04H100.86" stroke="#C7C6C5" stroke-width="0.43" stroke-linecap="round" stroke-linejoin="round"/>
<path d="M149.47 274.5H135.35V292.12H149.47V274.5Z" stroke="#C7C6C5" stroke-width="0.43" stroke-miterlimit="10"/>
<path d="M184.54 242.06H166.92V292.12H184.54V242.06Z" stroke="#C7C6C5" stroke-width="0.43" stroke-miterlimit="10"/>
<path d="M166.93 274.5H149.47V292.12H166.93V274.5Z" stroke="#C7C6C5" stroke-width="0.43" stroke-miterlimit="10"/>
<path d="M153.98 290C155.427 290 156.6 288.827 156.6 287.38C156.6 285.933 155.427 284.76 153.98 284.76C152.533 284.76 151.36 285.933 151.36 287.38C151.36 288.827 152.533 290 153.98 290Z" stroke="#C7C6C5" stroke-width="0.43" stroke-miterlimit="10"/>
<path d="M153.98 281.4C155.427 281.4 156.6 280.227 156.6 278.78C156.6 277.333 155.427 276.16 153.98 276.16C152.533 276.16 151.36 277.333 151.36 278.78C151.36 280.227 152.533 281.4 153.98 281.4Z" stroke="#C7C6C5" stroke-width="0.43" stroke-miterlimit="10"/>
<path d="M161.87 290C163.317 290 164.49 288.827 164.49 287.38C164.49 285.933 163.317 284.76 161.87 284.76C160.423 284.76 159.25 285.933 159.25 287.38C159.25 288.827 160.423 290 161.87 290Z" stroke="#C7C6C5" stroke-width="0.43" stroke-miterlimit="10"/>
<path d="M161.87 281.4C163.317 281.4 164.49 280.227 164.49 278.78C164.49 277.333 163.317 276.16 161.87 276.16C160.423 276.16 159.25 277.333 159.25 278.78C159.25 280.227 160.423 281.4 161.87 281.4Z" stroke="#C7C6C5" stroke-width="0.43" stroke-miterlimit="10"/>
<path d="M184.54 225.04H166.92V242.66H184.54V225.04Z" stroke="#C7C6C5" stroke-width="0.43" stroke-miterlimit="10"/>
<path d="M184.54 225.04H166.92V242.66H184.54V225.04Z" stroke="#C7C6C5" stroke-width="0.43" stroke-miterlimit="10"/>
<path d="M168.45 228.17C168.45 227.27 169.18 226.55 170.07 226.55H181.39C182.29 226.55 183.01 227.28 183.01 228.17V239.54C183.01 240.44 182.28 241.16 181.39 241.16H170.07C169.17 241.16 168.45 240.43 168.45 239.54V228.17Z" stroke="#C7C6C5" stroke-width="0.43" stroke-miterlimit="10"/>
<path d="M168.45 228.17C168.45 227.27 169.18 226.55 170.07 226.55H181.39C182.29 226.55 183.01 227.28 183.01 228.17V239.54C183.01 240.44 182.28 241.16 181.39 241.16H170.07C169.17 241.16 168.45 240.43 168.45 239.54V228.17Z" stroke="#C7C6C5" stroke-width="0.43" stroke-miterlimit="10"/>
<path d="M179.87 238.93C179.87 238.41 180.29 237.98 180.82 237.98C181.35 237.98 181.77 238.4 181.77 238.93C181.77 239.46 181.35 239.88 180.82 239.88C180.29 239.88 179.87 239.46 179.87 238.93Z" stroke="#C7C6C5" stroke-width="0.43" stroke-miterlimit="10"/>
<path d="M183.61 233.14H178.23V234.57H183.61V233.14Z" stroke="#C7C6C5" stroke-width="0.43" stroke-miterlimit="10"/>
<path d="M184.54 207.43H154.14V225.05H184.54V207.43Z" stroke="#C7C6C5" stroke-width="0.43" stroke-miterlimit="10"/>
<path d="M154.15 207.43H135.35V225.05H154.15V207.43Z" stroke="#C7C6C5" stroke-width="0.43" stroke-miterlimit="10"/>
<path d="M143.18 215.09L145.97 217.88" stroke="#C7C6C5" stroke-width="0.43" stroke-miterlimit="10" stroke-linecap="round"/>
<path d="M143.18 217.88L145.97 215.09" stroke="#C7C6C5" stroke-width="0.43" stroke-miterlimit="10" stroke-linecap="round"/>
<path d="M144.57 219.77V213.2" stroke="#C7C6C5" stroke-width="0.43" stroke-miterlimit="10" stroke-linecap="round"/>
<path d="M147.86 216.49H141.29" stroke="#C7C6C5" stroke-width="0.43" stroke-miterlimit="10" stroke-linecap="round"/>
<path d="M184.62 73.1201H170.81V95.7601H184.62V73.1201Z" stroke="#C7C6C5" stroke-width="0.43" stroke-linecap="round" stroke-linejoin="round"/>
<path d="M182.51 84.6999C182.51 87.3499 180.36 89.4999 177.71 89.4999C175.06 89.4999 172.92 87.3499 172.92 84.6999C172.92 82.0499 175.07 79.8999 177.71 79.8999C180.35 79.8999 182.51 82.0499 182.51 84.6999Z" stroke="#C7C6C5" stroke-width="0.43" stroke-linecap="round" stroke-linejoin="round"/>
<path d="M182.51 84.6998C182.51 82.2398 180.52 80.8198 178.06 80.8198C176.09 80.8198 174.5 82.4198 174.5 84.3798C174.5 85.9498 175.77 87.2298 177.35 87.2298C178.61 87.2298 179.63 86.2098 179.63 84.9498C179.63 83.9398 178.81 83.1298 177.81 83.1298C177 83.1298 176.35 83.7798 176.35 84.5898C176.35 85.2298 176.87 85.7598 177.52 85.7598C178.04 85.7598 178.45 85.3398 178.45 84.8298C178.45 84.4198 178.12 84.0798 177.7 84.0798C177.37 84.0798 177.1 84.3498 177.1 84.6798C177.1 84.9398 177.31 85.1598 177.58 85.1598" stroke="#C7C6C5" stroke-width="0.43" stroke-linecap="round" stroke-linejoin="round"/>
<path d="M178.39 84.6998C178.39 84.3298 178.09 84.0298 177.72 84.0298C177.35 84.0298 177.05 84.3298 177.05 84.6998C177.05 85.0698 177.35 85.3698 177.72 85.3698C178.09 85.3698 178.39 85.0698 178.39 84.6998Z" fill="#144E30"/>
<path d="M115.23 395.37H104.79C104.398 395.37 104.08 395.688 104.08 396.08V406.52C104.08 406.912 104.398 407.23 104.79 407.23H115.23C115.622 407.23 115.94 406.912 115.94 406.52V396.08C115.94 395.688 115.622 395.37 115.23 395.37Z" stroke="#C7C6C5" stroke-width="0.43" stroke-linecap="round" stroke-linejoin="round"/>
<path d="M58.91 395.37H48.47C48.0779 395.37 47.76 395.688 47.76 396.08V406.52C47.76 406.912 48.0779 407.23 48.47 407.23H58.91C59.3021 407.23 59.62 406.912 59.62 406.52V396.08C59.62 395.688 59.3021 395.37 58.91 395.37Z" stroke="#C7C6C5" stroke-width="0.43" stroke-linecap="round" stroke-linejoin="round"/>
<path d="M103.17 405.38C103.17 405.38 103.2 406.51 102.04 406.51H61.68C60.5 406.51 60.55 405.38 60.55 405.38V355.43C60.55 355.43 60.52 354.3 61.68 354.3H102.04C103.22 354.3 103.17 355.43 103.17 355.43V405.38Z" stroke="#C7C6C5" stroke-width="0.43" stroke-miterlimit="10"/>
<path d="M99.92 392.95H83.67C83.1343 392.95 82.7 393.384 82.7 393.92V403.73C82.7 404.265 83.1343 404.7 83.67 404.7H99.92C100.456 404.7 100.89 404.265 100.89 403.73V393.92C100.89 393.384 100.456 392.95 99.92 392.95Z" stroke="#C7C6C5" stroke-width="0.43" stroke-miterlimit="10"/>
<path d="M80.0301 392.95H63.7801C63.2443 392.95 62.8101 393.384 62.8101 393.92V403.73C62.8101 404.265 63.2443 404.7 63.7801 404.7H80.0301C80.5658 404.7 81.0001 404.265 81.0001 403.73V393.92C81.0001 393.384 80.5658 392.95 80.0301 392.95Z" stroke="#C7C6C5" stroke-width="0.43" stroke-miterlimit="10"/>
<path d="M103.17 391.79H60.54" stroke="#C7C6C5" stroke-width="0.43" stroke-miterlimit="10"/>
<path d="M60.54 401.13C61.26 401.13 61.25 401.98 61.25 401.98V405.38C61.25 405.47 61.27 405.63 61.35 405.72C61.42 405.79 61.56 405.81 61.67 405.81H102.03C102.18 405.81 102.28 405.78 102.34 405.72C102.43 405.62 102.45 405.42 102.45 405.4V401.99C102.45 401.99 102.42 401.14 103.16 401.14C103.9 401.14 103.87 401.99 103.87 401.99V405.38C103.87 405.51 103.85 405.92 103.63 406.33C103.32 406.91 102.75 407.22 102.03 407.22H61.67C60.97 407.22 60.55 406.93 60.32 406.69C59.81 406.15 59.82 405.42 59.83 405.34V401.97C59.83 401.97 59.81 401.12 60.54 401.12V401.13Z" stroke="#C7C6C5" stroke-width="0.43" stroke-miterlimit="10"/>
<path d="M103.17 401.98V405.38C103.17 405.38 103.2 406.51 102.04 406.51H61.68C60.5 406.51 60.55 405.38 60.55 405.38V401.98" stroke="#C7C6C5" stroke-width="0.43" stroke-miterlimit="10" stroke-linecap="round"/>
<path d="M35.1399 36.7399C35.1399 36.7399 34.0099 36.7699 34.0099 35.6099V9.41986C34.0099 8.23986 35.1399 8.28986 35.1399 8.28986H85.0899C85.0899 8.28986 86.22 8.25986 86.22 9.41986V35.6099C86.22 36.7899 85.0899 36.7399 85.0899 36.7399H35.1399Z" stroke="#C7C6C5" stroke-width="0.43" stroke-miterlimit="10"/>
<path d="M46.5999 13.4199H36.7899C36.2542 13.4199 35.8199 13.8542 35.8199 14.3899V30.6399C35.8199 31.1756 36.2542 31.6099 36.7899 31.6099H46.5999C47.1357 31.6099 47.5699 31.1756 47.5699 30.6399V14.3899C47.5699 13.8542 47.1357 13.4199 46.5999 13.4199Z" stroke="#C7C6C5" stroke-width="0.43" stroke-miterlimit="10"/>
<path d="M48.73 36.74V8.29004" stroke="#C7C6C5" stroke-width="0.43" stroke-miterlimit="10"/>
<path d="M39.39 8.29C39.39 9.01 38.54 9 38.54 9H35.14C35.05 9 34.89 9.02 34.8 9.11C34.73 9.18 34.71 9.32 34.71 9.43V35.62C34.71 35.77 34.74 35.87 34.8 35.93C34.9 36.02 35.1 36.05 35.12 36.05H38.53C38.53 36.05 39.38 36.02 39.38 36.76C39.38 37.5 38.53 37.47 38.53 37.47H35.12C35 37.47 34.59 37.45 34.18 37.23C33.6 36.92 33.29 36.35 33.29 35.63V9.44C33.29 8.74 33.58 8.32 33.82 8.09C34.36 7.57 35.09 7.59 35.17 7.6H38.54C38.54 7.6 39.39 7.58 39.39 8.31V8.29Z" stroke="#C7C6C5" stroke-width="0.43" stroke-miterlimit="10"/>
<path d="M38.54 36.7399H35.1399C35.1399 36.7399 34.0099 36.7699 34.0099 35.6099V9.41986C34.0099 8.23986 35.1399 8.28986 35.1399 8.28986H38.54" stroke="#C7C6C5" stroke-width="0.43" stroke-miterlimit="10" stroke-linecap="round"/>
<path d="M162.83 101.56C162.83 99.1802 164.68 99.1802 165.21 99.1802H180.05C180.58 99.1802 181.02 99.6102 181.02 100.15V109.97C181.02 110.5 180.59 110.94 180.05 110.94H165.21C164.68 110.94 162.83 110.94 162.83 108.56V101.57V101.56Z" stroke="#C7C6C5" stroke-width="0.43" stroke-miterlimit="10"/>
<path d="M177.33 101.16H165.85C165.336 101.16 164.92 101.577 164.92 102.09V108.02C164.92 108.534 165.336 108.95 165.85 108.95H177.33C177.844 108.95 178.26 108.534 178.26 108.02V102.09C178.26 101.577 177.844 101.16 177.33 101.16Z" stroke="#C7C6C5" stroke-width="0.43" stroke-miterlimit="10"/>
<path d="M178.26 106.58C177.41 106.58 176.73 105.89 176.73 105.05C176.73 104.21 177.42 103.52 178.26 103.52" stroke="#C7C6C5" stroke-width="0.43" stroke-miterlimit="10"/>
<path d="M145.57 324.19C143.19 324.19 143.19 322.34 143.19 321.81V306.97C143.19 306.44 143.62 306.01 144.16 306.01H153.98C154.51 306.01 154.95 306.44 154.95 306.97V321.81C154.95 322.34 154.95 324.19 152.57 324.19H145.57Z" stroke="#C7C6C5" stroke-width="0.43" stroke-miterlimit="10"/>
<path d="M146.1 308.76H152.03C152.54 308.76 152.96 309.17 152.96 309.69V321.18C152.96 321.69 152.55 322.11 152.03 322.11H146.1C145.59 322.11 145.17 321.69 145.17 321.18V309.69C145.17 309.18 145.58 308.76 146.1 308.76Z" stroke="#C7C6C5" stroke-width="0.43" stroke-miterlimit="10"/>
<path d="M150.6 308.76C150.6 309.61 149.91 310.29 149.07 310.29C148.23 310.29 147.54 309.6 147.54 308.76" stroke="#C7C6C5" stroke-width="0.43" stroke-miterlimit="10"/>
<path d="M81.35 225.1C81.35 225.1 80.66 224.2 80.66 223.6C80.66 223.21 81.41 222.04 86.55 222.04C91.69 222.04 92.44 223.21 92.44 223.6C92.44 224.43 91.75 225.09 91.75 225.09" stroke="#C7C6C5" stroke-width="0.43" stroke-miterlimit="10"/>
<path d="M92.43 234.23C92.43 234.62 92.11 234.94 91.72 234.94H81.36C80.97 234.94 80.65 234.62 80.65 234.23V225.87C80.65 225.48 81.4 224.31 86.54 224.31C91.68 224.31 92.43 225.48 92.43 225.87V234.24V234.23Z" stroke="#C7C6C5" stroke-width="0.43" stroke-miterlimit="10"/>
<path d="M100.27 235.52C100.27 235.52 101.17 234.83 101.77 234.83C102.16 234.83 103.33 235.58 103.33 240.72C103.33 245.86 102.16 246.61 101.77 246.61C100.94 246.61 100.28 245.92 100.28 245.92" stroke="#C7C6C5" stroke-width="0.43" stroke-miterlimit="10"/>
<path d="M91.13 246.61C90.74 246.61 90.42 246.29 90.42 245.9V235.54C90.42 235.15 90.74 234.83 91.13 234.83H99.49C99.88 234.83 101.05 235.58 101.05 240.72C101.05 245.86 99.88 246.61 99.49 246.61H91.12H91.13Z" stroke="#C7C6C5" stroke-width="0.43" stroke-miterlimit="10"/>
<path d="M53 240.14C53 240.14 51.88 240.29 51.46 240.71C51.18 240.99 50.89 242.34 54.52 245.98C58.15 249.62 59.51 249.32 59.79 249.04C60.38 248.45 60.36 247.5 60.36 247.5" stroke="#C7C6C5" stroke-width="0.43" stroke-miterlimit="10"/>
<path d="M67.3 241.53C67.58 241.25 67.58 240.81 67.3 240.53L59.97 233.2C59.69 232.92 59.24 232.92 58.97 233.2L53.06 239.11C52.78 239.39 52.49 240.74 56.12 244.38C59.75 248.02 61.11 247.72 61.39 247.44L67.3 241.52V241.53Z" stroke="#C7C6C5" stroke-width="0.43" stroke-miterlimit="10"/>
<path d="M66.73 225.1C66.73 225.1 66.04 224.2 66.04 223.6C66.04 223.21 66.79 222.04 71.93 222.04C77.07 222.04 77.82 223.21 77.82 223.6C77.82 224.43 77.13 225.09 77.13 225.09" stroke="#C7C6C5" stroke-width="0.43" stroke-miterlimit="10"/>
<path d="M77.81 234.23C77.81 234.62 77.49 234.94 77.1 234.94H66.74C66.35 234.94 66.03 234.62 66.03 234.23V225.87C66.03 225.48 66.78 224.31 71.92 224.31C77.06 224.31 77.81 225.48 77.81 225.87V234.24V234.23Z" stroke="#C7C6C5" stroke-width="0.43" stroke-miterlimit="10"/>
<path d="M81.35 256.46C81.35 256.46 80.66 257.36 80.66 257.96C80.66 258.35 81.41 259.52 86.55 259.52C91.69 259.52 92.44 258.35 92.44 257.96C92.44 257.13 91.75 256.47 91.75 256.47" stroke="#C7C6C5" stroke-width="0.43" stroke-miterlimit="10"/>
<path d="M92.43 247.32C92.43 246.93 92.11 246.61 91.72 246.61H81.36C80.97 246.61 80.65 246.93 80.65 247.32V255.68C80.65 256.07 81.4 257.24 86.54 257.24C91.68 257.24 92.43 256.07 92.43 255.68V247.31V247.32Z" stroke="#C7C6C5" stroke-width="0.43" stroke-miterlimit="10"/>
<path d="M66.73 256.46C66.73 256.46 66.04 257.36 66.04 257.96C66.04 258.35 66.79 259.52 71.93 259.52C77.07 259.52 77.82 258.35 77.82 257.96C77.82 257.13 77.13 256.47 77.13 256.47" stroke="#C7C6C5" stroke-width="0.43" stroke-miterlimit="10"/>
<path d="M77.81 247.32C77.81 246.93 77.49 246.61 77.1 246.61H66.74C66.35 246.61 66.03 246.93 66.03 247.32V255.68C66.03 256.07 66.78 257.24 71.92 257.24C77.06 257.24 77.81 256.07 77.81 255.68V247.31V247.32Z" stroke="#C7C6C5" stroke-width="0.43" stroke-miterlimit="10"/>
<path d="M96.07 229.45H62.42V251.98H96.07V229.45Z" stroke="#C7C6C5" stroke-width="0.43" stroke-miterlimit="10"/>
<path d="M143.69 80.5801C144.15 80.5801 144.52 80.9501 144.52 81.4201C144.52 81.8901 144.15 82.2501 143.69 82.2501C143.23 82.2501 142.86 81.8801 142.86 81.4201C142.86 80.9601 143.23 80.5801 143.69 80.5801Z" stroke="#C7C6C5" stroke-width="0.43" stroke-linecap="round" stroke-linejoin="round"/>
<path d="M158.77 89.2202V72.9902H135.35V96.4002H151.63C158.63 96.4002 158.76 89.2202 158.76 89.2202H158.77Z" stroke="#C7C6C5" stroke-width="0.43" stroke-linecap="round" stroke-linejoin="round"/>
<path d="M155.67 75.8701V89.2201C155.65 89.8801 155.38 93.2901 151.65 93.2901H138.17" stroke="#C7C6C5" stroke-width="0.43" stroke-linecap="round" stroke-linejoin="round"/>
<path d="M156.83 74.5703C156.44 74.5503 156.05 74.5303 155.66 74.5303C145.31 74.5303 136.91 82.9203 136.91 93.2803C136.91 93.6703 136.92 94.0603 136.95 94.4503H151.64C156.56 94.4503 156.82 89.7303 156.83 89.2203V74.5803V74.5703Z" stroke="#C7C6C5" stroke-width="0.43" stroke-linecap="round" stroke-linejoin="round"/>
<path d="M137.33 89.3203C138.08 89.8703 138.57 90.7703 138.57 91.7703C138.57 92.9203 137.93 93.9303 136.98 94.4503" stroke="#C7C6C5" stroke-width="0.43" stroke-linecap="round" stroke-linejoin="round"/>
<path d="M156.8 74.5703C156.32 75.6103 155.26 76.3403 154.04 76.3403C152.99 76.3403 152.07 75.8103 151.52 75.0003" stroke="#C7C6C5" stroke-width="0.43" stroke-linecap="round" stroke-linejoin="round"/>
<path d="M143.33 82.1602C142.07 83.3202 140.58 84.2402 138.93 84.8202" stroke="#C7C6C5" stroke-width="0.43" stroke-linecap="round" stroke-linejoin="round"/>
<path d="M146.83 76.7402C146.31 78.3202 145.49 79.7702 144.43 81.0202" stroke="#C7C6C5" stroke-width="0.43" stroke-linecap="round" stroke-linejoin="round"/>
<path d="M143.33 79.1602C144.54 81.3302 145.14 82.0302 144.87 82.4302C144.6 82.8302 143.74 82.4001 141.48 81.0201" stroke="#C7C6C5" stroke-width="0.43" stroke-linecap="round" stroke-linejoin="round"/>
<path d="M78.98 139.99C81.17 142.91 80.57 147.06 77.65 149.24C74.73 151.43 70.58 150.83 68.4 147.91C66.21 144.99 66.81 140.84 69.73 138.66C72.65 136.47 76.8 137.07 78.98 139.99Z" stroke="#C7C6C5" stroke-width="0.43" stroke-miterlimit="10"/>
<path d="M90.85 138.81C93.63 142.53 92.88 147.8 89.16 150.59C85.44 153.37 80.17 152.62 77.38 148.9C74.6 145.18 75.35 139.91 79.07 137.12C82.79 134.33 88.06 135.09 90.85 138.81Z" stroke="#C7C6C5" stroke-width="0.43" stroke-miterlimit="10"/>
<path d="M172.45 310.32H183.67C184.06 310.32 184.38 310.64 184.38 311.03V343.79C184.38 344.18 184.06 344.5 183.67 344.5H172.45C172.06 344.5 171.74 344.18 171.74 343.79V311.03C171.74 310.64 172.06 310.32 172.45 310.32Z" stroke="#C7C6C5" stroke-width="0.43" stroke-linecap="round" stroke-linejoin="round"/>
<path d="M178.06 312.03C180.72 312.03 182.88 315.27 182.88 319.27C182.88 323.27 180.72 326.52 178.06 326.52C175.4 326.52 173.24 323.28 173.24 319.27C173.24 315.26 175.4 312.03 178.06 312.03Z" stroke="#C7C6C5" stroke-width="0.43" stroke-linecap="round" stroke-linejoin="round"/>
<path d="M178.06 327.93C180.72 327.93 182.88 331.17 182.88 335.17C182.88 339.17 180.72 342.42 178.06 342.42C175.4 342.42 173.24 339.18 173.24 335.17C173.24 331.16 175.4 327.93 178.06 327.93Z" stroke="#C7C6C5" stroke-width="0.43" stroke-linecap="round" stroke-linejoin="round"/>
<path d="M183.04 321.89C183.46 321.89 183.79 322.23 183.79 322.64C183.79 323.05 183.45 323.39 183.04 323.39C182.63 323.39 182.29 323.05 182.29 322.64C182.29 322.23 182.63 321.89 183.04 321.89Z" stroke="#C7C6C5" stroke-width="0.43" stroke-linecap="round" stroke-linejoin="round"/>
<path d="M183.04 315.59C183.46 315.59 183.79 315.93 183.79 316.34C183.79 316.75 183.45 317.1 183.04 317.1C182.63 317.1 182.29 316.76 182.29 316.34C182.29 315.92 182.63 315.59 183.04 315.59Z" stroke="#C7C6C5" stroke-width="0.43" stroke-linecap="round" stroke-linejoin="round"/>
<path d="M179.18 318.95C178.94 318.95 178.75 319.14 178.75 319.38C178.75 319.62 178.94 319.81 179.18 319.81L183.15 319.99C183.46 319.99 183.72 319.74 183.72 319.43C183.72 319.12 183.47 318.86 183.16 318.86L179.19 318.95H179.18Z" stroke="#C7C6C5" stroke-width="0.43" stroke-linecap="round" stroke-linejoin="round"/>
<path d="M183.04 339.07C183.454 339.07 183.79 338.734 183.79 338.32C183.79 337.906 183.454 337.57 183.04 337.57C182.626 337.57 182.29 337.906 182.29 338.32C182.29 338.734 182.626 339.07 183.04 339.07Z" stroke="#C7C6C5" stroke-width="0.43" stroke-linecap="round" stroke-linejoin="round"/>
<path d="M183.04 331.26C183.46 331.26 183.79 331.6 183.79 332.01C183.79 332.42 183.45 332.77 183.04 332.77C182.63 332.77 182.29 332.43 182.29 332.01C182.29 331.59 182.63 331.26 183.04 331.26Z" stroke="#C7C6C5" stroke-width="0.43" stroke-linecap="round" stroke-linejoin="round"/>
<path d="M179.18 334.62C178.94 334.62 178.75 334.81 178.75 335.05C178.75 335.29 178.94 335.48 179.18 335.48L183.15 335.66C183.46 335.66 183.72 335.41 183.72 335.1C183.72 334.79 183.47 334.53 183.16 334.53L179.19 334.62H179.18Z" stroke="#C7C6C5" stroke-width="0.43" stroke-linecap="round" stroke-linejoin="round"/>
<path d="M25.67 0.5H22.91V22.57H25.67V0.5Z" fill="#511F19"/>
<path d="M32.75 0.5H25.67V20.77H32.75V0.5Z" fill="#511F19"/>
<path d="M25.67 88.3398H22.91V145H25.67V88.3398Z" fill="#511F19"/>
<path d="M32.75 90.1499H25.67V143.2H32.75V90.1499Z" fill="#511F19"/>
<path d="M25.67 189.98H22.91V224.66H25.67V189.98Z" fill="#511F19"/>
<path d="M32.75 191.79H25.67V222.87H32.75V191.79Z" fill="#511F19"/>
<path d="M25.67 269.63H22.91V326.36H25.67V269.63Z" fill="#511F19"/>
<path d="M32.75 271.44H25.67V324.56H32.75V271.44Z" fill="#511F19"/>
<path d="M25.67 392.78H22.91V414.14H25.67V392.78Z" fill="#511F19"/>
<path d="M32.75 394.58H25.67V414.14H32.75V394.58Z" fill="#511F19"/>
<path d="M25.67 22.5698V88.3398" stroke="#511F19" stroke-width="0.43" stroke-miterlimit="10"/>
<path d="M29.26 20.77V90.15" stroke="#511F19" stroke-width="0.43" stroke-miterlimit="10"/>
<path d="M32.74 20.77V90.15" stroke="#511F19" stroke-width="0.43" stroke-miterlimit="10"/>
<path d="M25.67 326.35V392.79" stroke="#511F19" stroke-width="0.43" stroke-miterlimit="10"/>
<path d="M29.26 324.56V394.58" stroke="#511F19" stroke-width="0.43" stroke-miterlimit="10"/>
<path d="M32.74 324.56V394.58" stroke="#511F19" stroke-width="0.43" stroke-miterlimit="10"/>
<path d="M25.67 224.65V269.63" stroke="#511F19" stroke-width="0.43" stroke-miterlimit="10"/>
<path d="M29.26 222.86V271.44" stroke="#511F19" stroke-width="0.43" stroke-miterlimit="10"/>
<path d="M32.74 222.86V271.44" stroke="#511F19" stroke-width="0.43" stroke-miterlimit="10"/>
<path d="M104.63 304H30.47V306.14H104.63V304Z" fill="#511F19"/>
<path d="M91.96 299.19H60.94V305.32H91.96V299.19Z" fill="#511F19"/>
<path d="M135.51 407.16H30.47V414.14H135.51V407.16Z" fill="#511F19"/>
<path d="M129.94 0.5H124.3V7.58H129.94V0.5Z" fill="#511F19"/>
<path d="M191.61 0.5H123.75V7.58H191.61V0.5Z" fill="#511F19"/>
<path d="M127.12 0.5H25V7.58H127.12V0.5Z" fill="#511F19"/>
<path d="M135.32 6.08008H133.18V27.3801H135.32V6.08008Z" fill="#511F19"/>
<path d="M135.32 50.3198H133.18V142.94H135.32V50.3198Z" fill="#511F19"/>
<path d="M138.22 140.66H133.18V142.94H138.22V140.66Z" fill="#511F19"/>
<path d="M187.72 140.66H161.13V142.94H187.72V140.66Z" fill="#511F19"/>
<path d="M187.72 205.14H133.56V207.42H187.72V205.14Z" fill="#511F19"/>
<path d="M187.72 303.93H130.3V306.21H187.72V303.93Z" fill="#511F19"/>
<path d="M187.25 292.12H134.26V304.77H187.25V292.12Z" fill="#511F19"/>
<path d="M187.25 368.38H134.26V375.62H187.25V368.38Z" fill="#511F19"/>
<path d="M134.43 102.14H130.3V104.39H134.43V102.14Z" fill="#511F19"/>
<path d="M104.59 102.14H24.54V104.39H104.59V102.14Z" fill="#511F19"/>
<path d="M188.6 58.8198H134.1V72.9798H188.6V58.8198Z" fill="#511F19"/>
<path d="M191.61 0.5H184.54V154.82H191.61V0.5Z" fill="#511F19"/>
<path d="M191.61 185.92H184.54V375.62H191.61V185.92Z" fill="#511F19"/>
<path d="M189.59 95.7798H181.18V114.56H189.59V95.7798Z" fill="#511F19"/>
<path d="M191.63 154.29H189.35V156.26H191.63V154.29Z" fill="#511F19"/>
<path d="M191.63 184.48H189.35V186.45H191.63V184.48Z" fill="#511F19"/>
<path d="M135.34 185.3H133.18V195.17H135.34V185.3Z" fill="#511F19"/>
<path d="M135.34 272.28H133.18V320.54H135.34V272.28Z" fill="#511F19"/>
<path d="M135.34 343.48H133.18V373.69H135.34V343.48Z" fill="#511F19"/>
<path d="M135.34 191.78H128.38V227.06H135.34V191.78Z" fill="#511F19"/>
<path d="M140.13 370.15H133.18V414.15H140.13V370.15Z" fill="#511F19"/>
<path d="M104.6 102.92L125.97 92.3901" stroke="#511F19" stroke-width="0.85" stroke-miterlimit="10"/>
<path d="M138.23 142.54L159.58 153.06" stroke="#511F19" stroke-width="0.85" stroke-miterlimit="10"/>
<path d="M108.93 314.45L130.3 303.93" stroke="#511F19" stroke-width="0.85" stroke-miterlimit="10"/>
<path d="M133.18 343.48L122.66 322.12" stroke="#511F19" stroke-width="0.85" stroke-miterlimit="10"/>
<path d="M22.91 194.7H0.219971V107.1H22.91" stroke="#511F19" stroke-width="0.43" stroke-miterlimit="10"/>
<path d="M22.91 109.14H2.25V192.66H22.91" stroke="#511F19" stroke-width="0.43" stroke-miterlimit="10"/>
<path d="M25.67 144.99V169.24H32.74V143.19" stroke="#511F19" stroke-width="0.43" stroke-miterlimit="10"/>
<path d="M29.2 143.2V169.24" stroke="#511F19" stroke-width="0.43" stroke-miterlimit="10"/>
<path d="M29.98 169.25H28.44V171.04H29.98V169.25Z" fill="#511F19"/>
<path d="M29.98 190.01H28.44V191.8H29.98V190.01Z" fill="#511F19"/>
<path d="M29.99 190.01H48.97" stroke="#511F19" stroke-width="0.85" stroke-miterlimit="10"/>
<path d="M48.97 190.01C48.97 179.53 40.48 171.04 30 171.04" stroke="#511F19" stroke-width="0.43" stroke-miterlimit="10"/>
<path d="M6.93002 156.62V155.92L9.15002 153.81C9.34002 153.63 9.48002 153.48 9.57002 153.35C9.66002 153.22 9.72002 153.09 9.75002 152.98C9.78002 152.86 9.79002 152.76 9.79002 152.66C9.79002 152.4 9.70002 152.2 9.53002 152.06C9.35002 151.92 9.09002 151.85 8.75002 151.85C8.48002 151.85 8.23002 151.9 8.01002 151.99C7.79002 152.08 7.60002 152.23 7.44002 152.43L6.71002 151.87C6.93002 151.58 7.22002 151.35 7.59002 151.19C7.96002 151.03 8.38002 150.95 8.83002 150.95C9.24002 150.95 9.59002 151.02 9.89002 151.15C10.19 151.28 10.42 151.47 10.59 151.71C10.75 151.95 10.83 152.24 10.83 152.57C10.83 152.75 10.81 152.93 10.76 153.11C10.71 153.29 10.62 153.48 10.49 153.67C10.36 153.86 10.16 154.09 9.91002 154.33L8.00002 156.15L7.78002 155.76H11.05V156.64H6.92002L6.93002 156.62Z" fill="#13110C"/>
<path d="M11.78 157.83L12.24 156.06L12.38 156.65C12.19 156.65 12.04 156.59 11.91 156.48C11.79 156.36 11.72 156.21 11.72 156.01C11.72 155.81 11.78 155.65 11.91 155.53C12.04 155.41 12.19 155.35 12.37 155.35C12.55 155.35 12.71 155.41 12.83 155.53C12.95 155.65 13.01 155.81 13.01 156.01C13.01 156.06 13.01 156.12 12.99 156.18C12.98 156.24 12.96 156.31 12.94 156.39C12.92 156.47 12.88 156.57 12.82 156.69L12.41 157.82H11.76L11.78 157.83Z" fill="#13110C"/>
<path d="M14.47 156.62V151.42L14.93 151.89H13.29V151.02H15.51V156.62H14.47Z" fill="#13110C"/>
<path d="M18.96 156.7C18.52 156.7 18.12 156.59 17.76 156.36C17.41 156.14 17.13 155.81 16.92 155.38C16.72 154.95 16.62 154.43 16.62 153.82C16.62 153.21 16.72 152.69 16.92 152.26C17.12 151.83 17.4 151.5 17.76 151.28C18.11 151.06 18.51 150.94 18.96 150.94C19.41 150.94 19.81 151.05 20.16 151.28C20.51 151.5 20.79 151.83 21 152.26C21.21 152.69 21.31 153.21 21.31 153.82C21.31 154.43 21.21 154.95 21 155.38C20.79 155.81 20.52 156.14 20.16 156.36C19.81 156.58 19.41 156.7 18.96 156.7ZM18.96 155.8C19.22 155.8 19.45 155.73 19.64 155.59C19.83 155.45 19.98 155.23 20.09 154.94C20.2 154.65 20.25 154.28 20.25 153.83C20.25 153.38 20.2 153 20.09 152.71C19.98 152.42 19.83 152.2 19.64 152.06C19.45 151.92 19.22 151.85 18.96 151.85C18.7 151.85 18.49 151.92 18.29 152.06C18.09 152.2 17.94 152.42 17.83 152.71C17.72 153 17.67 153.37 17.67 153.83C17.67 154.29 17.72 154.65 17.83 154.94C17.94 155.23 18.09 155.45 18.29 155.59C18.48 155.73 18.71 155.8 18.96 155.8Z" fill="#13110C"/>
<path d="M77.31 63.3803V58.1803L77.77 58.6503H76.13V57.7803H78.35V63.3803H77.31Z" fill="#13110C"/>
<path d="M80.36 63.3803V58.1803L80.82 58.6503H79.18V57.7803H81.4V63.3803H80.36Z" fill="#13110C"/>
<path d="M82.55 64.5903L83.01 62.8204L83.15 63.4104C82.96 63.4104 82.81 63.3504 82.68 63.2404C82.55 63.1204 82.49 62.9704 82.49 62.7704C82.49 62.5704 82.55 62.4104 82.68 62.2904C82.8 62.1704 82.96 62.1104 83.14 62.1104C83.32 62.1104 83.48 62.1704 83.6 62.2904C83.72 62.4104 83.78 62.5704 83.78 62.7704C83.78 62.8204 83.78 62.8803 83.76 62.9403C83.75 63.0003 83.73 63.0704 83.71 63.1504C83.69 63.2304 83.65 63.3304 83.59 63.4504L83.18 64.5804H82.53L82.55 64.5903Z" fill="#13110C"/>
<path d="M85.28 63.38L87.59 58.2L87.86 58.66H84.68L85.18 58.16V59.62H84.21V57.79H88.56V58.49L86.38 63.39H85.27L85.28 63.38Z" fill="#13110C"/>
<path d="M91.38 63.4602C90.94 63.4602 90.54 63.3502 90.18 63.1202C89.83 62.9002 89.55 62.5702 89.34 62.1402C89.14 61.7102 89.04 61.1902 89.04 60.5802C89.04 59.9702 89.14 59.4502 89.34 59.0202C89.54 58.5902 89.82 58.2602 90.18 58.0402C90.53 57.8202 90.93 57.7002 91.38 57.7002C91.83 57.7002 92.23 57.8102 92.58 58.0402C92.93 58.2602 93.21 58.5902 93.42 59.0202C93.63 59.4502 93.73 59.9702 93.73 60.5802C93.73 61.1902 93.63 61.7102 93.42 62.1402C93.21 62.5702 92.94 62.9002 92.58 63.1202C92.23 63.3402 91.83 63.4602 91.38 63.4602ZM91.38 62.5602C91.64 62.5602 91.87 62.4902 92.06 62.3502C92.25 62.2102 92.4 61.9902 92.51 61.7002C92.62 61.4102 92.67 61.0402 92.67 60.5902C92.67 60.1402 92.62 59.7602 92.51 59.4702C92.4 59.1802 92.25 58.9602 92.06 58.8202C91.87 58.6802 91.64 58.6102 91.38 58.6102C91.12 58.6102 90.91 58.6802 90.71 58.8202C90.51 58.9602 90.36 59.1802 90.25 59.4702C90.14 59.7602 90.09 60.1302 90.09 60.5902C90.09 61.0502 90.14 61.4102 90.25 61.7002C90.36 61.9902 90.51 62.2102 90.71 62.3502C90.9 62.4902 91.13 62.5602 91.38 62.5602Z" fill="#13110C"/>
<path d="M143.71 43.7303C143.32 43.7303 142.93 43.6703 142.55 43.5603C142.17 43.4403 141.86 43.2903 141.6 43.0803L142.05 42.2703C142.25 42.4403 142.5 42.5703 142.79 42.6703C143.08 42.7703 143.38 42.8203 143.69 42.8203C144.06 42.8203 144.35 42.7403 144.56 42.5903C144.77 42.4403 144.87 42.2303 144.87 41.9703C144.87 41.7103 144.77 41.5103 144.58 41.3603C144.39 41.2103 144.08 41.1403 143.65 41.1403H143.14V40.4303L144.74 38.5303L144.88 38.9203H141.87V38.0503H145.69V38.7503L144.09 40.6503L143.55 40.3303H143.86C144.55 40.3303 145.06 40.4803 145.41 40.7903C145.76 41.1003 145.93 41.4903 145.93 41.9703C145.93 42.2803 145.85 42.5803 145.69 42.8403C145.53 43.1103 145.29 43.3203 144.96 43.4803C144.63 43.6403 144.22 43.7203 143.72 43.7203L143.71 43.7303Z" fill="#13110C"/>
<path d="M146.64 44.8604L147.1 43.0904L147.24 43.6804C147.05 43.6804 146.9 43.6204 146.77 43.5104C146.64 43.3904 146.58 43.2404 146.58 43.0404C146.58 42.8404 146.64 42.6804 146.77 42.5604C146.9 42.4404 147.05 42.3804 147.23 42.3804C147.41 42.3804 147.57 42.4404 147.69 42.5604C147.81 42.6804 147.87 42.8404 147.87 43.0404C147.87 43.0904 147.87 43.1504 147.85 43.2104C147.84 43.2704 147.82 43.3404 147.8 43.4204C147.78 43.5004 147.74 43.6004 147.68 43.7204L147.27 44.8504H146.62L146.64 44.8604Z" fill="#13110C"/>
<path d="M150.8 43.7302C150.36 43.7302 149.96 43.6202 149.6 43.3902C149.25 43.1702 148.97 42.8402 148.76 42.4102C148.56 41.9802 148.46 41.4602 148.46 40.8502C148.46 40.2402 148.56 39.7202 148.76 39.2902C148.96 38.8602 149.24 38.5302 149.6 38.3102C149.95 38.0902 150.35 37.9702 150.8 37.9702C151.25 37.9702 151.65 38.0802 152 38.3102C152.35 38.5302 152.63 38.8602 152.84 39.2902C153.05 39.7202 153.15 40.2402 153.15 40.8502C153.15 41.4602 153.05 41.9802 152.84 42.4102C152.63 42.8402 152.36 43.1702 152 43.3902C151.65 43.6102 151.25 43.7302 150.8 43.7302ZM150.8 42.8302C151.06 42.8302 151.29 42.7602 151.48 42.6202C151.67 42.4802 151.82 42.2602 151.93 41.9702C152.04 41.6802 152.09 41.3102 152.09 40.8602C152.09 40.4102 152.04 40.0302 151.93 39.7402C151.82 39.4502 151.67 39.2302 151.48 39.0902C151.29 38.9502 151.06 38.8802 150.8 38.8802C150.54 38.8802 150.33 38.9502 150.13 39.0902C149.93 39.2302 149.78 39.4502 149.67 39.7402C149.56 40.0302 149.51 40.4002 149.51 40.8602C149.51 41.3202 149.56 41.6802 149.67 41.9702C149.78 42.2602 149.93 42.4802 150.13 42.6202C150.32 42.7602 150.55 42.8302 150.8 42.8302Z" fill="#13110C"/>
<path d="M155.7 43.7301C155.31 43.7301 154.92 43.6701 154.54 43.5601C154.16 43.4401 153.85 43.2901 153.59 43.0801L154.03 42.2701C154.23 42.4401 154.48 42.5701 154.77 42.6701C155.06 42.7701 155.36 42.8201 155.68 42.8201C156.05 42.8201 156.34 42.7401 156.55 42.5901C156.76 42.4301 156.87 42.2301 156.87 41.9701C156.87 41.7901 156.83 41.6401 156.74 41.5101C156.65 41.3801 156.5 41.2701 156.28 41.2101C156.06 41.1401 155.76 41.1101 155.37 41.1101H154.02L154.31 38.0601H157.6V38.9301H154.7L155.24 38.4301L155.02 40.7101L154.48 40.2201H155.61C156.16 40.2201 156.61 40.2901 156.95 40.4401C157.29 40.5901 157.54 40.7901 157.69 41.0501C157.85 41.3101 157.93 41.6001 157.93 41.9301C157.93 42.2601 157.85 42.5501 157.69 42.8301C157.53 43.1001 157.29 43.3201 156.96 43.4901C156.63 43.6601 156.22 43.7401 155.72 43.7401L155.7 43.7301Z" fill="#13110C"/>
<path d="M146.86 124.93C146.47 124.93 146.08 124.87 145.7 124.76C145.32 124.64 145.01 124.49 144.75 124.28L145.2 123.47C145.4 123.64 145.65 123.77 145.94 123.87C146.23 123.97 146.53 124.02 146.84 124.02C147.21 124.02 147.5 123.94 147.71 123.79C147.92 123.64 148.02 123.43 148.02 123.17C148.02 122.91 147.92 122.71 147.73 122.56C147.54 122.41 147.23 122.34 146.8 122.34H146.29V121.63L147.89 119.73L148.03 120.12H145.02V119.25H148.84V119.95L147.24 121.85L146.7 121.53H147.01C147.7 121.53 148.21 121.68 148.56 121.99C148.91 122.3 149.08 122.69 149.08 123.17C149.08 123.48 149 123.78 148.84 124.04C148.68 124.3 148.44 124.52 148.11 124.68C147.78 124.84 147.37 124.92 146.87 124.92L146.86 124.93Z" fill="#13110C"/>
<path d="M149.79 126.06L150.25 124.29L150.39 124.88C150.2 124.88 150.05 124.82 149.92 124.71C149.79 124.59 149.73 124.44 149.73 124.24C149.73 124.04 149.79 123.88 149.92 123.76C150.04 123.64 150.2 123.58 150.38 123.58C150.56 123.58 150.72 123.64 150.84 123.76C150.96 123.88 151.02 124.04 151.02 124.24C151.02 124.29 151.02 124.35 151 124.41C150.99 124.47 150.97 124.54 150.95 124.62C150.93 124.7 150.89 124.8 150.83 124.92L150.42 126.05H149.77L149.79 126.06Z" fill="#13110C"/>
<path d="M153.59 119.17C154.1 119.17 154.54 119.28 154.9 119.49C155.26 119.71 155.54 120.02 155.73 120.43C155.92 120.84 156.02 121.35 156.02 121.95C156.02 122.59 155.9 123.13 155.67 123.57C155.44 124.01 155.12 124.35 154.71 124.58C154.3 124.81 153.82 124.92 153.28 124.92C153 124.92 152.73 124.89 152.47 124.83C152.21 124.77 151.99 124.68 151.81 124.56L152.19 123.78C152.35 123.88 152.51 123.95 152.69 123.99C152.87 124.03 153.06 124.05 153.25 124.05C153.78 124.05 154.2 123.89 154.51 123.56C154.82 123.23 154.97 122.76 154.97 122.12C154.97 122.02 154.97 121.9 154.97 121.76C154.97 121.62 154.95 121.49 154.91 121.35L155.23 121.7C155.14 121.92 155.01 122.1 154.84 122.25C154.67 122.4 154.47 122.51 154.24 122.58C154.01 122.65 153.76 122.69 153.48 122.69C153.12 122.69 152.79 122.62 152.5 122.48C152.21 122.34 151.98 122.14 151.81 121.88C151.64 121.62 151.55 121.32 151.55 120.97C151.55 120.6 151.64 120.28 151.82 120.01C152 119.74 152.25 119.53 152.56 119.38C152.87 119.23 153.22 119.16 153.6 119.16L153.59 119.17ZM153.65 119.99C153.44 119.99 153.25 120.03 153.08 120.11C152.91 120.19 152.79 120.3 152.69 120.44C152.6 120.58 152.55 120.75 152.55 120.95C152.55 121.24 152.65 121.48 152.85 121.65C153.05 121.82 153.32 121.91 153.67 121.91C153.89 121.91 154.09 121.87 154.26 121.79C154.43 121.71 154.56 121.59 154.66 121.45C154.76 121.3 154.8 121.14 154.8 120.96C154.8 120.78 154.76 120.63 154.66 120.48C154.57 120.34 154.44 120.23 154.27 120.14C154.1 120.06 153.89 120.01 153.64 120.01L153.65 119.99Z" fill="#13110C"/>
<path d="M156.64 124.85V124.15L158.86 122.04C159.05 121.86 159.19 121.71 159.28 121.58C159.37 121.45 159.43 121.32 159.46 121.21C159.49 121.09 159.5 120.99 159.5 120.89C159.5 120.63 159.41 120.43 159.24 120.29C159.06 120.15 158.81 120.08 158.46 120.08C158.19 120.08 157.94 120.13 157.72 120.22C157.5 120.31 157.31 120.46 157.15 120.66L156.42 120.1C156.64 119.81 156.93 119.58 157.3 119.42C157.67 119.26 158.09 119.18 158.54 119.18C158.95 119.18 159.3 119.25 159.6 119.38C159.9 119.51 160.13 119.7 160.3 119.94C160.46 120.18 160.54 120.47 160.54 120.8C160.54 120.98 160.52 121.16 160.47 121.34C160.42 121.52 160.33 121.71 160.2 121.9C160.07 122.1 159.87 122.32 159.62 122.56L157.71 124.38L157.49 123.99H160.76V124.87H156.63L156.64 124.85Z" fill="#13110C"/>
<path d="M154.63 170.23C154.24 170.23 153.85 170.17 153.47 170.06C153.09 169.94 152.78 169.79 152.52 169.58L152.97 168.77C153.17 168.94 153.42 169.07 153.71 169.17C154 169.27 154.3 169.32 154.61 169.32C154.98 169.32 155.27 169.24 155.48 169.09C155.69 168.94 155.79 168.73 155.79 168.47C155.79 168.21 155.69 168.01 155.5 167.86C155.31 167.71 155 167.64 154.57 167.64H154.06V166.93L155.66 165.03L155.8 165.42H152.79V164.55H156.61V165.25L155.01 167.15L154.47 166.83H154.78C155.47 166.83 155.98 166.98 156.33 167.29C156.67 167.6 156.85 167.99 156.85 168.47C156.85 168.78 156.77 169.08 156.61 169.34C156.45 169.61 156.21 169.82 155.88 169.98C155.55 170.14 155.14 170.22 154.64 170.22L154.63 170.23Z" fill="#13110C"/>
<path d="M157.56 171.36L158.02 169.59L158.16 170.18C157.97 170.18 157.82 170.12 157.69 170.01C157.57 169.89 157.5 169.74 157.5 169.54C157.5 169.34 157.56 169.18 157.69 169.06C157.82 168.94 157.97 168.88 158.15 168.88C158.33 168.88 158.49 168.94 158.61 169.06C158.73 169.18 158.79 169.34 158.79 169.54C158.79 169.59 158.79 169.65 158.77 169.71C158.76 169.77 158.74 169.84 158.72 169.92C158.7 170 158.66 170.1 158.6 170.22L158.19 171.35H157.54L157.56 171.36Z" fill="#13110C"/>
<path d="M160.29 170.15L162.6 164.97L162.87 165.43H159.69L160.19 164.93V166.39H159.22V164.56H163.57V165.26L161.39 170.16H160.28L160.29 170.15Z" fill="#13110C"/>
<path d="M164.15 170.15V169.45L166.37 167.34C166.56 167.16 166.7 167.01 166.79 166.88C166.88 166.75 166.94 166.62 166.97 166.51C167 166.39 167.01 166.29 167.01 166.19C167.01 165.93 166.92 165.73 166.75 165.59C166.57 165.45 166.32 165.38 165.97 165.38C165.7 165.38 165.45 165.43 165.23 165.52C165.01 165.61 164.82 165.76 164.66 165.96L163.93 165.4C164.15 165.11 164.44 164.88 164.81 164.72C165.18 164.56 165.6 164.48 166.05 164.48C166.46 164.48 166.81 164.55 167.11 164.68C167.41 164.81 167.64 165 167.81 165.24C167.97 165.48 168.05 165.77 168.05 166.1C168.05 166.28 168.03 166.46 167.98 166.64C167.93 166.82 167.84 167.01 167.71 167.2C167.58 167.4 167.38 167.62 167.13 167.86L165.22 169.68L165 169.29H168.27V170.17H164.14L164.15 170.15Z" fill="#13110C"/>
<path d="M67.8 276.16V275.46L70.02 273.35C70.21 273.17 70.35 273.02 70.44 272.89C70.53 272.76 70.59 272.63 70.62 272.52C70.65 272.4 70.66 272.3 70.66 272.2C70.66 271.94 70.57 271.74 70.4 271.6C70.22 271.46 69.97 271.39 69.62 271.39C69.35 271.39 69.1 271.44 68.88 271.53C68.66 271.62 68.47 271.77 68.31 271.97L67.58 271.41C67.8 271.12 68.09 270.89 68.46 270.73C68.83 270.57 69.25 270.49 69.7 270.49C70.11 270.49 70.46 270.56 70.76 270.69C71.06 270.82 71.29 271.01 71.46 271.25C71.62 271.49 71.7 271.78 71.7 272.11C71.7 272.29 71.68 272.47 71.63 272.65C71.58 272.83 71.49 273.02 71.36 273.21C71.23 273.41 71.03 273.63 70.78 273.87L68.87 275.69L68.65 275.3H71.92V276.18H67.79L67.8 276.16Z" fill="#13110C"/>
<path d="M74.41 270.48C74.92 270.48 75.36 270.59 75.72 270.8C76.08 271.02 76.36 271.33 76.55 271.74C76.74 272.15 76.84 272.66 76.84 273.26C76.84 273.9 76.72 274.44 76.49 274.88C76.26 275.32 75.94 275.66 75.53 275.89C75.12 276.12 74.64 276.23 74.1 276.23C73.82 276.23 73.55 276.2 73.29 276.14C73.03 276.08 72.81 275.99 72.63 275.87L73.01 275.09C73.16 275.19 73.33 275.26 73.51 275.3C73.69 275.34 73.88 275.36 74.07 275.36C74.6 275.36 75.02 275.2 75.33 274.87C75.64 274.54 75.79 274.07 75.79 273.43C75.79 273.33 75.79 273.21 75.79 273.07C75.79 272.93 75.77 272.8 75.73 272.66L76.05 273.01C75.96 273.23 75.83 273.41 75.66 273.56C75.49 273.71 75.29 273.82 75.06 273.89C74.83 273.96 74.58 274 74.3 274C73.94 274 73.61 273.93 73.32 273.79C73.03 273.65 72.8 273.45 72.63 273.19C72.46 272.93 72.37 272.63 72.37 272.28C72.37 271.91 72.46 271.59 72.64 271.32C72.82 271.05 73.07 270.84 73.38 270.69C73.69 270.54 74.04 270.47 74.42 270.47L74.41 270.48ZM74.47 271.3C74.26 271.3 74.07 271.34 73.9 271.42C73.73 271.5 73.61 271.61 73.51 271.75C73.42 271.89 73.37 272.06 73.37 272.26C73.37 272.55 73.47 272.79 73.67 272.96C73.87 273.13 74.14 273.22 74.49 273.22C74.71 273.22 74.91 273.18 75.08 273.1C75.25 273.02 75.38 272.9 75.48 272.76C75.58 272.61 75.62 272.45 75.62 272.27C75.62 272.09 75.57 271.94 75.48 271.79C75.39 271.65 75.26 271.54 75.09 271.45C74.92 271.37 74.71 271.32 74.46 271.32L74.47 271.3Z" fill="#13110C"/>
<path d="M77.48 277.37L77.94 275.6L78.08 276.19C77.89 276.19 77.74 276.13 77.61 276.02C77.48 275.9 77.42 275.75 77.42 275.55C77.42 275.35 77.48 275.19 77.61 275.07C77.73 274.95 77.89 274.89 78.07 274.89C78.25 274.89 78.41 274.95 78.53 275.07C78.65 275.19 78.71 275.35 78.71 275.55C78.71 275.6 78.71 275.66 78.69 275.72C78.68 275.78 78.66 275.85 78.64 275.93C78.62 276.01 78.58 276.11 78.52 276.23L78.11 277.36H77.46L77.48 277.37Z" fill="#13110C"/>
<path d="M79.27 274.89V274.17L82.03 270.56H83.14L80.42 274.17L79.9 274.01H84.34V274.89H79.27ZM82.34 276.16V274.89L82.37 274.01V272.88H83.35V276.16H82.34Z" fill="#13110C"/>
<path d="M86.63 270.48C87.14 270.48 87.58 270.59 87.94 270.8C88.3 271.02 88.58 271.33 88.77 271.74C88.96 272.15 89.06 272.66 89.06 273.26C89.06 273.9 88.94 274.44 88.71 274.88C88.48 275.32 88.16 275.66 87.75 275.89C87.34 276.12 86.86 276.23 86.32 276.23C86.04 276.23 85.77 276.2 85.51 276.14C85.25 276.08 85.03 275.99 84.85 275.87L85.23 275.09C85.39 275.19 85.55 275.26 85.73 275.3C85.91 275.34 86.1 275.36 86.29 275.36C86.82 275.36 87.24 275.2 87.55 274.87C87.86 274.54 88.01 274.07 88.01 273.43C88.01 273.33 88.01 273.21 88.01 273.07C88.01 272.93 87.99 272.8 87.95 272.66L88.27 273.01C88.18 273.23 88.05 273.41 87.88 273.56C87.71 273.71 87.51 273.82 87.28 273.89C87.05 273.96 86.8 274 86.52 274C86.16 274 85.83 273.93 85.54 273.79C85.25 273.65 85.02 273.45 84.85 273.19C84.68 272.93 84.59 272.63 84.59 272.28C84.59 271.91 84.68 271.59 84.86 271.32C85.04 271.05 85.29 270.84 85.6 270.69C85.91 270.54 86.26 270.47 86.64 270.47L86.63 270.48ZM86.69 271.3C86.48 271.3 86.29 271.34 86.12 271.42C85.95 271.5 85.83 271.61 85.73 271.75C85.64 271.89 85.59 272.06 85.59 272.26C85.59 272.55 85.69 272.79 85.89 272.96C86.09 273.13 86.36 273.22 86.71 273.22C86.93 273.22 87.13 273.18 87.3 273.1C87.47 273.02 87.6 272.9 87.7 272.76C87.8 272.61 87.84 272.45 87.84 272.27C87.84 272.09 87.8 271.94 87.7 271.79C87.61 271.65 87.48 271.54 87.31 271.45C87.14 271.37 86.93 271.32 86.68 271.32L86.69 271.3Z" fill="#13110C"/>
<path d="M71.94 338.18V332.98L72.4 333.45H70.76V332.58H72.98V338.18H71.94Z" fill="#13110C"/>
<path d="M74.02 338.18V337.48L76.24 335.37C76.43 335.19 76.57 335.04 76.66 334.91C76.75 334.78 76.81 334.65 76.84 334.54C76.87 334.42 76.88 334.32 76.88 334.22C76.88 333.96 76.79 333.76 76.62 333.62C76.44 333.48 76.18 333.41 75.84 333.41C75.57 333.41 75.32 333.46 75.1 333.55C74.88 333.64 74.69 333.79 74.53 333.99L73.8 333.43C74.02 333.14 74.31 332.91 74.68 332.75C75.05 332.59 75.47 332.51 75.92 332.51C76.33 332.51 76.68 332.58 76.98 332.71C77.28 332.84 77.51 333.03 77.68 333.27C77.84 333.51 77.92 333.8 77.92 334.13C77.92 334.31 77.9 334.49 77.85 334.67C77.8 334.85 77.71 335.04 77.58 335.23C77.45 335.42 77.25 335.65 77 335.89L75.09 337.71L74.87 337.32H78.14V338.2H74.01L74.02 338.18Z" fill="#13110C"/>
<path d="M78.87 339.39L79.33 337.62L79.47 338.21C79.28 338.21 79.13 338.15 79 338.04C78.88 337.92 78.81 337.77 78.81 337.57C78.81 337.37 78.87 337.21 79 337.09C79.13 336.97 79.28 336.91 79.46 336.91C79.64 336.91 79.8 336.97 79.92 337.09C80.04 337.21 80.1 337.37 80.1 337.57C80.1 337.62 80.1 337.68 80.08 337.74C80.07 337.8 80.05 337.87 80.03 337.95C80.01 338.03 79.97 338.13 79.91 338.25L79.5 339.38H78.85L78.87 339.39Z" fill="#13110C"/>
<path d="M80.66 336.91V336.19L83.42 332.58H84.53L81.81 336.19L81.29 336.03H85.73V336.91H80.66ZM83.73 338.18V336.91L83.76 336.03V334.9H84.74V338.18H83.73Z" fill="#13110C"/>
<path d="M88.6 338.26C88.09 338.26 87.66 338.15 87.3 337.94C86.94 337.72 86.66 337.41 86.47 337C86.28 336.59 86.18 336.08 86.18 335.48C86.18 334.84 86.3 334.3 86.53 333.86C86.76 333.42 87.08 333.08 87.5 332.85C87.91 332.62 88.39 332.51 88.93 332.51C89.21 332.51 89.48 332.54 89.74 332.6C90 332.66 90.22 332.75 90.4 332.87L90.02 333.65C89.86 333.55 89.7 333.48 89.52 333.44C89.34 333.4 89.15 333.38 88.96 333.38C88.43 333.38 88.01 333.54 87.7 333.87C87.39 334.2 87.24 334.68 87.24 335.31C87.24 335.41 87.24 335.53 87.24 335.67C87.24 335.81 87.26 335.94 87.3 336.08L86.98 335.73C87.08 335.51 87.21 335.33 87.38 335.18C87.55 335.03 87.75 334.92 87.98 334.85C88.21 334.77 88.46 334.74 88.74 334.74C89.11 334.74 89.44 334.81 89.72 334.95C90.01 335.09 90.24 335.29 90.41 335.55C90.58 335.81 90.67 336.11 90.67 336.46C90.67 336.83 90.58 337.15 90.4 337.42C90.22 337.69 89.97 337.9 89.66 338.05C89.35 338.2 89 338.27 88.62 338.27L88.6 338.26ZM88.54 337.44C88.75 337.44 88.94 337.4 89.11 337.32C89.27 337.24 89.4 337.13 89.5 336.99C89.59 336.85 89.64 336.68 89.64 336.49C89.64 336.2 89.54 335.97 89.34 335.79C89.14 335.62 88.86 335.53 88.52 335.53C88.3 335.53 88.1 335.57 87.93 335.65C87.76 335.73 87.63 335.85 87.53 335.99C87.43 336.13 87.38 336.3 87.38 336.49C87.38 336.66 87.42 336.82 87.52 336.96C87.62 337.1 87.74 337.22 87.92 337.3C88.09 337.39 88.3 337.43 88.55 337.43L88.54 337.44Z" fill="#13110C"/>
<path d="M147.48 336.6C147.09 336.6 146.7 336.54 146.32 336.43C145.94 336.31 145.63 336.16 145.37 335.95L145.82 335.14C146.02 335.3 146.27 335.44 146.56 335.54C146.85 335.64 147.15 335.69 147.46 335.69C147.83 335.69 148.12 335.61 148.33 335.46C148.54 335.31 148.64 335.1 148.64 334.84C148.64 334.58 148.54 334.38 148.35 334.23C148.16 334.08 147.85 334.01 147.42 334.01H146.91V333.3L148.51 331.4L148.65 331.79H145.64V330.92H149.46V331.62L147.86 333.52L147.32 333.2H147.63C148.32 333.2 148.83 333.35 149.18 333.66C149.52 333.97 149.7 334.36 149.7 334.84C149.7 335.15 149.62 335.45 149.46 335.71C149.3 335.98 149.06 336.19 148.73 336.35C148.4 336.51 147.99 336.59 147.49 336.59L147.48 336.6Z" fill="#13110C"/>
<path d="M150.41 337.73L150.87 335.96L151.01 336.55C150.82 336.55 150.67 336.49 150.54 336.38C150.41 336.26 150.35 336.11 150.35 335.91C150.35 335.71 150.41 335.55 150.54 335.43C150.66 335.31 150.82 335.25 151 335.25C151.18 335.25 151.34 335.31 151.46 335.43C151.58 335.55 151.64 335.71 151.64 335.91C151.64 335.96 151.64 336.02 151.62 336.08C151.61 336.14 151.59 336.21 151.57 336.29C151.55 336.37 151.51 336.47 151.45 336.59L151.04 337.72H150.39L150.41 337.73Z" fill="#13110C"/>
<path d="M154.65 336.6C154.14 336.6 153.71 336.49 153.35 336.28C152.99 336.07 152.71 335.75 152.52 335.34C152.33 334.93 152.23 334.42 152.23 333.82C152.23 333.18 152.35 332.64 152.58 332.2C152.81 331.76 153.13 331.42 153.55 331.19C153.96 330.96 154.44 330.85 154.98 330.85C155.26 330.85 155.53 330.88 155.79 330.94C156.05 331 156.27 331.09 156.45 331.21L156.07 332C155.92 331.9 155.75 331.83 155.57 331.79C155.39 331.75 155.2 331.73 155.01 331.73C154.48 331.73 154.06 331.89 153.75 332.22C153.44 332.55 153.29 333.03 153.29 333.66C153.29 333.76 153.29 333.88 153.29 334.02C153.29 334.16 153.31 334.29 153.34 334.43L153.02 334.08C153.12 333.86 153.25 333.68 153.42 333.53C153.59 333.38 153.79 333.27 154.02 333.2C154.25 333.13 154.5 333.09 154.78 333.09C155.15 333.09 155.48 333.16 155.76 333.3C156.05 333.44 156.28 333.64 156.45 333.9C156.62 334.16 156.71 334.46 156.71 334.81C156.71 335.18 156.62 335.5 156.44 335.77C156.26 336.04 156.01 336.25 155.7 336.4C155.39 336.55 155.04 336.62 154.66 336.62L154.65 336.6ZM154.59 335.78C154.8 335.78 154.99 335.74 155.16 335.66C155.33 335.58 155.45 335.47 155.55 335.33C155.64 335.19 155.69 335.02 155.69 334.83C155.69 334.54 155.59 334.3 155.39 334.13C155.19 333.96 154.92 333.87 154.57 333.87C154.35 333.87 154.15 333.91 153.98 333.99C153.81 334.07 153.68 334.19 153.58 334.33C153.48 334.47 153.43 334.64 153.43 334.83C153.43 335 153.48 335.16 153.57 335.3C153.66 335.44 153.79 335.56 153.97 335.64C154.14 335.73 154.35 335.77 154.6 335.77L154.59 335.78Z" fill="#13110C"/>
<path d="M159.49 336.6C159.03 336.6 158.62 336.53 158.28 336.39C157.94 336.25 157.67 336.05 157.49 335.8C157.3 335.55 157.21 335.25 157.21 334.91C157.21 334.57 157.3 334.28 157.48 334.05C157.66 333.81 157.92 333.64 158.26 333.51C158.6 333.38 159.01 333.33 159.48 333.33C159.95 333.33 160.36 333.39 160.71 333.51C161.06 333.63 161.32 333.81 161.5 334.05C161.68 334.29 161.78 334.57 161.78 334.91C161.78 335.25 161.68 335.55 161.49 335.8C161.3 336.05 161.03 336.25 160.69 336.39C160.35 336.53 159.94 336.6 159.48 336.6H159.49ZM159.49 333.87C159.06 333.87 158.69 333.81 158.38 333.7C158.07 333.59 157.83 333.42 157.66 333.2C157.49 332.98 157.41 332.71 157.41 332.41C157.41 332.11 157.5 331.81 157.67 331.58C157.84 331.35 158.09 331.17 158.4 331.04C158.71 330.91 159.08 330.85 159.49 330.85C159.9 330.85 160.27 330.91 160.59 331.04C160.91 331.17 161.15 331.35 161.33 331.58C161.51 331.81 161.59 332.09 161.59 332.41C161.59 332.73 161.51 332.98 161.34 333.2C161.17 333.42 160.93 333.59 160.62 333.7C160.3 333.82 159.93 333.87 159.5 333.87H159.49ZM159.49 335.78C159.87 335.78 160.18 335.7 160.4 335.54C160.62 335.38 160.74 335.16 160.74 334.88C160.74 334.6 160.63 334.38 160.4 334.22C160.18 334.06 159.87 333.98 159.49 333.98C159.11 333.98 158.8 334.06 158.59 334.22C158.38 334.38 158.26 334.6 158.26 334.88C158.26 335.16 158.37 335.38 158.59 335.54C158.81 335.7 159.11 335.78 159.49 335.78ZM159.49 333.23C159.82 333.23 160.08 333.16 160.27 333.02C160.46 332.88 160.56 332.69 160.56 332.45C160.56 332.21 160.46 332 160.26 331.87C160.06 331.74 159.8 331.66 159.48 331.66C159.16 331.66 158.9 331.73 158.71 331.87C158.52 332.01 158.42 332.2 158.42 332.45C158.42 332.7 158.51 332.88 158.7 333.02C158.89 333.16 159.15 333.23 159.47 333.23H159.49Z" fill="#13110C"/>
<path d="M93.7 179.19V178.47L96.46 174.86H97.57L94.85 178.47L94.33 178.31H98.77V179.19H93.7ZM96.77 180.46V179.19L96.8 178.31V177.18H97.78V180.46H96.77Z" fill="#C42F20"/>
<path d="M101.54 180.54C101.08 180.54 100.67 180.47 100.33 180.33C99.99 180.19 99.72 180 99.54 179.74C99.35 179.49 99.26 179.19 99.26 178.85C99.26 178.51 99.35 178.22 99.53 177.99C99.71 177.75 99.97 177.58 100.31 177.45C100.65 177.32 101.06 177.27 101.53 177.27C102 177.27 102.41 177.33 102.76 177.45C103.1 177.57 103.37 177.75 103.55 177.99C103.73 178.23 103.83 178.51 103.83 178.85C103.83 179.19 103.74 179.49 103.55 179.74C103.36 179.99 103.09 180.19 102.75 180.33C102.41 180.47 102 180.54 101.54 180.54ZM101.54 177.81C101.11 177.81 100.74 177.75 100.43 177.64C100.12 177.53 99.88 177.36 99.72 177.14C99.55 176.92 99.47 176.65 99.47 176.34C99.47 176.03 99.56 175.74 99.73 175.51C99.9 175.28 100.15 175.1 100.46 174.97C100.77 174.84 101.14 174.78 101.55 174.78C101.96 174.78 102.33 174.84 102.65 174.97C102.97 175.1 103.21 175.28 103.39 175.51C103.57 175.74 103.65 176.02 103.65 176.34C103.65 176.66 103.57 176.92 103.4 177.14C103.23 177.36 102.99 177.53 102.68 177.64C102.37 177.76 101.99 177.81 101.56 177.81H101.54ZM101.54 179.72C101.92 179.72 102.23 179.64 102.45 179.48C102.67 179.32 102.79 179.1 102.79 178.82C102.79 178.54 102.68 178.32 102.45 178.16C102.23 178 101.92 177.92 101.54 177.92C101.16 177.92 100.85 178 100.64 178.16C100.43 178.32 100.31 178.54 100.31 178.82C100.31 179.1 100.42 179.32 100.64 179.48C100.86 179.64 101.16 179.72 101.54 179.72ZM101.54 177.17C101.87 177.17 102.13 177.1 102.32 176.96C102.51 176.82 102.61 176.63 102.61 176.39C102.61 176.15 102.51 175.94 102.31 175.81C102.11 175.68 101.85 175.6 101.53 175.6C101.21 175.6 100.95 175.67 100.76 175.81C100.57 175.95 100.47 176.14 100.47 176.39C100.47 176.64 100.56 176.82 100.75 176.96C100.94 177.1 101.2 177.17 101.52 177.17H101.54Z" fill="#C42F20"/>
<path d="M104.63 181.67L105.09 179.9L105.23 180.49C105.04 180.49 104.89 180.43 104.76 180.32C104.64 180.2 104.57 180.05 104.57 179.85C104.57 179.65 104.63 179.49 104.76 179.37C104.89 179.25 105.04 179.19 105.22 179.19C105.4 179.19 105.56 179.25 105.68 179.37C105.8 179.49 105.86 179.65 105.86 179.85C105.86 179.9 105.86 179.96 105.84 180.02C105.83 180.08 105.81 180.15 105.79 180.23C105.77 180.31 105.73 180.41 105.67 180.53L105.26 181.66H104.61L104.63 181.67Z" fill="#C42F20"/>
<path d="M108.39 180.54C108 180.54 107.61 180.48 107.23 180.37C106.85 180.25 106.54 180.1 106.28 179.89L106.72 179.08C106.92 179.25 107.17 179.38 107.46 179.48C107.75 179.58 108.05 179.63 108.37 179.63C108.74 179.63 109.03 179.55 109.24 179.4C109.45 179.24 109.56 179.04 109.56 178.78C109.56 178.6 109.52 178.45 109.43 178.32C109.34 178.19 109.19 178.08 108.97 178.02C108.75 177.95 108.45 177.92 108.06 177.92H106.71L107 174.87H110.29V175.74H107.39L107.93 175.24L107.72 177.52L107.18 177.03H108.31C108.86 177.03 109.31 177.1 109.65 177.25C109.99 177.4 110.24 177.6 110.39 177.86C110.55 178.12 110.63 178.41 110.63 178.74C110.63 179.07 110.55 179.36 110.39 179.64C110.23 179.91 109.99 180.13 109.66 180.3C109.33 180.47 108.92 180.55 108.42 180.55L108.39 180.54Z" fill="#C42F20"/>
<path d="M113.63 180.54C113.12 180.54 112.69 180.43 112.33 180.22C111.97 180 111.69 179.69 111.5 179.28C111.31 178.87 111.21 178.36 111.21 177.76C111.21 177.12 111.33 176.58 111.56 176.14C111.79 175.7 112.11 175.36 112.53 175.13C112.95 174.9 113.42 174.79 113.96 174.79C114.24 174.79 114.51 174.82 114.77 174.88C115.03 174.94 115.25 175.03 115.43 175.15L115.05 175.93C114.89 175.83 114.73 175.76 114.55 175.72C114.37 175.68 114.18 175.66 113.99 175.66C113.46 175.66 113.04 175.82 112.73 176.15C112.42 176.48 112.27 176.96 112.27 177.59C112.27 177.69 112.27 177.81 112.27 177.95C112.27 178.09 112.29 178.22 112.33 178.36L112.01 178.01C112.11 177.79 112.24 177.61 112.41 177.46C112.58 177.31 112.78 177.2 113.01 177.13C113.24 177.05 113.49 177.02 113.77 177.02C114.14 177.02 114.47 177.09 114.75 177.23C115.04 177.37 115.27 177.57 115.44 177.83C115.61 178.09 115.7 178.39 115.7 178.74C115.7 179.11 115.61 179.43 115.43 179.7C115.25 179.97 115 180.18 114.69 180.33C114.38 180.48 114.03 180.55 113.65 180.55L113.63 180.54ZM113.57 179.72C113.78 179.72 113.97 179.68 114.14 179.6C114.31 179.52 114.43 179.41 114.53 179.27C114.62 179.13 114.67 178.96 114.67 178.77C114.67 178.48 114.57 178.25 114.37 178.07C114.17 177.9 113.89 177.81 113.55 177.81C113.33 177.81 113.13 177.85 112.96 177.93C112.79 178.01 112.66 178.13 112.56 178.27C112.46 178.41 112.41 178.58 112.41 178.77C112.41 178.94 112.46 179.1 112.55 179.24C112.64 179.38 112.77 179.5 112.95 179.58C113.12 179.67 113.33 179.71 113.58 179.71L113.57 179.72Z" fill="#C42F20"/>
<path d="M96.2 189.99C95.69 189.99 95.26 189.88 94.9 189.67C94.54 189.45 94.26 189.14 94.07 188.73C93.88 188.32 93.78 187.81 93.78 187.21C93.78 186.57 93.9 186.03 94.13 185.59C94.36 185.15 94.68 184.81 95.1 184.58C95.52 184.35 95.99 184.24 96.53 184.24C96.81 184.24 97.08 184.27 97.34 184.33C97.6 184.39 97.82 184.48 98 184.6L97.62 185.38C97.46 185.28 97.3 185.21 97.12 185.17C96.94 185.13 96.75 185.11 96.56 185.11C96.03 185.11 95.61 185.27 95.3 185.6C94.99 185.93 94.84 186.41 94.84 187.04C94.84 187.14 94.84 187.26 94.84 187.4C94.84 187.54 94.86 187.67 94.9 187.81L94.58 187.46C94.68 187.24 94.81 187.06 94.98 186.91C95.15 186.76 95.35 186.65 95.58 186.58C95.81 186.5 96.06 186.47 96.34 186.47C96.71 186.47 97.04 186.54 97.32 186.68C97.61 186.82 97.84 187.02 98.01 187.28C98.18 187.54 98.27 187.84 98.27 188.19C98.27 188.56 98.18 188.88 98 189.15C97.82 189.42 97.57 189.63 97.26 189.78C96.95 189.93 96.6 190 96.22 190L96.2 189.99ZM96.14 189.17C96.35 189.17 96.54 189.13 96.71 189.05C96.88 188.97 97 188.86 97.1 188.72C97.19 188.58 97.24 188.41 97.24 188.22C97.24 187.93 97.14 187.7 96.94 187.52C96.74 187.35 96.46 187.26 96.12 187.26C95.9 187.26 95.7 187.3 95.53 187.38C95.36 187.46 95.23 187.58 95.13 187.72C95.03 187.86 94.98 188.03 94.98 188.22C94.98 188.39 95.03 188.55 95.12 188.69C95.21 188.83 95.34 188.95 95.52 189.03C95.69 189.12 95.9 189.16 96.15 189.16L96.14 189.17Z" fill="#C42F20"/>
<path d="M101.04 189.99C100.58 189.99 100.17 189.92 99.83 189.78C99.49 189.64 99.22 189.45 99.04 189.19C98.85 188.94 98.76 188.64 98.76 188.3C98.76 187.96 98.85 187.67 99.03 187.44C99.21 187.2 99.47 187.03 99.81 186.9C100.15 186.78 100.56 186.72 101.03 186.72C101.5 186.72 101.91 186.78 102.26 186.9C102.6 187.02 102.87 187.2 103.05 187.44C103.23 187.68 103.33 187.96 103.33 188.3C103.33 188.64 103.24 188.94 103.05 189.19C102.86 189.44 102.59 189.64 102.25 189.78C101.91 189.92 101.5 189.99 101.04 189.99ZM101.04 187.26C100.61 187.26 100.24 187.2 99.93 187.09C99.62 186.98 99.38 186.81 99.21 186.59C99.04 186.37 98.96 186.1 98.96 185.79C98.96 185.48 99.05 185.19 99.22 184.96C99.39 184.73 99.64 184.55 99.95 184.42C100.26 184.29 100.63 184.23 101.04 184.23C101.45 184.23 101.82 184.29 102.14 184.42C102.46 184.55 102.7 184.73 102.88 184.96C103.06 185.19 103.14 185.47 103.14 185.79C103.14 186.11 103.06 186.37 102.89 186.59C102.72 186.81 102.48 186.98 102.17 187.09C101.85 187.21 101.48 187.26 101.05 187.26H101.04ZM101.04 189.17C101.42 189.17 101.73 189.09 101.95 188.93C102.17 188.77 102.29 188.55 102.29 188.27C102.29 187.99 102.18 187.77 101.95 187.61C101.73 187.45 101.42 187.37 101.04 187.37C100.66 187.37 100.35 187.45 100.14 187.61C99.93 187.77 99.81 187.99 99.81 188.27C99.81 188.55 99.92 188.77 100.14 188.93C100.36 189.09 100.66 189.17 101.04 189.17ZM101.04 186.62C101.37 186.62 101.63 186.55 101.82 186.41C102.01 186.27 102.11 186.08 102.11 185.84C102.11 185.6 102.01 185.39 101.81 185.26C101.61 185.13 101.35 185.05 101.03 185.05C100.71 185.05 100.45 185.12 100.26 185.26C100.07 185.4 99.97 185.59 99.97 185.84C99.97 186.09 100.07 186.27 100.26 186.41C100.45 186.55 100.71 186.62 101.03 186.62H101.04Z" fill="#C42F20"/>
<path d="M104.13 191.12L104.59 189.35L104.73 189.94C104.54 189.94 104.39 189.88 104.26 189.77C104.13 189.65 104.07 189.5 104.07 189.3C104.07 189.1 104.13 188.94 104.26 188.82C104.39 188.7 104.54 188.64 104.72 188.64C104.9 188.64 105.06 188.7 105.18 188.82C105.3 188.94 105.36 189.1 105.36 189.3C105.36 189.35 105.36 189.41 105.34 189.47C105.33 189.53 105.31 189.6 105.29 189.68C105.27 189.76 105.23 189.86 105.17 189.98L104.76 191.11H104.11L104.13 191.12Z" fill="#C42F20"/>
<path d="M108.28 189.99C107.84 189.99 107.44 189.88 107.08 189.65C106.73 189.43 106.45 189.1 106.24 188.67C106.04 188.24 105.94 187.72 105.94 187.11C105.94 186.5 106.04 185.98 106.24 185.55C106.44 185.12 106.72 184.79 107.08 184.57C107.43 184.35 107.83 184.23 108.28 184.23C108.73 184.23 109.13 184.34 109.48 184.57C109.83 184.79 110.11 185.12 110.32 185.55C110.53 185.98 110.63 186.5 110.63 187.11C110.63 187.72 110.53 188.24 110.32 188.67C110.11 189.1 109.84 189.43 109.48 189.65C109.13 189.87 108.73 189.99 108.28 189.99ZM108.28 189.09C108.54 189.09 108.77 189.02 108.96 188.88C109.15 188.74 109.3 188.52 109.41 188.23C109.52 187.94 109.57 187.57 109.57 187.12C109.57 186.67 109.52 186.29 109.41 186C109.3 185.71 109.15 185.49 108.96 185.35C108.77 185.21 108.54 185.14 108.28 185.14C108.02 185.14 107.81 185.21 107.61 185.35C107.41 185.49 107.26 185.71 107.15 186C107.04 186.29 106.99 186.66 106.99 187.12C106.99 187.58 107.04 187.94 107.15 188.23C107.26 188.52 107.41 188.74 107.61 188.88C107.8 189.02 108.03 189.09 108.28 189.09Z" fill="#C42F20"/>
<path d="M111.25 189.91V189.21L113.47 187.1C113.66 186.92 113.8 186.77 113.89 186.64C113.98 186.51 114.04 186.38 114.07 186.27C114.1 186.15 114.11 186.05 114.11 185.95C114.11 185.69 114.02 185.49 113.85 185.35C113.67 185.21 113.42 185.14 113.07 185.14C112.8 185.14 112.55 185.19 112.33 185.28C112.11 185.38 111.92 185.52 111.76 185.72L111.03 185.16C111.25 184.87 111.54 184.64 111.91 184.48C112.28 184.32 112.7 184.24 113.15 184.24C113.56 184.24 113.91 184.31 114.21 184.44C114.51 184.57 114.74 184.76 114.91 185C115.07 185.24 115.15 185.53 115.15 185.86C115.15 186.04 115.13 186.22 115.08 186.4C115.03 186.58 114.94 186.77 114.81 186.96C114.68 187.16 114.48 187.38 114.23 187.62L112.32 189.44L112.11 189.05H115.38V189.93H111.25V189.91Z" fill="#C42F20"/>
<path d="M58.77 191.69V190.43L62.01 187.37C62.27 187.14 62.45 186.93 62.57 186.75C62.69 186.57 62.77 186.4 62.82 186.25C62.86 186.1 62.89 185.96 62.89 185.83C62.89 185.49 62.78 185.24 62.55 185.06C62.32 184.88 61.99 184.79 61.55 184.79C61.2 184.79 60.87 184.86 60.57 184.99C60.27 185.13 60.02 185.34 59.81 185.63L58.39 184.72C58.71 184.24 59.16 183.86 59.73 183.58C60.3 183.3 60.97 183.16 61.72 183.16C62.34 183.16 62.89 183.26 63.36 183.47C63.83 183.67 64.19 183.96 64.45 184.33C64.71 184.7 64.84 185.14 64.84 185.65C64.84 185.92 64.81 186.19 64.74 186.46C64.67 186.73 64.54 187.01 64.33 187.31C64.12 187.61 63.83 187.94 63.44 188.31L60.75 190.84L60.38 190.13H65.12V191.71H58.77V191.69Z" fill="#C42F20"/>
<path d="M65.6 191.69L69.34 183.29H71.26L75.02 191.69H72.98L69.91 184.27H70.68L67.6 191.69H65.61H65.6ZM67.47 189.89L67.99 188.41H72.31L72.84 189.89H67.48H67.47Z" fill="#C42F20"/>
<path d="M75.44 189.06V187.56H78.84V189.06H75.44Z" fill="#C42F20"/>
<path d="M79.65 191.69V190.43L82.89 187.37C83.15 187.14 83.33 186.93 83.45 186.75C83.57 186.57 83.65 186.4 83.7 186.25C83.74 186.1 83.77 185.96 83.77 185.83C83.77 185.49 83.66 185.24 83.43 185.06C83.2 184.88 82.87 184.79 82.43 184.79C82.08 184.79 81.75 184.86 81.45 184.99C81.15 185.13 80.9 185.34 80.69 185.63L79.27 184.72C79.59 184.24 80.04 183.86 80.61 183.58C81.18 183.3 81.85 183.16 82.6 183.16C83.22 183.16 83.77 183.26 84.24 183.47C84.71 183.67 85.07 183.96 85.33 184.33C85.59 184.7 85.72 185.14 85.72 185.65C85.72 185.92 85.69 186.19 85.62 186.46C85.55 186.73 85.42 187.01 85.21 187.31C85 187.61 84.71 187.94 84.32 188.31L81.63 190.84L81.26 190.13H86V191.71H79.65V191.69Z" fill="#C42F20"/>
<path d="M96.2 199.1C95.69 199.1 95.26 198.99 94.9 198.78C94.54 198.56 94.26 198.25 94.07 197.84C93.88 197.43 93.78 196.92 93.78 196.32C93.78 195.68 93.9 195.14 94.13 194.7C94.36 194.26 94.68 193.92 95.1 193.69C95.52 193.46 95.99 193.35 96.53 193.35C96.81 193.35 97.08 193.38 97.34 193.44C97.6 193.5 97.82 193.59 98 193.71L97.62 194.49C97.46 194.39 97.3 194.32 97.12 194.28C96.94 194.24 96.75 194.22 96.56 194.22C96.03 194.22 95.61 194.38 95.3 194.71C94.99 195.04 94.84 195.52 94.84 196.15C94.84 196.25 94.84 196.37 94.84 196.51C94.84 196.65 94.86 196.78 94.9 196.92L94.58 196.57C94.68 196.35 94.81 196.17 94.98 196.02C95.15 195.87 95.35 195.76 95.58 195.69C95.81 195.61 96.06 195.58 96.34 195.58C96.71 195.58 97.04 195.65 97.32 195.79C97.61 195.93 97.84 196.13 98.01 196.39C98.18 196.65 98.27 196.95 98.27 197.3C98.27 197.67 98.18 197.99 98 198.26C97.82 198.53 97.57 198.74 97.26 198.89C96.95 199.04 96.6 199.11 96.22 199.11L96.2 199.1ZM96.14 198.28C96.35 198.28 96.54 198.24 96.71 198.16C96.88 198.08 97 197.97 97.1 197.83C97.19 197.69 97.24 197.52 97.24 197.33C97.24 197.04 97.14 196.81 96.94 196.63C96.74 196.46 96.46 196.37 96.12 196.37C95.9 196.37 95.7 196.41 95.53 196.49C95.36 196.57 95.23 196.69 95.13 196.83C95.03 196.97 94.98 197.14 94.98 197.33C94.98 197.5 95.03 197.66 95.12 197.8C95.21 197.94 95.34 198.06 95.52 198.14C95.69 198.23 95.9 198.27 96.15 198.27L96.14 198.28Z" fill="#C42F20"/>
<path d="M101.04 199.1C100.58 199.1 100.17 199.03 99.83 198.89C99.49 198.75 99.22 198.56 99.04 198.3C98.85 198.05 98.76 197.75 98.76 197.41C98.76 197.07 98.85 196.78 99.03 196.55C99.21 196.31 99.47 196.14 99.81 196.01C100.15 195.89 100.56 195.83 101.03 195.83C101.5 195.83 101.91 195.89 102.26 196.01C102.6 196.13 102.87 196.31 103.05 196.55C103.23 196.79 103.33 197.07 103.33 197.41C103.33 197.75 103.24 198.05 103.05 198.3C102.86 198.55 102.59 198.75 102.25 198.89C101.91 199.03 101.5 199.1 101.04 199.1ZM101.04 196.37C100.61 196.37 100.24 196.31 99.93 196.2C99.62 196.09 99.38 195.92 99.21 195.7C99.04 195.48 98.96 195.21 98.96 194.9C98.96 194.59 99.05 194.3 99.22 194.07C99.39 193.84 99.64 193.66 99.95 193.53C100.26 193.4 100.63 193.34 101.04 193.34C101.45 193.34 101.82 193.4 102.14 193.53C102.46 193.66 102.7 193.84 102.88 194.07C103.06 194.3 103.14 194.58 103.14 194.9C103.14 195.22 103.06 195.48 102.89 195.7C102.72 195.92 102.48 196.09 102.17 196.2C101.85 196.32 101.48 196.37 101.05 196.37H101.04ZM101.04 198.28C101.42 198.28 101.73 198.2 101.95 198.04C102.17 197.88 102.29 197.66 102.29 197.38C102.29 197.1 102.18 196.88 101.95 196.72C101.73 196.56 101.42 196.48 101.04 196.48C100.66 196.48 100.35 196.56 100.14 196.72C99.93 196.88 99.81 197.1 99.81 197.38C99.81 197.66 99.92 197.88 100.14 198.04C100.36 198.2 100.66 198.28 101.04 198.28ZM101.04 195.73C101.37 195.73 101.63 195.66 101.82 195.52C102.01 195.38 102.11 195.19 102.11 194.95C102.11 194.71 102.01 194.5 101.81 194.37C101.61 194.24 101.35 194.16 101.03 194.16C100.71 194.16 100.45 194.23 100.26 194.37C100.07 194.51 99.97 194.7 99.97 194.95C99.97 195.2 100.07 195.38 100.26 195.52C100.45 195.66 100.71 195.73 101.03 195.73H101.04Z" fill="#C42F20"/>
<path d="M104.13 200.23L104.59 198.46L104.73 199.05C104.54 199.05 104.39 198.99 104.26 198.88C104.13 198.76 104.07 198.61 104.07 198.41C104.07 198.21 104.13 198.05 104.26 197.93C104.39 197.81 104.54 197.75 104.72 197.75C104.9 197.75 105.06 197.81 105.18 197.93C105.3 198.05 105.36 198.21 105.36 198.41C105.36 198.46 105.36 198.52 105.34 198.58C105.33 198.64 105.31 198.71 105.29 198.79C105.27 198.87 105.23 198.97 105.17 199.09L104.76 200.22H104.11L104.13 200.23Z" fill="#C42F20"/>
<path d="M108.37 199.1C107.86 199.1 107.43 198.99 107.07 198.78C106.71 198.56 106.43 198.25 106.24 197.84C106.05 197.43 105.95 196.92 105.95 196.32C105.95 195.68 106.07 195.14 106.3 194.7C106.53 194.26 106.85 193.92 107.27 193.69C107.69 193.46 108.16 193.35 108.7 193.35C108.98 193.35 109.25 193.38 109.51 193.44C109.77 193.5 109.99 193.59 110.17 193.71L109.79 194.49C109.63 194.39 109.47 194.32 109.29 194.28C109.11 194.24 108.92 194.22 108.73 194.22C108.2 194.22 107.78 194.38 107.47 194.71C107.16 195.04 107.01 195.52 107.01 196.15C107.01 196.25 107.01 196.37 107.01 196.51C107.01 196.65 107.03 196.78 107.07 196.92L106.75 196.57C106.85 196.35 106.98 196.17 107.15 196.02C107.32 195.87 107.52 195.76 107.75 195.69C107.98 195.61 108.23 195.58 108.51 195.58C108.88 195.58 109.21 195.65 109.49 195.79C109.78 195.93 110.01 196.13 110.18 196.39C110.35 196.65 110.44 196.95 110.44 197.3C110.44 197.67 110.35 197.99 110.17 198.26C109.99 198.53 109.74 198.74 109.43 198.89C109.12 199.04 108.77 199.11 108.39 199.11L108.37 199.1ZM108.31 198.28C108.52 198.28 108.71 198.24 108.88 198.16C109.05 198.08 109.17 197.97 109.27 197.83C109.36 197.69 109.41 197.52 109.41 197.33C109.41 197.04 109.31 196.81 109.11 196.63C108.91 196.46 108.63 196.37 108.29 196.37C108.07 196.37 107.87 196.41 107.7 196.49C107.53 196.57 107.4 196.69 107.3 196.83C107.2 196.97 107.15 197.14 107.15 197.33C107.15 197.5 107.2 197.66 107.29 197.8C107.38 197.94 107.51 198.06 107.69 198.14C107.86 198.23 108.07 198.27 108.32 198.27L108.31 198.28Z" fill="#C42F20"/>
<path d="M112.82 199.1C112.43 199.1 112.04 199.04 111.66 198.93C111.28 198.81 110.97 198.66 110.71 198.45L111.15 197.64C111.35 197.81 111.6 197.94 111.89 198.04C112.18 198.14 112.48 198.19 112.8 198.19C113.17 198.19 113.46 198.11 113.67 197.96C113.88 197.8 113.99 197.6 113.99 197.34C113.99 197.16 113.95 197.01 113.86 196.88C113.77 196.75 113.62 196.64 113.4 196.58C113.18 196.51 112.88 196.48 112.49 196.48H111.14L111.43 193.43H114.72V194.3H111.82L112.36 193.8L112.15 196.08L111.61 195.59H112.74C113.29 195.59 113.74 195.66 114.08 195.81C114.42 195.96 114.67 196.16 114.82 196.42C114.98 196.68 115.06 196.97 115.06 197.3C115.06 197.63 114.98 197.92 114.82 198.2C114.66 198.47 114.42 198.69 114.09 198.86C113.76 199.03 113.35 199.11 112.85 199.11L112.82 199.1Z" fill="#C42F20"/>
<path d="M90.41 202.56V170.35" stroke="#C42F20" stroke-miterlimit="10"/>
</g>
<defs>
<clipPath id="clip0_2024_5068">
<rect width="191.63" height="413.65" fill="white" transform="translate(0 0.5)"/>
</clipPath>
</defs>
</svg>
