<svg width="182" height="240" viewBox="0 0 182 240" fill="none" xmlns="http://www.w3.org/2000/svg">
<g clip-path="url(#clip0_2003_266)">
<g opacity="0.45">
<path d="M181.172 62.172H125.526V107.526H181.172V62.172Z" fill="#C4A08A"/>
<path d="M57.08 8.60303H9.27698V11.336H57.08V8.60303Z" fill="#4A1815"/>
<path d="M80.25 8.60303H69.816V11.336H80.25V8.60303Z" fill="#4A1815"/>
<path d="M57.6129 8.60303H8.49695V9.38403H57.6129V8.60303Z" fill="#4A1815"/>
<path d="M80.7469 8.60303H69.3199V9.38403H80.7469V8.60303Z" fill="#4A1815"/>
<path d="M114.872 8.60303H102.487V11.336H114.872V8.60303Z" fill="#4A1815"/>
<path d="M115.368 8.60303H101.989V9.38403H115.368V8.60303Z" fill="#4A1815"/>
<path d="M181.916 8.60303H130.742V11.336H181.916V8.60303Z" fill="#4A1815"/>
<path d="M181.917 8.60303H130.246V9.38403H181.917V8.60303Z" fill="#4A1815"/>
<path d="M11.2299 8.60303H8.49695V14.707H11.2299V8.60303Z" fill="#4A1815"/>
<path d="M9.27795 8.60303H8.49695V15.204H9.27795V8.60303Z" fill="#4A1815"/>
<path d="M181.916 8.60303H181.171V15.204H181.916V8.60303Z" fill="#4A1815"/>
<path d="M181.916 8.60303H179.219V14.707H181.916V8.60303Z" fill="#4A1815"/>
<path d="M181.916 33.516H181.171V42.282H181.916V33.516Z" fill="#4A1815"/>
<path d="M181.916 34.048H179.219V41.784H181.916V34.048Z" fill="#4A1815"/>
<path d="M181.916 57.188H181.171V66.699H181.916V57.188Z" fill="#4A1815"/>
<path d="M181.916 57.684H179.219V66.201H181.916V57.684Z" fill="#4A1815"/>
<path d="M181.916 78.752H181.171V88.263H181.916V78.752Z" fill="#4A1815"/>
<path d="M181.916 79.213H179.219V87.73H181.916V79.213Z" fill="#4A1815"/>
<path d="M181.916 103.342H181.171V116.685H181.916V103.342Z" fill="#4A1815"/>
<path d="M181.916 103.838H179.219V116.188H181.916V103.838Z" fill="#4A1815"/>
<path d="M181.916 131.797H181.171V141.308H181.916V131.797Z" fill="#4A1815"/>
<path d="M181.916 132.294H179.219V140.811H181.916V132.294Z" fill="#4A1815"/>
<path d="M181.916 156.398H181.171V165.128H181.916V156.398Z" fill="#4A1815"/>
<path d="M181.916 156.896H179.219V164.668H181.916V156.896Z" fill="#4A1815"/>
<path d="M181.916 180.225H181.171V196.017H181.916V180.225Z" fill="#4A1815"/>
<path d="M181.916 180.756H179.219V196.264H181.916V180.756Z" fill="#4A1815"/>
<path d="M181.916 194.667H181.171V208.827H181.916V194.667Z" fill="#4A1815"/>
<path d="M181.916 195.163H179.219V208.329H181.916V195.163Z" fill="#4A1815"/>
<path d="M181.952 232.994H147.812V233.739H181.952V232.994Z" fill="#4A1815"/>
<path d="M181.916 224.051H181.171V233.775H181.916V224.051Z" fill="#4A1815"/>
<path d="M181.136 231.078H148.274V233.775H181.136V231.078Z" fill="#4A1815"/>
<path d="M129.763 232.994H117.52V233.739H129.763V232.994Z" fill="#4A1815"/>
<path d="M129.232 231.078H118.053V233.775H129.232V231.078Z" fill="#4A1815"/>
<path d="M99.3871 232.994H85.2271V233.739H99.3871V232.994Z" fill="#4A1815"/>
<path d="M98.89 231.078H85.724V233.775H98.89V231.078Z" fill="#4A1815"/>
<path d="M73.5829 232.994H8.49695V233.739H73.5829V232.994Z" fill="#4A1815"/>
<path d="M73.085 231.078H9.27698V233.775H73.085V231.078Z" fill="#4A1815"/>
<path d="M181.916 224.548H179.219V233.775H181.916V224.548Z" fill="#4A1815"/>
<path d="M11.2299 227.635H8.49695V233.739H11.2299V227.635Z" fill="#4A1815"/>
<path d="M9.27795 227.138H8.49695V233.739H9.27795V227.138Z" fill="#4A1815"/>
<path d="M11.2299 199.812H8.49695V208.329H11.2299V199.812Z" fill="#4A1815"/>
<path d="M9.27795 199.315H8.49695V208.826H9.27795V199.315Z" fill="#4A1815"/>
<path d="M11.2299 142.317H8.49695V150.799H11.2299V142.317Z" fill="#4A1815"/>
<path d="M9.27795 141.784H8.49695V151.295H9.27795V141.784Z" fill="#4A1815"/>
<path d="M11.2299 121.532H8.49695V129.268H11.2299V121.532Z" fill="#4A1815"/>
<path d="M9.27795 120.999H8.49695V129.765H9.27795V120.999Z" fill="#4A1815"/>
<path d="M11.2299 102.3H8.49695V108.439H11.2299V102.3Z" fill="#4A1815"/>
<path d="M9.27795 101.804H8.49695V109.008H9.27795V101.804Z" fill="#4A1815"/>
<path d="M11.2299 78.473H8.49695V86.209H11.2299V78.473Z" fill="#4A1815"/>
<path d="M9.27795 77.9771H8.49695V86.7071H9.27795V77.9771Z" fill="#4A1815"/>
<path d="M11.2299 55.3879H8.49695V65.4309H11.2299V55.3879Z" fill="#4A1815"/>
<path d="M9.27795 54.892H8.49695V65.964H9.27795V54.892Z" fill="#4A1815"/>
<path d="M11.2299 34.048H8.49695V42.53H11.2299V34.048Z" fill="#4A1815"/>
<path d="M9.27795 33.516H8.49695V43.062H9.27795V33.516Z" fill="#4A1815"/>
<path d="M11.2299 170.013H8.49695V180.801H11.2299V170.013Z" fill="#4A1815"/>
<path d="M9.27795 169.479H8.49695V181.297H9.27795V169.479Z" fill="#4A1815"/>
<path d="M19.71 36.035H10.448V37.951H19.71V36.035Z" fill="#4A1815"/>
<path d="M19.711 26.7371H18.788V37.9161H19.711V26.7371Z" fill="#4A1815"/>
<path d="M39.407 37.348H19.25V37.951H39.407V37.348Z" fill="#4A1815"/>
<path d="M56.216 37.348H46.173V37.951H56.216V37.348Z" fill="#4A1815"/>
<path d="M73.19 37.348H63.147V37.951H73.19V37.348Z" fill="#4A1815"/>
<path d="M75.843 36.035H64.238V37.951H75.843V36.035Z" fill="#4A1815"/>
<path d="M46.826 11.087H46.187V37.916H46.826V11.087Z" fill="#4A1815"/>
<path d="M75.811 10.626H73.859V22.905H75.811V10.626Z" fill="#4A1815"/>
<path d="M106.343 10.626H104.391V62.545H106.343V10.626Z" fill="#4A1815"/>
<path d="M75.807 21.9821H75.026V37.9521H75.807V21.9821Z" fill="#4A1815"/>
<path d="M146.054 10.626H144.102V24.431H146.054V10.626Z" fill="#4A1815"/>
<path d="M146.053 21.9821H145.414V36.6031H146.053V21.9821Z" fill="#4A1815"/>
<path d="M179.432 36.035H170.702V37.951H179.432V36.035Z" fill="#4A1815"/>
<path d="M171.66 26.7371H170.702V36.3191H171.66V26.7371Z" fill="#4A1815"/>
<path d="M171.128 36.035H152.887V36.638H171.128V36.035Z" fill="#4A1815"/>
<path d="M154.342 36.355H153.703V37.278H154.342V36.355Z" fill="#4A1815"/>
<path d="M179.894 60.3051H122.403V62.2571H179.894V60.3051Z" fill="#4A1815"/>
<path d="M180.604 84.416H154.165V85.055H180.604V84.416Z" fill="#4A1815"/>
<path d="M179.716 107.358H129.465V109.31H179.716V107.358Z" fill="#4A1815"/>
<path d="M171.554 98.234H170.631V107.709H171.554V98.234Z" fill="#4A1815"/>
<path d="M170.703 108.891H169.78V118.544H170.703V108.891Z" fill="#4A1815"/>
<path d="M179.61 133.655H167.615V135.607H179.61V133.655Z" fill="#4A1815"/>
<path d="M168.111 134.965H149.764V135.604H168.111V134.965Z" fill="#4A1815"/>
<path d="M150.367 134.95H149.764V140.628H150.367V134.95Z" fill="#4A1815"/>
<path d="M179.433 161.753H125.526V163.705H179.433V161.753Z" fill="#4A1815"/>
<path d="M171.412 162.923H170.454V172.931H171.412V162.923Z" fill="#4A1815"/>
<path d="M179.645 182.867H170.454V183.506H179.645V182.867Z" fill="#4A1815"/>
<path d="M150.542 147.638H143.125V148.277H150.542V147.638Z" fill="#4A1815"/>
<path d="M150.367 147.589H149.764V162.281H150.367V147.589Z" fill="#4A1815"/>
<path d="M127.734 147.561H125.818V169.635H127.734V147.561Z" fill="#4A1815"/>
<path d="M136.924 147.638H125.781V148.277H136.924V147.638Z" fill="#4A1815"/>
<path d="M130.914 147.979H127.223V162.103H130.914V147.979Z" fill="#4A1815"/>
<path d="M126.461 169.205H125.822V170.021H126.461V169.205Z" fill="#4A1815"/>
<path d="M126.461 177.642H125.822V178.458H126.461V177.642Z" fill="#4A1815"/>
<path d="M141.887 162.968H141.248V170.385H141.887V162.968Z" fill="#4A1815"/>
<path d="M179.538 200.203H159.665V204.462H179.538V200.203Z" fill="#4A1815"/>
<path d="M160.304 192.821H159.665V201.764H160.304V192.821Z" fill="#4A1815"/>
<path d="M160.304 192.821H150.261V194.737H160.304V192.821Z" fill="#4A1815"/>
<path d="M152.639 203.858H149.445V204.461H152.639V203.858Z" fill="#4A1815"/>
<path d="M151.574 203.858H150.935V231.752H151.574V203.858Z" fill="#4A1815"/>
<path d="M127.007 222.489H116.467V223.412H127.007V222.489Z" fill="#4A1815"/>
<path d="M127.734 177.739H125.818V231.575H127.734V177.739Z" fill="#4A1815"/>
<path d="M141.872 178.052H125.76V182.133H141.872V178.052Z" fill="#4A1815"/>
<path d="M127.442 178.061H111.33V180.013H127.442V178.061Z" fill="#4A1815"/>
<path d="M141.887 178.028H141.248V187.929H141.887V178.028Z" fill="#4A1815"/>
<path d="M141.869 198.783H127.39V199.457H141.869V198.783Z" fill="#4A1815"/>
<path d="M141.887 193.921H141.248V204.461H141.887V193.921Z" fill="#4A1815"/>
<path d="M142.629 203.858H141.245V204.461H142.629V203.858Z" fill="#4A1815"/>
<path d="M96.495 219.437H94.579V232.994H96.495V219.437Z" fill="#4A1815"/>
<path d="M96.492 202.261H95.853V220.112H96.492V202.261Z" fill="#4A1815"/>
<path d="M96.514 202.261H87.252V202.9H96.514V202.261Z" fill="#4A1815"/>
<path d="M80.271 202.261H63.627V202.9H80.271V202.261Z" fill="#4A1815"/>
<path d="M64.656 171.528H62.704V231.432H64.656V171.528Z" fill="#4A1815"/>
<path d="M64.6519 171.464H64.0129V172.351H64.6519V171.464Z" fill="#4A1815"/>
<path d="M64.6519 162.957H64.0129V163.844H64.6519V162.957Z" fill="#4A1815"/>
<path d="M64.666 133.171H59.84V163.514H64.666V133.171Z" fill="#4A1815"/>
<path d="M64.666 89.811H59.84V123.596H64.666V89.811Z" fill="#4A1815"/>
<path d="M64.656 131.924H62.704V134.479H64.656V131.924Z" fill="#4A1815"/>
<path d="M64.6519 131.505H64.0129V132.428H64.6519V131.505Z" fill="#4A1815"/>
<path d="M64.6519 122.998H64.0129V123.921H64.6519V122.998Z" fill="#4A1815"/>
<path d="M64.656 84.866H62.704V90.012H64.656V84.866Z" fill="#4A1815"/>
<path d="M64.666 60.2841H59.84V76.4671H64.666V60.2841Z" fill="#4A1815"/>
<path d="M64.6519 84.451H64.0129V85.196H64.6519V84.451Z" fill="#4A1815"/>
<path d="M64.6519 76.05H64.0129V76.795H64.6519V76.05Z" fill="#4A1815"/>
<path d="M69.217 60.3051H10.448V62.2571H69.217V60.3051Z" fill="#4A1815"/>
<path d="M54.697 45.429H54.058V60.76H54.697V45.429Z" fill="#4A1815"/>
<path d="M68.005 45.429H67.402V60.76H68.005V45.429Z" fill="#4A1815"/>
<path d="M67.733 56.701H54.354V61.031H67.733V56.701Z" fill="#4A1815"/>
<path d="M67.993 45.688H60.895V46.327H67.993V45.688Z" fill="#4A1815"/>
<path d="M86.114 45.4301H85.475V60.6541H86.114V45.4301Z" fill="#4A1815"/>
<path d="M86.093 45.688H80.45V46.327H86.093V45.688Z" fill="#4A1815"/>
<path d="M61.3509 75.803H55.8149V76.406H61.3509V75.803Z" fill="#4A1815"/>
<path d="M42.943 61.274H42.304V76.463H42.943V61.274Z" fill="#4A1815"/>
<path d="M41.812 45.429H41.209V60.76H41.812V45.429Z" fill="#4A1815"/>
<path d="M49.677 75.803H42.295V76.406H49.677V75.803Z" fill="#4A1815"/>
<path d="M47.931 45.688H36.184V46.327H47.931V45.688Z" fill="#4A1815"/>
<path d="M36.836 44.978H36.197V46.256H36.836V44.978Z" fill="#4A1815"/>
<path d="M36.836 37.348H36.197V38.626H36.836V37.348Z" fill="#4A1815"/>
<path d="M61.659 104.887H10.165V106.839H61.659V104.887Z" fill="#4A1815"/>
<path d="M50.567 84.865H49.928V90.543H50.567V84.865Z" fill="#4A1815"/>
<path d="M60.737 89.887H49.913V90.526H60.737V89.887Z" fill="#4A1815"/>
<path d="M60.286 90.174H56.524V105.611H60.286V90.174Z" fill="#4A1815"/>
<path d="M43.133 83.392H10.839V84.031H43.133V83.392Z" fill="#4A1815"/>
<path d="M19.782 95.631H18.859V116.143H19.782V95.631Z" fill="#4A1815"/>
<path d="M19.7821 123.74H10.5551V124.379H19.7821V123.74Z" fill="#4A1815"/>
<path d="M39.039 123.74H27.363V124.379H39.039V123.74Z" fill="#4A1815"/>
<path d="M47.32 106.446H46.681V120.038H47.32V106.446Z" fill="#4A1815"/>
<path d="M48.595 119.363H46.679V120.002H48.595V119.363Z" fill="#4A1815"/>
<path d="M60.718 119.363H54.791V120.002H60.718V119.363Z" fill="#4A1815"/>
<path d="M60.716 133.271H55.144V133.91H60.716V133.271Z" fill="#4A1815"/>
<path d="M61.019 147.139H10.413V149.055H61.019V147.139Z" fill="#4A1815"/>
<path d="M42.943 133.227H42.304V147.955H42.943V133.227Z" fill="#4A1815"/>
<path d="M40.753 148.753H40.15V163.481H40.753V148.753Z" fill="#4A1815"/>
<path d="M40.753 170.396H40.15V182.391H40.753V170.396Z" fill="#4A1815"/>
<path d="M49.191 174.04H48.552V192.104H49.191V174.04Z" fill="#4A1815"/>
<path d="M40.753 189.337H40.15V203.426H40.753V189.337Z" fill="#4A1815"/>
<path d="M48.968 133.271H42.296V133.91H48.968V133.271Z" fill="#4A1815"/>
<path d="M50.324 162.852H40.139V163.491H50.324V162.852Z" fill="#4A1815"/>
<path d="M63.7219 162.852H56.5179V163.491H63.7219V162.852Z" fill="#4A1815"/>
<path d="M63.682 174.148H57.72V174.751H63.682V174.148Z" fill="#4A1815"/>
<path d="M63.7531 185.55H48.8831V186.153H63.7531V185.55Z" fill="#4A1815"/>
<path d="M63.7531 198.144H48.5291V204.532H63.7531V198.144Z" fill="#4A1815"/>
<path d="M22.8339 175.449H10.9449V177.401H22.8339V175.449Z" fill="#4A1815"/>
<path d="M40.756 175.454H22.444V176.093H40.756V175.454Z" fill="#4A1815"/>
<path d="M22.799 202.58H10.839V204.532H22.799V202.58Z" fill="#4A1815"/>
<path d="M40.968 202.58H22.621V203.219H40.968V202.58Z" fill="#4A1815"/>
<path d="M19.782 221.78H18.859V232.533H19.782V221.78Z" fill="#4A1815"/>
<path d="M114.265 45.511H105.286V51.012H114.265V45.511Z" fill="#4A1815"/>
<path d="M142.612 45.759H126.536V46.398H142.612V45.759Z" fill="#4A1815"/>
<path d="M154.342 45.759H148.699V46.469H154.342V45.759Z" fill="#4A1815"/>
<path d="M130.243 45.5H126.588V60.654H130.243V45.5Z" fill="#4A1815"/>
<path d="M114.338 60.3051H77.2531V62.2571H114.338V60.3051Z" fill="#4A1815"/>
<path d="M114.636 60.306H113.926V60.945H114.636V60.306Z" fill="#4A1815"/>
<path d="M69.276 60.306H68.566V60.945H69.276V60.306Z" fill="#4A1815"/>
<path d="M77.642 60.306H76.932V60.945H77.642V60.306Z" fill="#4A1815"/>
<path d="M123.002 60.306H122.292V60.945H123.002V60.306Z" fill="#4A1815"/>
<path d="M96.9999 61.844H78.4399V72.987H96.9999V61.844Z" fill="#4A1815"/>
<path d="M111.988 62.048H95.947V78.444H111.988V62.048Z" fill="#4A1815"/>
<path d="M80.045 72.053H78.484V97.214H80.045V72.053Z" fill="#4A1815"/>
<path d="M83.727 110.724H78.475V180.139H83.727V110.724Z" fill="#4A1815"/>
<path d="M85.919 92.957H79.283V94.518H85.919V92.957Z" fill="#4A1815"/>
<path d="M98.408 92.957H94.007V94.518H98.408V92.957Z" fill="#4A1815"/>
<path d="M111.99 69.861H110.429V97.222H111.99V69.861Z" fill="#4A1815"/>
<path d="M111.999 92.957H106.463V94.518H111.999V92.957Z" fill="#4A1815"/>
<path d="M96.953 72.449H95.427V93.174H96.953V72.449Z" fill="#4A1815"/>
<path d="M80.042 96.7H79.616V97.658H80.042V96.7Z" fill="#4A1815"/>
<path d="M110.858 96.629H110.432V97.658H110.858V96.629Z" fill="#4A1815"/>
<path d="M110.858 108.842H110.432V109.871H110.858V108.842Z" fill="#4A1815"/>
<path d="M80.045 109.404H78.484V111.675H80.045V109.404Z" fill="#4A1815"/>
<path d="M111.99 109.404H110.429V111.675H111.99V109.404Z" fill="#4A1815"/>
<path d="M111.964 110.724H106.321V180.139H111.964V110.724Z" fill="#4A1815"/>
<path d="M80.042 108.842H79.616V110.12H80.042V108.842Z" fill="#4A1815"/>
<path d="M85.022 117.84H83.248V180.086H85.022V117.84Z" fill="#4A1815"/>
<path d="M106.801 117.84H105.027V180.086H106.801V117.84Z" fill="#4A1815"/>
<path d="M88.882 118.054H83.239V119.615H88.882V118.054Z" fill="#4A1815"/>
<path d="M106.846 118.054H101.203V119.615H106.846V118.054Z" fill="#4A1815"/>
<path d="M89.469 119.187H88.475V119.613H89.469V119.187Z" fill="#4A1815"/>
<path d="M101.611 119.187H100.617V119.613H101.611V119.187Z" fill="#4A1815"/>
<path d="M95.539 140.286H94.652V164.241H95.539V140.286Z" fill="#4A1815"/>
<path d="M106.54 173.418H82.869V179.983H106.54V173.418Z" fill="#4A1815"/>
<path d="M104.657 57.019H85.7061V61.526H104.657V57.019Z" fill="#4A1815"/>
<path d="M154.342 44.339H153.703V46.504H154.342V44.339Z" fill="#4A1815"/>
<path d="M149.302 45.5H148.699V61.044H149.302V45.5Z" fill="#4A1815"/>
<path d="M149.8 62.087H149.161V76.424H149.8V62.087Z" fill="#4A1815"/>
<path d="M154.768 75.803H143.021V76.406H154.768V75.803Z" fill="#4A1815"/>
<path d="M137.029 75.803H127.163V76.406H137.029V75.803Z" fill="#4A1815"/>
<path d="M154.768 75.801H154.165V77.398H154.768V75.801Z" fill="#4A1815"/>
<path d="M130.881 61.875H125.806V76.425H130.881V61.875Z" fill="#4A1815"/>
<path d="M126.461 75.449H125.822V76.833H126.461V75.449Z" fill="#4A1815"/>
<path d="M126.461 84.45H125.822V85.834H126.461V84.45Z" fill="#4A1815"/>
<path d="M127.734 84.868H125.818V89.127H127.734V84.868Z" fill="#4A1815"/>
<path d="M131.057 88.33H125.805V134.429H131.057V88.33Z" fill="#4A1815"/>
<path d="M127.734 133.928H125.818V139.18H127.734V133.928Z" fill="#4A1815"/>
<path d="M126.461 139.025H125.822V139.628H126.461V139.025Z" fill="#4A1815"/>
<path d="M126.461 147.213H125.822V148.171H126.461V147.213Z" fill="#4A1815"/>
<path d="M142.255 133.659H129.586V134.298H142.255V133.659Z" fill="#4A1815"/>
<path d="M142.276 133.644H141.637V139.287H142.276V133.644Z" fill="#4A1815"/>
<path d="M70.036 189.462H63.932V191.414H70.036V189.462Z" fill="#4A1815"/>
<path d="M70.441 189.468H69.731V190.107H70.441V189.468Z" fill="#4A1815"/>
<path d="M78.807 189.468H78.097V190.107H78.807V189.468Z" fill="#4A1815"/>
<path d="M86.236 193.176H80.238V193.815H86.236V193.176Z" fill="#4A1815"/>
<path d="M102.977 193.176H92.401V193.815H102.977V193.176Z" fill="#4A1815"/>
<path d="M80.435 178.214H78.483V194.042H80.435V178.214Z" fill="#4A1815"/>
<path d="M102.964 179.454H97.463V194.04H102.964V179.454Z" fill="#4A1815"/>
<path d="M76.934 60.897V68.598" stroke="#4A1815" stroke-width="0.283" stroke-miterlimit="10"/>
<mask id="mask0_2003_266" style="mask-type:luminance" maskUnits="userSpaceOnUse" x="0" y="0" width="182" height="240">
<path d="M181.952 0H0V240H181.952V0Z" fill="white"/>
</mask>
<g mask="url(#mask0_2003_266)">
<path d="M76.9321 68.566C75.9259 68.5669 74.9294 68.3694 73.9997 67.9848C73.0699 67.6002 72.2251 67.036 71.5136 66.3245C70.8021 65.613 70.2379 64.7682 69.8533 63.8385C69.4687 62.9087 69.2712 61.9122 69.2721 60.906" stroke="#4A1815" stroke-width="0.283" stroke-miterlimit="10"/>
<path d="M122.295 60.9071V68.5671" stroke="#4A1815" stroke-width="0.283" stroke-miterlimit="10"/>
<path d="M122.293 68.566C121.287 68.5669 120.29 68.3694 119.361 67.9848C118.431 67.6002 117.586 67.036 116.875 66.3245C116.163 65.613 115.599 64.7682 115.214 63.8385C114.83 62.9087 114.632 61.9122 114.633 60.906" stroke="#4A1815" stroke-width="0.283" stroke-miterlimit="10"/>
<path d="M125.824 76.828H118.164" stroke="#4A1815" stroke-width="0.283" stroke-miterlimit="10"/>
<path d="M118.165 76.828C118.164 77.8342 118.362 78.8307 118.746 79.7604C119.131 80.6902 119.695 81.535 120.407 82.2465C121.118 82.958 121.963 83.5222 122.893 83.9068C123.822 84.2914 124.819 84.4889 125.825 84.488" stroke="#4A1815" stroke-width="0.283" stroke-miterlimit="10"/>
<path d="M80.04 108.845H86.994" stroke="#4A1815" stroke-width="0.283" stroke-miterlimit="10"/>
<path d="M86.9981 108.85C86.9992 107.936 86.8202 107.032 86.4711 106.187C86.1221 105.343 85.6099 104.576 84.9639 103.93C84.318 103.284 83.5509 102.772 82.7066 102.423C81.8624 102.074 80.9576 101.895 80.0441 101.896" stroke="#4A1815" stroke-width="0.283" stroke-miterlimit="10"/>
<path d="M80.04 97.655H84.241" stroke="#4A1815" stroke-width="0.283" stroke-miterlimit="10"/>
<path d="M84.241 97.655C84.2426 98.207 84.1351 98.7539 83.9245 99.2642C83.714 99.7745 83.4047 100.238 83.0144 100.628C82.6241 101.019 82.1604 101.328 81.6502 101.539C81.1399 101.749 80.593 101.857 80.041 101.855" stroke="#4A1815" stroke-width="0.283" stroke-miterlimit="10"/>
<path d="M110.434 108.845H103.48" stroke="#4A1815" stroke-width="0.283" stroke-miterlimit="10"/>
<path d="M103.48 108.85C103.479 107.936 103.658 107.032 104.007 106.187C104.356 105.343 104.868 104.576 105.514 103.93C106.16 103.284 106.927 102.772 107.771 102.423C108.616 102.074 109.52 101.895 110.434 101.896" stroke="#4A1815" stroke-width="0.283" stroke-miterlimit="10"/>
<path d="M110.434 97.655H106.198" stroke="#4A1815" stroke-width="0.283" stroke-miterlimit="10"/>
<path d="M106.198 97.655C106.196 98.207 106.304 98.7539 106.514 99.2642C106.725 99.7745 107.034 100.238 107.425 100.628C107.815 101.019 108.279 101.328 108.789 101.539C109.299 101.749 109.846 101.857 110.398 101.855" stroke="#4A1815" stroke-width="0.283" stroke-miterlimit="10"/>
<path d="M89.4651 119.541V126.495" stroke="#4A1815" stroke-width="0.283" stroke-miterlimit="10"/>
<path d="M89.4651 126.5C90.3786 126.501 91.2834 126.322 92.1277 125.973C92.9719 125.624 93.739 125.112 94.385 124.466C95.0309 123.82 95.5431 123.053 95.8922 122.209C96.2412 121.364 96.4203 120.46 96.4191 119.546" stroke="#4A1815" stroke-width="0.283" stroke-miterlimit="10"/>
<path d="M100.62 119.541V123.777" stroke="#4A1815" stroke-width="0.283" stroke-miterlimit="10"/>
<path d="M100.621 123.777C100.069 123.779 99.5222 123.671 99.0119 123.461C98.5016 123.25 98.038 122.941 97.6477 122.55C97.2573 122.16 96.948 121.696 96.7375 121.186C96.527 120.676 96.4195 120.129 96.421 119.577" stroke="#4A1815" stroke-width="0.283" stroke-miterlimit="10"/>
<path d="M125.824 147.252H118.164" stroke="#4A1815" stroke-width="0.283" stroke-miterlimit="10"/>
<path d="M118.165 147.25C118.164 146.244 118.362 145.247 118.746 144.318C119.131 143.388 119.695 142.543 120.407 141.832C121.118 141.12 121.963 140.556 122.893 140.171C123.822 139.787 124.819 139.589 125.825 139.59" stroke="#4A1815" stroke-width="0.283" stroke-miterlimit="10"/>
<path d="M125.824 177.645H118.164" stroke="#4A1815" stroke-width="0.283" stroke-miterlimit="10"/>
<path d="M118.165 177.644C118.164 176.638 118.362 175.641 118.746 174.712C119.131 173.782 119.695 172.937 120.407 172.225C121.118 171.514 121.963 170.95 122.893 170.565C123.822 170.181 124.819 169.983 125.825 169.984" stroke="#4A1815" stroke-width="0.283" stroke-miterlimit="10"/>
<path d="M64.649 76.828H72.274" stroke="#4A1815" stroke-width="0.283" stroke-miterlimit="10"/>
<path d="M72.2721 76.828C72.273 77.8342 72.0755 78.8307 71.6909 79.7604C71.3062 80.6902 70.742 81.535 70.0306 82.2465C69.3191 82.958 68.4743 83.5222 67.5445 83.9068C66.6147 84.2914 65.6182 84.4889 64.6121 84.488" stroke="#4A1815" stroke-width="0.283" stroke-miterlimit="10"/>
<path d="M64.649 131.578H72.274" stroke="#4A1815" stroke-width="0.283" stroke-miterlimit="10"/>
<path d="M72.2721 131.577C72.273 130.571 72.0755 129.574 71.6909 128.645C71.3062 127.715 70.742 126.87 70.0306 126.158C69.3191 125.447 68.4743 124.883 67.5445 124.498C66.6147 124.114 65.6182 123.916 64.6121 123.917" stroke="#4A1815" stroke-width="0.283" stroke-miterlimit="10"/>
<path d="M64.649 171.503H72.274" stroke="#4A1815" stroke-width="0.283" stroke-miterlimit="10"/>
<path d="M72.2721 171.503C72.2723 170.499 72.0741 169.504 71.6889 168.577C71.3036 167.649 70.7388 166.807 70.027 166.098C69.3152 165.39 68.4704 164.829 67.5411 164.448C66.6118 164.067 65.6164 163.873 64.6121 163.878" stroke="#4A1815" stroke-width="0.283" stroke-miterlimit="10"/>
<path d="M70.474 189.506V181.881" stroke="#4A1815" stroke-width="0.283" stroke-miterlimit="10"/>
<path d="M70.474 181.881C71.4784 181.881 72.4729 182.079 73.4004 182.464C74.3279 182.85 75.1701 183.414 75.8787 184.126C76.5873 184.838 77.1482 185.683 77.5292 186.612C77.9102 187.541 78.1039 188.537 78.099 189.541" stroke="#4A1815" stroke-width="0.283" stroke-miterlimit="10"/>
<path d="M95.5371 140.368H105.174" stroke="#4A1815" stroke-width="0.283" stroke-miterlimit="10"/>
<path d="M105.174 163.454H95.5371" stroke="#4A1815" stroke-width="0.283" stroke-miterlimit="10"/>
<path d="M95.5371 158.83H105.174" stroke="#4A1815" stroke-width="0.283" stroke-miterlimit="10"/>
<path d="M95.5371 161.125H105.174" stroke="#4A1815" stroke-width="0.283" stroke-miterlimit="10"/>
<path d="M95.5371 156.536H105.174" stroke="#4A1815" stroke-width="0.283" stroke-miterlimit="10"/>
<path d="M95.5371 154.206H105.174" stroke="#4A1815" stroke-width="0.283" stroke-miterlimit="10"/>
<path d="M95.5371 151.911H105.174" stroke="#4A1815" stroke-width="0.283" stroke-miterlimit="10"/>
<path d="M95.5371 149.617H105.174" stroke="#4A1815" stroke-width="0.283" stroke-miterlimit="10"/>
<path d="M95.5371 147.287H105.174" stroke="#4A1815" stroke-width="0.283" stroke-miterlimit="10"/>
<path d="M95.5371 144.992H105.174" stroke="#4A1815" stroke-width="0.283" stroke-miterlimit="10"/>
<path d="M95.5371 142.698H105.174" stroke="#4A1815" stroke-width="0.283" stroke-miterlimit="10"/>
<path d="M100.373 163.455V140.898" stroke="#4A1815" stroke-width="0.283" stroke-miterlimit="10"/>
<path d="M100.727 163.454C100.727 163.531 100.704 163.606 100.662 163.67C100.619 163.733 100.558 163.783 100.488 163.812C100.417 163.842 100.339 163.85 100.263 163.835C100.188 163.82 100.119 163.783 100.065 163.728C100.01 163.674 99.9735 163.605 99.9585 163.53C99.9435 163.454 99.9512 163.376 99.9806 163.306C100.01 163.235 100.06 163.174 100.123 163.131C100.187 163.089 100.262 163.066 100.339 163.066C100.44 163.073 100.535 163.116 100.606 163.187C100.677 163.259 100.72 163.353 100.727 163.454Z" fill="#4A1815"/>
<path d="M100.833 141.568H100.762L100.338 140.933L99.95 141.568C99.95 141.603 99.915 141.603 99.879 141.568C99.844 141.568 99.844 141.533 99.879 141.497L100.338 140.791L100.373 140.756C100.382 140.756 100.391 140.76 100.398 140.766C100.404 140.773 100.408 140.782 100.408 140.791L100.867 141.497V141.532C100.867 141.567 100.867 141.567 100.832 141.567" fill="#4A1815"/>
<path d="M85.0181 155.9L88.3721 154.629L88.6901 153.323L89.5021 155.476L89.8551 154.099L94.6551 152.299" stroke="#4A1815" stroke-width="0.283" stroke-miterlimit="10"/>
<path d="M85.0181 157.101L88.3721 155.83L88.6901 154.524L89.5021 156.642L89.8551 155.301L94.6551 153.501" stroke="#4A1815" stroke-width="0.283" stroke-miterlimit="10"/>
<path d="M94.6551 141.145H85.0181" stroke="#4A1815" stroke-width="0.283" stroke-miterlimit="10"/>
<path d="M85.0181 143.439H94.6551" stroke="#4A1815" stroke-width="0.283" stroke-miterlimit="10"/>
<path d="M85.0181 145.769H94.6551" stroke="#4A1815" stroke-width="0.283" stroke-miterlimit="10"/>
<path d="M85.0181 148.064H94.6551" stroke="#4A1815" stroke-width="0.283" stroke-miterlimit="10"/>
<path d="M85.0181 150.358H94.6551" stroke="#4A1815" stroke-width="0.283" stroke-miterlimit="10"/>
<path d="M85.0181 159.607H94.6551" stroke="#4A1815" stroke-width="0.283" stroke-miterlimit="10"/>
<path d="M85.0181 161.937H94.6551" stroke="#4A1815" stroke-width="0.283" stroke-miterlimit="10"/>
<path d="M85.0181 157.277H94.6551" stroke="#4A1815" stroke-width="0.283" stroke-miterlimit="10"/>
<path d="M85.0181 152.688H93.6671" stroke="#4A1815" stroke-width="0.283" stroke-miterlimit="10"/>
<path d="M85.0181 154.982H87.4541" stroke="#4A1815" stroke-width="0.283" stroke-miterlimit="10"/>
<path d="M90.666 154.982H94.655" stroke="#4A1815" stroke-width="0.283" stroke-miterlimit="10"/>
<path d="M89.854 141.145V161.337" stroke="#4A1815" stroke-width="0.283" stroke-miterlimit="10"/>
<path d="M89.4651 141.144C89.4651 141.067 89.4878 140.992 89.5305 140.929C89.5731 140.865 89.6337 140.815 89.7046 140.786C89.7755 140.756 89.8535 140.749 89.9288 140.764C90.0041 140.779 90.0732 140.815 90.1274 140.87C90.1817 140.924 90.2187 140.993 90.2336 141.068C90.2486 141.144 90.2409 141.222 90.2115 141.293C90.1822 141.364 90.1325 141.424 90.0686 141.467C90.0048 141.509 89.9298 141.532 89.8531 141.532C89.7505 141.531 89.6524 141.49 89.5799 141.417C89.5073 141.345 89.4661 141.247 89.4651 141.144Z" fill="#4A1815"/>
<path d="M89.359 160.665H89.43L89.854 161.3L90.278 160.665C90.278 160.63 90.313 160.63 90.349 160.665C90.384 160.665 90.384 160.7 90.349 160.736L89.89 161.442L89.855 161.477C89.8457 161.477 89.8368 161.473 89.8303 161.467C89.8237 161.46 89.82 161.451 89.82 161.442L89.361 160.736V160.701C89.326 160.666 89.361 160.666 89.361 160.666" fill="#4A1815"/>
<path d="M9.22803 15.123V33.338" stroke="#4A1815" stroke-width="0.283" stroke-miterlimit="10"/>
<path d="M9.68701 14.629V33.832" stroke="#4A1815" stroke-width="0.283" stroke-miterlimit="10"/>
<path d="M11.17 14.629V33.832" stroke="#4A1815" stroke-width="0.283" stroke-miterlimit="10"/>
<path d="M9.22803 42.8341V54.9071" stroke="#4A1815" stroke-width="0.283" stroke-miterlimit="10"/>
<path d="M9.68701 42.3391V55.4001" stroke="#4A1815" stroke-width="0.283" stroke-miterlimit="10"/>
<path d="M11.17 42.3391V55.4001" stroke="#4A1815" stroke-width="0.283" stroke-miterlimit="10"/>
<path d="M9.22803 108.986V121.059" stroke="#4A1815" stroke-width="0.283" stroke-miterlimit="10"/>
<path d="M9.68701 108.421V121.553" stroke="#4A1815" stroke-width="0.283" stroke-miterlimit="10"/>
<path d="M11.17 108.421V121.553" stroke="#4A1815" stroke-width="0.283" stroke-miterlimit="10"/>
<path d="M9.22803 186.964V199.531" stroke="#4A1815" stroke-width="0.283" stroke-miterlimit="10"/>
<path d="M9.68701 186.929V200.025" stroke="#4A1815" stroke-width="0.283" stroke-miterlimit="10"/>
<path d="M11.17 186.929V200.025" stroke="#4A1815" stroke-width="0.283" stroke-miterlimit="10"/>
<path d="M73.192 233.031H85.265" stroke="#4A1815" stroke-width="0.283" stroke-miterlimit="10"/>
<path d="M72.698 232.608H85.759" stroke="#4A1815" stroke-width="0.283" stroke-miterlimit="10"/>
<path d="M72.698 231.125H85.759" stroke="#4A1815" stroke-width="0.283" stroke-miterlimit="10"/>
<path d="M69.3441 9.33411H62.9551" stroke="#4A1815" stroke-width="0.283" stroke-miterlimit="10"/>
<path d="M69.8391 9.79309H62.9551" stroke="#4A1815" stroke-width="0.283" stroke-miterlimit="10"/>
<path d="M69.8391 11.275H62.9551" stroke="#4A1815" stroke-width="0.283" stroke-miterlimit="10"/>
<path d="M102.032 9.33411H80.7111" stroke="#4A1815" stroke-width="0.283" stroke-miterlimit="10"/>
<path d="M102.527 9.79309H80.217" stroke="#4A1815" stroke-width="0.283" stroke-miterlimit="10"/>
<path d="M102.527 11.275H80.217" stroke="#4A1815" stroke-width="0.283" stroke-miterlimit="10"/>
<path d="M99.349 233.031H117.564" stroke="#4A1815" stroke-width="0.283" stroke-miterlimit="10"/>
<path d="M98.8551 232.608H118.094" stroke="#4A1815" stroke-width="0.283" stroke-miterlimit="10"/>
<path d="M98.8551 231.125H118.094" stroke="#4A1815" stroke-width="0.283" stroke-miterlimit="10"/>
<path d="M129.708 233.031H142.345" stroke="#4A1815" stroke-width="0.283" stroke-miterlimit="10"/>
<path d="M129.213 232.608H142.345" stroke="#4A1815" stroke-width="0.283" stroke-miterlimit="10"/>
<path d="M129.213 231.125H142.345" stroke="#4A1815" stroke-width="0.283" stroke-miterlimit="10"/>
<path d="M9.22803 151.311V169.526" stroke="#4A1815" stroke-width="0.283" stroke-miterlimit="10"/>
<path d="M9.68701 150.782V170.056" stroke="#4A1815" stroke-width="0.283" stroke-miterlimit="10"/>
<path d="M11.17 150.782V170.056" stroke="#4A1815" stroke-width="0.283" stroke-miterlimit="10"/>
<path d="M9.22803 208.992V227.207" stroke="#4A1815" stroke-width="0.283" stroke-miterlimit="10"/>
<path d="M9.68701 208.497V227.7" stroke="#4A1815" stroke-width="0.283" stroke-miterlimit="10"/>
<path d="M11.17 208.497V227.7" stroke="#4A1815" stroke-width="0.283" stroke-miterlimit="10"/>
<path d="M9.22803 86.677V101.821" stroke="#4A1815" stroke-width="0.283" stroke-miterlimit="10"/>
<path d="M9.68701 86.182V102.314" stroke="#4A1815" stroke-width="0.283" stroke-miterlimit="10"/>
<path d="M11.17 86.182V102.314" stroke="#4A1815" stroke-width="0.283" stroke-miterlimit="10"/>
<path d="M181.175 224.136V208.992" stroke="#4A1815" stroke-width="0.283" stroke-miterlimit="10"/>
<path d="M179.234 224.629V208.497" stroke="#4A1815" stroke-width="0.283" stroke-miterlimit="10"/>
<path d="M180.716 224.629V208.497" stroke="#4A1815" stroke-width="0.283" stroke-miterlimit="10"/>
<path d="M181.175 156.43V141.286" stroke="#4A1815" stroke-width="0.283" stroke-miterlimit="10"/>
<path d="M179.234 156.924V140.827" stroke="#4A1815" stroke-width="0.283" stroke-miterlimit="10"/>
<path d="M180.716 156.924V140.827" stroke="#4A1815" stroke-width="0.283" stroke-miterlimit="10"/>
<path d="M181.175 57.201V42.057" stroke="#4A1815" stroke-width="0.283" stroke-miterlimit="10"/>
<path d="M179.234 57.695V41.563" stroke="#4A1815" stroke-width="0.283" stroke-miterlimit="10"/>
<path d="M180.716 57.695V41.563" stroke="#4A1815" stroke-width="0.283" stroke-miterlimit="10"/>
<path d="M181.175 65.108V80.322" stroke="#4A1815" stroke-width="0.283" stroke-miterlimit="10"/>
<path d="M179.234 66.167V80.322" stroke="#4A1815" stroke-width="0.283" stroke-miterlimit="10"/>
<path d="M180.716 66.167V80.322" stroke="#4A1815" stroke-width="0.283" stroke-miterlimit="10"/>
<path d="M181.175 33.338V15.123" stroke="#4A1815" stroke-width="0.283" stroke-miterlimit="10"/>
<path d="M179.234 33.868V14.629" stroke="#4A1815" stroke-width="0.283" stroke-miterlimit="10"/>
<path d="M180.716 33.868V14.629" stroke="#4A1815" stroke-width="0.283" stroke-miterlimit="10"/>
<path d="M181.175 103.374V88.2301" stroke="#4A1815" stroke-width="0.283" stroke-miterlimit="10"/>
<path d="M179.234 103.868V87.7361" stroke="#4A1815" stroke-width="0.283" stroke-miterlimit="10"/>
<path d="M180.716 103.868V87.7361" stroke="#4A1815" stroke-width="0.283" stroke-miterlimit="10"/>
<path d="M181.175 131.825V116.646" stroke="#4A1815" stroke-width="0.283" stroke-miterlimit="10"/>
<path d="M179.234 132.319V116.152" stroke="#4A1815" stroke-width="0.283" stroke-miterlimit="10"/>
<path d="M180.716 132.319V116.152" stroke="#4A1815" stroke-width="0.283" stroke-miterlimit="10"/>
<path d="M181.175 180.293V165.114" stroke="#4A1815" stroke-width="0.283" stroke-miterlimit="10"/>
<path d="M179.234 180.822V164.655" stroke="#4A1815" stroke-width="0.283" stroke-miterlimit="10"/>
<path d="M180.716 180.822V164.655" stroke="#4A1815" stroke-width="0.283" stroke-miterlimit="10"/>
<path d="M179.234 80.322H181.176" stroke="#4A1815" stroke-width="0.283" stroke-miterlimit="10"/>
<path d="M62.9551 11.2761V9.33411" stroke="#4A1815" stroke-width="0.283" stroke-miterlimit="10"/>
<path d="M18.865 11.275V16.217" stroke="#4A1815" stroke-width="0.283" stroke-miterlimit="10"/>
<path d="M19.1471 11.275V16.217" stroke="#4A1815" stroke-width="0.283" stroke-miterlimit="10"/>
<path d="M19.4301 11.275V16.217" stroke="#4A1815" stroke-width="0.283" stroke-miterlimit="10"/>
<path d="M18.865 16.217H19.43" stroke="#4A1815" stroke-width="0.283" stroke-miterlimit="10"/>
<path d="M18.865 26.595V21.618" stroke="#4A1815" stroke-width="0.283" stroke-miterlimit="10"/>
<path d="M19.1471 26.595V21.618" stroke="#4A1815" stroke-width="0.283" stroke-miterlimit="10"/>
<path d="M19.4301 26.595V21.618" stroke="#4A1815" stroke-width="0.283" stroke-miterlimit="10"/>
<path d="M18.865 21.618H19.43" stroke="#4A1815" stroke-width="0.283" stroke-miterlimit="10"/>
<path d="M18.9 204.72V210.58" stroke="#4A1815" stroke-width="0.283" stroke-miterlimit="10"/>
<path d="M19.218 204.72V210.58" stroke="#4A1815" stroke-width="0.283" stroke-miterlimit="10"/>
<path d="M19.5 204.72V210.58" stroke="#4A1815" stroke-width="0.283" stroke-miterlimit="10"/>
<path d="M18.9 210.58H19.5" stroke="#4A1815" stroke-width="0.283" stroke-miterlimit="10"/>
<path d="M18.9 221.876V215.981" stroke="#4A1815" stroke-width="0.283" stroke-miterlimit="10"/>
<path d="M19.218 221.876V215.981" stroke="#4A1815" stroke-width="0.283" stroke-miterlimit="10"/>
<path d="M19.5 221.876V215.981" stroke="#4A1815" stroke-width="0.283" stroke-miterlimit="10"/>
<path d="M18.9 215.981H19.5" stroke="#4A1815" stroke-width="0.283" stroke-miterlimit="10"/>
<path d="M18.936 84.0291V87.2771" stroke="#4A1815" stroke-width="0.283" stroke-miterlimit="10"/>
<path d="M19.218 84.0291V87.2771" stroke="#4A1815" stroke-width="0.283" stroke-miterlimit="10"/>
<path d="M19.536 84.0291V87.2771" stroke="#4A1815" stroke-width="0.283" stroke-miterlimit="10"/>
<path d="M18.936 87.2771H19.536" stroke="#4A1815" stroke-width="0.283" stroke-miterlimit="10"/>
<path d="M18.936 95.6791V92.6781" stroke="#4A1815" stroke-width="0.283" stroke-miterlimit="10"/>
<path d="M19.218 95.6791V92.6781" stroke="#4A1815" stroke-width="0.283" stroke-miterlimit="10"/>
<path d="M19.536 95.6791V92.6781" stroke="#4A1815" stroke-width="0.283" stroke-miterlimit="10"/>
<path d="M18.936 92.6781H19.536" stroke="#4A1815" stroke-width="0.283" stroke-miterlimit="10"/>
<path d="M170.938 11.275V16.217" stroke="#4A1815" stroke-width="0.283" stroke-miterlimit="10"/>
<path d="M171.256 11.275V16.217" stroke="#4A1815" stroke-width="0.283" stroke-miterlimit="10"/>
<path d="M171.538 11.275V16.217" stroke="#4A1815" stroke-width="0.283" stroke-miterlimit="10"/>
<path d="M170.938 16.217H171.538" stroke="#4A1815" stroke-width="0.283" stroke-miterlimit="10"/>
<path d="M170.938 26.595V21.618" stroke="#4A1815" stroke-width="0.283" stroke-miterlimit="10"/>
<path d="M171.256 26.595V21.618" stroke="#4A1815" stroke-width="0.283" stroke-miterlimit="10"/>
<path d="M171.538 26.595V21.618" stroke="#4A1815" stroke-width="0.283" stroke-miterlimit="10"/>
<path d="M170.938 21.618H171.538" stroke="#4A1815" stroke-width="0.283" stroke-miterlimit="10"/>
<path d="M170.02 118.517V123.424" stroke="#4A1815" stroke-width="0.283" stroke-miterlimit="10"/>
<path d="M170.303 118.517V123.424" stroke="#4A1815" stroke-width="0.283" stroke-miterlimit="10"/>
<path d="M170.585 118.517V123.424" stroke="#4A1815" stroke-width="0.283" stroke-miterlimit="10"/>
<path d="M170.02 123.424H170.585" stroke="#4A1815" stroke-width="0.283" stroke-miterlimit="10"/>
<path d="M170.726 172.915V175.21" stroke="#4A1815" stroke-width="0.283" stroke-miterlimit="10"/>
<path d="M171.009 172.915V175.21" stroke="#4A1815" stroke-width="0.283" stroke-miterlimit="10"/>
<path d="M171.291 172.915V175.21" stroke="#4A1815" stroke-width="0.283" stroke-miterlimit="10"/>
<path d="M170.726 175.209H171.291" stroke="#4A1815" stroke-width="0.283" stroke-miterlimit="10"/>
<path d="M96.49 223.324H103.832" stroke="#4A1815" stroke-width="0.283" stroke-miterlimit="10"/>
<path d="M96.49 223.041H103.832" stroke="#4A1815" stroke-width="0.283" stroke-miterlimit="10"/>
<path d="M96.49 222.723H103.832" stroke="#4A1815" stroke-width="0.283" stroke-miterlimit="10"/>
<path d="M103.833 223.323V222.723" stroke="#4A1815" stroke-width="0.283" stroke-miterlimit="10"/>
<path d="M116.505 223.324H109.198" stroke="#4A1815" stroke-width="0.283" stroke-miterlimit="10"/>
<path d="M116.505 223.041H109.198" stroke="#4A1815" stroke-width="0.283" stroke-miterlimit="10"/>
<path d="M116.505 222.723H109.198" stroke="#4A1815" stroke-width="0.283" stroke-miterlimit="10"/>
<path d="M109.198 223.323V222.723" stroke="#4A1815" stroke-width="0.283" stroke-miterlimit="10"/>
<path d="M170.726 182.87V180.575" stroke="#4A1815" stroke-width="0.283" stroke-miterlimit="10"/>
<path d="M171.009 182.87V180.575" stroke="#4A1815" stroke-width="0.283" stroke-miterlimit="10"/>
<path d="M171.291 182.87V180.575" stroke="#4A1815" stroke-width="0.283" stroke-miterlimit="10"/>
<path d="M170.726 180.575H171.291" stroke="#4A1815" stroke-width="0.283" stroke-miterlimit="10"/>
<path d="M170.02 133.661V128.754" stroke="#4A1815" stroke-width="0.283" stroke-miterlimit="10"/>
<path d="M170.303 133.661V128.754" stroke="#4A1815" stroke-width="0.283" stroke-miterlimit="10"/>
<path d="M170.585 133.661V128.754" stroke="#4A1815" stroke-width="0.283" stroke-miterlimit="10"/>
<path d="M170.02 128.754H170.585" stroke="#4A1815" stroke-width="0.283" stroke-miterlimit="10"/>
<path d="M170.868 85.0531V88.9361" stroke="#4A1815" stroke-width="0.283" stroke-miterlimit="10"/>
<path d="M171.15 85.0531V88.9361" stroke="#4A1815" stroke-width="0.283" stroke-miterlimit="10"/>
<path d="M171.468 85.0531V88.9361" stroke="#4A1815" stroke-width="0.283" stroke-miterlimit="10"/>
<path d="M170.868 88.936H171.468" stroke="#4A1815" stroke-width="0.283" stroke-miterlimit="10"/>
<path d="M170.868 98.255V94.337" stroke="#4A1815" stroke-width="0.283" stroke-miterlimit="10"/>
<path d="M171.15 98.255V94.337" stroke="#4A1815" stroke-width="0.283" stroke-miterlimit="10"/>
<path d="M171.468 98.255V94.337" stroke="#4A1815" stroke-width="0.283" stroke-miterlimit="10"/>
<path d="M170.868 94.337H171.468" stroke="#4A1815" stroke-width="0.283" stroke-miterlimit="10"/>
<path d="M18.936 116.082V117.212" stroke="#4A1815" stroke-width="0.283" stroke-miterlimit="10"/>
<path d="M19.218 116.082V117.212" stroke="#4A1815" stroke-width="0.283" stroke-miterlimit="10"/>
<path d="M19.536 116.082V117.212" stroke="#4A1815" stroke-width="0.283" stroke-miterlimit="10"/>
<path d="M18.936 117.211H19.536" stroke="#4A1815" stroke-width="0.283" stroke-miterlimit="10"/>
<path d="M18.936 123.742V122.577" stroke="#4A1815" stroke-width="0.283" stroke-miterlimit="10"/>
<path d="M19.218 123.742V122.577" stroke="#4A1815" stroke-width="0.283" stroke-miterlimit="10"/>
<path d="M19.536 123.742V122.577" stroke="#4A1815" stroke-width="0.283" stroke-miterlimit="10"/>
<path d="M18.936 122.577H19.536" stroke="#4A1815" stroke-width="0.283" stroke-miterlimit="10"/>
<path d="M93.3491 74.78H84.9121V90.947H93.3491V74.78Z" stroke="#4A1815" stroke-width="0.283" stroke-miterlimit="10"/>
<path d="M84.9121 74.78L93.3491 90.947" stroke="#4A1815" stroke-width="0.283" stroke-miterlimit="10"/>
<path d="M93.3491 74.78L84.9121 90.947" stroke="#4A1815" stroke-width="0.283" stroke-miterlimit="10"/>
<path d="M106.763 80.146H98.326V90.948H106.763V80.146Z" stroke="#4A1815" stroke-width="0.283" stroke-miterlimit="10"/>
<path d="M98.326 80.146L106.763 90.948" stroke="#4A1815" stroke-width="0.283" stroke-miterlimit="10"/>
<path d="M106.763 80.146L98.326 90.948" stroke="#4A1815" stroke-width="0.283" stroke-miterlimit="10"/>
<path d="M89.9241 91.3361H86.4651V91.6541H89.9241V91.3361Z" fill="#4A1815"/>
<path d="M93.3481 91.6541H89.9241V91.9361H93.3481V91.6541Z" fill="#4A1815"/>
<path d="M89.9241 92.6421H86.4651V92.9601H89.9241V92.6421Z" fill="#4A1815"/>
<path d="M93.3481 92.3241H89.9241V92.6061H93.3481V92.3241Z" fill="#4A1815"/>
<path d="M105.809 91.3361H102.35V91.6541H105.809V91.3361Z" fill="#4A1815"/>
<path d="M102.35 91.6541H98.926V91.9361H102.35V91.6541Z" fill="#4A1815"/>
<path d="M105.809 92.6421H102.35V92.9601H105.809V92.6421Z" fill="#4A1815"/>
<path d="M102.35 92.3241H98.926V92.6061H102.35V92.3241Z" fill="#4A1815"/>
<path d="M48.094 8.55706V2.90906H72.416V8.52206" stroke="#4A1815" stroke-width="0.283" stroke-miterlimit="10"/>
<path d="M47.5641 8.55703V2.37903H72.9451V8.52103" stroke="#4A1815" stroke-width="0.283" stroke-miterlimit="10"/>
<path d="M113.893 8.5571V0.579102H138.251V8.5221" stroke="#4A1815" stroke-width="0.283" stroke-miterlimit="10"/>
<path d="M113.399 8.55805V0.0500488H138.78V8.52205" stroke="#4A1815" stroke-width="0.283" stroke-miterlimit="10"/>
<path d="M10.781 201.791H2.87402V179.022H10.781" stroke="#4A1815" stroke-width="0.283" stroke-miterlimit="10"/>
<path d="M10.7811 202.32H2.34509V178.492H10.7821" stroke="#4A1815" stroke-width="0.283" stroke-miterlimit="10"/>
<path d="M151.029 231.513V239.42H126.707V231.513" stroke="#4A1815" stroke-width="0.283" stroke-miterlimit="10"/>
<path d="M151.559 231.513V239.95H126.178V231.513" stroke="#4A1815" stroke-width="0.283" stroke-miterlimit="10"/>
<path d="M10.781 83.0761H2.87402V63.3761H10.781" stroke="#4A1815" stroke-width="0.283" stroke-miterlimit="10"/>
<path d="M10.7811 83.57H2.34509V62.849H10.7821" stroke="#4A1815" stroke-width="0.283" stroke-miterlimit="10"/>
<path d="M8.48708 144.146H0.580078V124.446H8.48708" stroke="#4A1815" stroke-width="0.283" stroke-miterlimit="10"/>
<path d="M8.48605 144.677H0.0500488V123.918H8.48605" stroke="#4A1815" stroke-width="0.283" stroke-miterlimit="10"/>
<path d="M46.1881 37.4331L40.7161 40.9281" stroke="#4A1815" stroke-width="0.283" stroke-miterlimit="10"/>
<path d="M63.2031 37.4331L57.7311 40.9281" stroke="#4A1815" stroke-width="0.283" stroke-miterlimit="10"/>
<path d="M36.515 38.421L39.233 43.716" stroke="#4A1815" stroke-width="0.283" stroke-miterlimit="10"/>
<path d="M47.8461 45.6231L53.0001 42.4811" stroke="#4A1815" stroke-width="0.283" stroke-miterlimit="10"/>
<path d="M54.624 45.6231L59.813 42.4811" stroke="#4A1815" stroke-width="0.283" stroke-miterlimit="10"/>
<path d="M143.863 88.4771H130.731V89.0771H143.863V88.4771Z" fill="#4A1815"/>
<path d="M143.863 84.417H143.228V89.112H143.863V84.417Z" fill="#4A1815"/>
<path d="M55.9651 76.0861L50.2821 78.4161" stroke="#4A1815" stroke-width="0.283" stroke-miterlimit="10"/>
<path d="M54.412 131.261L48.729 133.591" stroke="#4A1815" stroke-width="0.283" stroke-miterlimit="10"/>
<path d="M55.047 119.682L49.364 121.977" stroke="#4A1815" stroke-width="0.283" stroke-miterlimit="10"/>
<path d="M56.707 163.137L51.024 165.467" stroke="#4A1815" stroke-width="0.283" stroke-miterlimit="10"/>
<path d="M42.587 76.192L44.034 80.146" stroke="#4A1815" stroke-width="0.283" stroke-miterlimit="10"/>
<path d="M42.7991 83.535L44.0351 81.77" stroke="#4A1815" stroke-width="0.283" stroke-miterlimit="10"/>
<path d="M40.469 163.419L42.163 167.09" stroke="#4A1815" stroke-width="0.283" stroke-miterlimit="10"/>
<path d="M40.469 182.269L42.34 188.27" stroke="#4A1815" stroke-width="0.283" stroke-miterlimit="10"/>
<path d="M48.835 198.402L46.54 192.93" stroke="#4A1815" stroke-width="0.283" stroke-miterlimit="10"/>
<path d="M80.005 202.778L85.935 200.025" stroke="#4A1815" stroke-width="0.283" stroke-miterlimit="10"/>
<path d="M92.607 193.671L86.641 196.636" stroke="#4A1815" stroke-width="0.283" stroke-miterlimit="10"/>
<path d="M141.533 187.776L143.863 192.789" stroke="#4A1815" stroke-width="0.283" stroke-miterlimit="10"/>
<path d="M142.592 204.332L148.452 201.861" stroke="#4A1815" stroke-width="0.283" stroke-miterlimit="10"/>
<path d="M159.89 204.332L154.065 201.861" stroke="#4A1815" stroke-width="0.283" stroke-miterlimit="10"/>
<path d="M150.253 147.958L147.958 141.71" stroke="#4A1815" stroke-width="0.283" stroke-miterlimit="10"/>
<path d="M136.732 148.029L141.851 145.487" stroke="#4A1815" stroke-width="0.283" stroke-miterlimit="10"/>
<path d="M154.63 77.3931L151.947 82.9351" stroke="#4A1815" stroke-width="0.283" stroke-miterlimit="10"/>
<path d="M136.697 76.0861L141.957 78.7691" stroke="#4A1815" stroke-width="0.283" stroke-miterlimit="10"/>
<path d="M153.358 36.1621L147.075 39.0211" stroke="#4A1815" stroke-width="0.283" stroke-miterlimit="10"/>
<path d="M154.17 44.316L151.064 38.739" stroke="#4A1815" stroke-width="0.283" stroke-miterlimit="10"/>
<path d="M142.38 45.8341L147.816 43.4341" stroke="#4A1815" stroke-width="0.283" stroke-miterlimit="10"/>
<path d="M19.395 215.522H19.042V215.946H19.395V215.522Z" fill="#4A1815"/>
<path d="M19.395 210.58H19.042V211.004H19.395V210.58Z" fill="#4A1815"/>
<path d="M19.395 211.004H23.913" stroke="#4A1815" stroke-width="0.283" stroke-miterlimit="10"/>
<path d="M23.913 211.004C23.9154 211.598 23.8002 212.187 23.574 212.736C23.3477 213.285 23.015 213.784 22.595 214.204C22.175 214.624 21.676 214.957 21.1268 215.183C20.5776 215.409 19.989 215.524 19.395 215.522" stroke="#4A1815" stroke-width="0.283" stroke-miterlimit="10"/>
<path d="M10.429 186.47H10.005V186.964H10.429V186.47Z" fill="#4A1815"/>
<path d="M10.429 180.787H10.005V181.281H10.429V180.787Z" fill="#4A1815"/>
<path d="M10.4281 181.281H15.6171" stroke="#4A1815" stroke-width="0.283" stroke-miterlimit="10"/>
<path d="M15.6171 181.281C15.6142 182.656 15.0666 183.974 14.0941 184.947C13.1216 185.919 11.8034 186.467 10.4281 186.47" stroke="#4A1815" stroke-width="0.283" stroke-miterlimit="10"/>
<path d="M109.199 222.865H108.775V223.218H109.199V222.865Z" fill="#4A1815"/>
<path d="M104.257 222.865H103.833V223.218H104.257V222.865Z" fill="#4A1815"/>
<path d="M104.256 222.829V218.311" stroke="#4A1815" stroke-width="0.283" stroke-miterlimit="10"/>
<path d="M104.256 218.311C104.85 218.309 105.439 218.424 105.988 218.65C106.537 218.876 107.036 219.209 107.456 219.629C107.876 220.049 108.209 220.548 108.435 221.097C108.661 221.646 108.776 222.235 108.774 222.829" stroke="#4A1815" stroke-width="0.283" stroke-miterlimit="10"/>
<path d="M62.9551 10.04H62.4611V10.464H62.9551V10.04Z" fill="#4A1815"/>
<path d="M57.2721 10.04H56.7781V10.464H57.2721V10.04Z" fill="#4A1815"/>
<path d="M57.2721 10.463V15.652" stroke="#4A1815" stroke-width="0.283" stroke-miterlimit="10"/>
<path d="M57.2721 15.652C58.6474 15.6491 59.9656 15.1015 60.9381 14.129C61.9106 13.1565 62.4582 11.8383 62.4611 10.463" stroke="#4A1815" stroke-width="0.283" stroke-miterlimit="10"/>
<path d="M130.52 9.33411H121.024" stroke="#4A1815" stroke-width="0.283" stroke-miterlimit="10"/>
<path d="M131.014 9.79309H121.024" stroke="#4A1815" stroke-width="0.283" stroke-miterlimit="10"/>
<path d="M131.014 11.275H121.024" stroke="#4A1815" stroke-width="0.283" stroke-miterlimit="10"/>
<path d="M121.024 11.2761V9.33411" stroke="#4A1815" stroke-width="0.283" stroke-miterlimit="10"/>
<path d="M121.024 10.04H120.53V10.464H121.024V10.04Z" fill="#4A1815"/>
<path d="M115.34 10.04H114.846V10.464H115.34V10.04Z" fill="#4A1815"/>
<path d="M115.34 10.463V15.652" stroke="#4A1815" stroke-width="0.283" stroke-miterlimit="10"/>
<path d="M115.341 15.652C116.716 15.6491 118.035 15.1015 119.007 14.129C119.98 13.1565 120.527 11.8383 120.53 10.463" stroke="#4A1815" stroke-width="0.283" stroke-miterlimit="10"/>
<path d="M171.15 175.209H170.797V175.633H171.15V175.209Z" fill="#4A1815"/>
<path d="M171.15 180.151H170.797V180.575H171.15V180.151Z" fill="#4A1815"/>
<path d="M170.797 180.151H166.279" stroke="#4A1815" stroke-width="0.283" stroke-miterlimit="10"/>
<path d="M166.279 180.151C166.277 179.557 166.392 178.969 166.618 178.419C166.844 177.87 167.177 177.371 167.597 176.951C168.017 176.531 168.516 176.198 169.065 175.972C169.615 175.746 170.203 175.631 170.797 175.633" stroke="#4A1815" stroke-width="0.283" stroke-miterlimit="10"/>
<path d="M142.839 231.831H142.345V232.255H142.839V231.831Z" fill="#4A1815"/>
<path d="M148.487 231.831H147.993V232.255H148.487V231.831Z" fill="#4A1815"/>
<path d="M147.993 231.831V226.677" stroke="#4A1815" stroke-width="0.283" stroke-miterlimit="10"/>
<path d="M147.997 226.677C147.32 226.675 146.648 226.807 146.022 227.065C145.396 227.323 144.827 227.703 144.348 228.182C143.869 228.661 143.489 229.23 143.231 229.856C142.973 230.482 142.841 231.154 142.843 231.831" stroke="#4A1815" stroke-width="0.283" stroke-miterlimit="10"/>
<path d="M170.444 128.331H170.091V128.755H170.444V128.331Z" fill="#4A1815"/>
<path d="M170.444 123.424H170.091V123.848H170.444V123.424Z" fill="#4A1815"/>
<path d="M170.091 123.848H165.608" stroke="#4A1815" stroke-width="0.283" stroke-miterlimit="10"/>
<path d="M165.608 123.848C165.61 125.037 166.083 126.176 166.923 127.016C167.763 127.857 168.903 128.329 170.091 128.331" stroke="#4A1815" stroke-width="0.283" stroke-miterlimit="10"/>
<path d="M171.362 88.936H170.974V89.36H171.362V88.936Z" fill="#4A1815"/>
<path d="M171.362 93.948H170.974V94.372H171.362V93.948Z" fill="#4A1815"/>
<path d="M170.974 93.948H166.385" stroke="#4A1815" stroke-width="0.283" stroke-miterlimit="10"/>
<path d="M166.385 93.948C166.384 93.3451 166.502 92.7478 166.732 92.1905C166.962 91.6332 167.3 91.1268 167.726 90.7004C168.153 90.2741 168.659 89.9361 169.216 89.7059C169.774 89.4757 170.371 89.3578 170.974 89.359" stroke="#4A1815" stroke-width="0.283" stroke-miterlimit="10"/>
<path d="M171.433 16.217H171.08V16.641H171.433V16.217Z" fill="#4A1815"/>
<path d="M171.433 21.1951H171.08V21.6191H171.433V21.1951Z" fill="#4A1815"/>
<path d="M171.079 21.1951H166.561" stroke="#4A1815" stroke-width="0.283" stroke-miterlimit="10"/>
<path d="M166.561 21.1941C166.559 20.6001 166.674 20.0115 166.9 19.4623C167.126 18.9131 167.459 18.4141 167.879 17.994C168.299 17.574 168.798 17.2413 169.347 17.0151C169.897 16.7889 170.485 16.6737 171.079 16.6761" stroke="#4A1815" stroke-width="0.283" stroke-miterlimit="10"/>
<path d="M19.3241 21.1951H18.9711V21.6191H19.3241V21.1951Z" fill="#4A1815"/>
<path d="M19.3241 16.217H18.9711V16.641H19.3241V16.217Z" fill="#4A1815"/>
<path d="M19.359 16.676H23.877" stroke="#4A1815" stroke-width="0.283" stroke-miterlimit="10"/>
<path d="M23.877 16.676C23.8794 17.27 23.7642 17.8586 23.5379 18.4078C23.3117 18.957 22.979 19.456 22.559 19.876C22.139 20.2961 21.64 20.6288 21.0908 20.855C20.5416 21.0812 19.953 21.1964 19.359 21.194" stroke="#4A1815" stroke-width="0.283" stroke-miterlimit="10"/>
<path d="M19.395 92.254H19.042V92.678H19.395V92.254Z" fill="#4A1815"/>
<path d="M19.395 87.2771H19.042V87.7011H19.395V87.2771Z" fill="#4A1815"/>
<path d="M19.395 87.7361H23.949" stroke="#4A1815" stroke-width="0.283" stroke-miterlimit="10"/>
<path d="M23.9481 87.7351C23.9504 88.3291 23.8352 88.9177 23.609 89.4669C23.3828 90.0161 23.0501 90.5151 22.6301 90.9351C22.2101 91.3551 21.7111 91.6878 21.1618 91.914C20.6126 92.1403 20.024 92.2555 19.4301 92.2531" stroke="#4A1815" stroke-width="0.283" stroke-miterlimit="10"/>
<path d="M19.395 122.153H19.042V122.577H19.395V122.153Z" fill="#4A1815"/>
<path d="M19.395 117.211H19.042V117.635H19.395V117.211Z" fill="#4A1815"/>
<path d="M19.395 117.635H23.949" stroke="#4A1815" stroke-width="0.283" stroke-miterlimit="10"/>
<path d="M23.9481 117.635C23.9504 118.229 23.8352 118.818 23.609 119.367C23.3828 119.916 23.0501 120.415 22.6301 120.835C22.2101 121.255 21.7111 121.588 21.1618 121.814C20.6126 122.04 20.024 122.155 19.4301 122.153" stroke="#4A1815" stroke-width="0.283" stroke-miterlimit="10"/>
<path d="M142.345 233.031V231.125" stroke="#4A1815" stroke-width="0.283" stroke-miterlimit="10"/>
<path d="M9.22803 186.964H11.17" stroke="#4A1815" stroke-width="0.283" stroke-miterlimit="10"/>
<path d="M9.22803 135.426V141.815" stroke="#4A1815" stroke-width="0.283" stroke-miterlimit="10"/>
<path d="M9.68701 135.426V142.345" stroke="#4A1815" stroke-width="0.283" stroke-miterlimit="10"/>
<path d="M11.17 135.426V142.345" stroke="#4A1815" stroke-width="0.283" stroke-miterlimit="10"/>
<path d="M10.429 134.932H10.005V135.426H10.429V134.932Z" fill="#4A1815"/>
<path d="M10.429 129.248H10.005V129.742H10.429V129.248Z" fill="#4A1815"/>
<path d="M10.4281 129.743H15.6171" stroke="#4A1815" stroke-width="0.283" stroke-miterlimit="10"/>
<path d="M15.6171 129.743C15.6142 131.118 15.0666 132.437 14.0941 133.409C13.1216 134.382 11.8034 134.929 10.4281 134.932" stroke="#4A1815" stroke-width="0.283" stroke-miterlimit="10"/>
<path d="M9.22803 135.426H11.17" stroke="#4A1815" stroke-width="0.283" stroke-miterlimit="10"/>
<path d="M9.22803 72.345V65.92" stroke="#4A1815" stroke-width="0.283" stroke-miterlimit="10"/>
<path d="M9.68701 72.345V65.391" stroke="#4A1815" stroke-width="0.283" stroke-miterlimit="10"/>
<path d="M11.17 72.345V65.391" stroke="#4A1815" stroke-width="0.283" stroke-miterlimit="10"/>
<path d="M10.429 72.3091H10.005V72.8031H10.429V72.3091Z" fill="#4A1815"/>
<path d="M10.429 77.993H10.005V78.487H10.429V77.993Z" fill="#4A1815"/>
<path d="M10.4281 77.993H15.6171" stroke="#4A1815" stroke-width="0.283" stroke-miterlimit="10"/>
<path d="M15.6171 77.992C15.6142 76.6167 15.0666 75.2985 14.0941 74.326C13.1216 73.3535 11.8034 72.8059 10.4281 72.803" stroke="#4A1815" stroke-width="0.283" stroke-miterlimit="10"/>
<path d="M9.22803 72.3091H11.17" stroke="#4A1815" stroke-width="0.283" stroke-miterlimit="10"/>
</g>
</g>
</g>
<defs>
<clipPath id="clip0_2003_266">
<rect width="181.952" height="240" fill="white"/>
</clipPath>
</defs>
</svg>
