<svg width="210" height="317" viewBox="0 0 210 317" fill="none" xmlns="http://www.w3.org/2000/svg">
<g clip-path="url(#clip0_2024_4783)">
<path d="M143.37 133.16H164.65C165.04 133.16 165.36 133.48 165.36 133.87V145.09C165.36 145.48 165.04 145.8 164.65 145.8H143.37C142.98 145.8 142.66 145.48 142.66 145.09V133.87C142.66 133.48 142.98 133.16 143.37 133.16Z" stroke="#C7C6C5" stroke-width="0.43" stroke-linecap="round" stroke-linejoin="round"/>
<path d="M163.27 139.76C163.27 137.1 159.11 134.94 153.98 134.94C148.85 134.94 144.69 137.1 144.69 139.76C144.69 142.42 148.85 144.58 153.98 144.58C159.11 144.58 163.27 142.42 163.27 139.76Z" stroke="#C7C6C5" stroke-width="0.43" stroke-miterlimit="10"/>
<path d="M163.27 139.76C163.27 137.1 159.11 134.94 153.98 134.94C148.85 134.94 144.69 137.1 144.69 139.76C144.69 142.42 148.85 144.58 153.98 144.58C159.11 144.58 163.27 142.42 163.27 139.76Z" stroke="#C7C6C5" stroke-width="0.43" stroke-linecap="round" stroke-linejoin="round"/>
<path d="M151.63 134.71C151.63 134.29 151.29 133.96 150.88 133.96C150.47 133.96 150.13 134.3 150.13 134.71C150.13 135.12 150.47 135.46 150.88 135.46C151.29 135.46 151.63 135.12 151.63 134.71Z" stroke="#C7C6C5" stroke-width="0.43" stroke-miterlimit="10"/>
<path d="M151.63 134.71C151.63 134.29 151.29 133.96 150.88 133.96C150.47 133.96 150.13 134.3 150.13 134.71C150.13 135.12 150.47 135.46 150.88 135.46C151.29 135.46 151.63 135.12 151.63 134.71Z" stroke="#C7C6C5" stroke-width="0.43" stroke-linecap="round" stroke-linejoin="round"/>
<path d="M157.95 134.71C157.95 134.29 157.61 133.96 157.2 133.96C156.79 133.96 156.45 134.3 156.45 134.71C156.45 135.12 156.79 135.46 157.2 135.46C157.61 135.46 157.95 135.12 157.95 134.71Z" stroke="#C7C6C5" stroke-width="0.43" stroke-miterlimit="10"/>
<path d="M157.95 134.71C157.95 134.29 157.61 133.96 157.2 133.96C156.79 133.96 156.45 134.3 156.45 134.71C156.45 135.12 156.79 135.46 157.2 135.46C157.61 135.46 157.95 135.12 157.95 134.71Z" stroke="#C7C6C5" stroke-width="0.43" stroke-linecap="round" stroke-linejoin="round"/>
<path d="M154.42 137.08C154.42 137.32 154.23 137.51 153.99 137.51C153.75 137.51 153.56 137.32 153.56 137.08L153.43 134.75C153.43 134.44 153.68 134.19 154 134.19C154.32 134.19 154.57 134.44 154.57 134.75L154.44 137.08H154.42Z" stroke="#C7C6C5" stroke-width="0.43" stroke-miterlimit="10"/>
<path d="M154.42 137.08C154.42 137.32 154.23 137.51 153.99 137.51C153.75 137.51 153.56 137.32 153.56 137.08L153.43 134.75C153.43 134.44 153.68 134.19 154 134.19C154.32 134.19 154.57 134.44 154.57 134.75L154.44 137.08H154.42Z" stroke="#C7C6C5" stroke-width="0.43" stroke-linecap="round" stroke-linejoin="round"/>
<path d="M75.96 291.4H58.5V309.02H75.96V291.4Z" stroke="#C7C6C5" stroke-width="0.43" stroke-miterlimit="10"/>
<path d="M92.38 291.4H75.97V309.02H92.38V291.4Z" stroke="#C7C6C5" stroke-width="0.43" stroke-miterlimit="10"/>
<path d="M115.29 291.4H109.98V309.02H115.29V291.4Z" stroke="#C7C6C5" stroke-width="0.43" stroke-miterlimit="10"/>
<path d="M58.5 291.4H41.26V309.02H58.5V291.4Z" stroke="#C7C6C5" stroke-width="0.43" stroke-miterlimit="10"/>
<path d="M63 306.9C64.447 306.9 65.62 305.727 65.62 304.28C65.62 302.833 64.447 301.66 63 301.66C61.553 301.66 60.38 302.833 60.38 304.28C60.38 305.727 61.553 306.9 63 306.9Z" stroke="#C7C6C5" stroke-width="0.43" stroke-miterlimit="10"/>
<path d="M63 298.31C64.447 298.31 65.62 297.137 65.62 295.69C65.62 294.243 64.447 293.07 63 293.07C61.553 293.07 60.38 294.243 60.38 295.69C60.38 297.137 61.553 298.31 63 298.31Z" stroke="#C7C6C5" stroke-width="0.43" stroke-miterlimit="10"/>
<path d="M70.92 306.9C72.367 306.9 73.54 305.727 73.54 304.28C73.54 302.833 72.367 301.66 70.92 301.66C69.473 301.66 68.3 302.833 68.3 304.28C68.3 305.727 69.473 306.9 70.92 306.9Z" stroke="#C7C6C5" stroke-width="0.43" stroke-miterlimit="10"/>
<path d="M70.92 298.31C72.367 298.31 73.54 297.137 73.54 295.69C73.54 294.243 72.367 293.07 70.92 293.07C69.473 293.07 68.3 294.243 68.3 295.69C68.3 297.137 69.473 298.31 70.92 298.31Z" stroke="#C7C6C5" stroke-width="0.43" stroke-miterlimit="10"/>
<path d="M110.98 99.4302H60.68V110.48H110.98V99.4302Z" stroke="#C7C6C5" stroke-width="0.43" stroke-miterlimit="10"/>
<path d="M110.98 99.4302H60.68V110.48H110.98V99.4302Z" stroke="#C7C6C5" stroke-width="0.43" stroke-miterlimit="10"/>
<path d="M91.46 104.64L98.37 101.52L98.68 102.21L89.06 108V108.71C89.06 108.71 89.03 109.27 88.5 109.27H83.19C82.66 109.27 82.63 108.71 82.63 108.71V108L73.01 102.21L73.32 101.52L80.23 104.64H91.48H91.46Z" stroke="#C7C6C5" stroke-width="0.43" stroke-miterlimit="10"/>
<path d="M91.46 104.64L98.37 101.52L98.68 102.21L89.06 108V108.71C89.06 108.71 89.03 109.27 88.5 109.27H83.19C82.66 109.27 82.63 108.71 82.63 108.71V108L73.01 102.21L73.32 101.52L80.23 104.64H91.48H91.46Z" stroke="#C7C6C5" stroke-width="0.43" stroke-miterlimit="10"/>
<path d="M106.18 104.64H65.49V105.58H106.18V104.64Z" stroke="#C7C6C5" stroke-width="0.43" stroke-miterlimit="10"/>
<path d="M106.18 104.64H65.49V105.58H106.18V104.64Z" stroke="#C7C6C5" stroke-width="0.43" stroke-miterlimit="10"/>
<path d="M77.36 105.58C78.45 105.58 78.36 106.55 79.58 106.55H92.11C93.33 106.55 93.23 105.58 94.33 105.58H77.36Z" stroke="#C7C6C5" stroke-width="0.43" stroke-miterlimit="10"/>
<path d="M77.36 105.58C78.45 105.58 78.36 106.55 79.58 106.55H92.11C93.33 106.55 93.23 105.58 94.33 105.58H77.36Z" stroke="#C7C6C5" stroke-width="0.43" stroke-miterlimit="10"/>
<path d="M140.26 130.18H129.21V178.76H140.26V130.18Z" stroke="#C7C6C5" stroke-width="0.43" stroke-miterlimit="10"/>
<path d="M134.44 160.09L131.32 167L132.01 167.31L137.8 157.69H138.51C138.51 157.69 139.07 157.66 139.07 157.13V151.82C139.07 151.29 138.51 151.26 138.51 151.26H137.8L132.01 141.64L131.32 141.95L134.44 148.86V160.11V160.09Z" stroke="#C7C6C5" stroke-width="0.43" stroke-miterlimit="10"/>
<path d="M135.38 134.12H134.44V174.81H135.38V134.12Z" stroke="#C7C6C5" stroke-width="0.43" stroke-miterlimit="10"/>
<path d="M135.36 145.98C135.36 147.07 136.33 146.98 136.33 148.2V160.73C136.33 161.95 135.36 161.85 135.36 162.95V145.99V145.98Z" stroke="#C7C6C5" stroke-width="0.43" stroke-miterlimit="10"/>
<path d="M48.41 142.24H65.43C65.81 142.24 66.12 142.55 66.12 142.93V163.44C66.12 163.82 65.81 164.13 65.43 164.13H48.41C48.03 164.13 47.72 163.82 47.72 163.44V142.93C47.72 142.55 48.03 142.24 48.41 142.24Z" stroke="#C7C6C5" stroke-width="0.43" stroke-miterlimit="10"/>
<path d="M48.41 142.24H65.43C65.81 142.24 66.12 142.55 66.12 142.93V163.44C66.12 163.82 65.81 164.13 65.43 164.13H48.41C48.03 164.13 47.72 163.82 47.72 163.44V142.93C47.72 142.55 48.03 142.24 48.41 142.24Z" stroke="#C7C6C5" stroke-width="0.43" stroke-miterlimit="10"/>
<path d="M44.63 164.12C44.25 164.12 43.94 163.81 43.94 163.43V142.92C43.94 142.54 44.25 142.23 44.63 142.23H47.03C47.41 142.23 47.72 142.54 47.72 142.92V163.43C47.72 163.81 47.41 164.12 47.03 164.12H44.63Z" stroke="#C7C6C5" stroke-width="0.43" stroke-miterlimit="10"/>
<path d="M44.63 164.12C44.25 164.12 43.94 163.81 43.94 163.43V142.92C43.94 142.54 44.25 142.23 44.63 142.23H47.03C47.41 142.23 47.72 142.54 47.72 142.92V163.43C47.72 163.81 47.41 164.12 47.03 164.12H44.63Z" stroke="#C7C6C5" stroke-width="0.43" stroke-miterlimit="10"/>
<path d="M43.94 141.55V121.05C43.94 120.67 44.25 120.36 44.63 120.36H65.42C65.8 120.36 66.11 120.67 66.11 121.05V123.44C66.11 123.82 65.8 124.13 65.42 124.13H47.71V141.55C47.71 141.93 47.4 142.24 47.02 142.24H44.62C44.24 142.24 43.93 141.93 43.93 141.55" stroke="#C7C6C5" stroke-width="0.43" stroke-miterlimit="10"/>
<path d="M43.94 141.55V121.05C43.94 120.67 44.25 120.36 44.63 120.36H65.42C65.8 120.36 66.11 120.67 66.11 121.05V123.44C66.11 123.82 65.8 124.13 65.42 124.13H47.71V141.55C47.71 141.93 47.4 142.24 47.02 142.24H44.62C44.24 142.24 43.93 141.93 43.93 141.55H43.94Z" stroke="#C7C6C5" stroke-width="0.43" stroke-miterlimit="10"/>
<path d="M41.95 164.12C41.57 164.12 41.26 163.81 41.26 163.43V142.92C41.26 142.54 41.57 142.23 41.95 142.23H43.25C43.63 142.23 43.94 142.54 43.94 142.92V163.43C43.94 163.81 43.63 164.12 43.25 164.12H41.95Z" stroke="#C7C6C5" stroke-width="0.43" stroke-miterlimit="10"/>
<path d="M41.95 164.12C41.57 164.12 41.26 163.81 41.26 163.43V142.92C41.26 142.54 41.57 142.23 41.95 142.23H43.25C43.63 142.23 43.94 142.54 43.94 142.92V163.43C43.94 163.81 43.63 164.12 43.25 164.12H41.95Z" stroke="#C7C6C5" stroke-width="0.43" stroke-miterlimit="10"/>
<path d="M88 124.78C88 124.4 87.69 124.09 87.31 124.09H66.8C66.42 124.09 66.11 124.4 66.11 124.78V141.55C66.11 141.93 66.42 142.24 66.8 142.24H87.31C87.69 142.24 88 141.93 88 141.55V124.78Z" stroke="#C7C6C5" stroke-width="0.43" stroke-miterlimit="10"/>
<path d="M88 124.78C88 124.4 87.69 124.09 87.31 124.09H66.8C66.42 124.09 66.11 124.4 66.11 124.78V141.55C66.11 141.93 66.42 142.24 66.8 142.24H87.31C87.69 142.24 88 141.93 88 141.55V124.78Z" stroke="#C7C6C5" stroke-width="0.43" stroke-miterlimit="10"/>
<path d="M66.12 121C66.12 120.62 66.43 120.31 66.81 120.31H87.32C87.7 120.31 88.01 120.62 88.01 121V123.4C88.01 123.78 87.7 124.09 87.32 124.09H66.81C66.43 124.09 66.12 123.78 66.12 123.4V121Z" stroke="#C7C6C5" stroke-width="0.43" stroke-miterlimit="10"/>
<path d="M66.12 121C66.12 120.62 66.43 120.31 66.81 120.31H87.32C87.7 120.31 88.01 120.62 88.01 121V123.4C88.01 123.78 87.7 124.09 87.32 124.09H66.81C66.43 124.09 66.12 123.78 66.12 123.4V121Z" stroke="#C7C6C5" stroke-width="0.43" stroke-miterlimit="10"/>
<path d="M66.81 117.5H87.32C87.7 117.5 88.01 117.81 88.01 118.19V119.62C88.01 120 87.7 120.31 87.32 120.31H66.81C66.43 120.31 66.12 120 66.12 119.62V118.19C66.12 117.81 66.43 117.5 66.81 117.5Z" stroke="#C7C6C5" stroke-width="0.43" stroke-miterlimit="10"/>
<path d="M66.81 117.5H87.32C87.7 117.5 88.01 117.81 88.01 118.19V119.62C88.01 120 87.7 120.31 87.32 120.31H66.81C66.43 120.31 66.12 120 66.12 119.62V118.19C66.12 117.81 66.43 117.5 66.81 117.5Z" stroke="#C7C6C5" stroke-width="0.43" stroke-miterlimit="10"/>
<path d="M41.26 141.55V118.2C41.26 117.82 41.57 117.51 41.95 117.51H65.42C65.8 117.51 66.11 117.82 66.11 118.2V119.5C66.11 119.88 65.8 120.35 65.42 120.35H43.94V141.55C43.94 141.93 43.63 142.24 43.25 142.24H41.95C41.57 142.24 41.26 141.93 41.26 141.55Z" stroke="#C7C6C5" stroke-width="0.43" stroke-miterlimit="10"/>
<path d="M41.26 141.55V118.2C41.26 117.82 41.57 117.51 41.95 117.51H65.42C65.8 117.51 66.11 117.82 66.11 118.2V119.5C66.11 119.88 65.8 120.35 65.42 120.35H43.94V141.55C43.94 141.93 43.63 142.24 43.25 142.24H41.95C41.57 142.24 41.26 141.93 41.26 141.55Z" stroke="#C7C6C5" stroke-width="0.43" stroke-miterlimit="10"/>
<path d="M47.72 124.13L44.26 120.69" stroke="#C7C6C5" stroke-width="0.43" stroke-miterlimit="10"/>
<path d="M48.41 124.13H65.43C65.81 124.13 66.12 124.44 66.12 124.82V141.55C66.12 141.93 65.81 142.24 65.43 142.24H48.42C48.04 142.24 47.73 141.93 47.73 141.55V124.82C47.73 124.44 48.04 124.13 48.42 124.13H48.41Z" stroke="#C7C6C5" stroke-width="0.43" stroke-miterlimit="10"/>
<path d="M48.41 124.13H65.43C65.81 124.13 66.12 124.44 66.12 124.82V141.55C66.12 141.93 65.81 142.24 65.43 142.24H48.42C48.04 142.24 47.73 141.93 47.73 141.55V124.82C47.73 124.44 48.04 124.13 48.42 124.13H48.41Z" stroke="#C7C6C5" stroke-width="0.43" stroke-miterlimit="10"/>
<path d="M102.68 236.13C102.68 236.13 103.8 236.28 104.22 236.7C104.5 236.98 104.79 238.33 101.16 241.97C97.53 245.61 96.17 245.31 95.89 245.03C95.3 244.44 95.32 243.49 95.32 243.49" stroke="#C7C6C5" stroke-width="0.43" stroke-miterlimit="10"/>
<path d="M102.68 236.13C102.68 236.13 103.8 236.28 104.22 236.7C104.5 236.98 104.79 238.33 101.16 241.97C97.53 245.61 96.17 245.31 95.89 245.03C95.3 244.44 95.32 243.49 95.32 243.49" stroke="#C7C6C5" stroke-width="0.43" stroke-miterlimit="10"/>
<path d="M88.36 237.51C88.08 237.23 88.08 236.78 88.36 236.51L95.69 229.18C95.97 228.9 96.41 228.9 96.69 229.18L102.6 235.09C102.88 235.37 103.17 236.72 99.54 240.36C95.9 243.99 94.55 243.7 94.27 243.42L88.35 237.51H88.36Z" stroke="#C7C6C5" stroke-width="0.43" stroke-miterlimit="10"/>
<path d="M88.36 237.51C88.08 237.23 88.08 236.78 88.36 236.51L95.69 229.18C95.97 228.9 96.41 228.9 96.69 229.18L102.6 235.09C102.88 235.37 103.17 236.72 99.54 240.36C95.9 243.99 94.55 243.7 94.27 243.42L88.35 237.51H88.36Z" stroke="#C7C6C5" stroke-width="0.43" stroke-miterlimit="10"/>
<path d="M68.99 217.17C68.99 217.17 67.87 217.02 67.45 216.6C67.17 216.32 66.88 214.97 70.51 211.33C74.14 207.69 75.5 207.99 75.78 208.27C76.37 208.86 76.35 209.81 76.35 209.81" stroke="#C7C6C5" stroke-width="0.43" stroke-miterlimit="10"/>
<path d="M68.99 217.17C68.99 217.17 67.87 217.02 67.45 216.6C67.17 216.32 66.88 214.97 70.51 211.33C74.14 207.69 75.5 207.99 75.78 208.27C76.37 208.86 76.35 209.81 76.35 209.81" stroke="#C7C6C5" stroke-width="0.43" stroke-miterlimit="10"/>
<path d="M83.31 215.78C83.59 216.06 83.59 216.51 83.31 216.78L75.98 224.11C75.7 224.39 75.26 224.39 74.98 224.11L69.07 218.2C68.79 217.92 68.5 216.57 72.13 212.93C75.76 209.3 77.12 209.59 77.4 209.87L83.32 215.78H83.31Z" stroke="#C7C6C5" stroke-width="0.43" stroke-miterlimit="10"/>
<path d="M83.31 215.78C83.59 216.06 83.59 216.51 83.31 216.78L75.98 224.11C75.7 224.39 75.26 224.39 74.98 224.11L69.07 218.2C68.79 217.92 68.5 216.57 72.13 212.93C75.76 209.3 77.12 209.59 77.4 209.87L83.32 215.78H83.31Z" stroke="#C7C6C5" stroke-width="0.43" stroke-miterlimit="10"/>
<path d="M95.32 209.81C95.32 209.81 95.47 208.69 95.89 208.27C96.17 207.99 97.52 207.7 101.16 211.33C104.8 214.96 104.5 216.32 104.22 216.6C103.63 217.19 102.68 217.17 102.68 217.17" stroke="#C7C6C5" stroke-width="0.43" stroke-miterlimit="10"/>
<path d="M95.32 209.81C95.32 209.81 95.47 208.69 95.89 208.27C96.17 207.99 97.52 207.7 101.16 211.33C104.8 214.96 104.5 216.32 104.22 216.6C103.63 217.19 102.68 217.17 102.68 217.17" stroke="#C7C6C5" stroke-width="0.43" stroke-miterlimit="10"/>
<path d="M96.7 224.11C96.42 224.39 95.98 224.39 95.7 224.11L88.37 216.78C88.09 216.5 88.09 216.06 88.37 215.78L94.28 209.87C94.56 209.59 95.91 209.3 99.55 212.93C103.18 216.57 102.89 217.92 102.61 218.2L96.69 224.11H96.7Z" stroke="#C7C6C5" stroke-width="0.43" stroke-miterlimit="10"/>
<path d="M96.7 224.11C96.42 224.39 95.98 224.39 95.7 224.11L88.37 216.78C88.09 216.5 88.09 216.06 88.37 215.78L94.28 209.87C94.56 209.59 95.91 209.3 99.55 212.93C103.18 216.57 102.89 217.92 102.61 218.2L96.69 224.11H96.7Z" stroke="#C7C6C5" stroke-width="0.43" stroke-miterlimit="10"/>
<path d="M76.36 243.48C76.36 243.48 76.21 244.6 75.79 245.02C75.51 245.3 74.16 245.59 70.52 241.96C66.88 238.33 67.18 236.97 67.46 236.69C68.05 236.1 69 236.12 69 236.12" stroke="#C7C6C5" stroke-width="0.43" stroke-miterlimit="10"/>
<path d="M76.36 243.48C76.36 243.48 76.21 244.6 75.79 245.02C75.51 245.3 74.16 245.59 70.52 241.96C66.88 238.33 67.18 236.97 67.46 236.69C68.05 236.1 69 236.12 69 236.12" stroke="#C7C6C5" stroke-width="0.43" stroke-miterlimit="10"/>
<path d="M74.98 229.18C75.26 228.9 75.71 228.9 75.98 229.18L83.31 236.51C83.59 236.79 83.59 237.24 83.31 237.51L77.4 243.42C77.12 243.7 75.77 243.99 72.13 240.36C68.5 236.72 68.79 235.37 69.07 235.09L74.98 229.18Z" stroke="#C7C6C5" stroke-width="0.43" stroke-miterlimit="10"/>
<path d="M74.98 229.18C75.26 228.9 75.71 228.9 75.98 229.18L83.31 236.51C83.59 236.79 83.59 237.24 83.31 237.51L77.4 243.42C77.12 243.7 75.77 243.99 72.13 240.36C68.5 236.72 68.79 235.37 69.07 235.09L74.98 229.18Z" stroke="#C7C6C5" stroke-width="0.43" stroke-miterlimit="10"/>
<path d="M95.85 236.62C90.33 242.14 81.38 242.14 75.86 236.62C70.34 231.1 70.34 222.16 75.86 216.64C81.38 211.12 90.33 211.12 95.85 216.64C101.37 222.16 101.37 231.11 95.85 236.63" stroke="#C7C6C5" stroke-width="0.43" stroke-miterlimit="10"/>
<path d="M95.85 236.62C90.33 242.14 81.38 242.14 75.86 236.62C70.34 231.1 70.34 222.16 75.86 216.64C81.38 211.12 90.33 211.12 95.85 216.64C101.37 222.16 101.37 231.11 95.85 236.63V236.62Z" stroke="#C7C6C5" stroke-width="0.43" stroke-miterlimit="10"/>
<path d="M181.62 111.16C187.01 111.16 191.4 115.55 191.4 120.94C191.4 126.33 187.01 130.72 181.62 130.72H152.36C146.97 130.72 142.58 126.33 142.58 120.94C142.58 115.55 146.97 111.16 152.36 111.16H181.62Z" stroke="#C7C6C5" stroke-width="0.43" stroke-linecap="round" stroke-linejoin="round"/>
<path d="M181.41 113C185.78 113 189.34 116.56 189.34 120.93C189.34 125.3 185.78 128.86 181.41 128.86H152.38C148.01 128.86 144.45 125.3 144.45 120.93C144.45 116.56 148.01 113 152.38 113H181.41Z" stroke="#C7C6C5" stroke-width="0.43" stroke-linecap="round" stroke-linejoin="round"/>
<path d="M149.89 120.93C149.89 118.99 151.46 117.43 153.39 117.43H179.17C181.1 117.43 182.67 119 182.67 120.93C182.67 122.86 181.1 124.43 179.17 124.43H153.39C151.46 124.43 149.89 122.86 149.89 120.93Z" stroke="#C7C6C5" stroke-width="0.43" stroke-linecap="round" stroke-linejoin="round"/>
<path d="M165.38 127.99C165.38 127.75 165.79 127.55 166.29 127.55C166.79 127.55 167.2 127.75 167.2 127.99C167.2 128.23 166.79 128.43 166.29 128.43C165.79 128.43 165.38 128.23 165.38 127.99Z" stroke="#C7C6C5" stroke-width="0.43" stroke-linecap="round" stroke-linejoin="round"/>
<path d="M191.6 178.74H173.24V232.25H191.6V178.74Z" stroke="#C7C6C5" stroke-width="0.43" stroke-linecap="round" stroke-linejoin="round"/>
<path d="M183.29 199.73C183.29 198.51 181.48 198.52 181.48 199.73C181.48 200.63 182.39 200.39 182.39 201.2" stroke="#C7C6C5" stroke-width="0.43" stroke-linecap="round" stroke-linejoin="round"/>
<path d="M182.37 201.2L188.46 203.25C188.46 203.25 189.02 203.46 188.94 204.08C188.86 204.69 188.29 204.63 188.29 204.63H176.46C176.46 204.63 175.83 204.7 175.75 204.08C175.67 203.47 176.28 203.25 176.28 203.25L182.37 201.2Z" stroke="#C7C6C5" stroke-width="0.43" stroke-linecap="round" stroke-linejoin="round"/>
<path d="M182.37 197.76V179.88" stroke="#C7C6C5" stroke-width="0.43" stroke-linecap="round" stroke-linejoin="round"/>
<path d="M182.37 230.94V205.74" stroke="#C7C6C5" stroke-width="0.43" stroke-linecap="round" stroke-linejoin="round"/>
<path d="M191.6 10.3999H142.52V27.3199H191.6V10.3999Z" stroke="#C7C6C5" stroke-width="0.43" stroke-linecap="round" stroke-linejoin="round"/>
<path d="M167.31 14.6498C167.31 13.4498 165.54 13.4698 165.54 14.6498C165.54 15.5298 166.42 15.2898 166.42 16.0898" stroke="#C7C6C5" stroke-width="0.43" stroke-linecap="round" stroke-linejoin="round"/>
<path d="M166.42 16.0801L172.37 18.0801C172.37 18.0801 172.92 18.2901 172.84 18.8901C172.76 19.4901 172.2 19.4201 172.2 19.4201H160.65C160.65 19.4201 160.09 19.4901 160.01 18.8901C159.93 18.2901 160.48 18.0801 160.48 18.0801L166.43 16.0801H166.42Z" stroke="#C7C6C5" stroke-width="0.43" stroke-linecap="round" stroke-linejoin="round"/>
<path d="M175.12 18.8599H190.38" stroke="#C7C6C5" stroke-width="0.43" stroke-linecap="round" stroke-linejoin="round"/>
<path d="M143.34 18.8599H157.44" stroke="#C7C6C5" stroke-width="0.43" stroke-linecap="round" stroke-linejoin="round"/>
<path d="M191.6 53.0601H142.52V65.2601H191.6V53.0601Z" stroke="#C7C6C5" stroke-width="0.43" stroke-linecap="round" stroke-linejoin="round"/>
<path d="M167.31 55.4301C167.31 54.2301 165.54 54.2501 165.54 55.4301C165.54 56.3101 166.42 56.0701 166.42 56.8701" stroke="#C7C6C5" stroke-width="0.43" stroke-linecap="round" stroke-linejoin="round"/>
<path d="M166.42 56.8604L172.37 58.8604C172.37 58.8604 172.92 59.0703 172.84 59.6703C172.76 60.2703 172.2 60.2004 172.2 60.2004H160.65C160.65 60.2004 160.09 60.2703 160.01 59.6703C159.93 59.0703 160.48 58.8604 160.48 58.8604L166.43 56.8604H166.42Z" stroke="#C7C6C5" stroke-width="0.43" stroke-linecap="round" stroke-linejoin="round"/>
<path d="M175.12 59.6401H190.38" stroke="#C7C6C5" stroke-width="0.43" stroke-linecap="round" stroke-linejoin="round"/>
<path d="M143.34 59.6401H157.44" stroke="#C7C6C5" stroke-width="0.43" stroke-linecap="round" stroke-linejoin="round"/>
<path d="M109.98 291.4H92.36V309.02H109.98V291.4Z" stroke="#C7C6C5" stroke-width="0.43" stroke-miterlimit="10"/>
<path d="M109.98 291.4H92.36V309.02H109.98V291.4Z" stroke="#C7C6C5" stroke-width="0.43" stroke-miterlimit="10"/>
<path d="M95.48 292.93H106.86C107.76 292.93 108.48 293.66 108.48 294.55V305.87C108.48 306.77 107.75 307.49 106.86 307.49H95.49C94.59 307.49 93.87 306.76 93.87 305.87V294.55C93.87 293.65 94.6 292.93 95.49 292.93H95.48Z" stroke="#C7C6C5" stroke-width="0.43" stroke-miterlimit="10"/>
<path d="M95.48 292.93H106.86C107.76 292.93 108.48 293.66 108.48 294.55V305.87C108.48 306.77 107.75 307.49 106.86 307.49H95.49C94.59 307.49 93.87 306.76 93.87 305.87V294.55C93.87 293.65 94.6 292.93 95.49 292.93H95.48Z" stroke="#C7C6C5" stroke-width="0.43" stroke-miterlimit="10"/>
<path d="M96.1 304.35C96.62 304.35 97.05 304.78 97.05 305.3C97.05 305.82 96.63 306.25 96.1 306.25C95.57 306.25 95.15 305.83 95.15 305.3C95.15 304.77 95.57 304.35 96.1 304.35Z" stroke="#C7C6C5" stroke-width="0.43" stroke-miterlimit="10"/>
<path d="M101.89 302.7H100.46V308.08H101.89V302.7Z" stroke="#C7C6C5" stroke-width="0.43" stroke-miterlimit="10"/>
<path d="M132.97 234.5H115.55V258.87H132.97V234.5Z" stroke="#C7C6C5" stroke-width="0.43" stroke-miterlimit="10"/>
<path d="M132.97 258.88H115.55V277.47H132.97V258.88Z" stroke="#C7C6C5" stroke-width="0.43" stroke-miterlimit="10"/>
<path d="M123.12 269.71L125.87 266.96" stroke="#C7C6C5" stroke-width="0.43" stroke-miterlimit="10" stroke-linecap="round"/>
<path d="M125.87 269.71L123.12 266.96" stroke="#C7C6C5" stroke-width="0.43" stroke-miterlimit="10" stroke-linecap="round"/>
<path d="M127.75 268.34H121.25" stroke="#C7C6C5" stroke-width="0.43" stroke-miterlimit="10" stroke-linecap="round"/>
<path d="M124.5 265.09V271.59" stroke="#C7C6C5" stroke-width="0.43" stroke-miterlimit="10" stroke-linecap="round"/>
<path d="M181.14 133.12H165.36V145.84H181.14V133.12Z" stroke="#C7C6C5" stroke-width="0.43" stroke-linecap="round" stroke-linejoin="round"/>
<path d="M173.21 135.06C175.65 135.06 177.63 137.04 177.63 139.48C177.63 141.92 175.65 143.9 173.21 143.9C170.77 143.9 168.79 141.92 168.79 139.48C168.79 137.04 170.77 135.06 173.21 135.06Z" stroke="#C7C6C5" stroke-width="0.43" stroke-linecap="round" stroke-linejoin="round"/>
<path d="M173.21 135.06C170.95 135.06 169.64 136.9 169.64 139.16C169.64 140.97 171.11 142.44 172.92 142.44C174.37 142.44 175.54 141.27 175.54 139.82C175.54 138.66 174.6 137.72 173.44 137.72C172.51 137.72 171.76 138.47 171.76 139.4C171.76 140.14 172.36 140.74 173.1 140.74C173.69 140.74 174.18 140.26 174.18 139.66C174.18 139.19 173.8 138.8 173.32 138.8C172.94 138.8 172.63 139.11 172.63 139.49C172.63 139.79 172.88 140.04 173.18 140.04C173.42 140.04 173.62 139.84 173.62 139.6" stroke="#C7C6C5" stroke-width="0.43" stroke-linecap="round" stroke-linejoin="round"/>
<path d="M173.21 138.86C172.87 138.86 172.59 139.14 172.59 139.48C172.59 139.82 172.87 140.1 173.21 140.1C173.55 140.1 173.83 139.82 173.83 139.48C173.83 139.14 173.55 138.86 173.21 138.86Z" fill="#144E30"/>
<path d="M67.44 10.46H57C56.6079 10.46 56.29 10.7778 56.29 11.17V21.61C56.29 22.0021 56.6079 22.32 57 22.32H67.44C67.8321 22.32 68.15 22.0021 68.15 21.61V11.17C68.15 10.7778 67.8321 10.46 67.44 10.46Z" stroke="#C7C6C5" stroke-width="0.43" stroke-linecap="round" stroke-linejoin="round"/>
<path d="M123.75 10.46H113.31C112.918 10.46 112.6 10.7778 112.6 11.17V21.61C112.6 22.0021 112.918 22.32 113.31 22.32H123.75C124.142 22.32 124.46 22.0021 124.46 21.61V11.17C124.46 10.7778 124.142 10.46 123.75 10.46Z" stroke="#C7C6C5" stroke-width="0.43" stroke-linecap="round" stroke-linejoin="round"/>
<path d="M69.06 12.2999C69.06 12.2999 69.03 11.1699 70.19 11.1699H110.55C111.73 11.1699 111.68 12.2999 111.68 12.2999V62.2499C111.68 62.2499 111.71 63.3799 110.55 63.3799H70.19C69.01 63.3799 69.06 62.2499 69.06 62.2499V12.2999Z" stroke="#C7C6C5" stroke-width="0.43" stroke-miterlimit="10"/>
<path d="M88.55 12.9795H72.3C71.7643 12.9795 71.33 13.4138 71.33 13.9495V23.7595C71.33 24.2952 71.7643 24.7295 72.3 24.7295H88.55C89.0857 24.7295 89.52 24.2952 89.52 23.7595V13.9495C89.52 13.4138 89.0857 12.9795 88.55 12.9795Z" stroke="#C7C6C5" stroke-width="0.43" stroke-miterlimit="10"/>
<path d="M108.44 12.9795H92.19C91.6543 12.9795 91.22 13.4138 91.22 13.9495V23.7595C91.22 24.2952 91.6543 24.7295 92.19 24.7295H108.44C108.976 24.7295 109.41 24.2952 109.41 23.7595V13.9495C109.41 13.4138 108.976 12.9795 108.44 12.9795Z" stroke="#C7C6C5" stroke-width="0.43" stroke-miterlimit="10"/>
<path d="M69.06 25.8896H111.69" stroke="#C7C6C5" stroke-width="0.43" stroke-miterlimit="10"/>
<path d="M111.69 16.5497C110.97 16.5497 110.98 15.6997 110.98 15.6997V12.2997C110.98 12.2097 110.96 12.0397 110.88 11.9597C110.81 11.8897 110.67 11.8697 110.56 11.8697H70.2C70.05 11.8697 69.95 11.8997 69.89 11.9597C69.8 12.0597 69.78 12.2597 69.78 12.2797V15.6997C69.78 15.6997 69.81 16.5497 69.07 16.5497C68.33 16.5497 68.36 15.6997 68.36 15.6997V12.3097C68.36 12.1797 68.38 11.7697 68.6 11.3597C68.91 10.7797 69.48 10.4697 70.2 10.4697H110.56C111.26 10.4697 111.68 10.7597 111.91 10.9997C112.42 11.5397 112.41 12.2597 112.4 12.3497V15.7197C112.4 15.7197 112.42 16.5697 111.69 16.5697V16.5497Z" stroke="#C7C6C5" stroke-width="0.43" stroke-miterlimit="10"/>
<path d="M69.06 15.6999V12.2999C69.06 12.2999 69.03 11.1699 70.19 11.1699H110.55C111.73 11.1699 111.68 12.2999 111.68 12.2999V15.6999" stroke="#C7C6C5" stroke-width="0.43" stroke-miterlimit="10" stroke-linecap="round"/>
<path d="M162.96 158.57C162.96 156.19 164.81 156.19 165.34 156.19H180.18C180.71 156.19 181.15 156.62 181.15 157.16V166.98C181.15 167.51 180.72 167.95 180.18 167.95H165.34C164.81 167.95 162.96 167.95 162.96 165.57V158.58V158.57Z" stroke="#C7C6C5" stroke-width="0.43" stroke-miterlimit="10"/>
<path d="M165.97 158.17H177.46C177.97 158.17 178.39 158.59 178.39 159.1V165.03C178.39 165.54 177.97 165.96 177.46 165.96H165.97C165.46 165.96 165.04 165.54 165.04 165.03V159.1C165.04 158.59 165.46 158.17 165.97 158.17Z" stroke="#C7C6C5" stroke-width="0.43" stroke-miterlimit="10"/>
<path d="M178.39 163.59C177.54 163.59 176.86 162.9 176.86 162.06C176.86 161.22 177.55 160.53 178.39 160.53" stroke="#C7C6C5" stroke-width="0.43" stroke-miterlimit="10"/>
<path d="M154.6 85.7701C152.22 85.7701 152.22 83.9201 152.22 83.3901V68.5501C152.22 68.0201 152.65 67.5801 153.19 67.5801H163.01C163.54 67.5801 163.98 68.0101 163.98 68.5501V83.3901C163.98 83.9201 163.98 85.7701 161.6 85.7701H154.6Z" stroke="#C7C6C5" stroke-width="0.43" stroke-miterlimit="10"/>
<path d="M161.07 70.3398H155.14C154.626 70.3398 154.21 70.7562 154.21 71.2698V82.7498C154.21 83.2635 154.626 83.6798 155.14 83.6798H161.07C161.584 83.6798 162 83.2635 162 82.7498V71.2698C162 70.7562 161.584 70.3398 161.07 70.3398Z" stroke="#C7C6C5" stroke-width="0.43" stroke-miterlimit="10"/>
<path d="M159.62 70.3398C159.62 71.1898 158.93 71.8699 158.09 71.8699C157.25 71.8699 156.56 71.1798 156.56 70.3398" stroke="#C7C6C5" stroke-width="0.43" stroke-miterlimit="10"/>
<path d="M179.46 72.04H190.68C191.07 72.04 191.39 72.36 191.39 72.75V105.51C191.39 105.9 191.07 106.22 190.68 106.22H179.46C179.07 106.22 178.75 105.9 178.75 105.51V72.75C178.75 72.36 179.07 72.04 179.46 72.04Z" stroke="#C7C6C5" stroke-width="0.43" stroke-linecap="round" stroke-linejoin="round"/>
<path d="M185.08 73.7402C187.74 73.7402 189.9 76.9802 189.9 80.9802C189.9 84.9802 187.74 88.2302 185.08 88.2302C182.42 88.2302 180.26 84.9902 180.26 80.9802C180.26 76.9702 182.42 73.7402 185.08 73.7402Z" stroke="#C7C6C5" stroke-width="0.43" stroke-linecap="round" stroke-linejoin="round"/>
<path d="M185.08 89.6396C187.74 89.6396 189.9 92.8796 189.9 96.8796C189.9 100.88 187.74 104.13 185.08 104.13C182.42 104.13 180.26 100.89 180.26 96.8796C180.26 92.8696 182.42 89.6396 185.08 89.6396Z" stroke="#C7C6C5" stroke-width="0.43" stroke-linecap="round" stroke-linejoin="round"/>
<path d="M190.06 83.6099C190.48 83.6099 190.81 83.9499 190.81 84.3599C190.81 84.7699 190.47 85.1099 190.06 85.1099C189.65 85.1099 189.31 84.7699 189.31 84.3599C189.31 83.9499 189.65 83.6099 190.06 83.6099Z" stroke="#C7C6C5" stroke-width="0.43" stroke-linecap="round" stroke-linejoin="round"/>
<path d="M190.06 77.2998C190.48 77.2998 190.81 77.6398 190.81 78.0498C190.81 78.4598 190.47 78.8098 190.06 78.8098C189.65 78.8098 189.31 78.4698 189.31 78.0498C189.31 77.6298 189.65 77.2998 190.06 77.2998Z" stroke="#C7C6C5" stroke-width="0.43" stroke-linecap="round" stroke-linejoin="round"/>
<path d="M186.2 80.6598C185.96 80.6598 185.77 80.8498 185.77 81.0898C185.77 81.3298 185.96 81.5198 186.2 81.5198L190.17 81.6998C190.48 81.6998 190.74 81.4498 190.74 81.1398C190.74 80.8298 190.49 80.5698 190.18 80.5698L186.21 80.6598H186.2Z" stroke="#C7C6C5" stroke-width="0.43" stroke-linecap="round" stroke-linejoin="round"/>
<path d="M190.06 100.79C190.474 100.79 190.81 100.454 190.81 100.04C190.81 99.6258 190.474 99.29 190.06 99.29C189.646 99.29 189.31 99.6258 189.31 100.04C189.31 100.454 189.646 100.79 190.06 100.79Z" stroke="#C7C6C5" stroke-width="0.43" stroke-linecap="round" stroke-linejoin="round"/>
<path d="M190.06 92.98C190.48 92.98 190.81 93.32 190.81 93.73C190.81 94.14 190.47 94.49 190.06 94.49C189.65 94.49 189.31 94.15 189.31 93.73C189.31 93.31 189.65 92.98 190.06 92.98Z" stroke="#C7C6C5" stroke-width="0.43" stroke-linecap="round" stroke-linejoin="round"/>
<path d="M186.2 96.34C185.96 96.34 185.77 96.53 185.77 96.77C185.77 97.01 185.96 97.2 186.2 97.2L190.17 97.38C190.48 97.38 190.74 97.13 190.74 96.82C190.74 96.51 190.49 96.25 190.18 96.25L186.21 96.34H186.2Z" stroke="#C7C6C5" stroke-width="0.43" stroke-linecap="round" stroke-linejoin="round"/>
<path d="M198.67 0.5H31.42V3.38H198.67V0.5Z" fill="#511F19"/>
<path d="M34.18 0.5H31.42V25.58H34.18V0.5Z" fill="#511F19"/>
<path d="M198.67 3.35986H34.18V10.4699H198.67V3.35986Z" fill="#511F19"/>
<path d="M41.26 3.35986H34.18V23.6699H41.26V3.35986Z" fill="#511F19"/>
<path d="M34.18 91.9302H31.42V148.68H34.18V91.9302Z" fill="#511F19"/>
<path d="M41.26 93.75H34.18V146.67H41.26V93.75Z" fill="#511F19"/>
<path d="M34.18 193.58H31.42V239.24H34.18V193.58Z" fill="#511F19"/>
<path d="M41.26 195.37H34.18V237.45H41.26V195.37Z" fill="#511F19"/>
<path d="M34.18 283.58H31.42V316.1H34.18V283.58Z" fill="#511F19"/>
<path d="M41.26 285.53H34.18V315.39H41.26V285.53Z" fill="#511F19"/>
<path d="M34.18 25.5801V91.9301" stroke="#511F19" stroke-width="0.43" stroke-miterlimit="10"/>
<path d="M37.73 23.6602V93.7502" stroke="#511F19" stroke-width="0.43" stroke-miterlimit="10"/>
<path d="M41.26 23.6602V93.7502" stroke="#511F19" stroke-width="0.43" stroke-miterlimit="10"/>
<path d="M31.42 198.27H0.220001V110.67H31.42" stroke="#511F19" stroke-width="0.43" stroke-miterlimit="10"/>
<path d="M31.42 112.71H2.25V196.23H31.42" stroke="#511F19" stroke-width="0.43" stroke-miterlimit="10"/>
<path d="M34.18 239.22V283.72" stroke="#511F19" stroke-width="0.43" stroke-miterlimit="10"/>
<path d="M37.73 237.45V285.48" stroke="#511F19" stroke-width="0.43" stroke-miterlimit="10"/>
<path d="M41.26 285.48V237.45" stroke="#511F19" stroke-width="0.43" stroke-miterlimit="10"/>
<path d="M142.52 8.47998H140.26V30.14H142.52V8.47998Z" fill="#511F19"/>
<path d="M198.67 8.47998H191.6V235.95H198.67V8.47998Z" fill="#511F19"/>
<path d="M142.52 53.0601H140.26V81.8601H142.52V53.0601Z" fill="#511F19"/>
<path d="M142.52 104.79H140.26V178.83H142.52V104.79Z" fill="#511F19"/>
<path d="M111.71 110.42H38.99V112.69H111.71V110.42Z" fill="#511F19"/>
<path d="M141.7 110.42H137.36V112.69H141.7V110.42Z" fill="#511F19"/>
<path d="M140.86 232.25H114.48V234.52H140.86V232.25Z" fill="#511F19"/>
<path d="M145.28 176.66H140.94V178.82H145.28V176.66Z" fill="#511F19"/>
<path d="M209.13 176.66H168.21V178.82H209.13V176.66Z" fill="#511F19"/>
<path d="M100.49 111.38H69.47V117.51H100.49V111.38Z" fill="#511F19"/>
<path d="M198.11 65.2998H140.26V67.5798H198.11V65.2998Z" fill="#511F19"/>
<path d="M209.14 130.8H140.26V133.08H209.14V130.8Z" fill="#511F19"/>
<path d="M209.15 132.46H181.2V178.29H209.15V132.46Z" fill="#511F19"/>
<path d="M198.67 232.25H171.82V237.87H198.67V232.25Z" fill="#511F19"/>
<path d="M142.18 235.58H136.5V237.83H142.18V235.58Z" fill="#511F19"/>
<path d="M198.68 235.62H170.45V237.87H198.68V235.62Z" fill="#511F19"/>
<path d="M140.86 232.25H132.82V237.83H140.86V232.25Z" fill="#511F19"/>
<path d="M138.46 232.25H132.82V316.1H138.46V232.25Z" fill="#511F19"/>
<path d="M136.22 277.46H115.31V316.1H136.22V277.46Z" fill="#511F19"/>
<path d="M135.64 309.02H33.52V316.1H135.64V309.02Z" fill="#511F19"/>
<path d="M142.18 237.88V266.14" stroke="#511F19" stroke-width="0.85" stroke-miterlimit="10"/>
<path d="M142.18 266.14C157.79 266.14 170.44 253.49 170.44 237.88" stroke="#511F19" stroke-width="0.43" stroke-miterlimit="10"/>
<path d="M111.7 111.21L133.07 100.69" stroke="#511F19" stroke-width="0.85" stroke-miterlimit="10"/>
<path d="M145.27 178.82L166.64 189.35" stroke="#511F19" stroke-width="0.85" stroke-miterlimit="10"/>
<path d="M140.26 81.8599L130.45 102.16" stroke="#511F19" stroke-width="0.85" stroke-miterlimit="10"/>
<path d="M34.18 148.47V172.81H41.26V146.67" stroke="#511F19" stroke-width="0.43" stroke-miterlimit="10"/>
<path d="M37.73 146.68V172.81" stroke="#511F19" stroke-width="0.43" stroke-miterlimit="10"/>
<path d="M38.51 172.83H36.97V174.62H38.51V172.83Z" fill="#511F19"/>
<path d="M38.51 193.58H36.97V195.37H38.51V193.58Z" fill="#511F19"/>
<path d="M38.51 193.58H57.49" stroke="#511F19" stroke-width="0.85" stroke-miterlimit="10"/>
<path d="M57.49 193.58C57.49 183.1 49 174.61 38.52 174.61" stroke="#511F19" stroke-width="0.43" stroke-miterlimit="10"/>
<path d="M145.94 164.59V159.39L146.4 159.86H144.76V158.99H146.98V164.59H145.94Z" fill="#13110C"/>
<path d="M148.14 165.8L148.6 164.03L148.74 164.62C148.55 164.62 148.4 164.56 148.27 164.45C148.14 164.33 148.08 164.18 148.08 163.98C148.08 163.78 148.14 163.62 148.27 163.5C148.39 163.38 148.55 163.32 148.73 163.32C148.91 163.32 149.07 163.38 149.19 163.5C149.31 163.62 149.37 163.78 149.37 163.98C149.37 164.03 149.37 164.09 149.35 164.15C149.34 164.21 149.32 164.28 149.3 164.36C149.28 164.44 149.24 164.54 149.18 164.66L148.77 165.79H148.12L148.14 165.8Z" fill="#13110C"/>
<path d="M151.94 158.91C152.45 158.91 152.89 159.02 153.25 159.23C153.61 159.45 153.89 159.76 154.08 160.17C154.27 160.58 154.37 161.09 154.37 161.69C154.37 162.33 154.25 162.87 154.02 163.31C153.79 163.75 153.47 164.09 153.06 164.32C152.65 164.55 152.17 164.66 151.63 164.66C151.35 164.66 151.08 164.63 150.82 164.57C150.56 164.51 150.34 164.42 150.16 164.3L150.54 163.52C150.7 163.62 150.86 163.69 151.04 163.73C151.22 163.77 151.41 163.79 151.6 163.79C152.13 163.79 152.55 163.63 152.86 163.3C153.17 162.97 153.32 162.5 153.32 161.86C153.32 161.76 153.32 161.64 153.32 161.5C153.32 161.36 153.3 161.23 153.26 161.09L153.58 161.44C153.49 161.66 153.36 161.84 153.19 161.99C153.02 162.14 152.82 162.25 152.59 162.32C152.36 162.39 152.11 162.43 151.83 162.43C151.47 162.43 151.14 162.36 150.85 162.22C150.56 162.08 150.33 161.88 150.16 161.62C149.99 161.36 149.9 161.06 149.9 160.71C149.9 160.34 149.99 160.02 150.17 159.75C150.35 159.48 150.6 159.27 150.91 159.12C151.22 158.97 151.57 158.9 151.95 158.9L151.94 158.91ZM152 159.73C151.79 159.73 151.6 159.77 151.43 159.85C151.26 159.93 151.14 160.04 151.04 160.18C150.95 160.32 150.9 160.49 150.9 160.69C150.9 160.98 151 161.22 151.2 161.39C151.4 161.56 151.67 161.65 152.02 161.65C152.24 161.65 152.44 161.61 152.61 161.53C152.78 161.45 152.91 161.33 153.01 161.19C153.11 161.04 153.15 160.88 153.15 160.7C153.15 160.52 153.11 160.37 153.01 160.22C152.92 160.08 152.79 159.97 152.62 159.88C152.45 159.8 152.24 159.75 151.99 159.75L152 159.73Z" fill="#13110C"/>
<path d="M156.95 158.91C157.46 158.91 157.9 159.02 158.26 159.23C158.62 159.45 158.9 159.76 159.09 160.17C159.28 160.58 159.38 161.09 159.38 161.69C159.38 162.33 159.26 162.87 159.03 163.31C158.8 163.75 158.48 164.09 158.07 164.32C157.66 164.55 157.18 164.66 156.64 164.66C156.36 164.66 156.09 164.63 155.83 164.57C155.57 164.51 155.35 164.42 155.17 164.3L155.55 163.52C155.71 163.62 155.87 163.69 156.05 163.73C156.23 163.77 156.42 163.79 156.61 163.79C157.14 163.79 157.56 163.63 157.87 163.3C158.18 162.97 158.33 162.5 158.33 161.86C158.33 161.76 158.33 161.64 158.33 161.5C158.33 161.36 158.31 161.23 158.27 161.09L158.59 161.44C158.5 161.66 158.37 161.84 158.2 161.99C158.03 162.14 157.83 162.25 157.6 162.32C157.37 162.39 157.12 162.43 156.84 162.43C156.48 162.43 156.15 162.36 155.86 162.22C155.57 162.08 155.34 161.88 155.17 161.62C155 161.36 154.91 161.06 154.91 160.71C154.91 160.34 155 160.02 155.18 159.75C155.36 159.48 155.61 159.27 155.92 159.12C156.23 158.97 156.58 158.9 156.96 158.9L156.95 158.91ZM157.01 159.73C156.8 159.73 156.61 159.77 156.44 159.85C156.27 159.93 156.15 160.04 156.05 160.18C155.96 160.32 155.91 160.49 155.91 160.69C155.91 160.98 156.01 161.22 156.21 161.39C156.41 161.56 156.68 161.65 157.03 161.65C157.25 161.65 157.45 161.61 157.62 161.53C157.79 161.45 157.92 161.33 158.02 161.19C158.12 161.04 158.16 160.88 158.16 160.7C158.16 160.52 158.12 160.37 158.02 160.22C157.93 160.08 157.8 159.97 157.63 159.88C157.46 159.8 157.25 159.75 157 159.75L157.01 159.73Z" fill="#13110C"/>
<path d="M81.67 84.2899V79.0899L82.13 79.5599H80.49V78.6899H82.71V84.2899H81.67Z" fill="#13110C"/>
<path d="M83.75 84.2901V83.5901L85.97 81.4801C86.16 81.3001 86.3 81.1501 86.39 81.0201C86.48 80.8901 86.54 80.7601 86.57 80.6501C86.6 80.5301 86.61 80.4301 86.61 80.3301C86.61 80.0701 86.52 79.8701 86.35 79.7301C86.17 79.5901 85.92 79.5201 85.57 79.5201C85.3 79.5201 85.05 79.5701 84.83 79.6601C84.61 79.7601 84.42 79.9001 84.26 80.1001L83.53 79.5401C83.75 79.2501 84.04 79.0201 84.41 78.8601C84.78 78.7001 85.2 78.6201 85.65 78.6201C86.06 78.6201 86.41 78.6901 86.71 78.8201C87.01 78.9501 87.24 79.1401 87.41 79.3801C87.57 79.6201 87.65 79.9101 87.65 80.2401C87.65 80.4201 87.63 80.6001 87.58 80.7801C87.53 80.9601 87.44 81.1501 87.31 81.3401C87.18 81.5401 86.98 81.7601 86.73 82.0001L84.82 83.8201L84.6 83.4301H87.87V84.3101H83.74L83.75 84.2901Z" fill="#13110C"/>
<path d="M88.6 85.5L89.06 83.73L89.2 84.32C89.01 84.32 88.86 84.26 88.73 84.15C88.6 84.03 88.54 83.88 88.54 83.68C88.54 83.48 88.6 83.32 88.73 83.2C88.85 83.08 89.01 83.02 89.19 83.02C89.37 83.02 89.53 83.08 89.65 83.2C89.77 83.32 89.83 83.48 89.83 83.68C89.83 83.73 89.83 83.79 89.81 83.85C89.8 83.91 89.78 83.98 89.76 84.06C89.74 84.14 89.7 84.24 89.64 84.36L89.23 85.49H88.58L88.6 85.5Z" fill="#13110C"/>
<path d="M91.32 84.2899V79.0899L91.78 79.5599H90.14V78.6899H92.36V84.2899H91.32Z" fill="#13110C"/>
<path d="M95.36 78.6101C95.87 78.6101 96.31 78.7201 96.67 78.9301C97.03 79.1501 97.31 79.4601 97.5 79.8701C97.69 80.2801 97.79 80.7901 97.79 81.3901C97.79 82.0301 97.67 82.5701 97.44 83.0101C97.21 83.4501 96.89 83.7901 96.48 84.0201C96.07 84.2501 95.59 84.3601 95.05 84.3601C94.77 84.3601 94.5 84.3301 94.24 84.2701C93.98 84.2101 93.76 84.1201 93.58 84.0001L93.96 83.2201C94.12 83.3201 94.28 83.3901 94.46 83.4301C94.64 83.4701 94.83 83.4901 95.02 83.4901C95.55 83.4901 95.97 83.3301 96.28 83.0001C96.59 82.6701 96.74 82.2001 96.74 81.5601C96.74 81.4601 96.74 81.3401 96.74 81.2001C96.74 81.0601 96.72 80.9301 96.68 80.7901L97 81.1401C96.91 81.3601 96.78 81.5401 96.61 81.6901C96.44 81.8401 96.24 81.9501 96.01 82.0201C95.78 82.0901 95.53 82.1301 95.25 82.1301C94.89 82.1301 94.56 82.0601 94.27 81.9201C93.98 81.7801 93.75 81.5801 93.58 81.3201C93.41 81.0601 93.32 80.7601 93.32 80.4101C93.32 80.0401 93.41 79.7201 93.59 79.4501C93.77 79.1801 94.02 78.9701 94.33 78.8201C94.64 78.6701 94.99 78.6001 95.37 78.6001L95.36 78.6101ZM95.42 79.4301C95.21 79.4301 95.02 79.4701 94.85 79.5501C94.68 79.6301 94.56 79.7401 94.46 79.8801C94.37 80.0201 94.32 80.1901 94.32 80.3901C94.32 80.6801 94.42 80.9201 94.62 81.0901C94.82 81.2601 95.09 81.3501 95.44 81.3501C95.66 81.3501 95.86 81.3101 96.03 81.2301C96.2 81.1501 96.33 81.0301 96.43 80.8901C96.53 80.7401 96.57 80.5801 96.57 80.4001C96.57 80.2201 96.53 80.0701 96.43 79.9201C96.34 79.7801 96.21 79.6701 96.04 79.5801C95.87 79.5001 95.66 79.4501 95.41 79.4501L95.42 79.4301Z" fill="#13110C"/>
<path d="M160.21 44.3699C159.82 44.3699 159.43 44.3099 159.05 44.1999C158.67 44.0799 158.36 43.9299 158.1 43.7199L158.55 42.9099C158.75 43.0799 159 43.2099 159.29 43.3099C159.58 43.4099 159.88 43.4599 160.19 43.4599C160.56 43.4599 160.85 43.3799 161.06 43.2299C161.27 43.0799 161.37 42.8699 161.37 42.6099C161.37 42.3499 161.27 42.1499 161.08 41.9999C160.89 41.8499 160.58 41.7799 160.15 41.7799H159.64V41.0699L161.24 39.1699L161.38 39.5599H158.37V38.6899H162.19V39.3899L160.59 41.2899L160.05 40.9699H160.36C161.05 40.9699 161.56 41.1199 161.91 41.4299C162.26 41.7399 162.43 42.1299 162.43 42.6099C162.43 42.9199 162.35 43.2199 162.19 43.4799C162.03 43.7399 161.79 43.9599 161.46 44.1199C161.13 44.2799 160.72 44.3599 160.22 44.3599L160.21 44.3699Z" fill="#13110C"/>
<path d="M163.14 45.5L163.6 43.73L163.74 44.32C163.55 44.32 163.4 44.26 163.27 44.15C163.14 44.03 163.08 43.88 163.08 43.68C163.08 43.48 163.14 43.32 163.27 43.2C163.39 43.08 163.55 43.02 163.73 43.02C163.91 43.02 164.07 43.08 164.19 43.2C164.31 43.32 164.37 43.48 164.37 43.68C164.37 43.73 164.37 43.79 164.35 43.85C164.34 43.91 164.32 43.98 164.3 44.06C164.28 44.14 164.24 44.24 164.18 44.36L163.77 45.49H163.12L163.14 45.5Z" fill="#13110C"/>
<path d="M165.06 44.2901V43.5901L167.28 41.4801C167.47 41.3001 167.61 41.1501 167.7 41.0201C167.79 40.8901 167.85 40.7601 167.88 40.6501C167.91 40.5301 167.92 40.4301 167.92 40.3301C167.92 40.0701 167.83 39.8701 167.66 39.7301C167.48 39.5901 167.23 39.5201 166.88 39.5201C166.61 39.5201 166.36 39.5701 166.14 39.6601C165.92 39.7601 165.73 39.9001 165.57 40.1001L164.84 39.5401C165.06 39.2501 165.35 39.0201 165.72 38.8601C166.09 38.7001 166.51 38.6201 166.96 38.6201C167.37 38.6201 167.72 38.6901 168.02 38.8201C168.32 38.9501 168.55 39.1401 168.72 39.3801C168.88 39.6201 168.96 39.9101 168.96 40.2401C168.96 40.4201 168.94 40.6001 168.89 40.7801C168.84 40.9601 168.75 41.1501 168.62 41.3401C168.49 41.5401 168.29 41.7601 168.04 42.0001L166.13 43.8201L165.91 43.4301H169.18V44.3101H165.05L165.06 44.2901Z" fill="#13110C"/>
<path d="M170.73 44.2902L173.04 39.1102L173.31 39.5702H170.13L170.63 39.0702V40.5302H169.66V38.7002H174.01V39.4002L171.83 44.3002H170.72L170.73 44.2902Z" fill="#13110C"/>
<path d="M69.42 270.26V269.56L71.64 267.45C71.83 267.27 71.97 267.12 72.06 266.99C72.15 266.86 72.21 266.73 72.24 266.62C72.27 266.5 72.28 266.4 72.28 266.3C72.28 266.04 72.19 265.84 72.02 265.7C71.84 265.56 71.59 265.49 71.24 265.49C70.97 265.49 70.72 265.54 70.5 265.63C70.28 265.73 70.09 265.87 69.93 266.07L69.2 265.51C69.42 265.22 69.71 264.99 70.08 264.83C70.45 264.67 70.87 264.59 71.32 264.59C71.73 264.59 72.08 264.66 72.38 264.79C72.68 264.92 72.91 265.11 73.08 265.35C73.24 265.59 73.32 265.88 73.32 266.21C73.32 266.39 73.3 266.57 73.25 266.75C73.2 266.93 73.11 267.12 72.98 267.31C72.85 267.51 72.65 267.73 72.4 267.97L70.49 269.79L70.27 269.4H73.54V270.28H69.41L69.42 270.26Z" fill="#13110C"/>
<path d="M74.08 270.26V269.56L76.3 267.45C76.49 267.27 76.63 267.12 76.72 266.99C76.81 266.86 76.87 266.73 76.9 266.62C76.93 266.5 76.94 266.4 76.94 266.3C76.94 266.04 76.85 265.84 76.68 265.7C76.5 265.56 76.25 265.49 75.9 265.49C75.63 265.49 75.38 265.54 75.16 265.63C74.94 265.72 74.75 265.87 74.59 266.07L73.86 265.51C74.08 265.22 74.37 264.99 74.74 264.83C75.11 264.67 75.53 264.59 75.98 264.59C76.39 264.59 76.74 264.66 77.04 264.79C77.34 264.92 77.57 265.11 77.74 265.35C77.9 265.59 77.98 265.88 77.98 266.21C77.98 266.39 77.96 266.57 77.91 266.75C77.86 266.93 77.77 267.12 77.64 267.31C77.51 267.51 77.31 267.73 77.06 267.97L75.15 269.79L74.93 269.4H78.2V270.28H74.07L74.08 270.26Z" fill="#13110C"/>
<path d="M78.93 271.47L79.39 269.7L79.53 270.29C79.34 270.29 79.19 270.23 79.06 270.12C78.94 270 78.87 269.85 78.87 269.65C78.87 269.45 78.93 269.29 79.06 269.17C79.19 269.05 79.34 268.99 79.52 268.99C79.7 268.99 79.86 269.05 79.98 269.17C80.1 269.29 80.16 269.45 80.16 269.65C80.16 269.7 80.16 269.76 80.14 269.82C80.13 269.88 80.11 269.95 80.09 270.03C80.07 270.11 80.03 270.21 79.97 270.33L79.56 271.46H78.91L78.93 271.47Z" fill="#13110C"/>
<path d="M82.68 270.34C82.29 270.34 81.9 270.28 81.52 270.17C81.14 270.05 80.83 269.9 80.57 269.69L81.02 268.88C81.22 269.05 81.47 269.18 81.76 269.28C82.05 269.38 82.35 269.43 82.66 269.43C83.03 269.43 83.32 269.35 83.53 269.2C83.74 269.05 83.84 268.84 83.84 268.58C83.84 268.32 83.74 268.12 83.55 267.97C83.36 267.82 83.05 267.75 82.62 267.75H82.11V267.04L83.71 265.14L83.85 265.53H80.84V264.66H84.66V265.36L83.06 267.26L82.52 266.94H82.83C83.52 266.94 84.03 267.09 84.38 267.4C84.73 267.71 84.9 268.1 84.9 268.58C84.9 268.89 84.82 269.19 84.66 269.45C84.5 269.71 84.26 269.93 83.93 270.09C83.6 270.25 83.19 270.33 82.69 270.33L82.68 270.34Z" fill="#13110C"/>
<path d="M86.43 270.26L88.74 265.08L89.01 265.54H85.83L86.33 265.04V266.5H85.36V264.67H89.71V265.37L87.53 270.27H86.42L86.43 270.26Z" fill="#13110C"/>
<path d="M8.97 156.18V155.48L11.19 153.37C11.38 153.19 11.52 153.04 11.61 152.91C11.7 152.78 11.76 152.65 11.79 152.54C11.82 152.42 11.83 152.32 11.83 152.22C11.83 151.96 11.74 151.76 11.57 151.62C11.39 151.48 11.14 151.41 10.79 151.41C10.52 151.41 10.27 151.46 10.05 151.55C9.83 151.65 9.64 151.79 9.48 151.99L8.75 151.43C8.97 151.14 9.26 150.91 9.63 150.75C10 150.59 10.42 150.51 10.87 150.51C11.28 150.51 11.63 150.58 11.93 150.71C12.23 150.84 12.46 151.03 12.63 151.27C12.79 151.51 12.87 151.8 12.87 152.13C12.87 152.31 12.85 152.49 12.8 152.67C12.75 152.85 12.66 153.04 12.53 153.23C12.4 153.43 12.2 153.65 11.95 153.89L10.04 155.71L9.83 155.32H13.1V156.2H8.97V156.18Z" fill="#13110C"/>
<path d="M13.82 157.39L14.28 155.62L14.42 156.21C14.23 156.21 14.08 156.15 13.95 156.04C13.83 155.92 13.76 155.77 13.76 155.57C13.76 155.37 13.82 155.21 13.95 155.09C14.08 154.97 14.23 154.91 14.41 154.91C14.59 154.91 14.75 154.97 14.87 155.09C14.99 155.21 15.05 155.37 15.05 155.57C15.05 155.62 15.05 155.68 15.03 155.74C15.03 155.8 15 155.87 14.98 155.95C14.96 156.03 14.92 156.13 14.86 156.25L14.45 157.38H13.8L13.82 157.39Z" fill="#13110C"/>
<path d="M17.62 150.5C18.13 150.5 18.57 150.61 18.93 150.82C19.29 151.04 19.57 151.35 19.76 151.76C19.95 152.17 20.05 152.68 20.05 153.28C20.05 153.92 19.93 154.46 19.7 154.9C19.47 155.34 19.15 155.68 18.74 155.91C18.33 156.14 17.85 156.25 17.31 156.25C17.03 156.25 16.76 156.22 16.5 156.16C16.24 156.1 16.02 156.01 15.84 155.89L16.22 155.11C16.37 155.21 16.54 155.28 16.72 155.32C16.9 155.36 17.09 155.38 17.28 155.38C17.81 155.38 18.23 155.22 18.54 154.89C18.85 154.56 19 154.09 19 153.45C19 153.35 19 153.23 19 153.09C19 152.95 18.98 152.82 18.94 152.68L19.26 153.03C19.17 153.25 19.04 153.43 18.87 153.58C18.7 153.73 18.5 153.84 18.27 153.91C18.04 153.98 17.79 154.02 17.51 154.02C17.15 154.02 16.82 153.95 16.53 153.81C16.24 153.67 16.01 153.47 15.84 153.21C15.67 152.95 15.58 152.65 15.58 152.3C15.58 151.93 15.67 151.61 15.85 151.34C16.03 151.07 16.28 150.86 16.59 150.71C16.9 150.56 17.25 150.49 17.63 150.49L17.62 150.5ZM17.68 151.32C17.47 151.32 17.28 151.36 17.11 151.44C16.94 151.52 16.82 151.63 16.72 151.77C16.62 151.91 16.58 152.08 16.58 152.28C16.58 152.57 16.68 152.81 16.88 152.98C17.08 153.15 17.35 153.24 17.7 153.24C17.92 153.24 18.12 153.2 18.29 153.12C18.46 153.04 18.59 152.92 18.69 152.78C18.79 152.63 18.83 152.47 18.83 152.29C18.83 152.11 18.78 151.96 18.69 151.81C18.6 151.67 18.47 151.56 18.3 151.47C18.13 151.39 17.92 151.34 17.67 151.34L17.68 151.32Z" fill="#13110C"/>
<path d="M23 156.26C22.54 156.26 22.13 156.19 21.79 156.05C21.45 155.91 21.18 155.72 21 155.46C20.81 155.21 20.72 154.91 20.72 154.57C20.72 154.23 20.81 153.94 20.99 153.71C21.17 153.47 21.43 153.3 21.78 153.17C22.12 153.05 22.53 152.99 23 152.99C23.47 152.99 23.88 153.05 24.23 153.17C24.58 153.29 24.84 153.47 25.02 153.71C25.2 153.95 25.3 154.23 25.3 154.57C25.3 154.91 25.21 155.21 25.02 155.46C24.83 155.71 24.56 155.91 24.22 156.05C23.88 156.19 23.47 156.26 23.01 156.26H23ZM23 153.53C22.57 153.53 22.2 153.47 21.89 153.36C21.58 153.25 21.34 153.08 21.17 152.86C21 152.64 20.92 152.37 20.92 152.06C20.92 151.75 21.01 151.46 21.18 151.23C21.35 151 21.6 150.82 21.91 150.69C22.22 150.56 22.59 150.5 23 150.5C23.41 150.5 23.78 150.56 24.1 150.69C24.42 150.82 24.66 151 24.84 151.23C25.02 151.46 25.1 151.74 25.1 152.06C25.1 152.38 25.02 152.64 24.85 152.86C24.68 153.08 24.44 153.25 24.13 153.36C23.82 153.48 23.44 153.53 23.01 153.53H23ZM23 155.44C23.38 155.44 23.69 155.36 23.91 155.2C24.13 155.04 24.25 154.82 24.25 154.54C24.25 154.26 24.14 154.04 23.91 153.88C23.68 153.72 23.38 153.64 23 153.64C22.62 153.64 22.31 153.72 22.1 153.88C21.89 154.04 21.77 154.26 21.77 154.54C21.77 154.82 21.88 155.04 22.1 155.2C22.32 155.36 22.62 155.44 23 155.44ZM23 152.89C23.33 152.89 23.59 152.82 23.78 152.68C23.97 152.54 24.07 152.35 24.07 152.11C24.07 151.87 23.97 151.66 23.78 151.53C23.59 151.4 23.32 151.32 23 151.32C22.68 151.32 22.42 151.39 22.23 151.53C22.04 151.67 21.94 151.86 21.94 152.11C21.94 152.36 22.03 152.54 22.22 152.68C22.41 152.82 22.67 152.89 22.99 152.89H23Z" fill="#13110C"/>
<path d="M140.58 208.2C140.19 208.2 139.8 208.14 139.42 208.03C139.04 207.91 138.73 207.76 138.47 207.55L138.92 206.74C139.12 206.91 139.37 207.04 139.66 207.14C139.95 207.24 140.25 207.29 140.56 207.29C140.93 207.29 141.22 207.21 141.43 207.06C141.64 206.91 141.74 206.7 141.74 206.44C141.74 206.18 141.64 205.98 141.45 205.83C141.26 205.68 140.95 205.61 140.52 205.61H140.01V204.9L141.61 203L141.75 203.39H138.74V202.52H142.56V203.22L140.96 205.12L140.42 204.8H140.73C141.42 204.8 141.93 204.95 142.28 205.26C142.63 205.57 142.8 205.96 142.8 206.44C142.8 206.75 142.72 207.05 142.56 207.31C142.4 207.58 142.16 207.79 141.83 207.95C141.5 208.11 141.09 208.19 140.59 208.19L140.58 208.2Z" fill="#13110C"/>
<path d="M143.51 209.33L143.97 207.56L144.11 208.15C143.92 208.15 143.77 208.09 143.64 207.98C143.52 207.86 143.45 207.71 143.45 207.51C143.45 207.31 143.51 207.15 143.64 207.03C143.77 206.91 143.92 206.85 144.1 206.85C144.28 206.85 144.44 206.91 144.56 207.03C144.68 207.15 144.74 207.31 144.74 207.51C144.74 207.56 144.74 207.62 144.72 207.68C144.71 207.74 144.69 207.81 144.67 207.89C144.65 207.97 144.61 208.07 144.55 208.19L144.14 209.32H143.49L143.51 209.33Z" fill="#13110C"/>
<path d="M147.26 208.2C146.87 208.2 146.48 208.14 146.1 208.03C145.72 207.91 145.41 207.76 145.15 207.55L145.6 206.74C145.8 206.91 146.05 207.04 146.34 207.14C146.63 207.24 146.93 207.29 147.24 207.29C147.61 207.29 147.9 207.21 148.11 207.06C148.32 206.91 148.42 206.7 148.42 206.44C148.42 206.18 148.32 205.98 148.13 205.83C147.94 205.68 147.63 205.61 147.2 205.61H146.69V204.9L148.29 203L148.43 203.39H145.42V202.52H149.24V203.22L147.64 205.12L147.1 204.8H147.41C148.1 204.8 148.61 204.95 148.96 205.26C149.31 205.57 149.48 205.96 149.48 206.44C149.48 206.75 149.4 207.05 149.24 207.31C149.08 207.58 148.84 207.79 148.51 207.95C148.18 208.11 147.77 208.19 147.27 208.19L147.26 208.2Z" fill="#13110C"/>
<path d="M150.08 206.85V206.13L152.84 202.52H153.95L151.23 206.13L150.71 205.97H155.15V206.85H150.08ZM153.15 208.12V206.85L153.18 205.97V204.84H154.16V208.12H153.15Z" fill="#13110C"/>
<path d="M153.75 99.5101C153.36 99.5101 152.97 99.4501 152.59 99.3401C152.21 99.2201 151.9 99.0701 151.64 98.8601L152.09 98.0501C152.29 98.2201 152.54 98.3501 152.83 98.4501C153.12 98.5501 153.42 98.6001 153.73 98.6001C154.1 98.6001 154.39 98.5201 154.6 98.3701C154.81 98.2201 154.91 98.0101 154.91 97.7501C154.91 97.4901 154.81 97.2901 154.62 97.1401C154.43 96.9901 154.12 96.9201 153.69 96.9201H153.18V96.2101L154.78 94.3101L154.92 94.7001H151.91V93.8301H155.73V94.5301L154.13 96.4301L153.59 96.1101H153.9C154.59 96.1101 155.1 96.2601 155.45 96.5701C155.8 96.8801 155.97 97.2701 155.97 97.7501C155.97 98.0601 155.89 98.3601 155.73 98.6201C155.57 98.8801 155.33 99.1001 155 99.2601C154.67 99.4201 154.26 99.5001 153.76 99.5001L153.75 99.5101Z" fill="#13110C"/>
<path d="M156.68 100.64L157.14 98.8702L157.28 99.4602C157.09 99.4602 156.94 99.4002 156.81 99.2902C156.68 99.1702 156.62 99.0202 156.62 98.8202C156.62 98.6202 156.68 98.4601 156.81 98.3401C156.93 98.2201 157.09 98.1602 157.27 98.1602C157.45 98.1602 157.61 98.2201 157.73 98.3401C157.85 98.4601 157.91 98.6202 157.91 98.8202C157.91 98.8702 157.91 98.9302 157.89 98.9902C157.88 99.0502 157.86 99.1201 157.84 99.2001C157.82 99.2801 157.78 99.3802 157.72 99.5002L157.31 100.63H156.66L156.68 100.64Z" fill="#13110C"/>
<path d="M159.41 99.4298L161.72 94.2498L161.99 94.7098H158.81L159.31 94.2098V95.6698H158.34V93.8398H162.69V94.5398L160.51 99.4398H159.4L159.41 99.4298Z" fill="#13110C"/>
<path d="M162.74 98.1601V97.4401L165.5 93.8301H166.61L163.89 97.4401L163.37 97.2801H167.81V98.1601H162.74ZM165.81 99.4301V98.1601L165.84 97.2801V96.1501H166.82V99.4301H165.81Z" fill="#13110C"/>
<path d="M96.25 173.89V173.19L98.47 171.08C98.66 170.9 98.8 170.75 98.89 170.62C98.98 170.49 99.04 170.36 99.07 170.25C99.1 170.13 99.11 170.03 99.11 169.93C99.11 169.67 99.02 169.47 98.85 169.33C98.67 169.19 98.42 169.12 98.07 169.12C97.8 169.12 97.55 169.17 97.33 169.26C97.11 169.36 96.92 169.5 96.76 169.7L96.03 169.14C96.25 168.85 96.54 168.62 96.91 168.46C97.28 168.3 97.7 168.22 98.15 168.22C98.56 168.22 98.91 168.29 99.21 168.42C99.51 168.55 99.74 168.74 99.91 168.98C100.07 169.22 100.15 169.51 100.15 169.84C100.15 170.02 100.13 170.2 100.08 170.38C100.03 170.56 99.94 170.75 99.81 170.94C99.68 171.14 99.48 171.36 99.23 171.6L97.32 173.42L97.1 173.03H100.37V173.91H96.24L96.25 173.89Z" fill="#C42F20"/>
<path d="M103.41 173.97C102.9 173.97 102.47 173.86 102.11 173.65C101.75 173.44 101.47 173.12 101.28 172.71C101.09 172.3 100.99 171.79 100.99 171.19C100.99 170.55 101.11 170.01 101.34 169.57C101.57 169.13 101.89 168.79 102.31 168.56C102.72 168.33 103.2 168.22 103.74 168.22C104.02 168.22 104.29 168.25 104.55 168.31C104.81 168.37 105.03 168.46 105.21 168.58L104.83 169.36C104.68 169.26 104.51 169.19 104.33 169.15C104.15 169.11 103.96 169.09 103.77 169.09C103.24 169.09 102.82 169.25 102.51 169.58C102.2 169.91 102.05 170.39 102.05 171.02C102.05 171.12 102.05 171.24 102.05 171.38C102.05 171.52 102.07 171.65 102.11 171.79L101.79 171.44C101.89 171.22 102.02 171.04 102.19 170.89C102.36 170.74 102.56 170.63 102.79 170.56C103.02 170.48 103.27 170.45 103.55 170.45C103.92 170.45 104.25 170.52 104.53 170.66C104.82 170.8 105.05 171 105.22 171.26C105.39 171.52 105.48 171.82 105.48 172.17C105.48 172.54 105.39 172.86 105.21 173.13C105.03 173.4 104.78 173.61 104.47 173.76C104.16 173.91 103.81 173.98 103.43 173.98L103.41 173.97ZM103.35 173.15C103.56 173.15 103.75 173.11 103.92 173.03C104.09 172.95 104.21 172.84 104.31 172.7C104.4 172.56 104.45 172.39 104.45 172.2C104.45 171.91 104.35 171.68 104.15 171.5C103.95 171.32 103.68 171.24 103.33 171.24C103.11 171.24 102.91 171.28 102.74 171.36C102.57 171.44 102.44 171.56 102.34 171.7C102.24 171.84 102.19 172.01 102.19 172.2C102.19 172.37 102.24 172.53 102.33 172.67C102.42 172.81 102.55 172.93 102.73 173.01C102.9 173.1 103.11 173.14 103.36 173.14L103.35 173.15Z" fill="#C42F20"/>
<path d="M106.12 175.1L106.58 173.33L106.72 173.92C106.53 173.92 106.38 173.86 106.25 173.75C106.13 173.63 106.06 173.48 106.06 173.28C106.06 173.08 106.12 172.92 106.25 172.8C106.38 172.68 106.53 172.62 106.71 172.62C106.89 172.62 107.05 172.68 107.17 172.8C107.29 172.92 107.35 173.08 107.35 173.28C107.35 173.33 107.35 173.39 107.33 173.45C107.32 173.51 107.3 173.58 107.28 173.66C107.26 173.74 107.22 173.84 107.16 173.96L106.75 175.09H106.1L106.12 175.1Z" fill="#C42F20"/>
<path d="M110.37 173.97C109.86 173.97 109.43 173.86 109.07 173.65C108.71 173.44 108.43 173.12 108.24 172.71C108.05 172.3 107.95 171.79 107.95 171.19C107.95 170.55 108.07 170.01 108.3 169.57C108.53 169.13 108.85 168.79 109.27 168.56C109.68 168.33 110.16 168.22 110.7 168.22C110.98 168.22 111.25 168.25 111.51 168.31C111.77 168.37 111.99 168.46 112.17 168.58L111.79 169.36C111.64 169.26 111.47 169.19 111.29 169.15C111.11 169.11 110.92 169.09 110.73 169.09C110.2 169.09 109.78 169.25 109.47 169.58C109.16 169.91 109.01 170.39 109.01 171.02C109.01 171.12 109.01 171.24 109.01 171.38C109.01 171.52 109.03 171.65 109.07 171.79L108.75 171.44C108.85 171.22 108.98 171.04 109.15 170.89C109.32 170.74 109.52 170.63 109.75 170.56C109.98 170.48 110.23 170.45 110.51 170.45C110.88 170.45 111.21 170.52 111.49 170.66C111.78 170.8 112.01 171 112.18 171.26C112.35 171.52 112.44 171.82 112.44 172.17C112.44 172.54 112.35 172.86 112.17 173.13C111.99 173.4 111.74 173.61 111.43 173.76C111.12 173.91 110.77 173.98 110.39 173.98L110.37 173.97ZM110.31 173.15C110.52 173.15 110.71 173.11 110.88 173.03C111.05 172.95 111.17 172.84 111.27 172.7C111.36 172.56 111.41 172.39 111.41 172.2C111.41 171.91 111.31 171.68 111.11 171.5C110.91 171.32 110.64 171.24 110.29 171.24C110.07 171.24 109.87 171.28 109.7 171.36C109.53 171.44 109.4 171.56 109.3 171.7C109.2 171.84 109.15 172.01 109.15 172.2C109.15 172.37 109.2 172.53 109.29 172.67C109.38 172.81 109.51 172.93 109.69 173.01C109.86 173.1 110.07 173.14 110.32 173.14L110.31 173.15Z" fill="#C42F20"/>
<path d="M115.39 173.97C114.88 173.97 114.45 173.86 114.09 173.65C113.73 173.43 113.45 173.12 113.26 172.71C113.07 172.3 112.97 171.79 112.97 171.19C112.97 170.55 113.09 170.01 113.32 169.57C113.55 169.13 113.87 168.79 114.29 168.56C114.71 168.33 115.18 168.22 115.72 168.22C116 168.22 116.27 168.25 116.53 168.31C116.79 168.37 117.01 168.46 117.19 168.58L116.81 169.36C116.65 169.26 116.49 169.19 116.31 169.15C116.13 169.11 115.94 169.09 115.75 169.09C115.22 169.09 114.8 169.25 114.49 169.58C114.18 169.91 114.03 170.39 114.03 171.02C114.03 171.12 114.03 171.24 114.03 171.38C114.03 171.52 114.05 171.65 114.09 171.79L113.77 171.44C113.87 171.22 114 171.04 114.17 170.89C114.34 170.74 114.54 170.63 114.77 170.56C115 170.48 115.25 170.45 115.53 170.45C115.9 170.45 116.23 170.52 116.51 170.66C116.8 170.8 117.03 171 117.2 171.26C117.37 171.52 117.46 171.82 117.46 172.17C117.46 172.54 117.37 172.86 117.19 173.13C117.01 173.4 116.76 173.61 116.45 173.76C116.14 173.91 115.79 173.98 115.41 173.98L115.39 173.97ZM115.33 173.15C115.54 173.15 115.73 173.11 115.9 173.03C116.07 172.95 116.19 172.84 116.29 172.7C116.38 172.56 116.43 172.39 116.43 172.2C116.43 171.91 116.33 171.68 116.13 171.5C115.93 171.33 115.65 171.24 115.31 171.24C115.09 171.24 114.89 171.28 114.72 171.36C114.55 171.44 114.42 171.56 114.32 171.7C114.22 171.84 114.17 172.01 114.17 172.2C114.17 172.37 114.21 172.53 114.31 172.67C114.41 172.81 114.53 172.93 114.71 173.01C114.88 173.1 115.09 173.14 115.34 173.14L115.33 173.15Z" fill="#C42F20"/>
<path d="M96.25 182.07V181.35L99.01 177.74H100.12L97.4 181.35L96.88 181.19H101.32V182.07H96.25ZM99.32 183.34V182.07L99.35 181.19V180.06H100.33V183.34H99.32Z" fill="#C42F20"/>
<path d="M104.18 183.42C103.67 183.42 103.24 183.31 102.88 183.1C102.52 182.89 102.24 182.57 102.05 182.16C101.86 181.75 101.76 181.24 101.76 180.64C101.76 180 101.88 179.46 102.11 179.02C102.34 178.58 102.66 178.24 103.08 178.01C103.49 177.78 103.97 177.67 104.51 177.67C104.79 177.67 105.06 177.7 105.32 177.76C105.58 177.82 105.8 177.91 105.98 178.03L105.6 178.81C105.45 178.71 105.28 178.64 105.1 178.6C104.92 178.56 104.73 178.54 104.54 178.54C104.01 178.54 103.59 178.7 103.28 179.03C102.97 179.36 102.82 179.84 102.82 180.47C102.82 180.57 102.82 180.69 102.82 180.83C102.82 180.97 102.84 181.1 102.88 181.24L102.56 180.89C102.66 180.67 102.79 180.49 102.96 180.34C103.13 180.19 103.33 180.08 103.56 180.01C103.79 179.93 104.04 179.9 104.32 179.9C104.69 179.9 105.02 179.97 105.3 180.11C105.59 180.25 105.82 180.45 105.99 180.71C106.16 180.97 106.25 181.27 106.25 181.62C106.25 181.99 106.16 182.31 105.98 182.58C105.8 182.85 105.55 183.06 105.24 183.21C104.93 183.36 104.58 183.43 104.2 183.43L104.18 183.42ZM104.12 182.6C104.33 182.6 104.52 182.56 104.69 182.48C104.86 182.4 104.98 182.29 105.08 182.15C105.17 182.01 105.22 181.84 105.22 181.65C105.22 181.36 105.12 181.13 104.92 180.95C104.72 180.77 104.45 180.69 104.1 180.69C103.88 180.69 103.68 180.73 103.51 180.81C103.34 180.89 103.21 181.01 103.11 181.15C103.01 181.29 102.96 181.46 102.96 181.65C102.96 181.82 103.01 181.98 103.1 182.12C103.19 182.26 103.32 182.38 103.5 182.46C103.67 182.55 103.88 182.59 104.13 182.59L104.12 182.6Z" fill="#C42F20"/>
<path d="M106.75 184.55L107.21 182.78L107.35 183.37C107.16 183.37 107.01 183.31 106.88 183.2C106.76 183.08 106.69 182.93 106.69 182.73C106.69 182.53 106.75 182.37 106.88 182.25C107.01 182.13 107.16 182.07 107.34 182.07C107.52 182.07 107.68 182.13 107.8 182.25C107.92 182.37 107.98 182.53 107.98 182.73C107.98 182.78 107.98 182.84 107.96 182.9C107.95 182.96 107.93 183.03 107.91 183.11C107.89 183.19 107.85 183.29 107.79 183.41L107.38 184.54H106.73L106.75 184.55Z" fill="#C42F20"/>
<path d="M110.47 177.66C110.98 177.66 111.42 177.77 111.78 177.98C112.14 178.2 112.42 178.51 112.61 178.92C112.8 179.33 112.9 179.84 112.9 180.44C112.9 181.08 112.78 181.62 112.55 182.06C112.32 182.5 112 182.84 111.59 183.07C111.18 183.3 110.7 183.41 110.16 183.41C109.88 183.41 109.61 183.38 109.35 183.32C109.09 183.26 108.87 183.17 108.69 183.05L109.07 182.27C109.22 182.37 109.39 182.44 109.57 182.48C109.75 182.52 109.94 182.54 110.13 182.54C110.66 182.54 111.08 182.38 111.39 182.05C111.7 181.72 111.85 181.25 111.85 180.61C111.85 180.51 111.85 180.39 111.85 180.25C111.85 180.11 111.83 179.98 111.79 179.84L112.11 180.19C112.02 180.41 111.89 180.59 111.72 180.74C111.55 180.89 111.35 181 111.12 181.07C110.89 181.14 110.64 181.18 110.36 181.18C110 181.18 109.67 181.11 109.38 180.97C109.09 180.83 108.86 180.63 108.69 180.37C108.52 180.11 108.43 179.81 108.43 179.46C108.43 179.09 108.52 178.77 108.7 178.5C108.88 178.23 109.13 178.02 109.44 177.87C109.75 177.72 110.1 177.65 110.48 177.65L110.47 177.66ZM110.53 178.48C110.32 178.48 110.13 178.52 109.96 178.6C109.79 178.68 109.67 178.79 109.57 178.93C109.48 179.07 109.43 179.24 109.43 179.44C109.43 179.73 109.53 179.97 109.73 180.14C109.93 180.31 110.2 180.4 110.55 180.4C110.77 180.4 110.97 180.36 111.14 180.28C111.31 180.2 111.44 180.08 111.54 179.94C111.64 179.79 111.68 179.63 111.68 179.45C111.68 179.27 111.63 179.12 111.54 178.97C111.45 178.83 111.32 178.72 111.15 178.63C110.98 178.55 110.77 178.5 110.52 178.5L110.53 178.48Z" fill="#C42F20"/>
<path d="M115.93 183.42C115.49 183.42 115.09 183.31 114.73 183.08C114.38 182.86 114.1 182.53 113.89 182.1C113.69 181.67 113.59 181.15 113.59 180.54C113.59 179.93 113.69 179.41 113.89 178.98C114.09 178.55 114.37 178.22 114.73 178C115.08 177.78 115.48 177.66 115.93 177.66C116.38 177.66 116.78 177.77 117.13 178C117.48 178.22 117.76 178.55 117.97 178.98C118.18 179.41 118.28 179.93 118.28 180.54C118.28 181.15 118.18 181.67 117.97 182.1C117.76 182.53 117.49 182.86 117.13 183.08C116.78 183.3 116.38 183.42 115.93 183.42ZM115.93 182.52C116.19 182.52 116.42 182.45 116.61 182.31C116.8 182.17 116.95 181.95 117.06 181.66C117.17 181.37 117.22 181 117.22 180.55C117.22 180.1 117.17 179.72 117.06 179.43C116.95 179.14 116.8 178.92 116.61 178.78C116.42 178.64 116.19 178.57 115.93 178.57C115.67 178.57 115.46 178.64 115.26 178.78C115.06 178.92 114.91 179.14 114.8 179.43C114.69 179.72 114.64 180.09 114.64 180.55C114.64 181.01 114.69 181.37 114.8 181.66C114.91 181.95 115.06 182.17 115.26 182.31C115.45 182.45 115.68 182.52 115.93 182.52Z" fill="#C42F20"/>
<path d="M66.65 185.12V177.44L67.49 178.28H64.97V176.72H68.59V185.12H66.65Z" fill="#C42F20"/>
<path d="M69.69 185.12L73.43 176.72H75.35L79.11 185.12H77.07L74 177.7H74.77L71.69 185.12H69.7H69.69ZM71.56 183.32L72.08 181.84H76.4L76.93 183.32H71.57H71.56Z" fill="#C42F20"/>
<path d="M79.52 182.49V180.99H82.92V182.49H79.52Z" fill="#C42F20"/>
<path d="M83.74 185.12V183.86L86.98 180.8C87.24 180.57 87.42 180.36 87.54 180.18C87.66 180 87.74 179.83 87.79 179.68C87.83 179.53 87.86 179.39 87.86 179.26C87.86 178.92 87.75 178.67 87.52 178.49C87.29 178.31 86.96 178.22 86.52 178.22C86.17 178.22 85.84 178.29 85.54 178.42C85.24 178.56 84.99 178.77 84.78 179.06L83.36 178.15C83.68 177.67 84.13 177.29 84.7 177.01C85.27 176.73 85.94 176.59 86.69 176.59C87.31 176.59 87.86 176.69 88.33 176.9C88.8 177.1 89.16 177.39 89.42 177.76C89.68 178.13 89.81 178.57 89.81 179.08C89.81 179.35 89.78 179.62 89.71 179.89C89.64 180.16 89.51 180.44 89.3 180.74C89.09 181.04 88.8 181.37 88.41 181.74L85.72 184.27L85.35 183.56H90.09V185.14H83.74V185.12Z" fill="#C42F20"/>
<path d="M96.25 191.18V190.46L99.01 186.85H100.12L97.4 190.46L96.88 190.3H101.32V191.18H96.25ZM99.32 192.45V191.18L99.35 190.3V189.17H100.33V192.45H99.32Z" fill="#C42F20"/>
<path d="M102.33 192.449L104.64 187.269L104.91 187.729H101.73L102.23 187.229V188.689H101.26V186.859H105.61V187.559L103.43 192.459H102.32L102.33 192.449Z" fill="#C42F20"/>
<path d="M106.55 193.66L107.01 191.89L107.15 192.48C106.96 192.48 106.81 192.42 106.68 192.31C106.55 192.19 106.49 192.04 106.49 191.84C106.49 191.64 106.55 191.48 106.68 191.36C106.8 191.24 106.96 191.18 107.14 191.18C107.32 191.18 107.48 191.24 107.6 191.36C107.72 191.48 107.78 191.64 107.78 191.84C107.78 191.89 107.78 191.95 107.76 192.01C107.75 192.07 107.73 192.14 107.71 192.22C107.69 192.3 107.65 192.4 107.59 192.52L107.18 193.65H106.53L106.55 193.66Z" fill="#C42F20"/>
<path d="M109.28 192.45L111.59 187.27L111.86 187.73H108.68L109.18 187.23V188.69H108.21V186.86H112.56V187.56L110.38 192.46H109.27L109.28 192.45Z" fill="#C42F20"/>
<path d="M115.1 186.77C115.61 186.77 116.05 186.88 116.41 187.09C116.77 187.31 117.05 187.62 117.24 188.03C117.43 188.44 117.53 188.95 117.53 189.55C117.53 190.19 117.41 190.73 117.18 191.17C116.95 191.61 116.63 191.95 116.22 192.18C115.81 192.41 115.33 192.52 114.79 192.52C114.51 192.52 114.24 192.49 113.98 192.43C113.72 192.37 113.5 192.28 113.32 192.16L113.7 191.38C113.85 191.48 114.02 191.55 114.2 191.59C114.38 191.63 114.57 191.65 114.76 191.65C115.29 191.65 115.71 191.49 116.02 191.16C116.33 190.83 116.48 190.36 116.48 189.72C116.48 189.62 116.48 189.5 116.48 189.36C116.48 189.22 116.46 189.09 116.42 188.95L116.74 189.3C116.65 189.52 116.52 189.7 116.35 189.85C116.18 190 115.98 190.11 115.75 190.18C115.52 190.25 115.27 190.29 114.99 190.29C114.63 190.29 114.3 190.22 114.01 190.08C113.72 189.94 113.49 189.74 113.32 189.48C113.15 189.22 113.06 188.92 113.06 188.57C113.06 188.2 113.15 187.88 113.33 187.61C113.51 187.34 113.76 187.13 114.07 186.98C114.38 186.83 114.73 186.76 115.11 186.76L115.1 186.77ZM115.16 187.59C114.95 187.59 114.76 187.63 114.59 187.71C114.42 187.79 114.3 187.9 114.2 188.04C114.11 188.18 114.06 188.35 114.06 188.55C114.06 188.84 114.16 189.08 114.36 189.25C114.56 189.42 114.83 189.51 115.18 189.51C115.4 189.51 115.6 189.47 115.77 189.39C115.94 189.31 116.07 189.19 116.17 189.05C116.27 188.9 116.31 188.74 116.31 188.56C116.31 188.38 116.26 188.23 116.17 188.08C116.08 187.94 115.95 187.83 115.78 187.74C115.61 187.66 115.4 187.61 115.15 187.61L115.16 187.59Z" fill="#C42F20"/>
<path d="M92.96 195.99V163.78" stroke="#C42F20" stroke-miterlimit="10"/>
</g>
<defs>
<clipPath id="clip0_2024_4783">
<rect width="209.14" height="315.6" fill="white" transform="translate(0 0.5)"/>
</clipPath>
</defs>
</svg>
