<svg width="249" height="249" viewBox="0 0 249 249" fill="none" xmlns="http://www.w3.org/2000/svg">
<g clip-path="url(#clip0_2024_5899)">
<path d="M31.74 158.95H10.7C10.31 158.95 9.99 159.27 9.99 159.66V180.99C9.99 181.38 10.31 181.7 10.7 181.7H13.16C13.55 181.7 13.87 181.38 13.87 180.99V162.82H31.74C32.13 162.82 32.45 162.5 32.45 162.11V159.65C32.45 159.26 32.13 158.94 31.74 158.94" stroke="#C7C6C5" stroke-width="0.43" stroke-miterlimit="10"/>
<path d="M31.74 158.95H10.7C10.31 158.95 9.99 159.27 9.99 159.66V180.99C9.99 181.38 10.31 181.7 10.7 181.7H13.16C13.55 181.7 13.87 181.38 13.87 180.99V162.82H31.74C32.13 162.82 32.45 162.5 32.45 162.11V159.65C32.45 159.26 32.13 158.94 31.74 158.94V158.95Z" stroke="#C7C6C5" stroke-width="0.43" stroke-miterlimit="10"/>
<path d="M31.74 156.2H7.78C7.39 156.2 7.07 156.52 7.07 156.91V180.99C7.07 181.38 7.39 181.7 7.78 181.7H9.11C9.5 181.7 9.99 181.38 9.99 180.99V158.95H31.74C32.13 158.95 32.45 158.63 32.45 158.24V156.91C32.45 156.52 32.13 156.2 31.74 156.2Z" stroke="#C7C6C5" stroke-width="0.43" stroke-miterlimit="10"/>
<path d="M31.74 156.2H7.78C7.39 156.2 7.07 156.52 7.07 156.91V180.99C7.07 181.38 7.39 181.7 7.78 181.7H9.11C9.5 181.7 9.99 181.38 9.99 180.99V158.95H31.74C32.13 158.95 32.45 158.63 32.45 158.24V156.91C32.45 156.52 32.13 156.2 31.74 156.2Z" stroke="#C7C6C5" stroke-width="0.43" stroke-miterlimit="10"/>
<path d="M13.87 162.83L10.35 159.29" stroke="#C7C6C5" stroke-width="0.43" stroke-miterlimit="10"/>
<path d="M14.58 162.83H31.75C32.14 162.83 32.46 163.15 32.46 163.54V181C32.46 181.39 32.14 181.71 31.75 181.71H14.59C14.2 181.71 13.88 181.39 13.88 181V163.54C13.88 163.15 14.2 162.83 14.59 162.83H14.58Z" stroke="#C7C6C5" stroke-width="0.43" stroke-miterlimit="10"/>
<path d="M14.58 162.83H31.75C32.14 162.83 32.46 163.15 32.46 163.54V181C32.46 181.39 32.14 181.71 31.75 181.71H14.59C14.2 181.71 13.88 181.39 13.88 181V163.54C13.88 163.15 14.2 162.83 14.59 162.83H14.58Z" stroke="#C7C6C5" stroke-width="0.43" stroke-miterlimit="10"/>
<path d="M31.74 204.45H10.7C10.31 204.45 9.99 204.13 9.99 203.74V182.41C9.99 182.02 10.31 181.7 10.7 181.7H13.16C13.55 181.7 13.87 182.02 13.87 182.41V200.58H31.74C32.13 200.58 32.45 200.9 32.45 201.29V203.75C32.45 204.14 32.13 204.46 31.74 204.46" stroke="#C7C6C5" stroke-width="0.43" stroke-miterlimit="10"/>
<path d="M31.74 204.45H10.7C10.31 204.45 9.99 204.13 9.99 203.74V182.41C9.99 182.02 10.31 181.7 10.7 181.7H13.16C13.55 181.7 13.87 182.02 13.87 182.41V200.58H31.74C32.13 200.58 32.45 200.9 32.45 201.29V203.75C32.45 204.14 32.13 204.46 31.74 204.46V204.45Z" stroke="#C7C6C5" stroke-width="0.43" stroke-miterlimit="10"/>
<path d="M31.74 207.2H7.78C7.39 207.2 7.07 206.88 7.07 206.49V182.41C7.07 182.02 7.39 181.7 7.78 181.7H9.11C9.5 181.7 9.99 182.02 9.99 182.41V204.45H31.74C32.13 204.45 32.45 204.77 32.45 205.16V206.49C32.45 206.88 32.13 207.2 31.74 207.2Z" stroke="#C7C6C5" stroke-width="0.43" stroke-miterlimit="10"/>
<path d="M31.74 207.2H7.78C7.39 207.2 7.07 206.88 7.07 206.49V182.41C7.07 182.02 7.39 181.7 7.78 181.7H9.11C9.5 181.7 9.99 182.02 9.99 182.41V204.45H31.74C32.13 204.45 32.45 204.77 32.45 205.16V206.49C32.45 206.88 32.13 207.2 31.74 207.2Z" stroke="#C7C6C5" stroke-width="0.43" stroke-miterlimit="10"/>
<path d="M13.87 200.58L10.35 204.12" stroke="#C7C6C5" stroke-width="0.43" stroke-miterlimit="10"/>
<path d="M14.58 181.7H31.75C32.14 181.7 32.46 182.02 32.46 182.41V199.87C32.46 200.26 32.14 200.58 31.75 200.58H14.59C14.2 200.58 13.88 200.26 13.88 199.87V182.41C13.88 182.02 14.2 181.7 14.59 181.7H14.58Z" stroke="#C7C6C5" stroke-width="0.43" stroke-miterlimit="10"/>
<path d="M14.58 181.7H31.75C32.14 181.7 32.46 182.02 32.46 182.41V199.87C32.46 200.26 32.14 200.58 31.75 200.58H14.59C14.2 200.58 13.88 200.26 13.88 199.87V182.41C13.88 182.02 14.2 181.7 14.59 181.7H14.58Z" stroke="#C7C6C5" stroke-width="0.43" stroke-miterlimit="10"/>
<path d="M81.24 156.4C81.24 156.4 82.36 156.54 82.78 156.97C83.06 157.25 83.35 158.6 79.72 162.24C76.09 165.87 74.73 165.58 74.45 165.3C73.86 164.71 73.88 163.76 73.88 163.76" stroke="#C7C6C5" stroke-width="0.43" stroke-miterlimit="10"/>
<path d="M81.24 156.4C81.24 156.4 82.36 156.54 82.78 156.97C83.06 157.25 83.35 158.6 79.72 162.24C76.09 165.87 74.73 165.58 74.45 165.3C73.86 164.71 73.88 163.76 73.88 163.76" stroke="#C7C6C5" stroke-width="0.43" stroke-miterlimit="10"/>
<path d="M66.94 157.78C66.66 157.5 66.66 157.05 66.94 156.78L74.27 149.45C74.55 149.17 74.99 149.17 75.27 149.45L81.18 155.36C81.46 155.64 81.75 156.99 78.12 160.63C74.48 164.26 73.13 163.97 72.85 163.69L66.93 157.78H66.94Z" stroke="#C7C6C5" stroke-width="0.43" stroke-miterlimit="10"/>
<path d="M66.94 157.78C66.66 157.5 66.66 157.05 66.94 156.78L74.27 149.45C74.55 149.17 74.99 149.17 75.27 149.45L81.18 155.36C81.46 155.64 81.75 156.99 78.12 160.63C74.48 164.26 73.13 163.97 72.85 163.69L66.93 157.78H66.94Z" stroke="#C7C6C5" stroke-width="0.43" stroke-miterlimit="10"/>
<path d="M47.57 137.44C47.57 137.44 46.45 137.3 46.03 136.87C45.75 136.59 45.46 135.24 49.09 131.6C52.72 127.97 54.08 128.26 54.36 128.54C54.95 129.13 54.93 130.08 54.93 130.08" stroke="#C7C6C5" stroke-width="0.43" stroke-miterlimit="10"/>
<path d="M47.57 137.44C47.57 137.44 46.45 137.3 46.03 136.87C45.75 136.59 45.46 135.24 49.09 131.6C52.72 127.97 54.08 128.26 54.36 128.54C54.95 129.13 54.93 130.08 54.93 130.08" stroke="#C7C6C5" stroke-width="0.43" stroke-miterlimit="10"/>
<path d="M61.87 136.05C62.15 136.33 62.15 136.78 61.87 137.05L54.54 144.38C54.26 144.66 53.82 144.66 53.54 144.38L47.63 138.46C47.35 138.18 47.06 136.83 50.69 133.19C54.32 129.56 55.68 129.85 55.96 130.13L61.88 136.04H61.87V136.05Z" stroke="#C7C6C5" stroke-width="0.43" stroke-miterlimit="10"/>
<path d="M61.87 136.05C62.15 136.33 62.15 136.78 61.87 137.05L54.54 144.38C54.26 144.66 53.82 144.66 53.54 144.38L47.63 138.46C47.35 138.18 47.06 136.83 50.69 133.19C54.32 129.56 55.68 129.85 55.96 130.13L61.88 136.04H61.87V136.05Z" stroke="#C7C6C5" stroke-width="0.43" stroke-miterlimit="10"/>
<path d="M73.89 130.08C73.89 130.08 74.04 128.96 74.46 128.54C74.74 128.26 76.09 127.97 79.73 131.6C83.37 135.23 83.07 136.59 82.79 136.87C82.2 137.46 81.25 137.44 81.25 137.44" stroke="#C7C6C5" stroke-width="0.43" stroke-miterlimit="10"/>
<path d="M73.89 130.08C73.89 130.08 74.04 128.96 74.46 128.54C74.74 128.26 76.09 127.97 79.73 131.6C83.37 135.23 83.07 136.59 82.79 136.87C82.2 137.46 81.25 137.44 81.25 137.44" stroke="#C7C6C5" stroke-width="0.43" stroke-miterlimit="10"/>
<path d="M75.27 144.38C74.99 144.66 74.55 144.66 74.27 144.38L66.94 137.05C66.66 136.77 66.66 136.33 66.94 136.05L72.85 130.14C73.13 129.86 74.48 129.57 78.12 133.2C81.75 136.83 81.46 138.19 81.18 138.47L75.26 144.38H75.27Z" stroke="#C7C6C5" stroke-width="0.43" stroke-miterlimit="10"/>
<path d="M75.27 144.38C74.99 144.66 74.55 144.66 74.27 144.38L66.94 137.05C66.66 136.77 66.66 136.33 66.94 136.05L72.85 130.14C73.13 129.86 74.48 129.57 78.12 133.2C81.75 136.83 81.46 138.19 81.18 138.47L75.26 144.38H75.27Z" stroke="#C7C6C5" stroke-width="0.43" stroke-miterlimit="10"/>
<path d="M54.93 163.75C54.93 163.75 54.78 164.87 54.36 165.29C54.08 165.57 52.73 165.86 49.09 162.23C45.45 158.6 45.75 157.24 46.03 156.96C46.62 156.37 47.57 156.39 47.57 156.39" stroke="#C7C6C5" stroke-width="0.43" stroke-miterlimit="10"/>
<path d="M54.93 163.75C54.93 163.75 54.78 164.87 54.36 165.29C54.08 165.57 52.73 165.86 49.09 162.23C45.45 158.6 45.75 157.24 46.03 156.96C46.62 156.37 47.57 156.39 47.57 156.39" stroke="#C7C6C5" stroke-width="0.43" stroke-miterlimit="10"/>
<path d="M53.54 149.45C53.82 149.17 54.27 149.17 54.54 149.45L61.87 156.78C62.15 157.06 62.15 157.5 61.87 157.78L55.95 163.69C55.67 163.97 54.32 164.26 50.68 160.63C47.05 157 47.34 155.64 47.62 155.36L53.53 149.45H53.54Z" stroke="#C7C6C5" stroke-width="0.43" stroke-miterlimit="10"/>
<path d="M53.54 149.45C53.82 149.17 54.27 149.17 54.54 149.45L61.87 156.78C62.15 157.06 62.15 157.5 61.87 157.78L55.95 163.69C55.67 163.97 54.32 164.26 50.68 160.63C47.05 157 47.34 155.64 47.62 155.36L53.53 149.45H53.54Z" stroke="#C7C6C5" stroke-width="0.43" stroke-miterlimit="10"/>
<path d="M74.42 156.89C68.9 162.41 59.95 162.41 54.43 156.89C48.91 151.37 48.91 142.43 54.43 136.91C59.95 131.39 68.9 131.39 74.42 136.91C79.94 142.43 79.94 151.38 74.42 156.9" stroke="#C7C6C5" stroke-width="0.43" stroke-miterlimit="10"/>
<path d="M74.42 156.89C68.9 162.41 59.95 162.41 54.43 156.89C48.91 151.37 48.91 142.43 54.43 136.91C59.95 131.39 68.9 131.39 74.42 136.91C79.94 142.43 79.94 151.38 74.42 156.9V156.89Z" stroke="#C7C6C5" stroke-width="0.43" stroke-miterlimit="10"/>
<path d="M231.19 126.53C236.6 126.53 241.01 130.93 241.01 136.35C241.01 141.77 236.61 146.17 231.19 146.17H201.81C196.4 146.17 191.99 141.77 191.99 136.35C191.99 130.93 196.39 126.53 201.81 126.53H231.19Z" stroke="#C7C6C5" stroke-width="0.43" stroke-linecap="round" stroke-linejoin="round"/>
<path d="M230.97 128.39C235.36 128.39 238.93 131.96 238.93 136.35C238.93 140.74 235.36 144.31 230.97 144.31H201.82C197.43 144.31 193.86 140.74 193.86 136.35C193.86 131.96 197.43 128.39 201.82 128.39H230.97Z" stroke="#C7C6C5" stroke-width="0.43" stroke-linecap="round" stroke-linejoin="round"/>
<path d="M199.34 136.35C199.34 134.41 200.91 132.83 202.86 132.83H228.75C230.69 132.83 232.27 134.4 232.27 136.35C232.27 138.29 230.7 139.87 228.75 139.87H202.86C200.92 139.87 199.34 138.3 199.34 136.35Z" stroke="#C7C6C5" stroke-width="0.43" stroke-linecap="round" stroke-linejoin="round"/>
<path d="M214.88 143.44C214.88 143.19 215.29 143 215.8 143C216.31 143 216.72 143.2 216.72 143.44C216.72 143.68 216.31 143.88 215.8 143.88C215.29 143.88 214.88 143.68 214.88 143.44Z" stroke="#C7C6C5" stroke-width="0.43" stroke-linecap="round" stroke-linejoin="round"/>
<path d="M174.24 23.3599H124.65V41.3699H174.24V23.3599Z" stroke="#C7C6C5" stroke-width="0.43" stroke-linecap="round" stroke-linejoin="round"/>
<path d="M149.75 28.8901C149.75 27.6901 147.98 27.7101 147.98 28.8901C147.98 29.7701 148.86 29.5301 148.86 30.3301" stroke="#C7C6C5" stroke-width="0.43" stroke-linecap="round" stroke-linejoin="round"/>
<path d="M148.86 30.3301L154.81 32.3301C154.81 32.3301 155.36 32.5401 155.28 33.1401C155.2 33.7401 154.64 33.6701 154.64 33.6701H143.09C143.09 33.6701 142.53 33.7401 142.45 33.1401C142.37 32.5401 142.92 32.3301 142.92 32.3301L148.87 30.3301H148.86Z" stroke="#C7C6C5" stroke-width="0.43" stroke-linecap="round" stroke-linejoin="round"/>
<path d="M157.57 33.1099H173.2" stroke="#C7C6C5" stroke-width="0.43" stroke-linecap="round" stroke-linejoin="round"/>
<path d="M126.02 33.1099H139.88" stroke="#C7C6C5" stroke-width="0.43" stroke-linecap="round" stroke-linejoin="round"/>
<path d="M122.39 23.3599H74.03V41.3699H122.39V23.3599Z" stroke="#C7C6C5" stroke-width="0.43" stroke-linecap="round" stroke-linejoin="round"/>
<path d="M99.13 28.8901C99.13 27.6901 97.36 27.7101 97.36 28.8901C97.36 29.7701 98.24 29.5301 98.24 30.3301" stroke="#C7C6C5" stroke-width="0.43" stroke-linecap="round" stroke-linejoin="round"/>
<path d="M98.25 30.3301L104.2 32.3301C104.2 32.3301 104.75 32.5401 104.67 33.1401C104.59 33.7401 104.03 33.6701 104.03 33.6701H92.48C92.48 33.6701 91.92 33.7401 91.84 33.1401C91.76 32.5401 92.31 32.3301 92.31 32.3301L98.26 30.3301H98.25Z" stroke="#C7C6C5" stroke-width="0.43" stroke-linecap="round" stroke-linejoin="round"/>
<path d="M106.96 33.1099H121.17" stroke="#C7C6C5" stroke-width="0.43" stroke-linecap="round" stroke-linejoin="round"/>
<path d="M75.41 33.1099H89.27" stroke="#C7C6C5" stroke-width="0.43" stroke-linecap="round" stroke-linejoin="round"/>
<path d="M122.39 67.6401H74.03V85.6501H122.39V67.6401Z" stroke="#C7C6C5" stroke-width="0.43" stroke-linecap="round" stroke-linejoin="round"/>
<path d="M99.13 73.1703C99.13 71.9703 97.36 71.9903 97.36 73.1703C97.36 74.0503 98.24 73.8104 98.24 74.6104" stroke="#C7C6C5" stroke-width="0.43" stroke-linecap="round" stroke-linejoin="round"/>
<path d="M98.25 74.6006L104.2 76.6006C104.2 76.6006 104.75 76.8106 104.67 77.4106C104.59 78.0106 104.03 77.9406 104.03 77.9406H92.48C92.48 77.9406 91.92 78.0106 91.84 77.4106C91.76 76.8106 92.31 76.6006 92.31 76.6006L98.26 74.6006H98.25Z" stroke="#C7C6C5" stroke-width="0.43" stroke-linecap="round" stroke-linejoin="round"/>
<path d="M106.96 77.3804H121.17" stroke="#C7C6C5" stroke-width="0.43" stroke-linecap="round" stroke-linejoin="round"/>
<path d="M75.41 77.3804H89.27" stroke="#C7C6C5" stroke-width="0.43" stroke-linecap="round" stroke-linejoin="round"/>
<path d="M122.4 148.4H111.35V202.04H122.4V148.4Z" stroke="#C7C6C5" stroke-width="0.43" stroke-miterlimit="10"/>
<path d="M116.57 180.44L113.45 187.35L114.14 187.66L119.93 178.04H120.64C120.64 178.04 121.2 178.01 121.2 177.48V172.17C121.2 171.64 120.64 171.61 120.64 171.61H119.93L114.14 161.99L113.45 162.3L116.57 169.21V180.46V180.44Z" stroke="#C7C6C5" stroke-width="0.43" stroke-miterlimit="10"/>
<path d="M116.57 180.44L113.45 187.35L114.14 187.66L119.93 178.04H120.64C120.64 178.04 121.2 178.01 121.2 177.48V172.17C121.2 171.64 120.64 171.61 120.64 171.61H119.93L114.14 161.99L113.45 162.3L116.57 169.21V180.46V180.44Z" stroke="#C7C6C5" stroke-width="0.43" stroke-miterlimit="10"/>
<path d="M117.51 154.47H116.57V195.16H117.51V154.47Z" stroke="#C7C6C5" stroke-width="0.43" stroke-miterlimit="10"/>
<path d="M117.51 154.47H116.57V195.16H117.51V154.47Z" stroke="#C7C6C5" stroke-width="0.43" stroke-miterlimit="10"/>
<path d="M117.5 166.33C117.5 167.42 118.47 167.33 118.47 168.55V181.08C118.47 182.3 117.5 182.2 117.5 183.3V166.34V166.33Z" stroke="#C7C6C5" stroke-width="0.43" stroke-miterlimit="10"/>
<path d="M117.5 166.33C117.5 167.42 118.47 167.33 118.47 168.55V181.08C118.47 182.3 117.5 182.2 117.5 183.3V166.34V166.33Z" stroke="#C7C6C5" stroke-width="0.43" stroke-miterlimit="10"/>
<path d="M240.48 157.94H230.04C229.648 157.94 229.33 158.258 229.33 158.65V169.09C229.33 169.482 229.648 169.8 230.04 169.8H240.48C240.872 169.8 241.19 169.482 241.19 169.09V158.65C241.19 158.258 240.872 157.94 240.48 157.94Z" stroke="#C7C6C5" stroke-width="0.43" stroke-linecap="round" stroke-linejoin="round"/>
<path d="M240.48 214.27H230.04C229.648 214.27 229.33 214.588 229.33 214.98V225.42C229.33 225.812 229.648 226.13 230.04 226.13H240.48C240.872 226.13 241.19 225.812 241.19 225.42V214.98C241.19 214.588 240.872 214.27 240.48 214.27Z" stroke="#C7C6C5" stroke-width="0.43" stroke-linecap="round" stroke-linejoin="round"/>
<path d="M239.35 170.72C239.35 170.72 240.48 170.69 240.48 171.85V212.21C240.48 213.4 239.35 213.34 239.35 213.34H189.4C189.4 213.34 188.27 213.37 188.27 212.21V171.85C188.27 170.67 189.4 170.72 189.4 170.72H239.35Z" stroke="#C7C6C5" stroke-width="0.43" stroke-miterlimit="10"/>
<path d="M227.88 173H237.7C238.23 173 238.66 173.43 238.66 173.96V190.22C238.66 190.75 238.23 191.19 237.69 191.19H227.87C227.34 191.19 226.9 190.76 226.9 190.22V173.96C226.9 173.43 227.33 172.99 227.87 172.99H227.88V173Z" stroke="#C7C6C5" stroke-width="0.43" stroke-miterlimit="10"/>
<path d="M227.88 192.89H237.7C238.23 192.89 238.67 193.32 238.67 193.86V210.11C238.67 210.64 238.24 211.08 237.7 211.08H227.88C227.35 211.08 226.92 210.65 226.92 210.12V193.86C226.92 193.33 227.35 192.89 227.89 192.89H227.88Z" stroke="#C7C6C5" stroke-width="0.43" stroke-miterlimit="10"/>
<path d="M225.76 170.72V213.35" stroke="#C7C6C5" stroke-width="0.43" stroke-miterlimit="10"/>
<path d="M235.1 213.35C235.1 212.63 235.95 212.64 235.95 212.64H239.35C239.44 212.64 239.6 212.61 239.69 212.53C239.76 212.46 239.78 212.32 239.78 212.21V171.85C239.78 171.7 239.75 171.6 239.69 171.54C239.59 171.45 239.39 171.43 239.37 171.43H235.96C235.96 171.43 235.11 171.46 235.11 170.72C235.11 169.98 235.96 170.01 235.96 170.01H239.36C239.48 170.01 239.89 170.03 240.3 170.25C240.88 170.56 241.19 171.13 241.19 171.85V212.21C241.19 212.91 240.9 213.33 240.66 213.56C240.12 214.08 239.39 214.06 239.31 214.05H235.94C235.94 214.05 235.09 214.07 235.09 213.34H235.1V213.35Z" stroke="#C7C6C5" stroke-width="0.43" stroke-miterlimit="10"/>
<path d="M235.95 170.72H239.35C239.35 170.72 240.48 170.69 240.48 171.85V212.21C240.48 213.4 239.35 213.34 239.35 213.34H235.95" stroke="#C7C6C5" stroke-width="0.43" stroke-miterlimit="10" stroke-linecap="round"/>
<path d="M209.95 106.08C212.33 106.08 212.33 104.23 212.33 103.7V88.8601C212.33 88.3301 211.9 87.8901 211.37 87.8901H201.55C201.02 87.8901 200.58 88.3201 200.58 88.8601V103.7C200.58 104.23 200.58 106.08 202.96 106.08H209.95Z" stroke="#C7C6C5" stroke-width="0.43" stroke-miterlimit="10"/>
<path d="M203.49 90.6499H209.42C209.93 90.6499 210.35 91.0599 210.35 91.5799V103.07C210.35 103.58 209.93 104 209.42 104H203.49C202.98 104 202.56 103.59 202.56 103.07V91.5799C202.56 91.0699 202.97 90.6499 203.49 90.6499Z" stroke="#C7C6C5" stroke-width="0.43" stroke-miterlimit="10"/>
<path d="M204.92 90.6499C204.92 91.4999 205.61 92.1799 206.45 92.1799C207.29 92.1799 207.98 91.4899 207.98 90.6499" stroke="#C7C6C5" stroke-width="0.43" stroke-miterlimit="10"/>
<path d="M92.39 41.3701H74.03V67.6401H92.39V41.3701Z" stroke="#C7C6C5" stroke-width="0.43" stroke-linecap="round" stroke-linejoin="round"/>
<path d="M84.07 52.4801C84.07 51.2601 82.26 51.2701 82.26 52.4801C82.26 53.3801 83.17 53.1401 83.17 53.9501" stroke="#C7C6C5" stroke-width="0.43" stroke-linecap="round" stroke-linejoin="round"/>
<path d="M83.17 53.9502L89.26 56.0002C89.26 56.0002 89.82 56.2102 89.74 56.8302C89.66 57.4402 89.09 57.3802 89.09 57.3802H77.26C77.26 57.3802 76.63 57.4502 76.55 56.8302C76.47 56.2202 77.08 56.0002 77.08 56.0002L83.17 53.9502Z" stroke="#C7C6C5" stroke-width="0.43" stroke-linecap="round" stroke-linejoin="round"/>
<path d="M83.17 50.5201V43.0801" stroke="#C7C6C5" stroke-width="0.43" stroke-linecap="round" stroke-linejoin="round"/>
<path d="M83.17 66.3202V58.4902" stroke="#C7C6C5" stroke-width="0.43" stroke-linecap="round" stroke-linejoin="round"/>
<path d="M143.01 148.34H124.65V201.98H143.01V148.34Z" stroke="#C7C6C5" stroke-width="0.43" stroke-linecap="round" stroke-linejoin="round"/>
<path d="M134.68 170.4C134.68 169.18 132.87 169.19 132.87 170.4C132.87 171.3 133.78 171.06 133.78 171.87" stroke="#C7C6C5" stroke-width="0.43" stroke-linecap="round" stroke-linejoin="round"/>
<path d="M133.78 171.87L139.87 173.92C139.87 173.92 140.43 174.13 140.35 174.75C140.27 175.36 139.7 175.3 139.7 175.3H127.87C127.87 175.3 127.24 175.37 127.16 174.75C127.08 174.14 127.69 173.92 127.69 173.92L133.78 171.87Z" stroke="#C7C6C5" stroke-width="0.43" stroke-linecap="round" stroke-linejoin="round"/>
<path d="M133.78 168.44V150.05" stroke="#C7C6C5" stroke-width="0.43" stroke-linecap="round" stroke-linejoin="round"/>
<path d="M133.78 199.94V176.41" stroke="#C7C6C5" stroke-width="0.43" stroke-linecap="round" stroke-linejoin="round"/>
<path d="M143 201.98H129.47V238.77H143V201.98Z" stroke="#C7C6C5" stroke-width="0.43" stroke-linecap="round" stroke-linejoin="round"/>
<path d="M229.19 103.83H240.41C240.8 103.83 241.12 104.15 241.12 104.54V125.82C241.12 126.21 240.8 126.53 240.41 126.53H229.19C228.8 126.53 228.48 126.21 228.48 125.82V104.54C228.48 104.15 228.8 103.83 229.19 103.83Z" stroke="#C7C6C5" stroke-width="0.43" stroke-linecap="round" stroke-linejoin="round"/>
<path d="M234.52 105.93C237.18 105.93 239.34 110.09 239.34 115.22C239.34 120.35 237.18 124.51 234.52 124.51C231.86 124.51 229.7 120.35 229.7 115.22C229.7 110.09 231.86 105.93 234.52 105.93Z" stroke="#C7C6C5" stroke-width="0.43" stroke-miterlimit="10"/>
<path d="M234.52 105.93C237.18 105.93 239.34 110.09 239.34 115.22C239.34 120.35 237.18 124.51 234.52 124.51C231.86 124.51 229.7 120.35 229.7 115.22C229.7 110.09 231.86 105.93 234.52 105.93Z" stroke="#C7C6C5" stroke-width="0.43" stroke-linecap="round" stroke-linejoin="round"/>
<path d="M239.58 117.56C240 117.56 240.33 117.9 240.33 118.31C240.33 118.72 239.99 119.06 239.58 119.06C239.17 119.06 238.83 118.72 238.83 118.31C238.83 117.9 239.17 117.56 239.58 117.56Z" stroke="#C7C6C5" stroke-width="0.43" stroke-miterlimit="10"/>
<path d="M239.58 119.06C239.994 119.06 240.33 118.724 240.33 118.31C240.33 117.896 239.994 117.56 239.58 117.56C239.166 117.56 238.83 117.896 238.83 118.31C238.83 118.724 239.166 119.06 239.58 119.06Z" stroke="#C7C6C5" stroke-width="0.43" stroke-linecap="round" stroke-linejoin="round"/>
<path d="M239.58 111.26C240 111.26 240.33 111.6 240.33 112.01C240.33 112.42 239.99 112.76 239.58 112.76C239.17 112.76 238.83 112.42 238.83 112.01C238.83 111.6 239.17 111.26 239.58 111.26Z" stroke="#C7C6C5" stroke-width="0.43" stroke-miterlimit="10"/>
<path d="M239.58 112.76C239.994 112.76 240.33 112.424 240.33 112.01C240.33 111.596 239.994 111.26 239.58 111.26C239.166 111.26 238.83 111.596 238.83 112.01C238.83 112.424 239.166 112.76 239.58 112.76Z" stroke="#C7C6C5" stroke-width="0.43" stroke-linecap="round" stroke-linejoin="round"/>
<path d="M237.2 114.78C236.96 114.78 236.77 114.97 236.77 115.21C236.77 115.45 236.96 115.64 237.2 115.64L239.53 115.77C239.84 115.77 240.09 115.52 240.09 115.2C240.09 114.88 239.84 114.63 239.53 114.63L237.2 114.76V114.78Z" stroke="#C7C6C5" stroke-width="0.43" stroke-miterlimit="10"/>
<path d="M237.2 114.78C236.96 114.78 236.77 114.97 236.77 115.21C236.77 115.45 236.96 115.64 237.2 115.64L239.53 115.77C239.84 115.77 240.09 115.52 240.09 115.2C240.09 114.88 239.84 114.63 239.53 114.63L237.2 114.76V114.78Z" stroke="#C7C6C5" stroke-width="0.43" stroke-linecap="round" stroke-linejoin="round"/>
<path d="M241.16 88.0498H228.44V103.83H241.16V88.0498Z" stroke="#C7C6C5" stroke-width="0.43" stroke-linecap="round" stroke-linejoin="round"/>
<path d="M230.38 95.9898C230.38 93.5498 232.36 91.5698 234.8 91.5698C237.24 91.5698 239.22 93.5498 239.22 95.9898C239.22 98.4298 237.24 100.41 234.8 100.41C232.36 100.41 230.38 98.4298 230.38 95.9898Z" stroke="#C7C6C5" stroke-width="0.43" stroke-linecap="round" stroke-linejoin="round"/>
<path d="M230.38 95.9899C230.38 98.2499 232.22 99.5599 234.48 99.5599C236.29 99.5599 237.76 98.0899 237.76 96.2799C237.76 94.8299 236.59 93.6499 235.14 93.6499C233.98 93.6499 233.04 94.5899 233.04 95.7499C233.04 96.6799 233.79 97.4299 234.72 97.4299C235.46 97.4299 236.06 96.8299 236.06 96.0899C236.06 95.4999 235.58 95.0099 234.98 95.0099C234.51 95.0099 234.12 95.3899 234.12 95.8699C234.12 96.2499 234.43 96.5599 234.81 96.5599C235.11 96.5599 235.36 96.3099 235.36 96.0099C235.36 95.7699 235.16 95.5699 234.92 95.5699" stroke="#C7C6C5" stroke-width="0.43" stroke-linecap="round" stroke-linejoin="round"/>
<path d="M234.18 95.9896C234.18 96.3296 234.46 96.6096 234.8 96.6096C235.14 96.6096 235.42 96.3296 235.42 95.9896C235.42 95.6496 235.14 95.3696 234.8 95.3696C234.46 95.3696 234.18 95.6496 234.18 95.9896Z" fill="#C7C6C5"/>
<path d="M96.3 87.9199H78.84V105.54H96.3V87.9199Z" stroke="#C7C6C5" stroke-width="0.43" stroke-miterlimit="10"/>
<path d="M78.84 87.9199H56.89V105.54H78.84V87.9199Z" stroke="#C7C6C5" stroke-width="0.43" stroke-miterlimit="10"/>
<path d="M39.27 87.9199H25.66V105.54H39.27V87.9199Z" stroke="#C7C6C5" stroke-width="0.43" stroke-miterlimit="10"/>
<path d="M122.4 87.9199H96.3V105.54H122.4V87.9199Z" stroke="#C7C6C5" stroke-width="0.43" stroke-miterlimit="10"/>
<path d="M91.79 95.2898C93.237 95.2898 94.41 94.1168 94.41 92.6698C94.41 91.2228 93.237 90.0498 91.79 90.0498C90.343 90.0498 89.17 91.2228 89.17 92.6698C89.17 94.1168 90.343 95.2898 91.79 95.2898Z" stroke="#C7C6C5" stroke-width="0.43" stroke-miterlimit="10"/>
<path d="M91.79 103.88C93.237 103.88 94.41 102.707 94.41 101.26C94.41 99.8132 93.237 98.6401 91.79 98.6401C90.343 98.6401 89.17 99.8132 89.17 101.26C89.17 102.707 90.343 103.88 91.79 103.88Z" stroke="#C7C6C5" stroke-width="0.43" stroke-miterlimit="10"/>
<path d="M83.88 95.2898C85.327 95.2898 86.5 94.1168 86.5 92.6698C86.5 91.2228 85.327 90.0498 83.88 90.0498C82.433 90.0498 81.26 91.2228 81.26 92.6698C81.26 94.1168 82.433 95.2898 83.88 95.2898Z" stroke="#C7C6C5" stroke-width="0.43" stroke-miterlimit="10"/>
<path d="M83.88 103.88C85.327 103.88 86.5 102.707 86.5 101.26C86.5 99.8132 85.327 98.6401 83.88 98.6401C82.433 98.6401 81.26 99.8132 81.26 101.26C81.26 102.707 82.433 103.88 83.88 103.88Z" stroke="#C7C6C5" stroke-width="0.43" stroke-miterlimit="10"/>
<path d="M56.89 87.9199H39.27V105.54H56.89V87.9199Z" stroke="#C7C6C5" stroke-width="0.43" stroke-miterlimit="10"/>
<path d="M56.89 87.9199H39.27V105.54H56.89V87.9199Z" stroke="#C7C6C5" stroke-width="0.43" stroke-miterlimit="10"/>
<path d="M42.39 104.02C41.49 104.02 40.77 103.29 40.77 102.4V91.08C40.77 90.18 41.5 89.46 42.39 89.46H53.76C54.66 89.46 55.38 90.19 55.38 91.08V102.4C55.38 103.3 54.65 104.02 53.76 104.02H42.39Z" stroke="#C7C6C5" stroke-width="0.43" stroke-miterlimit="10"/>
<path d="M42.39 104.02C41.49 104.02 40.77 103.29 40.77 102.4V91.08C40.77 90.18 41.5 89.46 42.39 89.46H53.76C54.66 89.46 55.38 90.19 55.38 91.08V102.4C55.38 103.3 54.65 104.02 53.76 104.02H42.39Z" stroke="#C7C6C5" stroke-width="0.43" stroke-miterlimit="10"/>
<path d="M53.15 92.5997C52.63 92.5997 52.2 92.1697 52.2 91.6497C52.2 91.1297 52.62 90.6997 53.15 90.6997C53.68 90.6997 54.1 91.1197 54.1 91.6497C54.1 92.1797 53.68 92.5997 53.15 92.5997Z" stroke="#C7C6C5" stroke-width="0.43" stroke-miterlimit="10"/>
<path d="M48.79 88.8701H47.36V94.2501H48.79V88.8701Z" stroke="#C7C6C5" stroke-width="0.43" stroke-miterlimit="10"/>
<path d="M25.66 87.9199H7.07V105.54H25.66V87.9199Z" stroke="#C7C6C5" stroke-width="0.43" stroke-miterlimit="10"/>
<path d="M17.91 97.96L15.16 95.21" stroke="#C7C6C5" stroke-width="0.43" stroke-miterlimit="10" stroke-linecap="round"/>
<path d="M17.91 95.21L15.16 97.96" stroke="#C7C6C5" stroke-width="0.43" stroke-miterlimit="10" stroke-linecap="round"/>
<path d="M16.53 93.3398V99.8398" stroke="#C7C6C5" stroke-width="0.43" stroke-miterlimit="10" stroke-linecap="round"/>
<path d="M13.28 96.5898H19.78" stroke="#C7C6C5" stroke-width="0.43" stroke-miterlimit="10" stroke-linecap="round"/>
<path d="M136.12 120.24V119.54L138.34 117.43C138.53 117.25 138.67 117.1 138.76 116.97C138.85 116.84 138.91 116.71 138.94 116.6C138.97 116.48 138.98 116.38 138.98 116.28C138.98 116.02 138.89 115.82 138.72 115.68C138.54 115.54 138.29 115.47 137.94 115.47C137.67 115.47 137.42 115.52 137.2 115.61C136.98 115.71 136.79 115.85 136.63 116.05L135.9 115.49C136.12 115.2 136.41 114.97 136.78 114.81C137.15 114.65 137.57 114.57 138.02 114.57C138.43 114.57 138.78 114.64 139.08 114.77C139.38 114.9 139.61 115.09 139.78 115.33C139.94 115.57 140.02 115.86 140.02 116.19C140.02 116.37 140 116.55 139.95 116.73C139.9 116.91 139.81 117.1 139.68 117.29C139.55 117.49 139.35 117.71 139.1 117.95L137.19 119.77L136.98 119.38H140.25V120.26H136.12V120.24Z" fill="#C42F20"/>
<path d="M140.65 118.97V118.25L143.41 114.64H144.52L141.8 118.25L141.28 118.09H145.72V118.97H140.65ZM143.72 120.24V118.97L143.75 118.09V116.96H144.73V120.24H143.72Z" fill="#C42F20"/>
<path d="M146.36 121.45L146.82 119.68L146.96 120.27C146.77 120.27 146.62 120.21 146.49 120.1C146.36 119.98 146.3 119.83 146.3 119.63C146.3 119.43 146.36 119.27 146.49 119.15C146.61 119.03 146.77 118.97 146.95 118.97C147.13 118.97 147.29 119.03 147.41 119.15C147.53 119.27 147.59 119.43 147.59 119.63C147.59 119.68 147.59 119.74 147.57 119.8C147.56 119.86 147.54 119.93 147.52 120.01C147.5 120.09 147.46 120.19 147.4 120.31L146.99 121.44H146.34L146.36 121.45Z" fill="#C42F20"/>
<path d="M150.13 120.32C149.74 120.32 149.35 120.26 148.97 120.15C148.59 120.03 148.28 119.88 148.02 119.67L148.46 118.86C148.66 119.03 148.91 119.16 149.2 119.26C149.49 119.36 149.79 119.41 150.11 119.41C150.48 119.41 150.77 119.33 150.98 119.18C151.19 119.02 151.3 118.82 151.3 118.56C151.3 118.38 151.26 118.23 151.17 118.1C151.08 117.97 150.93 117.86 150.71 117.8C150.49 117.73 150.19 117.7 149.8 117.7H148.45L148.74 114.65H152.03V115.52H149.13L149.67 115.02L149.45 117.3L148.91 116.81H150.04C150.59 116.81 151.04 116.88 151.38 117.03C151.72 117.18 151.97 117.38 152.12 117.64C152.28 117.9 152.36 118.19 152.36 118.52C152.36 118.85 152.28 119.14 152.12 119.42C151.96 119.69 151.72 119.91 151.39 120.08C151.06 120.25 150.65 120.33 150.15 120.33L150.13 120.32Z" fill="#C42F20"/>
<path d="M154.83 114.56C155.34 114.56 155.78 114.67 156.14 114.88C156.5 115.1 156.78 115.41 156.97 115.82C157.16 116.23 157.26 116.74 157.26 117.34C157.26 117.98 157.14 118.52 156.91 118.96C156.68 119.4 156.36 119.74 155.95 119.97C155.54 120.2 155.06 120.31 154.52 120.31C154.24 120.31 153.97 120.28 153.71 120.22C153.45 120.16 153.23 120.07 153.05 119.95L153.43 119.17C153.58 119.27 153.75 119.34 153.93 119.38C154.11 119.42 154.3 119.44 154.49 119.44C155.02 119.44 155.44 119.28 155.75 118.95C156.06 118.62 156.21 118.15 156.21 117.51C156.21 117.41 156.21 117.29 156.21 117.15C156.21 117.01 156.19 116.88 156.15 116.74L156.47 117.09C156.38 117.31 156.25 117.49 156.08 117.64C155.91 117.79 155.71 117.9 155.48 117.97C155.25 118.04 155 118.08 154.72 118.08C154.36 118.08 154.03 118.01 153.74 117.87C153.45 117.73 153.22 117.53 153.05 117.27C152.88 117.01 152.79 116.71 152.79 116.36C152.79 115.99 152.88 115.67 153.06 115.4C153.24 115.13 153.49 114.92 153.8 114.77C154.11 114.62 154.46 114.55 154.84 114.55L154.83 114.56ZM154.88 115.38C154.67 115.38 154.48 115.42 154.31 115.5C154.14 115.58 154.02 115.69 153.92 115.83C153.83 115.97 153.78 116.14 153.78 116.34C153.78 116.63 153.88 116.87 154.08 117.04C154.28 117.21 154.55 117.3 154.9 117.3C155.12 117.3 155.32 117.26 155.49 117.18C155.66 117.1 155.79 116.98 155.89 116.84C155.99 116.7 156.03 116.53 156.03 116.35C156.03 116.17 155.99 116.02 155.89 115.87C155.8 115.73 155.67 115.62 155.5 115.53C155.33 115.45 155.12 115.4 154.87 115.4L154.88 115.38Z" fill="#C42F20"/>
<path d="M136.11 128.42V127.7L138.87 124.09H139.98L137.26 127.7L136.74 127.54H141.18V128.42H136.11ZM139.18 129.69V128.42L139.21 127.54V126.41H140.19V129.69H139.18Z" fill="#C42F20"/>
<path d="M143.47 124.01C143.98 124.01 144.42 124.12 144.78 124.33C145.14 124.55 145.42 124.86 145.61 125.27C145.8 125.68 145.9 126.19 145.9 126.79C145.9 127.43 145.78 127.97 145.55 128.41C145.32 128.85 145 129.19 144.59 129.42C144.18 129.65 143.7 129.76 143.16 129.76C142.88 129.76 142.61 129.73 142.35 129.67C142.09 129.61 141.87 129.52 141.69 129.4L142.07 128.62C142.22 128.72 142.39 128.79 142.57 128.83C142.75 128.87 142.94 128.89 143.13 128.89C143.66 128.89 144.08 128.73 144.39 128.4C144.7 128.07 144.85 127.6 144.85 126.96C144.85 126.86 144.85 126.74 144.85 126.6C144.85 126.46 144.83 126.33 144.79 126.19L145.11 126.54C145.02 126.76 144.89 126.94 144.72 127.09C144.55 127.24 144.35 127.35 144.12 127.42C143.89 127.49 143.64 127.53 143.36 127.53C143 127.53 142.67 127.46 142.38 127.32C142.09 127.18 141.86 126.98 141.69 126.72C141.52 126.46 141.43 126.16 141.43 125.81C141.43 125.44 141.52 125.12 141.7 124.85C141.88 124.58 142.13 124.37 142.44 124.22C142.75 124.07 143.1 124 143.48 124L143.47 124.01ZM143.52 124.83C143.31 124.83 143.12 124.87 142.95 124.95C142.78 125.03 142.66 125.14 142.56 125.28C142.47 125.42 142.42 125.59 142.42 125.79C142.42 126.08 142.52 126.32 142.72 126.49C142.92 126.66 143.19 126.75 143.54 126.75C143.76 126.75 143.96 126.71 144.13 126.63C144.3 126.55 144.43 126.43 144.53 126.29C144.63 126.15 144.67 125.98 144.67 125.8C144.67 125.62 144.63 125.47 144.53 125.32C144.44 125.18 144.31 125.07 144.14 124.98C143.97 124.9 143.76 124.85 143.51 124.85L143.52 124.83Z" fill="#C42F20"/>
<path d="M146.54 130.9L147 129.13L147.14 129.72C146.95 129.72 146.8 129.66 146.67 129.55C146.55 129.43 146.48 129.28 146.48 129.08C146.48 128.88 146.54 128.72 146.67 128.6C146.8 128.48 146.95 128.42 147.13 128.42C147.31 128.42 147.47 128.48 147.59 128.6C147.71 128.72 147.77 128.88 147.77 129.08C147.77 129.13 147.77 129.19 147.75 129.25C147.75 129.31 147.72 129.38 147.7 129.46C147.68 129.54 147.64 129.64 147.58 129.76L147.17 130.89H146.52L146.54 130.9Z" fill="#C42F20"/>
<path d="M150.3 129.77C149.91 129.77 149.52 129.71 149.14 129.6C148.76 129.48 148.45 129.33 148.19 129.12L148.64 128.31C148.84 128.48 149.09 128.61 149.38 128.71C149.67 128.81 149.97 128.86 150.28 128.86C150.65 128.86 150.94 128.78 151.15 128.63C151.36 128.48 151.46 128.27 151.46 128.01C151.46 127.75 151.36 127.55 151.17 127.4C150.98 127.25 150.67 127.18 150.24 127.18H149.73V126.47L151.33 124.57L151.47 124.96H148.46V124.09H152.28V124.79L150.68 126.69L150.14 126.37H150.45C151.14 126.37 151.65 126.52 152 126.83C152.34 127.14 152.52 127.53 152.52 128.01C152.52 128.32 152.44 128.62 152.28 128.88C152.12 129.14 151.88 129.36 151.55 129.52C151.22 129.68 150.81 129.76 150.31 129.76L150.3 129.77Z" fill="#C42F20"/>
<path d="M153.11 128.42V127.7L155.87 124.09H156.98L154.26 127.7L153.74 127.54H158.18V128.42H153.11ZM156.18 129.69V128.42L156.21 127.54V126.41H157.19V129.69H156.18Z" fill="#C42F20"/>
<path d="M105.66 131.47V123.79L106.5 124.63H103.98V123.07H107.6V131.47H105.66Z" fill="#C42F20"/>
<path d="M108.7 131.47L112.44 123.07H114.36L118.12 131.47H116.08L113.01 124.05H113.78L110.7 131.47H108.71H108.7ZM110.57 129.67L111.09 128.19H115.41L115.94 129.67H110.58H110.57Z" fill="#C42F20"/>
<path d="M118.54 128.84V127.34H121.94V128.84H118.54Z" fill="#C42F20"/>
<path d="M125.5 131.61C124.92 131.61 124.34 131.53 123.76 131.38C123.18 131.23 122.7 131 122.3 130.71L123.06 129.22C123.38 129.45 123.75 129.64 124.18 129.77C124.6 129.91 125.03 129.97 125.46 129.97C125.95 129.97 126.33 129.87 126.61 129.68C126.89 129.49 127.03 129.22 127.03 128.89C127.03 128.56 126.91 128.32 126.66 128.13C126.41 127.95 126.01 127.85 125.46 127.85H124.57V126.57L126.91 123.92L127.13 124.62H122.73V123.06H128.61V124.32L126.28 126.97L125.3 126.41H125.86C126.89 126.41 127.67 126.64 128.2 127.11C128.73 127.57 128.99 128.17 128.99 128.9C128.99 129.37 128.87 129.81 128.62 130.23C128.37 130.65 127.99 130.98 127.48 131.23C126.97 131.49 126.31 131.61 125.51 131.61H125.5Z" fill="#C42F20"/>
<path d="M136.11 137.53V136.81L138.87 133.2H139.98L137.26 136.81L136.74 136.65H141.18V137.53H136.11ZM139.18 138.8V137.53L139.21 136.65V135.52H140.19V138.8H139.18Z" fill="#C42F20"/>
<path d="M143.47 133.12C143.98 133.12 144.42 133.23 144.78 133.44C145.14 133.66 145.42 133.97 145.61 134.38C145.8 134.79 145.9 135.3 145.9 135.9C145.9 136.54 145.78 137.08 145.55 137.52C145.32 137.96 145 138.3 144.59 138.53C144.18 138.76 143.7 138.87 143.16 138.87C142.88 138.87 142.61 138.84 142.35 138.78C142.09 138.72 141.87 138.63 141.69 138.51L142.07 137.73C142.22 137.83 142.39 137.9 142.57 137.94C142.75 137.98 142.94 138 143.13 138C143.66 138 144.08 137.84 144.39 137.51C144.7 137.19 144.85 136.71 144.85 136.07C144.85 135.97 144.85 135.85 144.85 135.71C144.85 135.57 144.83 135.44 144.79 135.3L145.11 135.65C145.02 135.87 144.89 136.05 144.72 136.2C144.55 136.35 144.35 136.46 144.12 136.53C143.89 136.6 143.64 136.64 143.36 136.64C143 136.64 142.67 136.57 142.38 136.43C142.09 136.29 141.86 136.09 141.69 135.83C141.52 135.57 141.43 135.27 141.43 134.92C141.43 134.55 141.52 134.23 141.7 133.96C141.88 133.69 142.13 133.48 142.44 133.33C142.75 133.18 143.1 133.11 143.48 133.11L143.47 133.12ZM143.52 133.93C143.31 133.93 143.12 133.97 142.95 134.05C142.78 134.13 142.66 134.24 142.56 134.38C142.47 134.52 142.42 134.69 142.42 134.89C142.42 135.18 142.52 135.42 142.72 135.59C142.92 135.76 143.19 135.85 143.54 135.85C143.76 135.85 143.96 135.81 144.13 135.73C144.3 135.65 144.43 135.53 144.53 135.39C144.63 135.25 144.67 135.08 144.67 134.9C144.67 134.72 144.63 134.56 144.53 134.42C144.43 134.28 144.31 134.17 144.14 134.08C143.97 133.99 143.76 133.95 143.51 133.95L143.52 133.93Z" fill="#C42F20"/>
<path d="M146.54 140.01L147 138.24L147.14 138.83C146.95 138.83 146.8 138.77 146.67 138.66C146.54 138.55 146.48 138.39 146.48 138.19C146.48 137.99 146.54 137.83 146.67 137.71C146.79 137.59 146.95 137.53 147.13 137.53C147.31 137.53 147.47 137.59 147.59 137.72C147.71 137.85 147.77 138 147.77 138.2C147.77 138.25 147.77 138.31 147.75 138.37C147.75 138.43 147.72 138.5 147.7 138.58C147.68 138.66 147.64 138.76 147.58 138.88L147.17 140.01H146.52H146.54Z" fill="#C42F20"/>
<path d="M150.3 138.88C149.91 138.88 149.52 138.82 149.14 138.71C148.76 138.59 148.45 138.44 148.19 138.23L148.64 137.42C148.84 137.59 149.09 137.72 149.38 137.82C149.67 137.92 149.97 137.97 150.28 137.97C150.65 137.97 150.94 137.89 151.15 137.74C151.36 137.59 151.46 137.38 151.46 137.12C151.46 136.86 151.36 136.66 151.17 136.51C150.98 136.36 150.67 136.29 150.24 136.29H149.73V135.58L151.33 133.68L151.47 134.07H148.46V133.2H152.28V133.9L150.68 135.8L150.14 135.48H150.45C151.14 135.48 151.65 135.63 152 135.94C152.34 136.25 152.52 136.64 152.52 137.12C152.52 137.43 152.44 137.73 152.28 137.99C152.12 138.26 151.88 138.47 151.55 138.63C151.22 138.79 150.81 138.87 150.31 138.87L150.3 138.88Z" fill="#C42F20"/>
<path d="M153.11 137.53V136.81L155.87 133.2H156.98L154.26 136.81L153.74 136.65H158.18V137.53H153.11ZM156.18 138.8V137.53L156.21 136.65V135.52H157.19V138.8H156.18Z" fill="#C42F20"/>
<path d="M132.82 142.34V110.13" stroke="#C42F20" stroke-miterlimit="10"/>
<path d="M59.68 183.51V178.31L60.14 178.78H58.5V177.91H60.72V183.51H59.68Z" fill="#13110C"/>
<path d="M62.77 183.51L65.08 178.33L65.35 178.79H62.17L62.67 178.29V179.75H61.7V177.92H66.05V178.62L63.87 183.52H62.76L62.77 183.51Z" fill="#13110C"/>
<path d="M66.33 184.72L66.79 182.95L66.93 183.54C66.74 183.54 66.59 183.48 66.46 183.37C66.33 183.25 66.27 183.1 66.27 182.9C66.27 182.7 66.33 182.54 66.46 182.42C66.58 182.3 66.74 182.24 66.92 182.24C67.1 182.24 67.26 182.3 67.38 182.42C67.5 182.54 67.56 182.7 67.56 182.9C67.56 182.95 67.56 183.01 67.54 183.07C67.53 183.13 67.51 183.2 67.49 183.28C67.47 183.36 67.43 183.46 67.37 183.58L66.96 184.71H66.31L66.33 184.72Z" fill="#13110C"/>
<path d="M70.49 183.59C70.05 183.59 69.65 183.48 69.29 183.25C68.94 183.03 68.66 182.7 68.45 182.27C68.25 181.84 68.15 181.32 68.15 180.71C68.15 180.1 68.25 179.58 68.45 179.15C68.65 178.72 68.93 178.39 69.29 178.17C69.64 177.95 70.04 177.83 70.49 177.83C70.94 177.83 71.34 177.94 71.69 178.17C72.04 178.39 72.32 178.72 72.53 179.15C72.74 179.58 72.84 180.1 72.84 180.71C72.84 181.32 72.74 181.84 72.53 182.27C72.32 182.7 72.05 183.03 71.69 183.25C71.34 183.47 70.94 183.59 70.49 183.59ZM70.49 182.69C70.75 182.69 70.98 182.62 71.17 182.48C71.36 182.34 71.51 182.12 71.62 181.83C71.73 181.54 71.78 181.17 71.78 180.72C71.78 180.27 71.73 179.89 71.62 179.6C71.51 179.31 71.36 179.09 71.17 178.95C70.98 178.81 70.75 178.74 70.49 178.74C70.23 178.74 70.02 178.81 69.82 178.95C69.62 179.09 69.47 179.31 69.36 179.6C69.25 179.89 69.2 180.26 69.2 180.72C69.2 181.18 69.25 181.54 69.36 181.83C69.47 182.12 69.62 182.34 69.82 182.48C70.01 182.62 70.24 182.69 70.49 182.69Z" fill="#13110C"/>
<path d="M75.78 183.59C75.32 183.59 74.91 183.52 74.57 183.38C74.23 183.24 73.96 183.05 73.78 182.79C73.59 182.54 73.5 182.24 73.5 181.9C73.5 181.56 73.59 181.27 73.77 181.04C73.95 180.8 74.21 180.63 74.55 180.5C74.89 180.38 75.3 180.32 75.77 180.32C76.24 180.32 76.65 180.38 77 180.5C77.35 180.62 77.61 180.8 77.79 181.04C77.97 181.28 78.07 181.56 78.07 181.9C78.07 182.24 77.98 182.54 77.79 182.79C77.6 183.04 77.33 183.24 76.99 183.38C76.65 183.52 76.24 183.59 75.78 183.59ZM75.78 180.86C75.35 180.86 74.98 180.8 74.67 180.69C74.36 180.58 74.12 180.41 73.95 180.19C73.78 179.97 73.7 179.7 73.7 179.39C73.7 179.08 73.79 178.79 73.96 178.56C74.13 178.33 74.38 178.15 74.69 178.02C75 177.89 75.37 177.83 75.78 177.83C76.19 177.83 76.56 177.89 76.88 178.02C77.2 178.15 77.44 178.33 77.62 178.56C77.8 178.79 77.88 179.07 77.88 179.39C77.88 179.71 77.8 179.97 77.63 180.19C77.46 180.41 77.22 180.58 76.91 180.69C76.59 180.81 76.22 180.86 75.79 180.86H75.78ZM75.78 182.77C76.16 182.77 76.47 182.69 76.69 182.53C76.91 182.37 77.03 182.15 77.03 181.87C77.03 181.59 76.92 181.37 76.69 181.21C76.47 181.05 76.16 180.97 75.78 180.97C75.4 180.97 75.09 181.05 74.88 181.21C74.67 181.37 74.55 181.59 74.55 181.87C74.55 182.15 74.66 182.37 74.88 182.53C75.1 182.69 75.4 182.77 75.78 182.77ZM75.78 180.22C76.11 180.22 76.37 180.15 76.56 180.01C76.75 179.87 76.85 179.68 76.85 179.44C76.85 179.2 76.75 178.99 76.55 178.86C76.35 178.73 76.09 178.65 75.77 178.65C75.45 178.65 75.19 178.72 75 178.86C74.81 179 74.71 179.19 74.71 179.44C74.71 179.69 74.8 179.87 74.99 180.01C75.18 180.15 75.44 180.22 75.76 180.22H75.78Z" fill="#13110C"/>
<path d="M99.47 57.2996C99.08 57.2996 98.69 57.2396 98.31 57.1296C97.93 57.0096 97.62 56.8596 97.36 56.6496L97.81 55.8396C98.01 56.0096 98.26 56.1396 98.55 56.2396C98.84 56.3396 99.14 56.3896 99.45 56.3896C99.82 56.3896 100.11 56.3096 100.32 56.1596C100.53 56.0096 100.63 55.7996 100.63 55.5396C100.63 55.2796 100.53 55.0796 100.34 54.9296C100.15 54.7796 99.84 54.7096 99.41 54.7096H98.9V53.9996L100.5 52.0996L100.64 52.4896H97.63V51.6196H101.45V52.3196L99.85 54.2196L99.31 53.8996H99.62C100.31 53.8996 100.82 54.0496 101.17 54.3596C101.52 54.6696 101.69 55.0596 101.69 55.5396C101.69 55.8496 101.61 56.1496 101.45 56.4096C101.29 56.6796 101.05 56.8896 100.72 57.0496C100.39 57.2096 99.98 57.2896 99.48 57.2896L99.47 57.2996Z" fill="#13110C"/>
<path d="M102.41 58.4297L102.87 56.6597L103.01 57.2497C102.82 57.2497 102.67 57.1897 102.54 57.0797C102.42 56.9597 102.35 56.8097 102.35 56.6097C102.35 56.4097 102.41 56.2497 102.54 56.1297C102.67 56.0097 102.82 55.9497 103 55.9497C103.18 55.9497 103.34 56.0097 103.46 56.1297C103.58 56.2497 103.64 56.4097 103.64 56.6097C103.64 56.6597 103.64 56.7197 103.62 56.7797C103.61 56.8397 103.59 56.9097 103.57 56.9897C103.55 57.0697 103.51 57.1697 103.45 57.2897L103.04 58.4197H102.39L102.41 58.4297Z" fill="#13110C"/>
<path d="M106.65 57.2998C106.14 57.2998 105.71 57.1898 105.35 56.9798C104.99 56.7598 104.71 56.4498 104.52 56.0398C104.33 55.6298 104.23 55.1198 104.23 54.5198C104.23 53.8798 104.35 53.3398 104.58 52.8998C104.81 52.4598 105.13 52.1198 105.55 51.8898C105.96 51.6598 106.44 51.5498 106.98 51.5498C107.26 51.5498 107.53 51.5798 107.79 51.6398C108.05 51.6998 108.27 51.7898 108.45 51.9098L108.07 52.6898C107.91 52.5898 107.75 52.5198 107.57 52.4798C107.39 52.4398 107.2 52.4198 107.01 52.4198C106.48 52.4198 106.06 52.5798 105.75 52.9098C105.44 53.2398 105.29 53.7198 105.29 54.3498C105.29 54.4498 105.29 54.5698 105.29 54.7098C105.29 54.8498 105.31 54.9798 105.35 55.1198L105.03 54.7698C105.13 54.5498 105.26 54.3698 105.43 54.2198C105.6 54.0698 105.8 53.9598 106.03 53.8898C106.26 53.8098 106.51 53.7798 106.79 53.7798C107.16 53.7798 107.49 53.8498 107.77 53.9898C108.06 54.1298 108.29 54.3298 108.46 54.5898C108.63 54.8498 108.72 55.1498 108.72 55.4998C108.72 55.8698 108.63 56.1898 108.45 56.4598C108.27 56.7298 108.02 56.9398 107.71 57.0898C107.4 57.2398 107.05 57.3098 106.67 57.3098L106.65 57.2998ZM106.59 56.4798C106.8 56.4798 106.99 56.4398 107.16 56.3598C107.32 56.2798 107.45 56.1698 107.55 56.0298C107.64 55.8898 107.69 55.7198 107.69 55.5298C107.69 55.2398 107.59 55.0098 107.39 54.8298C107.19 54.6598 106.91 54.5698 106.57 54.5698C106.35 54.5698 106.15 54.6098 105.98 54.6898C105.81 54.7698 105.68 54.8898 105.58 55.0298C105.48 55.1698 105.43 55.3398 105.43 55.5298C105.43 55.6998 105.47 55.8598 105.57 55.9998C105.67 56.1398 105.79 56.2598 105.97 56.3398C106.14 56.4298 106.35 56.4698 106.6 56.4698L106.59 56.4798Z" fill="#13110C"/>
<path d="M111.66 57.2998C111.15 57.2998 110.72 57.1898 110.36 56.9798C110 56.7598 109.72 56.4498 109.53 56.0398C109.34 55.6298 109.24 55.1198 109.24 54.5198C109.24 53.8798 109.36 53.3398 109.59 52.8998C109.82 52.4598 110.14 52.1198 110.56 51.8898C110.98 51.6598 111.45 51.5498 111.99 51.5498C112.27 51.5498 112.54 51.5798 112.8 51.6398C113.06 51.6998 113.28 51.7898 113.46 51.9098L113.08 52.6898C112.92 52.5898 112.76 52.5198 112.58 52.4798C112.4 52.4398 112.21 52.4198 112.02 52.4198C111.49 52.4198 111.07 52.5798 110.76 52.9098C110.45 53.2398 110.3 53.7198 110.3 54.3498C110.3 54.4498 110.3 54.5698 110.3 54.7098C110.3 54.8498 110.32 54.9798 110.36 55.1198L110.04 54.7698C110.14 54.5498 110.27 54.3698 110.44 54.2198C110.61 54.0698 110.81 53.9598 111.04 53.8898C111.27 53.8098 111.52 53.7798 111.8 53.7798C112.17 53.7798 112.5 53.8498 112.78 53.9898C113.07 54.1298 113.3 54.3298 113.47 54.5898C113.64 54.8498 113.73 55.1498 113.73 55.4998C113.73 55.8698 113.64 56.1898 113.46 56.4598C113.28 56.7298 113.03 56.9398 112.72 57.0898C112.41 57.2398 112.06 57.3098 111.68 57.3098L111.66 57.2998ZM111.6 56.4798C111.81 56.4798 112 56.4398 112.17 56.3598C112.34 56.2798 112.46 56.1698 112.56 56.0298C112.65 55.8898 112.7 55.7198 112.7 55.5298C112.7 55.2398 112.6 55.0098 112.4 54.8298C112.2 54.6598 111.92 54.5698 111.58 54.5698C111.36 54.5698 111.16 54.6098 110.99 54.6898C110.82 54.7698 110.69 54.8898 110.59 55.0298C110.49 55.1698 110.44 55.3398 110.44 55.5298C110.44 55.6998 110.49 55.8598 110.58 55.9998C110.67 56.1398 110.8 56.2598 110.98 56.3398C111.15 56.4298 111.36 56.4698 111.61 56.4698L111.6 56.4798Z" fill="#13110C"/>
<path d="M145.04 82.7102C144.58 82.7102 144.17 82.6402 143.83 82.5002C143.49 82.3602 143.22 82.1702 143.04 81.9102C142.85 81.6602 142.76 81.3602 142.76 81.0202C142.76 80.6802 142.85 80.3902 143.03 80.1602C143.21 79.9202 143.47 79.7502 143.81 79.6202C144.15 79.5002 144.56 79.4402 145.03 79.4402C145.5 79.4402 145.91 79.5002 146.26 79.6202C146.61 79.7402 146.87 79.9202 147.05 80.1602C147.23 80.4002 147.33 80.6802 147.33 81.0202C147.33 81.3602 147.24 81.6602 147.05 81.9102C146.86 82.1602 146.59 82.3602 146.25 82.5002C145.91 82.6402 145.5 82.7102 145.04 82.7102ZM145.04 79.9802C144.61 79.9802 144.24 79.9202 143.93 79.8102C143.62 79.7002 143.38 79.5302 143.21 79.3102C143.04 79.0902 142.96 78.8202 142.96 78.5102C142.96 78.2002 143.05 77.9102 143.22 77.6802C143.39 77.4502 143.64 77.2702 143.95 77.1402C144.26 77.0102 144.63 76.9502 145.04 76.9502C145.45 76.9502 145.82 77.0102 146.14 77.1402C146.46 77.2702 146.7 77.4502 146.88 77.6802C147.06 77.9102 147.14 78.1902 147.14 78.5102C147.14 78.8302 147.06 79.0902 146.89 79.3102C146.72 79.5302 146.48 79.7002 146.17 79.8102C145.85 79.9302 145.48 79.9802 145.05 79.9802H145.04ZM145.04 81.8902C145.42 81.8902 145.73 81.8102 145.95 81.6502C146.17 81.4902 146.29 81.2702 146.29 80.9902C146.29 80.7102 146.18 80.4902 145.95 80.3302C145.73 80.1702 145.42 80.0902 145.04 80.0902C144.66 80.0902 144.35 80.1702 144.14 80.3302C143.93 80.4902 143.81 80.7102 143.81 80.9902C143.81 81.2702 143.92 81.4902 144.14 81.6502C144.36 81.8102 144.66 81.8902 145.04 81.8902ZM145.04 79.3402C145.37 79.3402 145.63 79.2702 145.82 79.1302C146.01 78.9902 146.11 78.8002 146.11 78.5602C146.11 78.3202 146.01 78.1102 145.81 77.9802C145.61 77.8502 145.35 77.7702 145.03 77.7702C144.71 77.7702 144.45 77.8402 144.26 77.9802C144.07 78.1202 143.97 78.3102 143.97 78.5602C143.97 78.8102 144.06 78.9902 144.25 79.1302C144.44 79.2702 144.7 79.3402 145.02 79.3402H145.04Z" fill="#13110C"/>
<path d="M148.13 83.8403L148.59 82.0704L148.73 82.6604C148.54 82.6604 148.39 82.6003 148.26 82.4903C148.13 82.3703 148.07 82.2203 148.07 82.0203C148.07 81.8203 148.13 81.6604 148.26 81.5404C148.38 81.4204 148.54 81.3604 148.72 81.3604C148.9 81.3604 149.06 81.4204 149.18 81.5404C149.3 81.6604 149.36 81.8203 149.36 82.0203C149.36 82.0703 149.36 82.1304 149.34 82.1904C149.33 82.2504 149.31 82.3204 149.29 82.4004C149.27 82.4804 149.23 82.5803 149.17 82.7003L148.76 83.8304H148.11L148.13 83.8403Z" fill="#13110C"/>
<path d="M151.9 82.71C151.51 82.71 151.12 82.65 150.74 82.54C150.36 82.42 150.05 82.27 149.79 82.06L150.23 81.25C150.43 81.42 150.68 81.55 150.97 81.65C151.26 81.75 151.56 81.8 151.88 81.8C152.25 81.8 152.54 81.72 152.75 81.57C152.96 81.41 153.07 81.21 153.07 80.95C153.07 80.77 153.03 80.62 152.94 80.49C152.85 80.36 152.7 80.25 152.48 80.19C152.26 80.13 151.96 80.09 151.57 80.09H150.22L150.51 77.04H153.8V77.91H150.9L151.44 77.41L151.22 79.69L150.68 79.2H151.81C152.36 79.2 152.81 79.27 153.15 79.42C153.49 79.57 153.74 79.77 153.89 80.03C154.05 80.29 154.13 80.58 154.13 80.91C154.13 81.24 154.05 81.53 153.89 81.81C153.73 82.08 153.49 82.3 153.16 82.47C152.83 82.64 152.42 82.72 151.92 82.72L151.9 82.71Z" fill="#13110C"/>
<path d="M157.05 82.7102C156.61 82.7102 156.21 82.6002 155.85 82.3702C155.5 82.1502 155.22 81.8202 155.01 81.3902C154.81 80.9602 154.71 80.4402 154.71 79.8302C154.71 79.2202 154.81 78.7002 155.01 78.2702C155.21 77.8402 155.49 77.5102 155.85 77.2902C156.2 77.0702 156.6 76.9502 157.05 76.9502C157.5 76.9502 157.9 77.0602 158.25 77.2902C158.6 77.5102 158.88 77.8402 159.09 78.2702C159.3 78.7002 159.4 79.2202 159.4 79.8302C159.4 80.4402 159.3 80.9602 159.09 81.3902C158.88 81.8202 158.61 82.1502 158.25 82.3702C157.9 82.5902 157.5 82.7102 157.05 82.7102ZM157.05 81.8102C157.31 81.8102 157.54 81.7402 157.73 81.6002C157.92 81.4602 158.07 81.2402 158.18 80.9502C158.29 80.6602 158.34 80.2902 158.34 79.8402C158.34 79.3902 158.29 79.0102 158.18 78.7202C158.07 78.4302 157.92 78.2102 157.73 78.0702C157.54 77.9302 157.31 77.8602 157.05 77.8602C156.79 77.8602 156.58 77.9302 156.38 78.0702C156.18 78.2102 156.03 78.4302 155.92 78.7202C155.81 79.0102 155.76 79.3802 155.76 79.8402C155.76 80.3002 155.81 80.6602 155.92 80.9502C156.03 81.2402 156.18 81.4602 156.38 81.6002C156.57 81.7402 156.8 81.8102 157.05 81.8102Z" fill="#13110C"/>
<path d="M201.45 119.15C201.06 119.15 200.67 119.09 200.29 118.98C199.91 118.86 199.6 118.71 199.34 118.5L199.79 117.69C199.99 117.86 200.24 117.99 200.53 118.09C200.82 118.19 201.12 118.24 201.43 118.24C201.8 118.24 202.09 118.16 202.3 118.01C202.51 117.86 202.61 117.65 202.61 117.39C202.61 117.13 202.51 116.93 202.32 116.78C202.13 116.63 201.82 116.56 201.39 116.56H200.88V115.85L202.48 113.95L202.62 114.34H199.61V113.47H203.43V114.17L201.83 116.07L201.29 115.75H201.6C202.29 115.75 202.8 115.9 203.15 116.21C203.49 116.52 203.67 116.91 203.67 117.39C203.67 117.7 203.59 118 203.43 118.26C203.27 118.52 203.03 118.74 202.7 118.9C202.37 119.06 201.96 119.14 201.46 119.14L201.45 119.15Z" fill="#13110C"/>
<path d="M204.39 120.28L204.85 118.51L204.99 119.1C204.8 119.1 204.65 119.04 204.52 118.93C204.4 118.81 204.33 118.66 204.33 118.46C204.33 118.26 204.39 118.1 204.52 117.98C204.65 117.86 204.8 117.8 204.98 117.8C205.16 117.8 205.32 117.86 205.44 117.98C205.56 118.1 205.62 118.26 205.62 118.46C205.62 118.51 205.62 118.57 205.6 118.63C205.6 118.69 205.57 118.76 205.55 118.84C205.53 118.92 205.49 119.02 205.43 119.14L205.02 120.27H204.37L204.39 120.28Z" fill="#13110C"/>
<path d="M206.18 117.8V117.08L208.94 113.47H210.05L207.33 117.08L206.81 116.92H211.25V117.8H206.18ZM209.25 119.07V117.8L209.28 116.92V115.79H210.26V119.07H209.25Z" fill="#13110C"/>
<path d="M211.61 117.8V117.08L214.37 113.47H215.48L212.76 117.08L212.24 116.92H216.68V117.8H211.61ZM214.68 119.07V117.8L214.71 116.92V115.79H215.69V119.07H214.68Z" fill="#13110C"/>
<path d="M156.53 195.16V189.96L156.99 190.43H155.35V189.56H157.57V195.16H156.53Z" fill="#13110C"/>
<path d="M158.61 195.16V194.46L160.83 192.35C161.02 192.17 161.15 192.02 161.25 191.89C161.34 191.76 161.4 191.63 161.43 191.52C161.46 191.4 161.47 191.3 161.47 191.2C161.47 190.94 161.38 190.74 161.21 190.6C161.03 190.46 160.78 190.39 160.43 190.39C160.16 190.39 159.91 190.44 159.69 190.53C159.47 190.63 159.28 190.77 159.12 190.97L158.39 190.41C158.61 190.12 158.9 189.89 159.27 189.73C159.64 189.57 160.06 189.49 160.51 189.49C160.92 189.49 161.27 189.56 161.57 189.69C161.87 189.82 162.1 190.01 162.27 190.25C162.43 190.49 162.51 190.78 162.51 191.11C162.51 191.29 162.49 191.47 162.44 191.65C162.39 191.83 162.3 192.02 162.17 192.21C162.04 192.4 161.84 192.63 161.59 192.87L159.68 194.69L159.46 194.3H162.73V195.18H158.6L158.61 195.16Z" fill="#13110C"/>
<path d="M163.46 196.37L163.92 194.6L164.06 195.19C163.87 195.19 163.72 195.13 163.59 195.02C163.46 194.9 163.4 194.75 163.4 194.55C163.4 194.35 163.46 194.19 163.59 194.07C163.71 193.95 163.87 193.89 164.05 193.89C164.23 193.89 164.39 193.95 164.51 194.07C164.63 194.19 164.69 194.35 164.69 194.55C164.69 194.6 164.69 194.66 164.67 194.72C164.66 194.78 164.64 194.85 164.62 194.93C164.6 195.01 164.56 195.11 164.5 195.23L164.09 196.36H163.44L163.46 196.37Z" fill="#13110C"/>
<path d="M166.18 195.16L168.49 189.98L168.76 190.44H165.58L166.08 189.94V191.4H165.11V189.57H169.46V190.27L167.28 195.17H166.17L166.18 195.16Z" fill="#13110C"/>
<path d="M169.51 193.89V193.17L172.27 189.56H173.38L170.66 193.17L170.14 193.01H174.58V193.89H169.51ZM172.58 195.16V193.89L172.61 193.01V191.88H173.59V195.16H172.58Z" fill="#13110C"/>
<path d="M60.83 226.21C60.44 226.21 60.05 226.15 59.67 226.04C59.29 225.92 58.98 225.77 58.72 225.56L59.17 224.75C59.37 224.92 59.62 225.05 59.91 225.15C60.2 225.25 60.5 225.3 60.81 225.3C61.18 225.3 61.47 225.22 61.68 225.07C61.89 224.92 61.99 224.71 61.99 224.45C61.99 224.19 61.89 223.99 61.7 223.84C61.51 223.69 61.2 223.62 60.77 223.62H60.26V222.91L61.86 221.01L62 221.4H58.99V220.53H62.81V221.23L61.21 223.13L60.67 222.81H60.98C61.67 222.81 62.18 222.96 62.53 223.27C62.87 223.58 63.05 223.97 63.05 224.45C63.05 224.76 62.97 225.06 62.81 225.32C62.65 225.59 62.41 225.8 62.08 225.96C61.75 226.12 61.34 226.2 60.84 226.2L60.83 226.21Z" fill="#13110C"/>
<path d="M63.77 227.34L64.23 225.57L64.37 226.16C64.18 226.16 64.03 226.1 63.9 225.99C63.78 225.87 63.71 225.72 63.71 225.52C63.71 225.32 63.77 225.16 63.9 225.04C64.03 224.92 64.18 224.86 64.36 224.86C64.54 224.86 64.7 224.92 64.82 225.04C64.94 225.16 65 225.32 65 225.52C65 225.57 65 225.63 64.98 225.69C64.97 225.75 64.95 225.82 64.93 225.9C64.91 225.98 64.87 226.08 64.81 226.2L64.4 227.33H63.75L63.77 227.34Z" fill="#13110C"/>
<path d="M67.57 220.45C68.08 220.45 68.52 220.56 68.88 220.77C69.24 220.99 69.52 221.3 69.71 221.71C69.9 222.12 70 222.63 70 223.23C70 223.87 69.88 224.41 69.65 224.85C69.42 225.29 69.1 225.63 68.69 225.86C68.28 226.09 67.8 226.2 67.26 226.2C66.98 226.2 66.71 226.17 66.45 226.11C66.19 226.05 65.97 225.96 65.79 225.84L66.17 225.06C66.32 225.16 66.49 225.23 66.67 225.27C66.85 225.31 67.04 225.33 67.23 225.33C67.76 225.33 68.18 225.17 68.49 224.84C68.8 224.51 68.95 224.04 68.95 223.4C68.95 223.3 68.95 223.18 68.95 223.04C68.95 222.9 68.93 222.77 68.89 222.63L69.21 222.98C69.12 223.2 68.99 223.38 68.82 223.53C68.65 223.68 68.45 223.79 68.22 223.86C67.99 223.93 67.74 223.97 67.46 223.97C67.1 223.97 66.77 223.9 66.48 223.76C66.19 223.62 65.96 223.42 65.79 223.16C65.62 222.9 65.53 222.6 65.53 222.25C65.53 221.88 65.62 221.56 65.8 221.29C65.98 221.02 66.23 220.81 66.54 220.66C66.85 220.51 67.2 220.44 67.58 220.44L67.57 220.45ZM67.63 221.27C67.42 221.27 67.23 221.31 67.06 221.39C66.89 221.47 66.77 221.58 66.67 221.72C66.58 221.86 66.53 222.03 66.53 222.23C66.53 222.52 66.63 222.76 66.83 222.93C67.03 223.1 67.3 223.19 67.65 223.19C67.87 223.19 68.07 223.15 68.24 223.07C68.41 222.99 68.54 222.87 68.64 222.73C68.74 222.58 68.78 222.42 68.78 222.24C68.78 222.06 68.73 221.91 68.64 221.76C68.55 221.62 68.42 221.51 68.25 221.42C68.08 221.34 67.87 221.29 67.62 221.29L67.63 221.27Z" fill="#13110C"/>
<path d="M70.62 226.13V225.43L72.84 223.32C73.03 223.14 73.17 222.99 73.26 222.86C73.35 222.73 73.41 222.6 73.44 222.49C73.47 222.37 73.48 222.27 73.48 222.17C73.48 221.91 73.39 221.71 73.22 221.57C73.04 221.43 72.79 221.36 72.44 221.36C72.17 221.36 71.92 221.41 71.7 221.5C71.48 221.6 71.29 221.74 71.13 221.94L70.4 221.38C70.62 221.09 70.91 220.86 71.28 220.7C71.65 220.54 72.07 220.46 72.52 220.46C72.93 220.46 73.28 220.53 73.58 220.66C73.88 220.79 74.11 220.98 74.28 221.22C74.44 221.46 74.52 221.75 74.52 222.08C74.52 222.26 74.5 222.44 74.45 222.62C74.4 222.8 74.31 222.99 74.18 223.18C74.05 223.38 73.85 223.6 73.6 223.84L71.69 225.66L71.47 225.27H74.74V226.15H70.61L70.62 226.13Z" fill="#13110C"/>
<path d="M248.24 238.77H219.92V245.88H248.24V238.77Z" fill="#511F19"/>
<path d="M150.02 238.77H109.91V245.88H150.02V238.77Z" fill="#511F19"/>
<path d="M248.24 245.85H218.12V248.7H248.24V245.85Z" fill="#511F19"/>
<path d="M151.8 245.85H107.99V248.7H151.8V245.85Z" fill="#511F19"/>
<path d="M39.86 238.77H0V245.88H39.86V238.77Z" fill="#511F19"/>
<path d="M41.63 245.85H0V248.7H41.63V245.85Z" fill="#511F19"/>
<path d="M150.02 238.77H220.04" stroke="#511F19" stroke-width="0.43" stroke-miterlimit="10"/>
<path d="M150.02 242.32H219.96" stroke="#511F19" stroke-width="0.43" stroke-miterlimit="10"/>
<path d="M218.12 245.85H151.8" stroke="#511F19" stroke-width="0.43" stroke-miterlimit="10"/>
<path d="M39.86 238.77H109.91" stroke="#511F19" stroke-width="0.43" stroke-miterlimit="10"/>
<path d="M39.86 242.32H109.79" stroke="#511F19" stroke-width="0.43" stroke-miterlimit="10"/>
<path d="M107.82 245.85H41.63" stroke="#511F19" stroke-width="0.43" stroke-miterlimit="10"/>
<path d="M7.08 70.77H0V246.77H7.08V70.77Z" fill="#511F19"/>
<path d="M248.24 98.52H241.2V245.35H248.24V98.52Z" fill="#511F19"/>
<path d="M179.88 0.5H68.4V23.37H179.88V0.5Z" fill="#511F19"/>
<path d="M74.04 22.3101H68.4V87.9201H74.04V22.3101Z" fill="#511F19"/>
<path d="M72.48 70.77H3.54V87.93H72.48V70.77Z" fill="#511F19"/>
<path d="M126.96 85.6499H70.84V87.9299H126.96V85.6499Z" fill="#511F19"/>
<path d="M124.65 64.52H122.4V75.65H124.65V64.52Z" fill="#511F19"/>
<path d="M124.65 146.12H122.4V209.12H124.65V146.12Z" fill="#511F19"/>
<path d="M124.65 21.8901H122.4V41.7201H124.65V21.8901Z" fill="#511F19"/>
<path d="M179.87 21.8901H174.23V41.7201H179.87V21.8901Z" fill="#511F19"/>
<path d="M248.27 73.77H174.23V87.9H248.27V73.77Z" fill="#511F19"/>
<path d="M179.87 72.79H174.23V87.9H179.87V72.79Z" fill="#511F19"/>
<path d="M129.48 74.1201H122.4V108.08H129.48V74.1201Z" fill="#511F19"/>
<path d="M178.56 41.3701H176.27V43.1601H178.56V41.3701Z" fill="#511F19"/>
<path d="M178.56 71.3501H176.27V73.1401H178.56V71.3501Z" fill="#511F19"/>
<path d="M192 86.4302H189.82V102.89H192V86.4302Z" fill="#511F19"/>
<path d="M192 125.85H189.82V147.26H192V125.85Z" fill="#511F19"/>
<path d="M244.45 146.16H174.96V148.34H244.45V146.16Z" fill="#511F19"/>
<path d="M248.28 74.1201H241.2V107.37H248.28V74.1201Z" fill="#511F19"/>
<path d="M149.28 146.12H122.4V148.4H149.28V146.12Z" fill="#511F19"/>
<path d="M129.48 202.04H122.4V241.16H129.48V202.04Z" fill="#511F19"/>
<path d="M43.55 207.2H2.29V210.6H43.55V207.2Z" fill="#511F19"/>
<path d="M78.59 207.69H77.03V209.97H78.59V207.69Z" fill="#511F19"/>
<path d="M102.71 207.69H101.15V209.97H102.71V207.69Z" fill="#511F19"/>
<path d="M101.25 207.69V185.03" stroke="#511F19" stroke-width="0.85" stroke-miterlimit="10"/>
<path d="M101.25 185.03C88.74 185.03 78.6 195.17 78.6 207.68" stroke="#511F19" stroke-width="0.43" stroke-miterlimit="10"/>
<path d="M178.56 71.3496H206.83" stroke="#511F19" stroke-width="0.85" stroke-miterlimit="10"/>
<path d="M206.83 71.3498C206.83 55.7398 194.18 43.0898 178.57 43.0898" stroke="#511F19" stroke-width="0.43" stroke-miterlimit="10"/>
<path d="M43.55 207.46H77.03V210.34H43.55" stroke="#511F19" stroke-width="0.43" stroke-miterlimit="10"/>
<path d="M77.03 208.9H43.55" stroke="#511F19" stroke-width="0.43" stroke-miterlimit="10"/>
<path d="M122.4 207.46H102.71V210.34H122.4" stroke="#511F19" stroke-width="0.43" stroke-miterlimit="10"/>
<path d="M102.71 208.9H122.4" stroke="#511F19" stroke-width="0.43" stroke-miterlimit="10"/>
<path d="M179.87 107.72L189.92 125.85" stroke="#511F19" stroke-width="0.85" stroke-miterlimit="10"/>
<path d="M149.27 147.08L167.4 157.12" stroke="#511F19" stroke-width="0.85" stroke-miterlimit="10"/>
</g>
<defs>
<clipPath id="clip0_2024_5899">
<rect width="248.28" height="248.2" fill="white" transform="translate(0 0.5)"/>
</clipPath>
</defs>
</svg>
