<svg width="354" height="248" viewBox="0 0 354 248" fill="none" xmlns="http://www.w3.org/2000/svg">
<g clip-path="url(#clip0_2024_8060)">
<path d="M73.51 209.72C77.18 206.05 74.99 198.19 72.6 194.4C70.2 190.61 64.66 190.09 59.27 195.48C53.88 200.87 54.4 206.41 58.19 208.81C61.98 211.21 69.84 213.39 73.51 209.73V209.72Z" stroke="#C7C6C5" stroke-width="0.43" stroke-miterlimit="10"/>
<path d="M71.09 197.89C70.73 199.65 71.91 201.3 71.91 201.3C71.91 201.3 71.23 202.57 71.53 204.28C71.53 204.28 70.32 205.13 69.62 205.82C68.93 206.51 68.08 207.72 68.08 207.72C66.37 207.43 65.1 208.1 65.1 208.1C65.1 208.1 63.45 206.92 61.69 207.28" stroke="#C7C6C5" stroke-width="0.43" stroke-miterlimit="10"/>
<path d="M38.73 202.85L35.41 206.17C35.41 206.17 35.05 206.38 35.34 207C35.63 207.62 36.25 207.36 36.25 207.36C36.25 207.36 38.26 207.22 40.69 204.79" stroke="#C7C6C5" stroke-width="0.43" stroke-miterlimit="10"/>
<path d="M38.73 202.85L35.41 206.17C35.41 206.17 35.05 206.38 35.34 207C35.63 207.62 36.25 207.36 36.25 207.36C36.25 207.36 38.26 207.22 40.69 204.79" stroke="#C7C6C5" stroke-width="0.43" stroke-linecap="round" stroke-linejoin="round"/>
<path d="M35.26 206.36C35.26 206.77 36.56 206.89 39.66 203.78" stroke="#C7C6C5" stroke-width="0.43" stroke-linecap="round" stroke-linejoin="round"/>
<path d="M28.99 202.47L29.28 202.12C29.46 201.9 29.8 201.86 30.03 202.05L34.11 205.4C34.33 205.58 34.37 205.92 34.18 206.15L33.89 206.5C33.71 206.72 33.37 206.76 33.14 206.57L29.06 203.22C28.84 203.04 28.8 202.7 28.99 202.47Z" stroke="#C7C6C5" stroke-width="0.43" stroke-miterlimit="10"/>
<path d="M28.99 202.47L29.28 202.12C29.46 201.9 29.8 201.86 30.03 202.05L34.11 205.4C34.33 205.58 34.37 205.92 34.18 206.15L33.89 206.5C33.71 206.72 33.37 206.76 33.14 206.57L29.06 203.22C28.84 203.04 28.8 202.7 28.99 202.47Z" stroke="#C7C6C5" stroke-width="0.43" stroke-linecap="round" stroke-linejoin="round"/>
<path d="M30.84 194.95C26.9 198.89 27.13 200.17 29.62 201.99C29.62 201.99 29.75 201.87 30.15 202.2C30.55 202.53 33.66 205.09 33.66 205.09C34.11 205.46 35.88 205.69 37.52 204.05L39.95 201.62C41.59 199.98 41.36 198.21 40.99 197.76C40.99 197.76 38.24 194.42 38.06 194.2C37.88 193.98 37.89 193.72 37.89 193.72C36.07 191.23 34.79 191 30.85 194.94" stroke="#C7C6C5" stroke-width="0.43" stroke-miterlimit="10"/>
<path d="M30.84 194.95C26.9 198.89 27.13 200.17 29.62 201.99C29.62 201.99 29.75 201.87 30.15 202.2C30.55 202.53 33.66 205.09 33.66 205.09C34.11 205.46 35.88 205.69 37.52 204.05L39.95 201.62C41.59 199.98 41.36 198.21 40.99 197.76C40.99 197.76 38.24 194.42 38.06 194.2C37.88 193.98 37.89 193.72 37.89 193.72C36.07 191.23 34.79 191 30.85 194.94" stroke="#C7C6C5" stroke-width="0.43" stroke-linecap="round" stroke-linejoin="round"/>
<path d="M38.73 202.85L42.05 199.53C42.05 199.53 42.26 199.17 42.88 199.46C43.5 199.75 43.25 200.37 43.25 200.37C43.25 200.37 43.1 202.38 40.68 204.81" stroke="#C7C6C5" stroke-width="0.43" stroke-miterlimit="10"/>
<path d="M38.73 202.85L42.05 199.53C42.05 199.53 42.26 199.17 42.88 199.46C43.5 199.75 43.25 200.37 43.25 200.37C43.25 200.37 43.1 202.38 40.68 204.81" stroke="#C7C6C5" stroke-width="0.43" stroke-linecap="round" stroke-linejoin="round"/>
<path d="M42.24 199.37C42.65 199.37 42.77 200.67 39.66 203.77" stroke="#C7C6C5" stroke-width="0.43" stroke-linecap="round" stroke-linejoin="round"/>
<path d="M38.04 193.47L38.39 193.18C38.61 193 38.95 193.03 39.14 193.25L42.5 197.32C42.68 197.54 42.65 197.88 42.43 198.07L42.08 198.36C41.86 198.54 41.52 198.51 41.33 198.29L37.97 194.22C37.79 194 37.82 193.66 38.04 193.47Z" stroke="#C7C6C5" stroke-width="0.43" stroke-miterlimit="10"/>
<path d="M38.04 193.47L38.39 193.18C38.61 193 38.95 193.03 39.14 193.25L42.5 197.32C42.68 197.54 42.65 197.88 42.43 198.07L42.08 198.36C41.86 198.54 41.52 198.51 41.33 198.29L37.97 194.22C37.79 194 37.82 193.66 38.04 193.47Z" stroke="#C7C6C5" stroke-width="0.43" stroke-linecap="round" stroke-linejoin="round"/>
<path d="M29.39 184.23H9.98999V214.58H29.39V184.23Z" stroke="#C7C6C5" stroke-width="0.43" stroke-miterlimit="10"/>
<path d="M56.26 155.73V135.55C56.26 135.17 55.96 134.87 55.58 134.87H35.12C34.75 134.87 34.44 135.17 34.44 135.55V137.91C34.44 138.29 34.74 138.59 35.12 138.59H52.54V155.73C52.54 156.11 52.84 156.41 53.22 156.41H55.58C55.96 156.41 56.26 156.11 56.26 155.73Z" stroke="#C7C6C5" stroke-width="0.43" stroke-miterlimit="10"/>
<path d="M56.26 155.73V135.55C56.26 135.17 55.96 134.87 55.58 134.87H35.12C34.75 134.87 34.44 135.17 34.44 135.55V137.91C34.44 138.29 34.74 138.59 35.12 138.59H52.54V155.73C52.54 156.11 52.84 156.41 53.22 156.41H55.58C55.96 156.41 56.26 156.11 56.26 155.73Z" stroke="#C7C6C5" stroke-width="0.43" stroke-miterlimit="10"/>
<path d="M58.9 155.73V132.75C58.9 132.37 58.6 132.07 58.22 132.07H35.12C34.75 132.07 34.44 132.37 34.44 132.75V134.03C34.44 134.41 34.74 134.87 35.12 134.87H56.26V155.73C56.26 156.11 56.56 156.41 56.94 156.41H58.22C58.6 156.41 58.9 156.11 58.9 155.73Z" stroke="#C7C6C5" stroke-width="0.43" stroke-miterlimit="10"/>
<path d="M58.9 155.73V132.75C58.9 132.37 58.6 132.07 58.22 132.07H35.12C34.75 132.07 34.44 132.37 34.44 132.75V134.03C34.44 134.41 34.74 134.87 35.12 134.87H56.26V155.73C56.26 156.11 56.56 156.41 56.94 156.41H58.22C58.6 156.41 58.9 156.11 58.9 155.73Z" stroke="#C7C6C5" stroke-width="0.43" stroke-miterlimit="10"/>
<path d="M52.55 138.58L55.95 135.2" stroke="#C7C6C5" stroke-width="0.43" stroke-miterlimit="10"/>
<path d="M35.12 138.58H51.87C52.24 138.58 52.55 138.88 52.55 139.26V155.73C52.55 156.1 52.25 156.41 51.87 156.41H35.12C34.74 156.41 34.44 156.11 34.44 155.73V139.27C34.44 138.9 34.74 138.59 35.12 138.59V138.58Z" stroke="#C7C6C5" stroke-width="0.43" stroke-miterlimit="10"/>
<path d="M35.12 138.58H51.87C52.24 138.58 52.55 138.88 52.55 139.26V155.73C52.55 156.1 52.25 156.41 51.87 156.41H35.12C34.74 156.41 34.44 156.11 34.44 155.73V139.27C34.44 138.9 34.74 138.59 35.12 138.59V138.58Z" stroke="#C7C6C5" stroke-width="0.43" stroke-miterlimit="10"/>
<path d="M12.62 155.73V135.55C12.62 135.17 12.92 134.87 13.3 134.87H33.76C34.14 134.87 34.44 135.17 34.44 135.55V137.91C34.44 138.29 34.14 138.59 33.76 138.59H16.34V155.73C16.34 156.11 16.04 156.41 15.66 156.41H13.3C12.93 156.41 12.62 156.11 12.62 155.73Z" stroke="#C7C6C5" stroke-width="0.43" stroke-miterlimit="10"/>
<path d="M12.62 155.73V135.55C12.62 135.17 12.92 134.87 13.3 134.87H33.76C34.14 134.87 34.44 135.17 34.44 135.55V137.91C34.44 138.29 34.14 138.59 33.76 138.59H16.34V155.73C16.34 156.11 16.04 156.41 15.66 156.41H13.3C12.93 156.41 12.62 156.11 12.62 155.73Z" stroke="#C7C6C5" stroke-width="0.43" stroke-miterlimit="10"/>
<path d="M9.98999 155.73V132.75C9.98999 132.37 10.29 132.07 10.67 132.07H33.77C34.15 132.07 34.45 132.37 34.45 132.75V134.03C34.45 134.41 34.15 134.87 33.77 134.87H12.63V155.73C12.63 156.11 12.33 156.41 11.95 156.41H10.67C10.3 156.41 9.98999 156.11 9.98999 155.73Z" stroke="#C7C6C5" stroke-width="0.43" stroke-miterlimit="10"/>
<path d="M9.98999 155.73V132.75C9.98999 132.37 10.29 132.07 10.67 132.07H33.77C34.15 132.07 34.45 132.37 34.45 132.75V134.03C34.45 134.41 34.15 134.87 33.77 134.87H12.63V155.73C12.63 156.11 12.33 156.41 11.95 156.41H10.67C10.3 156.41 9.98999 156.11 9.98999 155.73Z" stroke="#C7C6C5" stroke-width="0.43" stroke-miterlimit="10"/>
<path d="M16.34 138.58L12.94 135.2" stroke="#C7C6C5" stroke-width="0.43" stroke-miterlimit="10"/>
<path d="M17.02 138.58H33.77C34.14 138.58 34.45 138.88 34.45 139.26V155.73C34.45 156.1 34.15 156.41 33.77 156.41H17.02C16.64 156.41 16.34 156.11 16.34 155.73V139.27C16.34 138.9 16.64 138.59 17.02 138.59V138.58Z" stroke="#C7C6C5" stroke-width="0.43" stroke-miterlimit="10"/>
<path d="M17.02 138.58H33.77C34.14 138.58 34.45 138.88 34.45 139.26V155.73C34.45 156.1 34.15 156.41 33.77 156.41H17.02C16.64 156.41 16.34 156.11 16.34 155.73V139.27C16.34 138.9 16.64 138.59 17.02 138.59V138.58Z" stroke="#C7C6C5" stroke-width="0.43" stroke-miterlimit="10"/>
<path d="M318.86 145.29C318.86 145.29 319.98 145.43 320.4 145.86C320.68 146.14 320.97 147.49 317.34 151.13C313.71 154.77 312.35 154.47 312.07 154.19C311.48 153.6 311.5 152.64 311.5 152.64" stroke="#C7C6C5" stroke-width="0.43" stroke-miterlimit="10"/>
<path d="M318.86 145.29C318.86 145.29 319.98 145.43 320.4 145.86C320.68 146.14 320.97 147.49 317.34 151.13C313.71 154.77 312.35 154.47 312.07 154.19C311.48 153.6 311.5 152.64 311.5 152.64" stroke="#C7C6C5" stroke-width="0.43" stroke-miterlimit="10"/>
<path d="M304.56 146.67C304.28 146.39 304.28 145.94 304.56 145.67L311.89 138.34C312.17 138.06 312.61 138.06 312.89 138.34L318.8 144.25C319.08 144.53 319.37 145.88 315.74 149.52C312.1 153.15 310.75 152.86 310.47 152.58L304.56 146.67Z" stroke="#C7C6C5" stroke-width="0.43" stroke-miterlimit="10"/>
<path d="M304.56 146.67C304.28 146.39 304.28 145.94 304.56 145.67L311.89 138.34C312.17 138.06 312.61 138.06 312.89 138.34L318.8 144.25C319.08 144.53 319.37 145.88 315.74 149.52C312.1 153.15 310.75 152.86 310.47 152.58L304.56 146.67Z" stroke="#C7C6C5" stroke-width="0.43" stroke-miterlimit="10"/>
<path d="M285.19 126.32C285.19 126.32 284.07 126.18 283.65 125.75C283.37 125.47 283.08 124.12 286.71 120.48C290.34 116.85 291.7 117.14 291.98 117.42C292.57 118.01 292.55 118.96 292.55 118.96" stroke="#C7C6C5" stroke-width="0.43" stroke-miterlimit="10"/>
<path d="M285.19 126.32C285.19 126.32 284.07 126.18 283.65 125.75C283.37 125.47 283.08 124.12 286.71 120.48C290.34 116.85 291.7 117.14 291.98 117.42C292.57 118.01 292.55 118.96 292.55 118.96" stroke="#C7C6C5" stroke-width="0.43" stroke-miterlimit="10"/>
<path d="M299.49 124.94C299.77 125.22 299.77 125.67 299.49 125.94L292.16 133.27C291.88 133.55 291.44 133.55 291.16 133.27L285.25 127.35C284.97 127.07 284.68 125.72 288.31 122.08C291.94 118.45 293.3 118.74 293.58 119.02L299.5 124.93H299.49V124.94Z" stroke="#C7C6C5" stroke-width="0.43" stroke-miterlimit="10"/>
<path d="M299.49 124.94C299.77 125.22 299.77 125.67 299.49 125.94L292.16 133.27C291.88 133.55 291.44 133.55 291.16 133.27L285.25 127.35C284.97 127.07 284.68 125.72 288.31 122.08C291.94 118.45 293.3 118.74 293.58 119.02L299.5 124.93H299.49V124.94Z" stroke="#C7C6C5" stroke-width="0.43" stroke-miterlimit="10"/>
<path d="M311.5 118.97C311.5 118.97 311.65 117.85 312.07 117.43C312.35 117.15 313.7 116.86 317.34 120.49C320.98 124.12 320.68 125.48 320.4 125.76C319.81 126.35 318.86 126.33 318.86 126.33" stroke="#C7C6C5" stroke-width="0.43" stroke-miterlimit="10"/>
<path d="M311.5 118.97C311.5 118.97 311.65 117.85 312.07 117.43C312.35 117.15 313.7 116.86 317.34 120.49C320.98 124.12 320.68 125.48 320.4 125.76C319.81 126.35 318.86 126.33 318.86 126.33" stroke="#C7C6C5" stroke-width="0.43" stroke-miterlimit="10"/>
<path d="M312.89 133.27C312.61 133.55 312.17 133.55 311.89 133.27L304.56 125.94C304.28 125.66 304.28 125.22 304.56 124.94L310.47 119.03C310.75 118.75 312.1 118.46 315.74 122.09C319.37 125.72 319.08 127.08 318.8 127.36L312.88 133.27H312.89Z" stroke="#C7C6C5" stroke-width="0.43" stroke-miterlimit="10"/>
<path d="M312.89 133.27C312.61 133.55 312.17 133.55 311.89 133.27L304.56 125.94C304.28 125.66 304.28 125.22 304.56 124.94L310.47 119.03C310.75 118.75 312.1 118.46 315.74 122.09C319.37 125.72 319.08 127.08 318.8 127.36L312.88 133.27H312.89Z" stroke="#C7C6C5" stroke-width="0.43" stroke-miterlimit="10"/>
<path d="M292.54 152.64C292.54 152.64 292.39 153.76 291.97 154.19C291.69 154.47 290.34 154.76 286.7 151.13C283.06 147.5 283.36 146.14 283.64 145.86C284.23 145.27 285.18 145.29 285.18 145.29" stroke="#C7C6C5" stroke-width="0.43" stroke-miterlimit="10"/>
<path d="M292.54 152.64C292.54 152.64 292.39 153.76 291.97 154.19C291.69 154.47 290.34 154.76 286.7 151.13C283.06 147.5 283.36 146.14 283.64 145.86C284.23 145.27 285.18 145.29 285.18 145.29" stroke="#C7C6C5" stroke-width="0.43" stroke-miterlimit="10"/>
<path d="M291.16 138.33C291.44 138.05 291.89 138.05 292.16 138.33L299.49 145.66C299.77 145.94 299.77 146.38 299.49 146.66L293.57 152.57C293.29 152.85 291.94 153.14 288.3 149.51C284.67 145.88 284.96 144.52 285.24 144.24L291.15 138.33H291.16Z" stroke="#C7C6C5" stroke-width="0.43" stroke-miterlimit="10"/>
<path d="M291.16 138.33C291.44 138.05 291.89 138.05 292.16 138.33L299.49 145.66C299.77 145.94 299.77 146.38 299.49 146.66L293.57 152.57C293.29 152.85 291.94 153.14 288.3 149.51C284.67 145.88 284.96 144.52 285.24 144.24L291.15 138.33H291.16Z" stroke="#C7C6C5" stroke-width="0.43" stroke-miterlimit="10"/>
<path d="M312.04 145.77C306.52 151.29 297.57 151.29 292.05 145.77C286.53 140.25 286.53 131.31 292.05 125.79C297.57 120.27 306.52 120.27 312.04 125.79C317.56 131.31 317.56 140.26 312.04 145.78" stroke="#C7C6C5" stroke-width="0.43" stroke-miterlimit="10"/>
<path d="M312.04 145.77C306.52 151.29 297.57 151.29 292.05 145.77C286.53 140.25 286.53 131.31 292.05 125.79C297.57 120.27 306.52 120.27 312.04 125.79C317.56 131.31 317.56 140.26 312.04 145.78V145.77Z" stroke="#C7C6C5" stroke-width="0.43" stroke-miterlimit="10"/>
<path d="M162.42 204.76C162.42 210.17 166.82 214.58 172.24 214.58C177.66 214.58 182.06 210.18 182.06 204.76V175.38C182.06 169.97 177.66 165.56 172.24 165.56C166.82 165.56 162.42 169.96 162.42 175.38V204.76Z" stroke="#C7C6C5" stroke-width="0.43" stroke-linecap="round" stroke-linejoin="round"/>
<path d="M164.27 204.54C164.27 208.93 167.84 212.5 172.23 212.5C176.62 212.5 180.19 208.93 180.19 204.54V175.39C180.19 171 176.62 167.43 172.23 167.43C167.84 167.43 164.27 171 164.27 175.39V204.54Z" stroke="#C7C6C5" stroke-width="0.43" stroke-linecap="round" stroke-linejoin="round"/>
<path d="M172.23 172.91C170.29 172.91 168.71 174.48 168.71 176.43V202.32C168.71 204.26 170.28 205.84 172.23 205.84C174.17 205.84 175.75 204.27 175.75 202.32V176.43C175.75 174.49 174.18 172.91 172.23 172.91Z" stroke="#C7C6C5" stroke-width="0.43" stroke-linecap="round" stroke-linejoin="round"/>
<path d="M179.32 188.44C179.07 188.44 178.88 188.85 178.88 189.36C178.88 189.87 179.08 190.28 179.32 190.28C179.56 190.28 179.76 189.87 179.76 189.36C179.76 188.85 179.56 188.44 179.32 188.44Z" stroke="#C7C6C5" stroke-width="0.43" stroke-linecap="round" stroke-linejoin="round"/>
<path d="M68.35 33.1599H57.91C57.5179 33.1599 57.2 33.4778 57.2 33.8699V44.3099C57.2 44.702 57.5179 45.0199 57.91 45.0199H68.35C68.7421 45.0199 69.06 44.702 69.06 44.3099V33.8699C69.06 33.4778 68.7421 33.1599 68.35 33.1599Z" stroke="#C7C6C5" stroke-width="0.43" stroke-linecap="round" stroke-linejoin="round"/>
<path d="M124.67 33.1599H114.23C113.838 33.1599 113.52 33.4778 113.52 33.8699V44.3099C113.52 44.702 113.838 45.0199 114.23 45.0199H124.67C125.062 45.0199 125.38 44.702 125.38 44.3099V33.8699C125.38 33.4778 125.062 33.1599 124.67 33.1599Z" stroke="#C7C6C5" stroke-width="0.43" stroke-linecap="round" stroke-linejoin="round"/>
<path d="M69.98 34.9899C69.98 34.9899 69.95 33.8599 71.11 33.8599H111.47C112.65 33.8599 112.6 34.9899 112.6 34.9899V84.9399C112.6 84.9399 112.63 86.0699 111.47 86.0699H71.11C69.93 86.0699 69.98 84.9399 69.98 84.9399V34.9899Z" stroke="#C7C6C5" stroke-width="0.43" stroke-miterlimit="10"/>
<path d="M89.47 35.6699H73.22C72.6843 35.6699 72.25 36.1042 72.25 36.6399V46.4499C72.25 46.9856 72.6843 47.4199 73.22 47.4199H89.47C90.0057 47.4199 90.44 46.9856 90.44 46.4499V36.6399C90.44 36.1042 90.0057 35.6699 89.47 35.6699Z" stroke="#C7C6C5" stroke-width="0.43" stroke-miterlimit="10"/>
<path d="M109.36 35.6699H93.11C92.5743 35.6699 92.14 36.1042 92.14 36.6399V46.4499C92.14 46.9856 92.5743 47.4199 93.11 47.4199H109.36C109.896 47.4199 110.33 46.9856 110.33 46.4499V36.6399C110.33 36.1042 109.896 35.6699 109.36 35.6699Z" stroke="#C7C6C5" stroke-width="0.43" stroke-miterlimit="10"/>
<path d="M69.98 48.5798H112.6" stroke="#C7C6C5" stroke-width="0.43" stroke-miterlimit="10"/>
<path d="M112.6 39.2399C111.88 39.2399 111.89 38.3899 111.89 38.3899V34.9899C111.89 34.8999 111.87 34.7299 111.79 34.6499C111.72 34.5799 111.58 34.5599 111.47 34.5599H71.11C70.96 34.5599 70.86 34.5899 70.8 34.6499C70.71 34.7499 70.69 34.9499 70.69 34.9699V38.3799C70.69 38.3799 70.72 39.2299 69.98 39.2299C69.24 39.2299 69.27 38.3799 69.27 38.3799V34.9899C69.27 34.8599 69.29 34.4499 69.51 34.0399C69.82 33.4599 70.39 33.1499 71.11 33.1499H111.47C112.17 33.1499 112.59 33.4399 112.82 33.6799C113.33 34.2199 113.32 34.9399 113.31 35.0299V38.3999C113.31 38.3999 113.33 39.2499 112.6 39.2499V39.2399Z" stroke="#C7C6C5" stroke-width="0.43" stroke-miterlimit="10"/>
<path d="M69.98 38.3899V34.9899C69.98 34.9899 69.95 33.8599 71.11 33.8599H111.47C112.65 33.8599 112.6 34.9899 112.6 34.9899V38.3899" stroke="#C7C6C5" stroke-width="0.43" stroke-miterlimit="10" stroke-linecap="round"/>
<path d="M213.1 182.87C215.48 182.87 215.48 184.72 215.48 185.25V200.09C215.48 200.62 215.05 201.06 214.51 201.06H204.69C204.16 201.06 203.72 200.63 203.72 200.09V185.25C203.72 184.72 203.72 182.87 206.1 182.87H213.1Z" stroke="#C7C6C5" stroke-width="0.43" stroke-miterlimit="10"/>
<path d="M206.64 184.97H212.57C213.08 184.97 213.5 185.39 213.5 185.9V197.39C213.5 197.9 213.09 198.32 212.57 198.32H206.64C206.13 198.32 205.71 197.9 205.71 197.39V185.9C205.71 185.39 206.13 184.97 206.64 184.97Z" stroke="#C7C6C5" stroke-width="0.43" stroke-miterlimit="10"/>
<path d="M208.08 198.31C208.08 197.46 208.77 196.78 209.61 196.78C210.45 196.78 211.14 197.47 211.14 198.31" stroke="#C7C6C5" stroke-width="0.43" stroke-miterlimit="10"/>
<path d="M141 187.73C141 190.11 139.15 190.11 138.62 190.11H123.78C123.25 190.11 122.81 189.68 122.81 189.14V179.32C122.81 178.79 123.24 178.35 123.78 178.35H138.62C139.15 178.35 141 178.35 141 180.73V187.72V187.73Z" stroke="#C7C6C5" stroke-width="0.43" stroke-miterlimit="10"/>
<path d="M126.49 180.33H137.98C138.49 180.33 138.91 180.75 138.91 181.26V187.19C138.91 187.7 138.49 188.12 137.98 188.12H126.49C125.98 188.12 125.56 187.71 125.56 187.19V181.26C125.56 180.75 125.98 180.33 126.49 180.33Z" stroke="#C7C6C5" stroke-width="0.43" stroke-miterlimit="10"/>
<path d="M125.57 182.69C126.42 182.69 127.1 183.38 127.1 184.22C127.1 185.06 126.41 185.75 125.57 185.75" stroke="#C7C6C5" stroke-width="0.43" stroke-miterlimit="10"/>
<path d="M249.13 75.5601H230.77V129.68H249.13V75.5601Z" stroke="#C7C6C5" stroke-width="0.43" stroke-linecap="round" stroke-linejoin="round"/>
<path d="M240.8 100.41C240.8 99.19 238.99 99.2 238.99 100.41C238.99 101.31 239.9 101.07 239.9 101.88" stroke="#C7C6C5" stroke-width="0.43" stroke-linecap="round" stroke-linejoin="round"/>
<path d="M239.9 101.87L245.99 103.92C245.99 103.92 246.55 104.13 246.47 104.75C246.39 105.36 245.82 105.3 245.82 105.3H233.99C233.99 105.3 233.36 105.37 233.28 104.75C233.2 104.14 233.81 103.92 233.81 103.92L239.9 101.87Z" stroke="#C7C6C5" stroke-width="0.43" stroke-linecap="round" stroke-linejoin="round"/>
<path d="M239.9 98.4399V76.9399" stroke="#C7C6C5" stroke-width="0.43" stroke-linecap="round" stroke-linejoin="round"/>
<path d="M239.9 128.37V106.42" stroke="#C7C6C5" stroke-width="0.43" stroke-linecap="round" stroke-linejoin="round"/>
<path d="M120.41 165.56H102.05V214.57H120.41V165.56Z" stroke="#C7C6C5" stroke-width="0.43" stroke-linecap="round" stroke-linejoin="round"/>
<path d="M112.09 186.43C112.09 185.21 110.28 185.22 110.28 186.43C110.28 187.33 111.19 187.09 111.19 187.9" stroke="#C7C6C5" stroke-width="0.43" stroke-linecap="round" stroke-linejoin="round"/>
<path d="M111.18 187.91L117.27 189.96C117.27 189.96 117.83 190.17 117.75 190.79C117.67 191.4 117.1 191.34 117.1 191.34H105.27C105.27 191.34 104.64 191.41 104.56 190.79C104.48 190.18 105.09 189.96 105.09 189.96L111.18 187.91Z" stroke="#C7C6C5" stroke-width="0.43" stroke-linecap="round" stroke-linejoin="round"/>
<path d="M111.18 184.48V166.94" stroke="#C7C6C5" stroke-width="0.43" stroke-linecap="round" stroke-linejoin="round"/>
<path d="M111.18 213.26V192.44" stroke="#C7C6C5" stroke-width="0.43" stroke-linecap="round" stroke-linejoin="round"/>
<path d="M277.47 165.56H259.96V214.57H277.47V165.56Z" stroke="#C7C6C5" stroke-width="0.43" stroke-linecap="round" stroke-linejoin="round"/>
<path d="M269.71 186.43C269.71 185.21 267.9 185.22 267.9 186.43C267.9 187.33 268.81 187.09 268.81 187.9" stroke="#C7C6C5" stroke-width="0.43" stroke-linecap="round" stroke-linejoin="round"/>
<path d="M268.81 187.91L274.9 189.96C274.9 189.96 275.46 190.17 275.38 190.79C275.3 191.4 274.73 191.34 274.73 191.34H262.9C262.9 191.34 262.27 191.41 262.19 190.79C262.11 190.18 262.72 189.96 262.72 189.96L268.81 187.91Z" stroke="#C7C6C5" stroke-width="0.43" stroke-linecap="round" stroke-linejoin="round"/>
<path d="M268.81 184.48V166.94" stroke="#C7C6C5" stroke-width="0.43" stroke-linecap="round" stroke-linejoin="round"/>
<path d="M268.81 213.26V192.44" stroke="#C7C6C5" stroke-width="0.43" stroke-linecap="round" stroke-linejoin="round"/>
<path d="M150.99 33.2H132.63V129.78H150.99V33.2Z" stroke="#C7C6C5" stroke-width="0.43" stroke-linecap="round" stroke-linejoin="round"/>
<path d="M142.67 78.83C142.67 77.61 140.86 77.62 140.86 78.83C140.86 79.73 141.77 79.49 141.77 80.3" stroke="#C7C6C5" stroke-width="0.43" stroke-linecap="round" stroke-linejoin="round"/>
<path d="M141.76 80.3101L147.85 82.3601C147.85 82.3601 148.41 82.5701 148.33 83.1901C148.25 83.8001 147.68 83.7401 147.68 83.7401H135.85C135.85 83.7401 135.22 83.8101 135.14 83.1901C135.06 82.5801 135.67 82.3601 135.67 82.3601L141.76 80.3101Z" stroke="#C7C6C5" stroke-width="0.43" stroke-linecap="round" stroke-linejoin="round"/>
<path d="M141.76 76.8698V34.5798" stroke="#C7C6C5" stroke-width="0.43" stroke-linecap="round" stroke-linejoin="round"/>
<path d="M141.76 128.48V84.8499" stroke="#C7C6C5" stroke-width="0.43" stroke-linecap="round" stroke-linejoin="round"/>
<path d="M182.43 123.04C182.43 123.04 182.46 124.17 181.3 124.17H155.11C153.93 124.17 153.98 123.04 153.98 123.04V73.09C153.98 73.09 153.95 71.96 155.11 71.96H181.3C182.48 71.96 182.43 73.09 182.43 73.09V123.04Z" stroke="#C7C6C5" stroke-width="0.43" stroke-miterlimit="10"/>
<path d="M176.33 110.61H160.08C159.544 110.61 159.11 111.044 159.11 111.58V121.39C159.11 121.926 159.544 122.36 160.08 122.36H176.33C176.866 122.36 177.3 121.926 177.3 121.39V111.58C177.3 111.044 176.866 110.61 176.33 110.61Z" stroke="#C7C6C5" stroke-width="0.43" stroke-miterlimit="10"/>
<path d="M182.43 109.45H153.97" stroke="#C7C6C5" stroke-width="0.43" stroke-miterlimit="10"/>
<path d="M153.97 118.79C154.69 118.79 154.68 119.64 154.68 119.64V123.04C154.68 123.13 154.7 123.29 154.79 123.38C154.86 123.45 155 123.47 155.11 123.47H181.3C181.45 123.47 181.55 123.44 181.61 123.38C181.7 123.28 181.73 123.08 181.73 123.06V119.65C181.73 119.65 181.7 118.8 182.44 118.8C183.18 118.8 183.15 119.65 183.15 119.65V123.04C183.15 123.17 183.13 123.58 182.91 123.99C182.6 124.57 182.03 124.88 181.31 124.88H155.12C154.42 124.88 154 124.59 153.77 124.35C153.25 123.81 153.27 123.08 153.28 123V119.63C153.28 119.63 153.26 118.78 153.99 118.78H153.97V118.79Z" stroke="#C7C6C5" stroke-width="0.43" stroke-miterlimit="10"/>
<path d="M182.43 119.64V123.04C182.43 123.04 182.46 124.17 181.3 124.17H155.11C153.93 124.17 153.98 123.04 153.98 123.04V119.64" stroke="#C7C6C5" stroke-width="0.43" stroke-miterlimit="10" stroke-linecap="round"/>
<path d="M204.62 61.9199L201.3 58.5999C201.3 58.5999 201.09 58.2399 200.47 58.5299C199.85 58.8199 200.11 59.4399 200.11 59.4399C200.11 59.4399 200.25 61.4499 202.68 63.8799" stroke="#C7C6C5" stroke-width="0.43" stroke-miterlimit="10"/>
<path d="M204.62 61.9199L201.3 58.5999C201.3 58.5999 201.09 58.2399 200.47 58.5299C199.85 58.8199 200.11 59.4399 200.11 59.4399C200.11 59.4399 200.25 61.4499 202.68 63.8799" stroke="#C7C6C5" stroke-width="0.43" stroke-linecap="round" stroke-linejoin="round"/>
<path d="M201.1 58.4399C200.69 58.4399 200.57 59.7399 203.68 62.8399" stroke="#C7C6C5" stroke-width="0.43" stroke-linecap="round" stroke-linejoin="round"/>
<path d="M200.83 56.28L204.18 52.2C204.36 51.98 204.7 51.94 204.93 52.13L205.28 52.42C205.5 52.6 205.54 52.94 205.35 53.17L202 57.25C201.82 57.47 201.48 57.51 201.25 57.32L200.9 57.03C200.68 56.85 200.64 56.51 200.83 56.28Z" stroke="#C7C6C5" stroke-width="0.43" stroke-miterlimit="10"/>
<path d="M200.83 56.28L204.18 52.2C204.36 51.98 204.7 51.94 204.93 52.13L205.28 52.42C205.5 52.6 205.54 52.94 205.35 53.17L202 57.25C201.82 57.47 201.48 57.51 201.25 57.32L200.9 57.03C200.68 56.85 200.64 56.51 200.83 56.28Z" stroke="#C7C6C5" stroke-width="0.43" stroke-linecap="round" stroke-linejoin="round"/>
<path d="M212.51 54.02C208.57 50.08 207.29 50.31 205.47 52.8C205.47 52.8 205.59 52.93 205.26 53.33C204.93 53.73 202.37 56.84 202.37 56.84C202 57.29 201.77 59.06 203.41 60.7L205.84 63.13C207.48 64.77 209.25 64.54 209.7 64.17C209.7 64.17 213.04 61.42 213.26 61.24C213.48 61.06 213.74 61.07 213.74 61.07C216.23 59.25 216.46 57.97 212.52 54.03" stroke="#C7C6C5" stroke-width="0.43" stroke-miterlimit="10"/>
<path d="M212.51 54.02C208.57 50.08 207.29 50.31 205.47 52.8C205.47 52.8 205.59 52.93 205.26 53.33C204.93 53.73 202.37 56.84 202.37 56.84C202 57.29 201.77 59.06 203.41 60.7L205.84 63.13C207.48 64.77 209.25 64.54 209.7 64.17C209.7 64.17 213.04 61.42 213.26 61.24C213.48 61.06 213.74 61.07 213.74 61.07C216.23 59.25 216.46 57.97 212.52 54.03" stroke="#C7C6C5" stroke-width="0.43" stroke-linecap="round" stroke-linejoin="round"/>
<path d="M204.62 61.9199L207.94 65.2399C207.94 65.2399 208.3 65.4499 208.01 66.0699C207.72 66.6899 207.1 66.4399 207.1 66.4399C207.1 66.4399 205.09 66.2899 202.66 63.8699" stroke="#C7C6C5" stroke-width="0.43" stroke-miterlimit="10"/>
<path d="M204.62 61.9199L207.94 65.2399C207.94 65.2399 208.3 65.4499 208.01 66.0699C207.72 66.6899 207.1 66.4399 207.1 66.4399C207.1 66.4399 205.09 66.2899 202.66 63.8699" stroke="#C7C6C5" stroke-width="0.43" stroke-linecap="round" stroke-linejoin="round"/>
<path d="M208.09 65.4301C208.09 65.8401 206.79 65.9601 203.69 62.8501" stroke="#C7C6C5" stroke-width="0.43" stroke-linecap="round" stroke-linejoin="round"/>
<path d="M209.25 64.48L213.32 61.11C213.54 60.93 213.88 60.96 214.07 61.18L214.36 61.53C214.54 61.75 214.51 62.09 214.29 62.28L210.22 65.65C210 65.83 209.66 65.8 209.47 65.58L209.18 65.23C209 65.01 209.03 64.67 209.25 64.48Z" stroke="#C7C6C5" stroke-width="0.43" stroke-miterlimit="10"/>
<path d="M209.25 64.48L213.32 61.11C213.54 60.93 213.88 60.96 214.07 61.18L214.36 61.53C214.54 61.75 214.51 62.09 214.29 62.28L210.22 65.65C210 65.83 209.66 65.8 209.47 65.58L209.18 65.23C209 65.01 209.03 64.67 209.25 64.48Z" stroke="#C7C6C5" stroke-width="0.43" stroke-linecap="round" stroke-linejoin="round"/>
<path d="M244.46 33.1699H192.88V52.5699H244.46V33.1699Z" stroke="#C7C6C5" stroke-width="0.43" stroke-miterlimit="10"/>
<path d="M244.47 52.5798H230.77V75.5598H244.47V52.5798Z" stroke="#C7C6C5" stroke-width="0.43" stroke-miterlimit="10"/>
<path d="M139.2 201.93H161.71C162.1 201.93 162.42 202.25 162.42 202.64V213.86C162.42 214.25 162.1 214.57 161.71 214.57H139.2C138.81 214.57 138.49 214.25 138.49 213.86V202.64C138.49 202.25 138.81 201.93 139.2 201.93Z" stroke="#C7C6C5" stroke-width="0.43" stroke-linecap="round" stroke-linejoin="round"/>
<path d="M159.76 207.98C159.76 210.64 155.6 212.8 150.47 212.8C145.34 212.8 141.18 210.64 141.18 207.98C141.18 205.32 145.34 203.16 150.47 203.16C155.6 203.16 159.76 205.32 159.76 207.98Z" stroke="#C7C6C5" stroke-width="0.43" stroke-miterlimit="10"/>
<path d="M159.76 207.98C159.76 210.64 155.6 212.8 150.47 212.8C145.34 212.8 141.18 210.64 141.18 207.98C141.18 205.32 145.34 203.16 150.47 203.16C155.6 203.16 159.76 205.32 159.76 207.98Z" stroke="#C7C6C5" stroke-width="0.43" stroke-linecap="round" stroke-linejoin="round"/>
<path d="M148.12 213.02C148.12 213.44 147.78 213.77 147.37 213.77C146.96 213.77 146.62 213.43 146.62 213.02C146.62 212.61 146.96 212.27 147.37 212.27C147.78 212.27 148.12 212.61 148.12 213.02Z" stroke="#C7C6C5" stroke-width="0.43" stroke-miterlimit="10"/>
<path d="M147.37 213.77C147.784 213.77 148.12 213.434 148.12 213.02C148.12 212.606 147.784 212.27 147.37 212.27C146.956 212.27 146.62 212.606 146.62 213.02C146.62 213.434 146.956 213.77 147.37 213.77Z" stroke="#C7C6C5" stroke-width="0.43" stroke-linecap="round" stroke-linejoin="round"/>
<path d="M154.43 213.02C154.43 213.44 154.09 213.77 153.68 213.77C153.27 213.77 152.93 213.43 152.93 213.02C152.93 212.61 153.27 212.27 153.68 212.27C154.09 212.27 154.43 212.61 154.43 213.02Z" stroke="#C7C6C5" stroke-width="0.43" stroke-miterlimit="10"/>
<path d="M153.67 213.77C154.084 213.77 154.42 213.434 154.42 213.02C154.42 212.606 154.084 212.27 153.67 212.27C153.256 212.27 152.92 212.606 152.92 213.02C152.92 213.434 153.256 213.77 153.67 213.77Z" stroke="#C7C6C5" stroke-width="0.43" stroke-linecap="round" stroke-linejoin="round"/>
<path d="M150.9 210.66C150.9 210.42 150.71 210.23 150.47 210.23C150.23 210.23 150.04 210.42 150.04 210.66L149.91 212.99C149.91 213.3 150.16 213.55 150.48 213.55C150.8 213.55 151.05 213.3 151.05 212.99L150.92 210.66H150.9Z" stroke="#C7C6C5" stroke-width="0.43" stroke-miterlimit="10"/>
<path d="M150.9 210.66C150.9 210.42 150.71 210.23 150.47 210.23C150.23 210.23 150.04 210.42 150.04 210.66L149.91 212.99C149.91 213.3 150.16 213.55 150.48 213.55C150.8 213.55 151.05 213.3 151.05 212.99L150.92 210.66H150.9Z" stroke="#C7C6C5" stroke-width="0.43" stroke-linecap="round" stroke-linejoin="round"/>
<path d="M185.03 171.52H196.25C196.64 171.52 196.96 171.84 196.96 172.23V193.51C196.96 193.9 196.64 194.22 196.25 194.22H185.03C184.64 194.22 184.32 193.9 184.32 193.51V172.23C184.32 171.84 184.64 171.52 185.03 171.52Z" stroke="#C7C6C5" stroke-width="0.43" stroke-linecap="round" stroke-linejoin="round"/>
<path d="M190.92 192.13C188.26 192.13 186.1 187.97 186.1 182.84C186.1 177.71 188.26 173.55 190.92 173.55C193.58 173.55 195.74 177.71 195.74 182.84C195.74 187.97 193.58 192.13 190.92 192.13Z" stroke="#C7C6C5" stroke-width="0.43" stroke-miterlimit="10"/>
<path d="M190.92 192.13C188.26 192.13 186.1 187.97 186.1 182.84C186.1 177.71 188.26 173.55 190.92 173.55C193.58 173.55 195.74 177.71 195.74 182.84C195.74 187.97 193.58 192.13 190.92 192.13Z" stroke="#C7C6C5" stroke-width="0.43" stroke-linecap="round" stroke-linejoin="round"/>
<path d="M185.86 180.49C185.44 180.49 185.11 180.15 185.11 179.74C185.11 179.33 185.45 178.99 185.86 178.99C186.27 178.99 186.61 179.33 186.61 179.74C186.61 180.15 186.27 180.49 185.86 180.49Z" stroke="#C7C6C5" stroke-width="0.43" stroke-miterlimit="10"/>
<path d="M185.86 180.49C185.44 180.49 185.11 180.15 185.11 179.74C185.11 179.33 185.45 178.99 185.86 178.99C186.27 178.99 186.61 179.33 186.61 179.74C186.61 180.15 186.27 180.49 185.86 180.49Z" stroke="#C7C6C5" stroke-width="0.43" stroke-linecap="round" stroke-linejoin="round"/>
<path d="M185.86 186.8C185.44 186.8 185.11 186.46 185.11 186.05C185.11 185.64 185.45 185.3 185.86 185.3C186.27 185.3 186.61 185.64 186.61 186.05C186.61 186.46 186.27 186.8 185.86 186.8Z" stroke="#C7C6C5" stroke-width="0.43" stroke-miterlimit="10"/>
<path d="M185.86 186.8C185.44 186.8 185.11 186.46 185.11 186.05C185.11 185.64 185.45 185.3 185.86 185.3C186.27 185.3 186.61 185.64 186.61 186.05C186.61 186.46 186.27 186.8 185.86 186.8Z" stroke="#C7C6C5" stroke-width="0.43" stroke-linecap="round" stroke-linejoin="round"/>
<path d="M188.24 183.27C188.48 183.27 188.67 183.08 188.67 182.84C188.67 182.6 188.48 182.41 188.24 182.41L185.91 182.28C185.6 182.28 185.35 182.53 185.35 182.85C185.35 183.17 185.6 183.42 185.91 183.42L188.24 183.29V183.27Z" stroke="#C7C6C5" stroke-width="0.43" stroke-miterlimit="10"/>
<path d="M188.24 183.27C188.48 183.27 188.67 183.08 188.67 182.84C188.67 182.6 188.48 182.41 188.24 182.41L185.91 182.28C185.6 182.28 185.35 182.53 185.35 182.85C185.35 183.17 185.6 183.42 185.91 183.42L188.24 183.29V183.27Z" stroke="#C7C6C5" stroke-width="0.43" stroke-linecap="round" stroke-linejoin="round"/>
<path d="M138.49 201.89H122.71V214.61H138.49V201.89Z" stroke="#C7C6C5" stroke-width="0.43" stroke-linecap="round" stroke-linejoin="round"/>
<path d="M130.65 212.67C128.21 212.67 126.23 210.69 126.23 208.25C126.23 205.81 128.21 203.83 130.65 203.83C133.09 203.83 135.07 205.81 135.07 208.25C135.07 210.69 133.09 212.67 130.65 212.67Z" stroke="#C7C6C5" stroke-width="0.43" stroke-linecap="round" stroke-linejoin="round"/>
<path d="M130.65 212.67C132.91 212.67 134.22 210.83 134.22 208.57C134.22 206.76 132.75 205.29 130.94 205.29C129.49 205.29 128.32 206.46 128.32 207.91C128.32 209.07 129.26 210.01 130.42 210.01C131.35 210.01 132.1 209.26 132.1 208.33C132.1 207.59 131.5 206.99 130.76 206.99C130.17 206.99 129.68 207.47 129.68 208.07C129.68 208.54 130.06 208.93 130.54 208.93C130.92 208.93 131.23 208.62 131.23 208.24C131.23 207.94 130.98 207.69 130.68 207.69C130.44 207.69 130.24 207.89 130.24 208.13" stroke="#C7C6C5" stroke-width="0.43" stroke-linecap="round" stroke-linejoin="round"/>
<path d="M130.65 208.87C130.99 208.87 131.27 208.59 131.27 208.25C131.27 207.91 130.99 207.63 130.65 207.63C130.31 207.63 130.03 207.91 130.03 208.25C130.03 208.59 130.31 208.87 130.65 208.87Z" fill="#C7C6C5"/>
<path d="M276.92 39.6699H297.43C297.81 39.6699 298.12 39.9799 298.12 40.3599V57.3699C298.12 57.7499 297.81 58.0599 297.43 58.0599H276.92C276.54 58.0599 276.23 57.7499 276.23 57.3699V40.3499C276.23 39.9699 276.54 39.6599 276.92 39.6599V39.6699Z" stroke="#C7C6C5" stroke-width="0.43" stroke-miterlimit="10"/>
<path d="M276.92 39.6699H297.43C297.81 39.6699 298.12 39.9799 298.12 40.3599V57.3699C298.12 57.7499 297.81 58.0599 297.43 58.0599H276.92C276.54 58.0599 276.23 57.7499 276.23 57.3699V40.3499C276.23 39.9699 276.54 39.6599 276.92 39.6599V39.6699Z" stroke="#C7C6C5" stroke-width="0.43" stroke-miterlimit="10"/>
<path d="M298.12 36.5699C298.12 36.1899 297.81 35.8799 297.43 35.8799H276.92C276.54 35.8799 276.23 36.1899 276.23 36.5699V38.9699C276.23 39.3499 276.54 39.6599 276.92 39.6599H297.43C297.81 39.6599 298.12 39.3499 298.12 38.9699V36.5699Z" stroke="#C7C6C5" stroke-width="0.43" stroke-miterlimit="10"/>
<path d="M298.12 36.5699C298.12 36.1899 297.81 35.8799 297.43 35.8799H276.92C276.54 35.8799 276.23 36.1899 276.23 36.5699V38.9699C276.23 39.3499 276.54 39.6599 276.92 39.6599H297.43C297.81 39.6599 298.12 39.3499 298.12 38.9699V36.5699Z" stroke="#C7C6C5" stroke-width="0.43" stroke-miterlimit="10"/>
<path d="M275.54 35.8799H255.03C254.65 35.8799 254.34 36.1899 254.34 36.5699V57.3599C254.34 57.7399 254.65 58.0499 255.03 58.0499H257.42C257.8 58.0499 258.11 57.7399 258.11 57.3599V39.6599H275.53C275.91 39.6599 276.22 39.3499 276.22 38.9699V36.5699C276.22 36.1899 275.91 35.8799 275.53 35.8799" stroke="#C7C6C5" stroke-width="0.43" stroke-miterlimit="10"/>
<path d="M275.54 35.8799H255.03C254.65 35.8799 254.34 36.1899 254.34 36.5699V57.3599C254.34 57.7399 254.65 58.0499 255.03 58.0499H257.42C257.8 58.0499 258.11 57.7399 258.11 57.3599V39.6599H275.53C275.91 39.6599 276.22 39.3499 276.22 38.9699V36.5699C276.22 36.1899 275.91 35.8799 275.53 35.8799H275.54Z" stroke="#C7C6C5" stroke-width="0.43" stroke-miterlimit="10"/>
<path d="M298.12 33.8899C298.12 33.5099 297.81 33.2 297.43 33.2H276.92C276.54 33.2 276.23 33.5099 276.23 33.8899V35.1899C276.23 35.5699 276.54 35.88 276.92 35.88H297.43C297.81 35.88 298.12 35.5699 298.12 35.1899V33.8899Z" stroke="#C7C6C5" stroke-width="0.43" stroke-miterlimit="10"/>
<path d="M298.12 33.8899C298.12 33.5099 297.81 33.2 297.43 33.2H276.92C276.54 33.2 276.23 33.5099 276.23 33.8899V35.1899C276.23 35.5699 276.54 35.88 276.92 35.88H297.43C297.81 35.88 298.12 35.5699 298.12 35.1899V33.8899Z" stroke="#C7C6C5" stroke-width="0.43" stroke-miterlimit="10"/>
<path d="M258.78 79.9401C258.4 79.9401 258.09 79.63 258.09 79.25V58.7401C258.09 58.3601 258.4 58.05 258.78 58.05H275.55C275.93 58.05 276.24 58.3601 276.24 58.7401V79.25C276.24 79.63 275.93 79.9401 275.55 79.9401H258.78Z" stroke="#C7C6C5" stroke-width="0.43" stroke-miterlimit="10"/>
<path d="M258.78 79.9401C258.4 79.9401 258.09 79.63 258.09 79.25V58.7401C258.09 58.3601 258.4 58.05 258.78 58.05H275.55C275.93 58.05 276.24 58.3601 276.24 58.7401V79.25C276.24 79.63 275.93 79.9401 275.55 79.9401H258.78Z" stroke="#C7C6C5" stroke-width="0.43" stroke-miterlimit="10"/>
<path d="M255 58.05H257.4C257.78 58.05 258.09 58.3601 258.09 58.7401V79.25C258.09 79.63 257.78 79.9401 257.4 79.9401H255C254.62 79.9401 254.31 79.63 254.31 79.25V58.7401C254.31 58.3601 254.62 58.05 255 58.05Z" stroke="#C7C6C5" stroke-width="0.43" stroke-miterlimit="10"/>
<path d="M255 58.05H257.4C257.78 58.05 258.09 58.3601 258.09 58.7401V79.25C258.09 79.63 257.78 79.9401 257.4 79.9401H255C254.62 79.9401 254.31 79.63 254.31 79.25V58.7401C254.31 58.3601 254.62 58.05 255 58.05Z" stroke="#C7C6C5" stroke-width="0.43" stroke-miterlimit="10"/>
<path d="M252.19 58.05H253.62C254 58.05 254.31 58.3601 254.31 58.7401V79.25C254.31 79.63 254 79.9401 253.62 79.9401H252.19C251.81 79.9401 251.5 79.63 251.5 79.25V58.7401C251.5 58.3601 251.81 58.05 252.19 58.05Z" stroke="#C7C6C5" stroke-width="0.43" stroke-miterlimit="10"/>
<path d="M252.19 58.05H253.62C254 58.05 254.31 58.3601 254.31 58.7401V79.25C254.31 79.63 254 79.9401 253.62 79.9401H252.19C251.81 79.9401 251.5 79.63 251.5 79.25V58.7401C251.5 58.3601 251.81 58.05 252.19 58.05Z" stroke="#C7C6C5" stroke-width="0.43" stroke-miterlimit="10"/>
<path d="M275.54 33.2H252.19C251.81 33.2 251.5 33.5099 251.5 33.8899V57.36C251.5 57.74 251.81 58.0499 252.19 58.0499H253.49C253.87 58.0499 254.34 57.74 254.34 57.36V35.88H275.54C275.92 35.88 276.23 35.5699 276.23 35.1899V33.8899C276.23 33.5099 275.92 33.2 275.54 33.2Z" stroke="#C7C6C5" stroke-width="0.43" stroke-miterlimit="10"/>
<path d="M275.54 33.2H252.19C251.81 33.2 251.5 33.5099 251.5 33.8899V57.36C251.5 57.74 251.81 58.0499 252.19 58.0499H253.49C253.87 58.0499 254.34 57.74 254.34 57.36V35.88H275.54C275.92 35.88 276.23 35.5699 276.23 35.1899V33.8899C276.23 33.5099 275.92 33.2 275.54 33.2Z" stroke="#C7C6C5" stroke-width="0.43" stroke-miterlimit="10"/>
<path d="M258.12 39.67L254.69 36.22" stroke="#C7C6C5" stroke-width="0.43" stroke-miterlimit="10"/>
<path d="M276.23 57.3599C276.23 57.7399 275.92 58.0499 275.54 58.0499H258.81C258.43 58.0499 258.12 57.7399 258.12 57.3599V40.3499C258.12 39.9699 258.43 39.6599 258.81 39.6599H275.54C275.92 39.6599 276.23 39.9699 276.23 40.3499V57.3599Z" stroke="#C7C6C5" stroke-width="0.43" stroke-miterlimit="10"/>
<path d="M276.23 57.3599C276.23 57.7399 275.92 58.0499 275.54 58.0499H258.81C258.43 58.0499 258.12 57.7399 258.12 57.3599V40.3499C258.12 39.9699 258.43 39.6599 258.81 39.6599H275.54C275.92 39.6599 276.23 39.9699 276.23 40.3499V57.3599Z" stroke="#C7C6C5" stroke-width="0.43" stroke-miterlimit="10"/>
<path d="M275.54 102.11H255.03C254.65 102.11 254.34 101.8 254.34 101.42V80.6299C254.34 80.2499 254.65 79.9399 255.03 79.9399H257.42C257.8 79.9399 258.11 80.2499 258.11 80.6299V98.3299H275.53C275.91 98.3299 276.22 98.6399 276.22 99.0199V101.42C276.22 101.8 275.91 102.11 275.53 102.11" stroke="#C7C6C5" stroke-width="0.43" stroke-miterlimit="10"/>
<path d="M275.54 102.11H255.03C254.65 102.11 254.34 101.8 254.34 101.42V80.6299C254.34 80.2499 254.65 79.9399 255.03 79.9399H257.42C257.8 79.9399 258.11 80.2499 258.11 80.6299V98.3299H275.53C275.91 98.3299 276.22 98.6399 276.22 99.0199V101.42C276.22 101.8 275.91 102.11 275.53 102.11H275.54Z" stroke="#C7C6C5" stroke-width="0.43" stroke-miterlimit="10"/>
<path d="M275.54 104.79H252.19C251.81 104.79 251.5 104.48 251.5 104.1V80.6299C251.5 80.2499 251.81 79.9399 252.19 79.9399H253.49C253.87 79.9399 254.34 80.2499 254.34 80.6299V102.11H275.54C275.92 102.11 276.23 102.42 276.23 102.8V104.1C276.23 104.48 275.92 104.79 275.54 104.79Z" stroke="#C7C6C5" stroke-width="0.43" stroke-miterlimit="10"/>
<path d="M275.54 104.79H252.19C251.81 104.79 251.5 104.48 251.5 104.1V80.6299C251.5 80.2499 251.81 79.9399 252.19 79.9399H253.49C253.87 79.9399 254.34 80.2499 254.34 80.6299V102.11H275.54C275.92 102.11 276.23 102.42 276.23 102.8V104.1C276.23 104.48 275.92 104.79 275.54 104.79Z" stroke="#C7C6C5" stroke-width="0.43" stroke-miterlimit="10"/>
<path d="M258.12 98.3499L254.69 101.79" stroke="#C7C6C5" stroke-width="0.43" stroke-miterlimit="10"/>
<path d="M258.81 79.9399H275.54C275.92 79.9399 276.23 80.2499 276.23 80.6299V97.6399C276.23 98.0199 275.92 98.3299 275.54 98.3299H258.81C258.43 98.3299 258.12 98.0199 258.12 97.6399V80.6199C258.12 80.2399 258.43 79.9299 258.81 79.9299V79.9399Z" stroke="#C7C6C5" stroke-width="0.43" stroke-miterlimit="10"/>
<path d="M258.81 79.9399H275.54C275.92 79.9399 276.23 80.2499 276.23 80.6299V97.6399C276.23 98.0199 275.92 98.3299 275.54 98.3299H258.81C258.43 98.3299 258.12 98.0199 258.12 97.6399V80.6199C258.12 80.2399 258.43 79.9299 258.81 79.9299V79.9399Z" stroke="#C7C6C5" stroke-width="0.43" stroke-miterlimit="10"/>
<path d="M102.64 118.63H52.34V129.68H102.64V118.63Z" stroke="#C7C6C5" stroke-width="0.43" stroke-miterlimit="10"/>
<path d="M102.64 118.63H52.34V129.68H102.64V118.63Z" stroke="#C7C6C5" stroke-width="0.43" stroke-miterlimit="10"/>
<path d="M71.87 123.85L64.96 120.73L64.65 121.42L74.27 127.21V127.92C74.27 127.92 74.3 128.48 74.83 128.48H80.14C80.67 128.48 80.7 127.92 80.7 127.92V127.21L90.32 121.42L90.01 120.73L83.1 123.85H71.85H71.87Z" stroke="#C7C6C5" stroke-width="0.43" stroke-miterlimit="10"/>
<path d="M71.87 123.85L64.96 120.73L64.65 121.42L74.27 127.21V127.92C74.27 127.92 74.3 128.48 74.83 128.48H80.14C80.67 128.48 80.7 127.92 80.7 127.92V127.21L90.32 121.42L90.01 120.73L83.1 123.85H71.85H71.87Z" stroke="#C7C6C5" stroke-width="0.43" stroke-miterlimit="10"/>
<path d="M97.84 123.85H57.15V124.79H97.84V123.85Z" stroke="#C7C6C5" stroke-width="0.43" stroke-miterlimit="10"/>
<path d="M97.84 123.85H57.15V124.79H97.84V123.85Z" stroke="#C7C6C5" stroke-width="0.43" stroke-miterlimit="10"/>
<path d="M85.98 124.79C84.89 124.79 84.98 125.76 83.76 125.76H71.23C70.01 125.76 70.11 124.79 69.01 124.79H85.98Z" stroke="#C7C6C5" stroke-width="0.43" stroke-miterlimit="10"/>
<path d="M85.98 124.79C84.89 124.79 84.98 125.76 83.76 125.76H71.23C70.01 125.76 70.11 124.79 69.01 124.79H85.98Z" stroke="#C7C6C5" stroke-width="0.43" stroke-miterlimit="10"/>
<path d="M346.68 33.2H335.63V102.29H346.68V33.2Z" stroke="#C7C6C5" stroke-width="0.43" stroke-linecap="round" stroke-linejoin="round"/>
<path d="M340.84 73.3699L337.72 80.2799L338.41 80.5899L344.2 70.9699H344.91C344.91 70.9699 345.47 70.9399 345.47 70.4099V65.0999C345.47 64.5699 344.91 64.5399 344.91 64.5399H344.2L338.41 54.9199L337.72 55.2299L340.84 62.1399V73.3899V73.3699Z" stroke="#C7C6C5" stroke-width="0.43" stroke-miterlimit="10"/>
<path d="M340.84 73.3699L337.72 80.2799L338.41 80.5899L344.2 70.9699H344.91C344.91 70.9699 345.47 70.9399 345.47 70.4099V65.0999C345.47 64.5699 344.91 64.5399 344.91 64.5399H344.2L338.41 54.9199L337.72 55.2299L340.84 62.1399V73.3899V73.3699Z" stroke="#C7C6C5" stroke-width="0.43" stroke-miterlimit="10"/>
<path d="M341.78 47.4099H340.84V88.0999H341.78V47.4099Z" stroke="#C7C6C5" stroke-width="0.43" stroke-miterlimit="10"/>
<path d="M341.78 47.4099H340.84V88.0999H341.78V47.4099Z" stroke="#C7C6C5" stroke-width="0.43" stroke-miterlimit="10"/>
<path d="M341.78 59.26C341.78 60.35 342.75 60.26 342.75 61.48V74.01C342.75 75.23 341.78 75.13 341.78 76.23V59.27V59.26Z" stroke="#C7C6C5" stroke-width="0.43" stroke-miterlimit="10"/>
<path d="M341.78 59.26C341.78 60.35 342.75 60.26 342.75 61.48V74.01C342.75 75.23 341.78 75.13 341.78 76.23V59.27V59.26Z" stroke="#C7C6C5" stroke-width="0.43" stroke-miterlimit="10"/>
<path d="M346.86 131.86H329.26V148.83H346.86V131.86Z" stroke="#C7C6C5" stroke-width="0.43" stroke-miterlimit="10"/>
<path d="M336.51 141.63L339.26 138.88" stroke="#C7C6C5" stroke-width="0.43" stroke-miterlimit="10" stroke-linecap="round"/>
<path d="M339.26 141.63L336.51 138.88" stroke="#C7C6C5" stroke-width="0.43" stroke-miterlimit="10" stroke-linecap="round"/>
<path d="M341.13 140.26H334.63" stroke="#C7C6C5" stroke-width="0.43" stroke-miterlimit="10" stroke-linecap="round"/>
<path d="M337.88 137.01V143.51" stroke="#C7C6C5" stroke-width="0.43" stroke-miterlimit="10" stroke-linecap="round"/>
<path d="M346.75 148.83H329.13V166.92H346.75V148.83Z" stroke="#C7C6C5" stroke-width="0.43" stroke-miterlimit="10"/>
<path d="M294.05 184.54H280.06V202.16H294.05V184.54Z" stroke="#C7C6C5" stroke-width="0.43" stroke-miterlimit="10"/>
<path d="M311.51 184.54H294.05V202.16H311.51V184.54Z" stroke="#C7C6C5" stroke-width="0.43" stroke-miterlimit="10"/>
<path d="M346.75 184.54H311.51V202.16H346.75V184.54Z" stroke="#C7C6C5" stroke-width="0.43" stroke-miterlimit="10"/>
<path d="M298.84 200.32C300.287 200.32 301.46 199.147 301.46 197.7C301.46 196.253 300.287 195.08 298.84 195.08C297.393 195.08 296.22 196.253 296.22 197.7C296.22 199.147 297.393 200.32 298.84 200.32Z" stroke="#C7C6C5" stroke-width="0.43" stroke-miterlimit="10"/>
<path d="M298.84 191.73C300.287 191.73 301.46 190.557 301.46 189.11C301.46 187.663 300.287 186.49 298.84 186.49C297.393 186.49 296.22 187.663 296.22 189.11C296.22 190.557 297.393 191.73 298.84 191.73Z" stroke="#C7C6C5" stroke-width="0.43" stroke-miterlimit="10"/>
<path d="M306.75 200.32C308.197 200.32 309.37 199.147 309.37 197.7C309.37 196.253 308.197 195.08 306.75 195.08C305.303 195.08 304.13 196.253 304.13 197.7C304.13 199.147 305.303 200.32 306.75 200.32Z" stroke="#C7C6C5" stroke-width="0.43" stroke-miterlimit="10"/>
<path d="M306.75 191.73C308.197 191.73 309.37 190.557 309.37 189.11C309.37 187.663 308.197 186.49 306.75 186.49C305.303 186.49 304.13 187.663 304.13 189.11C304.13 190.557 305.303 191.73 306.75 191.73Z" stroke="#C7C6C5" stroke-width="0.43" stroke-miterlimit="10"/>
<path d="M346.76 166.92H329.14V184.54H346.76V166.92Z" stroke="#C7C6C5" stroke-width="0.43" stroke-miterlimit="10"/>
<path d="M346.76 166.92H329.14V184.54H346.76V166.92Z" stroke="#C7C6C5" stroke-width="0.43" stroke-miterlimit="10"/>
<path d="M330.66 170.04C330.66 169.14 331.39 168.42 332.28 168.42H343.6C344.5 168.42 345.22 169.15 345.22 170.04V181.42C345.22 182.32 344.49 183.04 343.6 183.04H332.28C331.38 183.04 330.66 182.31 330.66 181.42V170.04Z" stroke="#C7C6C5" stroke-width="0.43" stroke-miterlimit="10"/>
<path d="M330.66 170.04C330.66 169.14 331.39 168.42 332.28 168.42H343.6C344.5 168.42 345.22 169.15 345.22 170.04V181.42C345.22 182.32 344.49 183.04 343.6 183.04H332.28C331.38 183.04 330.66 182.31 330.66 181.42V170.04Z" stroke="#C7C6C5" stroke-width="0.43" stroke-miterlimit="10"/>
<path d="M342.08 180.8C342.08 180.28 342.51 179.85 343.03 179.85C343.55 179.85 343.98 180.27 343.98 180.8C343.98 181.33 343.56 181.75 343.03 181.75C342.5 181.75 342.08 181.33 342.08 180.8Z" stroke="#C7C6C5" stroke-width="0.43" stroke-miterlimit="10"/>
<path d="M345.81 175.01H340.43V176.44H345.81V175.01Z" stroke="#C7C6C5" stroke-width="0.43" stroke-miterlimit="10"/>
<path d="M308.76 71.1701V70.4501L311.52 66.8401H312.63L309.91 70.4501L309.39 70.2901H313.83V71.1701H308.76ZM311.83 72.4401V71.1701L311.86 70.2901V69.1601H312.84V72.4401H311.83Z" fill="#C42F20"/>
<path d="M316.13 72.5201C315.74 72.5201 315.35 72.4601 314.97 72.3501C314.59 72.2301 314.28 72.0801 314.02 71.8701L314.46 71.0601C314.66 71.2301 314.91 71.3601 315.2 71.4601C315.49 71.5601 315.79 71.6101 316.11 71.6101C316.48 71.6101 316.77 71.5301 316.98 71.3801C317.19 71.2201 317.3 71.0201 317.3 70.7601C317.3 70.5801 317.26 70.4301 317.17 70.3001C317.08 70.1701 316.93 70.0601 316.71 70.0001C316.49 69.9301 316.19 69.9001 315.8 69.9001H314.45L314.74 66.8501H318.03V67.7201H315.13L315.67 67.2201L315.45 69.5001L314.91 69.0101H316.04C316.59 69.0101 317.04 69.0801 317.38 69.2301C317.72 69.3801 317.97 69.5801 318.12 69.8401C318.28 70.1001 318.36 70.3901 318.36 70.7201C318.36 71.0501 318.28 71.3401 318.12 71.6201C317.96 71.8901 317.72 72.1101 317.39 72.2801C317.06 72.4501 316.65 72.5301 316.15 72.5301L316.13 72.5201Z" fill="#C42F20"/>
<path d="M318.99 73.6499L319.45 71.8799L319.59 72.4699C319.4 72.4699 319.25 72.4099 319.12 72.2999C318.99 72.1799 318.93 72.0299 318.93 71.8299C318.93 71.6299 318.99 71.4699 319.12 71.3499C319.24 71.2299 319.4 71.1699 319.58 71.1699C319.76 71.1699 319.92 71.2299 320.04 71.3499C320.16 71.4699 320.22 71.6299 320.22 71.8299C320.22 71.8799 320.22 71.9399 320.2 71.9999C320.19 72.0599 320.17 72.1299 320.15 72.2099C320.13 72.2899 320.09 72.3899 320.03 72.5099L319.62 73.6399H318.97L318.99 73.6499Z" fill="#C42F20"/>
<path d="M321.71 72.4401L324.02 67.2601L324.29 67.7201H321.11L321.61 67.2201V68.6801H320.64V66.8501H324.99V67.5501L322.81 72.4501H321.7L321.71 72.4401Z" fill="#C42F20"/>
<path d="M325.57 72.44V71.74L327.79 69.63C327.98 69.45 328.12 69.3 328.21 69.17C328.3 69.04 328.36 68.91 328.39 68.8C328.42 68.68 328.43 68.58 328.43 68.48C328.43 68.22 328.34 68.02 328.17 67.88C327.99 67.74 327.74 67.67 327.39 67.67C327.12 67.67 326.87 67.72 326.65 67.81C326.43 67.91 326.24 68.05 326.08 68.25L325.35 67.69C325.57 67.4 325.86 67.17 326.23 67.01C326.6 66.85 327.02 66.77 327.47 66.77C327.88 66.77 328.23 66.84 328.53 66.97C328.83 67.1 329.06 67.29 329.23 67.53C329.39 67.77 329.47 68.06 329.47 68.39C329.47 68.57 329.45 68.75 329.4 68.93C329.35 69.11 329.26 69.3 329.13 69.49C329 69.69 328.8 69.91 328.55 70.15L326.64 71.97L326.42 71.58H329.69V72.46H325.56L325.57 72.44Z" fill="#C42F20"/>
<path d="M311.27 81.97C310.76 81.97 310.33 81.86 309.97 81.65C309.61 81.44 309.33 81.12 309.14 80.71C308.95 80.3 308.85 79.79 308.85 79.19C308.85 78.55 308.97 78.01 309.2 77.57C309.43 77.13 309.75 76.79 310.17 76.56C310.58 76.33 311.06 76.22 311.6 76.22C311.88 76.22 312.15 76.25 312.41 76.31C312.67 76.37 312.89 76.46 313.07 76.58L312.69 77.36C312.54 77.26 312.37 77.19 312.19 77.15C312.01 77.11 311.82 77.09 311.63 77.09C311.1 77.09 310.68 77.25 310.37 77.58C310.06 77.91 309.91 78.39 309.91 79.02C309.91 79.12 309.91 79.24 309.91 79.38C309.91 79.52 309.93 79.65 309.97 79.79L309.65 79.44C309.75 79.22 309.88 79.04 310.05 78.89C310.22 78.74 310.42 78.63 310.65 78.56C310.88 78.48 311.13 78.45 311.41 78.45C311.78 78.45 312.11 78.52 312.39 78.66C312.68 78.8 312.91 79 313.08 79.26C313.25 79.52 313.34 79.82 313.34 80.17C313.34 80.54 313.25 80.86 313.07 81.13C312.89 81.4 312.64 81.61 312.33 81.76C312.02 81.91 311.67 81.98 311.29 81.98L311.27 81.97ZM311.21 81.15C311.42 81.15 311.61 81.11 311.78 81.03C311.95 80.95 312.07 80.84 312.17 80.7C312.26 80.56 312.31 80.39 312.31 80.2C312.31 79.91 312.21 79.68 312.01 79.5C311.81 79.32 311.54 79.24 311.19 79.24C310.97 79.24 310.77 79.28 310.6 79.36C310.43 79.44 310.3 79.56 310.2 79.7C310.1 79.84 310.05 80.01 310.05 80.2C310.05 80.37 310.1 80.53 310.19 80.67C310.28 80.81 310.41 80.93 310.59 81.01C310.76 81.1 310.97 81.14 311.22 81.14L311.21 81.15Z" fill="#C42F20"/>
<path d="M315.75 76.22C316.26 76.22 316.7 76.33 317.06 76.54C317.42 76.76 317.7 77.07 317.89 77.48C318.08 77.89 318.18 78.4 318.18 79C318.18 79.64 318.06 80.18 317.83 80.62C317.6 81.06 317.28 81.4 316.87 81.63C316.46 81.86 315.98 81.97 315.44 81.97C315.16 81.97 314.89 81.94 314.63 81.88C314.37 81.82 314.15 81.73 313.97 81.61L314.35 80.83C314.51 80.93 314.67 81 314.85 81.04C315.03 81.08 315.22 81.1 315.41 81.1C315.94 81.1 316.36 80.94 316.67 80.61C316.98 80.28 317.13 79.81 317.13 79.17C317.13 79.07 317.13 78.95 317.13 78.81C317.13 78.67 317.11 78.54 317.07 78.4L317.39 78.75C317.3 78.97 317.17 79.15 317 79.3C316.83 79.45 316.63 79.56 316.4 79.63C316.17 79.7 315.92 79.74 315.64 79.74C315.28 79.74 314.95 79.67 314.66 79.53C314.37 79.39 314.14 79.19 313.97 78.93C313.8 78.67 313.71 78.37 313.71 78.02C313.71 77.65 313.8 77.33 313.98 77.06C314.16 76.79 314.41 76.58 314.72 76.43C315.03 76.28 315.38 76.21 315.76 76.21L315.75 76.22ZM315.81 77.04C315.6 77.04 315.41 77.08 315.24 77.16C315.07 77.24 314.95 77.35 314.85 77.49C314.76 77.63 314.71 77.8 314.71 78C314.71 78.29 314.81 78.53 315.01 78.7C315.21 78.87 315.48 78.96 315.83 78.96C316.05 78.96 316.25 78.92 316.42 78.84C316.59 78.76 316.72 78.64 316.82 78.5C316.92 78.35 316.96 78.19 316.96 78.01C316.96 77.83 316.92 77.68 316.82 77.53C316.73 77.39 316.6 77.28 316.43 77.19C316.26 77.11 316.05 77.06 315.8 77.06L315.81 77.04Z" fill="#C42F20"/>
<path d="M318.82 83.0999L319.28 81.3299L319.42 81.9199C319.23 81.9199 319.08 81.8599 318.95 81.7499C318.82 81.6299 318.76 81.4799 318.76 81.2799C318.76 81.0799 318.82 80.9199 318.95 80.7999C319.07 80.6799 319.23 80.6199 319.41 80.6199C319.59 80.6199 319.75 80.6799 319.87 80.7999C319.99 80.9199 320.05 81.0799 320.05 81.2799C320.05 81.3299 320.05 81.3899 320.03 81.4499C320.02 81.5099 320 81.5799 319.98 81.6599C319.96 81.7399 319.92 81.8399 319.86 81.9599L319.45 83.0899H318.8L318.82 83.0999Z" fill="#C42F20"/>
<path d="M323.06 81.97C322.6 81.97 322.19 81.9 321.85 81.76C321.51 81.62 321.24 81.43 321.06 81.17C320.87 80.92 320.78 80.62 320.78 80.28C320.78 79.94 320.87 79.65 321.05 79.42C321.23 79.18 321.49 79.01 321.83 78.88C322.17 78.76 322.58 78.7 323.05 78.7C323.52 78.7 323.93 78.76 324.28 78.88C324.62 79 324.89 79.18 325.07 79.42C325.25 79.66 325.35 79.94 325.35 80.28C325.35 80.62 325.26 80.92 325.07 81.17C324.88 81.42 324.61 81.62 324.27 81.76C323.93 81.9 323.52 81.97 323.06 81.97ZM323.06 79.24C322.63 79.24 322.26 79.18 321.95 79.07C321.64 78.96 321.4 78.79 321.23 78.57C321.06 78.35 320.98 78.08 320.98 77.77C320.98 77.46 321.07 77.17 321.24 76.94C321.41 76.71 321.66 76.53 321.97 76.4C322.28 76.27 322.65 76.21 323.06 76.21C323.47 76.21 323.84 76.27 324.16 76.4C324.48 76.53 324.72 76.71 324.9 76.94C325.08 77.17 325.16 77.45 325.16 77.77C325.16 78.09 325.08 78.35 324.91 78.57C324.74 78.79 324.5 78.96 324.19 79.07C323.88 79.19 323.5 79.24 323.07 79.24H323.06ZM323.06 81.15C323.44 81.15 323.75 81.07 323.97 80.91C324.19 80.75 324.31 80.53 324.31 80.25C324.31 79.97 324.2 79.75 323.97 79.59C323.74 79.43 323.44 79.35 323.06 79.35C322.68 79.35 322.37 79.43 322.16 79.59C321.95 79.75 321.83 79.97 321.83 80.25C321.83 80.53 321.94 80.75 322.16 80.91C322.38 81.07 322.68 81.15 323.06 81.15ZM323.06 78.6C323.39 78.6 323.65 78.53 323.84 78.39C324.03 78.25 324.13 78.06 324.13 77.82C324.13 77.58 324.03 77.37 323.83 77.24C323.63 77.11 323.37 77.03 323.05 77.03C322.73 77.03 322.47 77.1 322.28 77.24C322.09 77.38 321.99 77.57 321.99 77.82C321.99 78.07 322.08 78.25 322.27 78.39C322.46 78.53 322.72 78.6 323.04 78.6H323.06Z" fill="#C42F20"/>
<path d="M328.45 81.97C327.94 81.97 327.51 81.86 327.15 81.65C326.79 81.44 326.51 81.12 326.32 80.71C326.13 80.3 326.03 79.79 326.03 79.19C326.03 78.55 326.15 78.01 326.38 77.57C326.61 77.13 326.93 76.79 327.35 76.56C327.76 76.33 328.24 76.22 328.78 76.22C329.06 76.22 329.33 76.25 329.59 76.31C329.85 76.37 330.07 76.46 330.25 76.58L329.87 77.36C329.72 77.26 329.55 77.19 329.37 77.15C329.19 77.11 329 77.09 328.81 77.09C328.28 77.09 327.86 77.25 327.55 77.58C327.24 77.91 327.09 78.39 327.09 79.02C327.09 79.12 327.09 79.24 327.09 79.38C327.09 79.52 327.11 79.65 327.15 79.79L326.83 79.44C326.93 79.22 327.06 79.04 327.23 78.89C327.4 78.74 327.6 78.63 327.83 78.56C328.06 78.48 328.31 78.45 328.59 78.45C328.96 78.45 329.29 78.52 329.57 78.66C329.86 78.8 330.09 79 330.26 79.26C330.43 79.52 330.52 79.82 330.52 80.17C330.52 80.54 330.43 80.86 330.25 81.13C330.07 81.4 329.82 81.61 329.51 81.76C329.2 81.91 328.85 81.98 328.47 81.98L328.45 81.97ZM328.39 81.15C328.6 81.15 328.79 81.11 328.96 81.03C329.13 80.95 329.25 80.84 329.35 80.7C329.44 80.56 329.49 80.39 329.49 80.2C329.49 79.91 329.39 79.68 329.19 79.5C328.99 79.32 328.72 79.24 328.37 79.24C328.15 79.24 327.95 79.28 327.78 79.36C327.61 79.44 327.48 79.56 327.38 79.7C327.28 79.84 327.23 80.01 327.23 80.2C327.23 80.37 327.28 80.53 327.37 80.67C327.46 80.81 327.59 80.93 327.77 81.01C327.94 81.1 328.15 81.14 328.4 81.14L328.39 81.15Z" fill="#C42F20"/>
<path d="M276.25 83.82C275.67 83.82 275.09 83.74 274.51 83.59C273.93 83.43 273.45 83.21 273.05 82.92L273.81 81.43C274.13 81.66 274.5 81.85 274.93 81.98C275.35 82.12 275.78 82.18 276.21 82.18C276.7 82.18 277.08 82.08 277.36 81.89C277.64 81.7 277.78 81.43 277.78 81.1C277.78 80.77 277.66 80.53 277.41 80.34C277.16 80.16 276.76 80.06 276.21 80.06H275.32V78.78L277.66 76.13L277.88 76.83H273.48V75.27H279.36V76.53L277.03 79.18L276.05 78.62H276.61C277.64 78.62 278.42 78.85 278.95 79.32C279.48 79.78 279.74 80.38 279.74 81.11C279.74 81.58 279.62 82.02 279.37 82.44C279.12 82.86 278.74 83.19 278.23 83.44C277.72 83.69 277.06 83.82 276.26 83.82H276.25Z" fill="#C42F20"/>
<path d="M280.26 83.68L284 75.28H285.92L289.68 83.68H287.64L284.57 76.26H285.34L282.26 83.68H280.27H280.26ZM282.13 81.88L282.65 80.4H286.97L287.5 81.88H282.14H282.13Z" fill="#C42F20"/>
<path d="M290.1 81.05V79.55H293.5V81.05H290.1Z" fill="#C42F20"/>
<path d="M298.38 83.8201C297.61 83.8201 296.95 83.6601 296.38 83.3401C295.81 83.0201 295.38 82.5501 295.08 81.9401C294.78 81.3201 294.62 80.5601 294.62 79.6601C294.62 78.6901 294.8 77.8701 295.17 77.2001C295.53 76.5301 296.04 76.0201 296.68 75.6601C297.32 75.3101 298.07 75.1301 298.91 75.1301C299.36 75.1301 299.79 75.1801 300.2 75.2701C300.61 75.3701 300.96 75.5101 301.25 75.7001L300.53 77.1301C300.3 76.9701 300.05 76.8601 299.79 76.8001C299.53 76.7401 299.25 76.7101 298.96 76.7101C298.23 76.7101 297.66 76.9301 297.23 77.3701C296.81 77.8101 296.59 78.4601 296.59 79.3301C296.59 79.4701 296.59 79.6301 296.59 79.8101C296.59 79.9901 296.62 80.1601 296.66 80.3401L296.12 79.8401C296.27 79.5301 296.47 79.2701 296.71 79.0501C296.95 78.8301 297.24 78.6801 297.57 78.5701C297.9 78.4601 298.27 78.4101 298.67 78.4101C299.21 78.4101 299.7 78.5201 300.13 78.7301C300.56 78.9501 300.91 79.2501 301.17 79.6401C301.43 80.0301 301.56 80.4901 301.56 81.0201C301.56 81.5901 301.42 82.0801 301.13 82.5001C300.85 82.9201 300.47 83.2401 299.99 83.4701C299.51 83.7001 298.98 83.8101 298.38 83.8101V83.8201ZM298.27 82.3701C298.54 82.3701 298.78 82.3201 298.99 82.2201C299.2 82.1201 299.37 81.9701 299.49 81.7801C299.61 81.5901 299.67 81.3701 299.67 81.1201C299.67 80.7401 299.54 80.4301 299.28 80.2001C299.02 79.9701 298.67 79.8601 298.24 79.8601C297.95 79.8601 297.7 79.9101 297.48 80.0201C297.27 80.1301 297.09 80.2801 296.97 80.4601C296.85 80.6501 296.78 80.8701 296.78 81.1101C296.78 81.3501 296.84 81.5601 296.96 81.7501C297.08 81.9401 297.25 82.0901 297.46 82.1901C297.68 82.3001 297.94 82.3501 298.25 82.3501L298.27 82.3701Z" fill="#C42F20"/>
<path d="M309.78 91.0102L312.09 85.8302L312.36 86.2902H309.18L309.68 85.7902V87.2502H308.71V85.4202H313.06V86.1202L310.88 91.0202H309.77L309.78 91.0102Z" fill="#C42F20"/>
<path d="M315.88 91.0901C315.44 91.0901 315.04 90.9801 314.68 90.7501C314.32 90.5301 314.05 90.2001 313.84 89.7701C313.64 89.3401 313.54 88.8201 313.54 88.2101C313.54 87.6001 313.64 87.0801 313.84 86.6501C314.04 86.2201 314.32 85.8901 314.68 85.6701C315.03 85.4501 315.43 85.3301 315.88 85.3301C316.33 85.3301 316.73 85.4401 317.08 85.6701C317.43 85.8901 317.71 86.2201 317.92 86.6501C318.13 87.0801 318.23 87.6001 318.23 88.2101C318.23 88.8201 318.13 89.3401 317.92 89.7701C317.71 90.2001 317.44 90.5301 317.08 90.7501C316.73 90.9701 316.33 91.0901 315.88 91.0901ZM315.88 90.1901C316.14 90.1901 316.37 90.1201 316.56 89.9801C316.75 89.8401 316.9 89.6201 317.01 89.3301C317.12 89.0401 317.17 88.6701 317.17 88.2201C317.17 87.7701 317.12 87.3901 317.01 87.1001C316.9 86.8101 316.75 86.5901 316.56 86.4501C316.37 86.3101 316.14 86.2401 315.88 86.2401C315.62 86.2401 315.41 86.3101 315.21 86.4501C315.02 86.5901 314.86 86.8101 314.75 87.1001C314.64 87.3901 314.59 87.7601 314.59 88.2201C314.59 88.6801 314.64 89.0401 314.75 89.3301C314.86 89.6201 315.01 89.8401 315.21 89.9801C315.41 90.1201 315.63 90.1901 315.88 90.1901Z" fill="#C42F20"/>
<path d="M318.87 92.21L319.33 90.44L319.47 91.03C319.28 91.03 319.13 90.97 319 90.86C318.88 90.74 318.81 90.59 318.81 90.39C318.81 90.19 318.87 90.03 319 89.91C319.13 89.79 319.28 89.73 319.46 89.73C319.64 89.73 319.8 89.79 319.92 89.91C320.04 90.03 320.1 90.19 320.1 90.39C320.1 90.44 320.1 90.5 320.08 90.56C320.07 90.62 320.05 90.69 320.03 90.77C320.01 90.85 319.97 90.95 319.91 91.07L319.5 92.2H318.85L318.87 92.21Z" fill="#C42F20"/>
<path d="M322.64 91.0902C322.25 91.0902 321.86 91.0302 321.48 90.9202C321.1 90.8002 320.79 90.6502 320.53 90.4402L320.97 89.6302C321.17 89.8002 321.42 89.9302 321.71 90.0302C322 90.1302 322.3 90.1802 322.62 90.1802C322.99 90.1802 323.28 90.1002 323.49 89.9502C323.7 89.7902 323.81 89.5902 323.81 89.3302C323.81 89.1502 323.77 89.0002 323.68 88.8702C323.59 88.7402 323.44 88.6302 323.22 88.5702C323 88.5102 322.7 88.4702 322.31 88.4702H320.96L321.25 85.4202H324.54V86.2902H321.64L322.18 85.7902L321.96 88.0702L321.42 87.5802H322.55C323.1 87.5802 323.55 87.6502 323.89 87.8002C324.23 87.9502 324.48 88.1502 324.63 88.4102C324.79 88.6702 324.87 88.9602 324.87 89.2902C324.87 89.6202 324.79 89.9102 324.63 90.1902C324.47 90.4602 324.23 90.6802 323.9 90.8502C323.57 91.0202 323.16 91.1002 322.66 91.1002L322.64 91.0902Z" fill="#C42F20"/>
<path d="M326.35 91.0102V85.8102L326.81 86.2802H325.17V85.4102H327.39V91.0102H326.35Z" fill="#C42F20"/>
<path d="M305.48 94.5401V62.3301" stroke="#C42F20" stroke-miterlimit="10"/>
<path d="M258.15 145.94V140.74L258.61 141.21H256.97V140.34H259.19V145.94H258.15Z" fill="#13110C"/>
<path d="M262.55 146.02C262.09 146.02 261.68 145.95 261.34 145.81C261 145.67 260.73 145.48 260.55 145.22C260.36 144.97 260.27 144.67 260.27 144.33C260.27 143.99 260.36 143.7 260.54 143.47C260.72 143.23 260.98 143.06 261.32 142.93C261.66 142.81 262.07 142.75 262.54 142.75C263.01 142.75 263.42 142.81 263.77 142.93C264.11 143.05 264.38 143.23 264.56 143.47C264.74 143.71 264.84 143.99 264.84 144.33C264.84 144.67 264.75 144.97 264.56 145.22C264.37 145.47 264.1 145.67 263.76 145.81C263.42 145.95 263.01 146.02 262.55 146.02ZM262.55 143.29C262.12 143.29 261.75 143.23 261.44 143.12C261.13 143.01 260.89 142.84 260.72 142.62C260.55 142.4 260.47 142.13 260.47 141.82C260.47 141.51 260.56 141.22 260.73 140.99C260.9 140.76 261.15 140.58 261.46 140.45C261.77 140.32 262.14 140.26 262.55 140.26C262.96 140.26 263.33 140.32 263.65 140.45C263.97 140.58 264.21 140.76 264.39 140.99C264.57 141.22 264.65 141.5 264.65 141.82C264.65 142.14 264.57 142.4 264.4 142.62C264.23 142.84 263.99 143.01 263.68 143.12C263.37 143.24 262.99 143.29 262.56 143.29H262.55ZM262.55 145.2C262.93 145.2 263.24 145.12 263.46 144.96C263.68 144.8 263.8 144.58 263.8 144.3C263.8 144.02 263.69 143.8 263.46 143.64C263.23 143.48 262.93 143.4 262.55 143.4C262.17 143.4 261.86 143.48 261.65 143.64C261.44 143.8 261.32 144.02 261.32 144.3C261.32 144.58 261.43 144.8 261.65 144.96C261.87 145.12 262.17 145.2 262.55 145.2ZM262.55 142.65C262.88 142.65 263.14 142.58 263.33 142.44C263.52 142.3 263.62 142.11 263.62 141.87C263.62 141.63 263.52 141.42 263.32 141.29C263.12 141.16 262.86 141.08 262.54 141.08C262.22 141.08 261.96 141.15 261.77 141.29C261.58 141.43 261.48 141.62 261.48 141.87C261.48 142.12 261.57 142.3 261.76 142.44C261.95 142.58 262.21 142.65 262.53 142.65H262.55Z" fill="#13110C"/>
<path d="M265.64 147.15L266.1 145.38L266.24 145.97C266.05 145.97 265.9 145.91 265.77 145.8C265.65 145.68 265.58 145.53 265.58 145.33C265.58 145.13 265.64 144.97 265.77 144.85C265.9 144.73 266.05 144.67 266.23 144.67C266.41 144.67 266.57 144.73 266.69 144.85C266.81 144.97 266.87 145.13 266.87 145.33C266.87 145.38 266.87 145.44 266.85 145.5C266.84 145.56 266.82 145.63 266.8 145.71C266.78 145.79 266.74 145.89 266.68 146.01L266.27 147.14H265.62L265.64 147.15Z" fill="#13110C"/>
<path d="M267.43 144.67V143.95L270.19 140.34H271.3L268.58 143.95L268.06 143.79H272.5V144.67H267.43ZM270.5 145.94V144.67L270.53 143.79V142.66H271.51V145.94H270.5Z" fill="#13110C"/>
<path d="M275.27 146.02C274.81 146.02 274.4 145.95 274.06 145.81C273.72 145.67 273.45 145.48 273.27 145.22C273.08 144.97 272.99 144.67 272.99 144.33C272.99 143.99 273.08 143.7 273.26 143.47C273.44 143.23 273.7 143.06 274.04 142.93C274.38 142.81 274.79 142.75 275.26 142.75C275.73 142.75 276.14 142.81 276.49 142.93C276.83 143.05 277.1 143.23 277.28 143.47C277.46 143.71 277.56 143.99 277.56 144.33C277.56 144.67 277.47 144.97 277.28 145.22C277.09 145.47 276.82 145.67 276.48 145.81C276.14 145.95 275.73 146.02 275.27 146.02ZM275.27 143.29C274.84 143.29 274.47 143.23 274.16 143.12C273.85 143.01 273.61 142.84 273.44 142.62C273.27 142.4 273.19 142.13 273.19 141.82C273.19 141.51 273.28 141.22 273.45 140.99C273.62 140.76 273.87 140.58 274.18 140.45C274.49 140.32 274.86 140.26 275.27 140.26C275.68 140.26 276.05 140.32 276.37 140.45C276.69 140.58 276.93 140.76 277.11 140.99C277.29 141.22 277.37 141.5 277.37 141.82C277.37 142.14 277.29 142.4 277.12 142.62C276.95 142.84 276.71 143.01 276.4 143.12C276.09 143.24 275.71 143.29 275.28 143.29H275.27ZM275.27 145.2C275.65 145.2 275.96 145.12 276.18 144.96C276.4 144.8 276.52 144.58 276.52 144.3C276.52 144.02 276.41 143.8 276.18 143.64C275.95 143.48 275.65 143.4 275.27 143.4C274.89 143.4 274.58 143.48 274.37 143.64C274.16 143.8 274.04 144.02 274.04 144.3C274.04 144.58 274.15 144.8 274.37 144.96C274.59 145.12 274.89 145.2 275.27 145.2ZM275.27 142.65C275.6 142.65 275.86 142.58 276.05 142.44C276.24 142.3 276.34 142.11 276.34 141.87C276.34 141.63 276.24 141.42 276.04 141.29C275.84 141.16 275.58 141.08 275.26 141.08C274.94 141.08 274.68 141.15 274.49 141.29C274.3 141.43 274.2 141.62 274.2 141.87C274.2 142.12 274.29 142.3 274.48 142.44C274.67 142.58 274.93 142.65 275.25 142.65H275.27Z" fill="#13110C"/>
<path d="M198.84 102.01V96.8102L199.3 97.2802H197.66V96.4102H199.88V102.01H198.84Z" fill="#13110C"/>
<path d="M203.33 102.09C202.89 102.09 202.49 101.98 202.13 101.75C201.78 101.53 201.5 101.2 201.29 100.77C201.09 100.34 200.99 99.8201 200.99 99.2101C200.99 98.6001 201.09 98.0801 201.29 97.6501C201.49 97.2201 201.77 96.8901 202.13 96.6701C202.48 96.4501 202.88 96.3301 203.33 96.3301C203.78 96.3301 204.18 96.4401 204.53 96.6701C204.88 96.8901 205.16 97.2201 205.37 97.6501C205.58 98.0801 205.68 98.6001 205.68 99.2101C205.68 99.8201 205.58 100.34 205.37 100.77C205.16 101.2 204.89 101.53 204.53 101.75C204.18 101.97 203.78 102.09 203.33 102.09ZM203.33 101.19C203.59 101.19 203.82 101.12 204.01 100.98C204.2 100.84 204.35 100.62 204.46 100.33C204.57 100.04 204.62 99.6701 204.62 99.2201C204.62 98.7701 204.57 98.3901 204.46 98.1001C204.35 97.8101 204.2 97.5901 204.01 97.4501C203.82 97.3101 203.59 97.2401 203.33 97.2401C203.07 97.2401 202.86 97.3101 202.66 97.4501C202.46 97.5901 202.31 97.8101 202.2 98.1001C202.09 98.3901 202.04 98.7601 202.04 99.2201C202.04 99.6801 202.09 100.04 202.2 100.33C202.31 100.62 202.46 100.84 202.66 100.98C202.85 101.12 203.08 101.19 203.33 101.19Z" fill="#13110C"/>
<path d="M206.32 103.21L206.78 101.44L206.92 102.03C206.73 102.03 206.58 101.97 206.45 101.86C206.32 101.74 206.26 101.59 206.26 101.39C206.26 101.19 206.32 101.03 206.45 100.91C206.57 100.79 206.73 100.73 206.91 100.73C207.09 100.73 207.25 100.79 207.37 100.91C207.49 101.03 207.55 101.19 207.55 101.39C207.55 101.44 207.55 101.5 207.53 101.56C207.52 101.62 207.5 101.69 207.48 101.77C207.46 101.85 207.42 101.95 207.36 102.07L206.95 103.2H206.3L206.32 103.21Z" fill="#13110C"/>
<path d="M210.12 96.3301C210.63 96.3301 211.07 96.4401 211.43 96.6501C211.79 96.8701 212.07 97.1801 212.26 97.5901C212.45 98.0001 212.55 98.5101 212.55 99.1101C212.55 99.7501 212.43 100.29 212.2 100.73C211.97 101.17 211.65 101.51 211.24 101.74C210.83 101.97 210.35 102.08 209.81 102.08C209.53 102.08 209.26 102.05 209 101.99C208.74 101.93 208.52 101.84 208.34 101.72L208.72 100.94C208.88 101.04 209.04 101.11 209.22 101.15C209.4 101.19 209.59 101.21 209.78 101.21C210.31 101.21 210.73 101.05 211.04 100.72C211.35 100.39 211.5 99.9201 211.5 99.2801C211.5 99.1801 211.5 99.0601 211.5 98.9201C211.5 98.7801 211.48 98.6501 211.44 98.5101L211.76 98.8601C211.67 99.0801 211.54 99.2601 211.37 99.4101C211.2 99.5601 211 99.6701 210.77 99.7401C210.54 99.8101 210.29 99.8501 210.01 99.8501C209.65 99.8501 209.32 99.7801 209.03 99.6401C208.74 99.5001 208.51 99.3001 208.34 99.0401C208.17 98.7801 208.08 98.4801 208.08 98.1301C208.08 97.7601 208.17 97.4401 208.35 97.1701C208.53 96.9001 208.78 96.6901 209.09 96.5401C209.4 96.3901 209.75 96.3201 210.13 96.3201L210.12 96.3301ZM210.18 97.1501C209.97 97.1501 209.78 97.1901 209.61 97.2701C209.44 97.3501 209.32 97.4601 209.22 97.6001C209.13 97.7401 209.08 97.9101 209.08 98.1101C209.08 98.4001 209.18 98.6401 209.38 98.8101C209.58 98.9801 209.85 99.0701 210.2 99.0701C210.42 99.0701 210.62 99.0301 210.79 98.9501C210.96 98.8701 211.09 98.7501 211.19 98.6101C211.29 98.4601 211.33 98.3001 211.33 98.1201C211.33 97.9401 211.29 97.7901 211.19 97.6401C211.1 97.5001 210.97 97.3901 210.8 97.3001C210.63 97.2201 210.42 97.1701 210.17 97.1701L210.18 97.1501Z" fill="#13110C"/>
<path d="M214.13 102.01V96.8102L214.59 97.2802H212.95V96.4102H215.17V102.01H214.13Z" fill="#13110C"/>
<path d="M82.15 104.8V99.6002L82.61 100.07H80.97V99.2002H83.19V104.8H82.15Z" fill="#13110C"/>
<path d="M84.23 104.8V104.1L86.45 101.99C86.64 101.81 86.78 101.66 86.87 101.53C86.96 101.4 87.02 101.27 87.05 101.16C87.08 101.04 87.09 100.94 87.09 100.84C87.09 100.58 87 100.38 86.83 100.24C86.65 100.1 86.4 100.03 86.05 100.03C85.78 100.03 85.53 100.08 85.31 100.17C85.09 100.27 84.9 100.41 84.74 100.61L84.01 100.05C84.23 99.7601 84.52 99.5301 84.89 99.3701C85.26 99.2101 85.68 99.1301 86.13 99.1301C86.54 99.1301 86.89 99.2001 87.19 99.3301C87.49 99.4601 87.72 99.6501 87.89 99.8901C88.05 100.13 88.13 100.42 88.13 100.75C88.13 100.93 88.11 101.11 88.06 101.29C88.01 101.47 87.92 101.66 87.79 101.85C87.66 102.05 87.46 102.27 87.21 102.51L85.3 104.33L85.08 103.94H88.35V104.82H84.22L84.23 104.8Z" fill="#13110C"/>
<path d="M89.08 106L89.54 104.23L89.68 104.82C89.49 104.82 89.34 104.76 89.21 104.65C89.08 104.53 89.02 104.38 89.02 104.18C89.02 103.98 89.08 103.82 89.21 103.7C89.33 103.58 89.49 103.52 89.67 103.52C89.85 103.52 90.01 103.58 90.13 103.7C90.25 103.82 90.31 103.98 90.31 104.18C90.31 104.23 90.31 104.29 90.29 104.35C90.28 104.41 90.26 104.48 90.24 104.56C90.22 104.64 90.18 104.74 90.12 104.86L89.71 105.99H89.06L89.08 106Z" fill="#13110C"/>
<path d="M92.88 99.1201C93.39 99.1201 93.83 99.2301 94.19 99.4401C94.55 99.6601 94.83 99.9701 95.02 100.38C95.21 100.79 95.31 101.3 95.31 101.9C95.31 102.54 95.19 103.08 94.96 103.52C94.73 103.96 94.41 104.3 94 104.53C93.59 104.76 93.11 104.87 92.57 104.87C92.29 104.87 92.02 104.84 91.76 104.78C91.5 104.72 91.28 104.63 91.1 104.51L91.48 103.73C91.64 103.83 91.8 103.9 91.98 103.94C92.16 103.98 92.35 104 92.54 104C93.07 104 93.49 103.84 93.8 103.51C94.11 103.18 94.26 102.71 94.26 102.07C94.26 101.97 94.26 101.85 94.26 101.71C94.26 101.57 94.24 101.44 94.2 101.3L94.52 101.65C94.43 101.87 94.3 102.05 94.13 102.2C93.96 102.35 93.76 102.46 93.53 102.53C93.3 102.6 93.05 102.64 92.77 102.64C92.41 102.64 92.08 102.57 91.79 102.43C91.5 102.29 91.27 102.09 91.1 101.83C90.93 101.57 90.84 101.27 90.84 100.92C90.84 100.55 90.93 100.23 91.11 99.9601C91.29 99.6901 91.54 99.4801 91.85 99.3301C92.16 99.1801 92.51 99.1101 92.89 99.1101L92.88 99.1201ZM92.94 99.9401C92.73 99.9401 92.54 99.9801 92.37 100.06C92.2 100.14 92.08 100.25 91.98 100.39C91.89 100.53 91.84 100.7 91.84 100.9C91.84 101.19 91.94 101.43 92.14 101.6C92.34 101.77 92.61 101.86 92.96 101.86C93.18 101.86 93.38 101.82 93.55 101.74C93.72 101.66 93.85 101.54 93.95 101.4C94.05 101.25 94.09 101.09 94.09 100.91C94.09 100.73 94.05 100.58 93.95 100.43C93.86 100.29 93.73 100.18 93.56 100.09C93.39 100.01 93.18 99.9601 92.93 99.9601L92.94 99.9401Z" fill="#13110C"/>
<path d="M96.89 104.8V99.6002L97.35 100.07H95.71V99.2002H97.93V104.8H96.89Z" fill="#13110C"/>
<path d="M56.39 176.46V171.26L56.85 171.73H55.21V170.86H57.43V176.46H56.39Z" fill="#13110C"/>
<path d="M60.88 176.54C60.44 176.54 60.04 176.43 59.68 176.2C59.32 175.98 59.05 175.65 58.84 175.22C58.64 174.79 58.54 174.27 58.54 173.66C58.54 173.05 58.64 172.53 58.84 172.1C59.04 171.67 59.32 171.34 59.68 171.12C60.03 170.9 60.43 170.78 60.88 170.78C61.33 170.78 61.73 170.89 62.08 171.12C62.43 171.34 62.71 171.67 62.92 172.1C63.13 172.53 63.23 173.05 63.23 173.66C63.23 174.27 63.13 174.79 62.92 175.22C62.71 175.65 62.44 175.98 62.08 176.2C61.73 176.42 61.33 176.54 60.88 176.54ZM60.88 175.64C61.14 175.64 61.37 175.57 61.56 175.43C61.75 175.29 61.9 175.07 62.01 174.78C62.12 174.49 62.17 174.12 62.17 173.67C62.17 173.22 62.12 172.84 62.01 172.55C61.9 172.26 61.75 172.04 61.56 171.9C61.37 171.76 61.14 171.69 60.88 171.69C60.62 171.69 60.41 171.76 60.21 171.9C60.01 172.04 59.86 172.26 59.75 172.55C59.64 172.84 59.59 173.21 59.59 173.67C59.59 174.13 59.64 174.49 59.75 174.78C59.86 175.07 60.01 175.29 60.21 175.43C60.41 175.57 60.63 175.64 60.88 175.64Z" fill="#13110C"/>
<path d="M63.87 177.66L64.33 175.89L64.47 176.48C64.28 176.48 64.13 176.42 64 176.31C63.87 176.19 63.81 176.04 63.81 175.84C63.81 175.64 63.87 175.48 64 175.36C64.13 175.24 64.28 175.18 64.46 175.18C64.64 175.18 64.8 175.24 64.92 175.36C65.04 175.48 65.1 175.64 65.1 175.84C65.1 175.89 65.1 175.95 65.08 176.01C65.07 176.07 65.05 176.14 65.03 176.22C65.01 176.3 64.97 176.4 64.91 176.52L64.5 177.65H63.85L63.87 177.66Z" fill="#13110C"/>
<path d="M67.62 176.54C67.23 176.54 66.84 176.48 66.46 176.37C66.08 176.25 65.77 176.1 65.51 175.89L65.96 175.08C66.16 175.25 66.41 175.38 66.7 175.48C66.99 175.58 67.29 175.63 67.6 175.63C67.97 175.63 68.26 175.55 68.47 175.4C68.68 175.25 68.78 175.04 68.78 174.78C68.78 174.52 68.68 174.32 68.49 174.17C68.3 174.02 67.99 173.95 67.56 173.95H67.05V173.24L68.65 171.34L68.79 171.73H65.78V170.86H69.6V171.56L68 173.46L67.46 173.14H67.77C68.46 173.14 68.97 173.29 69.32 173.6C69.67 173.91 69.84 174.3 69.84 174.78C69.84 175.09 69.76 175.39 69.6 175.65C69.44 175.92 69.2 176.13 68.87 176.29C68.54 176.45 68.13 176.53 67.63 176.53L67.62 176.54Z" fill="#13110C"/>
<path d="M72.24 176.54C71.85 176.54 71.46 176.48 71.08 176.37C70.7 176.25 70.39 176.1 70.13 175.89L70.58 175.08C70.78 175.25 71.03 175.38 71.32 175.48C71.61 175.58 71.91 175.63 72.22 175.63C72.59 175.63 72.88 175.55 73.09 175.4C73.3 175.25 73.4 175.04 73.4 174.78C73.4 174.52 73.3 174.32 73.11 174.17C72.92 174.02 72.61 173.95 72.18 173.95H71.67V173.24L73.27 171.34L73.41 171.73H70.4V170.86H74.22V171.56L72.62 173.46L72.08 173.14H72.39C73.08 173.14 73.59 173.29 73.94 173.6C74.28 173.91 74.46 174.3 74.46 174.78C74.46 175.09 74.38 175.39 74.22 175.65C74.06 175.91 73.82 176.13 73.49 176.29C73.16 176.45 72.75 176.53 72.25 176.53L72.24 176.54Z" fill="#13110C"/>
<path d="M167.53 149.8C167.14 149.8 166.75 149.74 166.37 149.63C165.99 149.51 165.68 149.36 165.42 149.15L165.86 148.34C166.06 148.51 166.31 148.64 166.6 148.74C166.89 148.84 167.19 148.89 167.51 148.89C167.88 148.89 168.17 148.81 168.38 148.66C168.59 148.5 168.7 148.3 168.7 148.04C168.7 147.86 168.66 147.71 168.57 147.58C168.48 147.45 168.33 147.34 168.11 147.28C167.89 147.21 167.59 147.18 167.2 147.18H165.85L166.14 144.13H169.43V145H166.53L167.07 144.5L166.85 146.78L166.31 146.29H167.44C167.99 146.29 168.44 146.36 168.78 146.51C169.12 146.66 169.37 146.86 169.52 147.12C169.68 147.38 169.76 147.67 169.76 148C169.76 148.33 169.68 148.62 169.52 148.9C169.36 149.17 169.12 149.39 168.79 149.56C168.46 149.73 168.05 149.81 167.55 149.81L167.53 149.8Z" fill="#13110C"/>
<path d="M170.38 150.93L170.84 149.16L170.98 149.75C170.79 149.75 170.64 149.69 170.51 149.58C170.39 149.46 170.32 149.31 170.32 149.11C170.32 148.91 170.38 148.75 170.51 148.63C170.64 148.51 170.79 148.45 170.97 148.45C171.15 148.45 171.31 148.51 171.43 148.63C171.55 148.75 171.61 148.91 171.61 149.11C171.61 149.16 171.61 149.22 171.59 149.28C171.58 149.34 171.56 149.41 171.54 149.49C171.52 149.57 171.48 149.67 171.42 149.79L171.01 150.92H170.36L170.38 150.93Z" fill="#13110C"/>
<path d="M174.62 149.8C174.16 149.8 173.75 149.73 173.41 149.59C173.07 149.45 172.8 149.26 172.62 149C172.43 148.75 172.34 148.45 172.34 148.11C172.34 147.77 172.43 147.48 172.61 147.25C172.79 147.01 173.05 146.84 173.39 146.71C173.73 146.59 174.14 146.53 174.61 146.53C175.08 146.53 175.49 146.59 175.84 146.71C176.18 146.83 176.45 147.01 176.63 147.25C176.81 147.49 176.91 147.77 176.91 148.11C176.91 148.45 176.82 148.75 176.63 149C176.44 149.25 176.17 149.45 175.83 149.59C175.49 149.73 175.08 149.8 174.62 149.8ZM174.62 147.07C174.19 147.07 173.82 147.01 173.51 146.9C173.2 146.79 172.96 146.62 172.79 146.4C172.62 146.18 172.54 145.91 172.54 145.6C172.54 145.29 172.63 145 172.8 144.77C172.97 144.54 173.22 144.36 173.53 144.23C173.84 144.1 174.21 144.04 174.62 144.04C175.03 144.04 175.4 144.1 175.72 144.23C176.04 144.36 176.28 144.54 176.46 144.77C176.64 145 176.72 145.28 176.72 145.6C176.72 145.92 176.64 146.18 176.47 146.4C176.3 146.62 176.06 146.79 175.75 146.9C175.44 147.02 175.06 147.07 174.63 147.07H174.62ZM174.62 148.98C175 148.98 175.31 148.9 175.53 148.74C175.75 148.58 175.87 148.36 175.87 148.08C175.87 147.8 175.76 147.58 175.53 147.42C175.3 147.26 175 147.18 174.62 147.18C174.24 147.18 173.93 147.26 173.72 147.42C173.51 147.58 173.39 147.8 173.39 148.08C173.39 148.36 173.5 148.58 173.72 148.74C173.94 148.9 174.24 148.98 174.62 148.98ZM174.62 146.43C174.95 146.43 175.21 146.36 175.4 146.22C175.59 146.08 175.69 145.89 175.69 145.65C175.69 145.41 175.59 145.2 175.39 145.07C175.19 144.94 174.93 144.86 174.61 144.86C174.29 144.86 174.03 144.93 173.84 145.07C173.65 145.21 173.55 145.4 173.55 145.65C173.55 145.9 173.64 146.08 173.83 146.22C174.02 146.36 174.28 146.43 174.6 146.43H174.62Z" fill="#13110C"/>
<path d="M178.49 149.72V144.52L178.95 144.99H177.31V144.12H179.53V149.72H178.49Z" fill="#13110C"/>
<path d="M145.51 186.88C145.12 186.88 144.73 186.82 144.35 186.71C143.97 186.59 143.66 186.44 143.4 186.23L143.85 185.42C144.05 185.59 144.3 185.72 144.59 185.82C144.88 185.92 145.18 185.97 145.49 185.97C145.86 185.97 146.15 185.89 146.36 185.74C146.57 185.59 146.67 185.38 146.67 185.12C146.67 184.86 146.57 184.66 146.38 184.51C146.19 184.36 145.88 184.29 145.45 184.29H144.94V183.58L146.54 181.68L146.68 182.07H143.67V181.2H147.49V181.9L145.89 183.8L145.35 183.48H145.66C146.35 183.48 146.86 183.63 147.21 183.94C147.56 184.25 147.73 184.64 147.73 185.12C147.73 185.43 147.65 185.73 147.49 185.99C147.33 186.25 147.09 186.47 146.76 186.63C146.43 186.79 146.02 186.87 145.52 186.87L145.51 186.88Z" fill="#13110C"/>
<path d="M148.45 188.01L148.91 186.24L149.05 186.83C148.86 186.83 148.71 186.77 148.58 186.66C148.45 186.54 148.39 186.39 148.39 186.19C148.39 185.99 148.45 185.83 148.58 185.71C148.7 185.59 148.86 185.53 149.04 185.53C149.22 185.53 149.38 185.59 149.5 185.71C149.62 185.83 149.68 185.99 149.68 186.19C149.68 186.24 149.68 186.3 149.66 186.36C149.65 186.42 149.63 186.49 149.61 186.57C149.59 186.65 149.55 186.75 149.49 186.87L149.08 188H148.43L148.45 188.01Z" fill="#13110C"/>
<path d="M152.22 186.88C151.83 186.88 151.44 186.82 151.06 186.71C150.68 186.59 150.37 186.44 150.11 186.23L150.55 185.42C150.75 185.59 151 185.72 151.29 185.82C151.58 185.92 151.88 185.97 152.2 185.97C152.57 185.97 152.86 185.89 153.07 185.74C153.28 185.58 153.39 185.38 153.39 185.12C153.39 184.94 153.35 184.79 153.26 184.66C153.17 184.53 153.02 184.42 152.8 184.36C152.58 184.3 152.28 184.26 151.89 184.26H150.54L150.83 181.21H154.12V182.08H151.22L151.76 181.58L151.54 183.86L151 183.37H152.13C152.68 183.37 153.13 183.44 153.47 183.59C153.81 183.74 154.06 183.94 154.21 184.2C154.37 184.46 154.45 184.75 154.45 185.08C154.45 185.41 154.37 185.7 154.21 185.98C154.05 186.25 153.81 186.47 153.48 186.64C153.15 186.81 152.74 186.89 152.24 186.89L152.22 186.88Z" fill="#13110C"/>
<path d="M157.37 186.88C156.93 186.88 156.53 186.77 156.17 186.54C155.82 186.32 155.54 185.99 155.33 185.56C155.13 185.13 155.03 184.61 155.03 184C155.03 183.39 155.13 182.87 155.33 182.44C155.53 182.01 155.81 181.68 156.17 181.46C156.52 181.24 156.92 181.12 157.37 181.12C157.82 181.12 158.22 181.23 158.57 181.46C158.92 181.68 159.2 182.01 159.41 182.44C159.62 182.87 159.72 183.39 159.72 184C159.72 184.61 159.62 185.13 159.41 185.56C159.2 185.99 158.93 186.32 158.57 186.54C158.22 186.76 157.82 186.88 157.37 186.88ZM157.37 185.98C157.63 185.98 157.86 185.91 158.05 185.77C158.24 185.63 158.39 185.41 158.5 185.12C158.61 184.83 158.66 184.46 158.66 184.01C158.66 183.56 158.61 183.18 158.5 182.89C158.39 182.6 158.24 182.38 158.05 182.24C157.86 182.1 157.63 182.03 157.37 182.03C157.11 182.03 156.9 182.1 156.7 182.24C156.5 182.38 156.35 182.6 156.24 182.89C156.13 183.18 156.08 183.55 156.08 184.01C156.08 184.47 156.13 184.83 156.24 185.12C156.35 185.41 156.5 185.63 156.7 185.77C156.89 185.91 157.12 185.98 157.37 185.98Z" fill="#13110C"/>
<path d="M203.22 175.93V170.73L203.68 171.2H202.04V170.33H204.26V175.93H203.22Z" fill="#13110C"/>
<path d="M205.41 177.13L205.87 175.36L206.01 175.95C205.82 175.95 205.67 175.89 205.54 175.78C205.41 175.66 205.35 175.51 205.35 175.31C205.35 175.11 205.41 174.95 205.54 174.83C205.66 174.71 205.82 174.65 206 174.65C206.18 174.65 206.34 174.71 206.46 174.83C206.58 174.95 206.64 175.11 206.64 175.31C206.64 175.36 206.64 175.42 206.62 175.48C206.61 175.54 206.59 175.61 206.57 175.69C206.55 175.77 206.51 175.87 206.45 175.99L206.04 177.12H205.39L205.41 177.13Z" fill="#13110C"/>
<path d="M209.18 176.01C208.79 176.01 208.4 175.95 208.02 175.84C207.64 175.72 207.33 175.57 207.07 175.36L207.51 174.55C207.71 174.72 207.96 174.85 208.25 174.95C208.54 175.05 208.84 175.1 209.16 175.1C209.53 175.1 209.82 175.02 210.03 174.87C210.24 174.71 210.35 174.51 210.35 174.25C210.35 174.07 210.31 173.92 210.22 173.79C210.13 173.66 209.98 173.55 209.76 173.49C209.54 173.43 209.24 173.39 208.85 173.39H207.5L207.79 170.34H211.08V171.21H208.18L208.72 170.71L208.5 172.99L207.96 172.5H209.09C209.64 172.5 210.09 172.57 210.43 172.72C210.77 172.87 211.02 173.07 211.17 173.33C211.33 173.59 211.41 173.88 211.41 174.21C211.41 174.54 211.33 174.83 211.17 175.11C211.01 175.38 210.77 175.6 210.44 175.77C210.11 175.94 209.7 176.02 209.2 176.02L209.18 176.01Z" fill="#13110C"/>
<path d="M213.71 176.01C213.32 176.01 212.93 175.95 212.55 175.84C212.17 175.72 211.86 175.57 211.6 175.36L212.05 174.55C212.25 174.72 212.5 174.85 212.79 174.95C213.08 175.05 213.38 175.1 213.69 175.1C214.06 175.1 214.35 175.02 214.56 174.87C214.77 174.72 214.87 174.51 214.87 174.25C214.87 173.99 214.77 173.79 214.58 173.64C214.39 173.49 214.08 173.42 213.65 173.42H213.14V172.71L214.74 170.81L214.88 171.2H211.87V170.33H215.69V171.03L214.09 172.93L213.55 172.61H213.86C214.55 172.61 215.06 172.76 215.41 173.07C215.75 173.38 215.93 173.77 215.93 174.25C215.93 174.56 215.85 174.86 215.69 175.12C215.53 175.39 215.29 175.6 214.96 175.76C214.63 175.92 214.22 176 213.72 176L213.71 176.01Z" fill="#13110C"/>
<path d="M235.38 190.17C234.99 190.17 234.6 190.11 234.22 190C233.84 189.88 233.53 189.73 233.27 189.52L233.72 188.71C233.92 188.88 234.17 189.01 234.46 189.11C234.75 189.21 235.05 189.26 235.36 189.26C235.73 189.26 236.02 189.18 236.23 189.03C236.44 188.88 236.54 188.67 236.54 188.41C236.54 188.15 236.44 187.95 236.25 187.8C236.06 187.65 235.75 187.58 235.32 187.58H234.81V186.87L236.41 184.97L236.55 185.36H233.54V184.49H237.36V185.19L235.76 187.09L235.22 186.77H235.53C236.22 186.77 236.73 186.92 237.08 187.23C237.43 187.54 237.6 187.93 237.6 188.41C237.6 188.72 237.52 189.02 237.36 189.28C237.2 189.54 236.96 189.76 236.63 189.92C236.3 190.08 235.89 190.16 235.39 190.16L235.38 190.17Z" fill="#13110C"/>
<path d="M238.32 191.29L238.78 189.52L238.92 190.11C238.73 190.11 238.58 190.05 238.45 189.94C238.32 189.82 238.26 189.67 238.26 189.47C238.26 189.27 238.32 189.11 238.45 188.99C238.57 188.87 238.73 188.81 238.91 188.81C239.09 188.81 239.25 188.87 239.37 188.99C239.49 189.11 239.55 189.27 239.55 189.47C239.55 189.52 239.55 189.58 239.53 189.64C239.52 189.7 239.5 189.77 239.48 189.85C239.46 189.93 239.42 190.03 239.36 190.15L238.95 191.28H238.3L238.32 191.29Z" fill="#13110C"/>
<path d="M240.24 190.09V189.39L242.46 187.28C242.65 187.1 242.79 186.95 242.88 186.82C242.97 186.69 243.03 186.56 243.06 186.45C243.09 186.33 243.1 186.23 243.1 186.13C243.1 185.87 243.01 185.67 242.84 185.53C242.66 185.39 242.41 185.32 242.06 185.32C241.79 185.32 241.54 185.37 241.32 185.46C241.1 185.56 240.91 185.7 240.75 185.9L240.02 185.34C240.24 185.05 240.53 184.82 240.9 184.66C241.27 184.5 241.69 184.42 242.14 184.42C242.55 184.42 242.9 184.49 243.2 184.62C243.5 184.75 243.73 184.94 243.9 185.18C244.06 185.42 244.14 185.71 244.14 186.04C244.14 186.22 244.12 186.4 244.07 186.58C244.02 186.76 243.93 186.95 243.8 187.14C243.67 187.34 243.47 187.56 243.22 187.8L241.31 189.62L241.09 189.23H244.36V190.11H240.23L240.24 190.09Z" fill="#13110C"/>
<path d="M246.82 190.17C246.43 190.17 246.04 190.11 245.66 190C245.28 189.88 244.97 189.73 244.71 189.52L245.15 188.71C245.35 188.88 245.6 189.01 245.89 189.11C246.18 189.21 246.48 189.26 246.8 189.26C247.17 189.26 247.46 189.18 247.67 189.03C247.88 188.87 247.99 188.67 247.99 188.41C247.99 188.23 247.95 188.08 247.86 187.95C247.77 187.82 247.62 187.71 247.4 187.65C247.18 187.58 246.88 187.55 246.49 187.55H245.14L245.43 184.5H248.72V185.37H245.82L246.36 184.87L246.14 187.15L245.6 186.66H246.73C247.28 186.66 247.73 186.73 248.07 186.88C248.41 187.03 248.66 187.23 248.81 187.49C248.97 187.75 249.05 188.04 249.05 188.37C249.05 188.7 248.97 188.99 248.81 189.27C248.65 189.54 248.41 189.76 248.08 189.93C247.75 190.1 247.34 190.18 246.84 190.18L246.82 190.17Z" fill="#13110C"/>
<path d="M187.34 16.8399V16.1399L189.56 14.0299C189.75 13.8499 189.89 13.6999 189.98 13.5699C190.07 13.4399 190.13 13.3099 190.16 13.1999C190.19 13.0799 190.2 12.9799 190.2 12.8799C190.2 12.6199 190.11 12.4199 189.94 12.2799C189.76 12.1399 189.5 12.0699 189.16 12.0699C188.89 12.0699 188.64 12.1199 188.42 12.2099C188.2 12.2999 188.01 12.4499 187.85 12.6499L187.12 12.0899C187.34 11.7999 187.63 11.5699 188 11.4099C188.37 11.2499 188.79 11.1699 189.24 11.1699C189.65 11.1699 190 11.2399 190.3 11.3699C190.6 11.4999 190.83 11.6899 191 11.9299C191.16 12.1699 191.24 12.4599 191.24 12.7899C191.24 12.9699 191.22 13.1499 191.17 13.3299C191.12 13.5099 191.03 13.6999 190.9 13.8899C190.77 14.0799 190.57 14.3099 190.32 14.5499L188.41 16.3699L188.19 15.9799H191.46V16.8599H187.33L187.34 16.8399Z" fill="#13110C"/>
<path d="M192.19 18.0398L192.65 16.2698L192.79 16.8598C192.6 16.8598 192.45 16.7998 192.32 16.6898C192.2 16.5698 192.13 16.4198 192.13 16.2198C192.13 16.0198 192.19 15.8598 192.32 15.7398C192.45 15.6198 192.6 15.5598 192.78 15.5598C192.96 15.5598 193.12 15.6198 193.24 15.7398C193.36 15.8598 193.42 16.0198 193.42 16.2198C193.42 16.2698 193.42 16.3298 193.4 16.3898C193.39 16.4498 193.37 16.5198 193.35 16.5998C193.33 16.6798 193.29 16.7798 193.23 16.8998L192.82 18.0298H192.17L192.19 18.0398Z" fill="#13110C"/>
<path d="M194.88 16.84V11.64L195.34 12.11H193.7V11.24H195.92V16.84H194.88Z" fill="#13110C"/>
<path d="M199.45 16.9199C198.94 16.9199 198.51 16.8099 198.15 16.5999C197.79 16.3799 197.51 16.0699 197.32 15.6599C197.13 15.2499 197.03 14.7399 197.03 14.1399C197.03 13.4999 197.15 12.9599 197.38 12.5199C197.61 12.0799 197.93 11.7399 198.35 11.5099C198.77 11.2799 199.24 11.1699 199.78 11.1699C200.06 11.1699 200.33 11.1999 200.59 11.2599C200.85 11.3199 201.07 11.4099 201.25 11.5299L200.87 12.3099C200.71 12.2099 200.55 12.1399 200.37 12.0999C200.19 12.0599 200 12.0399 199.81 12.0399C199.28 12.0399 198.86 12.1999 198.55 12.5299C198.24 12.8599 198.09 13.3399 198.09 13.9699C198.09 14.0699 198.09 14.1899 198.09 14.3299C198.09 14.4699 198.11 14.5999 198.15 14.7399L197.83 14.3899C197.93 14.1699 198.06 13.9899 198.23 13.8399C198.4 13.6899 198.6 13.5799 198.83 13.5099C199.06 13.4299 199.31 13.3999 199.59 13.3999C199.96 13.3999 200.29 13.4699 200.57 13.6099C200.86 13.7499 201.09 13.9499 201.26 14.2099C201.43 14.4699 201.52 14.7699 201.52 15.1199C201.52 15.4899 201.43 15.8099 201.25 16.0799C201.07 16.3499 200.82 16.5599 200.51 16.7099C200.2 16.8599 199.85 16.9299 199.47 16.9299L199.45 16.9199ZM199.39 16.0999C199.6 16.0999 199.79 16.0599 199.96 15.9799C200.13 15.8999 200.25 15.7899 200.35 15.6499C200.44 15.5099 200.49 15.3399 200.49 15.1499C200.49 14.8599 200.39 14.6299 200.19 14.4499C199.99 14.2799 199.71 14.1899 199.37 14.1899C199.15 14.1899 198.95 14.2299 198.78 14.3099C198.61 14.3899 198.48 14.5099 198.38 14.6499C198.28 14.7899 198.23 14.9599 198.23 15.1499C198.23 15.3199 198.28 15.4799 198.37 15.6199C198.46 15.7599 198.59 15.8799 198.77 15.9599C198.94 16.0499 199.15 16.0899 199.4 16.0899L199.39 16.0999Z" fill="#13110C"/>
<path d="M18.99 82.42C18.6 82.42 18.21 82.36 17.83 82.25C17.45 82.13 17.14 81.98 16.88 81.77L17.33 80.96C17.53 81.13 17.78 81.26 18.07 81.36C18.36 81.46 18.66 81.51 18.97 81.51C19.34 81.51 19.63 81.43 19.84 81.28C20.05 81.13 20.15 80.92 20.15 80.66C20.15 80.4 20.05 80.2 19.86 80.05C19.67 79.9 19.36 79.83 18.93 79.83H18.42V79.12L20.02 77.22L20.16 77.61H17.15V76.74H20.97V77.44L19.37 79.34L18.83 79.02H19.14C19.83 79.02 20.34 79.17 20.69 79.48C21.03 79.79 21.21 80.18 21.21 80.66C21.21 80.97 21.13 81.27 20.97 81.53C20.81 81.8 20.57 82.01 20.24 82.17C19.91 82.33 19.5 82.41 19 82.41L18.99 82.42Z" fill="#13110C"/>
<path d="M21.93 83.5401L22.39 81.7701L22.53 82.3601C22.34 82.3601 22.19 82.3001 22.06 82.1901C21.94 82.0701 21.87 81.9201 21.87 81.7201C21.87 81.5201 21.93 81.3601 22.06 81.2401C22.19 81.1201 22.34 81.0601 22.52 81.0601C22.7 81.0601 22.86 81.1201 22.98 81.2401C23.1 81.3601 23.16 81.5201 23.16 81.7201C23.16 81.7701 23.16 81.8301 23.14 81.8901C23.13 81.9501 23.11 82.0201 23.09 82.1001C23.07 82.1801 23.03 82.2801 22.97 82.4001L22.56 83.5301H21.91L21.93 83.5401Z" fill="#13110C"/>
<path d="M24.62 82.34V77.14L25.08 77.61H23.44V76.74H25.66V82.34H24.62Z" fill="#13110C"/>
<path d="M26.69 81.06V80.34L29.45 76.73H30.56L27.84 80.34L27.32 80.18H31.76V81.06H26.69ZM29.76 82.33V81.06L29.79 80.18V79.05H30.77V82.33H29.76Z" fill="#13110C"/>
<path d="M170.43 23.3601H2.88V33.2001H170.43V23.3601Z" fill="#511F19"/>
<path d="M268.1 23.3601H229.79V33.2001H268.1V23.3601Z" fill="#511F19"/>
<path d="M353.71 23.3601H335.94V33.2001H353.71V23.3601Z" fill="#511F19"/>
<path d="M9.93001 23.3601H2.88V52.6401H9.93001V23.3601Z" fill="#511F19"/>
<path d="M2.9 23.3601H0V54.5501H2.9V23.3601Z" fill="#511F19"/>
<path d="M9.93001 112.04H2.88V143.02H9.93001V112.04Z" fill="#511F19"/>
<path d="M2.9 110.12H0V144.92H2.9V110.12Z" fill="#511F19"/>
<path d="M172.35 23.3601H0V26.2701H172.35V23.3601Z" fill="#511F19"/>
<path d="M270.02 23.3601H227.87V26.2701H270.02V23.3601Z" fill="#511F19"/>
<path d="M353.71 23.3601H334.11V26.2701H353.71V23.3601Z" fill="#511F19"/>
<path d="M9.99 202.35H2.88V221.76H9.99V202.35Z" fill="#511F19"/>
<path d="M2.88 200.55H0.0299988V221.76H2.88V200.55Z" fill="#511F19"/>
<path d="M52.35 124.88H6.13V132.06H52.35V124.88Z" fill="#511F19"/>
<path d="M226.71 214.58H6.13V221.76H226.71V214.58Z" fill="#511F19"/>
<path d="M353.7 214.58H257.66V221.76H353.7V214.58Z" fill="#511F19"/>
<path d="M104.07 129.68H47.63V132.06H104.07V129.68Z" fill="#511F19"/>
<path d="M200.9 129.68H129.73V132.06H200.9V129.68Z" fill="#511F19"/>
<path d="M193.35 124.88H150.99V132.06H193.35V124.88Z" fill="#511F19"/>
<path d="M153.27 24.8101H150.99V132.06H153.27V24.8101Z" fill="#511F19"/>
<path d="M251.5 30.8701H244.46V75.5601H251.5V30.8701Z" fill="#511F19"/>
<path d="M251.51 64.97H249.13V131.97H251.51V64.97Z" fill="#511F19"/>
<path d="M251.5 129.68H226.7V131.96H251.5V129.68Z" fill="#511F19"/>
<path d="M101.2 129.68H99.02V134.72H101.2V129.68Z" fill="#511F19"/>
<path d="M223.21 163.29H220.94V216.41H223.21V163.29Z" fill="#511F19"/>
<path d="M122.68 163.29H120.41V216.41H122.68V163.29Z" fill="#511F19"/>
<path d="M184.32 163.29H182.05V216.41H184.32V163.29Z" fill="#511F19"/>
<path d="M279.94 163.29H277.46V216.41H279.94V163.29Z" fill="#511F19"/>
<path d="M101.2 160.48H99.02V165.57H101.2V160.48Z" fill="#511F19"/>
<path d="M136.58 163.29H99.02V165.57H136.58V163.29Z" fill="#511F19"/>
<path d="M195.25 163.29H159.5V165.57H195.25V163.29Z" fill="#511F19"/>
<path d="M223.21 163.29H218.19V165.57H223.21V163.29Z" fill="#511F19"/>
<path d="M222.08 201.06H183.18V217.85H222.08V201.06Z" fill="#511F19"/>
<path d="M279.94 163.29H259.46V165.57H279.94V163.29Z" fill="#511F19"/>
<path d="M350.19 202.17H278.7V217.51H350.19V202.17Z" fill="#511F19"/>
<path d="M2.91 110.12V54.55" stroke="#511F19" stroke-width="0.43" stroke-miterlimit="10"/>
<path d="M9.92001 112.14V52.52" stroke="#511F19" stroke-width="0.43" stroke-miterlimit="10"/>
<path d="M6.39999 112.14V52.52" stroke="#511F19" stroke-width="0.43" stroke-miterlimit="10"/>
<path d="M2.91 145.05V200.55" stroke="#511F19" stroke-width="0.43" stroke-miterlimit="10"/>
<path d="M9.92001 143.02V202.6" stroke="#511F19" stroke-width="0.43" stroke-miterlimit="10"/>
<path d="M6.39999 143.02V202.6" stroke="#511F19" stroke-width="0.43" stroke-miterlimit="10"/>
<path d="M38.96 67.04V86.16H41.21V67.04" stroke="#511F19" stroke-width="0.43" stroke-miterlimit="10"/>
<path d="M40.08 86.16V67.04" stroke="#511F19" stroke-width="0.43" stroke-miterlimit="10"/>
<path d="M38.96 124.91V105.79H41.21V124.91" stroke="#511F19" stroke-width="0.43" stroke-miterlimit="10"/>
<path d="M40.08 105.79V124.91" stroke="#511F19" stroke-width="0.43" stroke-miterlimit="10"/>
<path d="M41.78 24.4199H38.42V67.0399H41.78V24.4199Z" fill="#511F19"/>
<path d="M227.87 26.27H192.02V33.2H229.79" stroke="#511F19" stroke-width="0.43" stroke-miterlimit="10"/>
<path d="M229.79 29.73H192.02" stroke="#511F19" stroke-width="0.43" stroke-miterlimit="10"/>
<path d="M269.78 26.27H334.34" stroke="#511F19" stroke-width="0.43" stroke-miterlimit="10"/>
<path d="M335.94 33.2H268.1" stroke="#511F19" stroke-width="0.43" stroke-miterlimit="10"/>
<path d="M268.1 29.6399H335.94" stroke="#511F19" stroke-width="0.43" stroke-miterlimit="10"/>
<path d="M152.25 23.36L152.27 2.75H235.79L235.77 23.36" stroke="#511F19" stroke-width="0.43" stroke-miterlimit="10"/>
<path d="M237.81 23.36L237.83 0.719971H150.23L150.21 23.36" stroke="#511F19" stroke-width="0.43" stroke-miterlimit="10"/>
<path d="M40.91 86.1599H39.16V87.3499H40.91V86.1599Z" fill="#511F19"/>
<path d="M40.91 104.7H39.16V105.89H40.91V104.7Z" fill="#511F19"/>
<path d="M40.91 87.3499H58.24" stroke="#511F19" stroke-width="0.85" stroke-miterlimit="10"/>
<path d="M58.24 87.3499C58.24 96.9199 50.48 104.69 40.9 104.69" stroke="#511F19" stroke-width="0.43" stroke-miterlimit="10"/>
<path d="M171.73 28.8799H170.42V30.7999H171.73V28.8799Z" fill="#511F19"/>
<path d="M192.11 28.8799H190.8V30.7999H192.11V28.8799Z" fill="#511F19"/>
<path d="M171.74 30.7898V49.8298" stroke="#511F19" stroke-width="0.85" stroke-miterlimit="10"/>
<path d="M171.74 49.8298C182.26 49.8298 190.78 41.3098 190.78 30.7898" stroke="#511F19" stroke-width="0.43" stroke-miterlimit="10"/>
<path d="M228.58 216.91H226.7V219.66H228.58V216.91Z" fill="#511F19"/>
<path d="M257.84 216.91H255.96V219.66H257.84V216.91Z" fill="#511F19"/>
<path d="M228.59 219.66V246.98" stroke="#511F19" stroke-width="0.85" stroke-miterlimit="10"/>
<path d="M228.59 246.98C243.68 246.98 255.92 234.74 255.92 219.65" stroke="#511F19" stroke-width="0.43" stroke-miterlimit="10"/>
<path d="M129.73 131.06L107.29 122.06" stroke="#511F19" stroke-width="0.85" stroke-miterlimit="10"/>
<path d="M226.7 131.06L204.27 122.06" stroke="#511F19" stroke-width="0.85" stroke-miterlimit="10"/>
<path d="M155.78 155.32L136.59 163.02" stroke="#511F19" stroke-width="0.85" stroke-miterlimit="10"/>
<path d="M214.44 155.32L195.25 163.02" stroke="#511F19" stroke-width="0.85" stroke-miterlimit="10"/>
<path d="M90.21 157.17L99.21 134.73" stroke="#511F19" stroke-width="0.85" stroke-miterlimit="10"/>
<path d="M353.71 26.9399H346.67V217.79H353.71V26.9399Z" fill="#511F19"/>
</g>
<defs>
<clipPath id="clip0_2024_8060">
<rect width="353.71" height="246.7" fill="white" transform="translate(0 0.5)"/>
</clipPath>
</defs>
</svg>
