<svg width="314" height="317" viewBox="0 0 314 317" fill="none" xmlns="http://www.w3.org/2000/svg">
<g clip-path="url(#clip0_2024_6153)">
<path d="M185.18 248.08H206.46C206.85 248.08 207.17 248.4 207.17 248.79V260.01C207.17 260.4 206.85 260.72 206.46 260.72H185.18C184.79 260.72 184.47 260.4 184.47 260.01V248.79C184.47 248.4 184.79 248.08 185.18 248.08Z" stroke="#C7C6C5" stroke-width="0.43" stroke-linecap="round" stroke-linejoin="round"/>
<path d="M205.08 254.68C205.08 252.02 200.92 249.86 195.79 249.86C190.66 249.86 186.5 252.02 186.5 254.68C186.5 257.34 190.66 259.5 195.79 259.5C200.92 259.5 205.08 257.34 205.08 254.68Z" stroke="#C7C6C5" stroke-width="0.43" stroke-miterlimit="10"/>
<path d="M205.08 254.68C205.08 252.02 200.92 249.86 195.79 249.86C190.66 249.86 186.5 252.02 186.5 254.68C186.5 257.34 190.66 259.5 195.79 259.5C200.92 259.5 205.08 257.34 205.08 254.68Z" stroke="#C7C6C5" stroke-width="0.43" stroke-linecap="round" stroke-linejoin="round"/>
<path d="M193.45 249.63C193.45 249.21 193.11 248.88 192.7 248.88C192.29 248.88 191.95 249.22 191.95 249.63C191.95 250.04 192.29 250.38 192.7 250.38C193.11 250.38 193.45 250.04 193.45 249.63Z" stroke="#C7C6C5" stroke-width="0.43" stroke-miterlimit="10"/>
<path d="M193.45 249.63C193.45 249.21 193.11 248.88 192.7 248.88C192.29 248.88 191.95 249.22 191.95 249.63C191.95 250.04 192.29 250.38 192.7 250.38C193.11 250.38 193.45 250.04 193.45 249.63Z" stroke="#C7C6C5" stroke-width="0.43" stroke-linecap="round" stroke-linejoin="round"/>
<path d="M199.75 249.63C199.75 249.21 199.41 248.88 199 248.88C198.59 248.88 198.25 249.22 198.25 249.63C198.25 250.04 198.59 250.38 199 250.38C199.41 250.38 199.75 250.04 199.75 249.63Z" stroke="#C7C6C5" stroke-width="0.43" stroke-miterlimit="10"/>
<path d="M199.75 249.63C199.75 249.21 199.41 248.88 199 248.88C198.59 248.88 198.25 249.22 198.25 249.63C198.25 250.04 198.59 250.38 199 250.38C199.41 250.38 199.75 250.04 199.75 249.63Z" stroke="#C7C6C5" stroke-width="0.43" stroke-linecap="round" stroke-linejoin="round"/>
<path d="M196.23 252C196.23 252.24 196.04 252.43 195.8 252.43C195.56 252.43 195.37 252.24 195.37 252L195.24 249.67C195.24 249.36 195.49 249.11 195.81 249.11C196.13 249.11 196.38 249.36 196.38 249.67L196.25 252H196.23Z" stroke="#C7C6C5" stroke-width="0.43" stroke-miterlimit="10"/>
<path d="M196.23 252C196.23 252.24 196.04 252.43 195.8 252.43C195.56 252.43 195.37 252.24 195.37 252L195.24 249.67C195.24 249.36 195.49 249.11 195.81 249.11C196.13 249.11 196.38 249.36 196.38 249.67L196.25 252H196.23Z" stroke="#C7C6C5" stroke-width="0.43" stroke-linecap="round" stroke-linejoin="round"/>
<path d="M149.56 213.69H99.26V224.74H149.56V213.69Z" stroke="#C7C6C5" stroke-width="0.43" stroke-miterlimit="10"/>
<path d="M149.56 213.69H99.26V224.74H149.56V213.69Z" stroke="#C7C6C5" stroke-width="0.43" stroke-miterlimit="10"/>
<path d="M118.79 219.52L111.88 222.64L111.57 221.95L121.19 216.16V215.45C121.19 215.45 121.22 214.89 121.75 214.89H127.06C127.59 214.89 127.62 215.45 127.62 215.45V216.16L137.25 221.95L136.94 222.64L130.03 219.52H118.78H118.79Z" stroke="#C7C6C5" stroke-width="0.43" stroke-miterlimit="10"/>
<path d="M118.79 219.52L111.88 222.64L111.57 221.95L121.19 216.16V215.45C121.19 215.45 121.22 214.89 121.75 214.89H127.06C127.59 214.89 127.62 215.45 127.62 215.45V216.16L137.25 221.95L136.94 222.64L130.03 219.52H118.78H118.79Z" stroke="#C7C6C5" stroke-width="0.43" stroke-miterlimit="10"/>
<path d="M144.75 218.58H104.06V219.52H144.75V218.58Z" stroke="#C7C6C5" stroke-width="0.43" stroke-miterlimit="10"/>
<path d="M144.75 218.58H104.06V219.52H144.75V218.58Z" stroke="#C7C6C5" stroke-width="0.43" stroke-miterlimit="10"/>
<path d="M132.89 218.58C131.8 218.58 131.89 217.61 130.67 217.61H118.14C116.92 217.61 117.02 218.58 115.92 218.58H132.89Z" stroke="#C7C6C5" stroke-width="0.43" stroke-miterlimit="10"/>
<path d="M132.89 218.58C131.8 218.58 131.89 217.61 130.67 217.61H118.14C116.92 217.61 117.02 218.58 115.92 218.58H132.89Z" stroke="#C7C6C5" stroke-width="0.43" stroke-miterlimit="10"/>
<path d="M117.81 94.6299H67.51V105.68H117.81V94.6299Z" stroke="#C7C6C5" stroke-width="0.43" stroke-miterlimit="10"/>
<path d="M117.81 94.6299H67.51V105.68H117.81V94.6299Z" stroke="#C7C6C5" stroke-width="0.43" stroke-miterlimit="10"/>
<path d="M98.29 99.85L105.2 96.73L105.51 97.42L95.89 103.21V103.92C95.89 103.92 95.86 104.48 95.33 104.48H90.02C89.49 104.48 89.46 103.92 89.46 103.92V103.21L79.84 97.42L80.15 96.73L87.06 99.85H98.31H98.29Z" stroke="#C7C6C5" stroke-width="0.43" stroke-miterlimit="10"/>
<path d="M98.29 99.85L105.2 96.73L105.51 97.42L95.89 103.21V103.92C95.89 103.92 95.86 104.48 95.33 104.48H90.02C89.49 104.48 89.46 103.92 89.46 103.92V103.21L79.84 97.42L80.15 96.73L87.06 99.85H98.31H98.29Z" stroke="#C7C6C5" stroke-width="0.43" stroke-miterlimit="10"/>
<path d="M113.01 99.8501H72.32V100.79H113.01V99.8501Z" stroke="#C7C6C5" stroke-width="0.43" stroke-miterlimit="10"/>
<path d="M113.01 99.8501H72.32V100.79H113.01V99.8501Z" stroke="#C7C6C5" stroke-width="0.43" stroke-miterlimit="10"/>
<path d="M84.18 100.79C85.27 100.79 85.18 101.76 86.4 101.76H98.93C100.15 101.76 100.05 100.79 101.15 100.79H84.18Z" stroke="#C7C6C5" stroke-width="0.43" stroke-miterlimit="10"/>
<path d="M84.18 100.79C85.27 100.79 85.18 101.76 86.4 101.76H98.93C100.15 101.76 100.05 100.79 101.15 100.79H84.18Z" stroke="#C7C6C5" stroke-width="0.43" stroke-miterlimit="10"/>
<path d="M211.92 258.12C211.92 252.58 216.43 248.08 221.96 248.08C227.49 248.08 232 252.59 232 258.12V288.18C232 293.72 227.5 298.22 221.96 298.22C216.42 298.22 211.92 293.71 211.92 288.18V258.12Z" stroke="#C7C6C5" stroke-width="0.43" stroke-linecap="round" stroke-linejoin="round"/>
<path d="M213.81 258.35C213.81 253.86 217.46 250.2 221.96 250.2C226.46 250.2 230.11 253.85 230.11 258.35V288.18C230.11 292.67 226.46 296.33 221.96 296.33C217.46 296.33 213.81 292.68 213.81 288.18V258.35Z" stroke="#C7C6C5" stroke-width="0.43" stroke-linecap="round" stroke-linejoin="round"/>
<path d="M221.95 290.71C219.96 290.71 218.35 289.1 218.35 287.11V260.62C218.35 258.63 219.96 257.02 221.95 257.02C223.94 257.02 225.55 258.63 225.55 260.62V287.11C225.55 289.1 223.94 290.71 221.95 290.71Z" stroke="#C7C6C5" stroke-width="0.43" stroke-linecap="round" stroke-linejoin="round"/>
<path d="M229.22 274.81C228.97 274.81 228.77 274.39 228.77 273.87C228.77 273.35 228.97 272.93 229.22 272.93C229.47 272.93 229.67 273.35 229.67 273.87C229.67 274.39 229.47 274.81 229.22 274.81Z" stroke="#C7C6C5" stroke-width="0.43" stroke-linecap="round" stroke-linejoin="round"/>
<path d="M147.28 108.02H106.12V127.03H147.28V108.02Z" stroke="#C7C6C5" stroke-width="0.43" stroke-linecap="round" stroke-linejoin="round"/>
<path d="M127.73 113.22C127.73 112.02 125.96 112.04 125.96 113.22C125.96 114.1 126.84 113.86 126.84 114.66" stroke="#C7C6C5" stroke-width="0.43" stroke-linecap="round" stroke-linejoin="round"/>
<path d="M126.83 114.66L132.78 116.66C132.78 116.66 133.33 116.87 133.25 117.47C133.17 118.07 132.61 118 132.61 118H121.06C121.06 118 120.5 118.07 120.42 117.47C120.34 116.87 120.89 116.66 120.89 116.66L126.84 114.66H126.83Z" stroke="#C7C6C5" stroke-width="0.43" stroke-linecap="round" stroke-linejoin="round"/>
<path d="M135.55 117.44H146.05" stroke="#C7C6C5" stroke-width="0.43" stroke-linecap="round" stroke-linejoin="round"/>
<path d="M107.41 117.44H118.3" stroke="#C7C6C5" stroke-width="0.43" stroke-linecap="round" stroke-linejoin="round"/>
<path d="M232.17 231.07H201.27V245.67H232.17V231.07Z" stroke="#C7C6C5" stroke-width="0.43" stroke-linecap="round" stroke-linejoin="round"/>
<path d="M217.83 234.79C217.83 233.59 216.06 233.61 216.06 234.79C216.06 235.67 216.94 235.43 216.94 236.23" stroke="#C7C6C5" stroke-width="0.43" stroke-linecap="round" stroke-linejoin="round"/>
<path d="M216.95 236.23L222.9 238.23C222.9 238.23 223.45 238.44 223.37 239.04C223.29 239.64 222.73 239.57 222.73 239.57H211.18C211.18 239.57 210.62 239.64 210.54 239.04C210.46 238.44 211.01 238.23 211.01 238.23L216.96 236.23H216.95Z" stroke="#C7C6C5" stroke-width="0.43" stroke-linecap="round" stroke-linejoin="round"/>
<path d="M225.67 239.01H230.95" stroke="#C7C6C5" stroke-width="0.43" stroke-linecap="round" stroke-linejoin="round"/>
<path d="M202.08 239.01H207.98" stroke="#C7C6C5" stroke-width="0.43" stroke-linecap="round" stroke-linejoin="round"/>
<path d="M232.09 163.94H190V180.26H232.09V163.94Z" stroke="#C7C6C5" stroke-width="0.43" stroke-linecap="round" stroke-linejoin="round"/>
<path d="M211.67 168.51C211.67 167.31 209.9 167.33 209.9 168.51C209.9 169.39 210.78 169.15 210.78 169.95" stroke="#C7C6C5" stroke-width="0.43" stroke-linecap="round" stroke-linejoin="round"/>
<path d="M210.77 169.95L216.72 171.95C216.72 171.95 217.27 172.16 217.19 172.76C217.11 173.36 216.55 173.29 216.55 173.29H205C205 173.29 204.44 173.36 204.36 172.76C204.28 172.16 204.83 171.95 204.83 171.95L210.78 169.95H210.77Z" stroke="#C7C6C5" stroke-width="0.43" stroke-linecap="round" stroke-linejoin="round"/>
<path d="M219.49 172.73H230.87" stroke="#C7C6C5" stroke-width="0.43" stroke-linecap="round" stroke-linejoin="round"/>
<path d="M190.8 172.73H201.8" stroke="#C7C6C5" stroke-width="0.43" stroke-linecap="round" stroke-linejoin="round"/>
<path d="M240.08 144.18H224.3V156.9H240.08V144.18Z" stroke="#C7C6C5" stroke-width="0.43" stroke-linecap="round" stroke-linejoin="round"/>
<path d="M232.14 146.12C234.58 146.12 236.56 148.1 236.56 150.54C236.56 152.98 234.58 154.96 232.14 154.96C229.7 154.96 227.72 152.98 227.72 150.54C227.72 148.1 229.7 146.12 232.14 146.12Z" stroke="#C7C6C5" stroke-width="0.43" stroke-linecap="round" stroke-linejoin="round"/>
<path d="M232.14 146.12C229.88 146.12 228.57 147.96 228.57 150.22C228.57 152.03 230.04 153.5 231.85 153.5C233.3 153.5 234.47 152.33 234.47 150.88C234.47 149.72 233.53 148.78 232.37 148.78C231.44 148.78 230.69 149.53 230.69 150.46C230.69 151.2 231.29 151.8 232.03 151.8C232.62 151.8 233.11 151.32 233.11 150.72C233.11 150.25 232.73 149.86 232.25 149.86C231.87 149.86 231.56 150.17 231.56 150.55C231.56 150.85 231.81 151.1 232.11 151.1C232.35 151.1 232.55 150.9 232.55 150.66" stroke="#C7C6C5" stroke-width="0.43" stroke-linecap="round" stroke-linejoin="round"/>
<path d="M232.14 149.92C231.8 149.92 231.52 150.2 231.52 150.54C231.52 150.88 231.8 151.16 232.14 151.16C232.48 151.16 232.76 150.88 232.76 150.54C232.76 150.2 232.48 149.92 232.14 149.92Z" fill="#C7C6C5"/>
<path d="M159.73 297.18H149.29C148.898 297.18 148.58 297.498 148.58 297.89V308.33C148.58 308.722 148.898 309.04 149.29 309.04H159.73C160.122 309.04 160.44 308.722 160.44 308.33V297.89C160.44 297.498 160.122 297.18 159.73 297.18Z" stroke="#C7C6C5" stroke-width="0.43" stroke-linecap="round" stroke-linejoin="round"/>
<path d="M103.4 297.18H92.96C92.5679 297.18 92.25 297.498 92.25 297.89V308.33C92.25 308.722 92.5679 309.04 92.96 309.04H103.4C103.792 309.04 104.11 308.722 104.11 308.33V297.89C104.11 297.498 103.792 297.18 103.4 297.18Z" stroke="#C7C6C5" stroke-width="0.43" stroke-linecap="round" stroke-linejoin="round"/>
<path d="M147.66 307.2C147.66 307.2 147.69 308.33 146.53 308.33H106.17C104.99 308.33 105.04 307.2 105.04 307.2V257.25C105.04 257.25 105.01 256.12 106.17 256.12H146.53C147.71 256.12 147.66 257.25 147.66 257.25V307.2Z" stroke="#C7C6C5" stroke-width="0.43" stroke-miterlimit="10"/>
<path d="M144.41 294.76H128.16C127.624 294.76 127.19 295.195 127.19 295.73V305.54C127.19 306.076 127.624 306.51 128.16 306.51H144.41C144.946 306.51 145.38 306.076 145.38 305.54V295.73C145.38 295.195 144.946 294.76 144.41 294.76Z" stroke="#C7C6C5" stroke-width="0.43" stroke-miterlimit="10"/>
<path d="M124.52 294.76H108.27C107.734 294.76 107.3 295.195 107.3 295.73V305.54C107.3 306.076 107.734 306.51 108.27 306.51H124.52C125.056 306.51 125.49 306.076 125.49 305.54V295.73C125.49 295.195 125.056 294.76 124.52 294.76Z" stroke="#C7C6C5" stroke-width="0.43" stroke-miterlimit="10"/>
<path d="M147.66 293.61H105.04" stroke="#C7C6C5" stroke-width="0.43" stroke-miterlimit="10"/>
<path d="M105.04 302.95C105.76 302.95 105.75 303.8 105.75 303.8V307.2C105.75 307.29 105.77 307.46 105.85 307.54C105.92 307.61 106.06 307.63 106.17 307.63H146.53C146.68 307.63 146.78 307.6 146.84 307.54C146.93 307.44 146.95 307.24 146.95 307.22V303.81C146.95 303.81 146.92 302.96 147.66 302.96C148.4 302.96 148.37 303.81 148.37 303.81V307.2C148.37 307.33 148.35 307.74 148.13 308.15C147.82 308.73 147.25 309.04 146.53 309.04H106.17C105.47 309.04 105.05 308.75 104.82 308.51C104.31 307.97 104.32 307.25 104.33 307.16V303.79C104.33 303.79 104.31 302.94 105.04 302.94V302.95Z" stroke="#C7C6C5" stroke-width="0.43" stroke-miterlimit="10"/>
<path d="M147.66 303.8V307.2C147.66 307.2 147.69 308.33 146.53 308.33H106.17C104.99 308.33 105.04 307.2 105.04 307.2V303.8" stroke="#C7C6C5" stroke-width="0.43" stroke-miterlimit="10" stroke-linecap="round"/>
<path d="M255.66 138.62C258.04 138.62 258.04 140.47 258.04 141V155.84C258.04 156.37 257.61 156.81 257.07 156.81H247.25C246.72 156.81 246.28 156.38 246.28 155.84V141C246.28 140.47 246.28 138.62 248.66 138.62H255.66Z" stroke="#C7C6C5" stroke-width="0.43" stroke-miterlimit="10"/>
<path d="M255.13 140.7H249.2C248.686 140.7 248.27 141.117 248.27 141.63V153.11C248.27 153.624 248.686 154.04 249.2 154.04H255.13C255.644 154.04 256.06 153.624 256.06 153.11V141.63C256.06 141.117 255.644 140.7 255.13 140.7Z" stroke="#C7C6C5" stroke-width="0.43" stroke-miterlimit="10"/>
<path d="M250.63 154.05C250.63 153.2 251.32 152.52 252.16 152.52C253 152.52 253.69 153.21 253.69 154.05" stroke="#C7C6C5" stroke-width="0.43" stroke-miterlimit="10"/>
<path d="M201.04 280.15C203.42 280.15 203.42 282 203.42 282.53V297.37C203.42 297.9 202.99 298.34 202.45 298.34H192.63C192.1 298.34 191.66 297.91 191.66 297.37V282.53C191.66 282 191.66 280.15 194.04 280.15H201.04Z" stroke="#C7C6C5" stroke-width="0.43" stroke-miterlimit="10"/>
<path d="M200.52 282.24H194.59C194.076 282.24 193.66 282.656 193.66 283.17V294.65C193.66 295.163 194.076 295.58 194.59 295.58H200.52C201.034 295.58 201.45 295.163 201.45 294.65V283.17C201.45 282.656 201.034 282.24 200.52 282.24Z" stroke="#C7C6C5" stroke-width="0.43" stroke-miterlimit="10"/>
<path d="M196.01 295.58C196.01 294.73 196.7 294.05 197.54 294.05C198.38 294.05 199.07 294.74 199.07 295.58" stroke="#C7C6C5" stroke-width="0.43" stroke-miterlimit="10"/>
<path d="M190.83 144.22H223.59C223.98 144.22 224.3 144.54 224.3 144.93V156.15C224.3 156.54 223.98 156.86 223.59 156.86H190.83C190.44 156.86 190.12 156.54 190.12 156.15V144.93C190.12 144.54 190.44 144.22 190.83 144.22Z" stroke="#C7C6C5" stroke-width="0.43" stroke-linecap="round" stroke-linejoin="round"/>
<path d="M222.61 150.54C222.61 153.2 219.37 155.36 215.37 155.36C211.37 155.36 208.12 153.2 208.12 150.54C208.12 147.88 211.36 145.72 215.37 145.72C219.38 145.72 222.61 147.88 222.61 150.54Z" stroke="#C7C6C5" stroke-width="0.43" stroke-linecap="round" stroke-linejoin="round"/>
<path d="M206.7 150.54C206.7 153.2 203.46 155.36 199.46 155.36C195.46 155.36 192.21 153.2 192.21 150.54C192.21 147.88 195.45 145.72 199.46 145.72C203.47 145.72 206.7 147.88 206.7 150.54Z" stroke="#C7C6C5" stroke-width="0.43" stroke-linecap="round" stroke-linejoin="round"/>
<path d="M212.74 155.52C212.74 155.94 212.4 156.27 211.99 156.27C211.58 156.27 211.24 155.93 211.24 155.52C211.24 155.11 211.58 154.77 211.99 154.77C212.4 154.77 212.74 155.11 212.74 155.52Z" stroke="#C7C6C5" stroke-width="0.43" stroke-linecap="round" stroke-linejoin="round"/>
<path d="M219.05 155.52C219.05 155.94 218.71 156.27 218.3 156.27C217.89 156.27 217.54 155.93 217.54 155.52C217.54 155.11 217.88 154.77 218.3 154.77C218.72 154.77 219.05 155.11 219.05 155.52Z" stroke="#C7C6C5" stroke-width="0.43" stroke-linecap="round" stroke-linejoin="round"/>
<path d="M215.68 151.66C215.68 151.42 215.49 151.23 215.25 151.23C215.01 151.23 214.82 151.42 214.82 151.66L214.64 155.63C214.64 155.94 214.89 156.2 215.2 156.2C215.51 156.2 215.77 155.95 215.77 155.64L215.68 151.67V151.66Z" stroke="#C7C6C5" stroke-width="0.43" stroke-linecap="round" stroke-linejoin="round"/>
<path d="M197.06 155.52C197.06 155.94 196.72 156.27 196.31 156.27C195.9 156.27 195.56 155.93 195.56 155.52C195.56 155.11 195.9 154.77 196.31 154.77C196.72 154.77 197.06 155.11 197.06 155.52Z" stroke="#C7C6C5" stroke-width="0.43" stroke-linecap="round" stroke-linejoin="round"/>
<path d="M203.37 155.52C203.37 155.94 203.03 156.27 202.62 156.27C202.21 156.27 201.86 155.93 201.86 155.52C201.86 155.11 202.2 154.77 202.62 154.77C203.04 154.77 203.37 155.11 203.37 155.52Z" stroke="#C7C6C5" stroke-width="0.43" stroke-linecap="round" stroke-linejoin="round"/>
<path d="M200 151.66C200 151.42 199.81 151.23 199.57 151.23C199.33 151.23 199.14 151.42 199.14 151.66L198.96 155.63C198.96 155.94 199.21 156.2 199.52 156.2C199.83 156.2 200.09 155.95 200.09 155.64L200 151.67V151.66Z" stroke="#C7C6C5" stroke-width="0.43" stroke-linecap="round" stroke-linejoin="round"/>
<path d="M69.94 189.26L66.62 192.58C66.62 192.58 66.26 192.79 66.55 193.41C66.84 194.03 67.46 193.77 67.46 193.77C67.46 193.77 69.47 193.62 71.9 191.2" stroke="#C7C6C5" stroke-width="0.43" stroke-miterlimit="10"/>
<path d="M69.94 189.26L66.62 192.58C66.62 192.58 66.26 192.79 66.55 193.41C66.84 194.03 67.46 193.77 67.46 193.77C67.46 193.77 69.47 193.62 71.9 191.2" stroke="#C7C6C5" stroke-width="0.43" stroke-linecap="round" stroke-linejoin="round"/>
<path d="M66.48 192.77C66.47 193.18 67.78 193.3 70.88 190.19" stroke="#C7C6C5" stroke-width="0.43" stroke-linecap="round" stroke-linejoin="round"/>
<path d="M60.2 188.87L60.49 188.52C60.67 188.3 61.01 188.26 61.24 188.45L65.31 191.81C65.53 191.99 65.57 192.33 65.38 192.56L65.09 192.91C64.91 193.13 64.57 193.17 64.34 192.98L60.27 189.62C60.05 189.44 60.01 189.1 60.2 188.87Z" stroke="#C7C6C5" stroke-width="0.43" stroke-miterlimit="10"/>
<path d="M60.2 188.87L60.49 188.52C60.67 188.3 61.01 188.26 61.24 188.45L65.31 191.81C65.53 191.99 65.57 192.33 65.38 192.56L65.09 192.91C64.91 193.13 64.57 193.17 64.34 192.98L60.27 189.62C60.05 189.44 60.01 189.1 60.2 188.87Z" stroke="#C7C6C5" stroke-width="0.43" stroke-linecap="round" stroke-linejoin="round"/>
<path d="M62.05 181.37C58.11 185.31 58.34 186.59 60.83 188.41C60.83 188.41 60.96 188.29 61.35 188.62C61.75 188.95 64.86 191.51 64.86 191.51C65.3 191.88 67.08 192.11 68.72 190.47L71.15 188.04C72.79 186.4 72.56 184.63 72.19 184.18C72.19 184.18 69.44 180.84 69.26 180.62C69.08 180.4 69.09 180.14 69.09 180.14C67.27 177.65 65.99 177.42 62.05 181.36" stroke="#C7C6C5" stroke-width="0.43" stroke-miterlimit="10"/>
<path d="M62.05 181.37C58.11 185.31 58.34 186.59 60.83 188.41C60.83 188.41 60.96 188.29 61.35 188.62C61.75 188.95 64.86 191.51 64.86 191.51C65.3 191.88 67.08 192.11 68.72 190.47L71.15 188.04C72.79 186.4 72.56 184.63 72.19 184.18C72.19 184.18 69.44 180.84 69.26 180.62C69.08 180.4 69.09 180.14 69.09 180.14C67.27 177.65 65.99 177.42 62.05 181.36" stroke="#C7C6C5" stroke-width="0.43" stroke-linecap="round" stroke-linejoin="round"/>
<path d="M69.94 189.26L73.26 185.94C73.26 185.94 73.48 185.58 74.09 185.87C74.71 186.16 74.45 186.78 74.45 186.78C74.45 186.78 74.3 188.79 71.88 191.22" stroke="#C7C6C5" stroke-width="0.43" stroke-miterlimit="10"/>
<path d="M69.94 189.26L73.26 185.94C73.26 185.94 73.48 185.58 74.09 185.87C74.71 186.16 74.45 186.78 74.45 186.78C74.45 186.78 74.3 188.79 71.88 191.22" stroke="#C7C6C5" stroke-width="0.43" stroke-linecap="round" stroke-linejoin="round"/>
<path d="M73.45 185.79C73.86 185.78 73.98 187.09 70.87 190.19" stroke="#C7C6C5" stroke-width="0.43" stroke-linecap="round" stroke-linejoin="round"/>
<path d="M69.27 179.76L69.62 179.47C69.84 179.29 70.18 179.32 70.37 179.54L73.73 183.61C73.91 183.83 73.88 184.17 73.66 184.36L73.31 184.65C73.09 184.83 72.75 184.8 72.56 184.58L69.2 180.51C69.02 180.29 69.05 179.95 69.27 179.76Z" stroke="#C7C6C5" stroke-width="0.43" stroke-miterlimit="10"/>
<path d="M69.27 179.76L69.62 179.47C69.84 179.29 70.18 179.32 70.37 179.54L73.73 183.61C73.91 183.83 73.88 184.17 73.66 184.36L73.31 184.65C73.09 184.83 72.75 184.8 72.56 184.58L69.2 180.51C69.02 180.29 69.05 179.95 69.27 179.76Z" stroke="#C7C6C5" stroke-width="0.43" stroke-linecap="round" stroke-linejoin="round"/>
<path d="M60.6 153.52H41.2V206.67H60.6V153.52Z" stroke="#C7C6C5" stroke-width="0.43" stroke-miterlimit="10"/>
<path d="M60.6 153.52H41.2V206.67H60.6V153.52Z" stroke="#C7C6C5" stroke-width="0.43" stroke-linecap="round" stroke-linejoin="round"/>
<path d="M48.35 35.2002H65.37C65.75 35.2002 66.06 35.5102 66.06 35.8902V56.4002C66.06 56.7802 65.75 57.0902 65.37 57.0902H48.36C47.98 57.0902 47.67 56.7802 47.67 56.4002V35.8902C47.67 35.5102 47.98 35.2002 48.36 35.2002H48.35Z" stroke="#C7C6C5" stroke-width="0.43" stroke-miterlimit="10"/>
<path d="M48.35 35.2002H65.37C65.75 35.2002 66.06 35.5102 66.06 35.8902V56.4002C66.06 56.7802 65.75 57.0902 65.37 57.0902H48.36C47.98 57.0902 47.67 56.7802 47.67 56.4002V35.8902C47.67 35.5102 47.98 35.2002 48.36 35.2002H48.35Z" stroke="#C7C6C5" stroke-width="0.43" stroke-miterlimit="10"/>
<path d="M44.57 57.0804C44.19 57.0804 43.88 56.7704 43.88 56.3904V35.8804C43.88 35.5004 44.19 35.1904 44.57 35.1904H46.97C47.35 35.1904 47.66 35.5004 47.66 35.8804V56.3904C47.66 56.7704 47.35 57.0804 46.97 57.0804H44.57Z" stroke="#C7C6C5" stroke-width="0.43" stroke-miterlimit="10"/>
<path d="M44.57 57.0804C44.19 57.0804 43.88 56.7704 43.88 56.3904V35.8804C43.88 35.5004 44.19 35.1904 44.57 35.1904H46.97C47.35 35.1904 47.66 35.5004 47.66 35.8804V56.3904C47.66 56.7704 47.35 57.0804 46.97 57.0804H44.57Z" stroke="#C7C6C5" stroke-width="0.43" stroke-miterlimit="10"/>
<path d="M43.88 34.5103V14.0103C43.88 13.6303 44.19 13.3203 44.57 13.3203H65.36C65.74 13.3203 66.05 13.6303 66.05 14.0103V16.4003C66.05 16.7803 65.74 17.0903 65.36 17.0903H47.65V34.5103C47.65 34.8903 47.34 35.2003 46.96 35.2003H44.56C44.18 35.2003 43.87 34.8903 43.87 34.5103" stroke="#C7C6C5" stroke-width="0.43" stroke-miterlimit="10"/>
<path d="M43.88 34.5103V14.0103C43.88 13.6303 44.19 13.3203 44.57 13.3203H65.36C65.74 13.3203 66.05 13.6303 66.05 14.0103V16.4003C66.05 16.7803 65.74 17.0903 65.36 17.0903H47.65V34.5103C47.65 34.8903 47.34 35.2003 46.96 35.2003H44.56C44.18 35.2003 43.87 34.8903 43.87 34.5103H43.88Z" stroke="#C7C6C5" stroke-width="0.43" stroke-miterlimit="10"/>
<path d="M41.89 57.0804C41.51 57.0804 41.2 56.7704 41.2 56.3904V35.8804C41.2 35.5004 41.51 35.1904 41.89 35.1904H43.19C43.57 35.1904 43.88 35.5004 43.88 35.8804V56.3904C43.88 56.7704 43.57 57.0804 43.19 57.0804H41.89Z" stroke="#C7C6C5" stroke-width="0.43" stroke-miterlimit="10"/>
<path d="M41.89 57.0804C41.51 57.0804 41.2 56.7704 41.2 56.3904V35.8804C41.2 35.5004 41.51 35.1904 41.89 35.1904H43.19C43.57 35.1904 43.88 35.5004 43.88 35.8804V56.3904C43.88 56.7704 43.57 57.0804 43.19 57.0804H41.89Z" stroke="#C7C6C5" stroke-width="0.43" stroke-miterlimit="10"/>
<path d="M87.94 17.7403C87.94 17.3603 87.63 17.0503 87.25 17.0503H66.74C66.36 17.0503 66.05 17.3603 66.05 17.7403V34.5103C66.05 34.8903 66.36 35.2003 66.74 35.2003H87.25C87.63 35.2003 87.94 34.8903 87.94 34.5103V17.7403Z" stroke="#C7C6C5" stroke-width="0.43" stroke-miterlimit="10"/>
<path d="M87.94 17.7403C87.94 17.3603 87.63 17.0503 87.25 17.0503H66.74C66.36 17.0503 66.05 17.3603 66.05 17.7403V34.5103C66.05 34.8903 66.36 35.2003 66.74 35.2003H87.25C87.63 35.2003 87.94 34.8903 87.94 34.5103V17.7403Z" stroke="#C7C6C5" stroke-width="0.43" stroke-miterlimit="10"/>
<path d="M66.05 13.96C66.05 13.58 66.36 13.27 66.74 13.27H87.25C87.63 13.27 87.94 13.58 87.94 13.96V16.36C87.94 16.74 87.63 17.05 87.25 17.05H66.74C66.36 17.05 66.05 16.74 66.05 16.36V13.96Z" stroke="#C7C6C5" stroke-width="0.43" stroke-miterlimit="10"/>
<path d="M66.05 13.96C66.05 13.58 66.36 13.27 66.74 13.27H87.25C87.63 13.27 87.94 13.58 87.94 13.96V16.36C87.94 16.74 87.63 17.05 87.25 17.05H66.74C66.36 17.05 66.05 16.74 66.05 16.36V13.96Z" stroke="#C7C6C5" stroke-width="0.43" stroke-miterlimit="10"/>
<path d="M66.05 11.1602C66.05 10.7802 66.36 10.4702 66.74 10.4702H87.25C87.63 10.4702 87.94 10.7802 87.94 11.1602V12.5902C87.94 12.9702 87.63 13.2802 87.25 13.2802H66.74C66.36 13.2802 66.05 12.9702 66.05 12.5902V11.1602Z" stroke="#C7C6C5" stroke-width="0.43" stroke-miterlimit="10"/>
<path d="M66.05 11.1602C66.05 10.7802 66.36 10.4702 66.74 10.4702H87.25C87.63 10.4702 87.94 10.7802 87.94 11.1602V12.5902C87.94 12.9702 87.63 13.2802 87.25 13.2802H66.74C66.36 13.2802 66.05 12.9702 66.05 12.5902V11.1602Z" stroke="#C7C6C5" stroke-width="0.43" stroke-miterlimit="10"/>
<path d="M41.2 34.5102V11.1602C41.2 10.7802 41.51 10.4702 41.89 10.4702H65.36C65.74 10.4702 66.05 10.7802 66.05 11.1602V12.4602C66.05 12.8402 65.74 13.3102 65.36 13.3102H43.88V34.5102C43.88 34.8902 43.57 35.2002 43.19 35.2002H41.89C41.51 35.2002 41.2 34.8902 41.2 34.5102Z" stroke="#C7C6C5" stroke-width="0.43" stroke-miterlimit="10"/>
<path d="M41.2 34.5102V11.1602C41.2 10.7802 41.51 10.4702 41.89 10.4702H65.36C65.74 10.4702 66.05 10.7802 66.05 11.1602V12.4602C66.05 12.8402 65.74 13.3102 65.36 13.3102H43.88V34.5102C43.88 34.8902 43.57 35.2002 43.19 35.2002H41.89C41.51 35.2002 41.2 34.8902 41.2 34.5102Z" stroke="#C7C6C5" stroke-width="0.43" stroke-miterlimit="10"/>
<path d="M47.66 17.0904L44.2 13.6504" stroke="#C7C6C5" stroke-width="0.43" stroke-miterlimit="10"/>
<path d="M65.37 17.0903H48.35C47.9689 17.0903 47.66 17.3993 47.66 17.7803V34.5103C47.66 34.8914 47.9689 35.2003 48.35 35.2003H65.37C65.7511 35.2003 66.06 34.8914 66.06 34.5103V17.7803C66.06 17.3993 65.7511 17.0903 65.37 17.0903Z" stroke="#C7C6C5" stroke-width="0.43" stroke-miterlimit="10"/>
<path d="M65.37 17.0903H48.35C47.9689 17.0903 47.66 17.3993 47.66 17.7803V34.5103C47.66 34.8914 47.9689 35.2003 48.35 35.2003H65.37C65.7511 35.2003 66.06 34.8914 66.06 34.5103V17.7803C66.06 17.3993 65.7511 17.0903 65.37 17.0903Z" stroke="#C7C6C5" stroke-width="0.43" stroke-miterlimit="10"/>
<path d="M110.12 34.5101V14.0001C110.12 13.6201 109.81 13.3101 109.43 13.3101H88.64C88.26 13.3101 87.95 13.6201 87.95 14.0001V16.3901C87.95 16.7701 88.26 17.0801 88.64 17.0801H106.35V34.5001C106.35 34.8801 106.66 35.1901 107.04 35.1901H109.44C109.82 35.1901 110.13 34.8801 110.13 34.5001" stroke="#C7C6C5" stroke-width="0.43" stroke-miterlimit="10"/>
<path d="M110.12 34.5101V14.0001C110.12 13.6201 109.81 13.3101 109.43 13.3101H88.64C88.26 13.3101 87.95 13.6201 87.95 14.0001V16.3901C87.95 16.7701 88.26 17.0801 88.64 17.0801H106.35V34.5001C106.35 34.8801 106.66 35.1901 107.04 35.1901H109.44C109.82 35.1901 110.13 34.8801 110.13 34.5001H110.12V34.5101Z" stroke="#C7C6C5" stroke-width="0.43" stroke-miterlimit="10"/>
<path d="M112.8 34.5102V11.1602C112.8 10.7802 112.49 10.4702 112.11 10.4702H88.64C88.26 10.4702 87.95 10.7802 87.95 11.1602V12.4602C87.95 12.8402 88.26 13.3102 88.64 13.3202H110.12V34.5202C110.12 34.9002 110.43 35.2102 110.81 35.2102H112.11C112.49 35.2102 112.8 34.9002 112.8 34.5202" stroke="#C7C6C5" stroke-width="0.43" stroke-miterlimit="10"/>
<path d="M112.8 34.5102V11.1602C112.8 10.7802 112.49 10.4702 112.11 10.4702H88.64C88.26 10.4702 87.95 10.7802 87.95 11.1602V12.4602C87.95 12.8402 88.26 13.3102 88.64 13.3202H110.12V34.5202C110.12 34.9002 110.43 35.2102 110.81 35.2102H112.11C112.49 35.2102 112.8 34.9002 112.8 34.5202V34.5102Z" stroke="#C7C6C5" stroke-width="0.43" stroke-miterlimit="10"/>
<path d="M106.33 17.0904L109.8 13.6504" stroke="#C7C6C5" stroke-width="0.43" stroke-miterlimit="10"/>
<path d="M88.63 17.0903H105.65C106.03 17.0903 106.34 17.4003 106.34 17.7803V34.5103C106.34 34.8903 106.03 35.2003 105.65 35.2003H88.63C88.25 35.2003 87.94 34.8903 87.94 34.5103V17.7803C87.94 17.4003 88.25 17.0903 88.63 17.0903Z" stroke="#C7C6C5" stroke-width="0.43" stroke-miterlimit="10"/>
<path d="M88.63 17.0903H105.65C106.03 17.0903 106.34 17.4003 106.34 17.7803V34.5103C106.34 34.8903 106.03 35.2003 105.65 35.2003H88.63C88.25 35.2003 87.94 34.8903 87.94 34.5103V17.7803C87.94 17.4003 88.25 17.0903 88.63 17.0903Z" stroke="#C7C6C5" stroke-width="0.43" stroke-miterlimit="10"/>
<path d="M201.29 213.86H182.93V245.67H201.29V213.86Z" stroke="#C7C6C5" stroke-width="0.43" stroke-linecap="round" stroke-linejoin="round"/>
<path d="M192.95 227.89C192.95 226.67 191.14 226.68 191.14 227.89C191.14 228.79 192.05 228.55 192.05 229.36" stroke="#C7C6C5" stroke-width="0.43" stroke-linecap="round" stroke-linejoin="round"/>
<path d="M192.05 229.36L198.14 231.41C198.14 231.41 198.7 231.62 198.62 232.24C198.54 232.85 197.97 232.79 197.97 232.79H186.14C186.14 232.79 185.51 232.86 185.43 232.24C185.35 231.63 185.96 231.41 185.96 231.41L192.05 229.36Z" stroke="#C7C6C5" stroke-width="0.43" stroke-linecap="round" stroke-linejoin="round"/>
<path d="M192.05 225.93V215.57" stroke="#C7C6C5" stroke-width="0.43" stroke-linecap="round" stroke-linejoin="round"/>
<path d="M192.05 244.36V233.9" stroke="#C7C6C5" stroke-width="0.43" stroke-linecap="round" stroke-linejoin="round"/>
<path d="M288.51 65.3901H270.89V88.5101H288.51V65.3901Z" stroke="#C7C6C5" stroke-width="0.43" stroke-miterlimit="10"/>
<path d="M288.51 10.46H270.89V47.76H288.51V10.46Z" stroke="#C7C6C5" stroke-width="0.43" stroke-miterlimit="10"/>
<path d="M288.51 88.5098H237.63V105.75H288.51V88.5098Z" stroke="#C7C6C5" stroke-width="0.43" stroke-miterlimit="10"/>
<path d="M288.51 47.77H270.89V65.39H288.51V47.77Z" stroke="#C7C6C5" stroke-width="0.43" stroke-miterlimit="10"/>
<path d="M288.51 47.77H270.89V65.39H288.51V47.77Z" stroke="#C7C6C5" stroke-width="0.43" stroke-miterlimit="10"/>
<path d="M274.05 49.27H285.37C286.27 49.27 286.99 50 286.99 50.89V62.27C286.99 63.17 286.26 63.89 285.37 63.89H274.05C273.15 63.89 272.43 63.16 272.43 62.27V50.9C272.43 50 273.16 49.28 274.05 49.28V49.27Z" stroke="#C7C6C5" stroke-width="0.43" stroke-miterlimit="10"/>
<path d="M274.05 49.27H285.37C286.27 49.27 286.99 50 286.99 50.89V62.27C286.99 63.17 286.26 63.89 285.37 63.89H274.05C273.15 63.89 272.43 63.16 272.43 62.27V50.9C272.43 50 273.16 49.28 274.05 49.28V49.27Z" stroke="#C7C6C5" stroke-width="0.43" stroke-miterlimit="10"/>
<path d="M283.85 61.6502C283.85 61.1302 284.28 60.7002 284.8 60.7002C285.32 60.7002 285.75 61.1202 285.75 61.6502C285.75 62.1802 285.33 62.6002 284.8 62.6002C284.27 62.6002 283.85 62.1802 283.85 61.6502Z" stroke="#C7C6C5" stroke-width="0.43" stroke-miterlimit="10"/>
<path d="M287.57 55.8599H282.19V57.2899H287.57V55.8599Z" stroke="#C7C6C5" stroke-width="0.43" stroke-miterlimit="10"/>
<path d="M270.89 10.46H253.37V29.05H270.89V10.46Z" stroke="#C7C6C5" stroke-width="0.43" stroke-miterlimit="10"/>
<path d="M261.06 21.2998L263.81 18.5498" stroke="#C7C6C5" stroke-width="0.43" stroke-miterlimit="10" stroke-linecap="round"/>
<path d="M263.81 21.2998L261.06 18.5498" stroke="#C7C6C5" stroke-width="0.43" stroke-miterlimit="10" stroke-linecap="round"/>
<path d="M265.68 19.9199H259.18" stroke="#C7C6C5" stroke-width="0.43" stroke-miterlimit="10" stroke-linecap="round"/>
<path d="M262.43 16.6699V23.1699" stroke="#C7C6C5" stroke-width="0.43" stroke-miterlimit="10" stroke-linecap="round"/>
<path d="M253.38 10.46H235.86V29.05H253.38V10.46Z" stroke="#C7C6C5" stroke-width="0.43" stroke-miterlimit="10"/>
<path d="M243.55 21.2998L246.3 18.5498" stroke="#C7C6C5" stroke-width="0.43" stroke-miterlimit="10" stroke-linecap="round"/>
<path d="M246.3 21.2998L243.55 18.5498" stroke="#C7C6C5" stroke-width="0.43" stroke-miterlimit="10" stroke-linecap="round"/>
<path d="M248.17 19.9199H241.67" stroke="#C7C6C5" stroke-width="0.43" stroke-miterlimit="10" stroke-linecap="round"/>
<path d="M244.92 16.6699V23.1699" stroke="#C7C6C5" stroke-width="0.43" stroke-miterlimit="10" stroke-linecap="round"/>
<path d="M145.43 177.5C145.43 177.5 146.56 177.47 146.56 178.63V204.82C146.56 206 145.43 205.95 145.43 205.95H95.48C95.48 205.95 94.35 205.98 94.35 204.82V178.63C94.35 177.45 95.48 177.5 95.48 177.5H145.43Z" stroke="#C7C6C5" stroke-width="0.43" stroke-miterlimit="10"/>
<path d="M143.78 182.64H133.97C133.434 182.64 133 183.074 133 183.61V199.86C133 200.396 133.434 200.83 133.97 200.83H143.78C144.316 200.83 144.75 200.396 144.75 199.86V183.61C144.75 183.074 144.316 182.64 143.78 182.64Z" stroke="#C7C6C5" stroke-width="0.43" stroke-miterlimit="10"/>
<path d="M131.85 177.5V205.96" stroke="#C7C6C5" stroke-width="0.43" stroke-miterlimit="10"/>
<path d="M141.18 205.96C141.18 205.24 142.03 205.25 142.03 205.25H145.43C145.52 205.25 145.68 205.23 145.77 205.14C145.84 205.07 145.86 204.93 145.86 204.82V178.63C145.86 178.48 145.83 178.38 145.77 178.32C145.67 178.23 145.47 178.2 145.45 178.2H142.04C142.04 178.2 141.19 178.23 141.19 177.49C141.19 176.75 142.04 176.78 142.04 176.78H145.45C145.57 176.78 145.98 176.8 146.39 177.02C146.97 177.33 147.28 177.9 147.28 178.62V204.81C147.28 205.51 146.99 205.93 146.75 206.16C146.21 206.68 145.48 206.66 145.4 206.65H142.03C142.03 206.65 141.18 206.67 141.18 205.94V205.96Z" stroke="#C7C6C5" stroke-width="0.43" stroke-miterlimit="10"/>
<path d="M142.05 177.5H145.45C145.45 177.5 146.58 177.47 146.58 178.63V204.82C146.58 206 145.45 205.95 145.45 205.95H142.05" stroke="#C7C6C5" stroke-width="0.43" stroke-miterlimit="10" stroke-linecap="round"/>
<path d="M280.13 149.31C279.67 149.31 279.3 148.94 279.3 148.47C279.3 148 279.67 147.64 280.13 147.64C280.59 147.64 280.96 148.01 280.96 148.47C280.96 148.93 280.59 149.31 280.13 149.31Z" stroke="#C7C6C5" stroke-width="0.43" stroke-linecap="round" stroke-linejoin="round"/>
<path d="M265.05 140.68V156.91H288.47V133.5H272.19C265.19 133.5 265.06 140.68 265.06 140.68H265.05Z" stroke="#C7C6C5" stroke-width="0.43" stroke-linecap="round" stroke-linejoin="round"/>
<path d="M268.17 154.03V140.68C268.19 140.02 268.46 136.61 272.19 136.61H285.67" stroke="#C7C6C5" stroke-width="0.43" stroke-linecap="round" stroke-linejoin="round"/>
<path d="M266.99 155.33C267.38 155.35 267.77 155.37 268.16 155.37C278.51 155.37 286.91 146.98 286.91 136.62C286.91 136.23 286.9 135.84 286.87 135.45H272.18C267.26 135.45 267 140.17 266.99 140.68V155.32V155.33Z" stroke="#C7C6C5" stroke-width="0.43" stroke-linecap="round" stroke-linejoin="round"/>
<path d="M286.49 140.58C285.74 140.03 285.25 139.13 285.25 138.13C285.25 136.98 285.89 135.97 286.84 135.45" stroke="#C7C6C5" stroke-width="0.43" stroke-linecap="round" stroke-linejoin="round"/>
<path d="M267.02 155.33C267.5 154.29 268.56 153.56 269.78 153.56C270.83 153.56 271.75 154.09 272.3 154.9" stroke="#C7C6C5" stroke-width="0.43" stroke-linecap="round" stroke-linejoin="round"/>
<path d="M280.49 147.73C281.75 146.57 283.24 145.65 284.89 145.07" stroke="#C7C6C5" stroke-width="0.43" stroke-linecap="round" stroke-linejoin="round"/>
<path d="M276.99 153.15C277.51 151.57 278.33 150.12 279.39 148.87" stroke="#C7C6C5" stroke-width="0.43" stroke-linecap="round" stroke-linejoin="round"/>
<path d="M280.49 150.73C279.28 148.56 278.68 147.86 278.95 147.46C279.22 147.06 280.08 147.49 282.34 148.87" stroke="#C7C6C5" stroke-width="0.43" stroke-linecap="round" stroke-linejoin="round"/>
<path d="M87.43 46.0598C89.62 48.9798 89.02 53.1298 86.1 55.3098C83.18 57.4998 79.03 56.8998 76.85 53.9798C74.66 51.0598 75.26 46.9098 78.18 44.7298C81.1 42.5398 85.25 43.1398 87.43 46.0598Z" stroke="#C7C6C5" stroke-width="0.43" stroke-miterlimit="10"/>
<path d="M99.3 44.88C102.08 48.6 101.33 53.87 97.61 56.66C93.89 59.44 88.62 58.69 85.83 54.97C83.05 51.25 83.8 45.98 87.52 43.19C91.24 40.4 96.51 41.16 99.3 44.88Z" stroke="#C7C6C5" stroke-width="0.43" stroke-miterlimit="10"/>
<path d="M86.74 114.97C81.55 114.97 77.54 122.08 76.55 126.45C75.56 130.82 79.11 135.11 86.74 135.11C94.37 135.11 97.91 130.82 96.93 126.45C95.94 122.08 91.93 114.97 86.74 114.97Z" stroke="#C7C6C5" stroke-width="0.43" stroke-miterlimit="10"/>
<path d="M80.1 125.04C81.6 124.05 81.93 122.05 81.93 122.05C81.93 122.05 83.3 121.63 84.3 120.22C84.3 120.22 85.76 120.48 86.74 120.48C87.72 120.48 89.18 120.22 89.18 120.22C90.18 121.64 91.55 122.05 91.55 122.05C91.55 122.05 91.88 124.05 93.38 125.04" stroke="#C7C6C5" stroke-width="0.43" stroke-miterlimit="10"/>
<path d="M185.19 76.3097C185.19 76.3097 183.61 76.9997 183.01 76.9997C182.62 76.9997 181.45 76.2497 181.45 71.1097C181.45 65.9697 182.62 65.2197 183.01 65.2197C183.84 65.2197 185.19 65.9097 185.19 65.9097" stroke="#C7C6C5" stroke-width="0.43" stroke-miterlimit="10"/>
<path d="M182.06 71.1095C182.06 67.8595 184.69 65.2295 187.94 65.2295C191.19 65.2295 193.82 67.8595 193.82 71.1095C193.82 74.3595 191.19 76.9895 187.94 76.9895C184.69 76.9895 182.06 74.3595 182.06 71.1095Z" stroke="#C7C6C5" stroke-width="0.43" stroke-miterlimit="10"/>
<path d="M185.19 62.4997C185.19 62.4997 183.61 63.1897 183.01 63.1897C182.62 63.1897 181.45 62.4397 181.45 57.2997C181.45 52.1597 182.62 51.4097 183.01 51.4097C183.84 51.4097 185.19 52.0997 185.19 52.0997" stroke="#C7C6C5" stroke-width="0.43" stroke-miterlimit="10"/>
<path d="M182.06 57.2897C182.06 54.0397 184.69 51.4097 187.94 51.4097C191.19 51.4097 193.82 54.0397 193.82 57.2897C193.82 60.5397 191.19 63.1697 187.94 63.1697C184.69 63.1697 182.06 60.5397 182.06 57.2897Z" stroke="#C7C6C5" stroke-width="0.43" stroke-miterlimit="10"/>
<path d="M178.99 44.6697C178.99 44.6697 177.38 44.0397 176.96 43.6097C176.68 43.3297 176.39 41.9797 180.02 38.3397C183.65 34.6997 185.01 34.9997 185.29 35.2797C185.88 35.8697 186.34 37.3097 186.34 37.3097" stroke="#C7C6C5" stroke-width="0.43" stroke-miterlimit="10"/>
<path d="M180.47 38.7797C182.77 36.4797 186.49 36.4797 188.78 38.7797C191.08 41.0797 191.08 44.7997 188.78 47.0897C186.48 49.3797 182.76 49.3897 180.47 47.0897C178.17 44.7897 178.17 41.0697 180.47 38.7797Z" stroke="#C7C6C5" stroke-width="0.43" stroke-miterlimit="10"/>
<path d="M218.27 33.3599H187.63V81.2299H218.27V33.3599Z" stroke="#C7C6C5" stroke-width="0.43" stroke-miterlimit="10"/>
<path d="M218.29 48.5601H200.67V66.0201H218.29V48.5601Z" stroke="#C7C6C5" stroke-width="0.43" stroke-miterlimit="10"/>
<path d="M205.41 55.6902C206.857 55.6902 208.03 54.5172 208.03 53.0702C208.03 51.6232 206.857 50.4502 205.41 50.4502C203.963 50.4502 202.79 51.6232 202.79 53.0702C202.79 54.5172 203.963 55.6902 205.41 55.6902Z" stroke="#C7C6C5" stroke-width="0.43" stroke-miterlimit="10"/>
<path d="M213.99 55.6902C215.437 55.6902 216.61 54.5172 216.61 53.0702C216.61 51.6232 215.437 50.4502 213.99 50.4502C212.543 50.4502 211.37 51.6232 211.37 53.0702C211.37 54.5172 212.543 55.6902 213.99 55.6902Z" stroke="#C7C6C5" stroke-width="0.43" stroke-miterlimit="10"/>
<path d="M205.41 63.5999C206.857 63.5999 208.03 62.4268 208.03 60.9799C208.03 59.5329 206.857 58.3599 205.41 58.3599C203.963 58.3599 202.79 59.5329 202.79 60.9799C202.79 62.4268 203.963 63.5999 205.41 63.5999Z" stroke="#C7C6C5" stroke-width="0.43" stroke-miterlimit="10"/>
<path d="M213.99 63.5999C215.437 63.5999 216.61 62.4268 216.61 60.9799C216.61 59.5329 215.437 58.3599 213.99 58.3599C212.543 58.3599 211.37 59.5329 211.37 60.9799C211.37 62.4268 212.543 63.5999 213.99 63.5999Z" stroke="#C7C6C5" stroke-width="0.43" stroke-miterlimit="10"/>
<path d="M200.67 66.02V81.23" stroke="#C7C6C5" stroke-width="0.43" stroke-miterlimit="10"/>
<path d="M200.67 33.3599V48.5599" stroke="#C7C6C5" stroke-width="0.43" stroke-miterlimit="10"/>
<path d="M132.65 64.1396V63.4196L135.41 59.8096H136.52L133.8 63.4196L133.28 63.2596H137.72V64.1396H132.65ZM135.72 65.4096V64.1396L135.75 63.2596V62.1296H136.73V65.4096H135.72Z" fill="#C42F20"/>
<path d="M140.49 65.4895C140.03 65.4895 139.62 65.4195 139.28 65.2795C138.94 65.1395 138.67 64.9495 138.49 64.6895C138.3 64.4395 138.21 64.1395 138.21 63.7995C138.21 63.4595 138.3 63.1695 138.48 62.9395C138.66 62.6995 138.92 62.5295 139.26 62.3995C139.6 62.2695 140.01 62.2195 140.48 62.2195C140.95 62.2195 141.36 62.2795 141.71 62.3995C142.05 62.5195 142.32 62.6995 142.5 62.9395C142.68 63.1795 142.78 63.4595 142.78 63.7995C142.78 64.1395 142.69 64.4395 142.5 64.6895C142.31 64.9395 142.04 65.1395 141.7 65.2795C141.36 65.4195 140.95 65.4895 140.49 65.4895ZM140.49 62.7595C140.06 62.7595 139.69 62.6995 139.38 62.5895C139.07 62.4795 138.83 62.3095 138.67 62.0895C138.5 61.8695 138.42 61.5995 138.42 61.2895C138.42 60.9795 138.51 60.6895 138.68 60.4595C138.85 60.2295 139.1 60.0495 139.41 59.9195C139.72 59.7895 140.09 59.7295 140.5 59.7295C140.91 59.7295 141.28 59.7895 141.6 59.9195C141.92 60.0495 142.16 60.2295 142.34 60.4595C142.52 60.6895 142.6 60.9695 142.6 61.2895C142.6 61.6095 142.52 61.8695 142.35 62.0895C142.18 62.3095 141.94 62.4795 141.63 62.5895C141.32 62.7095 140.94 62.7595 140.51 62.7595H140.49ZM140.49 64.6695C140.87 64.6695 141.18 64.5895 141.4 64.4295C141.62 64.2695 141.74 64.0495 141.74 63.7695C141.74 63.4895 141.63 63.2695 141.4 63.1095C141.18 62.9495 140.87 62.8695 140.49 62.8695C140.11 62.8695 139.8 62.9495 139.59 63.1095C139.38 63.2695 139.26 63.4895 139.26 63.7695C139.26 64.0495 139.37 64.2695 139.59 64.4295C139.81 64.5895 140.11 64.6695 140.49 64.6695ZM140.49 62.1195C140.82 62.1195 141.08 62.0495 141.27 61.9095C141.46 61.7695 141.56 61.5795 141.56 61.3395C141.56 61.0995 141.46 60.8895 141.26 60.7595C141.06 60.6295 140.8 60.5495 140.48 60.5495C140.16 60.5495 139.9 60.6195 139.71 60.7595C139.52 60.8995 139.42 61.0895 139.42 61.3395C139.42 61.5895 139.51 61.7695 139.7 61.9095C139.89 62.0495 140.15 62.1195 140.47 62.1195H140.49Z" fill="#C42F20"/>
<path d="M143.58 66.6197L144.04 64.8496L144.18 65.4397C143.99 65.4397 143.84 65.3796 143.71 65.2696C143.59 65.1496 143.52 64.9997 143.52 64.7997C143.52 64.5997 143.58 64.4396 143.71 64.3196C143.84 64.1996 143.99 64.1396 144.17 64.1396C144.35 64.1396 144.51 64.1996 144.63 64.3196C144.75 64.4396 144.81 64.5997 144.81 64.7997C144.81 64.8497 144.81 64.9097 144.79 64.9697C144.78 65.0297 144.76 65.0996 144.74 65.1796C144.72 65.2596 144.68 65.3597 144.62 65.4797L144.21 66.6096H143.56L143.58 66.6197Z" fill="#C42F20"/>
<path d="M145.37 64.1396V63.4196L148.13 59.8096H149.24L146.52 63.4196L146 63.2596H150.44V64.1396H145.37ZM148.44 65.4096V64.1396L148.47 63.2596V62.1296H149.45V65.4096H148.44Z" fill="#C42F20"/>
<path d="M152.73 59.7297C153.24 59.7297 153.68 59.8397 154.04 60.0497C154.4 60.2697 154.68 60.5797 154.87 60.9897C155.06 61.3997 155.16 61.9097 155.16 62.5097C155.16 63.1497 155.04 63.6897 154.81 64.1297C154.58 64.5697 154.26 64.9097 153.85 65.1397C153.44 65.3697 152.96 65.4797 152.42 65.4797C152.14 65.4797 151.87 65.4497 151.61 65.3897C151.35 65.3297 151.13 65.2397 150.95 65.1197L151.33 64.3397C151.48 64.4397 151.65 64.5097 151.83 64.5497C152.01 64.5897 152.2 64.6097 152.39 64.6097C152.92 64.6097 153.34 64.4497 153.65 64.1197C153.96 63.7897 154.11 63.3197 154.11 62.6797C154.11 62.5797 154.11 62.4597 154.11 62.3197C154.11 62.1797 154.09 62.0497 154.05 61.9097L154.37 62.2597C154.28 62.4797 154.15 62.6597 153.98 62.8097C153.81 62.9597 153.61 63.0697 153.38 63.1397C153.15 63.2097 152.9 63.2497 152.62 63.2497C152.26 63.2497 151.93 63.1797 151.64 63.0397C151.35 62.8997 151.12 62.6997 150.95 62.4397C150.78 62.1797 150.69 61.8797 150.69 61.5297C150.69 61.1597 150.78 60.8397 150.96 60.5697C151.14 60.2997 151.39 60.0897 151.7 59.9397C152.01 59.7897 152.36 59.7197 152.74 59.7197L152.73 59.7297ZM152.78 60.5497C152.57 60.5497 152.38 60.5897 152.21 60.6697C152.04 60.7497 151.92 60.8597 151.82 60.9997C151.73 61.1397 151.68 61.3097 151.68 61.5097C151.68 61.7997 151.78 62.0397 151.98 62.2097C152.18 62.3797 152.45 62.4697 152.8 62.4697C153.02 62.4697 153.22 62.4297 153.39 62.3497C153.56 62.2697 153.69 62.1497 153.79 62.0097C153.89 61.8697 153.93 61.6997 153.93 61.5197C153.93 61.3397 153.89 61.1897 153.79 61.0397C153.7 60.8997 153.57 60.7897 153.4 60.6997C153.23 60.6197 153.02 60.5697 152.77 60.5697L152.78 60.5497Z" fill="#C42F20"/>
<path d="M133.66 74.86L135.97 69.68L136.24 70.14H133.06L133.56 69.64V71.1H132.59V69.27H136.94V69.97L134.76 74.87H133.65L133.66 74.86Z" fill="#C42F20"/>
<path d="M139.3 74.94C138.91 74.94 138.52 74.88 138.14 74.77C137.76 74.65 137.45 74.5 137.19 74.29L137.63 73.48C137.83 73.65 138.08 73.78 138.37 73.88C138.66 73.98 138.96 74.03 139.28 74.03C139.65 74.03 139.94 73.95 140.15 73.8C140.36 73.64 140.47 73.44 140.47 73.18C140.47 73 140.43 72.85 140.34 72.72C140.25 72.59 140.1 72.48 139.88 72.42C139.66 72.35 139.36 72.32 138.97 72.32H137.62L137.91 69.27H141.2V70.14H138.3L138.84 69.64L138.62 71.92L138.08 71.43H139.21C139.76 71.43 140.21 71.5 140.55 71.65C140.89 71.8 141.14 72 141.29 72.26C141.45 72.52 141.53 72.81 141.53 73.14C141.53 73.47 141.45 73.76 141.29 74.04C141.13 74.31 140.89 74.53 140.56 74.7C140.23 74.87 139.82 74.95 139.32 74.95L139.3 74.94Z" fill="#C42F20"/>
<path d="M142.16 76.0698L142.62 74.2999L142.76 74.8898C142.57 74.8898 142.42 74.8298 142.29 74.7198C142.16 74.5998 142.1 74.4498 142.1 74.2498C142.1 74.0498 142.16 73.8898 142.29 73.7698C142.42 73.6498 142.57 73.5898 142.75 73.5898C142.93 73.5898 143.09 73.6498 143.21 73.7698C143.33 73.8898 143.39 74.0498 143.39 74.2498C143.39 74.2998 143.39 74.3598 143.37 74.4198C143.36 74.4798 143.34 74.5498 143.32 74.6298C143.3 74.7098 143.26 74.8098 143.2 74.9298L142.79 76.0598H142.14L142.16 76.0698Z" fill="#C42F20"/>
<path d="M146.4 74.9399C145.89 74.9399 145.46 74.8299 145.1 74.6199C144.74 74.3999 144.46 74.0899 144.27 73.6799C144.08 73.2699 143.98 72.7599 143.98 72.1599C143.98 71.5199 144.1 70.9799 144.33 70.5399C144.56 70.0999 144.88 69.7599 145.3 69.5299C145.72 69.2999 146.19 69.1899 146.73 69.1899C147.01 69.1899 147.28 69.2199 147.54 69.2799C147.8 69.3399 148.02 69.4299 148.2 69.5499L147.82 70.3299C147.66 70.2299 147.5 70.1599 147.32 70.1199C147.14 70.0799 146.95 70.0599 146.76 70.0599C146.23 70.0599 145.81 70.2199 145.5 70.5499C145.19 70.8799 145.04 71.3599 145.04 71.9899C145.04 72.0899 145.04 72.2099 145.04 72.3499C145.04 72.4899 145.06 72.6199 145.1 72.7599L144.78 72.4099C144.88 72.1899 145.01 72.0099 145.18 71.8599C145.35 71.7099 145.55 71.5999 145.78 71.5299C146.01 71.4499 146.26 71.4199 146.54 71.4199C146.91 71.4199 147.24 71.4899 147.52 71.6299C147.81 71.7699 148.04 71.9699 148.21 72.2299C148.38 72.4899 148.47 72.7899 148.47 73.1399C148.47 73.5099 148.38 73.8299 148.2 74.0999C148.02 74.3699 147.77 74.5799 147.46 74.7299C147.15 74.8799 146.8 74.9499 146.42 74.9499L146.4 74.9399ZM146.34 74.1199C146.55 74.1199 146.74 74.0799 146.91 73.9999C147.08 73.9199 147.2 73.8099 147.3 73.6699C147.39 73.5299 147.44 73.3599 147.44 73.1699C147.44 72.8799 147.34 72.6499 147.14 72.4699C146.94 72.2999 146.66 72.2099 146.32 72.2099C146.1 72.2099 145.9 72.2499 145.73 72.3299C145.56 72.4099 145.43 72.5299 145.33 72.6699C145.23 72.8099 145.18 72.9799 145.18 73.1699C145.18 73.3399 145.23 73.4999 145.32 73.6399C145.41 73.7799 145.54 73.8999 145.72 73.9799C145.89 74.0699 146.1 74.1099 146.35 74.1099L146.34 74.1199Z" fill="#C42F20"/>
<path d="M150.88 69.1799C151.39 69.1799 151.83 69.2899 152.19 69.4999C152.55 69.7199 152.83 70.0299 153.02 70.4399C153.21 70.8499 153.31 71.3599 153.31 71.9599C153.31 72.5999 153.19 73.1399 152.96 73.5799C152.73 74.0199 152.41 74.3599 152 74.5899C151.59 74.8199 151.11 74.9299 150.57 74.9299C150.29 74.9299 150.02 74.8999 149.76 74.8399C149.5 74.7799 149.28 74.6899 149.1 74.5699L149.48 73.7899C149.64 73.8899 149.8 73.9599 149.98 73.9999C150.16 74.0399 150.35 74.0599 150.54 74.0599C151.07 74.0599 151.49 73.8999 151.8 73.5699C152.11 73.2399 152.26 72.7699 152.26 72.1299C152.26 72.0299 152.26 71.9099 152.26 71.7699C152.26 71.6299 152.24 71.4999 152.2 71.3599L152.52 71.7099C152.43 71.9299 152.3 72.1099 152.13 72.2599C151.96 72.4099 151.76 72.5199 151.53 72.5899C151.3 72.6599 151.05 72.6999 150.77 72.6999C150.41 72.6999 150.08 72.6299 149.79 72.4899C149.5 72.3499 149.27 72.1499 149.1 71.8899C148.93 71.6299 148.84 71.3299 148.84 70.9799C148.84 70.6099 148.93 70.2899 149.11 70.0199C149.29 69.7499 149.54 69.5399 149.85 69.3899C150.16 69.2399 150.51 69.1699 150.89 69.1699L150.88 69.1799ZM150.94 69.9999C150.73 69.9999 150.54 70.0399 150.37 70.1199C150.2 70.1999 150.08 70.3099 149.98 70.4499C149.88 70.5899 149.84 70.7599 149.84 70.9599C149.84 71.2499 149.94 71.4899 150.14 71.6599C150.34 71.8299 150.61 71.9199 150.96 71.9199C151.18 71.9199 151.38 71.8799 151.55 71.7999C151.72 71.7199 151.85 71.5999 151.95 71.4599C152.05 71.3099 152.09 71.1499 152.09 70.9699C152.09 70.7899 152.05 70.6399 151.95 70.4899C151.86 70.3499 151.73 70.2399 151.56 70.1499C151.39 70.0699 151.18 70.0199 150.93 70.0199L150.94 69.9999Z" fill="#C42F20"/>
<path d="M97.99 76.6399V75.3799L101.23 72.3199C101.49 72.0899 101.67 71.8799 101.79 71.6999C101.91 71.5199 101.99 71.3499 102.04 71.1999C102.08 71.0499 102.11 70.9099 102.11 70.7799C102.11 70.4399 102 70.1899 101.77 70.0099C101.54 69.8299 101.21 69.7399 100.77 69.7399C100.42 69.7399 100.09 69.8099 99.79 69.9399C99.49 70.0699 99.24 70.2899 99.03 70.5799L97.61 69.6699C97.93 69.1899 98.38 68.8099 98.95 68.5299C99.52 68.2499 100.19 68.1099 100.94 68.1099C101.56 68.1099 102.11 68.2099 102.58 68.4199C103.05 68.6299 103.41 68.9099 103.67 69.2799C103.93 69.6499 104.06 70.0899 104.06 70.5999C104.06 70.8699 104.03 71.1399 103.96 71.4099C103.89 71.6799 103.76 71.9599 103.55 72.2599C103.34 72.5599 103.05 72.8899 102.66 73.2599L99.97 75.7899L99.6 75.0799H104.34V76.6599H97.99V76.6399Z" fill="#C42F20"/>
<path d="M104.82 76.6397L108.56 68.2397H110.48L114.24 76.6397H112.2L109.13 69.2197H109.9L106.82 76.6397H104.83H104.82ZM106.69 74.8397L107.21 73.3597H111.53L112.06 74.8397H106.7H106.69Z" fill="#C42F20"/>
<path d="M114.66 74.0098V72.5098H118.06V74.0098H114.66Z" fill="#C42F20"/>
<path d="M121.62 76.78C121.04 76.78 120.46 76.7 119.88 76.55C119.3 76.4 118.82 76.17 118.42 75.88L119.18 74.39C119.5 74.62 119.87 74.81 120.3 74.94C120.72 75.08 121.15 75.14 121.58 75.14C122.07 75.14 122.45 75.04 122.73 74.85C123.01 74.66 123.15 74.39 123.15 74.06C123.15 73.73 123.03 73.49 122.78 73.3C122.53 73.12 122.13 73.02 121.58 73.02H120.69V71.74L123.03 69.09L123.25 69.79H118.85V68.23H124.73V69.49L122.4 72.14L121.42 71.58H121.98C123.01 71.58 123.79 71.81 124.32 72.28C124.85 72.74 125.11 73.34 125.11 74.07C125.11 74.54 124.99 74.98 124.74 75.4C124.49 75.82 124.11 76.15 123.6 76.4C123.09 76.65 122.43 76.78 121.63 76.78H121.62Z" fill="#C42F20"/>
<path d="M133.66 83.9699L135.97 78.7899L136.24 79.2499H133.06L133.56 78.7499V80.2099H132.59V78.3799H136.94V79.0799L134.76 83.9799H133.65L133.66 83.9699Z" fill="#C42F20"/>
<path d="M139.85 84.0498C139.34 84.0498 138.91 83.9398 138.55 83.7298C138.19 83.5098 137.91 83.1998 137.72 82.7898C137.53 82.3798 137.43 81.8698 137.43 81.2698C137.43 80.6298 137.55 80.0898 137.78 79.6498C138.01 79.2098 138.33 78.8698 138.75 78.6398C139.16 78.4098 139.64 78.2998 140.18 78.2998C140.46 78.2998 140.73 78.3298 140.99 78.3898C141.25 78.4498 141.47 78.5398 141.65 78.6598L141.27 79.4398C141.12 79.3398 140.95 79.2698 140.77 79.2298C140.59 79.1898 140.4 79.1698 140.21 79.1698C139.68 79.1698 139.26 79.3298 138.95 79.6598C138.64 79.9898 138.49 80.4698 138.49 81.0998C138.49 81.1998 138.49 81.3198 138.49 81.4598C138.49 81.5998 138.51 81.7298 138.55 81.8698L138.23 81.5198C138.33 81.2998 138.46 81.1198 138.63 80.9698C138.8 80.8198 139 80.7098 139.23 80.6398C139.46 80.5598 139.71 80.5298 139.99 80.5298C140.36 80.5298 140.69 80.5998 140.97 80.7398C141.26 80.8798 141.49 81.0798 141.66 81.3398C141.83 81.5998 141.92 81.8998 141.92 82.2498C141.92 82.6198 141.83 82.9398 141.65 83.2098C141.47 83.4798 141.22 83.6898 140.91 83.8398C140.6 83.9898 140.25 84.0598 139.87 84.0598L139.85 84.0498ZM139.8 83.2298C140.01 83.2298 140.2 83.1898 140.37 83.1098C140.54 83.0298 140.66 82.9198 140.76 82.7798C140.85 82.6398 140.9 82.4698 140.9 82.2798C140.9 81.9898 140.8 81.7598 140.6 81.5798C140.4 81.3998 140.13 81.3198 139.78 81.3198C139.56 81.3198 139.36 81.3598 139.19 81.4398C139.02 81.5198 138.89 81.6398 138.79 81.7798C138.69 81.9198 138.64 82.0898 138.64 82.2798C138.64 82.4498 138.68 82.6098 138.77 82.7498C138.86 82.8898 138.99 83.0098 139.17 83.0898C139.34 83.1798 139.55 83.2198 139.8 83.2198V83.2298Z" fill="#C42F20"/>
<path d="M142.57 85.1802L143.03 83.4102L143.17 84.0002C142.98 84.0002 142.83 83.9402 142.7 83.8302C142.58 83.7102 142.51 83.5602 142.51 83.3602C142.51 83.1602 142.57 83.0002 142.7 82.8802C142.83 82.7602 142.98 82.7002 143.16 82.7002C143.34 82.7002 143.5 82.7602 143.62 82.8802C143.74 83.0002 143.8 83.1602 143.8 83.3602C143.8 83.4102 143.8 83.4702 143.78 83.5302C143.77 83.5902 143.75 83.6602 143.73 83.7402C143.71 83.8202 143.67 83.9202 143.61 84.0402L143.2 85.1702H142.55L142.57 85.1802Z" fill="#C42F20"/>
<path d="M146.33 84.0499C145.94 84.0499 145.55 83.9899 145.17 83.8799C144.79 83.7599 144.48 83.6099 144.22 83.3999L144.66 82.5899C144.86 82.7599 145.11 82.8899 145.4 82.9899C145.69 83.0899 145.99 83.1399 146.31 83.1399C146.68 83.1399 146.97 83.0599 147.18 82.9099C147.39 82.7499 147.5 82.5499 147.5 82.2899C147.5 82.1099 147.46 81.9599 147.37 81.8299C147.28 81.6999 147.13 81.5899 146.91 81.5299C146.69 81.4599 146.39 81.4299 146 81.4299H144.65L144.94 78.3799H148.23V79.2499H145.33L145.87 78.7499L145.66 81.0299L145.12 80.5399H146.25C146.8 80.5399 147.25 80.6099 147.59 80.7599C147.93 80.9099 148.18 81.1099 148.33 81.3699C148.49 81.6299 148.57 81.9199 148.57 82.2499C148.57 82.5799 148.49 82.8699 148.33 83.1499C148.17 83.4199 147.93 83.6399 147.6 83.8099C147.27 83.9799 146.86 84.0599 146.36 84.0599L146.33 84.0499Z" fill="#C42F20"/>
<path d="M151.4 84.05C150.94 84.05 150.53 83.98 150.19 83.84C149.85 83.7 149.58 83.51 149.4 83.25C149.21 83 149.12 82.7 149.12 82.36C149.12 82.02 149.21 81.73 149.39 81.5C149.57 81.26 149.83 81.09 150.17 80.96C150.51 80.83 150.92 80.78 151.39 80.78C151.86 80.78 152.27 80.84 152.62 80.96C152.96 81.08 153.23 81.26 153.41 81.5C153.59 81.74 153.69 82.02 153.69 82.36C153.69 82.7 153.6 83 153.41 83.25C153.22 83.5 152.95 83.7 152.61 83.84C152.27 83.98 151.86 84.05 151.4 84.05ZM151.4 81.32C150.97 81.32 150.6 81.26 150.29 81.15C149.98 81.04 149.74 80.87 149.58 80.65C149.41 80.43 149.33 80.16 149.33 79.85C149.33 79.54 149.42 79.25 149.59 79.02C149.76 78.79 150.01 78.61 150.32 78.48C150.63 78.35 151 78.29 151.41 78.29C151.82 78.29 152.19 78.35 152.51 78.48C152.83 78.61 153.07 78.79 153.25 79.02C153.43 79.25 153.51 79.53 153.51 79.85C153.51 80.17 153.43 80.43 153.26 80.65C153.09 80.87 152.85 81.04 152.54 81.15C152.23 81.27 151.85 81.32 151.42 81.32H151.4ZM151.4 83.23C151.78 83.23 152.09 83.15 152.31 82.99C152.53 82.83 152.65 82.61 152.65 82.33C152.65 82.05 152.54 81.83 152.31 81.67C152.09 81.51 151.78 81.43 151.4 81.43C151.02 81.43 150.71 81.51 150.5 81.67C150.29 81.83 150.17 82.05 150.17 82.33C150.17 82.61 150.28 82.83 150.5 82.99C150.72 83.15 151.02 83.23 151.4 83.23ZM151.4 80.68C151.73 80.68 151.99 80.61 152.18 80.47C152.37 80.33 152.47 80.14 152.47 79.9C152.47 79.66 152.37 79.45 152.17 79.32C151.97 79.19 151.71 79.11 151.39 79.11C151.07 79.11 150.81 79.18 150.62 79.32C150.43 79.46 150.33 79.65 150.33 79.9C150.33 80.15 150.42 80.33 150.61 80.47C150.8 80.61 151.06 80.68 151.38 80.68H151.4Z" fill="#C42F20"/>
<path d="M129.36 87.5098V55.2998" stroke="#C42F20" stroke-miterlimit="10"/>
<path d="M135.83 35.3199V34.6199L138.05 32.5099C138.24 32.3299 138.38 32.1799 138.47 32.0499C138.56 31.9199 138.62 31.7899 138.65 31.6799C138.68 31.5599 138.69 31.4599 138.69 31.3599C138.69 31.0999 138.6 30.8999 138.43 30.7599C138.25 30.6199 138 30.5499 137.65 30.5499C137.38 30.5499 137.13 30.5999 136.91 30.6899C136.69 30.7799 136.5 30.9299 136.34 31.1299L135.61 30.5699C135.83 30.2799 136.12 30.0499 136.49 29.8899C136.86 29.7299 137.28 29.6499 137.73 29.6499C138.14 29.6499 138.49 29.7199 138.79 29.8499C139.09 29.9799 139.32 30.1699 139.49 30.4099C139.65 30.6499 139.73 30.9399 139.73 31.2699C139.73 31.4499 139.71 31.6299 139.66 31.8099C139.61 31.9899 139.52 32.1799 139.39 32.3699C139.26 32.5699 139.06 32.7899 138.81 33.0299L136.9 34.8499L136.68 34.4599H139.95V35.3399H135.82L135.83 35.3199Z" fill="#13110C"/>
<path d="M142.45 29.6399C142.96 29.6399 143.4 29.7499 143.76 29.9599C144.12 30.1799 144.4 30.4899 144.59 30.8999C144.78 31.3099 144.88 31.8199 144.88 32.4199C144.88 33.0599 144.76 33.5999 144.53 34.0399C144.3 34.4799 143.98 34.8199 143.57 35.0499C143.16 35.2799 142.68 35.3899 142.14 35.3899C141.86 35.3899 141.59 35.3599 141.33 35.2999C141.07 35.2399 140.85 35.1499 140.67 35.0299L141.05 34.2499C141.2 34.3499 141.37 34.4199 141.55 34.4599C141.73 34.4999 141.92 34.5199 142.11 34.5199C142.64 34.5199 143.06 34.3599 143.37 34.0299C143.68 33.6999 143.83 33.2299 143.83 32.5899C143.83 32.4899 143.83 32.3699 143.83 32.2299C143.83 32.0899 143.81 31.9599 143.77 31.8199L144.09 32.1699C144 32.3899 143.87 32.5699 143.7 32.7199C143.53 32.8699 143.33 32.9799 143.1 33.0499C142.87 33.1199 142.62 33.1599 142.34 33.1599C141.98 33.1599 141.65 33.0899 141.36 32.9499C141.07 32.8099 140.84 32.6099 140.67 32.3499C140.5 32.0899 140.41 31.7899 140.41 31.4399C140.41 31.0699 140.5 30.7499 140.68 30.4799C140.86 30.2099 141.11 29.9999 141.42 29.8499C141.73 29.6999 142.08 29.6299 142.46 29.6299L142.45 29.6399ZM142.51 30.4599C142.3 30.4599 142.11 30.4999 141.94 30.5799C141.77 30.6599 141.65 30.7699 141.55 30.9099C141.46 31.0499 141.41 31.2199 141.41 31.4199C141.41 31.7099 141.51 31.9499 141.71 32.1199C141.91 32.2899 142.18 32.3799 142.53 32.3799C142.75 32.3799 142.95 32.3399 143.12 32.2599C143.29 32.1799 143.42 32.0599 143.52 31.9199C143.62 31.7699 143.66 31.6099 143.66 31.4299C143.66 31.2499 143.61 31.0999 143.52 30.9499C143.43 30.8099 143.3 30.6999 143.13 30.6099C142.96 30.5299 142.75 30.4799 142.5 30.4799L142.51 30.4599Z" fill="#13110C"/>
<path d="M145.52 36.5298L145.98 34.7598L146.12 35.3498C145.93 35.3498 145.78 35.2898 145.65 35.1798C145.52 35.0598 145.46 34.9098 145.46 34.7098C145.46 34.5098 145.52 34.3498 145.65 34.2298C145.77 34.1098 145.93 34.0498 146.11 34.0498C146.29 34.0498 146.45 34.1098 146.57 34.2298C146.69 34.3498 146.75 34.5098 146.75 34.7098C146.75 34.7598 146.75 34.8198 146.73 34.8798C146.72 34.9398 146.7 35.0098 146.68 35.0898C146.66 35.1698 146.62 35.2698 146.56 35.3898L146.15 36.5198H145.5L145.52 36.5298Z" fill="#13110C"/>
<path d="M149.67 35.3997C149.23 35.3997 148.83 35.2897 148.47 35.0597C148.12 34.8397 147.84 34.5097 147.63 34.0797C147.43 33.6497 147.33 33.1296 147.33 32.5196C147.33 31.9096 147.43 31.3896 147.63 30.9596C147.83 30.5296 148.11 30.1996 148.47 29.9796C148.82 29.7596 149.22 29.6396 149.67 29.6396C150.12 29.6396 150.52 29.7496 150.87 29.9796C151.22 30.1996 151.5 30.5296 151.71 30.9596C151.92 31.3896 152.02 31.9096 152.02 32.5196C152.02 33.1296 151.92 33.6497 151.71 34.0797C151.5 34.5097 151.23 34.8397 150.87 35.0597C150.52 35.2797 150.12 35.3997 149.67 35.3997ZM149.67 34.4996C149.93 34.4996 150.16 34.4296 150.35 34.2896C150.54 34.1496 150.69 33.9296 150.8 33.6396C150.91 33.3496 150.96 32.9796 150.96 32.5296C150.96 32.0796 150.91 31.6996 150.8 31.4096C150.69 31.1196 150.54 30.8996 150.35 30.7596C150.16 30.6196 149.93 30.5496 149.67 30.5496C149.41 30.5496 149.2 30.6196 149 30.7596C148.8 30.8996 148.65 31.1196 148.54 31.4096C148.43 31.6996 148.38 32.0696 148.38 32.5296C148.38 32.9896 148.43 33.3496 148.54 33.6396C148.65 33.9296 148.8 34.1496 149 34.2896C149.19 34.4296 149.42 34.4996 149.67 34.4996Z" fill="#13110C"/>
<path d="M153.62 35.32L155.93 30.14L156.2 30.6H153.02L153.52 30.1V31.56H152.55V29.73H156.9V30.43L154.72 35.33H153.61L153.62 35.32Z" fill="#13110C"/>
<path d="M87.09 156.19V150.99L87.55 151.46H85.91V150.59H88.13V156.19H87.09Z" fill="#13110C"/>
<path d="M89.17 156.19V155.49L91.39 153.38C91.58 153.2 91.72 153.05 91.81 152.92C91.9 152.79 91.96 152.66 91.99 152.55C92.02 152.43 92.03 152.33 92.03 152.23C92.03 151.97 91.94 151.77 91.77 151.63C91.59 151.49 91.34 151.42 90.99 151.42C90.72 151.42 90.47 151.47 90.25 151.56C90.03 151.65 89.84 151.8 89.68 152L88.95 151.44C89.17 151.15 89.46 150.92 89.83 150.76C90.2 150.6 90.62 150.52 91.07 150.52C91.48 150.52 91.83 150.59 92.13 150.72C92.43 150.85 92.66 151.04 92.83 151.28C92.99 151.52 93.07 151.81 93.07 152.14C93.07 152.32 93.05 152.5 93 152.68C92.95 152.86 92.86 153.05 92.73 153.24C92.6 153.44 92.4 153.66 92.15 153.9L90.24 155.72L90.02 155.33H93.29V156.21H89.16L89.17 156.19Z" fill="#13110C"/>
<path d="M94.02 157.4L94.48 155.63L94.62 156.22C94.43 156.22 94.28 156.16 94.15 156.05C94.03 155.93 93.96 155.78 93.96 155.58C93.96 155.38 94.02 155.22 94.15 155.1C94.28 154.98 94.43 154.92 94.61 154.92C94.79 154.92 94.95 154.98 95.07 155.1C95.19 155.22 95.25 155.38 95.25 155.58C95.25 155.63 95.25 155.69 95.23 155.75C95.22 155.81 95.2 155.88 95.18 155.96C95.16 156.04 95.12 156.14 95.06 156.26L94.65 157.39H94L94.02 157.4Z" fill="#13110C"/>
<path d="M98.26 156.27C97.75 156.27 97.32 156.16 96.96 155.95C96.6 155.73 96.32 155.42 96.13 155.01C95.94 154.6 95.84 154.09 95.84 153.49C95.84 152.85 95.96 152.31 96.19 151.87C96.42 151.43 96.74 151.09 97.16 150.86C97.58 150.63 98.05 150.52 98.59 150.52C98.87 150.52 99.14 150.55 99.4 150.61C99.66 150.67 99.88 150.76 100.06 150.88L99.68 151.66C99.52 151.56 99.36 151.49 99.18 151.45C99 151.41 98.81 151.39 98.62 151.39C98.09 151.39 97.67 151.55 97.36 151.88C97.05 152.21 96.9 152.69 96.9 153.32C96.9 153.42 96.9 153.54 96.9 153.68C96.9 153.82 96.92 153.95 96.96 154.09L96.64 153.74C96.74 153.52 96.87 153.34 97.04 153.19C97.21 153.04 97.41 152.93 97.64 152.86C97.87 152.78 98.12 152.75 98.4 152.75C98.77 152.75 99.1 152.82 99.38 152.96C99.67 153.1 99.9 153.3 100.07 153.56C100.24 153.82 100.33 154.12 100.33 154.47C100.33 154.84 100.24 155.16 100.06 155.43C99.88 155.7 99.63 155.91 99.32 156.06C99.01 156.21 98.66 156.28 98.28 156.28L98.26 156.27ZM98.2 155.45C98.41 155.45 98.6 155.41 98.77 155.33C98.94 155.25 99.06 155.14 99.16 155C99.25 154.86 99.3 154.69 99.3 154.5C99.3 154.21 99.2 153.98 99 153.8C98.8 153.63 98.52 153.54 98.18 153.54C97.96 153.54 97.76 153.58 97.59 153.66C97.42 153.74 97.29 153.86 97.19 154C97.09 154.14 97.04 154.31 97.04 154.5C97.04 154.67 97.08 154.83 97.18 154.97C97.28 155.11 97.4 155.23 97.58 155.31C97.75 155.4 97.96 155.44 98.21 155.44L98.2 155.45Z" fill="#13110C"/>
<path d="M103.1 156.27C102.64 156.27 102.23 156.2 101.89 156.06C101.55 155.92 101.28 155.73 101.1 155.47C100.91 155.22 100.82 154.92 100.82 154.58C100.82 154.24 100.91 153.95 101.09 153.72C101.27 153.48 101.53 153.31 101.87 153.18C102.21 153.06 102.62 153 103.09 153C103.56 153 103.97 153.06 104.32 153.18C104.66 153.3 104.93 153.48 105.11 153.72C105.29 153.96 105.39 154.24 105.39 154.58C105.39 154.92 105.3 155.22 105.11 155.47C104.92 155.72 104.65 155.92 104.31 156.06C103.97 156.2 103.56 156.27 103.1 156.27ZM103.1 153.54C102.67 153.54 102.3 153.48 101.99 153.37C101.68 153.26 101.44 153.09 101.27 152.87C101.1 152.65 101.02 152.38 101.02 152.07C101.02 151.76 101.11 151.47 101.28 151.24C101.45 151.01 101.7 150.83 102.01 150.7C102.32 150.57 102.69 150.51 103.1 150.51C103.51 150.51 103.88 150.57 104.2 150.7C104.52 150.83 104.76 151.01 104.94 151.24C105.12 151.47 105.2 151.75 105.2 152.07C105.2 152.39 105.12 152.65 104.95 152.87C104.78 153.09 104.54 153.26 104.23 153.37C103.92 153.49 103.54 153.54 103.11 153.54H103.1ZM103.1 155.45C103.48 155.45 103.79 155.37 104.01 155.21C104.23 155.05 104.35 154.83 104.35 154.55C104.35 154.27 104.24 154.05 104.01 153.89C103.78 153.73 103.48 153.65 103.1 153.65C102.72 153.65 102.41 153.73 102.2 153.89C101.99 154.05 101.87 154.27 101.87 154.55C101.87 154.83 101.98 155.05 102.2 155.21C102.42 155.37 102.72 155.45 103.1 155.45ZM103.1 152.9C103.43 152.9 103.69 152.83 103.88 152.69C104.07 152.55 104.17 152.36 104.17 152.12C104.17 151.88 104.07 151.67 103.87 151.54C103.67 151.41 103.41 151.33 103.09 151.33C102.77 151.33 102.51 151.4 102.32 151.54C102.13 151.68 102.03 151.87 102.03 152.12C102.03 152.37 102.12 152.55 102.31 152.69C102.5 152.83 102.76 152.9 103.08 152.9H103.1Z" fill="#13110C"/>
<path d="M50.14 264.31C49.75 264.31 49.36 264.25 48.98 264.14C48.6 264.02 48.29 263.87 48.03 263.66L48.48 262.85C48.68 263.02 48.93 263.15 49.22 263.25C49.51 263.35 49.81 263.4 50.12 263.4C50.49 263.4 50.78 263.32 50.99 263.17C51.2 263.02 51.3 262.81 51.3 262.55C51.3 262.29 51.2 262.09 51.01 261.94C50.82 261.79 50.51 261.72 50.08 261.72H49.57V261.01L51.17 259.11L51.31 259.5H48.3V258.63H52.12V259.33L50.52 261.23L49.98 260.91H50.29C50.98 260.91 51.49 261.06 51.84 261.37C52.19 261.68 52.36 262.07 52.36 262.55C52.36 262.86 52.28 263.16 52.12 263.42C51.96 263.69 51.72 263.9 51.39 264.06C51.06 264.22 50.65 264.3 50.15 264.3L50.14 264.31Z" fill="#13110C"/>
<path d="M53.07 265.44L53.53 263.67L53.67 264.26C53.48 264.26 53.33 264.2 53.2 264.09C53.08 263.97 53.01 263.82 53.01 263.62C53.01 263.42 53.07 263.26 53.2 263.14C53.33 263.02 53.48 262.96 53.66 262.96C53.84 262.96 54 263.02 54.12 263.14C54.24 263.26 54.3 263.42 54.3 263.62C54.3 263.67 54.3 263.73 54.28 263.79C54.27 263.85 54.25 263.92 54.23 264C54.21 264.08 54.17 264.18 54.11 264.3L53.7 265.43H53.05L53.07 265.44Z" fill="#13110C"/>
<path d="M54.99 264.23V263.53L57.21 261.42C57.4 261.24 57.54 261.09 57.63 260.96C57.72 260.83 57.78 260.7 57.81 260.59C57.84 260.47 57.85 260.37 57.85 260.27C57.85 260.01 57.76 259.81 57.59 259.67C57.41 259.53 57.15 259.46 56.81 259.46C56.54 259.46 56.29 259.51 56.07 259.6C55.85 259.69 55.66 259.84 55.5 260.04L54.77 259.48C54.99 259.19 55.28 258.96 55.65 258.8C56.02 258.64 56.44 258.56 56.89 258.56C57.3 258.56 57.65 258.63 57.95 258.76C58.25 258.89 58.48 259.08 58.65 259.32C58.81 259.56 58.89 259.85 58.89 260.18C58.89 260.36 58.87 260.54 58.82 260.72C58.77 260.9 58.68 261.09 58.55 261.28C58.42 261.47 58.22 261.7 57.97 261.94L56.06 263.76L55.84 263.37H59.11V264.25H54.98L54.99 264.23Z" fill="#13110C"/>
<path d="M61.48 264.31C61.09 264.31 60.7 264.25 60.32 264.14C59.94 264.02 59.63 263.87 59.37 263.66L59.82 262.85C60.02 263.02 60.27 263.15 60.56 263.25C60.85 263.35 61.15 263.4 61.46 263.4C61.83 263.4 62.12 263.32 62.33 263.17C62.54 263.02 62.64 262.81 62.64 262.55C62.64 262.29 62.54 262.09 62.35 261.94C62.16 261.79 61.85 261.72 61.42 261.72H60.91V261.01L62.51 259.11L62.65 259.5H59.64V258.63H63.46V259.33L61.86 261.23L61.32 260.91H61.63C62.32 260.91 62.83 261.06 63.18 261.37C63.53 261.68 63.7 262.07 63.7 262.55C63.7 262.86 63.62 263.16 63.46 263.42C63.3 263.69 63.06 263.9 62.73 264.06C62.4 264.22 61.99 264.3 61.49 264.3L61.48 264.31Z" fill="#13110C"/>
<path d="M119.1 242.38V237.18L119.56 237.65H117.92V236.78H120.14V242.38H119.1Z" fill="#13110C"/>
<path d="M121.18 242.38V241.68L123.4 239.57C123.59 239.39 123.72 239.24 123.82 239.11C123.91 238.98 123.97 238.85 124 238.74C124.03 238.62 124.04 238.52 124.04 238.42C124.04 238.16 123.95 237.96 123.78 237.82C123.6 237.68 123.35 237.61 123 237.61C122.73 237.61 122.48 237.66 122.26 237.75C122.04 237.85 121.85 237.99 121.69 238.19L120.96 237.63C121.18 237.34 121.47 237.11 121.84 236.95C122.21 236.79 122.63 236.71 123.08 236.71C123.49 236.71 123.84 236.78 124.14 236.91C124.44 237.04 124.67 237.23 124.84 237.47C125 237.71 125.08 238 125.08 238.33C125.08 238.51 125.06 238.69 125.01 238.87C124.96 239.05 124.87 239.24 124.74 239.43C124.61 239.62 124.41 239.85 124.16 240.09L122.25 241.91L122.03 241.52H125.3V242.4H121.17L121.18 242.38Z" fill="#13110C"/>
<path d="M126.03 243.59L126.49 241.82L126.63 242.41C126.44 242.41 126.29 242.35 126.16 242.24C126.03 242.12 125.97 241.97 125.97 241.77C125.97 241.57 126.03 241.41 126.16 241.29C126.28 241.17 126.44 241.11 126.62 241.11C126.8 241.11 126.96 241.17 127.08 241.29C127.2 241.41 127.26 241.57 127.26 241.77C127.26 241.82 127.26 241.88 127.24 241.94C127.23 242 127.21 242.07 127.19 242.15C127.17 242.23 127.13 242.33 127.07 242.45L126.66 243.58H126.01L126.03 243.59Z" fill="#13110C"/>
<path d="M130.27 242.46C129.76 242.46 129.33 242.35 128.97 242.14C128.61 241.93 128.33 241.61 128.14 241.2C127.95 240.79 127.85 240.28 127.85 239.68C127.85 239.04 127.97 238.5 128.2 238.06C128.43 237.62 128.75 237.28 129.17 237.05C129.58 236.82 130.06 236.71 130.6 236.71C130.88 236.71 131.15 236.74 131.41 236.8C131.67 236.86 131.89 236.95 132.07 237.07L131.69 237.85C131.54 237.75 131.37 237.68 131.19 237.64C131.01 237.6 130.82 237.58 130.63 237.58C130.1 237.58 129.68 237.74 129.37 238.07C129.06 238.4 128.91 238.88 128.91 239.51C128.91 239.61 128.91 239.73 128.91 239.87C128.91 240.01 128.93 240.14 128.96 240.28L128.64 239.93C128.74 239.71 128.87 239.53 129.04 239.38C129.21 239.23 129.41 239.12 129.64 239.05C129.87 238.97 130.12 238.94 130.4 238.94C130.77 238.94 131.1 239.01 131.38 239.15C131.67 239.29 131.9 239.49 132.07 239.75C132.24 240.01 132.33 240.31 132.33 240.66C132.33 241.03 132.24 241.35 132.06 241.62C131.88 241.89 131.63 242.1 131.32 242.25C131.01 242.4 130.66 242.47 130.28 242.47L130.27 242.46ZM130.21 241.64C130.42 241.64 130.61 241.6 130.78 241.52C130.95 241.44 131.07 241.33 131.17 241.19C131.26 241.05 131.31 240.88 131.31 240.69C131.31 240.4 131.21 240.17 131.01 239.99C130.81 239.81 130.54 239.73 130.19 239.73C129.97 239.73 129.77 239.77 129.6 239.85C129.43 239.93 129.3 240.05 129.2 240.19C129.1 240.33 129.05 240.5 129.05 240.69C129.05 240.86 129.1 241.02 129.19 241.16C129.28 241.3 129.41 241.42 129.59 241.5C129.76 241.59 129.97 241.63 130.22 241.63L130.21 241.64Z" fill="#13110C"/>
<path d="M133.76 242.38L136.07 237.2L136.34 237.66H133.16L133.66 237.16V238.62H132.69V236.79H137.04V237.49L134.86 242.39H133.75L133.76 242.38Z" fill="#13110C"/>
<path d="M188.46 273.27V272.57L190.68 270.46C190.87 270.28 191.01 270.13 191.1 270C191.19 269.87 191.25 269.74 191.28 269.63C191.31 269.51 191.32 269.41 191.32 269.31C191.32 269.05 191.23 268.85 191.06 268.71C190.88 268.57 190.63 268.5 190.28 268.5C190.01 268.5 189.76 268.55 189.54 268.64C189.32 268.73 189.13 268.88 188.97 269.08L188.24 268.52C188.46 268.23 188.75 268 189.12 267.84C189.49 267.68 189.91 267.6 190.36 267.6C190.77 267.6 191.12 267.67 191.42 267.8C191.72 267.93 191.95 268.12 192.12 268.36C192.28 268.6 192.36 268.89 192.36 269.22C192.36 269.4 192.34 269.58 192.29 269.76C192.24 269.94 192.15 270.13 192.02 270.32C191.89 270.52 191.69 270.74 191.44 270.98L189.53 272.8L189.31 272.41H192.58V273.29H188.45L188.46 273.27Z" fill="#13110C"/>
<path d="M193.3 274.48L193.76 272.71L193.9 273.3C193.71 273.3 193.56 273.24 193.43 273.13C193.31 273.01 193.24 272.86 193.24 272.66C193.24 272.46 193.3 272.3 193.43 272.18C193.56 272.06 193.71 272 193.89 272C194.07 272 194.23 272.06 194.35 272.18C194.47 272.3 194.53 272.46 194.53 272.66C194.53 272.71 194.53 272.77 194.51 272.83C194.5 272.89 194.48 272.96 194.46 273.04C194.44 273.12 194.4 273.22 194.34 273.34L193.93 274.47H193.28L193.3 274.48Z" fill="#13110C"/>
<path d="M197.1 267.59C197.61 267.59 198.05 267.7 198.41 267.91C198.77 268.13 199.05 268.44 199.24 268.85C199.43 269.26 199.53 269.77 199.53 270.37C199.53 271.01 199.41 271.55 199.18 271.99C198.95 272.43 198.63 272.77 198.22 273C197.81 273.23 197.33 273.34 196.79 273.34C196.51 273.34 196.24 273.31 195.98 273.25C195.72 273.19 195.5 273.1 195.32 272.98L195.7 272.2C195.86 272.3 196.02 272.37 196.2 272.41C196.38 272.45 196.57 272.47 196.76 272.47C197.29 272.47 197.71 272.31 198.02 271.98C198.33 271.65 198.48 271.18 198.48 270.54C198.48 270.44 198.48 270.32 198.48 270.18C198.48 270.04 198.46 269.91 198.42 269.77L198.74 270.12C198.65 270.34 198.52 270.52 198.35 270.67C198.18 270.82 197.98 270.93 197.75 271C197.52 271.07 197.27 271.11 196.99 271.11C196.63 271.11 196.3 271.04 196.01 270.9C195.72 270.76 195.49 270.56 195.32 270.3C195.15 270.04 195.06 269.74 195.06 269.39C195.06 269.02 195.15 268.7 195.33 268.43C195.51 268.16 195.76 267.95 196.07 267.8C196.38 267.65 196.73 267.58 197.11 267.58L197.1 267.59ZM197.16 268.41C196.95 268.41 196.76 268.45 196.59 268.53C196.42 268.61 196.3 268.72 196.2 268.86C196.11 269 196.06 269.17 196.06 269.37C196.06 269.66 196.16 269.9 196.36 270.07C196.56 270.24 196.83 270.33 197.18 270.33C197.4 270.33 197.6 270.29 197.77 270.21C197.94 270.13 198.07 270.01 198.17 269.87C198.27 269.72 198.31 269.56 198.31 269.38C198.31 269.2 198.27 269.05 198.17 268.9C198.08 268.76 197.95 268.65 197.78 268.56C197.61 268.48 197.4 268.43 197.15 268.43L197.16 268.41Z" fill="#13110C"/>
<path d="M202.09 273.35C201.7 273.35 201.31 273.29 200.93 273.18C200.55 273.06 200.24 272.91 199.98 272.7L200.42 271.89C200.62 272.06 200.87 272.19 201.16 272.29C201.45 272.39 201.75 272.44 202.07 272.44C202.44 272.44 202.73 272.36 202.94 272.21C203.15 272.05 203.26 271.85 203.26 271.59C203.26 271.41 203.22 271.26 203.13 271.13C203.04 271 202.89 270.89 202.67 270.83C202.45 270.76 202.15 270.73 201.76 270.73H200.41L200.7 267.68H203.99V268.55H201.09L201.63 268.05L201.41 270.33L200.87 269.84H202C202.55 269.84 203 269.91 203.34 270.06C203.68 270.21 203.93 270.41 204.08 270.67C204.24 270.93 204.32 271.22 204.32 271.55C204.32 271.88 204.24 272.17 204.08 272.45C203.92 272.72 203.68 272.94 203.35 273.11C203.02 273.28 202.61 273.36 202.11 273.36L202.09 273.35Z" fill="#13110C"/>
<path d="M210.21 225.18V219.98L210.67 220.45H209.03V219.58H211.25V225.18H210.21Z" fill="#13110C"/>
<path d="M212.41 226.39L212.87 224.62L213.01 225.21C212.82 225.21 212.67 225.15 212.54 225.04C212.41 224.92 212.35 224.77 212.35 224.57C212.35 224.37 212.41 224.21 212.54 224.09C212.66 223.97 212.82 223.91 213 223.91C213.18 223.91 213.34 223.97 213.46 224.09C213.58 224.21 213.64 224.37 213.64 224.57C213.64 224.62 213.64 224.68 213.62 224.74C213.61 224.8 213.59 224.87 213.57 224.95C213.55 225.03 213.51 225.13 213.45 225.25L213.04 226.38H212.39L212.41 226.39Z" fill="#13110C"/>
<path d="M216.21 219.5C216.72 219.5 217.16 219.61 217.52 219.82C217.88 220.04 218.16 220.35 218.35 220.76C218.54 221.17 218.64 221.68 218.64 222.28C218.64 222.92 218.52 223.46 218.29 223.9C218.06 224.34 217.74 224.68 217.33 224.91C216.92 225.14 216.44 225.25 215.9 225.25C215.62 225.25 215.35 225.22 215.09 225.16C214.83 225.1 214.61 225.01 214.43 224.89L214.81 224.11C214.97 224.21 215.13 224.28 215.31 224.32C215.49 224.36 215.68 224.38 215.87 224.38C216.4 224.38 216.82 224.22 217.13 223.89C217.44 223.56 217.59 223.09 217.59 222.45C217.59 222.35 217.59 222.23 217.59 222.09C217.59 221.95 217.57 221.82 217.53 221.68L217.85 222.03C217.76 222.25 217.63 222.43 217.46 222.58C217.29 222.73 217.09 222.84 216.86 222.91C216.63 222.98 216.38 223.02 216.1 223.02C215.74 223.02 215.41 222.95 215.12 222.81C214.83 222.67 214.6 222.47 214.43 222.21C214.26 221.95 214.17 221.65 214.17 221.3C214.17 220.93 214.26 220.61 214.44 220.34C214.62 220.07 214.87 219.86 215.18 219.71C215.49 219.56 215.84 219.49 216.22 219.49L216.21 219.5ZM216.27 220.32C216.06 220.32 215.87 220.36 215.7 220.44C215.53 220.52 215.41 220.63 215.31 220.77C215.22 220.91 215.17 221.08 215.17 221.28C215.17 221.57 215.27 221.81 215.47 221.98C215.67 222.15 215.94 222.24 216.29 222.24C216.51 222.24 216.71 222.2 216.88 222.12C217.05 222.04 217.18 221.92 217.28 221.78C217.38 221.63 217.42 221.47 217.42 221.29C217.42 221.11 217.38 220.96 217.28 220.81C217.19 220.67 217.06 220.56 216.89 220.47C216.72 220.39 216.51 220.34 216.26 220.34L216.27 220.32Z" fill="#13110C"/>
<path d="M221.67 225.26C221.23 225.26 220.83 225.15 220.47 224.92C220.12 224.7 219.84 224.37 219.63 223.94C219.43 223.51 219.33 222.99 219.33 222.38C219.33 221.77 219.43 221.25 219.63 220.82C219.83 220.39 220.11 220.06 220.47 219.84C220.82 219.62 221.22 219.5 221.67 219.5C222.12 219.5 222.52 219.61 222.87 219.84C223.22 220.06 223.5 220.39 223.71 220.82C223.92 221.25 224.02 221.77 224.02 222.38C224.02 222.99 223.92 223.51 223.71 223.94C223.5 224.37 223.23 224.7 222.87 224.92C222.52 225.14 222.12 225.26 221.67 225.26ZM221.67 224.36C221.93 224.36 222.16 224.29 222.35 224.15C222.54 224.01 222.69 223.79 222.8 223.5C222.91 223.21 222.96 222.84 222.96 222.39C222.96 221.94 222.91 221.56 222.8 221.27C222.69 220.98 222.54 220.76 222.35 220.62C222.16 220.48 221.93 220.41 221.67 220.41C221.41 220.41 221.2 220.48 221 220.62C220.8 220.76 220.65 220.98 220.54 221.27C220.43 221.56 220.38 221.93 220.38 222.39C220.38 222.85 220.43 223.21 220.54 223.5C220.65 223.79 220.8 224.01 221 224.15C221.19 224.29 221.42 224.36 221.67 224.36Z" fill="#13110C"/>
<path d="M10.18 171.23V170.53L12.4 168.42C12.59 168.24 12.73 168.09 12.82 167.96C12.91 167.83 12.97 167.7 13 167.59C13.03 167.47 13.04 167.37 13.04 167.27C13.04 167.01 12.95 166.81 12.78 166.67C12.6 166.53 12.35 166.46 12 166.46C11.73 166.46 11.48 166.51 11.26 166.6C11.04 166.7 10.85 166.84 10.69 167.04L9.95999 166.48C10.18 166.19 10.47 165.96 10.84 165.8C11.21 165.64 11.63 165.56 12.08 165.56C12.49 165.56 12.84 165.63 13.14 165.76C13.44 165.89 13.67 166.08 13.84 166.32C14 166.56 14.08 166.85 14.08 167.18C14.08 167.36 14.06 167.54 14.01 167.72C13.96 167.9 13.87 168.09 13.74 168.28C13.61 168.48 13.41 168.7 13.16 168.94L11.25 170.76L11.03 170.37H14.3V171.25H10.17L10.18 171.23Z" fill="#13110C"/>
<path d="M15.03 172.44L15.49 170.67L15.63 171.26C15.44 171.26 15.29 171.2 15.16 171.09C15.03 170.97 14.97 170.82 14.97 170.62C14.97 170.42 15.03 170.26 15.16 170.14C15.28 170.02 15.44 169.96 15.62 169.96C15.8 169.96 15.96 170.02 16.08 170.14C16.2 170.26 16.26 170.42 16.26 170.62C16.26 170.67 16.26 170.73 16.24 170.79C16.23 170.85 16.21 170.92 16.19 171C16.17 171.08 16.13 171.18 16.07 171.3L15.66 172.43H15.01L15.03 172.44Z" fill="#13110C"/>
<path d="M18.83 165.55C19.34 165.55 19.78 165.66 20.14 165.87C20.5 166.09 20.78 166.4 20.97 166.81C21.16 167.22 21.26 167.73 21.26 168.33C21.26 168.97 21.14 169.51 20.91 169.95C20.68 170.39 20.36 170.73 19.95 170.96C19.54 171.19 19.06 171.3 18.52 171.3C18.24 171.3 17.97 171.27 17.71 171.21C17.45 171.15 17.23 171.06 17.05 170.94L17.43 170.16C17.58 170.26 17.75 170.33 17.93 170.37C18.11 170.41 18.3 170.43 18.49 170.43C19.02 170.43 19.44 170.27 19.75 169.94C20.06 169.61 20.21 169.14 20.21 168.5C20.21 168.4 20.21 168.28 20.21 168.14C20.21 168 20.19 167.87 20.15 167.73L20.47 168.08C20.38 168.3 20.25 168.48 20.08 168.63C19.91 168.78 19.71 168.89 19.48 168.96C19.25 169.03 19 169.07 18.72 169.07C18.36 169.07 18.03 169 17.74 168.86C17.45 168.72 17.22 168.52 17.05 168.26C16.88 168 16.79 167.7 16.79 167.35C16.79 166.98 16.88 166.66 17.06 166.39C17.24 166.12 17.49 165.91 17.8 165.76C18.11 165.61 18.46 165.54 18.84 165.54L18.83 165.55ZM18.89 166.37C18.68 166.37 18.49 166.41 18.32 166.49C18.15 166.57 18.03 166.68 17.93 166.82C17.84 166.96 17.79 167.13 17.79 167.33C17.79 167.62 17.89 167.86 18.09 168.03C18.29 168.2 18.56 168.29 18.91 168.29C19.13 168.29 19.33 168.25 19.5 168.17C19.67 168.09 19.8 167.97 19.9 167.83C20 167.68 20.04 167.52 20.04 167.34C20.04 167.16 19.99 167.01 19.9 166.86C19.81 166.72 19.68 166.61 19.51 166.52C19.34 166.44 19.13 166.39 18.88 166.39L18.89 166.37Z" fill="#13110C"/>
<path d="M24.21 171.31C23.75 171.31 23.34 171.24 23 171.1C22.66 170.96 22.39 170.77 22.21 170.51C22.02 170.26 21.93 169.96 21.93 169.62C21.93 169.28 22.02 168.99 22.2 168.76C22.38 168.52 22.64 168.35 22.98 168.22C23.32 168.1 23.73 168.04 24.2 168.04C24.67 168.04 25.08 168.1 25.43 168.22C25.78 168.34 26.04 168.52 26.22 168.76C26.4 169 26.5 169.28 26.5 169.62C26.5 169.96 26.41 170.26 26.22 170.51C26.03 170.76 25.76 170.96 25.42 171.1C25.08 171.24 24.67 171.31 24.21 171.31ZM24.21 168.58C23.78 168.58 23.41 168.52 23.1 168.41C22.79 168.3 22.55 168.13 22.38 167.91C22.21 167.69 22.13 167.42 22.13 167.11C22.13 166.8 22.22 166.51 22.39 166.28C22.56 166.05 22.81 165.87 23.12 165.74C23.43 165.61 23.8 165.55 24.21 165.55C24.62 165.55 24.99 165.61 25.31 165.74C25.63 165.87 25.87 166.05 26.05 166.28C26.23 166.51 26.31 166.79 26.31 167.11C26.31 167.43 26.23 167.69 26.06 167.91C25.89 168.13 25.65 168.3 25.34 168.41C25.02 168.53 24.65 168.58 24.22 168.58H24.21ZM24.21 170.49C24.59 170.49 24.9 170.41 25.12 170.25C25.34 170.09 25.46 169.87 25.46 169.59C25.46 169.31 25.35 169.09 25.12 168.93C24.9 168.77 24.59 168.69 24.21 168.69C23.83 168.69 23.52 168.77 23.31 168.93C23.1 169.09 22.98 169.31 22.98 169.59C22.98 169.87 23.09 170.09 23.31 170.25C23.53 170.41 23.83 170.49 24.21 170.49ZM24.21 167.94C24.54 167.94 24.8 167.87 24.99 167.73C25.18 167.59 25.28 167.4 25.28 167.16C25.28 166.92 25.18 166.71 24.98 166.58C24.78 166.45 24.52 166.37 24.2 166.37C23.88 166.37 23.62 166.44 23.43 166.58C23.24 166.72 23.14 166.91 23.14 167.16C23.14 167.41 23.23 167.59 23.42 167.73C23.61 167.87 23.87 167.94 24.19 167.94H24.21Z" fill="#13110C"/>
<path d="M159.88 173.01V172.29L162.64 168.68H163.75L161.03 172.29L160.51 172.13H164.95V173.01H159.88ZM162.95 174.28V173.01L162.98 172.13V171H163.96V174.28H162.95Z" fill="#13110C"/>
<path d="M165.59 175.49L166.05 173.72L166.19 174.31C166 174.31 165.85 174.25 165.72 174.14C165.59 174.02 165.53 173.87 165.53 173.67C165.53 173.47 165.59 173.31 165.72 173.19C165.85 173.07 166 173.01 166.18 173.01C166.36 173.01 166.52 173.07 166.64 173.19C166.76 173.31 166.82 173.47 166.82 173.67C166.82 173.72 166.82 173.78 166.8 173.84C166.79 173.9 166.77 173.97 166.75 174.05C166.73 174.13 166.69 174.23 166.63 174.35L166.22 175.48H165.57L165.59 175.49Z" fill="#13110C"/>
<path d="M169.39 168.6C169.9 168.6 170.34 168.71 170.7 168.92C171.06 169.14 171.34 169.45 171.53 169.86C171.72 170.27 171.82 170.78 171.82 171.38C171.82 172.02 171.7 172.56 171.47 173C171.24 173.44 170.92 173.78 170.51 174.01C170.1 174.24 169.62 174.35 169.08 174.35C168.8 174.35 168.53 174.32 168.27 174.26C168.01 174.2 167.79 174.11 167.61 173.99L167.99 173.21C168.14 173.31 168.31 173.38 168.49 173.42C168.67 173.46 168.86 173.48 169.05 173.48C169.58 173.48 170 173.32 170.31 172.99C170.62 172.66 170.77 172.19 170.77 171.55C170.77 171.45 170.77 171.33 170.77 171.19C170.77 171.05 170.75 170.92 170.71 170.78L171.03 171.13C170.94 171.35 170.81 171.53 170.64 171.68C170.47 171.83 170.27 171.94 170.04 172.01C169.81 172.08 169.56 172.12 169.28 172.12C168.92 172.12 168.59 172.05 168.3 171.91C168.01 171.77 167.78 171.57 167.61 171.31C167.44 171.05 167.35 170.75 167.35 170.4C167.35 170.03 167.44 169.71 167.62 169.44C167.8 169.17 168.05 168.96 168.36 168.81C168.67 168.66 169.02 168.59 169.4 168.59L169.39 168.6ZM169.44 169.42C169.23 169.42 169.04 169.46 168.87 169.54C168.7 169.62 168.58 169.73 168.48 169.87C168.39 170.01 168.34 170.18 168.34 170.38C168.34 170.67 168.44 170.91 168.64 171.08C168.84 171.25 169.11 171.34 169.46 171.34C169.68 171.34 169.88 171.3 170.05 171.22C170.22 171.14 170.35 171.02 170.45 170.88C170.55 170.74 170.59 170.57 170.59 170.39C170.59 170.21 170.55 170.06 170.45 169.91C170.36 169.77 170.23 169.66 170.06 169.57C169.89 169.49 169.68 169.44 169.43 169.44L169.44 169.42Z" fill="#13110C"/>
<path d="M174.94 174.36C174.43 174.36 174 174.25 173.64 174.04C173.28 173.83 173 173.51 172.81 173.1C172.62 172.69 172.52 172.18 172.52 171.58C172.52 170.94 172.64 170.4 172.87 169.96C173.1 169.52 173.42 169.18 173.84 168.95C174.25 168.72 174.73 168.61 175.27 168.61C175.55 168.61 175.82 168.64 176.08 168.7C176.34 168.76 176.56 168.85 176.74 168.97L176.36 169.75C176.21 169.65 176.04 169.58 175.86 169.54C175.68 169.5 175.49 169.48 175.3 169.48C174.77 169.48 174.35 169.64 174.04 169.97C173.73 170.3 173.58 170.78 173.58 171.41C173.58 171.51 173.58 171.63 173.58 171.77C173.58 171.91 173.6 172.04 173.63 172.18L173.31 171.83C173.41 171.61 173.54 171.43 173.71 171.28C173.88 171.13 174.08 171.02 174.31 170.95C174.54 170.87 174.79 170.84 175.07 170.84C175.44 170.84 175.77 170.91 176.05 171.05C176.34 171.19 176.57 171.39 176.74 171.65C176.91 171.91 177 172.21 177 172.56C177 172.93 176.91 173.25 176.73 173.52C176.55 173.79 176.3 174 175.99 174.15C175.68 174.3 175.33 174.37 174.95 174.37L174.94 174.36ZM174.88 173.54C175.09 173.54 175.28 173.5 175.45 173.42C175.62 173.34 175.74 173.23 175.84 173.09C175.93 172.95 175.98 172.78 175.98 172.59C175.98 172.3 175.88 172.07 175.68 171.89C175.48 171.71 175.21 171.63 174.86 171.63C174.64 171.63 174.44 171.67 174.27 171.75C174.1 171.83 173.97 171.95 173.87 172.09C173.77 172.23 173.72 172.4 173.72 172.59C173.72 172.76 173.77 172.92 173.86 173.06C173.95 173.2 174.08 173.32 174.26 173.4C174.43 173.49 174.64 173.53 174.89 173.53L174.88 173.54Z" fill="#13110C"/>
<path d="M204.63 198.13V197.43L206.85 195.32C207.04 195.14 207.18 194.99 207.27 194.86C207.36 194.73 207.42 194.6 207.45 194.49C207.48 194.37 207.49 194.27 207.49 194.17C207.49 193.91 207.4 193.71 207.23 193.57C207.05 193.43 206.79 193.36 206.45 193.36C206.18 193.36 205.93 193.41 205.71 193.5C205.49 193.59 205.3 193.74 205.14 193.94L204.41 193.38C204.63 193.09 204.92 192.86 205.29 192.7C205.66 192.54 206.08 192.46 206.53 192.46C206.94 192.46 207.29 192.53 207.59 192.66C207.89 192.79 208.12 192.98 208.29 193.22C208.45 193.46 208.53 193.75 208.53 194.08C208.53 194.26 208.51 194.44 208.46 194.62C208.41 194.8 208.32 194.99 208.19 195.18C208.06 195.37 207.86 195.6 207.61 195.84L205.7 197.66L205.48 197.27H208.75V198.15H204.62L204.63 198.13Z" fill="#13110C"/>
<path d="M209.48 199.34L209.94 197.57L210.08 198.16C209.89 198.16 209.74 198.1 209.61 197.99C209.49 197.87 209.42 197.72 209.42 197.52C209.42 197.32 209.48 197.16 209.61 197.04C209.74 196.92 209.89 196.86 210.07 196.86C210.25 196.86 210.41 196.92 210.53 197.04C210.65 197.16 210.71 197.32 210.71 197.52C210.71 197.57 210.71 197.63 210.69 197.69C210.68 197.75 210.66 197.82 210.64 197.9C210.62 197.98 210.58 198.08 210.52 198.2L210.11 199.33H209.46L209.48 199.34Z" fill="#13110C"/>
<path d="M211.27 196.86V196.14L214.03 192.53H215.14L212.42 196.14L211.9 195.98H216.34V196.86H211.27ZM214.34 198.13V196.86L214.37 195.98V194.85H215.35V198.13H214.34Z" fill="#13110C"/>
<path d="M217.48 198.13V192.93L217.94 193.4H216.3V192.53H218.52V198.13H217.48Z" fill="#13110C"/>
<path d="M232.31 127.11C231.92 127.11 231.53 127.05 231.15 126.94C230.77 126.82 230.46 126.67 230.2 126.46L230.64 125.65C230.84 125.82 231.09 125.95 231.38 126.05C231.67 126.15 231.97 126.2 232.29 126.2C232.66 126.2 232.95 126.12 233.16 125.97C233.37 125.81 233.48 125.61 233.48 125.35C233.48 125.17 233.44 125.02 233.35 124.89C233.26 124.76 233.11 124.65 232.89 124.59C232.67 124.53 232.37 124.49 231.98 124.49H230.63L230.92 121.44H234.21V122.31H231.31L231.85 121.81L231.63 124.09L231.09 123.6H232.22C232.77 123.6 233.22 123.67 233.56 123.82C233.9 123.97 234.15 124.17 234.3 124.43C234.46 124.69 234.54 124.98 234.54 125.31C234.54 125.64 234.46 125.93 234.3 126.21C234.14 126.48 233.9 126.7 233.57 126.87C233.24 127.04 232.83 127.12 232.33 127.12L232.31 127.11Z" fill="#13110C"/>
<path d="M235.17 128.24L235.63 126.47L235.77 127.06C235.58 127.06 235.43 127 235.3 126.89C235.17 126.77 235.11 126.62 235.11 126.42C235.11 126.22 235.17 126.06 235.3 125.94C235.43 125.82 235.58 125.76 235.76 125.76C235.94 125.76 236.1 125.82 236.22 125.94C236.34 126.06 236.4 126.22 236.4 126.42C236.4 126.47 236.4 126.53 236.38 126.59C236.37 126.65 236.35 126.72 236.33 126.8C236.31 126.88 236.27 126.98 236.21 127.1L235.8 128.23H235.15L235.17 128.24Z" fill="#13110C"/>
<path d="M239.41 127.11C238.95 127.11 238.54 127.04 238.2 126.9C237.86 126.76 237.59 126.57 237.41 126.31C237.22 126.06 237.13 125.76 237.13 125.42C237.13 125.08 237.22 124.79 237.4 124.56C237.58 124.32 237.84 124.15 238.18 124.02C238.52 123.9 238.93 123.84 239.4 123.84C239.87 123.84 240.28 123.9 240.63 124.02C240.97 124.14 241.24 124.32 241.42 124.56C241.6 124.8 241.7 125.08 241.7 125.42C241.7 125.76 241.61 126.06 241.42 126.31C241.23 126.56 240.96 126.76 240.62 126.9C240.28 127.04 239.87 127.11 239.41 127.11ZM239.41 124.38C238.98 124.38 238.61 124.32 238.3 124.21C237.99 124.1 237.75 123.93 237.58 123.71C237.41 123.49 237.33 123.22 237.33 122.91C237.33 122.6 237.42 122.31 237.59 122.08C237.76 121.85 238.01 121.67 238.32 121.54C238.63 121.41 239 121.35 239.41 121.35C239.82 121.35 240.19 121.41 240.51 121.54C240.83 121.67 241.07 121.85 241.25 122.08C241.43 122.31 241.51 122.59 241.51 122.91C241.51 123.23 241.43 123.49 241.26 123.71C241.09 123.93 240.85 124.1 240.54 124.21C240.22 124.33 239.85 124.38 239.42 124.38H239.41ZM239.41 126.29C239.79 126.29 240.1 126.21 240.32 126.05C240.54 125.89 240.66 125.67 240.66 125.39C240.66 125.11 240.55 124.89 240.32 124.73C240.1 124.57 239.79 124.49 239.41 124.49C239.03 124.49 238.72 124.57 238.51 124.73C238.3 124.89 238.18 125.11 238.18 125.39C238.18 125.67 238.29 125.89 238.51 126.05C238.73 126.21 239.03 126.29 239.41 126.29ZM239.41 123.74C239.74 123.74 240 123.67 240.19 123.53C240.38 123.39 240.48 123.2 240.48 122.96C240.48 122.72 240.38 122.51 240.18 122.38C239.98 122.25 239.72 122.17 239.4 122.17C239.08 122.17 238.82 122.24 238.63 122.38C238.44 122.52 238.34 122.71 238.34 122.96C238.34 123.21 238.44 123.39 238.63 123.53C238.82 123.67 239.08 123.74 239.4 123.74H239.41Z" fill="#13110C"/>
<path d="M242.3 127.03V126.33L244.52 124.22C244.71 124.04 244.85 123.89 244.94 123.76C245.03 123.63 245.09 123.5 245.12 123.39C245.15 123.27 245.16 123.17 245.16 123.07C245.16 122.81 245.07 122.61 244.9 122.47C244.72 122.33 244.46 122.26 244.12 122.26C243.85 122.26 243.6 122.31 243.38 122.4C243.16 122.49 242.97 122.64 242.81 122.84L242.08 122.28C242.3 121.99 242.59 121.76 242.96 121.6C243.33 121.44 243.75 121.36 244.2 121.36C244.61 121.36 244.96 121.43 245.26 121.56C245.56 121.69 245.79 121.88 245.96 122.12C246.12 122.36 246.2 122.65 246.2 122.98C246.2 123.16 246.18 123.34 246.13 123.52C246.08 123.7 245.99 123.89 245.86 124.08C245.73 124.27 245.53 124.5 245.28 124.74L243.37 126.56L243.15 126.17H246.42V127.05H242.29L242.3 127.03Z" fill="#13110C"/>
<path d="M41.2 3.37988H34.12V21.3799H41.2V3.37988Z" fill="#511F19"/>
<path d="M34.12 0.5H31.24V23.3H34.12V0.5Z" fill="#511F19"/>
<path d="M313.96 0.5H31.24V3.38H313.96V0.5Z" fill="#511F19"/>
<path d="M313.96 3.37988H34.12V10.4599H313.96V3.37988Z" fill="#511F19"/>
<path d="M34.12 291.51H31.22V316.12H34.12V291.51Z" fill="#511F19"/>
<path d="M41.2 293.32H34.12V316.12H41.2V293.32Z" fill="#511F19"/>
<path d="M34.12 89.6699H31.22V129.75H34.12V89.6699Z" fill="#511F19"/>
<path d="M41.2 91.48H34.12V127.93H41.2V91.48Z" fill="#511F19"/>
<path d="M34.12 174.03H31.22V225.14H34.12V174.03Z" fill="#511F19"/>
<path d="M41.2 175.93H34.12V223.37H41.2V175.93Z" fill="#511F19"/>
<path d="M38.66 127.93H36.51V129.5H38.66V127.93Z" fill="#511F19"/>
<path d="M38.66 148.96H36.51V150.53H38.66V148.96Z" fill="#511F19"/>
<path d="M34.12 174.12V150.5H41.2V175.93" stroke="#511F19" stroke-width="0.43" stroke-miterlimit="10"/>
<path d="M31.22 212.54H0.220001V125.06H31.24" stroke="#511F19" stroke-width="0.43" stroke-miterlimit="10"/>
<path d="M31.24 126.98H2.13V210.62H31.22" stroke="#511F19" stroke-width="0.43" stroke-miterlimit="10"/>
<path d="M37.6 175.93V150.5" stroke="#511F19" stroke-width="0.43" stroke-miterlimit="10"/>
<path d="M34.12 23.2002V89.5802" stroke="#511F19" stroke-width="0.43" stroke-miterlimit="10"/>
<path d="M37.6 21.3799V91.4799" stroke="#511F19" stroke-width="0.43" stroke-miterlimit="10"/>
<path d="M41.2 21.3799V91.4799" stroke="#511F19" stroke-width="0.43" stroke-miterlimit="10"/>
<path d="M34.12 225.18V291.51" stroke="#511F19" stroke-width="0.43" stroke-miterlimit="10"/>
<path d="M37.6 223.37V293.41" stroke="#511F19" stroke-width="0.43" stroke-miterlimit="10"/>
<path d="M41.2 223.37V293.41" stroke="#511F19" stroke-width="0.43" stroke-miterlimit="10"/>
<path d="M149.56 105.74H41.2V108.02H149.56V105.74Z" fill="#511F19"/>
<path d="M106.13 105.74H69.41V112.82H106.13V105.74Z" fill="#511F19"/>
<path d="M149.55 105.74H147.27V132.41H149.55V105.74Z" fill="#511F19"/>
<path d="M149.55 158.3H147.27V213.55H149.55V158.3Z" fill="#511F19"/>
<path d="M313.95 0.5H288.51V180.26H313.95V0.5Z" fill="#511F19"/>
<path d="M313.97 156.86H232.1V180.26H313.97V156.86Z" fill="#511F19"/>
<path d="M232.09 156.86H187.72V163.94H232.09V156.86Z" fill="#511F19"/>
<path d="M190 134.54H187.72V181.7H190V134.54Z" fill="#511F19"/>
<path d="M189.92 105.74H187.72V111.62H189.92V105.74Z" fill="#511F19"/>
<path d="M298.59 105.74H187.72V108.02H298.59V105.74Z" fill="#511F19"/>
<path d="M149.56 206.67H31.47V213.75H149.56V206.67Z" fill="#511F19"/>
<path d="M239.08 309.04H31.47V316.12H239.08V309.04Z" fill="#511F19"/>
<path d="M152.43 211.46H149.55V213.74H152.43V211.46Z" fill="#511F19"/>
<path d="M201.28 211.46H178.12V213.74H201.28V211.46Z" fill="#511F19"/>
<path d="M239.07 211.46H224.05V213.74H239.07V211.46Z" fill="#511F19"/>
<path d="M239.07 245.8H180.63V248.08H239.07V245.8Z" fill="#511F19"/>
<path d="M72.72 272.67H69.41V315.13H72.72V272.67Z" fill="#511F19"/>
<path d="M239.08 211.46H232V316.11H239.08V211.46Z" fill="#511F19"/>
<path d="M182.87 211.46H180.63V263.54H182.87V211.46Z" fill="#511F19"/>
<path d="M182.87 286.46H180.63V316.11H182.87V286.46Z" fill="#511F19"/>
<path d="M235.02 298.33H181.35V316.12H235.02V298.33Z" fill="#511F19"/>
<path d="M72.21 233.39H69.93V234.95H72.21V233.39Z" fill="#511F19"/>
<path d="M72.21 257.64H69.93V259.2H72.21V257.64Z" fill="#511F19"/>
<path d="M239.07 181.89H267.35" stroke="#511F19" stroke-width="0.85" stroke-miterlimit="10"/>
<path d="M267.35 181.89C267.35 197.5 254.7 210.15 239.09 210.15" stroke="#511F19" stroke-width="0.43" stroke-miterlimit="10"/>
<path d="M38.67 129.5H58.07" stroke="#511F19" stroke-width="0.85" stroke-miterlimit="10"/>
<path d="M58.07 129.5C58.07 140.22 49.38 148.91 38.66 148.91" stroke="#511F19" stroke-width="0.43" stroke-miterlimit="10"/>
<path d="M72.2 234.95H94.86" stroke="#511F19" stroke-width="0.85" stroke-miterlimit="10"/>
<path d="M94.86 234.95C94.86 247.46 84.72 257.6 72.21 257.6" stroke="#511F19" stroke-width="0.43" stroke-miterlimit="10"/>
<path d="M239.08 210.02H236.8V213.27H239.08V210.02Z" fill="#511F19"/>
<path d="M239.08 178.64H236.8V181.89H239.08V178.64Z" fill="#511F19"/>
<path d="M69.63 272.67V259.2H72.51V272.67" stroke="#511F19" stroke-width="0.43" stroke-miterlimit="10"/>
<path d="M71.07 259.2V272.67" stroke="#511F19" stroke-width="0.43" stroke-miterlimit="10"/>
<path d="M69.63 213.74V233.39H72.51V213.74" stroke="#511F19" stroke-width="0.43" stroke-miterlimit="10"/>
<path d="M71.07 233.39V213.74" stroke="#511F19" stroke-width="0.43" stroke-miterlimit="10"/>
<path d="M187.72 134.54L177.68 116.42" stroke="#511F19" stroke-width="0.85" stroke-miterlimit="10"/>
<path d="M137.55 150.54L147.61 132.42" stroke="#511F19" stroke-width="0.85" stroke-miterlimit="10"/>
<path d="M152.43 213.64L170.56 223.69" stroke="#511F19" stroke-width="0.85" stroke-miterlimit="10"/>
<path d="M170.6 268.34L180.63 286.46" stroke="#511F19" stroke-width="0.85" stroke-miterlimit="10"/>
</g>
<defs>
<clipPath id="clip0_2024_6153">
<rect width="313.97" height="315.62" fill="white" transform="translate(0 0.5)"/>
</clipPath>
</defs>
</svg>
