<svg width="278" height="251" viewBox="0 0 278 251" fill="none" xmlns="http://www.w3.org/2000/svg">
<g clip-path="url(#clip0_2024_7181)">
<path d="M116.98 152.19H66.68V163.24H116.98V152.19Z" stroke="#C7C6C5" stroke-width="0.43" stroke-miterlimit="10"/>
<path d="M116.98 152.19H66.68V163.24H116.98V152.19Z" stroke="#C7C6C5" stroke-width="0.43" stroke-miterlimit="10"/>
<path d="M86.21 157.41L79.3 154.29L78.99 154.98L88.61 160.77V161.48C88.61 161.48 88.64 162.04 89.17 162.04H94.48C95.01 162.04 95.04 161.48 95.04 161.48V160.77L104.66 154.98L104.35 154.29L97.44 157.41H86.19H86.21Z" stroke="#C7C6C5" stroke-width="0.43" stroke-miterlimit="10"/>
<path d="M86.21 157.41L79.3 154.29L78.99 154.98L88.61 160.77V161.48C88.61 161.48 88.64 162.04 89.17 162.04H94.48C95.01 162.04 95.04 161.48 95.04 161.48V160.77L104.66 154.98L104.35 154.29L97.44 157.41H86.19H86.21Z" stroke="#C7C6C5" stroke-width="0.43" stroke-miterlimit="10"/>
<path d="M112.18 157.41H71.49V158.35H112.18V157.41Z" stroke="#C7C6C5" stroke-width="0.43" stroke-miterlimit="10"/>
<path d="M112.18 157.41H71.49V158.35H112.18V157.41Z" stroke="#C7C6C5" stroke-width="0.43" stroke-miterlimit="10"/>
<path d="M100.32 158.35C99.23 158.35 99.32 159.32 98.1 159.32H85.57C84.35 159.32 84.45 158.35 83.35 158.35H100.32Z" stroke="#C7C6C5" stroke-width="0.43" stroke-miterlimit="10"/>
<path d="M100.32 158.35C99.23 158.35 99.32 159.32 98.1 159.32H85.57C84.35 159.32 84.45 158.35 83.35 158.35H100.32Z" stroke="#C7C6C5" stroke-width="0.43" stroke-miterlimit="10"/>
<path d="M106.3 175.33C106.3 169.92 101.9 165.51 96.48 165.51C91.06 165.51 86.66 169.91 86.66 175.33V204.71C86.66 210.12 91.06 214.53 96.48 214.53C101.9 214.53 106.3 210.13 106.3 204.71V175.33Z" stroke="#C7C6C5" stroke-width="0.43" stroke-linecap="round" stroke-linejoin="round"/>
<path d="M104.44 175.55C104.44 171.16 100.87 167.59 96.48 167.59C92.09 167.59 88.52 171.16 88.52 175.55V204.7C88.52 209.09 92.09 212.66 96.48 212.66C100.87 212.66 104.44 209.09 104.44 204.7V175.55Z" stroke="#C7C6C5" stroke-width="0.43" stroke-linecap="round" stroke-linejoin="round"/>
<path d="M96.48 207.19C98.42 207.19 100 205.62 100 203.67V177.78C100 175.84 98.43 174.26 96.48 174.26C94.54 174.26 92.96 175.83 92.96 177.78V203.67C92.96 205.61 94.53 207.19 96.48 207.19Z" stroke="#C7C6C5" stroke-width="0.43" stroke-linecap="round" stroke-linejoin="round"/>
<path d="M89.39 191.64C89.64 191.64 89.83 191.23 89.83 190.72C89.83 190.21 89.63 189.8 89.39 189.8C89.15 189.8 88.95 190.21 88.95 190.72C88.95 191.23 89.15 191.64 89.39 191.64Z" stroke="#C7C6C5" stroke-width="0.43" stroke-linecap="round" stroke-linejoin="round"/>
<path d="M223.82 33.1499H213.38C212.988 33.1499 212.67 33.4678 212.67 33.8599V44.2999C212.67 44.692 212.988 45.0099 213.38 45.0099H223.82C224.212 45.0099 224.53 44.692 224.53 44.2999V33.8599C224.53 33.4678 224.212 33.1499 223.82 33.1499Z" stroke="#C7C6C5" stroke-width="0.43" stroke-linecap="round" stroke-linejoin="round"/>
<path d="M167.5 33.1499H157.06C156.668 33.1499 156.35 33.4678 156.35 33.8599V44.2999C156.35 44.692 156.668 45.0099 157.06 45.0099H167.5C167.892 45.0099 168.21 44.692 168.21 44.2999V33.8599C168.21 33.4678 167.892 33.1499 167.5 33.1499Z" stroke="#C7C6C5" stroke-width="0.43" stroke-linecap="round" stroke-linejoin="round"/>
<path d="M211.75 34.9899C211.75 34.9899 211.78 33.8599 210.62 33.8599H170.26C169.08 33.8599 169.13 34.9899 169.13 34.9899V84.9399C169.13 84.9399 169.1 86.0699 170.26 86.0699H210.62C211.8 86.0699 211.75 84.9399 211.75 84.9399V34.9899Z" stroke="#C7C6C5" stroke-width="0.43" stroke-miterlimit="10"/>
<path d="M192.26 35.6699H208.51C209.04 35.6699 209.48 36.0999 209.48 36.6399V46.4699C209.48 46.9999 209.05 47.4299 208.52 47.4299H192.26C191.73 47.4299 191.29 46.9999 191.29 46.4599V36.6399C191.29 36.1099 191.72 35.6699 192.26 35.6699Z" stroke="#C7C6C5" stroke-width="0.43" stroke-miterlimit="10"/>
<path d="M172.37 35.6699H188.63C189.16 35.6699 189.59 36.0999 189.59 36.6299V46.4499C189.59 46.9799 189.16 47.4199 188.62 47.4199H172.36C171.83 47.4199 171.39 46.9899 171.39 46.4499V36.6299C171.39 36.0999 171.82 35.6599 172.36 35.6599H172.37V35.6699Z" stroke="#C7C6C5" stroke-width="0.43" stroke-miterlimit="10"/>
<path d="M211.75 48.5798H169.13" stroke="#C7C6C5" stroke-width="0.43" stroke-miterlimit="10"/>
<path d="M169.13 39.2399C169.85 39.2399 169.84 38.3899 169.84 38.3899V34.9899C169.84 34.8999 169.86 34.7399 169.94 34.6499C170.01 34.5799 170.15 34.5599 170.26 34.5599H210.62C210.77 34.5599 210.87 34.5899 210.93 34.6499C211.02 34.7499 211.04 34.9499 211.04 34.9699V38.3799C211.04 38.3799 211.01 39.2299 211.75 39.2299C212.49 39.2299 212.46 38.3799 212.46 38.3799V34.9899C212.46 34.8599 212.44 34.4499 212.22 34.0399C211.91 33.4599 211.34 33.1499 210.62 33.1499H170.26C169.56 33.1499 169.14 33.4399 168.91 33.6799C168.4 34.2199 168.41 34.9399 168.42 35.0299V38.3999C168.42 38.3999 168.4 39.2499 169.13 39.2499V39.2399Z" stroke="#C7C6C5" stroke-width="0.43" stroke-miterlimit="10"/>
<path d="M211.75 38.3999V34.9999C211.75 34.9999 211.78 33.8699 210.62 33.8699H170.26C169.08 33.8699 169.13 34.9999 169.13 34.9999V38.3999" stroke="#C7C6C5" stroke-width="0.43" stroke-miterlimit="10" stroke-linecap="round"/>
<path d="M150.27 196.38C152.65 196.38 152.65 198.23 152.65 198.76V213.6C152.65 214.13 152.22 214.57 151.68 214.57H141.86C141.33 214.57 140.89 214.14 140.89 213.6V198.76C140.89 198.23 140.89 196.38 143.27 196.38H150.27Z" stroke="#C7C6C5" stroke-width="0.43" stroke-miterlimit="10"/>
<path d="M143.81 198.47H149.74C150.25 198.47 150.67 198.89 150.67 199.4V210.89C150.67 211.4 150.26 211.82 149.74 211.82H143.81C143.3 211.82 142.88 211.41 142.88 210.89V199.4C142.88 198.89 143.3 198.47 143.81 198.47Z" stroke="#C7C6C5" stroke-width="0.43" stroke-miterlimit="10"/>
<path d="M145.24 211.83C145.24 210.98 145.93 210.3 146.77 210.3C147.61 210.3 148.3 210.99 148.3 211.83" stroke="#C7C6C5" stroke-width="0.43" stroke-miterlimit="10"/>
<path d="M218.33 132.18C214.66 128.51 206.8 130.7 203.01 133.09C199.22 135.49 198.7 141.03 204.09 146.42C209.48 151.81 215.03 151.29 217.42 147.5C219.81 143.71 222 135.85 218.34 132.18H218.33Z" stroke="#C7C6C5" stroke-width="0.43" stroke-miterlimit="10"/>
<path d="M206.5 134.6C208.26 134.96 209.91 133.78 209.91 133.78C209.91 133.78 211.18 134.46 212.89 134.16C212.89 134.16 213.74 135.37 214.43 136.07C215.12 136.76 216.33 137.61 216.33 137.61C216.04 139.32 216.71 140.59 216.71 140.59C216.71 140.59 215.53 142.24 215.89 144" stroke="#C7C6C5" stroke-width="0.43" stroke-miterlimit="10"/>
<path d="M228.07 107.19H176.73V124.84H228.07V107.19Z" stroke="#C7C6C5" stroke-width="0.43" stroke-linecap="round" stroke-linejoin="round"/>
<path d="M202.71 111.76C202.71 110.56 200.94 110.58 200.94 111.76C200.94 112.64 201.82 112.4 201.82 113.2" stroke="#C7C6C5" stroke-width="0.43" stroke-linecap="round" stroke-linejoin="round"/>
<path d="M201.83 113.2L207.78 115.2C207.78 115.2 208.33 115.41 208.25 116.01C208.17 116.61 207.61 116.54 207.61 116.54H196.06C196.06 116.54 195.5 116.61 195.42 116.01C195.34 115.41 195.89 115.2 195.89 115.2L201.84 113.2H201.83Z" stroke="#C7C6C5" stroke-width="0.43" stroke-linecap="round" stroke-linejoin="round"/>
<path d="M210.17 115.98H226.85" stroke="#C7C6C5" stroke-width="0.43" stroke-linecap="round" stroke-linejoin="round"/>
<path d="M177.53 115.98H193.46" stroke="#C7C6C5" stroke-width="0.43" stroke-linecap="round" stroke-linejoin="round"/>
<path d="M178.71 165.35H160.35V214.67H178.71V165.35Z" stroke="#C7C6C5" stroke-width="0.43" stroke-linecap="round" stroke-linejoin="round"/>
<path d="M170.38 187.36C170.38 186.14 168.57 186.15 168.57 187.36C168.57 188.26 169.48 188.02 169.48 188.83" stroke="#C7C6C5" stroke-width="0.43" stroke-linecap="round" stroke-linejoin="round"/>
<path d="M169.48 188.83L175.57 190.88C175.57 190.88 176.13 191.09 176.05 191.71C175.97 192.33 175.4 192.26 175.4 192.26H163.57C163.57 192.26 162.94 192.33 162.86 191.71C162.78 191.1 163.39 190.88 163.39 190.88L169.48 188.83Z" stroke="#C7C6C5" stroke-width="0.43" stroke-linecap="round" stroke-linejoin="round"/>
<path d="M169.48 185.41V166.74" stroke="#C7C6C5" stroke-width="0.43" stroke-linecap="round" stroke-linejoin="round"/>
<path d="M169.48 213.36V193.38" stroke="#C7C6C5" stroke-width="0.43" stroke-linecap="round" stroke-linejoin="round"/>
<path d="M73.37 165.52H55.09V214.62H73.37V165.52Z" stroke="#C7C6C5" stroke-width="0.43" stroke-linecap="round" stroke-linejoin="round"/>
<path d="M65.08 187.43C65.08 186.21 63.28 186.23 63.28 187.43C63.28 188.33 64.18 188.09 64.18 188.9" stroke="#C7C6C5" stroke-width="0.43" stroke-linecap="round" stroke-linejoin="round"/>
<path d="M64.18 188.88L70.24 190.92C70.24 190.92 70.8 191.13 70.72 191.74C70.64 192.35 70.07 192.28 70.07 192.28H58.29C58.29 192.28 57.67 192.35 57.59 191.74C57.51 191.13 58.12 190.92 58.12 190.92L64.18 188.88Z" stroke="#C7C6C5" stroke-width="0.43" stroke-linecap="round" stroke-linejoin="round"/>
<path d="M64.18 185.47V166.88" stroke="#C7C6C5" stroke-width="0.43" stroke-linecap="round" stroke-linejoin="round"/>
<path d="M64.18 213.32V193.41" stroke="#C7C6C5" stroke-width="0.43" stroke-linecap="round" stroke-linejoin="round"/>
<path d="M265.67 185.41C265.67 185.41 266.8 185.38 266.8 186.54V212.73C266.8 213.91 265.67 213.86 265.67 213.86H215.72C215.72 213.86 214.59 213.89 214.59 212.73V186.54C214.59 185.36 215.72 185.41 215.72 185.41H265.67Z" stroke="#C7C6C5" stroke-width="0.43" stroke-miterlimit="10"/>
<path d="M264.01 190.55H254.2C253.664 190.55 253.23 190.984 253.23 191.52V207.77C253.23 208.306 253.664 208.74 254.2 208.74H264.01C264.546 208.74 264.98 208.306 264.98 207.77V191.52C264.98 190.984 264.546 190.55 264.01 190.55Z" stroke="#C7C6C5" stroke-width="0.43" stroke-miterlimit="10"/>
<path d="M252.08 185.41V213.86" stroke="#C7C6C5" stroke-width="0.43" stroke-miterlimit="10"/>
<path d="M261.42 213.86C261.42 213.14 262.27 213.15 262.27 213.15H265.67C265.76 213.15 265.92 213.13 266.01 213.04C266.08 212.97 266.1 212.83 266.1 212.72V186.53C266.1 186.38 266.07 186.28 266.01 186.22C265.91 186.13 265.71 186.1 265.69 186.1H262.28C262.28 186.1 261.43 186.13 261.43 185.39C261.43 184.65 262.28 184.68 262.28 184.68H265.69C265.81 184.68 266.22 184.7 266.63 184.92C267.21 185.23 267.52 185.8 267.52 186.52V212.71C267.52 213.41 267.23 213.83 266.99 214.06C266.45 214.58 265.72 214.56 265.64 214.55H262.27C262.27 214.55 261.42 214.57 261.42 213.84V213.86Z" stroke="#C7C6C5" stroke-width="0.43" stroke-miterlimit="10"/>
<path d="M262.27 185.41H265.67C265.67 185.41 266.8 185.38 266.8 186.54V212.73C266.8 213.91 265.67 213.86 265.67 213.86H262.27" stroke="#C7C6C5" stroke-width="0.43" stroke-miterlimit="10" stroke-linecap="round"/>
<path d="M236.79 160.66L233.47 157.34C233.47 157.34 233.26 156.98 232.64 157.27C232.02 157.56 232.28 158.18 232.28 158.18C232.28 158.18 232.42 160.19 234.85 162.62" stroke="#C7C6C5" stroke-width="0.43" stroke-miterlimit="10"/>
<path d="M236.79 160.66L233.47 157.34C233.47 157.34 233.26 156.98 232.64 157.27C232.02 157.56 232.28 158.18 232.28 158.18C232.28 158.18 232.42 160.19 234.85 162.62" stroke="#C7C6C5" stroke-width="0.43" stroke-linecap="round" stroke-linejoin="round"/>
<path d="M233.27 157.19C232.86 157.19 232.74 158.49 235.85 161.59" stroke="#C7C6C5" stroke-width="0.43" stroke-linecap="round" stroke-linejoin="round"/>
<path d="M232.96 155.01L236.31 150.93C236.49 150.71 236.83 150.67 237.06 150.86L237.41 151.15C237.63 151.33 237.67 151.67 237.48 151.9L234.13 155.98C233.95 156.2 233.61 156.24 233.38 156.05L233.03 155.76C232.81 155.58 232.77 155.24 232.96 155.01Z" stroke="#C7C6C5" stroke-width="0.43" stroke-miterlimit="10"/>
<path d="M232.96 155.01L236.31 150.93C236.49 150.71 236.83 150.67 237.06 150.86L237.41 151.15C237.63 151.33 237.67 151.67 237.48 151.9L234.13 155.98C233.95 156.2 233.61 156.24 233.38 156.05L233.03 155.76C232.81 155.58 232.77 155.24 232.96 155.01Z" stroke="#C7C6C5" stroke-width="0.43" stroke-linecap="round" stroke-linejoin="round"/>
<path d="M244.68 152.77C240.74 148.83 239.46 149.06 237.64 151.55C237.64 151.55 237.76 151.68 237.43 152.08C237.1 152.48 234.54 155.59 234.54 155.59C234.17 156.04 233.94 157.81 235.58 159.45L238.01 161.88C239.65 163.52 241.42 163.29 241.87 162.92C241.87 162.92 245.21 160.17 245.43 159.99C245.65 159.81 245.91 159.82 245.91 159.82C248.4 158 248.63 156.72 244.69 152.78" stroke="#C7C6C5" stroke-width="0.43" stroke-miterlimit="10"/>
<path d="M244.68 152.77C240.74 148.83 239.46 149.06 237.64 151.55C237.64 151.55 237.76 151.68 237.43 152.08C237.1 152.48 234.54 155.59 234.54 155.59C234.17 156.04 233.94 157.81 235.58 159.45L238.01 161.88C239.65 163.52 241.42 163.29 241.87 162.92C241.87 162.92 245.21 160.17 245.43 159.99C245.65 159.81 245.91 159.82 245.91 159.82C248.4 158 248.63 156.72 244.69 152.78" stroke="#C7C6C5" stroke-width="0.43" stroke-linecap="round" stroke-linejoin="round"/>
<path d="M236.79 160.66L240.11 163.98C240.11 163.98 240.47 164.19 240.18 164.81C239.89 165.43 239.27 165.18 239.27 165.18C239.27 165.18 237.26 165.03 234.83 162.61" stroke="#C7C6C5" stroke-width="0.43" stroke-miterlimit="10"/>
<path d="M236.79 160.66L240.11 163.98C240.11 163.98 240.47 164.19 240.18 164.81C239.89 165.43 239.27 165.18 239.27 165.18C239.27 165.18 237.26 165.03 234.83 162.61" stroke="#C7C6C5" stroke-width="0.43" stroke-linecap="round" stroke-linejoin="round"/>
<path d="M240.26 164.18C240.26 164.59 238.96 164.71 235.86 161.6" stroke="#C7C6C5" stroke-width="0.43" stroke-linecap="round" stroke-linejoin="round"/>
<path d="M241.38 163.21L245.45 159.85C245.67 159.67 246.01 159.7 246.2 159.92L246.49 160.27C246.67 160.49 246.64 160.83 246.42 161.02L242.35 164.38C242.13 164.56 241.79 164.53 241.6 164.31L241.31 163.96C241.13 163.74 241.16 163.4 241.38 163.21Z" stroke="#C7C6C5" stroke-width="0.43" stroke-miterlimit="10"/>
<path d="M241.38 163.21L245.45 159.85C245.67 159.67 246.01 159.7 246.2 159.92L246.49 160.27C246.67 160.49 246.64 160.83 246.42 161.02L242.35 164.38C242.13 164.56 241.79 164.53 241.6 164.31L241.31 163.96C241.13 163.74 241.16 163.4 241.38 163.21Z" stroke="#C7C6C5" stroke-width="0.43" stroke-linecap="round" stroke-linejoin="round"/>
<path d="M267.41 131.91H225.05V151.31H267.41V131.91Z" stroke="#C7C6C5" stroke-width="0.43" stroke-miterlimit="10"/>
<path d="M267.41 131.91H225.05V151.31H267.41V131.91Z" stroke="#C7C6C5" stroke-width="0.43" stroke-linecap="round" stroke-linejoin="round"/>
<path d="M75.52 94.4001C75.52 94.4001 74.83 93.5001 74.83 92.9001C74.83 92.5101 75.58 91.3401 80.72 91.3401C85.86 91.3401 86.61 92.5101 86.61 92.9001C86.61 93.7301 85.92 94.3901 85.92 94.3901" stroke="#C7C6C5" stroke-width="0.43" stroke-miterlimit="10"/>
<path d="M86.61 103.53C86.61 103.92 86.29 104.24 85.9 104.24H75.54C75.15 104.24 74.83 103.92 74.83 103.53V95.1701C74.83 94.7801 75.58 93.6101 80.72 93.6101C85.86 93.6101 86.61 94.7801 86.61 95.1701V103.54V103.53Z" stroke="#C7C6C5" stroke-width="0.43" stroke-miterlimit="10"/>
<path d="M94.44 104.81C94.44 104.81 95.34 104.12 95.94 104.12C96.33 104.12 97.5 104.87 97.5 110.01C97.5 115.15 96.33 115.9 95.94 115.9C95.11 115.9 94.45 115.21 94.45 115.21" stroke="#C7C6C5" stroke-width="0.43" stroke-miterlimit="10"/>
<path d="M85.31 115.91C84.92 115.91 84.6 115.59 84.6 115.2V104.84C84.6 104.45 84.92 104.13 85.31 104.13H93.67C94.06 104.13 95.23 104.88 95.23 110.02C95.23 115.16 94.06 115.91 93.67 115.91H85.3H85.31Z" stroke="#C7C6C5" stroke-width="0.43" stroke-miterlimit="10"/>
<path d="M47.18 109.45C47.18 109.45 46.06 109.6 45.64 110.02C45.36 110.3 45.07 111.65 48.7 115.29C52.33 118.93 53.69 118.63 53.97 118.35C54.56 117.76 54.54 116.81 54.54 116.81" stroke="#C7C6C5" stroke-width="0.43" stroke-miterlimit="10"/>
<path d="M61.48 110.83C61.76 110.55 61.76 110.11 61.48 109.83L54.15 102.5C53.87 102.22 53.42 102.22 53.15 102.5L47.24 108.41C46.96 108.69 46.67 110.04 50.3 113.68C53.93 117.32 55.29 117.02 55.57 116.74L61.48 110.82V110.83Z" stroke="#C7C6C5" stroke-width="0.43" stroke-miterlimit="10"/>
<path d="M60.9 94.4001C60.9 94.4001 60.21 93.5001 60.21 92.9001C60.21 92.5101 60.96 91.3401 66.1 91.3401C71.24 91.3401 71.99 92.5101 71.99 92.9001C71.99 93.7301 71.3 94.3901 71.3 94.3901" stroke="#C7C6C5" stroke-width="0.43" stroke-miterlimit="10"/>
<path d="M71.99 103.53C71.99 103.92 71.67 104.24 71.28 104.24H60.92C60.53 104.24 60.21 103.92 60.21 103.53V95.1701C60.21 94.7801 60.96 93.6101 66.1 93.6101C71.24 93.6101 71.99 94.7801 71.99 95.1701V103.54V103.53Z" stroke="#C7C6C5" stroke-width="0.43" stroke-miterlimit="10"/>
<path d="M75.52 125.76C75.52 125.76 74.83 126.66 74.83 127.26C74.83 127.65 75.58 128.82 80.72 128.82C85.86 128.82 86.61 127.65 86.61 127.26C86.61 126.43 85.92 125.77 85.92 125.77" stroke="#C7C6C5" stroke-width="0.43" stroke-miterlimit="10"/>
<path d="M86.61 116.62C86.61 116.23 86.29 115.91 85.9 115.91H75.54C75.15 115.91 74.83 116.23 74.83 116.62V124.98C74.83 125.37 75.58 126.54 80.72 126.54C85.86 126.54 86.61 125.37 86.61 124.98V116.61V116.62Z" stroke="#C7C6C5" stroke-width="0.43" stroke-miterlimit="10"/>
<path d="M60.9 125.76C60.9 125.76 60.21 126.66 60.21 127.26C60.21 127.65 60.96 128.82 66.1 128.82C71.24 128.82 71.99 127.65 71.99 127.26C71.99 126.43 71.3 125.77 71.3 125.77" stroke="#C7C6C5" stroke-width="0.43" stroke-miterlimit="10"/>
<path d="M71.99 116.62C71.99 116.23 71.67 115.91 71.28 115.91H60.92C60.53 115.91 60.21 116.23 60.21 116.62V124.98C60.21 125.37 60.96 126.54 66.1 126.54C71.24 126.54 71.99 125.37 71.99 124.98V116.61V116.62Z" stroke="#C7C6C5" stroke-width="0.43" stroke-miterlimit="10"/>
<path d="M90.24 98.76H56.59V121.29H90.24V98.76Z" stroke="#C7C6C5" stroke-width="0.43" stroke-miterlimit="10"/>
<path d="M112.87 202.08H134.15C134.54 202.08 134.86 202.4 134.86 202.79V214.01C134.86 214.4 134.54 214.72 134.15 214.72H112.87C112.48 214.72 112.16 214.4 112.16 214.01V202.79C112.16 202.4 112.48 202.08 112.87 202.08Z" stroke="#C7C6C5" stroke-width="0.43" stroke-linecap="round" stroke-linejoin="round"/>
<path d="M132.77 208.11C132.77 210.77 128.61 212.93 123.48 212.93C118.35 212.93 114.19 210.77 114.19 208.11C114.19 205.45 118.35 203.29 123.48 203.29C128.61 203.29 132.77 205.45 132.77 208.11Z" stroke="#C7C6C5" stroke-width="0.43" stroke-miterlimit="10"/>
<path d="M132.77 208.11C132.77 210.77 128.61 212.93 123.48 212.93C118.35 212.93 114.19 210.77 114.19 208.11C114.19 205.45 118.35 203.29 123.48 203.29C128.61 203.29 132.77 205.45 132.77 208.11Z" stroke="#C7C6C5" stroke-width="0.43" stroke-linecap="round" stroke-linejoin="round"/>
<path d="M121.13 213.16C121.13 213.58 120.79 213.91 120.38 213.91C119.97 213.91 119.63 213.57 119.63 213.16C119.63 212.75 119.97 212.41 120.38 212.41C120.79 212.41 121.13 212.75 121.13 213.16Z" stroke="#C7C6C5" stroke-width="0.43" stroke-miterlimit="10"/>
<path d="M120.38 213.91C120.794 213.91 121.13 213.574 121.13 213.16C121.13 212.746 120.794 212.41 120.38 212.41C119.966 212.41 119.63 212.746 119.63 213.16C119.63 213.574 119.966 213.91 120.38 213.91Z" stroke="#C7C6C5" stroke-width="0.43" stroke-linecap="round" stroke-linejoin="round"/>
<path d="M127.44 213.16C127.44 213.58 127.1 213.91 126.69 213.91C126.28 213.91 125.94 213.57 125.94 213.16C125.94 212.75 126.28 212.41 126.69 212.41C127.1 212.41 127.44 212.75 127.44 213.16Z" stroke="#C7C6C5" stroke-width="0.43" stroke-miterlimit="10"/>
<path d="M126.68 213.91C127.094 213.91 127.43 213.574 127.43 213.16C127.43 212.746 127.094 212.41 126.68 212.41C126.266 212.41 125.93 212.746 125.93 213.16C125.93 213.574 126.266 213.91 126.68 213.91Z" stroke="#C7C6C5" stroke-width="0.43" stroke-linecap="round" stroke-linejoin="round"/>
<path d="M123.91 210.8C123.91 210.56 123.72 210.37 123.48 210.37C123.24 210.37 123.05 210.56 123.05 210.8L122.92 213.13C122.92 213.44 123.17 213.69 123.49 213.69C123.81 213.69 124.06 213.44 124.06 213.13L123.93 210.8H123.91Z" stroke="#C7C6C5" stroke-width="0.43" stroke-miterlimit="10"/>
<path d="M123.91 210.8C123.91 210.56 123.72 210.37 123.48 210.37C123.24 210.37 123.05 210.56 123.05 210.8L122.92 213.13C122.92 213.44 123.17 213.69 123.49 213.69C123.81 213.69 124.06 213.44 124.06 213.13L123.93 210.8H123.91Z" stroke="#C7C6C5" stroke-width="0.43" stroke-linecap="round" stroke-linejoin="round"/>
<path d="M126.1 165.22H110.32V177.94H126.1V165.22Z" stroke="#C7C6C5" stroke-width="0.43" stroke-linecap="round" stroke-linejoin="round"/>
<path d="M118.16 167.16C120.6 167.16 122.58 169.14 122.58 171.58C122.58 174.02 120.6 176 118.16 176C115.72 176 113.74 174.02 113.74 171.58C113.74 169.14 115.72 167.16 118.16 167.16Z" stroke="#C7C6C5" stroke-width="0.43" stroke-linecap="round" stroke-linejoin="round"/>
<path d="M118.16 167.16C115.9 167.16 114.59 169 114.59 171.26C114.59 173.07 116.06 174.54 117.87 174.54C119.32 174.54 120.49 173.37 120.49 171.92C120.49 170.76 119.55 169.82 118.39 169.82C117.46 169.82 116.71 170.57 116.71 171.5C116.71 172.24 117.31 172.84 118.05 172.84C118.64 172.84 119.13 172.36 119.13 171.76C119.13 171.29 118.75 170.9 118.27 170.9C117.89 170.9 117.58 171.21 117.58 171.59C117.58 171.89 117.83 172.14 118.13 172.14C118.37 172.14 118.57 171.94 118.57 171.7" stroke="#C7C6C5" stroke-width="0.43" stroke-linecap="round" stroke-linejoin="round"/>
<path d="M118.16 170.97C117.82 170.97 117.54 171.25 117.54 171.59C117.54 171.93 117.82 172.21 118.16 172.21C118.5 172.21 118.78 171.93 118.78 171.59C118.78 171.25 118.5 170.97 118.16 170.97Z" fill="#144E30"/>
<path d="M114.58 57.8799H131.6C131.98 57.8799 132.29 58.1899 132.29 58.5699V79.0799C132.29 79.4599 131.98 79.7699 131.6 79.7699H114.59C114.21 79.7699 113.9 79.4599 113.9 79.0799V58.5699C113.9 58.1899 114.21 57.8799 114.59 57.8799H114.58Z" stroke="#C7C6C5" stroke-width="0.43" stroke-miterlimit="10"/>
<path d="M114.58 57.8799H131.6C131.98 57.8799 132.29 58.1899 132.29 58.5699V79.0799C132.29 79.4599 131.98 79.7699 131.6 79.7699H114.59C114.21 79.7699 113.9 79.4599 113.9 79.0799V58.5699C113.9 58.1899 114.21 57.8799 114.59 57.8799H114.58Z" stroke="#C7C6C5" stroke-width="0.43" stroke-miterlimit="10"/>
<path d="M135.38 79.7699C135.76 79.7699 136.07 79.4599 136.07 79.0799V58.5699C136.07 58.1899 135.76 57.8799 135.38 57.8799H132.98C132.6 57.8799 132.29 58.1899 132.29 58.5699V79.0799C132.29 79.4599 132.6 79.7699 132.98 79.7699H135.38Z" stroke="#C7C6C5" stroke-width="0.43" stroke-miterlimit="10"/>
<path d="M135.38 79.7699C135.76 79.7699 136.07 79.4599 136.07 79.0799V58.5699C136.07 58.1899 135.76 57.8799 135.38 57.8799H132.98C132.6 57.8799 132.29 58.1899 132.29 58.5699V79.0799C132.29 79.4599 132.6 79.7699 132.98 79.7699H135.38Z" stroke="#C7C6C5" stroke-width="0.43" stroke-miterlimit="10"/>
<path d="M136.07 57.19V36.68C136.07 36.3 135.76 35.99 135.38 35.99H114.59C114.21 35.99 113.9 36.3 113.9 36.68V39.07C113.9 39.45 114.21 39.76 114.59 39.76H132.3V57.18C132.3 57.56 132.61 57.87 132.99 57.87H135.39C135.77 57.87 136.08 57.56 136.08 57.18" stroke="#C7C6C5" stroke-width="0.43" stroke-miterlimit="10"/>
<path d="M136.07 57.19V36.68C136.07 36.3 135.76 35.99 135.38 35.99H114.59C114.21 35.99 113.9 36.3 113.9 36.68V39.07C113.9 39.45 114.21 39.76 114.59 39.76H132.3V57.18C132.3 57.56 132.61 57.87 132.99 57.87H135.39C135.77 57.87 136.08 57.56 136.08 57.18L136.07 57.19Z" stroke="#C7C6C5" stroke-width="0.43" stroke-miterlimit="10"/>
<path d="M138.06 79.7699C138.44 79.7699 138.75 79.4599 138.75 79.0799V58.5699C138.75 58.1899 138.44 57.8799 138.06 57.8799H136.76C136.38 57.8799 136.07 58.1899 136.07 58.5699V79.0799C136.07 79.4599 136.38 79.7699 136.76 79.7699H138.06Z" stroke="#C7C6C5" stroke-width="0.43" stroke-miterlimit="10"/>
<path d="M138.06 79.7699C138.44 79.7699 138.75 79.4599 138.75 79.0799V58.5699C138.75 58.1899 138.44 57.8799 138.06 57.8799H136.76C136.38 57.8799 136.07 58.1899 136.07 58.5699V79.0799C136.07 79.4599 136.38 79.7699 136.76 79.7699H138.06Z" stroke="#C7C6C5" stroke-width="0.43" stroke-miterlimit="10"/>
<path d="M92 40.44C92 40.06 92.31 39.75 92.69 39.75H113.2C113.58 39.75 113.89 40.06 113.89 40.44V57.21C113.89 57.59 113.58 57.9 113.2 57.9H92.69C92.31 57.9 92 57.59 92 57.21V40.44Z" stroke="#C7C6C5" stroke-width="0.43" stroke-miterlimit="10"/>
<path d="M92 40.44C92 40.06 92.31 39.75 92.69 39.75H113.2C113.58 39.75 113.89 40.06 113.89 40.44V57.21C113.89 57.59 113.58 57.9 113.2 57.9H92.69C92.31 57.9 92 57.59 92 57.21V40.44Z" stroke="#C7C6C5" stroke-width="0.43" stroke-miterlimit="10"/>
<path d="M92.7 35.97H113.21C113.59 35.97 113.9 36.28 113.9 36.66V39.06C113.9 39.44 113.59 39.75 113.21 39.75H92.7C92.32 39.75 92.01 39.44 92.01 39.06V36.67C92.01 36.29 92.32 35.98 92.7 35.98V35.97Z" stroke="#C7C6C5" stroke-width="0.43" stroke-miterlimit="10"/>
<path d="M92.7 35.97H113.21C113.59 35.97 113.9 36.28 113.9 36.66V39.06C113.9 39.44 113.59 39.75 113.21 39.75H92.7C92.32 39.75 92.01 39.44 92.01 39.06V36.67C92.01 36.29 92.32 35.98 92.7 35.98V35.97Z" stroke="#C7C6C5" stroke-width="0.43" stroke-miterlimit="10"/>
<path d="M92.7 33.1499H113.21C113.59 33.1499 113.9 33.4599 113.9 33.8399V35.2699C113.9 35.6499 113.59 35.9599 113.21 35.9599H92.7C92.32 35.9599 92.01 35.6499 92.01 35.2699V33.8399C92.01 33.4599 92.32 33.1499 92.7 33.1499Z" stroke="#C7C6C5" stroke-width="0.43" stroke-miterlimit="10"/>
<path d="M92.7 33.1499H113.21C113.59 33.1499 113.9 33.4599 113.9 33.8399V35.2699C113.9 35.6499 113.59 35.9599 113.21 35.9599H92.7C92.32 35.9599 92.01 35.6499 92.01 35.2699V33.8399C92.01 33.4599 92.32 33.1499 92.7 33.1499Z" stroke="#C7C6C5" stroke-width="0.43" stroke-miterlimit="10"/>
<path d="M138.75 57.1899V33.8399C138.75 33.4599 138.44 33.1499 138.06 33.1499H114.59C114.21 33.1499 113.9 33.4599 113.9 33.8399V35.1399C113.9 35.5199 114.21 35.9899 114.59 35.9899H136.07V57.1899C136.07 57.5699 136.38 57.8799 136.76 57.8799H138.06C138.44 57.8799 138.75 57.5699 138.75 57.1899Z" stroke="#C7C6C5" stroke-width="0.43" stroke-miterlimit="10"/>
<path d="M138.75 57.1899V33.8399C138.75 33.4599 138.44 33.1499 138.06 33.1499H114.59C114.21 33.1499 113.9 33.4599 113.9 33.8399V35.1399C113.9 35.5199 114.21 35.9899 114.59 35.9899H136.07V57.1899C136.07 57.5699 136.38 57.8799 136.76 57.8799H138.06C138.44 57.8799 138.75 57.5699 138.75 57.1899Z" stroke="#C7C6C5" stroke-width="0.43" stroke-miterlimit="10"/>
<path d="M132.29 39.7799L135.74 36.3499" stroke="#C7C6C5" stroke-width="0.43" stroke-miterlimit="10"/>
<path d="M114.58 57.88C114.2 57.88 113.89 57.57 113.89 57.19V40.46C113.89 40.08 114.2 39.77 114.58 39.77H131.59C131.97 39.77 132.28 40.08 132.28 40.46V57.19C132.28 57.57 131.97 57.88 131.59 57.88H114.58Z" stroke="#C7C6C5" stroke-width="0.43" stroke-miterlimit="10"/>
<path d="M114.58 57.88C114.2 57.88 113.89 57.57 113.89 57.19V40.46C113.89 40.08 114.2 39.77 114.58 39.77H131.59C131.97 39.77 132.28 40.08 132.28 40.46V57.19C132.28 57.57 131.97 57.88 131.59 57.88H114.58Z" stroke="#C7C6C5" stroke-width="0.43" stroke-miterlimit="10"/>
<path d="M69.83 57.19V36.68C69.83 36.3 70.14 35.99 70.52 35.99H91.31C91.69 35.99 92 36.3 92 36.68V39.07C92 39.45 91.69 39.76 91.31 39.76H73.6V57.18C73.6 57.56 73.29 57.87 72.91 57.87H70.51C70.13 57.87 69.82 57.56 69.82 57.18" stroke="#C7C6C5" stroke-width="0.43" stroke-miterlimit="10"/>
<path d="M69.83 57.19V36.68C69.83 36.3 70.14 35.99 70.52 35.99H91.31C91.69 35.99 92 36.3 92 36.68V39.07C92 39.45 91.69 39.76 91.31 39.76H73.6V57.18C73.6 57.56 73.29 57.87 72.91 57.87H70.51C70.13 57.87 69.82 57.56 69.82 57.18H69.83V57.19Z" stroke="#C7C6C5" stroke-width="0.43" stroke-miterlimit="10"/>
<path d="M67.15 57.1899V33.8399C67.15 33.4599 67.46 33.1499 67.84 33.1499H91.31C91.69 33.1499 92 33.4599 92 33.8399V35.1399C92 35.5199 91.69 35.9899 91.31 35.9899H69.83V57.1899C69.83 57.5699 69.52 57.8799 69.14 57.8799H67.84C67.46 57.8799 67.15 57.5699 67.15 57.1899Z" stroke="#C7C6C5" stroke-width="0.43" stroke-miterlimit="10"/>
<path d="M67.15 57.1899V33.8399C67.15 33.4599 67.46 33.1499 67.84 33.1499H91.31C91.69 33.1499 92 33.4599 92 33.8399V35.1399C92 35.5199 91.69 35.9899 91.31 35.9899H69.83V57.1899C69.83 57.5699 69.52 57.8799 69.14 57.8799H67.84C67.46 57.8799 67.15 57.5699 67.15 57.1899Z" stroke="#C7C6C5" stroke-width="0.43" stroke-miterlimit="10"/>
<path d="M73.61 39.7799L70.16 36.3499" stroke="#C7C6C5" stroke-width="0.43" stroke-miterlimit="10"/>
<path d="M74.3 39.7798H91.31C91.69 39.7798 92 40.0898 92 40.4698V57.1998C92 57.5798 91.69 57.8898 91.31 57.8898H74.3C73.92 57.8898 73.61 57.5798 73.61 57.1998V40.4698C73.61 40.0898 73.92 39.7798 74.3 39.7798Z" stroke="#C7C6C5" stroke-width="0.43" stroke-miterlimit="10"/>
<path d="M74.3 39.7798H91.31C91.69 39.7798 92 40.0898 92 40.4698V57.1998C92 57.5798 91.69 57.8898 91.31 57.8898H74.3C73.92 57.8898 73.61 57.5798 73.61 57.1998V40.4698C73.61 40.0898 73.92 39.7798 74.3 39.7798Z" stroke="#C7C6C5" stroke-width="0.43" stroke-miterlimit="10"/>
<path d="M84.43 76.8099C82.24 73.8899 82.84 69.7399 85.76 67.5599C88.68 65.3699 92.82 65.9699 95.01 68.8899C97.2 71.8099 96.6 75.9499 93.68 78.1399C90.76 80.3299 86.61 79.7299 84.43 76.8099Z" stroke="#C7C6C5" stroke-width="0.43" stroke-miterlimit="10"/>
<path d="M72.56 78.0099C69.77 74.2899 70.53 69.0199 74.26 66.2299C77.98 63.4499 83.25 64.1999 86.04 67.9199C88.83 71.6399 88.07 76.9099 84.35 79.6999C80.63 82.4899 75.36 81.7299 72.57 78.0099H72.56Z" stroke="#C7C6C5" stroke-width="0.43" stroke-miterlimit="10"/>
<path d="M24.66 146.27H7.06V163.24H24.66V146.27Z" stroke="#C7C6C5" stroke-width="0.43" stroke-miterlimit="10"/>
<path d="M17.42 153.46L14.67 156.21" stroke="#C7C6C5" stroke-width="0.43" stroke-miterlimit="10" stroke-linecap="round"/>
<path d="M14.67 153.46L17.42 156.21" stroke="#C7C6C5" stroke-width="0.43" stroke-miterlimit="10" stroke-linecap="round"/>
<path d="M12.79 154.83H19.29" stroke="#C7C6C5" stroke-width="0.43" stroke-miterlimit="10" stroke-linecap="round"/>
<path d="M16.04 158.08V151.58" stroke="#C7C6C5" stroke-width="0.43" stroke-miterlimit="10" stroke-linecap="round"/>
<path d="M24.66 129.29H7.06V146.26H24.66V129.29Z" stroke="#C7C6C5" stroke-width="0.43" stroke-miterlimit="10"/>
<path d="M17.42 136.49L14.67 139.24" stroke="#C7C6C5" stroke-width="0.43" stroke-miterlimit="10" stroke-linecap="round"/>
<path d="M14.67 136.49L17.42 139.24" stroke="#C7C6C5" stroke-width="0.43" stroke-miterlimit="10" stroke-linecap="round"/>
<path d="M12.79 137.86H19.29" stroke="#C7C6C5" stroke-width="0.43" stroke-miterlimit="10" stroke-linecap="round"/>
<path d="M16.04 141.11V134.61" stroke="#C7C6C5" stroke-width="0.43" stroke-miterlimit="10" stroke-linecap="round"/>
<path d="M24.67 57.01H7.05V74.63H24.67V57.01Z" stroke="#C7C6C5" stroke-width="0.43" stroke-miterlimit="10"/>
<path d="M20.01 64.3601C21.457 64.3601 22.63 63.1871 22.63 61.7401C22.63 60.2931 21.457 59.1201 20.01 59.1201C18.563 59.1201 17.39 60.2931 17.39 61.7401C17.39 63.1871 18.563 64.3601 20.01 64.3601Z" stroke="#C7C6C5" stroke-width="0.43" stroke-miterlimit="10"/>
<path d="M20.01 72.96C21.457 72.96 22.63 71.787 22.63 70.34C22.63 68.893 21.457 67.72 20.01 67.72C18.563 67.72 17.39 68.893 17.39 70.34C17.39 71.787 18.563 72.96 20.01 72.96Z" stroke="#C7C6C5" stroke-width="0.43" stroke-miterlimit="10"/>
<path d="M12.1 64.3601C13.547 64.3601 14.72 63.1871 14.72 61.7401C14.72 60.2931 13.547 59.1201 12.1 59.1201C10.653 59.1201 9.48 60.2931 9.48 61.7401C9.48 63.1871 10.653 64.3601 12.1 64.3601Z" stroke="#C7C6C5" stroke-width="0.43" stroke-miterlimit="10"/>
<path d="M12.1 72.96C13.547 72.96 14.72 71.787 14.72 70.34C14.72 68.893 13.547 67.72 12.1 67.72C10.653 67.72 9.48 68.893 9.48 70.34C9.48 71.787 10.653 72.96 12.1 72.96Z" stroke="#C7C6C5" stroke-width="0.43" stroke-miterlimit="10"/>
<path d="M24.67 94.6899H7.05V112.31H24.67V94.6899Z" stroke="#C7C6C5" stroke-width="0.43" stroke-miterlimit="10"/>
<path d="M24.67 94.6899H7.05V112.31H24.67V94.6899Z" stroke="#C7C6C5" stroke-width="0.43" stroke-miterlimit="10"/>
<path d="M23.15 109.19C23.15 110.09 22.42 110.81 21.53 110.81H10.21C9.31 110.81 8.59 110.08 8.59 109.19V97.8099C8.59 96.9099 9.31 96.1899 10.21 96.1899H21.53C22.43 96.1899 23.15 96.9199 23.15 97.8099V109.19Z" stroke="#C7C6C5" stroke-width="0.43" stroke-miterlimit="10"/>
<path d="M23.15 109.19C23.15 110.09 22.42 110.81 21.53 110.81H10.21C9.31 110.81 8.59 110.08 8.59 109.19V97.8099C8.59 96.9099 9.31 96.1899 10.21 96.1899H21.53C22.43 96.1899 23.15 96.9199 23.15 97.8099V109.19Z" stroke="#C7C6C5" stroke-width="0.43" stroke-miterlimit="10"/>
<path d="M11.73 98.42C11.73 98.94 11.3 99.37 10.78 99.37C10.26 99.37 9.83 98.94 9.83 98.42C9.83 97.9 10.25 97.47 10.78 97.47C11.31 97.47 11.73 97.89 11.73 98.42Z" stroke="#C7C6C5" stroke-width="0.43" stroke-miterlimit="10"/>
<path d="M13.38 102.78H8V104.21H13.38V102.78Z" stroke="#C7C6C5" stroke-width="0.43" stroke-miterlimit="10"/>
<path d="M24.67 33.1499H7.05V56.9999H24.67V33.1499Z" stroke="#C7C6C5" stroke-width="0.43" stroke-miterlimit="10"/>
<path d="M24.67 74.6299H7.05V94.6899H24.67V74.6299Z" stroke="#C7C6C5" stroke-width="0.43" stroke-miterlimit="10"/>
<path d="M24.67 112.3H7.05V129.28H24.67V112.3Z" stroke="#C7C6C5" stroke-width="0.43" stroke-miterlimit="10"/>
<path d="M117.72 126.01C117.33 126.01 116.94 125.95 116.56 125.84C116.18 125.72 115.87 125.57 115.61 125.36L116.06 124.55C116.26 124.72 116.51 124.85 116.8 124.95C117.09 125.05 117.39 125.1 117.7 125.1C118.07 125.1 118.36 125.02 118.57 124.87C118.78 124.72 118.88 124.51 118.88 124.25C118.88 123.99 118.78 123.79 118.59 123.64C118.4 123.49 118.09 123.42 117.66 123.42H117.15V122.71L118.75 120.81L118.89 121.2H115.88V120.33H119.7V121.03L118.1 122.93L117.56 122.61H117.87C118.56 122.61 119.07 122.76 119.42 123.07C119.76 123.38 119.94 123.77 119.94 124.25C119.94 124.56 119.86 124.86 119.7 125.12C119.54 125.39 119.3 125.6 118.97 125.76C118.64 125.92 118.23 126 117.73 126L117.72 126.01Z" fill="#C42F20"/>
<path d="M120.54 124.65V123.93L123.3 120.32H124.41L121.69 123.93L121.17 123.77H125.61V124.65H120.54ZM123.61 125.92V124.65L123.64 123.77V122.64H124.62V125.92H123.61Z" fill="#C42F20"/>
<path d="M126.25 127.13L126.71 125.36L126.85 125.95C126.66 125.95 126.51 125.89 126.38 125.78C126.26 125.66 126.19 125.51 126.19 125.31C126.19 125.11 126.25 124.95 126.38 124.83C126.51 124.71 126.66 124.65 126.84 124.65C127.02 124.65 127.18 124.71 127.3 124.83C127.42 124.95 127.48 125.11 127.48 125.31C127.48 125.36 127.48 125.42 127.46 125.48C127.45 125.54 127.43 125.61 127.41 125.69C127.39 125.77 127.35 125.87 127.29 125.99L126.88 127.12H126.23L126.25 127.13Z" fill="#C42F20"/>
<path d="M130.49 126.01C129.98 126.01 129.55 125.9 129.19 125.69C128.83 125.47 128.55 125.16 128.36 124.75C128.17 124.34 128.07 123.83 128.07 123.23C128.07 122.59 128.19 122.05 128.42 121.61C128.65 121.17 128.97 120.83 129.39 120.6C129.81 120.37 130.28 120.26 130.82 120.26C131.1 120.26 131.37 120.29 131.63 120.35C131.89 120.41 132.11 120.5 132.29 120.62L131.91 121.4C131.75 121.3 131.59 121.23 131.41 121.19C131.23 121.15 131.04 121.13 130.85 121.13C130.32 121.13 129.9 121.29 129.59 121.62C129.28 121.95 129.13 122.43 129.13 123.06C129.13 123.16 129.13 123.28 129.13 123.42C129.13 123.56 129.15 123.69 129.19 123.83L128.87 123.48C128.97 123.26 129.1 123.08 129.27 122.93C129.44 122.78 129.64 122.67 129.87 122.6C130.1 122.52 130.35 122.49 130.63 122.49C131 122.49 131.33 122.56 131.61 122.7C131.9 122.84 132.13 123.04 132.3 123.3C132.47 123.56 132.56 123.86 132.56 124.21C132.56 124.58 132.47 124.9 132.29 125.17C132.11 125.44 131.86 125.65 131.55 125.8C131.24 125.95 130.89 126.02 130.51 126.02L130.49 126.01ZM130.43 125.19C130.64 125.19 130.83 125.15 131 125.07C131.17 124.99 131.29 124.88 131.39 124.74C131.48 124.6 131.53 124.43 131.53 124.24C131.53 123.95 131.43 123.72 131.23 123.54C131.03 123.37 130.75 123.28 130.41 123.28C130.19 123.28 129.99 123.32 129.82 123.4C129.65 123.48 129.52 123.6 129.42 123.74C129.32 123.88 129.27 124.05 129.27 124.24C129.27 124.41 129.31 124.57 129.41 124.71C129.51 124.85 129.63 124.97 129.81 125.05C129.98 125.14 130.19 125.18 130.44 125.18L130.43 125.19Z" fill="#C42F20"/>
<path d="M133.98 125.92V120.72L134.44 121.19H132.8V120.32H135.02V125.92H133.98Z" fill="#C42F20"/>
<path d="M117.82 135.46C117.43 135.46 117.04 135.4 116.66 135.29C116.28 135.17 115.97 135.02 115.71 134.81L116.15 134C116.35 134.17 116.6 134.3 116.89 134.4C117.18 134.5 117.48 134.55 117.8 134.55C118.17 134.55 118.46 134.47 118.67 134.32C118.88 134.16 118.99 133.96 118.99 133.7C118.99 133.52 118.95 133.37 118.86 133.24C118.77 133.11 118.62 133 118.4 132.94C118.18 132.88 117.88 132.84 117.49 132.84H116.14L116.43 129.79H119.72V130.66H116.82L117.36 130.16L117.14 132.44L116.6 131.95H117.73C118.28 131.95 118.73 132.02 119.07 132.17C119.41 132.32 119.66 132.52 119.81 132.78C119.97 133.04 120.05 133.33 120.05 133.66C120.05 133.99 119.97 134.28 119.81 134.56C119.65 134.83 119.41 135.05 119.08 135.22C118.75 135.39 118.34 135.47 117.84 135.47L117.82 135.46Z" fill="#C42F20"/>
<path d="M120.55 134.1V133.38L123.31 129.77H124.42L121.7 133.38L121.18 133.22H125.62V134.1H120.55ZM123.62 135.37V134.1L123.65 133.22V132.09H124.63V135.37H123.62Z" fill="#C42F20"/>
<path d="M126.27 136.58L126.73 134.81L126.87 135.4C126.68 135.4 126.53 135.34 126.4 135.23C126.27 135.11 126.21 134.96 126.21 134.76C126.21 134.56 126.27 134.4 126.4 134.28C126.52 134.16 126.68 134.1 126.86 134.1C127.04 134.1 127.2 134.16 127.32 134.28C127.44 134.4 127.5 134.56 127.5 134.76C127.5 134.81 127.5 134.87 127.48 134.93C127.47 134.99 127.45 135.06 127.43 135.14C127.41 135.22 127.37 135.32 127.31 135.44L126.9 136.57H126.25L126.27 136.58Z" fill="#C42F20"/>
<path d="M128.95 135.38V130.18L129.41 130.65H127.77V129.78H129.99V135.38H128.95Z" fill="#C42F20"/>
<path d="M132.04 135.38L134.35 130.2L134.62 130.66H131.44L131.94 130.16V131.62H130.97V129.79H135.32V130.49L133.14 135.39H132.03L132.04 135.38Z" fill="#C42F20"/>
<path d="M79.58 137.15V135.89L82.82 132.83C83.08 132.6 83.26 132.39 83.38 132.21C83.5 132.03 83.58 131.86 83.63 131.71C83.67 131.56 83.7 131.42 83.7 131.29C83.7 130.95 83.59 130.7 83.36 130.52C83.13 130.34 82.8 130.25 82.36 130.25C82.01 130.25 81.68 130.32 81.38 130.45C81.08 130.59 80.83 130.8 80.62 131.09L79.2 130.18C79.52 129.7 79.97 129.32 80.54 129.04C81.11 128.76 81.78 128.62 82.53 128.62C83.15 128.62 83.7 128.72 84.17 128.93C84.64 129.13 85 129.42 85.26 129.79C85.52 130.16 85.65 130.6 85.65 131.11C85.65 131.38 85.62 131.65 85.55 131.92C85.48 132.19 85.35 132.47 85.14 132.77C84.93 133.07 84.64 133.4 84.25 133.77L81.56 136.3L81.19 135.59H85.93V137.17H79.58V137.15Z" fill="#C42F20"/>
<path d="M86.4 137.15L90.14 128.75H92.06L95.82 137.15H93.78L90.71 129.73H91.48L88.4 137.15H86.41H86.4ZM88.27 135.35L88.79 133.87H93.11L93.64 135.35H88.28H88.27Z" fill="#C42F20"/>
<path d="M96.24 134.53V133.03H99.64V134.53H96.24Z" fill="#C42F20"/>
<path d="M103.58 137.3C103 137.3 102.42 137.22 101.85 137.07C101.28 136.92 100.79 136.69 100.38 136.4L101.15 134.91C101.47 135.14 101.84 135.33 102.26 135.46C102.68 135.6 103.11 135.66 103.54 135.66C104.03 135.66 104.41 135.56 104.69 135.37C104.97 135.18 105.11 134.91 105.11 134.57C105.11 134.35 105.05 134.16 104.94 133.99C104.83 133.82 104.63 133.69 104.35 133.61C104.06 133.52 103.67 133.48 103.16 133.48H101.01L101.44 128.75H106.56V130.31H102.13L103.14 129.42L102.84 132.79L101.83 131.9H103.61C104.44 131.9 105.11 132.01 105.62 132.24C106.13 132.47 106.5 132.78 106.73 133.17C106.96 133.56 107.08 134.01 107.08 134.5C107.08 134.99 106.96 135.45 106.71 135.87C106.46 136.29 106.08 136.63 105.56 136.89C105.04 137.15 104.39 137.28 103.59 137.28L103.58 137.3Z" fill="#C42F20"/>
<path d="M117.82 144.57C117.43 144.57 117.04 144.51 116.66 144.4C116.28 144.28 115.97 144.13 115.71 143.92L116.15 143.11C116.35 143.28 116.6 143.41 116.89 143.51C117.18 143.61 117.48 143.66 117.8 143.66C118.17 143.66 118.46 143.58 118.67 143.43C118.88 143.27 118.99 143.07 118.99 142.81C118.99 142.63 118.95 142.48 118.86 142.35C118.77 142.22 118.62 142.11 118.4 142.05C118.18 141.99 117.88 141.95 117.49 141.95H116.14L116.43 138.9H119.72V139.77H116.82L117.36 139.27L117.14 141.55L116.6 141.06H117.73C118.28 141.06 118.73 141.13 119.07 141.28C119.41 141.43 119.66 141.63 119.81 141.89C119.97 142.15 120.05 142.44 120.05 142.77C120.05 143.1 119.97 143.39 119.81 143.67C119.65 143.94 119.41 144.16 119.08 144.33C118.75 144.5 118.34 144.58 117.84 144.58L117.82 144.57Z" fill="#C42F20"/>
<path d="M120.55 143.21V142.49L123.31 138.88H124.42L121.7 142.49L121.18 142.33H125.62V143.21H120.55ZM123.62 144.48V143.21L123.65 142.33V141.2H124.63V144.48H123.62Z" fill="#C42F20"/>
<path d="M126.27 145.69L126.73 143.92L126.87 144.51C126.68 144.51 126.53 144.45 126.4 144.34C126.27 144.22 126.21 144.07 126.21 143.87C126.21 143.67 126.27 143.51 126.4 143.39C126.52 143.27 126.68 143.21 126.86 143.21C127.04 143.21 127.2 143.27 127.32 143.39C127.44 143.51 127.5 143.67 127.5 143.87C127.5 143.92 127.5 143.98 127.48 144.04C127.47 144.1 127.45 144.17 127.43 144.25C127.41 144.33 127.37 144.43 127.31 144.55L126.9 145.68H126.25L126.27 145.69Z" fill="#C42F20"/>
<path d="M130.51 144.57C130.05 144.57 129.64 144.5 129.3 144.36C128.96 144.22 128.69 144.03 128.51 143.77C128.32 143.52 128.23 143.22 128.23 142.88C128.23 142.54 128.32 142.25 128.5 142.02C128.68 141.78 128.94 141.61 129.28 141.48C129.62 141.36 130.03 141.3 130.5 141.3C130.97 141.3 131.38 141.36 131.73 141.48C132.08 141.6 132.34 141.78 132.52 142.02C132.7 142.26 132.8 142.54 132.8 142.88C132.8 143.22 132.71 143.52 132.52 143.77C132.33 144.02 132.06 144.22 131.72 144.36C131.38 144.5 130.97 144.57 130.51 144.57ZM130.51 141.84C130.08 141.84 129.71 141.78 129.4 141.67C129.09 141.56 128.85 141.39 128.68 141.17C128.51 140.95 128.43 140.68 128.43 140.37C128.43 140.06 128.52 139.77 128.69 139.54C128.86 139.31 129.11 139.13 129.42 139C129.73 138.87 130.1 138.81 130.51 138.81C130.92 138.81 131.29 138.87 131.61 139C131.93 139.13 132.17 139.31 132.35 139.54C132.53 139.77 132.61 140.05 132.61 140.37C132.61 140.69 132.53 140.95 132.36 141.17C132.19 141.39 131.95 141.56 131.64 141.67C131.32 141.79 130.95 141.84 130.52 141.84H130.51ZM130.51 143.75C130.89 143.75 131.2 143.67 131.42 143.51C131.64 143.35 131.76 143.13 131.76 142.85C131.76 142.57 131.65 142.35 131.42 142.19C131.2 142.03 130.89 141.95 130.51 141.95C130.13 141.95 129.82 142.03 129.61 142.19C129.4 142.35 129.28 142.57 129.28 142.85C129.28 143.13 129.39 143.35 129.61 143.51C129.83 143.67 130.13 143.75 130.51 143.75ZM130.51 141.2C130.84 141.2 131.1 141.13 131.29 140.99C131.48 140.85 131.58 140.66 131.58 140.42C131.58 140.18 131.48 139.97 131.28 139.84C131.08 139.71 130.82 139.63 130.5 139.63C130.18 139.63 129.92 139.7 129.73 139.84C129.54 139.98 129.44 140.17 129.44 140.42C129.44 140.67 129.53 140.85 129.72 140.99C129.91 141.13 130.17 141.2 130.49 141.2H130.51Z" fill="#C42F20"/>
<path d="M133.4 144.49V143.79L135.62 141.68C135.81 141.5 135.95 141.35 136.04 141.22C136.13 141.09 136.19 140.96 136.22 140.85C136.25 140.73 136.26 140.63 136.26 140.53C136.26 140.27 136.17 140.07 136 139.93C135.82 139.79 135.57 139.72 135.22 139.72C134.95 139.72 134.7 139.77 134.48 139.86C134.26 139.95 134.07 140.1 133.91 140.3L133.18 139.74C133.4 139.45 133.69 139.22 134.06 139.06C134.43 138.9 134.85 138.82 135.3 138.82C135.71 138.82 136.06 138.89 136.36 139.02C136.66 139.15 136.89 139.34 137.06 139.58C137.22 139.82 137.3 140.11 137.3 140.44C137.3 140.62 137.28 140.8 137.23 140.98C137.18 141.16 137.09 141.35 136.96 141.54C136.83 141.74 136.63 141.96 136.38 142.2L134.47 144.02L134.25 143.63H137.52V144.51H133.39L133.4 144.49Z" fill="#C42F20"/>
<path d="M112.6 148.02V115.81" stroke="#C42F20" stroke-miterlimit="10"/>
<path d="M110.59 97.47V96.77L112.81 94.66C113 94.48 113.14 94.33 113.23 94.2C113.32 94.07 113.38 93.94 113.41 93.83C113.44 93.71 113.45 93.61 113.45 93.51C113.45 93.25 113.36 93.05 113.19 92.91C113.01 92.77 112.76 92.7 112.41 92.7C112.14 92.7 111.89 92.75 111.67 92.84C111.45 92.93 111.26 93.08 111.1 93.28L110.37 92.72C110.59 92.43 110.88 92.2 111.25 92.04C111.62 91.88 112.04 91.8 112.49 91.8C112.9 91.8 113.25 91.87 113.55 92C113.85 92.13 114.08 92.32 114.25 92.56C114.41 92.8 114.49 93.09 114.49 93.42C114.49 93.6 114.47 93.78 114.42 93.96C114.37 94.14 114.28 94.33 114.15 94.52C114.02 94.72 113.82 94.94 113.57 95.18L111.66 97L111.44 96.61H114.71V97.49H110.58L110.59 97.47Z" fill="#13110C"/>
<path d="M116.21 97.4701V92.2701L116.67 92.7401H115.03V91.8701H117.25V97.4701H116.21Z" fill="#13110C"/>
<path d="M118.41 98.68L118.87 96.91L119.01 97.5C118.82 97.5 118.67 97.44 118.54 97.33C118.41 97.21 118.35 97.06 118.35 96.86C118.35 96.66 118.41 96.5 118.54 96.38C118.66 96.26 118.82 96.2 119 96.2C119.18 96.2 119.34 96.26 119.46 96.38C119.58 96.5 119.64 96.66 119.64 96.86C119.64 96.91 119.64 96.97 119.62 97.03C119.61 97.09 119.59 97.16 119.57 97.24C119.55 97.32 119.51 97.42 119.45 97.54L119.04 98.67H118.39L118.41 98.68Z" fill="#13110C"/>
<path d="M121.13 97.4701L123.44 92.2901L123.71 92.7501H120.53L121.03 92.2501V93.7101H120.06V91.8801H124.41V92.5801L122.23 97.4801H121.12L121.13 97.4701Z" fill="#13110C"/>
<path d="M126.04 97.4701V92.2701L126.5 92.7401H124.86V91.8701H127.08V97.4701H126.04Z" fill="#13110C"/>
<path d="M34.22 191.04C33.83 191.04 33.44 190.98 33.06 190.87C32.68 190.75 32.37 190.6 32.11 190.39L32.56 189.58C32.76 189.75 33.01 189.88 33.3 189.98C33.59 190.08 33.89 190.13 34.2 190.13C34.57 190.13 34.86 190.05 35.07 189.9C35.28 189.75 35.38 189.54 35.38 189.28C35.38 189.02 35.28 188.82 35.09 188.67C34.9 188.52 34.59 188.45 34.16 188.45H33.65V187.74L35.25 185.84L35.39 186.23H32.38V185.36H36.2V186.06L34.6 187.96L34.06 187.64H34.37C35.06 187.64 35.57 187.79 35.92 188.1C36.26 188.41 36.44 188.8 36.44 189.28C36.44 189.59 36.36 189.89 36.2 190.15C36.04 190.42 35.8 190.63 35.47 190.79C35.14 190.95 34.73 191.03 34.23 191.03L34.22 191.04Z" fill="#13110C"/>
<path d="M37.16 192.16L37.62 190.39L37.76 190.98C37.57 190.98 37.42 190.92 37.29 190.81C37.17 190.69 37.1 190.54 37.1 190.34C37.1 190.14 37.16 189.98 37.29 189.86C37.42 189.74 37.57 189.68 37.75 189.68C37.93 189.68 38.09 189.74 38.21 189.86C38.33 189.98 38.39 190.14 38.39 190.34C38.39 190.39 38.39 190.45 38.37 190.51C38.36 190.57 38.34 190.64 38.32 190.72C38.3 190.8 38.26 190.9 38.2 191.02L37.79 192.15H37.14L37.16 192.16Z" fill="#13110C"/>
<path d="M39.08 190.96V190.26L41.3 188.15C41.49 187.97 41.63 187.82 41.72 187.69C41.81 187.56 41.87 187.43 41.9 187.32C41.93 187.2 41.94 187.1 41.94 187C41.94 186.74 41.85 186.54 41.68 186.4C41.5 186.26 41.25 186.19 40.9 186.19C40.63 186.19 40.38 186.24 40.16 186.33C39.94 186.42 39.75 186.57 39.59 186.77L38.86 186.21C39.08 185.92 39.37 185.69 39.74 185.53C40.11 185.37 40.53 185.29 40.98 185.29C41.39 185.29 41.74 185.36 42.04 185.49C42.34 185.62 42.57 185.81 42.74 186.05C42.9 186.29 42.98 186.58 42.98 186.91C42.98 187.09 42.96 187.27 42.91 187.45C42.86 187.63 42.77 187.82 42.64 188.01C42.51 188.21 42.31 188.43 42.06 188.67L40.15 190.49L39.93 190.1H43.2V190.98H39.07L39.08 190.96Z" fill="#13110C"/>
<path d="M45.66 191.04C45.27 191.04 44.88 190.98 44.5 190.87C44.12 190.75 43.81 190.6 43.55 190.39L43.99 189.58C44.19 189.75 44.44 189.88 44.73 189.98C45.02 190.08 45.32 190.13 45.64 190.13C46.01 190.13 46.3 190.05 46.51 189.9C46.72 189.74 46.83 189.54 46.83 189.28C46.83 189.1 46.79 188.95 46.7 188.82C46.61 188.69 46.46 188.58 46.24 188.52C46.02 188.46 45.72 188.42 45.33 188.42H43.98L44.27 185.37H47.56V186.24H44.66L45.2 185.74L44.98 188.02L44.44 187.53H45.57C46.12 187.53 46.57 187.6 46.91 187.75C47.25 187.9 47.5 188.1 47.65 188.36C47.81 188.62 47.89 188.91 47.89 189.24C47.89 189.57 47.81 189.86 47.65 190.14C47.49 190.41 47.25 190.63 46.92 190.8C46.59 190.97 46.18 191.05 45.68 191.05L45.66 191.04Z" fill="#13110C"/>
<path d="M154.83 105.55V100.35L155.29 100.82H153.65V99.9502H155.87V105.55H154.83Z" fill="#13110C"/>
<path d="M159.32 105.63C158.88 105.63 158.48 105.52 158.12 105.29C157.76 105.07 157.49 104.74 157.28 104.31C157.08 103.88 156.98 103.36 156.98 102.75C156.98 102.14 157.08 101.62 157.28 101.19C157.48 100.76 157.76 100.43 158.12 100.21C158.47 99.9901 158.87 99.8701 159.32 99.8701C159.77 99.8701 160.17 99.9801 160.52 100.21C160.87 100.43 161.15 100.76 161.36 101.19C161.57 101.62 161.67 102.14 161.67 102.75C161.67 103.36 161.57 103.88 161.36 104.31C161.15 104.74 160.88 105.07 160.52 105.29C160.17 105.51 159.77 105.63 159.32 105.63ZM159.32 104.73C159.58 104.73 159.81 104.66 160 104.52C160.19 104.38 160.34 104.16 160.45 103.87C160.56 103.58 160.61 103.21 160.61 102.76C160.61 102.31 160.56 101.93 160.45 101.64C160.34 101.35 160.19 101.13 160 100.99C159.81 100.85 159.58 100.78 159.32 100.78C159.06 100.78 158.85 100.85 158.65 100.99C158.46 101.13 158.3 101.35 158.19 101.64C158.08 101.93 158.03 102.3 158.03 102.76C158.03 103.22 158.08 103.58 158.19 103.87C158.3 104.16 158.45 104.38 158.65 104.52C158.85 104.66 159.07 104.73 159.32 104.73Z" fill="#13110C"/>
<path d="M162.31 106.76L162.77 104.99L162.91 105.58C162.72 105.58 162.57 105.52 162.44 105.41C162.32 105.29 162.25 105.14 162.25 104.94C162.25 104.74 162.31 104.58 162.44 104.46C162.57 104.34 162.72 104.28 162.9 104.28C163.08 104.28 163.24 104.34 163.36 104.46C163.48 104.58 163.54 104.74 163.54 104.94C163.54 104.99 163.54 105.05 163.52 105.11C163.51 105.17 163.49 105.24 163.47 105.32C163.45 105.4 163.41 105.5 163.35 105.62L162.94 106.75H162.29L162.31 106.76Z" fill="#13110C"/>
<path d="M165 105.55V100.35L165.46 100.82H163.82V99.9502H166.04V105.55H165Z" fill="#13110C"/>
<path d="M167.08 105.55V104.85L169.3 102.74C169.49 102.56 169.63 102.41 169.72 102.28C169.81 102.15 169.87 102.02 169.9 101.91C169.93 101.79 169.94 101.69 169.94 101.59C169.94 101.33 169.85 101.13 169.68 100.99C169.5 100.85 169.25 100.78 168.9 100.78C168.63 100.78 168.38 100.83 168.16 100.92C167.94 101.02 167.75 101.16 167.59 101.36L166.86 100.8C167.08 100.51 167.37 100.28 167.74 100.12C168.11 99.9601 168.53 99.8801 168.98 99.8801C169.39 99.8801 169.74 99.9501 170.04 100.08C170.34 100.21 170.57 100.4 170.74 100.64C170.9 100.88 170.98 101.17 170.98 101.5C170.98 101.68 170.96 101.86 170.91 102.04C170.86 102.22 170.77 102.41 170.64 102.6C170.51 102.8 170.31 103.02 170.06 103.26L168.15 105.08L167.93 104.69H171.2V105.57H167.07L167.08 105.55Z" fill="#13110C"/>
<path d="M247.36 84.44C246.97 84.44 246.58 84.38 246.2 84.27C245.82 84.15 245.51 84 245.25 83.79L245.7 82.98C245.9 83.15 246.15 83.28 246.44 83.38C246.73 83.48 247.03 83.53 247.34 83.53C247.71 83.53 248 83.45 248.21 83.3C248.42 83.15 248.52 82.94 248.52 82.68C248.52 82.42 248.42 82.22 248.23 82.07C248.04 81.92 247.73 81.85 247.3 81.85H246.79V81.14L248.39 79.24L248.53 79.63H245.52V78.76H249.34V79.46L247.74 81.36L247.2 81.04H247.51C248.2 81.04 248.71 81.19 249.06 81.5C249.41 81.81 249.58 82.2 249.58 82.68C249.58 82.99 249.5 83.29 249.34 83.55C249.18 83.81 248.94 84.03 248.61 84.19C248.28 84.35 247.87 84.43 247.37 84.43L247.36 84.44Z" fill="#13110C"/>
<path d="M250.3 85.5698L250.76 83.7999L250.9 84.3898C250.71 84.3898 250.56 84.3298 250.43 84.2198C250.3 84.0998 250.24 83.9498 250.24 83.7498C250.24 83.5498 250.3 83.3898 250.43 83.2698C250.55 83.1498 250.71 83.0898 250.89 83.0898C251.07 83.0898 251.23 83.1498 251.35 83.2698C251.47 83.3898 251.53 83.5498 251.53 83.7498C251.53 83.7998 251.53 83.8598 251.51 83.9198C251.5 83.9798 251.48 84.0498 251.46 84.1298C251.44 84.2098 251.4 84.3098 251.34 84.4298L250.93 85.5598H250.28L250.3 85.5698Z" fill="#13110C"/>
<path d="M252.99 84.36V79.16L253.45 79.63H251.81V78.76H254.03V84.36H252.99Z" fill="#13110C"/>
<path d="M257.47 84.4399C257.03 84.4399 256.63 84.3299 256.27 84.0999C255.92 83.8799 255.64 83.5499 255.43 83.1199C255.23 82.6899 255.13 82.1699 255.13 81.5599C255.13 80.9499 255.23 80.4299 255.43 79.9999C255.63 79.5699 255.91 79.2399 256.27 79.0199C256.62 78.7999 257.02 78.6799 257.47 78.6799C257.92 78.6799 258.32 78.7899 258.67 79.0199C259.02 79.2399 259.3 79.5699 259.51 79.9999C259.72 80.4299 259.82 80.9499 259.82 81.5599C259.82 82.1699 259.72 82.6899 259.51 83.1199C259.3 83.5499 259.03 83.8799 258.67 84.0999C258.32 84.3199 257.92 84.4399 257.47 84.4399ZM257.47 83.5399C257.73 83.5399 257.96 83.4699 258.15 83.3299C258.34 83.1899 258.49 82.9699 258.6 82.6799C258.71 82.3899 258.76 82.0199 258.76 81.5699C258.76 81.1199 258.71 80.7399 258.6 80.4499C258.49 80.1599 258.34 79.9399 258.15 79.7999C257.96 79.6599 257.73 79.5899 257.47 79.5899C257.21 79.5899 257 79.6599 256.8 79.7999C256.6 79.9399 256.45 80.1599 256.34 80.4499C256.23 80.7399 256.18 81.1099 256.18 81.5699C256.18 82.0299 256.23 82.3899 256.34 82.6799C256.45 82.9699 256.6 83.1899 256.8 83.3299C256.99 83.4699 257.22 83.5399 257.47 83.5399Z" fill="#13110C"/>
<path d="M199.36 168.97V163.77L199.82 164.24H198.18V163.37H200.4V168.97H199.36Z" fill="#13110C"/>
<path d="M203.85 169.05C203.41 169.05 203.01 168.94 202.65 168.71C202.3 168.49 202.02 168.16 201.81 167.73C201.61 167.3 201.51 166.78 201.51 166.17C201.51 165.56 201.61 165.04 201.81 164.61C202.01 164.18 202.29 163.85 202.65 163.63C203 163.41 203.4 163.29 203.85 163.29C204.3 163.29 204.7 163.4 205.05 163.63C205.4 163.85 205.68 164.18 205.89 164.61C206.1 165.04 206.2 165.56 206.2 166.17C206.2 166.78 206.1 167.3 205.89 167.73C205.68 168.16 205.41 168.49 205.05 168.71C204.7 168.93 204.3 169.05 203.85 169.05ZM203.85 168.15C204.11 168.15 204.34 168.08 204.53 167.94C204.72 167.8 204.87 167.58 204.98 167.29C205.09 167 205.14 166.63 205.14 166.18C205.14 165.73 205.09 165.35 204.98 165.06C204.87 164.77 204.72 164.55 204.53 164.41C204.34 164.27 204.11 164.2 203.85 164.2C203.59 164.2 203.38 164.27 203.18 164.41C202.98 164.55 202.83 164.77 202.72 165.06C202.61 165.35 202.56 165.72 202.56 166.18C202.56 166.64 202.61 167 202.72 167.29C202.83 167.58 202.98 167.8 203.18 167.94C203.37 168.08 203.6 168.15 203.85 168.15Z" fill="#13110C"/>
<path d="M206.84 170.18L207.3 168.41L207.44 169C207.25 169 207.1 168.94 206.97 168.83C206.84 168.71 206.78 168.56 206.78 168.36C206.78 168.16 206.84 168 206.97 167.88C207.09 167.76 207.25 167.7 207.43 167.7C207.61 167.7 207.77 167.76 207.89 167.88C208.01 168 208.07 168.16 208.07 168.36C208.07 168.41 208.07 168.47 208.05 168.53C208.04 168.59 208.02 168.66 208 168.74C207.98 168.82 207.94 168.92 207.88 169.04L207.47 170.17H206.82L206.84 170.18Z" fill="#13110C"/>
<path d="M210.59 169.05C210.2 169.05 209.81 168.99 209.43 168.88C209.05 168.76 208.74 168.61 208.48 168.4L208.93 167.59C209.13 167.76 209.38 167.89 209.67 167.99C209.96 168.09 210.26 168.14 210.57 168.14C210.94 168.14 211.23 168.06 211.44 167.91C211.65 167.76 211.75 167.55 211.75 167.29C211.75 167.03 211.65 166.83 211.46 166.68C211.27 166.53 210.96 166.46 210.53 166.46H210.02V165.75L211.62 163.85L211.76 164.24H208.75V163.37H212.57V164.07L210.97 165.97L210.43 165.65H210.74C211.43 165.65 211.94 165.8 212.29 166.11C212.64 166.42 212.81 166.81 212.81 167.29C212.81 167.6 212.73 167.9 212.57 168.16C212.41 168.42 212.17 168.64 211.84 168.8C211.51 168.96 211.1 169.04 210.6 169.04L210.59 169.05Z" fill="#13110C"/>
<path d="M214.34 168.97L216.65 163.79L216.92 164.25H213.74L214.24 163.75V165.21H213.27V163.38H217.62V164.08L215.44 168.98H214.33L214.34 168.97Z" fill="#13110C"/>
<path d="M147.5 147.59V142.39L147.96 142.86H146.32V141.99H148.54V147.59H147.5Z" fill="#13110C"/>
<path d="M149.69 148.79L150.15 147.02L150.29 147.61C150.1 147.61 149.95 147.55 149.82 147.44C149.7 147.32 149.63 147.17 149.63 146.97C149.63 146.77 149.69 146.61 149.82 146.49C149.95 146.37 150.1 146.31 150.28 146.31C150.46 146.31 150.62 146.37 150.74 146.49C150.86 146.61 150.92 146.77 150.92 146.97C150.92 147.02 150.92 147.08 150.9 147.14C150.89 147.2 150.87 147.27 150.85 147.35C150.83 147.43 150.79 147.53 150.73 147.65L150.32 148.78H149.67L149.69 148.79Z" fill="#13110C"/>
<path d="M153.44 147.67C153.05 147.67 152.66 147.61 152.28 147.5C151.9 147.38 151.59 147.23 151.33 147.02L151.78 146.21C151.98 146.38 152.23 146.51 152.52 146.61C152.81 146.71 153.11 146.76 153.42 146.76C153.79 146.76 154.08 146.68 154.29 146.53C154.5 146.38 154.6 146.17 154.6 145.91C154.6 145.65 154.5 145.45 154.31 145.3C154.12 145.15 153.81 145.08 153.38 145.08H152.87V144.37L154.47 142.47L154.61 142.86H151.6V141.99H155.42V142.69L153.82 144.59L153.28 144.27H153.59C154.28 144.27 154.79 144.42 155.14 144.73C155.49 145.04 155.66 145.43 155.66 145.91C155.66 146.22 155.58 146.52 155.42 146.78C155.26 147.04 155.02 147.26 154.69 147.42C154.36 147.58 153.95 147.66 153.45 147.66L153.44 147.67Z" fill="#13110C"/>
<path d="M158.59 147.67C158.13 147.67 157.72 147.6 157.38 147.46C157.04 147.32 156.77 147.13 156.59 146.87C156.4 146.62 156.31 146.32 156.31 145.98C156.31 145.64 156.4 145.35 156.58 145.12C156.76 144.88 157.02 144.71 157.36 144.58C157.7 144.46 158.11 144.4 158.58 144.4C159.05 144.4 159.46 144.46 159.81 144.58C160.16 144.7 160.42 144.88 160.6 145.12C160.78 145.36 160.88 145.64 160.88 145.98C160.88 146.32 160.79 146.62 160.6 146.87C160.41 147.12 160.14 147.32 159.8 147.46C159.46 147.6 159.05 147.67 158.59 147.67ZM158.59 144.94C158.16 144.94 157.79 144.88 157.48 144.77C157.17 144.66 156.93 144.49 156.76 144.27C156.59 144.05 156.51 143.78 156.51 143.47C156.51 143.16 156.6 142.87 156.77 142.64C156.94 142.41 157.19 142.23 157.5 142.1C157.81 141.97 158.18 141.91 158.59 141.91C159 141.91 159.37 141.97 159.69 142.1C160.01 142.23 160.25 142.41 160.43 142.64C160.61 142.87 160.69 143.15 160.69 143.47C160.69 143.79 160.61 144.05 160.44 144.27C160.27 144.49 160.03 144.66 159.72 144.77C159.4 144.89 159.03 144.94 158.6 144.94H158.59ZM158.59 146.85C158.97 146.85 159.28 146.77 159.5 146.61C159.72 146.45 159.84 146.23 159.84 145.95C159.84 145.67 159.73 145.45 159.5 145.29C159.28 145.13 158.97 145.05 158.59 145.05C158.21 145.05 157.9 145.13 157.69 145.29C157.48 145.45 157.36 145.67 157.36 145.95C157.36 146.23 157.47 146.45 157.69 146.61C157.91 146.77 158.21 146.85 158.59 146.85ZM158.59 144.3C158.92 144.3 159.18 144.23 159.37 144.09C159.56 143.95 159.66 143.76 159.66 143.52C159.66 143.28 159.56 143.07 159.36 142.94C159.16 142.81 158.9 142.73 158.58 142.73C158.26 142.73 158 142.8 157.81 142.94C157.62 143.08 157.52 143.27 157.52 143.52C157.52 143.77 157.61 143.95 157.8 144.09C157.99 144.23 158.25 144.3 158.57 144.3H158.59Z" fill="#13110C"/>
<path d="M117.27 191.06V190.34L120.03 186.73H121.14L118.42 190.34L117.9 190.18H122.34V191.06H117.27ZM120.34 192.33V191.06L120.37 190.18V189.05H121.35V192.33H120.34Z" fill="#13110C"/>
<path d="M122.98 193.54L123.44 191.77L123.58 192.36C123.39 192.36 123.24 192.3 123.11 192.19C122.99 192.07 122.92 191.92 122.92 191.72C122.92 191.52 122.98 191.36 123.11 191.24C123.24 191.12 123.39 191.06 123.57 191.06C123.75 191.06 123.91 191.12 124.03 191.24C124.15 191.36 124.21 191.52 124.21 191.72C124.21 191.77 124.21 191.83 124.19 191.89C124.18 191.95 124.16 192.02 124.14 192.1C124.12 192.18 124.08 192.28 124.02 192.4L123.61 193.53H122.96L122.98 193.54Z" fill="#13110C"/>
<path d="M124.9 192.34V191.64L127.12 189.53C127.31 189.35 127.45 189.2 127.54 189.07C127.63 188.94 127.69 188.81 127.72 188.7C127.75 188.58 127.76 188.48 127.76 188.38C127.76 188.12 127.67 187.92 127.5 187.78C127.32 187.64 127.07 187.57 126.72 187.57C126.45 187.57 126.2 187.62 125.98 187.71C125.76 187.8 125.57 187.95 125.41 188.15L124.68 187.59C124.9 187.3 125.19 187.07 125.56 186.91C125.93 186.75 126.35 186.67 126.8 186.67C127.21 186.67 127.56 186.74 127.86 186.87C128.16 187 128.39 187.19 128.56 187.43C128.72 187.67 128.8 187.96 128.8 188.29C128.8 188.47 128.78 188.65 128.73 188.83C128.68 189.01 128.59 189.2 128.46 189.39C128.33 189.59 128.13 189.81 127.88 190.05L125.97 191.87L125.75 191.48H129.02V192.36H124.89L124.9 192.34Z" fill="#13110C"/>
<path d="M129.43 191.06V190.34L132.19 186.73H133.3L130.58 190.34L130.06 190.18H134.5V191.06H129.43ZM132.5 192.33V191.06L132.53 190.18V189.05H133.51V192.33H132.5Z" fill="#13110C"/>
<path d="M75.3 16.2601V15.5601L77.52 13.4501C77.71 13.2701 77.85 13.1201 77.94 12.9901C78.03 12.8601 78.09 12.7301 78.12 12.6201C78.15 12.5001 78.16 12.4001 78.16 12.3001C78.16 12.0401 78.07 11.8401 77.9 11.7001C77.72 11.5601 77.47 11.4901 77.12 11.4901C76.85 11.4901 76.6 11.5401 76.38 11.6301C76.16 11.7201 75.97 11.8701 75.81 12.0701L75.08 11.5101C75.3 11.2201 75.59 10.9901 75.96 10.8301C76.33 10.6701 76.75 10.5901 77.2 10.5901C77.61 10.5901 77.96 10.6601 78.26 10.7901C78.56 10.9201 78.79 11.1101 78.96 11.3501C79.12 11.5901 79.2 11.8801 79.2 12.2101C79.2 12.3901 79.18 12.5701 79.13 12.7501C79.08 12.9301 78.99 13.1201 78.86 13.3101C78.73 13.5101 78.53 13.7301 78.28 13.9701L76.37 15.7901L76.15 15.4001H79.42V16.2801H75.29L75.3 16.2601Z" fill="#13110C"/>
<path d="M80.15 17.47L80.61 15.7L80.75 16.29C80.56 16.29 80.41 16.23 80.28 16.12C80.16 16 80.09 15.85 80.09 15.65C80.09 15.45 80.15 15.29 80.28 15.17C80.41 15.05 80.56 14.99 80.74 14.99C80.92 14.99 81.08 15.05 81.2 15.17C81.32 15.29 81.38 15.45 81.38 15.65C81.38 15.7 81.38 15.76 81.36 15.82C81.35 15.88 81.33 15.95 81.31 16.03C81.29 16.11 81.25 16.21 81.19 16.33L80.78 17.46H80.13L80.15 17.47Z" fill="#13110C"/>
<path d="M82.84 16.2602V11.0602L83.3 11.5302H81.66V10.6602H83.88V16.2602H82.84Z" fill="#13110C"/>
<path d="M87.41 16.3401C86.9 16.3401 86.47 16.2301 86.11 16.0201C85.75 15.8101 85.47 15.4901 85.28 15.0801C85.09 14.6701 84.99 14.1601 84.99 13.5601C84.99 12.9201 85.11 12.3801 85.34 11.9401C85.57 11.5001 85.89 11.1601 86.31 10.9301C86.72 10.7001 87.2 10.5901 87.74 10.5901C88.02 10.5901 88.29 10.6201 88.55 10.6801C88.81 10.7401 89.03 10.8301 89.21 10.9501L88.83 11.7301C88.68 11.6301 88.51 11.5601 88.33 11.5201C88.15 11.4801 87.96 11.4601 87.77 11.4601C87.24 11.4601 86.82 11.6201 86.51 11.9501C86.2 12.2801 86.05 12.7601 86.05 13.3901C86.05 13.4901 86.05 13.6101 86.05 13.7501C86.05 13.8901 86.07 14.0201 86.11 14.1601L85.79 13.8101C85.89 13.5901 86.02 13.4101 86.19 13.2601C86.36 13.1101 86.56 13.0001 86.79 12.9301C87.02 12.8501 87.27 12.8201 87.55 12.8201C87.92 12.8201 88.25 12.8901 88.53 13.0301C88.82 13.1701 89.05 13.3701 89.22 13.6301C89.39 13.8901 89.48 14.1901 89.48 14.5401C89.48 14.9101 89.39 15.2301 89.21 15.5001C89.03 15.7701 88.78 15.9801 88.47 16.1301C88.16 16.2801 87.81 16.3501 87.43 16.3501L87.41 16.3401ZM87.35 15.5201C87.56 15.5201 87.75 15.4801 87.92 15.4001C88.09 15.3201 88.21 15.2101 88.31 15.0701C88.4 14.9301 88.45 14.7601 88.45 14.5701C88.45 14.2801 88.35 14.0501 88.15 13.8701C87.95 13.6901 87.68 13.6101 87.33 13.6101C87.11 13.6101 86.91 13.6501 86.74 13.7301C86.57 13.8101 86.44 13.9301 86.34 14.0701C86.24 14.2101 86.19 14.3801 86.19 14.5701C86.19 14.7401 86.24 14.9001 86.33 15.0401C86.42 15.1801 86.55 15.3001 86.73 15.3801C86.9 15.4701 87.11 15.5101 87.36 15.5101L87.35 15.5201Z" fill="#13110C"/>
<path d="M45.57 23.3201H0V26.0801H45.57V23.3201Z" fill="#511F19"/>
<path d="M43.65 26.0801H0V33.1601H43.65V26.0801Z" fill="#511F19"/>
<path d="M277.46 23.3201H115.34V26.0801H277.46V23.3201Z" fill="#511F19"/>
<path d="M274.59 26.0801H117.14V33.1601H274.59V26.0801Z" fill="#511F19"/>
<path d="M277.47 23.3201H274.59V54.5201H277.47V23.3201Z" fill="#511F19"/>
<path d="M274.59 26.0801H267.51V52.6001H274.59V26.0801Z" fill="#511F19"/>
<path d="M277.47 90.4399H274.59V144.9H277.47V90.4399Z" fill="#511F19"/>
<path d="M274.59 92.3501H267.51V142.97H274.59V92.3501Z" fill="#511F19"/>
<path d="M277.47 200.44H274.59V221.67H277.47V200.44Z" fill="#511F19"/>
<path d="M274.59 202.35H267.51V221.66H274.59V202.35Z" fill="#511F19"/>
<path d="M22.67 214.72H0V221.67H22.67V214.72Z" fill="#511F19"/>
<path d="M275.26 214.58H53.65V221.67H275.26V214.58Z" fill="#511F19"/>
<path d="M7.05 30.7H0V221.67H7.05V30.7Z" fill="#511F19"/>
<path d="M19.19 163.24H5.65V216.1H19.19V163.24Z" fill="#511F19"/>
<path d="M26.19 163.24H5.65V165.52H26.19V163.24Z" fill="#511F19"/>
<path d="M179.19 163.24H155.39V165.52H179.19V163.24Z" fill="#511F19"/>
<path d="M132.51 163.24H54.51V165.52H132.51V163.24Z" fill="#511F19"/>
<path d="M86.66 165.22H73.36V217.76H86.66V165.22Z" fill="#511F19"/>
<path d="M179.19 161.55H176.91V165.51H179.19V161.55Z" fill="#511F19"/>
<path d="M230.7 124.84H174.03V127.12H230.7V124.84Z" fill="#511F19"/>
<path d="M179.19 124.84H176.91V135.77H179.19V124.84Z" fill="#511F19"/>
<path d="M160.5 164.8H158.31V217.76H160.5V164.8Z" fill="#511F19"/>
<path d="M274.16 124.84H225.15V131.92H274.16V124.84Z" fill="#511F19"/>
<path d="M146.01 29.6101H138.75V75.5101H146.01V29.6101Z" fill="#511F19"/>
<path d="M146.01 73.05H143.55V127.12H146.01V73.05Z" fill="#511F19"/>
<path d="M148.35 124.84H143.55V127.12H148.35V124.84Z" fill="#511F19"/>
<path d="M239.33 30.3899H235.95V66.9999H239.33V30.3899Z" fill="#511F19"/>
<path d="M115.28 26.0801H65.39V33.1501H117.21" stroke="#511F19" stroke-width="0.43" stroke-miterlimit="10"/>
<path d="M117.21 29.6101H65.39" stroke="#511F19" stroke-width="0.43" stroke-miterlimit="10"/>
<path d="M267.51 52.6001V92.3501" stroke="#511F19" stroke-width="0.43" stroke-miterlimit="10"/>
<path d="M274.59 54.51V90.44" stroke="#511F19" stroke-width="0.43" stroke-miterlimit="10"/>
<path d="M271.05 52.6001V92.3501" stroke="#511F19" stroke-width="0.43" stroke-miterlimit="10"/>
<path d="M267.51 142.97V202.35" stroke="#511F19" stroke-width="0.43" stroke-miterlimit="10"/>
<path d="M274.59 144.88V200.44" stroke="#511F19" stroke-width="0.43" stroke-miterlimit="10"/>
<path d="M271.05 142.97V202.35" stroke="#511F19" stroke-width="0.43" stroke-miterlimit="10"/>
<path d="M236.48 124.84V105.76H238.76V124.84" stroke="#511F19" stroke-width="0.43" stroke-miterlimit="10"/>
<path d="M237.57 105.76V124.84" stroke="#511F19" stroke-width="0.43" stroke-miterlimit="10"/>
<path d="M236.48 66.99V86.08H238.76V66.99" stroke="#511F19" stroke-width="0.43" stroke-miterlimit="10"/>
<path d="M237.57 86.08V66.99" stroke="#511F19" stroke-width="0.43" stroke-miterlimit="10"/>
<path d="M122.24 23.3199V2.63989H38.72V23.3199" stroke="#511F19" stroke-width="0.43" stroke-miterlimit="10"/>
<path d="M36.68 23.32V0.719971H124.28V23.32" stroke="#511F19" stroke-width="0.43" stroke-miterlimit="10"/>
<path d="M153.24 114.12L174.03 125.63" stroke="#511F19" stroke-width="0.85" stroke-miterlimit="10"/>
<path d="M132.51 163.24L153.3 151.72" stroke="#511F19" stroke-width="0.85" stroke-miterlimit="10"/>
<path d="M189.91 140.94L178.39 161.74" stroke="#511F19" stroke-width="0.85" stroke-miterlimit="10"/>
<path d="M52.2 221.66V249.93" stroke="#511F19" stroke-width="0.85" stroke-miterlimit="10"/>
<path d="M52.2 249.93C36.59 249.93 23.94 237.28 23.94 221.67" stroke="#511F19" stroke-width="0.43" stroke-miterlimit="10"/>
<path d="M23.93 219.71H21.57V221.67H23.93V219.71Z" fill="#511F19"/>
<path d="M54.56 219.71H52.2V221.67H54.56V219.71Z" fill="#511F19"/>
<path d="M238.4 104.56H236.66V105.75H238.4V104.56Z" fill="#511F19"/>
<path d="M238.4 86.0801H236.66V87.2701H238.4V86.0801Z" fill="#511F19"/>
<path d="M236.66 104.56H219.38" stroke="#511F19" stroke-width="0.85" stroke-miterlimit="10"/>
<path d="M219.38 104.56C219.38 95.02 227.11 87.29 236.66 87.29" stroke="#511F19" stroke-width="0.43" stroke-miterlimit="10"/>
<path d="M44.96 28.6201H43.65V30.5401H44.96V28.6201Z" fill="#511F19"/>
<path d="M65.38 28.6201H64.07V30.5401H65.38V28.6201Z" fill="#511F19"/>
<path d="M44.97 30.54V49.62" stroke="#511F19" stroke-width="0.85" stroke-miterlimit="10"/>
<path d="M44.97 49.62C55.51 49.62 64.05 41.08 64.05 30.54" stroke="#511F19" stroke-width="0.43" stroke-miterlimit="10"/>
</g>
<defs>
<clipPath id="clip0_2024_7181">
<rect width="277.47" height="249.64" fill="white" transform="translate(0 0.5)"/>
</clipPath>
</defs>
</svg>
