<svg width="235" height="172" viewBox="0 0 235 172" fill="none" xmlns="http://www.w3.org/2000/svg">
<g clip-path="url(#clip0_2024_4010)">
<path d="M133.3 127.68C133.3 127.68 134.83 128.28 135.23 128.69C135.49 128.95 138.13 132.6 134.67 136.06C131.21 139.52 127.56 136.88 127.3 136.62C126.74 136.06 126.3 134.69 126.3 134.69" stroke="#C7C6C5" stroke-width="0.43" stroke-miterlimit="10"/>
<path d="M132.81 127.92C132.81 127.92 134.18 128.46 134.54 128.82C134.78 129.06 137.14 132.32 134.04 135.43C130.94 138.53 127.67 136.17 127.43 135.93C126.93 135.43 126.53 134.2 126.53 134.2" stroke="#C7C6C5" stroke-width="0.43" stroke-miterlimit="10"/>
<path d="M132.84 134.22C130.88 136.18 127.71 136.18 125.75 134.22C123.79 132.26 123.79 129.09 125.75 127.13C127.71 125.17 130.88 125.17 132.84 127.13C134.8 129.09 134.8 132.26 132.84 134.22Z" stroke="#C7C6C5" stroke-width="0.43" stroke-miterlimit="10"/>
<path d="M128.91 141.18C128.91 141.18 130.42 140.52 130.99 140.52C131.36 140.52 135.81 141.23 135.81 146.13C135.81 151.03 131.36 151.74 130.99 151.74C130.2 151.74 128.91 151.08 128.91 151.08" stroke="#C7C6C5" stroke-width="0.43" stroke-miterlimit="10"/>
<path d="M128.68 141.69C128.68 141.69 130.03 141.1 130.54 141.1C130.87 141.1 134.86 141.74 134.86 146.13C134.86 150.52 130.88 151.15 130.54 151.15C129.83 151.15 128.68 150.56 128.68 150.56" stroke="#C7C6C5" stroke-width="0.43" stroke-miterlimit="10"/>
<path d="M133.15 146.13C133.15 148.9 130.91 151.14 128.14 151.14C125.37 151.14 123.13 148.9 123.13 146.13C123.13 143.36 125.38 141.12 128.14 141.12C130.9 141.12 133.15 143.36 133.15 146.13Z" stroke="#C7C6C5" stroke-width="0.43" stroke-miterlimit="10"/>
<path d="M92.8 87.5H40.64V98.55H92.8V87.5Z" stroke="#C7C6C5" stroke-width="0.43" stroke-miterlimit="10"/>
<path d="M61.1 93.3302L54.19 96.4502L53.88 95.7602L63.5 89.9702V89.2602C63.5 89.2602 63.53 88.7002 64.06 88.7002H69.37C69.9 88.7002 69.93 89.2602 69.93 89.2602V89.9702L79.55 95.7602L79.24 96.4502L72.33 93.3302H61.08H61.1Z" stroke="#C7C6C5" stroke-width="0.43" stroke-miterlimit="10"/>
<path d="M87.07 92.3901H46.38V93.3301H87.07V92.3901Z" stroke="#C7C6C5" stroke-width="0.43" stroke-miterlimit="10"/>
<path d="M75.21 92.3899C74.12 92.3899 74.21 91.4199 72.99 91.4199H60.46C59.24 91.4199 59.34 92.3899 58.24 92.3899H75.21Z" stroke="#C7C6C5" stroke-width="0.43" stroke-miterlimit="10"/>
<path d="M43.97 139.39V160.43C43.97 160.82 44.29 161.14 44.68 161.14H66.01C66.4 161.14 66.72 160.82 66.72 160.43V157.97C66.72 157.58 66.4 157.26 66.01 157.26H47.84V139.39C47.84 139 47.52 138.68 47.13 138.68H44.67C44.28 138.68 43.96 139 43.96 139.39" stroke="#C7C6C5" stroke-width="0.43" stroke-miterlimit="10"/>
<path d="M43.97 139.39V160.43C43.97 160.82 44.29 161.14 44.68 161.14H66.01C66.4 161.14 66.72 160.82 66.72 160.43V157.97C66.72 157.58 66.4 157.26 66.01 157.26H47.84V139.39C47.84 139 47.52 138.68 47.13 138.68H44.67C44.28 138.68 43.96 139 43.96 139.39H43.97Z" stroke="#C7C6C5" stroke-width="0.43" stroke-miterlimit="10"/>
<path d="M41.22 139.39V163.35C41.22 163.74 41.54 164.06 41.93 164.06H66.01C66.4 164.06 66.72 163.74 66.72 163.35V162.02C66.72 161.63 66.4 161.14 66.01 161.14H43.97V139.39C43.97 139 43.65 138.68 43.26 138.68H41.93C41.54 138.68 41.22 139 41.22 139.39Z" stroke="#C7C6C5" stroke-width="0.43" stroke-miterlimit="10"/>
<path d="M41.22 139.39V163.35C41.22 163.74 41.54 164.06 41.93 164.06H66.01C66.4 164.06 66.72 163.74 66.72 163.35V162.02C66.72 161.63 66.4 161.14 66.01 161.14H43.97V139.39C43.97 139 43.65 138.68 43.26 138.68H41.93C41.54 138.68 41.22 139 41.22 139.39Z" stroke="#C7C6C5" stroke-width="0.43" stroke-miterlimit="10"/>
<path d="M47.85 157.27L44.3 160.79" stroke="#C7C6C5" stroke-width="0.43" stroke-miterlimit="10"/>
<path d="M48.55 138.69H66.01C66.4 138.69 66.72 139.01 66.72 139.4V156.57C66.72 156.96 66.4 157.28 66.01 157.28H48.55C48.16 157.28 47.84 156.96 47.84 156.57V139.4C47.84 139.01 48.16 138.69 48.55 138.69Z" stroke="#C7C6C5" stroke-width="0.43" stroke-miterlimit="10"/>
<path d="M48.55 138.69H66.01C66.4 138.69 66.72 139.01 66.72 139.4V156.57C66.72 156.96 66.4 157.28 66.01 157.28H48.55C48.16 157.28 47.84 156.96 47.84 156.57V139.4C47.84 139.01 48.16 138.69 48.55 138.69Z" stroke="#C7C6C5" stroke-width="0.43" stroke-miterlimit="10"/>
<path d="M89.47 139.39V160.43C89.47 160.82 89.15 161.14 88.76 161.14H67.43C67.04 161.14 66.72 160.82 66.72 160.43V157.97C66.72 157.58 67.04 157.26 67.43 157.26H85.6V139.39C85.6 139 85.92 138.68 86.31 138.68H88.77C89.16 138.68 89.48 139 89.48 139.39" stroke="#C7C6C5" stroke-width="0.43" stroke-miterlimit="10"/>
<path d="M89.47 139.39V160.43C89.47 160.82 89.15 161.14 88.76 161.14H67.43C67.04 161.14 66.72 160.82 66.72 160.43V157.97C66.72 157.58 67.04 157.26 67.43 157.26H85.6V139.39C85.6 139 85.92 138.68 86.31 138.68H88.77C89.16 138.68 89.48 139 89.48 139.39H89.47Z" stroke="#C7C6C5" stroke-width="0.43" stroke-miterlimit="10"/>
<path d="M92.22 139.39V163.35C92.22 163.74 91.9 164.06 91.51 164.06H67.43C67.04 164.06 66.72 163.74 66.72 163.35V162.02C66.72 161.63 67.04 161.14 67.43 161.14H89.47V139.39C89.47 139 89.79 138.68 90.18 138.68H91.51C91.9 138.68 92.22 139 92.22 139.39Z" stroke="#C7C6C5" stroke-width="0.43" stroke-miterlimit="10"/>
<path d="M92.22 139.39V163.35C92.22 163.74 91.9 164.06 91.51 164.06H67.43C67.04 164.06 66.72 163.74 66.72 163.35V162.02C66.72 161.63 67.04 161.14 67.43 161.14H89.47V139.39C89.47 139 89.79 138.68 90.18 138.68H91.51C91.9 138.68 92.22 139 92.22 139.39Z" stroke="#C7C6C5" stroke-width="0.43" stroke-miterlimit="10"/>
<path d="M85.6 157.27L89.14 160.79" stroke="#C7C6C5" stroke-width="0.43" stroke-miterlimit="10"/>
<path d="M67.43 138.69H84.89C85.28 138.69 85.6 139.01 85.6 139.4V156.56C85.6 156.95 85.28 157.27 84.89 157.27H67.43C67.04 157.27 66.72 156.95 66.72 156.56V139.39C66.72 139 67.04 138.68 67.43 138.68V138.69Z" stroke="#C7C6C5" stroke-width="0.43" stroke-miterlimit="10"/>
<path d="M67.43 138.69H84.89C85.28 138.69 85.6 139.01 85.6 139.4V156.56C85.6 156.95 85.28 157.27 84.89 157.27H67.43C67.04 157.27 66.72 156.95 66.72 156.56V139.39C66.72 139 67.04 138.68 67.43 138.68V138.69Z" stroke="#C7C6C5" stroke-width="0.43" stroke-miterlimit="10"/>
<path d="M144.37 48.25C144.37 53.22 140.33 57.26 135.36 57.26C130.39 57.26 126.35 53.22 126.35 48.25V16.53C126.35 11.56 130.39 7.52002 135.36 7.52002C140.33 7.52002 144.37 11.56 144.37 16.53V48.25Z" stroke="#C7C6C5" stroke-width="0.43" stroke-linecap="round" stroke-linejoin="round"/>
<path d="M142.67 48.05C142.67 52.08 139.39 55.36 135.36 55.36C131.33 55.36 128.05 52.08 128.05 48.05V16.54C128.05 12.51 131.33 9.22998 135.36 9.22998C139.39 9.22998 142.67 12.51 142.67 16.54V48.05Z" stroke="#C7C6C5" stroke-width="0.43" stroke-linecap="round" stroke-linejoin="round"/>
<path d="M135.36 14.2603C137.14 14.2603 138.59 15.7003 138.59 17.4903V46.0103C138.59 47.7903 137.15 49.2403 135.36 49.2403C133.58 49.2403 132.13 47.8003 132.13 46.0103V17.4903C132.13 15.7103 133.57 14.2603 135.36 14.2603Z" stroke="#C7C6C5" stroke-width="0.43" stroke-linecap="round" stroke-linejoin="round"/>
<path d="M128.85 30.8999C129.07 30.8999 129.26 31.2799 129.26 31.7399C129.26 32.1999 129.08 32.5799 128.85 32.5799C128.62 32.5799 128.44 32.1999 128.44 31.7399C128.44 31.2799 128.62 30.8999 128.85 30.8999Z" stroke="#C7C6C5" stroke-width="0.43" stroke-linecap="round" stroke-linejoin="round"/>
<path d="M124.08 7.33984H106.76V59.5398H124.08V7.33984Z" stroke="#C7C6C5" stroke-width="0.43" stroke-linecap="round" stroke-linejoin="round"/>
<path d="M116.33 31.7599C116.33 30.5399 114.52 30.5499 114.52 31.7599C114.52 32.6599 115.43 32.4199 115.43 33.2299" stroke="#C7C6C5" stroke-width="0.43" stroke-linecap="round" stroke-linejoin="round"/>
<path d="M115.42 33.2397L121.51 35.2897C121.51 35.2897 122.07 35.4997 121.99 36.1197C121.91 36.7297 121.34 36.6697 121.34 36.6697H109.51C109.51 36.6697 108.94 36.7397 108.86 36.1197C108.78 35.5097 109.34 35.2897 109.34 35.2897L115.43 33.2397H115.42Z" stroke="#C7C6C5" stroke-width="0.43" stroke-linecap="round" stroke-linejoin="round"/>
<path d="M115.42 29.8V8.47998" stroke="#C7C6C5" stroke-width="0.43" stroke-linecap="round" stroke-linejoin="round"/>
<path d="M115.42 58.8198V37.7798" stroke="#C7C6C5" stroke-width="0.43" stroke-linecap="round" stroke-linejoin="round"/>
<path d="M198.96 91.8799H154.4V108.8H198.96V91.8799Z" stroke="#C7C6C5" stroke-width="0.43" stroke-linecap="round" stroke-linejoin="round"/>
<path d="M178.31 96.1201C178.31 94.9201 176.54 94.9401 176.54 96.1201C176.54 97.0001 177.42 96.76 177.42 97.56" stroke="#C7C6C5" stroke-width="0.43" stroke-linecap="round" stroke-linejoin="round"/>
<path d="M177.42 97.5601L183.37 99.5601C183.37 99.5601 183.92 99.7701 183.84 100.37C183.76 100.97 183.2 100.9 183.2 100.9H171.65C171.65 100.9 171.09 100.97 171.01 100.37C170.93 99.7701 171.48 99.5601 171.48 99.5601L177.43 97.5601H177.42Z" stroke="#C7C6C5" stroke-width="0.43" stroke-linecap="round" stroke-linejoin="round"/>
<path d="M186.13 100.34H197.74" stroke="#C7C6C5" stroke-width="0.43" stroke-linecap="round" stroke-linejoin="round"/>
<path d="M155.2 100.34H168.44" stroke="#C7C6C5" stroke-width="0.43" stroke-linecap="round" stroke-linejoin="round"/>
<path d="M176.25 146.26H158.63V164.18H176.25V146.26Z" stroke="#C7C6C5" stroke-width="0.43" stroke-miterlimit="10"/>
<path d="M176.25 128.64H158.63V146.26H176.25V128.64Z" stroke="#C7C6C5" stroke-width="0.43" stroke-miterlimit="10"/>
<path d="M176.25 128.64H158.63V146.26H176.25V128.64Z" stroke="#C7C6C5" stroke-width="0.43" stroke-miterlimit="10"/>
<path d="M161.78 130.14H173.1C174 130.14 174.72 130.87 174.72 131.76V143.13C174.72 144.03 173.99 144.75 173.1 144.75H161.78C160.88 144.75 160.16 144.02 160.16 143.13V131.75C160.16 130.85 160.89 130.13 161.78 130.13V130.14Z" stroke="#C7C6C5" stroke-width="0.43" stroke-miterlimit="10"/>
<path d="M161.78 130.14H173.1C174 130.14 174.72 130.87 174.72 131.76V143.13C174.72 144.03 173.99 144.75 173.1 144.75H161.78C160.88 144.75 160.16 144.02 160.16 143.13V131.75C160.16 130.85 160.89 130.13 161.78 130.13V130.14Z" stroke="#C7C6C5" stroke-width="0.43" stroke-miterlimit="10"/>
<path d="M172.52 143.48C173.045 143.48 173.47 143.055 173.47 142.53C173.47 142.005 173.045 141.58 172.52 141.58C171.995 141.58 171.57 142.005 171.57 142.53C171.57 143.055 171.995 143.48 172.52 143.48Z" stroke="#C7C6C5" stroke-width="0.43" stroke-miterlimit="10"/>
<path d="M175.3 136.74H169.92V138.17H175.3V136.74Z" stroke="#C7C6C5" stroke-width="0.43" stroke-miterlimit="10"/>
<path d="M145.08 7.62012H169.35C169.74 7.62012 170.06 7.94012 170.06 8.33012V19.5501C170.06 19.9401 169.74 20.2601 169.35 20.2601H145.08C144.69 20.2601 144.37 19.9401 144.37 19.5501V8.33012C144.37 7.94012 144.69 7.62012 145.08 7.62012Z" stroke="#C7C6C5" stroke-width="0.43" stroke-linecap="round" stroke-linejoin="round"/>
<path d="M166.5 14.2302C166.5 11.5702 162.34 9.41016 157.21 9.41016C152.08 9.41016 147.92 11.5702 147.92 14.2302C147.92 16.8902 152.08 19.0502 157.21 19.0502C162.34 19.0502 166.5 16.8902 166.5 14.2302Z" stroke="#C7C6C5" stroke-width="0.43" stroke-miterlimit="10"/>
<path d="M166.5 14.2302C166.5 11.5702 162.34 9.41016 157.21 9.41016C152.08 9.41016 147.92 11.5702 147.92 14.2302C147.92 16.8902 152.08 19.0502 157.21 19.0502C162.34 19.0502 166.5 16.8902 166.5 14.2302Z" stroke="#C7C6C5" stroke-width="0.43" stroke-linecap="round" stroke-linejoin="round"/>
<path d="M154.87 9.16992C154.87 8.74992 154.53 8.41992 154.12 8.41992C153.71 8.41992 153.37 8.75992 153.37 9.16992C153.37 9.57992 153.71 9.91992 154.12 9.91992C154.53 9.91992 154.87 9.57992 154.87 9.16992Z" stroke="#C7C6C5" stroke-width="0.43" stroke-miterlimit="10"/>
<path d="M154.87 9.16992C154.87 8.74992 154.53 8.41992 154.12 8.41992C153.71 8.41992 153.37 8.75992 153.37 9.16992C153.37 9.57992 153.71 9.91992 154.12 9.91992C154.53 9.91992 154.87 9.57992 154.87 9.16992Z" stroke="#C7C6C5" stroke-width="0.43" stroke-linecap="round" stroke-linejoin="round"/>
<path d="M161.17 9.16992C161.17 8.74992 160.83 8.41992 160.42 8.41992C160.01 8.41992 159.67 8.75992 159.67 9.16992C159.67 9.57992 160.01 9.91992 160.42 9.91992C160.83 9.91992 161.17 9.57992 161.17 9.16992Z" stroke="#C7C6C5" stroke-width="0.43" stroke-miterlimit="10"/>
<path d="M161.17 9.16992C161.17 8.74992 160.83 8.41992 160.42 8.41992C160.01 8.41992 159.67 8.75992 159.67 9.16992C159.67 9.57992 160.01 9.91992 160.42 9.91992C160.83 9.91992 161.17 9.57992 161.17 9.16992Z" stroke="#C7C6C5" stroke-width="0.43" stroke-linecap="round" stroke-linejoin="round"/>
<path d="M157.65 11.5502C157.65 11.7902 157.46 11.9802 157.22 11.9802C156.98 11.9802 156.79 11.7902 156.79 11.5502L156.66 9.22016C156.66 8.91016 156.91 8.66016 157.22 8.66016C157.53 8.66016 157.79 8.91016 157.79 9.22016L157.66 11.5502H157.65Z" stroke="#C7C6C5" stroke-width="0.43" stroke-miterlimit="10"/>
<path d="M157.65 11.5502C157.65 11.7902 157.46 11.9802 157.22 11.9802C156.98 11.9802 156.79 11.7902 156.79 11.5502L156.66 9.22016C156.66 8.91016 156.91 8.66016 157.22 8.66016C157.53 8.66016 157.79 8.91016 157.79 9.22016L157.66 11.5502H157.65Z" stroke="#C7C6C5" stroke-width="0.43" stroke-linecap="round" stroke-linejoin="round"/>
<path d="M188.29 7.5498H170.06V20.2698H188.29V7.5498Z" stroke="#C7C6C5" stroke-width="0.43" stroke-linecap="round" stroke-linejoin="round"/>
<path d="M179.03 18.3297C176.59 18.3297 174.61 16.3497 174.61 13.9097C174.61 11.4697 176.59 9.48975 179.03 9.48975C181.47 9.48975 183.45 11.4697 183.45 13.9097C183.45 16.3497 181.47 18.3297 179.03 18.3297Z" stroke="#C7C6C5" stroke-width="0.43" stroke-linecap="round" stroke-linejoin="round"/>
<path d="M179.03 18.3297C181.29 18.3297 182.6 16.4897 182.6 14.2297C182.6 12.4197 181.13 10.9497 179.32 10.9497C177.87 10.9497 176.7 12.1197 176.7 13.5697C176.7 14.7297 177.64 15.6697 178.8 15.6697C179.73 15.6697 180.48 14.9197 180.48 13.9897C180.48 13.2497 179.88 12.6497 179.14 12.6497C178.55 12.6497 178.06 13.1297 178.06 13.7297C178.06 14.1997 178.44 14.5897 178.92 14.5897C179.3 14.5897 179.61 14.2797 179.61 13.8997C179.61 13.5997 179.36 13.3497 179.06 13.3497C178.82 13.3497 178.62 13.5497 178.62 13.7897" stroke="#C7C6C5" stroke-width="0.43" stroke-linecap="round" stroke-linejoin="round"/>
<path d="M179.03 14.5296C179.37 14.5296 179.65 14.2496 179.65 13.9096C179.65 13.5696 179.37 13.2896 179.03 13.2896C178.69 13.2896 178.41 13.5696 178.41 13.9096C178.41 14.2496 178.69 14.5296 179.03 14.5296Z" fill="#C7C6C5"/>
<path d="M38.86 7.64014H28.42C28.0279 7.64014 27.71 7.95801 27.71 8.35014V18.7901C27.71 19.1823 28.0279 19.5001 28.42 19.5001H38.86C39.2521 19.5001 39.57 19.1823 39.57 18.7901V8.35014C39.57 7.95801 39.2521 7.64014 38.86 7.64014Z" stroke="#C7C6C5" stroke-width="0.43" stroke-linecap="round" stroke-linejoin="round"/>
<path d="M95.19 7.64014H84.75C84.3579 7.64014 84.04 7.95801 84.04 8.35014V18.7901C84.04 19.1823 84.3579 19.5001 84.75 19.5001H95.19C95.5821 19.5001 95.9 19.1823 95.9 18.7901V8.35014C95.9 7.95801 95.5821 7.64014 95.19 7.64014Z" stroke="#C7C6C5" stroke-width="0.43" stroke-linecap="round" stroke-linejoin="round"/>
<path d="M40.49 9.4801C40.49 9.4801 40.46 8.3501 41.62 8.3501H81.98C83.16 8.3501 83.11 9.4801 83.11 9.4801V59.4301C83.11 59.4301 83.14 60.5601 81.98 60.5601H41.62C40.44 60.5601 40.49 59.4301 40.49 59.4301V9.4801Z" stroke="#C7C6C5" stroke-width="0.43" stroke-miterlimit="10"/>
<path d="M59.98 10.1597H43.73C43.1943 10.1597 42.76 10.594 42.76 11.1297V20.9397C42.76 21.4754 43.1943 21.9097 43.73 21.9097H59.98C60.5157 21.9097 60.95 21.4754 60.95 20.9397V11.1297C60.95 10.594 60.5157 10.1597 59.98 10.1597Z" stroke="#C7C6C5" stroke-width="0.43" stroke-miterlimit="10"/>
<path d="M79.87 10.1597H63.62C63.0843 10.1597 62.65 10.594 62.65 11.1297V20.9397C62.65 21.4754 63.0843 21.9097 63.62 21.9097H79.87C80.4057 21.9097 80.84 21.4754 80.84 20.9397V11.1297C80.84 10.594 80.4057 10.1597 79.87 10.1597Z" stroke="#C7C6C5" stroke-width="0.43" stroke-miterlimit="10"/>
<path d="M40.49 23.0698H83.11" stroke="#C7C6C5" stroke-width="0.43" stroke-miterlimit="10"/>
<path d="M83.11 13.7299C82.39 13.7299 82.4 12.8799 82.4 12.8799V9.4799C82.4 9.3899 82.38 9.2199 82.3 9.1399C82.23 9.0699 82.09 9.0499 81.98 9.0499H41.62C41.47 9.0499 41.37 9.0799 41.31 9.1399C41.22 9.2399 41.2 9.4399 41.2 9.4599V12.8799C41.2 12.8799 41.23 13.7299 40.49 13.7299C39.75 13.7299 39.78 12.8799 39.78 12.8799V9.4899C39.78 9.3599 39.8 8.9499 40.02 8.5399C40.33 7.9599 40.9 7.6499 41.62 7.6499H81.98C82.68 7.6499 83.1 7.9399 83.33 8.1799C83.84 8.7199 83.83 9.4399 83.82 9.5299V12.8999C83.82 12.8999 83.84 13.7499 83.11 13.7499V13.7299Z" stroke="#C7C6C5" stroke-width="0.43" stroke-miterlimit="10"/>
<path d="M40.49 12.8801V9.4801C40.49 9.4801 40.46 8.3501 41.62 8.3501H81.98C83.16 8.3501 83.11 9.4801 83.11 9.4801V12.8801" stroke="#C7C6C5" stroke-width="0.43" stroke-miterlimit="10" stroke-linecap="round"/>
<path d="M170.24 35.9498C170.24 33.5698 172.09 33.5698 172.62 33.5698H187.46C187.99 33.5698 188.43 33.9998 188.43 34.5398V44.3598C188.43 44.8898 188 45.3298 187.46 45.3298H172.62C172.09 45.3298 170.24 45.3298 170.24 42.9498V35.9598V35.9498Z" stroke="#C7C6C5" stroke-width="0.43" stroke-miterlimit="10"/>
<path d="M184.74 35.5498H173.26C172.746 35.5498 172.33 35.9662 172.33 36.4798V42.4098C172.33 42.9234 172.746 43.3398 173.26 43.3398H184.74C185.254 43.3398 185.67 42.9234 185.67 42.4098V36.4798C185.67 35.9662 185.254 35.5498 184.74 35.5498Z" stroke="#C7C6C5" stroke-width="0.43" stroke-miterlimit="10"/>
<path d="M185.67 40.9697C184.82 40.9697 184.14 40.2797 184.14 39.4397C184.14 38.5997 184.83 37.9097 185.67 37.9097" stroke="#C7C6C5" stroke-width="0.43" stroke-miterlimit="10"/>
<path d="M126.16 123.02H111.09V163.93H126.16V123.02Z" stroke="#C7C6C5" stroke-width="0.43" stroke-miterlimit="10"/>
<path d="M158.65 148.7H142.81V163.95H158.65V148.7Z" stroke="#C7C6C5" stroke-width="0.43" stroke-miterlimit="10"/>
<path d="M154.36 155.35C155.807 155.35 156.98 154.177 156.98 152.73C156.98 151.283 155.807 150.11 154.36 150.11C152.913 150.11 151.74 151.283 151.74 152.73C151.74 154.177 152.913 155.35 154.36 155.35Z" stroke="#C7C6C5" stroke-width="0.43" stroke-miterlimit="10"/>
<path d="M154.36 162.3C155.807 162.3 156.98 161.127 156.98 159.68C156.98 158.233 155.807 157.06 154.36 157.06C152.913 157.06 151.74 158.233 151.74 159.68C151.74 161.127 152.913 162.3 154.36 162.3Z" stroke="#C7C6C5" stroke-width="0.43" stroke-miterlimit="10"/>
<path d="M147.17 155.35C148.617 155.35 149.79 154.177 149.79 152.73C149.79 151.283 148.617 150.11 147.17 150.11C145.723 150.11 144.55 151.283 144.55 152.73C144.55 154.177 145.723 155.35 147.17 155.35Z" stroke="#C7C6C5" stroke-width="0.43" stroke-miterlimit="10"/>
<path d="M147.17 162.3C148.617 162.3 149.79 161.127 149.79 159.68C149.79 158.233 148.617 157.06 147.17 157.06C145.723 157.06 144.55 158.233 144.55 159.68C144.55 161.127 145.723 162.3 147.17 162.3Z" stroke="#C7C6C5" stroke-width="0.43" stroke-miterlimit="10"/>
<path d="M176.25 111.14H158.63V128.64H176.25V111.14Z" stroke="#C7C6C5" stroke-width="0.43" stroke-miterlimit="10"/>
<path d="M168.81 120.91L166.06 118.16" stroke="#C7C6C5" stroke-width="0.43" stroke-miterlimit="10" stroke-linecap="round"/>
<path d="M168.81 118.16L166.06 120.91" stroke="#C7C6C5" stroke-width="0.43" stroke-miterlimit="10" stroke-linecap="round"/>
<path d="M167.44 116.29V122.79" stroke="#C7C6C5" stroke-width="0.43" stroke-miterlimit="10" stroke-linecap="round"/>
<path d="M164.19 119.54H170.69" stroke="#C7C6C5" stroke-width="0.43" stroke-miterlimit="10" stroke-linecap="round"/>
<path d="M53.75 75.9799V70.7799L54.21 71.2499H52.57V70.3799H54.79V75.9799H53.75Z" fill="#12100B"/>
<path d="M56.8 75.9799V70.7799L57.26 71.2499H55.62V70.3799H57.84V75.9799H56.8Z" fill="#12100B"/>
<path d="M58.99 77.19L59.45 75.42L59.59 76.01C59.4 76.01 59.25 75.95 59.12 75.84C59 75.72 58.93 75.57 58.93 75.37C58.93 75.17 58.99 75.01 59.12 74.89C59.25 74.77 59.4 74.71 59.58 74.71C59.76 74.71 59.92 74.77 60.04 74.89C60.16 75.01 60.22 75.17 60.22 75.37C60.22 75.42 60.22 75.48 60.2 75.54C60.19 75.6 60.17 75.67 60.15 75.75C60.13 75.83 60.09 75.93 60.03 76.05L59.62 77.18H58.97L58.99 77.19Z" fill="#12100B"/>
<path d="M63.14 76.0598C62.7 76.0598 62.3 75.9498 61.94 75.7198C61.58 75.4998 61.31 75.1698 61.1 74.7398C60.9 74.3098 60.8 73.7898 60.8 73.1798C60.8 72.5698 60.9 72.0498 61.1 71.6198C61.3 71.1898 61.58 70.8598 61.94 70.6398C62.29 70.4198 62.69 70.2998 63.14 70.2998C63.59 70.2998 63.99 70.4098 64.34 70.6398C64.69 70.8598 64.97 71.1898 65.18 71.6198C65.39 72.0498 65.49 72.5698 65.49 73.1798C65.49 73.7898 65.39 74.3098 65.18 74.7398C64.97 75.1698 64.7 75.4998 64.34 75.7198C63.99 75.9398 63.59 76.0598 63.14 76.0598ZM63.14 75.1598C63.4 75.1598 63.63 75.0898 63.82 74.9498C64.01 74.8098 64.16 74.5898 64.27 74.2998C64.38 74.0098 64.43 73.6398 64.43 73.1898C64.43 72.7398 64.38 72.3598 64.27 72.0698C64.16 71.7798 64.01 71.5598 63.82 71.4198C63.63 71.2798 63.4 71.2098 63.14 71.2098C62.88 71.2098 62.67 71.2798 62.47 71.4198C62.28 71.5598 62.12 71.7798 62.01 72.0698C61.9 72.3598 61.85 72.7298 61.85 73.1898C61.85 73.6498 61.9 74.0098 62.01 74.2998C62.12 74.5898 62.27 74.8098 62.47 74.9498C62.67 75.0898 62.89 75.1598 63.14 75.1598Z" fill="#12100B"/>
<path d="M68.52 76.0598C68.08 76.0598 67.68 75.9498 67.32 75.7198C66.96 75.4998 66.69 75.1698 66.48 74.7398C66.28 74.3098 66.18 73.7898 66.18 73.1798C66.18 72.5698 66.28 72.0498 66.48 71.6198C66.68 71.1898 66.96 70.8598 67.32 70.6398C67.67 70.4198 68.07 70.2998 68.52 70.2998C68.97 70.2998 69.37 70.4098 69.72 70.6398C70.07 70.8598 70.35 71.1898 70.56 71.6198C70.77 72.0498 70.87 72.5698 70.87 73.1798C70.87 73.7898 70.77 74.3098 70.56 74.7398C70.35 75.1698 70.08 75.4998 69.72 75.7198C69.37 75.9398 68.97 76.0598 68.52 76.0598ZM68.52 75.1598C68.78 75.1598 69.01 75.0898 69.2 74.9498C69.39 74.8098 69.54 74.5898 69.65 74.2998C69.76 74.0098 69.81 73.6398 69.81 73.1898C69.81 72.7398 69.76 72.3598 69.65 72.0698C69.54 71.7798 69.39 71.5598 69.2 71.4198C69.01 71.2798 68.78 71.2098 68.52 71.2098C68.26 71.2098 68.05 71.2798 67.85 71.4198C67.66 71.5598 67.5 71.7798 67.39 72.0698C67.28 72.3598 67.23 72.7298 67.23 73.1898C67.23 73.6498 67.28 74.0098 67.39 74.2998C67.5 74.5898 67.65 74.8098 67.85 74.9498C68.05 75.0898 68.27 75.1598 68.52 75.1598Z" fill="#12100B"/>
<path d="M152.11 42.2C151.72 42.2 151.33 42.14 150.95 42.03C150.57 41.91 150.26 41.76 150 41.55L150.45 40.74C150.65 40.91 150.9 41.04 151.19 41.14C151.48 41.24 151.78 41.29 152.09 41.29C152.46 41.29 152.75 41.21 152.96 41.06C153.17 40.91 153.27 40.7 153.27 40.44C153.27 40.18 153.17 39.98 152.98 39.83C152.79 39.68 152.48 39.61 152.05 39.61H151.54V38.9L153.14 37L153.28 37.39H150.27V36.52H154.09V37.22L152.49 39.12L151.95 38.8H152.26C152.95 38.8 153.46 38.95 153.81 39.26C154.16 39.57 154.33 39.96 154.33 40.44C154.33 40.75 154.25 41.05 154.09 41.31C153.93 41.57 153.69 41.79 153.36 41.95C153.03 42.11 152.62 42.19 152.12 42.19L152.11 42.2Z" fill="#12100B"/>
<path d="M155.05 43.3301L155.51 41.5601L155.65 42.1501C155.46 42.1501 155.31 42.0901 155.18 41.9801C155.05 41.8601 154.99 41.7101 154.99 41.5101C154.99 41.3101 155.05 41.1501 155.18 41.0301C155.3 40.9101 155.46 40.8501 155.64 40.8501C155.82 40.8501 155.98 40.9101 156.1 41.0301C156.22 41.1501 156.28 41.3101 156.28 41.5101C156.28 41.5601 156.28 41.6201 156.26 41.6801C156.25 41.7401 156.23 41.8101 156.21 41.8901C156.19 41.9701 156.15 42.0701 156.09 42.1901L155.68 43.3201H155.03L155.05 43.3301Z" fill="#12100B"/>
<path d="M157.78 42.1198L160.09 36.9398L160.36 37.3998H157.18L157.68 36.8998V38.3598H156.71V36.5298H161.06V37.2298L158.88 42.1298H157.77L157.78 42.1198Z" fill="#12100B"/>
<path d="M163.4 42.2C163.01 42.2 162.62 42.14 162.24 42.03C161.86 41.91 161.55 41.76 161.29 41.55L161.74 40.74C161.94 40.91 162.19 41.04 162.48 41.14C162.77 41.24 163.07 41.29 163.38 41.29C163.75 41.29 164.04 41.21 164.25 41.06C164.46 40.91 164.56 40.7 164.56 40.44C164.56 40.18 164.46 39.98 164.27 39.83C164.08 39.68 163.77 39.61 163.34 39.61H162.83V38.9L164.43 37L164.57 37.39H161.56V36.52H165.38V37.22L163.78 39.12L163.24 38.8H163.55C164.24 38.8 164.75 38.95 165.1 39.26C165.44 39.57 165.62 39.96 165.62 40.44C165.62 40.75 165.54 41.05 165.38 41.31C165.22 41.58 164.98 41.79 164.65 41.95C164.32 42.11 163.91 42.19 163.41 42.19L163.4 42.2Z" fill="#12100B"/>
<path d="M165.5 78.3299C165.11 78.3299 164.72 78.2699 164.34 78.1599C163.96 78.0399 163.65 77.8899 163.39 77.6799L163.84 76.8699C164.04 77.0399 164.29 77.1699 164.58 77.2699C164.87 77.3699 165.17 77.4199 165.48 77.4199C165.85 77.4199 166.14 77.3399 166.35 77.1899C166.56 77.0399 166.66 76.8299 166.66 76.5699C166.66 76.3099 166.56 76.1099 166.37 75.9599C166.18 75.8099 165.87 75.7399 165.44 75.7399H164.93V75.0299L166.53 73.1299L166.67 73.5199H163.66V72.6499H167.48V73.3499L165.88 75.2499L165.34 74.9299H165.65C166.34 74.9299 166.85 75.0799 167.2 75.3899C167.54 75.6999 167.72 76.0899 167.72 76.5699C167.72 76.8799 167.64 77.1799 167.48 77.4399C167.32 77.7099 167.08 77.9199 166.75 78.0799C166.42 78.2399 166.01 78.3199 165.51 78.3199L165.5 78.3299Z" fill="#12100B"/>
<path d="M168.44 79.46L168.9 77.69L169.04 78.28C168.85 78.28 168.7 78.22 168.57 78.11C168.45 77.99 168.38 77.84 168.38 77.64C168.38 77.44 168.44 77.28 168.57 77.16C168.7 77.04 168.85 76.98 169.03 76.98C169.21 76.98 169.37 77.04 169.49 77.16C169.61 77.28 169.67 77.44 169.67 77.64C169.67 77.69 169.67 77.75 169.65 77.81C169.64 77.87 169.62 77.94 169.6 78.02C169.58 78.1 169.54 78.2 169.48 78.32L169.07 79.45H168.42L168.44 79.46Z" fill="#12100B"/>
<path d="M171.17 78.2497L173.48 73.0697L173.75 73.5297H170.57L171.07 73.0297V74.4897H170.1V72.6597H174.45V73.3597L172.27 78.2597H171.16L171.17 78.2497Z" fill="#12100B"/>
<path d="M177.27 78.3298C176.83 78.3298 176.43 78.2198 176.07 77.9898C175.71 77.7698 175.44 77.4398 175.23 77.0098C175.03 76.5798 174.93 76.0598 174.93 75.4498C174.93 74.8398 175.03 74.3198 175.23 73.8898C175.43 73.4598 175.71 73.1298 176.07 72.9098C176.42 72.6898 176.82 72.5698 177.27 72.5698C177.72 72.5698 178.12 72.6798 178.47 72.9098C178.82 73.1298 179.1 73.4598 179.31 73.8898C179.52 74.3198 179.62 74.8398 179.62 75.4498C179.62 76.0598 179.52 76.5798 179.31 77.0098C179.1 77.4398 178.83 77.7698 178.47 77.9898C178.12 78.2098 177.72 78.3298 177.27 78.3298ZM177.27 77.4298C177.53 77.4298 177.76 77.3598 177.95 77.2198C178.14 77.0798 178.29 76.8598 178.4 76.5698C178.51 76.2798 178.56 75.9098 178.56 75.4598C178.56 75.0098 178.51 74.6298 178.4 74.3398C178.29 74.0498 178.14 73.8298 177.95 73.6898C177.76 73.5498 177.53 73.4798 177.27 73.4798C177.01 73.4798 176.8 73.5498 176.6 73.6898C176.41 73.8298 176.25 74.0498 176.14 74.3398C176.03 74.6298 175.98 74.9998 175.98 75.4598C175.98 75.9198 176.03 76.2798 176.14 76.5698C176.25 76.8598 176.4 77.0798 176.6 77.2198C176.8 77.3598 177.02 77.4298 177.27 77.4298Z" fill="#12100B"/>
<path d="M15.81 130.7V130L18.03 127.89C18.22 127.71 18.36 127.56 18.45 127.43C18.54 127.3 18.6 127.17 18.63 127.06C18.66 126.94 18.67 126.84 18.67 126.74C18.67 126.48 18.58 126.28 18.41 126.14C18.23 126 17.98 125.93 17.63 125.93C17.36 125.93 17.11 125.98 16.89 126.07C16.67 126.17 16.48 126.31 16.32 126.51L15.59 125.95C15.81 125.66 16.1 125.43 16.47 125.27C16.84 125.11 17.26 125.03 17.71 125.03C18.12 125.03 18.47 125.1 18.77 125.23C19.07 125.36 19.3 125.55 19.47 125.79C19.63 126.03 19.71 126.32 19.71 126.65C19.71 126.83 19.69 127.01 19.64 127.19C19.59 127.37 19.5 127.56 19.37 127.75C19.24 127.95 19.04 128.17 18.79 128.41L16.88 130.22L16.66 129.83H19.93V130.71H15.8L15.81 130.7Z" fill="#12100B"/>
<path d="M20.66 131.91L21.12 130.14L21.26 130.73C21.07 130.73 20.92 130.67 20.79 130.56C20.66 130.44 20.6 130.29 20.6 130.09C20.6 129.89 20.66 129.73 20.79 129.61C20.91 129.49 21.07 129.43 21.25 129.43C21.43 129.43 21.59 129.49 21.71 129.61C21.83 129.73 21.89 129.89 21.89 130.09C21.89 130.14 21.89 130.2 21.87 130.26C21.85 130.32 21.84 130.39 21.82 130.47C21.8 130.55 21.76 130.65 21.7 130.77L21.29 131.9H20.64L20.66 131.91Z" fill="#12100B"/>
<path d="M24.43 130.78C24.04 130.78 23.65 130.72 23.27 130.61C22.89 130.5 22.58 130.34 22.32 130.13L22.76 129.32C22.96 129.48 23.21 129.62 23.5 129.72C23.79 129.82 24.09 129.87 24.41 129.87C24.78 129.87 25.07 129.79 25.28 129.64C25.49 129.48 25.6 129.28 25.6 129.02C25.6 128.84 25.56 128.69 25.47 128.56C25.38 128.43 25.23 128.32 25.01 128.26C24.79 128.19 24.49 128.16 24.1 128.16H22.75L23.04 125.11H26.33V125.98H23.43L23.97 125.48L23.75 127.76L23.21 127.27H24.34C24.89 127.27 25.34 127.34 25.68 127.49C26.02 127.64 26.27 127.84 26.42 128.1C26.57 128.36 26.66 128.65 26.66 128.98C26.66 129.31 26.58 129.6 26.42 129.87C26.26 130.14 26.02 130.36 25.69 130.53C25.36 130.7 24.95 130.78 24.45 130.78H24.43Z" fill="#12100B"/>
<path d="M27.16 129.43V128.71L29.92 125.1H31.03L28.31 128.71L27.79 128.55H32.23V129.43H27.16ZM30.23 130.7V129.43L30.26 128.55V127.42H31.24V130.7H30.23Z" fill="#12100B"/>
<path d="M119.04 107.56V102.36L119.5 102.83H117.86V101.96H120.08V107.56H119.04Z" fill="#12100B"/>
<path d="M121.12 107.56V106.86L123.34 104.75C123.53 104.57 123.67 104.42 123.76 104.29C123.85 104.16 123.91 104.03 123.94 103.92C123.97 103.8 123.98 103.7 123.98 103.6C123.98 103.34 123.89 103.14 123.72 103C123.54 102.86 123.29 102.79 122.94 102.79C122.67 102.79 122.42 102.84 122.2 102.93C121.98 103.03 121.79 103.17 121.63 103.37L120.9 102.81C121.12 102.52 121.41 102.29 121.78 102.13C122.15 101.97 122.57 101.89 123.02 101.89C123.43 101.89 123.78 101.96 124.08 102.09C124.38 102.22 124.61 102.41 124.78 102.65C124.94 102.89 125.02 103.18 125.02 103.51C125.02 103.69 125 103.87 124.95 104.05C124.9 104.23 124.81 104.42 124.68 104.61C124.55 104.81 124.35 105.03 124.1 105.27L122.19 107.09L121.97 106.7H125.24V107.58H121.11L121.12 107.56Z" fill="#12100B"/>
<path d="M125.97 108.77L126.43 107L126.57 107.59C126.38 107.59 126.23 107.53 126.1 107.42C125.97 107.3 125.91 107.15 125.91 106.95C125.91 106.75 125.97 106.59 126.1 106.47C126.22 106.35 126.38 106.29 126.56 106.29C126.74 106.29 126.9 106.35 127.02 106.47C127.14 106.59 127.2 106.75 127.2 106.95C127.2 107 127.2 107.06 127.18 107.12C127.17 107.18 127.15 107.25 127.13 107.33C127.11 107.41 127.07 107.51 127.01 107.63L126.6 108.76H125.95L125.97 108.77Z" fill="#12100B"/>
<path d="M130.12 107.64C129.68 107.64 129.28 107.53 128.92 107.3C128.56 107.08 128.29 106.75 128.08 106.32C127.88 105.89 127.78 105.37 127.78 104.76C127.78 104.15 127.88 103.63 128.08 103.2C128.28 102.77 128.56 102.44 128.92 102.22C129.27 102 129.67 101.88 130.12 101.88C130.57 101.88 130.97 101.99 131.32 102.22C131.67 102.44 131.95 102.77 132.16 103.2C132.37 103.63 132.47 104.15 132.47 104.76C132.47 105.37 132.37 105.89 132.16 106.32C131.95 106.75 131.68 107.08 131.32 107.3C130.97 107.52 130.57 107.64 130.12 107.64ZM130.12 106.74C130.38 106.74 130.61 106.67 130.8 106.53C130.99 106.39 131.14 106.17 131.25 105.88C131.36 105.59 131.41 105.22 131.41 104.77C131.41 104.32 131.36 103.94 131.25 103.65C131.14 103.36 130.99 103.14 130.8 103C130.61 102.86 130.38 102.79 130.12 102.79C129.86 102.79 129.65 102.86 129.45 103C129.26 103.14 129.1 103.36 128.99 103.65C128.88 103.94 128.83 104.31 128.83 104.77C128.83 105.23 128.88 105.59 128.99 105.88C129.1 106.17 129.25 106.39 129.45 106.53C129.65 106.67 129.87 106.74 130.12 106.74Z" fill="#12100B"/>
<path d="M134.85 107.64C134.46 107.64 134.07 107.58 133.69 107.47C133.31 107.35 133 107.2 132.74 106.99L133.19 106.18C133.39 106.35 133.64 106.48 133.93 106.58C134.22 106.68 134.52 106.73 134.83 106.73C135.2 106.73 135.49 106.65 135.7 106.5C135.91 106.35 136.01 106.14 136.01 105.88C136.01 105.62 135.91 105.42 135.72 105.27C135.53 105.12 135.22 105.05 134.79 105.05H134.28V104.34L135.88 102.44L136.02 102.83H133.01V101.96H136.83V102.66L135.23 104.56L134.69 104.24H135C135.69 104.24 136.2 104.39 136.55 104.7C136.89 105.01 137.07 105.4 137.07 105.88C137.07 106.19 136.99 106.49 136.83 106.75C136.67 107.02 136.43 107.23 136.1 107.39C135.77 107.55 135.36 107.63 134.86 107.63L134.85 107.64Z" fill="#12100B"/>
<path d="M81.89 112.59V111.89L84.11 109.78C84.3 109.6 84.43 109.45 84.53 109.32C84.62 109.19 84.68 109.06 84.71 108.95C84.74 108.83 84.75 108.73 84.75 108.63C84.75 108.37 84.66 108.17 84.49 108.03C84.31 107.89 84.06 107.82 83.71 107.82C83.44 107.82 83.19 107.87 82.97 107.96C82.75 108.06 82.56 108.2 82.4 108.4L81.67 107.84C81.89 107.55 82.18 107.32 82.55 107.16C82.92 107 83.34 106.92 83.79 106.92C84.2 106.92 84.55 106.99 84.85 107.12C85.15 107.25 85.38 107.44 85.55 107.68C85.71 107.92 85.79 108.21 85.79 108.54C85.79 108.72 85.77 108.9 85.72 109.08C85.67 109.26 85.58 109.45 85.45 109.64C85.32 109.83 85.12 110.06 84.87 110.3L82.96 112.12L82.74 111.73H86.01V112.61H81.88L81.89 112.59Z" fill="#C43020"/>
<path d="M88.95 112.67C88.51 112.67 88.11 112.56 87.75 112.33C87.4 112.11 87.12 111.78 86.91 111.35C86.71 110.92 86.61 110.4 86.61 109.79C86.61 109.18 86.71 108.66 86.91 108.23C87.11 107.8 87.39 107.47 87.75 107.25C88.1 107.03 88.5 106.91 88.95 106.91C89.4 106.91 89.8 107.02 90.15 107.25C90.5 107.47 90.78 107.8 90.99 108.23C91.2 108.66 91.3 109.18 91.3 109.79C91.3 110.4 91.2 110.92 90.99 111.35C90.78 111.78 90.51 112.11 90.15 112.33C89.8 112.55 89.4 112.67 88.95 112.67ZM88.95 111.77C89.21 111.77 89.44 111.7 89.63 111.56C89.82 111.42 89.97 111.2 90.08 110.91C90.19 110.62 90.24 110.25 90.24 109.8C90.24 109.35 90.19 108.97 90.08 108.68C89.97 108.39 89.82 108.17 89.63 108.03C89.44 107.89 89.21 107.82 88.95 107.82C88.69 107.82 88.48 107.89 88.28 108.03C88.08 108.17 87.93 108.39 87.82 108.68C87.71 108.97 87.66 109.34 87.66 109.8C87.66 110.26 87.71 110.62 87.82 110.91C87.93 111.2 88.08 111.42 88.28 111.56C88.47 111.7 88.7 111.77 88.95 111.77Z" fill="#C43020"/>
<path d="M91.95 113.8L92.41 112.03L92.55 112.62C92.36 112.62 92.21 112.56 92.08 112.45C91.96 112.33 91.89 112.18 91.89 111.98C91.89 111.78 91.95 111.62 92.08 111.5C92.21 111.38 92.36 111.32 92.54 111.32C92.72 111.32 92.88 111.38 93 111.5C93.12 111.62 93.18 111.78 93.18 111.98C93.18 112.03 93.18 112.09 93.16 112.15C93.15 112.21 93.13 112.28 93.11 112.36C93.09 112.44 93.05 112.54 92.99 112.66L92.58 113.79H91.93L91.95 113.8Z" fill="#C43020"/>
<path d="M95.7 112.67C95.31 112.67 94.92 112.61 94.54 112.5C94.16 112.38 93.85 112.23 93.59 112.02L94.04 111.21C94.24 111.38 94.49 111.51 94.78 111.61C95.07 111.71 95.37 111.76 95.68 111.76C96.05 111.76 96.34 111.68 96.55 111.53C96.76 111.38 96.86 111.17 96.86 110.91C96.86 110.65 96.76 110.45 96.57 110.3C96.38 110.15 96.07 110.08 95.64 110.08H95.13V109.37L96.73 107.47L96.87 107.86H93.86V106.99H97.68V107.69L96.08 109.59L95.54 109.27H95.85C96.54 109.27 97.05 109.42 97.4 109.73C97.75 110.04 97.92 110.43 97.92 110.91C97.92 111.22 97.84 111.52 97.68 111.78C97.52 112.05 97.28 112.26 96.95 112.42C96.62 112.58 96.21 112.66 95.71 112.66L95.7 112.67Z" fill="#C43020"/>
<path d="M99.4501 112.59L101.76 107.41L102.03 107.87H98.8501L99.3501 107.37V108.83H98.3801V107H102.73V107.7L100.55 112.6H99.4401L99.4501 112.59Z" fill="#C43020"/>
<path d="M84.16 122.12C83.77 122.12 83.38 122.06 83 121.95C82.62 121.83 82.31 121.68 82.05 121.47L82.5 120.66C82.7 120.83 82.95 120.96 83.24 121.06C83.53 121.16 83.83 121.21 84.14 121.21C84.51 121.21 84.8 121.13 85.01 120.98C85.22 120.83 85.32 120.62 85.32 120.36C85.32 120.1 85.22 119.9 85.03 119.75C84.84 119.6 84.53 119.53 84.1 119.53H83.59V118.82L85.19 116.92L85.33 117.31H82.32V116.44H86.14V117.14L84.54 119.04L84 118.72H84.31C85 118.72 85.51 118.87 85.86 119.18C86.2 119.49 86.38 119.88 86.38 120.36C86.38 120.67 86.3 120.97 86.14 121.23C85.98 121.49 85.74 121.71 85.41 121.87C85.08 122.03 84.67 122.11 84.17 122.11L84.16 122.12Z" fill="#C43020"/>
<path d="M88.78 122.12C88.39 122.12 88 122.06 87.62 121.95C87.24 121.83 86.93 121.68 86.67 121.47L87.12 120.66C87.32 120.83 87.57 120.96 87.86 121.06C88.15 121.16 88.45 121.21 88.76 121.21C89.13 121.21 89.42 121.13 89.63 120.98C89.84 120.83 89.94 120.62 89.94 120.36C89.94 120.1 89.84 119.9 89.65 119.75C89.46 119.6 89.15 119.53 88.72 119.53H88.21V118.82L89.81 116.92L89.95 117.31H86.94V116.44H90.76V117.14L89.16 119.04L88.62 118.72H88.93C89.62 118.72 90.13 118.87 90.48 119.18C90.83 119.49 91 119.88 91 120.36C91 120.67 90.92 120.97 90.76 121.23C90.6 121.5 90.36 121.71 90.03 121.87C89.7 122.03 89.29 122.11 88.79 122.11L88.78 122.12Z" fill="#C43020"/>
<path d="M91.71 123.25L92.17 121.48L92.31 122.07C92.12 122.07 91.97 122.01 91.84 121.9C91.71 121.78 91.65 121.63 91.65 121.43C91.65 121.23 91.71 121.07 91.84 120.95C91.97 120.83 92.12 120.77 92.3 120.77C92.48 120.77 92.64 120.83 92.76 120.95C92.88 121.07 92.94 121.23 92.94 121.43C92.94 121.48 92.94 121.54 92.92 121.6C92.91 121.66 92.89 121.73 92.87 121.81C92.85 121.89 92.81 121.99 92.75 122.11L92.34 123.24H91.69L91.71 123.25Z" fill="#C43020"/>
<path d="M95.87 122.12C95.43 122.12 95.03 122.01 94.67 121.78C94.32 121.56 94.04 121.23 93.83 120.8C93.63 120.37 93.53 119.85 93.53 119.24C93.53 118.63 93.63 118.11 93.83 117.68C94.03 117.25 94.31 116.92 94.67 116.7C95.02 116.48 95.42 116.36 95.87 116.36C96.32 116.36 96.72 116.47 97.07 116.7C97.42 116.92 97.7 117.25 97.91 117.68C98.12 118.11 98.22 118.63 98.22 119.24C98.22 119.85 98.12 120.37 97.91 120.8C97.7 121.23 97.43 121.56 97.07 121.78C96.72 122 96.32 122.12 95.87 122.12ZM95.87 121.22C96.13 121.22 96.36 121.15 96.55 121.01C96.74 120.87 96.89 120.65 97 120.36C97.11 120.07 97.16 119.7 97.16 119.25C97.16 118.8 97.11 118.42 97 118.13C96.89 117.84 96.74 117.62 96.55 117.48C96.36 117.34 96.13 117.27 95.87 117.27C95.61 117.27 95.4 117.34 95.2 117.48C95 117.62 94.85 117.84 94.74 118.13C94.63 118.42 94.58 118.79 94.58 119.25C94.58 119.71 94.63 120.07 94.74 120.36C94.85 120.65 95 120.87 95.2 121.01C95.39 121.15 95.62 121.22 95.87 121.22Z" fill="#C43020"/>
<path d="M101.25 122.12C100.81 122.12 100.41 122.01 100.05 121.78C99.69 121.56 99.42 121.23 99.21 120.8C99.01 120.37 98.91 119.85 98.91 119.24C98.91 118.63 99.01 118.11 99.21 117.68C99.41 117.25 99.69 116.92 100.05 116.7C100.4 116.48 100.8 116.36 101.25 116.36C101.7 116.36 102.1 116.47 102.45 116.7C102.8 116.92 103.08 117.25 103.29 117.68C103.5 118.11 103.6 118.63 103.6 119.24C103.6 119.85 103.5 120.37 103.29 120.8C103.08 121.23 102.81 121.56 102.45 121.78C102.1 122 101.7 122.12 101.25 122.12ZM101.25 121.22C101.51 121.22 101.74 121.15 101.93 121.01C102.12 120.87 102.27 120.65 102.38 120.36C102.49 120.07 102.54 119.7 102.54 119.25C102.54 118.8 102.49 118.42 102.38 118.13C102.27 117.84 102.12 117.62 101.93 117.48C101.74 117.34 101.51 117.27 101.25 117.27C100.99 117.27 100.78 117.34 100.58 117.48C100.39 117.62 100.23 117.84 100.12 118.13C100.01 118.42 99.96 118.79 99.96 119.25C99.96 119.71 100.01 120.07 100.12 120.36C100.23 120.65 100.38 120.87 100.58 121.01C100.78 121.15 101 121.22 101.25 121.22Z" fill="#C43020"/>
<path d="M64.64 123.82V116.14L65.48 116.98H62.96V115.42H66.58V123.82H64.64Z" fill="#C43020"/>
<path d="M68.64 123.82V115.42H74.57V117H70.12L70.56 116.56V123.82H68.64Z" fill="#C43020"/>
<path d="M83.63 131.23C83.24 131.23 82.85 131.17 82.47 131.06C82.09 130.94 81.78 130.79 81.52 130.58L81.97 129.77C82.17 129.94 82.42 130.07 82.71 130.17C83 130.27 83.3 130.32 83.61 130.32C83.98 130.32 84.27 130.24 84.48 130.09C84.69 129.94 84.79 129.73 84.79 129.47C84.79 129.21 84.69 129.01 84.5 128.86C84.31 128.71 84 128.64 83.57 128.64H83.06V127.93L84.66 126.03L84.8 126.42H81.79V125.55H85.61V126.25L84.01 128.15L83.47 127.83H83.78C84.47 127.83 84.98 127.98 85.33 128.29C85.67 128.6 85.85 128.99 85.85 129.47C85.85 129.78 85.77 130.08 85.61 130.34C85.45 130.61 85.21 130.82 84.88 130.98C84.55 131.14 84.14 131.22 83.64 131.22L83.63 131.23Z" fill="#C43020"/>
<path d="M88.25 131.23C87.86 131.23 87.47 131.17 87.09 131.06C86.71 130.94 86.4 130.79 86.14 130.58L86.59 129.77C86.79 129.94 87.04 130.07 87.33 130.17C87.62 130.27 87.92 130.32 88.23 130.32C88.6 130.32 88.89 130.24 89.1 130.09C89.31 129.94 89.41 129.73 89.41 129.47C89.41 129.21 89.31 129.01 89.12 128.86C88.93 128.71 88.62 128.64 88.19 128.64H87.68V127.93L89.28 126.03L89.42 126.42H86.41V125.55H90.23V126.25L88.63 128.15L88.09 127.83H88.4C89.09 127.83 89.6 127.98 89.95 128.29C90.29 128.6 90.47 128.99 90.47 129.47C90.47 129.78 90.39 130.08 90.23 130.34C90.07 130.61 89.83 130.82 89.5 130.98C89.17 131.14 88.76 131.22 88.26 131.22L88.25 131.23Z" fill="#C43020"/>
<path d="M91.18 132.36L91.64 130.59L91.78 131.18C91.59 131.18 91.44 131.12 91.31 131.01C91.19 130.89 91.12 130.74 91.12 130.54C91.12 130.34 91.18 130.18 91.31 130.06C91.44 129.94 91.59 129.88 91.77 129.88C91.95 129.88 92.11 129.94 92.23 130.06C92.35 130.18 92.41 130.34 92.41 130.54C92.41 130.59 92.41 130.65 92.39 130.71C92.38 130.77 92.36 130.84 92.34 130.92C92.32 131 92.28 131.1 92.22 131.22L91.81 132.35H91.16L91.18 132.36Z" fill="#C43020"/>
<path d="M95.34 131.23C94.9 131.23 94.5 131.12 94.14 130.89C93.79 130.67 93.51 130.34 93.3 129.91C93.1 129.48 93 128.96 93 128.35C93 127.74 93.1 127.22 93.3 126.79C93.5 126.36 93.78 126.03 94.14 125.81C94.49 125.59 94.89 125.47 95.34 125.47C95.79 125.47 96.19 125.58 96.54 125.81C96.89 126.03 97.17 126.36 97.38 126.79C97.59 127.22 97.69 127.74 97.69 128.35C97.69 128.96 97.59 129.48 97.38 129.91C97.17 130.34 96.9 130.67 96.54 130.89C96.19 131.11 95.79 131.23 95.34 131.23ZM95.34 130.33C95.6 130.33 95.83 130.26 96.02 130.12C96.21 129.98 96.36 129.76 96.47 129.47C96.58 129.18 96.63 128.81 96.63 128.36C96.63 127.91 96.58 127.53 96.47 127.24C96.36 126.95 96.21 126.73 96.02 126.59C95.83 126.45 95.6 126.38 95.34 126.38C95.08 126.38 94.87 126.45 94.67 126.59C94.47 126.73 94.32 126.95 94.21 127.24C94.1 127.53 94.05 127.9 94.05 128.36C94.05 128.82 94.1 129.18 94.21 129.47C94.32 129.76 94.47 129.98 94.67 130.12C94.86 130.26 95.09 130.33 95.34 130.33Z" fill="#C43020"/>
<path d="M100.72 131.23C100.28 131.23 99.88 131.12 99.52 130.89C99.17 130.67 98.89 130.34 98.68 129.91C98.48 129.48 98.38 128.96 98.38 128.35C98.38 127.74 98.48 127.22 98.68 126.79C98.88 126.36 99.16 126.03 99.52 125.81C99.87 125.59 100.27 125.47 100.72 125.47C101.17 125.47 101.57 125.58 101.92 125.81C102.27 126.03 102.55 126.36 102.76 126.79C102.97 127.22 103.07 127.74 103.07 128.35C103.07 128.96 102.97 129.48 102.76 129.91C102.55 130.34 102.28 130.67 101.92 130.89C101.57 131.11 101.17 131.23 100.72 131.23ZM100.72 130.33C100.98 130.33 101.21 130.26 101.4 130.12C101.59 129.98 101.74 129.76 101.85 129.47C101.96 129.18 102.01 128.81 102.01 128.36C102.01 127.91 101.96 127.53 101.85 127.24C101.74 126.95 101.59 126.73 101.4 126.59C101.21 126.45 100.98 126.38 100.72 126.38C100.46 126.38 100.25 126.45 100.05 126.59C99.85 126.73 99.7 126.95 99.59 127.24C99.48 127.53 99.43 127.9 99.43 128.36C99.43 128.82 99.48 129.18 99.59 129.47C99.7 129.76 99.85 129.98 100.05 130.12C100.24 130.26 100.47 130.33 100.72 130.33Z" fill="#C43020"/>
<path d="M78.59 134.68V102.48" stroke="#C43020" stroke-width="0.71" stroke-miterlimit="10"/>
<path d="M9.96 143.63H0V171.14H9.96V143.63Z" fill="#511F19"/>
<path d="M2.88 141.83H0V171.14H2.88V141.83Z" fill="#511F19"/>
<path d="M9.96 67.2202H0V95.4202H9.96V67.2202Z" fill="#511F19"/>
<path d="M2.88 65.4199H0V97.2199H2.88V65.4199Z" fill="#511F19"/>
<path d="M9.96 0.5H0V19.22H9.96V0.5Z" fill="#511F19"/>
<path d="M2.88 0.5H0V21.14H2.88V0.5Z" fill="#511F19"/>
<path d="M206.04 108.98H188.4V171.14H206.04V108.98Z" fill="#511F19"/>
<path d="M206.04 90.6201H198.96V109.4H206.04V90.6201Z" fill="#511F19"/>
<path d="M206.04 0.5H188.4V59.54H206.04V0.5Z" fill="#511F19"/>
<path d="M206.04 89.0601H203.76V91.8201H206.04V89.0601Z" fill="#511F19"/>
<path d="M206.04 58.3398H203.76V61.0998H206.04V58.3398Z" fill="#511F19"/>
<path d="M206.04 0.5H7.20001V7.58H206.04V0.5Z" fill="#511F19"/>
<path d="M193.92 57.3799H173.76V59.5399H193.92V57.3799Z" fill="#511F19"/>
<path d="M126.36 4.16016H124.08V59.5402H126.36V4.16016Z" fill="#511F19"/>
<path d="M150.96 57.3799H124.08V59.5399H150.96V57.3799Z" fill="#511F19"/>
<path d="M193.86 164.06H6.12V171.14H193.86V164.06Z" fill="#511F19"/>
<path d="M154.32 90.6201H152.04V111.26H154.32V90.6201Z" fill="#511F19"/>
<path d="M191.46 108.98H152.04V111.26H191.46V108.98Z" fill="#511F19"/>
<path d="M190.02 110.12H176.28V166.46H190.02V110.12Z" fill="#511F19"/>
<path d="M126.36 85.2202H8.53003V87.5002H126.36V85.2202Z" fill="#511F19"/>
<path d="M41.16 130.22H37.8V171.14H41.16V130.22Z" fill="#511F19"/>
<path d="M206.04 61.1001H234.06" stroke="#511F19" stroke-width="0.85" stroke-miterlimit="10"/>
<path d="M234.06 61.1001C234.06 76.5701 221.52 89.1201 206.04 89.1201" stroke="#511F19" stroke-width="0.43" stroke-miterlimit="10"/>
<path d="M2.88 21.1201V65.4001" stroke="#511F19" stroke-width="0.43" stroke-miterlimit="10"/>
<path d="M4.54999 19.2202V67.2002" stroke="#511F19" stroke-width="0.43" stroke-miterlimit="10"/>
<path d="M9.96002 19.2202V67.2002" stroke="#511F19" stroke-width="0.43" stroke-miterlimit="10"/>
<path d="M2.88 97.2202V141.83" stroke="#511F19" stroke-width="0.43" stroke-miterlimit="10"/>
<path d="M4.54999 95.4199V143.63" stroke="#511F19" stroke-width="0.43" stroke-miterlimit="10"/>
<path d="M9.96002 95.4199V143.63" stroke="#511F19" stroke-width="0.43" stroke-miterlimit="10"/>
<path d="M38.45 87.5V99.49" stroke="#511F19" stroke-width="0.43" stroke-miterlimit="10"/>
<path d="M39.55 87.5V99.49" stroke="#511F19" stroke-width="0.43" stroke-miterlimit="10"/>
<path d="M40.64 87.5V99.49" stroke="#511F19" stroke-width="0.43" stroke-miterlimit="10"/>
<path d="M38.45 99.4902H40.64" stroke="#511F19" stroke-width="0.43" stroke-miterlimit="10"/>
<path d="M38.45 130.28V119.29" stroke="#511F19" stroke-width="0.43" stroke-miterlimit="10"/>
<path d="M39.55 130.28V119.29" stroke="#511F19" stroke-width="0.43" stroke-miterlimit="10"/>
<path d="M40.64 130.28V119.29" stroke="#511F19" stroke-width="0.43" stroke-miterlimit="10"/>
<path d="M38.45 119.29H40.64" stroke="#511F19" stroke-width="0.43" stroke-miterlimit="10"/>
<path d="M174.22 58.46L153.36 66.93" stroke="#511F19" stroke-width="0.85" stroke-miterlimit="10"/>
<path d="M125.99 59.1001L120.72 73.6201" stroke="#511F19" stroke-width="0.85" stroke-miterlimit="10"/>
<path d="M125.29 86.0401L120.72 79.5601" stroke="#511F19" stroke-width="0.85" stroke-miterlimit="10"/>
<path d="M40.2 117.64H38.85V119.2H40.2V117.64Z" fill="#511F19"/>
<path d="M40.2 99.4902H38.85V101.05H40.2V99.4902Z" fill="#511F19"/>
<path d="M40.21 101.05H56.8" stroke="#511F19" stroke-width="0.85" stroke-miterlimit="10"/>
<path d="M56.8 101.05C56.8 110.21 49.37 117.64 40.21 117.64" stroke="#511F19" stroke-width="0.43" stroke-miterlimit="10"/>
</g>
<defs>
<clipPath id="clip0_2024_4010">
<rect width="234.28" height="170.64" fill="white" transform="translate(0 0.5)"/>
</clipPath>
</defs>
</svg>
