<svg width="236" height="221" viewBox="0 0 236 221" fill="none" xmlns="http://www.w3.org/2000/svg">
<g clip-path="url(#clip0_2024_7497)">
<path d="M136.84 54.25H119.87V71.85H136.84V54.25Z" stroke="#C7C6C5" stroke-width="0.43" stroke-miterlimit="10"/>
<path d="M129.65 64.6099L126.9 61.8599" stroke="#C7C6C5" stroke-width="0.43" stroke-miterlimit="10" stroke-linecap="round"/>
<path d="M129.65 61.8599L126.9 64.6099" stroke="#C7C6C5" stroke-width="0.43" stroke-miterlimit="10" stroke-linecap="round"/>
<path d="M128.27 59.98V66.48" stroke="#C7C6C5" stroke-width="0.43" stroke-miterlimit="10" stroke-linecap="round"/>
<path d="M125.02 63.23H131.52" stroke="#C7C6C5" stroke-width="0.43" stroke-miterlimit="10" stroke-linecap="round"/>
<path d="M204.87 54.24H187.25V71.86H204.87V54.24Z" stroke="#C7C6C5" stroke-width="0.43" stroke-miterlimit="10"/>
<path d="M197.5 67.1901C197.5 65.7401 198.68 64.5701 200.13 64.5701C201.58 64.5701 202.75 65.7401 202.75 67.1901C202.75 68.6401 201.58 69.8101 200.13 69.8101C198.68 69.8101 197.5 68.6301 197.5 67.1901Z" stroke="#C7C6C5" stroke-width="0.43" stroke-miterlimit="10"/>
<path d="M191.53 69.8101C192.977 69.8101 194.15 68.6371 194.15 67.1901C194.15 65.7431 192.977 64.5701 191.53 64.5701C190.083 64.5701 188.91 65.7431 188.91 67.1901C188.91 68.6371 190.083 69.8101 191.53 69.8101Z" stroke="#C7C6C5" stroke-width="0.43" stroke-miterlimit="10"/>
<path d="M197.5 59.2899C197.5 57.8399 198.68 56.6699 200.13 56.6699C201.58 56.6699 202.75 57.8399 202.75 59.2899C202.75 60.7399 201.58 61.9099 200.13 61.9099C198.68 61.9099 197.5 60.7299 197.5 59.2899Z" stroke="#C7C6C5" stroke-width="0.43" stroke-miterlimit="10"/>
<path d="M191.53 61.9099C192.977 61.9099 194.15 60.7369 194.15 59.2899C194.15 57.8429 192.977 56.6699 191.53 56.6699C190.083 56.6699 188.91 57.8429 188.91 59.2899C188.91 60.7369 190.083 61.9099 191.53 61.9099Z" stroke="#C7C6C5" stroke-width="0.43" stroke-miterlimit="10"/>
<path d="M167.18 54.24H149.56V71.86H167.18V54.24Z" stroke="#C7C6C5" stroke-width="0.43" stroke-miterlimit="10"/>
<path d="M167.18 54.24H149.56V71.86H167.18V54.24Z" stroke="#C7C6C5" stroke-width="0.43" stroke-miterlimit="10"/>
<path d="M152.69 70.34C151.79 70.34 151.07 69.61 151.07 68.72V57.4C151.07 56.5 151.8 55.78 152.69 55.78H164.06C164.96 55.78 165.68 56.5 165.68 57.4V68.72C165.68 69.62 164.95 70.34 164.06 70.34H152.69Z" stroke="#C7C6C5" stroke-width="0.43" stroke-miterlimit="10"/>
<path d="M152.69 70.34C151.79 70.34 151.07 69.61 151.07 68.72V57.4C151.07 56.5 151.8 55.78 152.69 55.78H164.06C164.96 55.78 165.68 56.5 165.68 57.4V68.72C165.68 69.62 164.95 70.34 164.06 70.34H152.69Z" stroke="#C7C6C5" stroke-width="0.43" stroke-miterlimit="10"/>
<path d="M163.45 58.92C162.93 58.92 162.5 58.49 162.5 57.97C162.5 57.45 162.93 57.02 163.45 57.02C163.97 57.02 164.4 57.44 164.4 57.97C164.4 58.5 163.98 58.92 163.45 58.92Z" stroke="#C7C6C5" stroke-width="0.43" stroke-miterlimit="10"/>
<path d="M159.09 55.1799H157.66V60.5599H159.09V55.1799Z" stroke="#C7C6C5" stroke-width="0.43" stroke-miterlimit="10"/>
<path d="M228.72 54.24H204.87V71.86H228.72V54.24Z" stroke="#C7C6C5" stroke-width="0.43" stroke-miterlimit="10"/>
<path d="M187.24 54.24H167.18V71.86H187.24V54.24Z" stroke="#C7C6C5" stroke-width="0.43" stroke-miterlimit="10"/>
<path d="M149.56 54.24H136.84V71.86H149.56V54.24Z" stroke="#C7C6C5" stroke-width="0.43" stroke-miterlimit="10"/>
<path d="M228.59 127.92H217.54V178.22H228.59V127.92Z" stroke="#C7C6C5" stroke-width="0.43" stroke-miterlimit="10"/>
<path d="M228.59 127.92H217.54V178.22H228.59V127.92Z" stroke="#C7C6C5" stroke-width="0.43" stroke-miterlimit="10"/>
<path d="M222.76 158.69L219.64 165.6L220.33 165.91L226.12 156.29H226.83C226.83 156.29 227.39 156.26 227.39 155.73V150.42C227.39 149.89 226.83 149.86 226.83 149.86H226.12L220.33 140.24L219.64 140.55L222.76 147.46V158.71V158.69Z" stroke="#C7C6C5" stroke-width="0.43" stroke-miterlimit="10"/>
<path d="M222.76 158.69L219.64 165.6L220.33 165.91L226.12 156.29H226.83C226.83 156.29 227.39 156.26 227.39 155.73V150.42C227.39 149.89 226.83 149.86 226.83 149.86H226.12L220.33 140.24L219.64 140.55L222.76 147.46V158.71V158.69Z" stroke="#C7C6C5" stroke-width="0.43" stroke-miterlimit="10"/>
<path d="M223.7 132.72H222.76V173.41H223.7V132.72Z" stroke="#C7C6C5" stroke-width="0.43" stroke-miterlimit="10"/>
<path d="M223.7 132.72H222.76V173.41H223.7V132.72Z" stroke="#C7C6C5" stroke-width="0.43" stroke-miterlimit="10"/>
<path d="M223.7 144.59C223.7 145.68 224.67 145.59 224.67 146.81V159.34C224.67 160.56 223.7 160.46 223.7 161.56V144.6V144.59Z" stroke="#C7C6C5" stroke-width="0.43" stroke-miterlimit="10"/>
<path d="M223.7 144.59C223.7 145.68 224.67 145.59 224.67 146.81V159.34C224.67 160.56 223.7 160.46 223.7 161.56V144.6V144.59Z" stroke="#C7C6C5" stroke-width="0.43" stroke-miterlimit="10"/>
<path d="M213.87 87.27C213.87 87.27 213.18 86.37 213.18 85.77C213.18 85.38 213.93 84.21 219.07 84.21C224.21 84.21 224.96 85.38 224.96 85.77C224.96 86.6 224.27 87.26 224.27 87.26" stroke="#C7C6C5" stroke-width="0.43" stroke-miterlimit="10"/>
<path d="M224.97 96.41C224.97 96.8 224.65 97.12 224.26 97.12H213.89C213.5 97.12 213.18 96.8 213.18 96.41V88.05C213.18 87.66 213.93 86.49 219.07 86.49C224.21 86.49 224.96 87.66 224.96 88.05V96.42H224.97V96.41Z" stroke="#C7C6C5" stroke-width="0.43" stroke-miterlimit="10"/>
<path d="M185.53 102.32C185.53 102.32 184.41 102.47 183.99 102.89C183.71 103.17 183.42 104.52 187.05 108.16C190.68 111.8 192.04 111.5 192.32 111.22C192.91 110.63 192.89 109.68 192.89 109.68" stroke="#C7C6C5" stroke-width="0.43" stroke-miterlimit="10"/>
<path d="M199.84 103.71C200.12 103.43 200.12 102.99 199.84 102.71L192.51 95.3799C192.23 95.0999 191.79 95.0999 191.51 95.3799L185.6 101.29C185.32 101.57 185.03 102.92 188.66 106.56C192.29 110.2 193.65 109.9 193.93 109.62L199.84 103.7V103.71Z" stroke="#C7C6C5" stroke-width="0.43" stroke-miterlimit="10"/>
<path d="M199.25 87.27C199.25 87.27 198.56 86.37 198.56 85.77C198.56 85.38 199.31 84.21 204.45 84.21C209.59 84.21 210.34 85.38 210.34 85.77C210.34 86.6 209.65 87.26 209.65 87.26" stroke="#C7C6C5" stroke-width="0.43" stroke-miterlimit="10"/>
<path d="M210.34 96.41C210.34 96.8 210.02 97.12 209.63 97.12H199.26C198.87 97.12 198.55 96.8 198.55 96.41V88.05C198.55 87.66 199.3 86.49 204.44 86.49C209.58 86.49 210.33 87.66 210.33 88.05V96.42H210.34V96.41Z" stroke="#C7C6C5" stroke-width="0.43" stroke-miterlimit="10"/>
<path d="M228.59 91.6299H194.94V114.16H228.59V91.6299Z" stroke="#C7C6C5" stroke-width="0.43" stroke-miterlimit="10"/>
<path d="M144.54 130.32H123.5C123.11 130.32 122.79 130.64 122.79 131.03V152.36C122.79 152.75 123.11 153.07 123.5 153.07H125.96C126.35 153.07 126.67 152.75 126.67 152.36V134.19H144.54C144.93 134.19 145.25 133.87 145.25 133.48V131.02C145.25 130.63 144.93 130.31 144.54 130.31" stroke="#C7C6C5" stroke-width="0.43" stroke-miterlimit="10"/>
<path d="M144.54 130.32H123.5C123.11 130.32 122.79 130.64 122.79 131.03V152.36C122.79 152.75 123.11 153.07 123.5 153.07H125.96C126.35 153.07 126.67 152.75 126.67 152.36V134.19H144.54C144.93 134.19 145.25 133.87 145.25 133.48V131.02C145.25 130.63 144.93 130.31 144.54 130.31V130.32Z" stroke="#C7C6C5" stroke-width="0.43" stroke-miterlimit="10"/>
<path d="M144.54 127.57H120.58C120.19 127.57 119.87 127.89 119.87 128.28V152.36C119.87 152.75 120.19 153.07 120.58 153.07H121.91C122.3 153.07 122.79 152.75 122.79 152.36V130.32H144.54C144.93 130.32 145.25 130 145.25 129.61V128.28C145.25 127.89 144.93 127.57 144.54 127.57Z" stroke="#C7C6C5" stroke-width="0.43" stroke-miterlimit="10"/>
<path d="M144.54 127.57H120.58C120.19 127.57 119.87 127.89 119.87 128.28V152.36C119.87 152.75 120.19 153.07 120.58 153.07H121.91C122.3 153.07 122.79 152.75 122.79 152.36V130.32H144.54C144.93 130.32 145.25 130 145.25 129.61V128.28C145.25 127.89 144.93 127.57 144.54 127.57Z" stroke="#C7C6C5" stroke-width="0.43" stroke-miterlimit="10"/>
<path d="M126.67 134.2L123.14 130.65" stroke="#C7C6C5" stroke-width="0.43" stroke-miterlimit="10"/>
<path d="M144.54 134.2H127.38C126.988 134.2 126.67 134.518 126.67 134.91V152.36C126.67 152.752 126.988 153.07 127.38 153.07H144.54C144.932 153.07 145.25 152.752 145.25 152.36V134.91C145.25 134.518 144.932 134.2 144.54 134.2Z" stroke="#C7C6C5" stroke-width="0.43" stroke-miterlimit="10"/>
<path d="M144.54 134.2H127.38C126.988 134.2 126.67 134.518 126.67 134.91V152.36C126.67 152.752 126.988 153.07 127.38 153.07H144.54C144.932 153.07 145.25 152.752 145.25 152.36V134.91C145.25 134.518 144.932 134.2 144.54 134.2Z" stroke="#C7C6C5" stroke-width="0.43" stroke-miterlimit="10"/>
<path d="M144.54 175.82H123.5C123.11 175.82 122.79 175.5 122.79 175.11V153.78C122.79 153.39 123.11 153.07 123.5 153.07H125.96C126.35 153.07 126.67 153.39 126.67 153.78V171.95H144.54C144.93 171.95 145.25 172.27 145.25 172.66V175.12C145.25 175.51 144.93 175.83 144.54 175.83" stroke="#C7C6C5" stroke-width="0.43" stroke-miterlimit="10"/>
<path d="M144.54 175.82H123.5C123.11 175.82 122.79 175.5 122.79 175.11V153.78C122.79 153.39 123.11 153.07 123.5 153.07H125.96C126.35 153.07 126.67 153.39 126.67 153.78V171.95H144.54C144.93 171.95 145.25 172.27 145.25 172.66V175.12C145.25 175.51 144.93 175.83 144.54 175.83V175.82Z" stroke="#C7C6C5" stroke-width="0.43" stroke-miterlimit="10"/>
<path d="M144.54 178.57H120.58C120.19 178.57 119.87 178.25 119.87 177.86V153.78C119.87 153.39 120.19 153.07 120.58 153.07H121.91C122.3 153.07 122.79 153.39 122.79 153.78V175.82H144.54C144.93 175.82 145.25 176.14 145.25 176.53V177.86C145.25 178.25 144.93 178.57 144.54 178.57Z" stroke="#C7C6C5" stroke-width="0.43" stroke-miterlimit="10"/>
<path d="M144.54 178.57H120.58C120.19 178.57 119.87 178.25 119.87 177.86V153.78C119.87 153.39 120.19 153.07 120.58 153.07H121.91C122.3 153.07 122.79 153.39 122.79 153.78V175.82H144.54C144.93 175.82 145.25 176.14 145.25 176.53V177.86C145.25 178.25 144.93 178.57 144.54 178.57Z" stroke="#C7C6C5" stroke-width="0.43" stroke-miterlimit="10"/>
<path d="M126.67 171.94L123.14 175.49" stroke="#C7C6C5" stroke-width="0.43" stroke-miterlimit="10"/>
<path d="M127.37 153.07H144.54C144.93 153.07 145.25 153.39 145.25 153.78V171.24C145.25 171.63 144.93 171.95 144.54 171.95H127.38C126.99 171.95 126.67 171.63 126.67 171.24V153.78C126.67 153.39 126.99 153.07 127.38 153.07H127.37Z" stroke="#C7C6C5" stroke-width="0.43" stroke-miterlimit="10"/>
<path d="M127.37 153.07H144.54C144.93 153.07 145.25 153.39 145.25 153.78V171.24C145.25 171.63 144.93 171.95 144.54 171.95H127.38C126.99 171.95 126.67 171.63 126.67 171.24V153.78C126.67 153.39 126.99 153.07 127.38 153.07H127.37Z" stroke="#C7C6C5" stroke-width="0.43" stroke-miterlimit="10"/>
<path d="M18.23 181.48H7.78999C7.39786 181.48 7.07999 181.798 7.07999 182.19V192.63C7.07999 193.022 7.39786 193.34 7.78999 193.34H18.23C18.6221 193.34 18.94 193.022 18.94 192.63V182.19C18.94 181.798 18.6221 181.48 18.23 181.48Z" stroke="#C7C6C5" stroke-width="0.43" stroke-linecap="round" stroke-linejoin="round"/>
<path d="M18.23 125.16H7.78999C7.39786 125.16 7.07999 125.478 7.07999 125.87V136.31C7.07999 136.702 7.39786 137.02 7.78999 137.02H18.23C18.6221 137.02 18.94 136.702 18.94 136.31V125.87C18.94 125.478 18.6221 125.16 18.23 125.16Z" stroke="#C7C6C5" stroke-width="0.43" stroke-linecap="round" stroke-linejoin="round"/>
<path d="M8.91998 180.56C8.91998 180.56 7.78998 180.59 7.78998 179.43V139.07C7.78998 137.89 8.91998 137.94 8.91998 137.94H58.87C58.87 137.94 60 137.91 60 139.07V179.43C60 180.61 58.87 180.56 58.87 180.56H8.91998Z" stroke="#C7C6C5" stroke-width="0.43" stroke-miterlimit="10"/>
<path d="M10.57 160.1H20.39C20.92 160.1 21.36 160.53 21.36 161.07V177.33C21.36 177.86 20.93 178.29 20.4 178.29H10.58C10.05 178.29 9.60999 177.86 9.60999 177.32V161.07C9.60999 160.54 10.04 160.1 10.58 160.1H10.57Z" stroke="#C7C6C5" stroke-width="0.43" stroke-miterlimit="10"/>
<path d="M10.57 140.21H20.39C20.92 140.21 21.36 140.64 21.36 141.18V157.43C21.36 157.96 20.93 158.4 20.39 158.4H10.57C10.04 158.4 9.60999 157.97 9.60999 157.44V141.18C9.60999 140.65 10.04 140.21 10.58 140.21H10.57Z" stroke="#C7C6C5" stroke-width="0.43" stroke-miterlimit="10"/>
<path d="M22.51 180.56V137.93" stroke="#C7C6C5" stroke-width="0.43" stroke-miterlimit="10"/>
<path d="M13.17 137.93C13.17 138.65 12.32 138.64 12.32 138.64H8.91999C8.82999 138.64 8.66999 138.66 8.57999 138.75C8.50999 138.82 8.48999 138.96 8.48999 139.07V179.43C8.48999 179.58 8.51999 179.68 8.57999 179.74C8.67999 179.83 8.87999 179.85 8.89999 179.85H12.31C12.31 179.85 13.16 179.82 13.16 180.56C13.16 181.3 12.31 181.27 12.31 181.27H8.90999C8.78999 181.27 8.37999 181.25 7.96999 181.03C7.38999 180.72 7.07999 180.15 7.07999 179.43V139.07C7.07999 138.37 7.36999 137.95 7.60999 137.72C8.14999 137.2 8.86999 137.22 8.95999 137.23H12.33C12.33 137.23 13.18 137.21 13.18 137.94L13.17 137.93Z" stroke="#C7C6C5" stroke-width="0.43" stroke-miterlimit="10"/>
<path d="M12.32 180.56H8.91998C8.91998 180.56 7.78998 180.59 7.78998 179.43V139.07C7.78998 137.89 8.91998 137.94 8.91998 137.94H12.32" stroke="#C7C6C5" stroke-width="0.43" stroke-miterlimit="10" stroke-linecap="round"/>
<path d="M117.69 109.56H99.33V167.83H117.69V109.56Z" stroke="#C7C6C5" stroke-width="0.43" stroke-linecap="round" stroke-linejoin="round"/>
<path d="M109.37 137.24C109.37 136.02 107.56 136.03 107.56 137.24C107.56 138.14 108.47 137.9 108.47 138.71" stroke="#C7C6C5" stroke-width="0.43" stroke-linecap="round" stroke-linejoin="round"/>
<path d="M108.47 138.71L114.56 140.76C114.56 140.76 115.12 140.97 115.04 141.59C114.96 142.2 114.39 142.14 114.39 142.14H102.56C102.56 142.14 101.93 142.21 101.85 141.59C101.77 140.98 102.38 140.76 102.38 140.76L108.47 138.71Z" stroke="#C7C6C5" stroke-width="0.43" stroke-linecap="round" stroke-linejoin="round"/>
<path d="M108.47 135.27V110.94" stroke="#C7C6C5" stroke-width="0.43" stroke-linecap="round" stroke-linejoin="round"/>
<path d="M108.47 166.52V143.25" stroke="#C7C6C5" stroke-width="0.43" stroke-linecap="round" stroke-linejoin="round"/>
<path d="M117.69 32.9299H100.13V74.8099H117.69V32.9299Z" stroke="#C7C6C5" stroke-width="0.43" stroke-linecap="round" stroke-linejoin="round"/>
<path d="M109.65 51.8199C109.65 50.5999 107.84 50.6099 107.84 51.8199C107.84 52.7199 108.75 52.4799 108.75 53.2899" stroke="#C7C6C5" stroke-width="0.43" stroke-linecap="round" stroke-linejoin="round"/>
<path d="M108.75 53.29L114.84 55.34C114.84 55.34 115.4 55.55 115.32 56.17C115.24 56.78 114.67 56.72 114.67 56.72H102.84C102.84 56.72 102.21 56.79 102.13 56.17C102.05 55.56 102.66 55.34 102.66 55.34L108.75 53.29Z" stroke="#C7C6C5" stroke-width="0.43" stroke-linecap="round" stroke-linejoin="round"/>
<path d="M108.75 49.85V34.3" stroke="#C7C6C5" stroke-width="0.43" stroke-linecap="round" stroke-linejoin="round"/>
<path d="M108.75 73.4998V57.8298" stroke="#C7C6C5" stroke-width="0.43" stroke-linecap="round" stroke-linejoin="round"/>
<path d="M112.92 167.83H99.33V210.19H112.92V167.83Z" stroke="#C7C6C5" stroke-width="0.43" stroke-linecap="round" stroke-linejoin="round"/>
<path d="M46.38 64.7901C51.81 64.7901 56.22 60.3801 56.22 54.9501C56.22 49.5201 51.81 45.1101 46.38 45.1101H16.93C11.5 45.1101 7.09 49.5201 7.09 54.9501C7.09 60.3801 11.5 64.7901 16.93 64.7901H46.38Z" stroke="#C7C6C5" stroke-width="0.43" stroke-linecap="round" stroke-linejoin="round"/>
<path d="M46.15 62.9302C50.55 62.9302 54.13 59.3502 54.13 54.9502C54.13 50.5502 50.55 46.9702 46.15 46.9702H16.93C12.53 46.9702 8.94998 50.5502 8.94998 54.9502C8.94998 59.3502 12.53 62.9302 16.93 62.9302H46.15Z" stroke="#C7C6C5" stroke-width="0.43" stroke-linecap="round" stroke-linejoin="round"/>
<path d="M14.45 54.9502C14.45 56.9002 16.03 58.4802 17.97 58.4802H43.92C45.87 58.4802 47.44 56.9002 47.44 54.9502C47.44 53.0002 45.86 51.4302 43.92 51.4302H17.97C16.02 51.4302 14.45 53.0102 14.45 54.9502Z" stroke="#C7C6C5" stroke-width="0.43" stroke-linecap="round" stroke-linejoin="round"/>
<path d="M30.03 47.8401C30.03 48.0901 30.44 48.2801 30.95 48.2801C31.46 48.2801 31.87 48.0801 31.87 47.8401C31.87 47.6001 31.46 47.4001 30.95 47.4001C30.44 47.4001 30.03 47.6001 30.03 47.8401Z" stroke="#C7C6C5" stroke-width="0.43" stroke-linecap="round" stroke-linejoin="round"/>
<path d="M41.23 88.95C43.61 88.95 43.61 90.8 43.61 91.33V106.17C43.61 106.7 43.18 107.13 42.64 107.14H32.82C32.29 107.14 31.85 106.71 31.85 106.17V91.33C31.85 90.8 31.85 88.95 34.23 88.95H41.23Z" stroke="#C7C6C5" stroke-width="0.43" stroke-miterlimit="10"/>
<path d="M41.63 103.45C41.63 103.96 41.21 104.38 40.7 104.38H34.77C34.26 104.38 33.84 103.97 33.84 103.45V91.96C33.84 91.45 34.25 91.03 34.77 91.03H40.7C41.21 91.03 41.63 91.44 41.63 91.96V103.45Z" stroke="#C7C6C5" stroke-width="0.43" stroke-miterlimit="10"/>
<path d="M36.21 104.38C36.21 103.53 36.89 102.85 37.74 102.85C38.59 102.85 39.27 103.54 39.27 104.38" stroke="#C7C6C5" stroke-width="0.43" stroke-miterlimit="10"/>
<path d="M7.74 68.71H18.96C19.35 68.71 19.67 69.03 19.67 69.42V90.7C19.67 91.09 19.35 91.41 18.96 91.41H7.74C7.35 91.41 7.03 91.09 7.03 90.7V69.42C7.03 69.03 7.35 68.71 7.74 68.71Z" stroke="#C7C6C5" stroke-width="0.43" stroke-linecap="round" stroke-linejoin="round"/>
<path d="M13.63 89.32C10.97 89.32 8.81 85.16 8.81 80.03C8.81 74.9 10.97 70.74 13.63 70.74C16.29 70.74 18.45 74.9 18.45 80.03C18.45 85.16 16.29 89.32 13.63 89.32Z" stroke="#C7C6C5" stroke-width="0.43" stroke-miterlimit="10"/>
<path d="M13.63 89.32C10.97 89.32 8.81 85.16 8.81 80.03C8.81 74.9 10.97 70.74 13.63 70.74C16.29 70.74 18.45 74.9 18.45 80.03C18.45 85.16 16.29 89.32 13.63 89.32Z" stroke="#C7C6C5" stroke-width="0.43" stroke-linecap="round" stroke-linejoin="round"/>
<path d="M8.57999 77.6799C8.15999 77.6799 7.82999 77.3399 7.82999 76.9299C7.82999 76.5199 8.16999 76.1799 8.57999 76.1799C8.98999 76.1799 9.32999 76.5199 9.32999 76.9299C9.32999 77.3399 8.98999 77.6799 8.57999 77.6799Z" stroke="#C7C6C5" stroke-width="0.43" stroke-miterlimit="10"/>
<path d="M8.57999 77.6799C8.15999 77.6799 7.82999 77.3399 7.82999 76.9299C7.82999 76.5199 8.16999 76.1799 8.57999 76.1799C8.98999 76.1799 9.32999 76.5199 9.32999 76.9299C9.32999 77.3399 8.98999 77.6799 8.57999 77.6799Z" stroke="#C7C6C5" stroke-width="0.43" stroke-linecap="round" stroke-linejoin="round"/>
<path d="M8.57999 83.99C8.15999 83.99 7.82999 83.65 7.82999 83.24C7.82999 82.83 8.16999 82.49 8.57999 82.49C8.98999 82.49 9.32999 82.83 9.32999 83.24C9.32999 83.65 8.98999 83.99 8.57999 83.99Z" stroke="#C7C6C5" stroke-width="0.43" stroke-miterlimit="10"/>
<path d="M8.57999 83.99C8.15999 83.99 7.82999 83.65 7.82999 83.24C7.82999 82.83 8.16999 82.49 8.57999 82.49C8.98999 82.49 9.32999 82.83 9.32999 83.24C9.32999 83.65 8.98999 83.99 8.57999 83.99Z" stroke="#C7C6C5" stroke-width="0.43" stroke-linecap="round" stroke-linejoin="round"/>
<path d="M10.95 80.46C11.19 80.46 11.38 80.26 11.38 80.03C11.38 79.8 11.19 79.6 10.95 79.6L8.62 79.47C8.31 79.47 8.06 79.72 8.06 80.03C8.06 80.34 8.31 80.6 8.62 80.6L10.95 80.47V80.46Z" stroke="#C7C6C5" stroke-width="0.43" stroke-miterlimit="10"/>
<path d="M10.95 80.46C11.19 80.46 11.38 80.26 11.38 80.03C11.38 79.8 11.19 79.6 10.95 79.6L8.62 79.47C8.31 79.47 8.06 79.72 8.06 80.03C8.06 80.34 8.31 80.6 8.62 80.6L10.95 80.47V80.46Z" stroke="#C7C6C5" stroke-width="0.43" stroke-linecap="round" stroke-linejoin="round"/>
<path d="M19.81 91.4399H7.09V107.22H19.81V91.4399Z" stroke="#C7C6C5" stroke-width="0.43" stroke-linecap="round" stroke-linejoin="round"/>
<path d="M9.03 99.39C9.03 96.95 11.01 94.97 13.45 94.97C15.89 94.97 17.87 96.95 17.87 99.39C17.87 101.83 15.89 103.81 13.45 103.81C11.01 103.81 9.03 101.83 9.03 99.39Z" stroke="#C7C6C5" stroke-width="0.43" stroke-linecap="round" stroke-linejoin="round"/>
<path d="M9.03 99.3901C9.03 101.65 10.87 102.96 13.13 102.96C14.94 102.96 16.41 101.49 16.41 99.6801C16.41 98.2301 15.24 97.0601 13.79 97.0601C12.63 97.0601 11.69 98.0001 11.69 99.1601C11.69 100.09 12.44 100.84 13.37 100.84C14.11 100.84 14.71 100.24 14.71 99.5001C14.71 98.9101 14.23 98.4301 13.64 98.4301C13.17 98.4301 12.78 98.8101 12.78 99.2901C12.78 99.6701 13.09 99.9801 13.47 99.9801C13.77 99.9801 14.02 99.7301 14.02 99.4301C14.02 99.1901 13.82 98.9901 13.58 98.9901" stroke="#C7C6C5" stroke-width="0.43" stroke-linecap="round" stroke-linejoin="round"/>
<path d="M12.83 99.39C12.83 99.73 13.11 100.01 13.45 100.01C13.79 100.01 14.07 99.73 14.07 99.39C14.07 99.05 13.79 98.77 13.45 98.77C13.11 98.77 12.83 99.05 12.83 99.39Z" fill="#C7C6C5"/>
<path d="M184.56 132.72V132.02L186.78 129.91C186.97 129.73 187.11 129.58 187.2 129.45C187.29 129.32 187.35 129.19 187.38 129.08C187.41 128.96 187.42 128.86 187.42 128.76C187.42 128.5 187.33 128.3 187.16 128.16C186.98 128.02 186.73 127.95 186.38 127.95C186.11 127.95 185.86 128 185.64 128.09C185.42 128.19 185.23 128.33 185.07 128.53L184.34 127.97C184.56 127.68 184.85 127.45 185.22 127.29C185.59 127.13 186.01 127.05 186.46 127.05C186.87 127.05 187.22 127.12 187.52 127.25C187.82 127.38 188.05 127.57 188.22 127.81C188.38 128.05 188.46 128.34 188.46 128.67C188.46 128.85 188.44 129.03 188.39 129.21C188.34 129.39 188.25 129.58 188.12 129.77C187.99 129.97 187.79 130.19 187.54 130.43L185.63 132.25L185.41 131.86H188.68V132.74H184.55L184.56 132.72Z" fill="#C42F20"/>
<path d="M191.05 132.8C190.66 132.8 190.27 132.74 189.89 132.63C189.51 132.51 189.2 132.36 188.94 132.15L189.39 131.34C189.59 131.51 189.84 131.64 190.13 131.74C190.42 131.84 190.72 131.89 191.03 131.89C191.4 131.89 191.69 131.81 191.9 131.66C192.11 131.51 192.21 131.3 192.21 131.04C192.21 130.78 192.11 130.58 191.92 130.43C191.73 130.28 191.42 130.21 190.99 130.21H190.48V129.5L192.08 127.6L192.22 127.99H189.21V127.12H193.03V127.82L191.43 129.72L190.89 129.4H191.2C191.89 129.4 192.4 129.55 192.75 129.86C193.09 130.17 193.27 130.56 193.27 131.04C193.27 131.35 193.19 131.65 193.03 131.91C192.87 132.18 192.63 132.39 192.3 132.55C191.97 132.71 191.56 132.79 191.06 132.79L191.05 132.8Z" fill="#C42F20"/>
<path d="M193.98 133.92L194.44 132.15L194.58 132.74C194.39 132.74 194.24 132.68 194.11 132.57C193.99 132.45 193.92 132.3 193.92 132.1C193.92 131.9 193.98 131.74 194.11 131.62C194.24 131.5 194.39 131.44 194.57 131.44C194.75 131.44 194.91 131.5 195.03 131.62C195.15 131.74 195.21 131.9 195.21 132.1C195.21 132.15 195.21 132.21 195.19 132.27C195.18 132.33 195.16 132.4 195.14 132.48C195.12 132.56 195.08 132.66 195.02 132.78L194.61 133.91H193.96L193.98 133.92Z" fill="#C42F20"/>
<path d="M197.75 132.8C197.36 132.8 196.97 132.74 196.59 132.63C196.21 132.51 195.9 132.36 195.64 132.15L196.08 131.34C196.28 131.51 196.53 131.64 196.82 131.74C197.11 131.84 197.41 131.89 197.73 131.89C198.1 131.89 198.39 131.81 198.6 131.66C198.81 131.5 198.92 131.3 198.92 131.04C198.92 130.86 198.88 130.71 198.79 130.58C198.7 130.45 198.55 130.34 198.33 130.28C198.11 130.21 197.81 130.18 197.42 130.18H196.07L196.36 127.13H199.65V128H196.75L197.29 127.5L197.07 129.78L196.53 129.29H197.66C198.21 129.29 198.66 129.36 199 129.51C199.34 129.66 199.59 129.86 199.74 130.12C199.9 130.38 199.98 130.67 199.98 131C199.98 131.33 199.9 131.62 199.74 131.9C199.58 132.17 199.34 132.39 199.01 132.56C198.68 132.73 198.27 132.81 197.77 132.81L197.75 132.8Z" fill="#C42F20"/>
<path d="M200.45 132.72V132.02L202.67 129.91C202.86 129.73 203 129.58 203.09 129.45C203.18 129.32 203.24 129.19 203.27 129.08C203.3 128.96 203.31 128.86 203.31 128.76C203.31 128.5 203.22 128.3 203.05 128.16C202.87 128.02 202.62 127.95 202.27 127.95C202 127.95 201.75 128 201.53 128.09C201.31 128.19 201.12 128.33 200.96 128.53L200.23 127.97C200.45 127.68 200.74 127.45 201.11 127.29C201.48 127.13 201.9 127.05 202.35 127.05C202.76 127.05 203.11 127.12 203.41 127.25C203.71 127.38 203.94 127.57 204.11 127.81C204.27 128.05 204.35 128.34 204.35 128.67C204.35 128.85 204.33 129.03 204.28 129.21C204.23 129.39 204.14 129.58 204.01 129.77C203.88 129.97 203.68 130.19 203.43 130.43L201.52 132.25L201.3 131.86H204.57V132.74H200.44L200.45 132.72Z" fill="#C42F20"/>
<path d="M184.55 140.89V140.17L187.31 136.56H188.42L185.7 140.17L185.18 140.01H189.62V140.89H184.55ZM187.62 142.16V140.89L187.65 140.01V138.88H188.63V142.16H187.62Z" fill="#C42F20"/>
<path d="M189.99 142.17V141.47L192.21 139.36C192.4 139.18 192.54 139.03 192.63 138.9C192.72 138.77 192.78 138.64 192.81 138.53C192.84 138.41 192.85 138.31 192.85 138.21C192.85 137.95 192.76 137.75 192.59 137.61C192.41 137.47 192.16 137.4 191.81 137.4C191.54 137.4 191.29 137.45 191.07 137.54C190.85 137.64 190.66 137.78 190.5 137.98L189.77 137.42C189.99 137.13 190.28 136.9 190.65 136.74C191.02 136.58 191.44 136.5 191.89 136.5C192.3 136.5 192.65 136.57 192.95 136.7C193.25 136.83 193.48 137.02 193.65 137.26C193.81 137.5 193.89 137.79 193.89 138.12C193.89 138.3 193.87 138.48 193.82 138.66C193.77 138.84 193.68 139.03 193.55 139.22C193.42 139.42 193.22 139.64 192.97 139.88L191.06 141.7L190.84 141.31H194.11V142.19H189.98L189.99 142.17Z" fill="#C42F20"/>
<path d="M194.84 143.37L195.3 141.6L195.44 142.19C195.25 142.19 195.1 142.13 194.97 142.02C194.85 141.9 194.78 141.75 194.78 141.55C194.78 141.35 194.84 141.19 194.97 141.07C195.1 140.95 195.25 140.89 195.43 140.89C195.61 140.89 195.77 140.95 195.89 141.07C196.01 141.19 196.07 141.35 196.07 141.55C196.07 141.6 196.07 141.66 196.05 141.72C196.04 141.78 196.02 141.85 196 141.93C195.98 142.01 195.94 142.11 195.88 142.23L195.47 143.36H194.82L194.84 143.37Z" fill="#C42F20"/>
<path d="M197.57 142.17L199.88 136.99L200.15 137.45H196.97L197.47 136.95V138.41H196.5V136.58H200.85V137.28L198.67 142.18H197.56L197.57 142.17Z" fill="#C42F20"/>
<path d="M200.9 140.89V140.17L203.66 136.56H204.77L202.05 140.17L201.53 140.01H205.97V140.89H200.9ZM203.97 142.16V140.89L204 140.01V138.88H204.98V142.16H203.97Z" fill="#C42F20"/>
<path d="M154.61 143.94V136.26L155.45 137.1H152.93V135.54H156.55V143.94H154.61Z" fill="#C42F20"/>
<path d="M158.6 143.94V135.54H165.38V137.09H160.53V138.82H162.86C163.88 138.82 164.65 139.03 165.18 139.46C165.71 139.88 165.98 140.5 165.98 141.31C165.98 142.12 165.69 142.79 165.09 143.25C164.5 143.71 163.66 143.95 162.58 143.95H158.6V143.94ZM160.53 142.5H162.47C162.97 142.5 163.35 142.4 163.61 142.21C163.87 142.01 164.01 141.73 164.01 141.35C164.01 140.61 163.5 140.25 162.47 140.25H160.53V142.51V142.5Z" fill="#C42F20"/>
<path d="M167.03 141.32V139.82H170.43V141.32H167.03Z" fill="#C42F20"/>
<path d="M175.31 144.09C174.54 144.09 173.88 143.93 173.31 143.61C172.75 143.29 172.31 142.82 172.01 142.21C171.71 141.59 171.55 140.83 171.55 139.93C171.55 138.96 171.73 138.14 172.1 137.47C172.46 136.8 172.97 136.29 173.61 135.93C174.25 135.58 175 135.4 175.84 135.4C176.29 135.4 176.72 135.45 177.12 135.54C177.53 135.64 177.88 135.78 178.18 135.97L177.46 137.4C177.23 137.24 176.98 137.13 176.72 137.07C176.46 137.01 176.18 136.98 175.89 136.98C175.16 136.98 174.59 137.2 174.16 137.64C173.74 138.08 173.53 138.73 173.53 139.6C173.53 139.74 173.53 139.9 173.53 140.08C173.53 140.26 173.56 140.43 173.6 140.61L173.06 140.11C173.21 139.8 173.41 139.54 173.65 139.32C173.89 139.1 174.18 138.95 174.51 138.84C174.84 138.73 175.21 138.68 175.61 138.68C176.15 138.68 176.64 138.79 177.07 139C177.5 139.22 177.85 139.52 178.11 139.91C178.37 140.3 178.5 140.76 178.5 141.29C178.5 141.86 178.36 142.35 178.07 142.77C177.79 143.19 177.41 143.51 176.93 143.74C176.45 143.97 175.92 144.08 175.32 144.08L175.31 144.09ZM175.2 142.64C175.47 142.64 175.71 142.59 175.93 142.49C176.14 142.39 176.31 142.24 176.43 142.05C176.55 141.86 176.61 141.64 176.61 141.39C176.61 141.01 176.48 140.7 176.22 140.47C175.96 140.24 175.61 140.13 175.18 140.13C174.89 140.13 174.64 140.18 174.42 140.29C174.2 140.4 174.03 140.55 173.91 140.73C173.79 140.92 173.72 141.14 173.72 141.38C173.72 141.62 173.78 141.83 173.9 142.02C174.02 142.21 174.19 142.36 174.4 142.46C174.62 142.57 174.88 142.62 175.19 142.62L175.2 142.64Z" fill="#C42F20"/>
<path d="M184.55 150V149.28L187.31 145.67H188.42L185.7 149.28L185.18 149.12H189.62V150H184.55ZM187.62 151.27V150L187.65 149.12V147.99H188.63V151.27H187.62Z" fill="#C42F20"/>
<path d="M189.99 151.27V150.57L192.21 148.46C192.4 148.28 192.54 148.13 192.63 148C192.72 147.87 192.78 147.74 192.81 147.63C192.84 147.51 192.85 147.41 192.85 147.31C192.85 147.05 192.76 146.85 192.59 146.71C192.41 146.57 192.16 146.5 191.81 146.5C191.54 146.5 191.29 146.55 191.07 146.64C190.85 146.74 190.66 146.88 190.5 147.08L189.77 146.52C189.99 146.23 190.28 146 190.65 145.84C191.02 145.68 191.44 145.6 191.89 145.6C192.3 145.6 192.65 145.67 192.95 145.8C193.25 145.93 193.48 146.12 193.65 146.36C193.81 146.6 193.89 146.89 193.89 147.22C193.89 147.4 193.87 147.58 193.82 147.76C193.77 147.94 193.68 148.13 193.55 148.32C193.42 148.52 193.22 148.74 192.97 148.98L191.06 150.8L190.84 150.41H194.11V151.29H189.98L189.99 151.27Z" fill="#C42F20"/>
<path d="M194.84 152.48L195.3 150.71L195.44 151.3C195.25 151.3 195.1 151.24 194.97 151.13C194.85 151.01 194.78 150.86 194.78 150.66C194.78 150.46 194.84 150.3 194.97 150.18C195.1 150.06 195.25 150 195.43 150C195.61 150 195.77 150.06 195.89 150.18C196.01 150.3 196.07 150.46 196.07 150.66C196.07 150.71 196.07 150.77 196.05 150.83C196.04 150.89 196.02 150.96 196 151.04C195.98 151.12 195.94 151.22 195.88 151.34L195.47 152.47H194.82L194.84 152.48Z" fill="#C42F20"/>
<path d="M197.57 151.27L199.88 146.09L200.15 146.55H196.97L197.47 146.05V147.51H196.5V145.68H200.85V146.38L198.67 151.28H197.56L197.57 151.27Z" fill="#C42F20"/>
<path d="M200.9 150V149.28L203.66 145.67H204.77L202.05 149.28L201.53 149.12H205.97V150H200.9ZM203.97 151.27V150L204 149.12V147.99H204.98V151.27H203.97Z" fill="#C42F20"/>
<path d="M181.27 154.81V122.61" stroke="#C42F20" stroke-miterlimit="10"/>
<path d="M169.73 199.18C169.34 199.18 168.95 199.12 168.57 199.01C168.19 198.89 167.88 198.74 167.62 198.53L168.07 197.72C168.27 197.89 168.52 198.02 168.81 198.12C169.1 198.22 169.4 198.27 169.71 198.27C170.08 198.27 170.37 198.19 170.58 198.04C170.79 197.89 170.89 197.68 170.89 197.42C170.89 197.16 170.79 196.96 170.6 196.81C170.41 196.66 170.1 196.59 169.67 196.59H169.16V195.88L170.76 193.98L170.9 194.37H167.89V193.5H171.71V194.2L170.11 196.1L169.57 195.78H169.88C170.57 195.78 171.08 195.93 171.43 196.24C171.77 196.55 171.95 196.94 171.95 197.42C171.95 197.73 171.87 198.03 171.71 198.29C171.55 198.55 171.31 198.77 170.98 198.93C170.65 199.09 170.24 199.17 169.74 199.17L169.73 199.18Z" fill="#13110C"/>
<path d="M172.67 200.3L173.13 198.53L173.27 199.12C173.08 199.12 172.93 199.06 172.8 198.95C172.68 198.83 172.61 198.68 172.61 198.48C172.61 198.28 172.67 198.12 172.8 198C172.93 197.88 173.08 197.82 173.26 197.82C173.44 197.82 173.6 197.88 173.72 198C173.84 198.12 173.9 198.28 173.9 198.48C173.9 198.53 173.9 198.59 173.88 198.65C173.88 198.71 173.85 198.78 173.83 198.86C173.81 198.94 173.77 199.04 173.71 199.16L173.3 200.29H172.65L172.67 200.3Z" fill="#13110C"/>
<path d="M176.91 199.18C176.4 199.18 175.97 199.07 175.61 198.86C175.25 198.64 174.97 198.33 174.78 197.92C174.59 197.51 174.49 197 174.49 196.4C174.49 195.76 174.61 195.22 174.84 194.78C175.07 194.34 175.39 194 175.81 193.77C176.22 193.54 176.7 193.43 177.24 193.43C177.52 193.43 177.79 193.46 178.05 193.52C178.31 193.58 178.53 193.67 178.71 193.79L178.33 194.57C178.18 194.47 178.01 194.4 177.83 194.36C177.65 194.32 177.46 194.3 177.27 194.3C176.74 194.3 176.32 194.46 176.01 194.79C175.7 195.12 175.55 195.6 175.55 196.23C175.55 196.33 175.55 196.45 175.55 196.59C175.55 196.73 175.57 196.86 175.61 197L175.29 196.65C175.39 196.43 175.52 196.25 175.69 196.1C175.86 195.95 176.06 195.84 176.29 195.77C176.52 195.69 176.77 195.66 177.05 195.66C177.42 195.66 177.75 195.73 178.03 195.87C178.32 196.01 178.55 196.21 178.72 196.47C178.89 196.73 178.98 197.03 178.98 197.38C178.98 197.75 178.89 198.07 178.71 198.34C178.53 198.61 178.28 198.82 177.97 198.97C177.66 199.12 177.31 199.19 176.93 199.19L176.91 199.18ZM176.86 198.36C177.07 198.36 177.26 198.32 177.43 198.24C177.6 198.16 177.72 198.05 177.82 197.91C177.91 197.77 177.96 197.6 177.96 197.41C177.96 197.12 177.86 196.89 177.66 196.71C177.46 196.53 177.19 196.45 176.84 196.45C176.62 196.45 176.42 196.49 176.25 196.57C176.08 196.65 175.95 196.77 175.85 196.91C175.75 197.05 175.7 197.22 175.7 197.41C175.7 197.58 175.74 197.74 175.83 197.88C175.92 198.02 176.05 198.14 176.23 198.22C176.4 198.31 176.61 198.35 176.86 198.35V198.36Z" fill="#13110C"/>
<path d="M181.39 193.42C181.9 193.42 182.34 193.53 182.7 193.74C183.06 193.96 183.34 194.27 183.53 194.68C183.72 195.09 183.82 195.6 183.82 196.2C183.82 196.84 183.7 197.38 183.47 197.82C183.24 198.26 182.92 198.6 182.51 198.83C182.1 199.06 181.62 199.17 181.08 199.17C180.8 199.17 180.53 199.14 180.27 199.08C180.01 199.02 179.79 198.93 179.61 198.81L179.99 198.03C180.15 198.13 180.31 198.2 180.49 198.24C180.67 198.28 180.86 198.3 181.05 198.3C181.58 198.3 182 198.14 182.31 197.81C182.62 197.48 182.77 197.01 182.77 196.37C182.77 196.27 182.77 196.15 182.77 196.01C182.77 195.87 182.75 195.74 182.71 195.6L183.03 195.95C182.94 196.17 182.81 196.35 182.64 196.5C182.47 196.65 182.27 196.76 182.04 196.83C181.81 196.9 181.56 196.94 181.28 196.94C180.92 196.94 180.59 196.87 180.3 196.73C180.01 196.59 179.78 196.39 179.61 196.13C179.44 195.87 179.35 195.57 179.35 195.22C179.35 194.85 179.44 194.53 179.62 194.26C179.8 193.99 180.05 193.78 180.36 193.63C180.67 193.48 181.02 193.41 181.4 193.41L181.39 193.42ZM181.45 194.24C181.24 194.24 181.05 194.28 180.88 194.36C180.71 194.44 180.59 194.55 180.49 194.69C180.4 194.83 180.35 195 180.35 195.2C180.35 195.49 180.45 195.73 180.65 195.9C180.85 196.07 181.12 196.16 181.47 196.16C181.69 196.16 181.89 196.12 182.06 196.04C182.23 195.96 182.36 195.84 182.46 195.7C182.56 195.56 182.6 195.39 182.6 195.21C182.6 195.03 182.55 194.88 182.46 194.73C182.37 194.59 182.24 194.48 182.07 194.39C181.9 194.31 181.69 194.26 181.44 194.26L181.45 194.24Z" fill="#13110C"/>
<path d="M70.95 161.39V156.19L71.41 156.66H69.77V155.79H71.99V161.39H70.95Z" fill="#13110C"/>
<path d="M74.86 161.47C74.47 161.47 74.08 161.41 73.7 161.3C73.32 161.18 73.01 161.03 72.75 160.82L73.2 160.01C73.4 160.18 73.65 160.31 73.94 160.41C74.23 160.51 74.53 160.56 74.84 160.56C75.21 160.56 75.5 160.48 75.71 160.33C75.92 160.18 76.02 159.97 76.02 159.71C76.02 159.45 75.92 159.25 75.73 159.1C75.54 158.95 75.23 158.88 74.8 158.88H74.29V158.17L75.89 156.27L76.03 156.66H73.02V155.79H76.84V156.49L75.24 158.39L74.7 158.07H75.01C75.7 158.07 76.21 158.22 76.56 158.53C76.91 158.84 77.08 159.23 77.08 159.71C77.08 160.02 77 160.32 76.84 160.58C76.68 160.85 76.44 161.06 76.11 161.22C75.78 161.38 75.37 161.46 74.87 161.46L74.86 161.47Z" fill="#13110C"/>
<path d="M77.8 162.59L78.26 160.82L78.4 161.41C78.21 161.41 78.06 161.35 77.93 161.24C77.8 161.12 77.74 160.97 77.74 160.77C77.74 160.57 77.8 160.41 77.93 160.29C78.05 160.17 78.21 160.11 78.39 160.11C78.57 160.11 78.73 160.17 78.85 160.29C78.97 160.41 79.03 160.57 79.03 160.77C79.03 160.82 79.03 160.88 79.01 160.94C79 161 78.98 161.07 78.96 161.15C78.94 161.23 78.9 161.33 78.84 161.45L78.43 162.58H77.78L77.8 162.59Z" fill="#13110C"/>
<path d="M79.59 160.11V159.39L82.35 155.78H83.46L80.74 159.39L80.22 159.23H84.66V160.11H79.59ZM82.66 161.38V160.11L82.69 159.23V158.1H83.67V161.38H82.66Z" fill="#13110C"/>
<path d="M87.43 161.47C86.97 161.47 86.56 161.4 86.22 161.26C85.88 161.12 85.61 160.93 85.43 160.67C85.24 160.42 85.15 160.12 85.15 159.78C85.15 159.44 85.24 159.15 85.42 158.92C85.6 158.68 85.86 158.51 86.2 158.38C86.54 158.25 86.95 158.2 87.42 158.2C87.89 158.2 88.3 158.26 88.65 158.38C88.99 158.5 89.26 158.68 89.44 158.92C89.62 159.16 89.72 159.44 89.72 159.78C89.72 160.12 89.63 160.42 89.44 160.67C89.25 160.92 88.98 161.12 88.64 161.26C88.3 161.4 87.89 161.47 87.43 161.47ZM87.43 158.74C87 158.74 86.63 158.68 86.32 158.57C86.01 158.46 85.77 158.29 85.61 158.07C85.44 157.85 85.36 157.58 85.36 157.27C85.36 156.96 85.45 156.67 85.62 156.44C85.79 156.21 86.04 156.03 86.35 155.9C86.66 155.77 87.03 155.71 87.44 155.71C87.85 155.71 88.22 155.77 88.54 155.9C88.86 156.03 89.1 156.21 89.28 156.44C89.46 156.67 89.54 156.95 89.54 157.27C89.54 157.59 89.46 157.85 89.29 158.07C89.12 158.29 88.88 158.46 88.57 158.57C88.26 158.69 87.88 158.74 87.45 158.74H87.43ZM87.43 160.65C87.81 160.65 88.12 160.57 88.34 160.41C88.56 160.25 88.68 160.03 88.68 159.75C88.68 159.47 88.57 159.25 88.34 159.09C88.12 158.93 87.81 158.85 87.43 158.85C87.05 158.85 86.74 158.93 86.53 159.09C86.32 159.25 86.2 159.47 86.2 159.75C86.2 160.03 86.31 160.25 86.53 160.41C86.75 160.57 87.05 160.65 87.43 160.65ZM87.43 158.1C87.76 158.1 88.02 158.03 88.21 157.89C88.4 157.75 88.5 157.56 88.5 157.32C88.5 157.08 88.4 156.87 88.2 156.74C88 156.61 87.74 156.53 87.42 156.53C87.1 156.53 86.84 156.6 86.65 156.74C86.46 156.88 86.36 157.07 86.36 157.32C86.36 157.57 86.45 157.75 86.64 157.89C86.83 158.03 87.09 158.1 87.41 158.1H87.43Z" fill="#13110C"/>
<path d="M74.3 63.43C73.91 63.43 73.52 63.37 73.14 63.26C72.76 63.14 72.45 62.99 72.19 62.78L72.63 61.97C72.83 62.14 73.08 62.27 73.37 62.37C73.66 62.47 73.96 62.52 74.28 62.52C74.65 62.52 74.94 62.44 75.15 62.29C75.36 62.13 75.47 61.93 75.47 61.67C75.47 61.49 75.43 61.34 75.34 61.21C75.25 61.08 75.1 60.97 74.88 60.91C74.66 60.85 74.36 60.81 73.97 60.81H72.62L72.91 57.76H76.2V58.63H73.3L73.84 58.13L73.62 60.41L73.08 59.92H74.21C74.76 59.92 75.21 59.99 75.55 60.14C75.89 60.29 76.14 60.49 76.29 60.75C76.45 61.01 76.53 61.3 76.53 61.63C76.53 61.96 76.45 62.25 76.29 62.53C76.13 62.8 75.89 63.02 75.56 63.19C75.23 63.36 74.82 63.44 74.32 63.44L74.3 63.43Z" fill="#13110C"/>
<path d="M77.15 64.5498L77.61 62.7798L77.75 63.3698C77.56 63.3698 77.41 63.3098 77.28 63.1998C77.15 63.0798 77.09 62.9298 77.09 62.7298C77.09 62.5298 77.15 62.3698 77.28 62.2498C77.4 62.1298 77.56 62.0698 77.74 62.0698C77.92 62.0698 78.08 62.1298 78.2 62.2498C78.32 62.3698 78.38 62.5298 78.38 62.7298C78.38 62.7798 78.38 62.8398 78.36 62.8998C78.35 62.9598 78.33 63.0298 78.31 63.1098C78.29 63.1898 78.25 63.2898 78.19 63.4098L77.78 64.5398H77.13L77.15 64.5498Z" fill="#13110C"/>
<path d="M79.84 63.35V58.15L80.3 58.62H78.66V57.75H80.88V63.35H79.84Z" fill="#13110C"/>
<path d="M83.88 57.6699C84.39 57.6699 84.83 57.7799 85.19 57.9899C85.55 58.2099 85.83 58.5199 86.02 58.9299C86.21 59.3399 86.31 59.8499 86.31 60.4499C86.31 61.0899 86.19 61.6299 85.96 62.0699C85.73 62.5099 85.41 62.8499 85 63.0799C84.59 63.3099 84.11 63.4199 83.57 63.4199C83.29 63.4199 83.02 63.3899 82.76 63.3299C82.5 63.2699 82.28 63.1799 82.1 63.0599L82.48 62.2799C82.64 62.3799 82.8 62.4499 82.98 62.4899C83.16 62.5299 83.35 62.5499 83.54 62.5499C84.07 62.5499 84.49 62.3899 84.8 62.0599C85.11 61.7299 85.26 61.2599 85.26 60.6199C85.26 60.5199 85.26 60.3999 85.26 60.2599C85.26 60.1199 85.24 59.9899 85.2 59.8499L85.52 60.1999C85.43 60.4199 85.3 60.5999 85.13 60.7499C84.96 60.8999 84.76 61.0099 84.53 61.0799C84.3 61.1499 84.05 61.1899 83.77 61.1899C83.41 61.1899 83.08 61.1199 82.79 60.9799C82.5 60.8399 82.27 60.6399 82.1 60.3799C81.93 60.1199 81.84 59.8199 81.84 59.4699C81.84 59.0999 81.93 58.7799 82.11 58.5099C82.29 58.2399 82.54 58.0299 82.85 57.8799C83.16 57.7299 83.51 57.6599 83.89 57.6599L83.88 57.6699ZM83.94 58.4899C83.73 58.4899 83.54 58.5299 83.37 58.6099C83.2 58.6899 83.08 58.7999 82.98 58.9399C82.89 59.0799 82.84 59.2499 82.84 59.4499C82.84 59.7399 82.94 59.9799 83.14 60.1499C83.34 60.3199 83.61 60.4099 83.96 60.4099C84.18 60.4099 84.38 60.3699 84.55 60.2899C84.72 60.2099 84.85 60.0899 84.95 59.9499C85.05 59.7999 85.09 59.6399 85.09 59.4599C85.09 59.2799 85.05 59.1299 84.95 58.9799C84.86 58.8399 84.73 58.7299 84.56 58.6399C84.39 58.5599 84.18 58.5099 83.93 58.5099L83.94 58.4899Z" fill="#13110C"/>
<path d="M30.31 79.88C29.92 79.88 29.53 79.82 29.15 79.71C28.77 79.59 28.46 79.44 28.2 79.23L28.65 78.42C28.85 78.59 29.1 78.72 29.39 78.82C29.68 78.92 29.98 78.97 30.29 78.97C30.66 78.97 30.95 78.89 31.16 78.74C31.37 78.59 31.47 78.38 31.47 78.12C31.47 77.86 31.37 77.66 31.18 77.51C30.99 77.36 30.68 77.29 30.25 77.29H29.74V76.58L31.34 74.68L31.48 75.07H28.47V74.2H32.29V74.9L30.69 76.8L30.15 76.48H30.46C31.15 76.48 31.66 76.63 32.01 76.94C32.35 77.25 32.53 77.64 32.53 78.12C32.53 78.43 32.45 78.73 32.29 78.99C32.13 79.25 31.89 79.47 31.56 79.63C31.23 79.79 30.82 79.87 30.32 79.87L30.31 79.88Z" fill="#13110C"/>
<path d="M33.25 80.9998L33.71 79.2298L33.85 79.8198C33.66 79.8198 33.51 79.7598 33.38 79.6498C33.26 79.5298 33.19 79.3798 33.19 79.1798C33.19 78.9798 33.25 78.8198 33.38 78.6998C33.51 78.5798 33.66 78.5198 33.84 78.5198C34.02 78.5198 34.18 78.5798 34.3 78.6998C34.42 78.8198 34.48 78.9798 34.48 79.1798C34.48 79.2298 34.48 79.2898 34.46 79.3498C34.46 79.4098 34.43 79.4798 34.41 79.5598C34.39 79.6398 34.35 79.7398 34.29 79.8598L33.88 80.9898H33.23L33.25 80.9998Z" fill="#13110C"/>
<path d="M37.49 79.8799C36.98 79.8799 36.55 79.7699 36.19 79.5599C35.83 79.3399 35.55 79.0299 35.36 78.6199C35.17 78.2099 35.07 77.6999 35.07 77.0999C35.07 76.4599 35.19 75.9199 35.42 75.4799C35.65 75.0399 35.97 74.6999 36.39 74.4699C36.8 74.2399 37.28 74.1299 37.82 74.1299C38.1 74.1299 38.37 74.1599 38.63 74.2199C38.89 74.2799 39.11 74.3699 39.29 74.4899L38.91 75.2699C38.76 75.1699 38.59 75.0999 38.41 75.0599C38.23 75.0199 38.04 74.9999 37.85 74.9999C37.32 74.9999 36.9 75.1599 36.59 75.4899C36.28 75.8199 36.13 76.2999 36.13 76.9299C36.13 77.0299 36.13 77.1499 36.13 77.2899C36.13 77.4299 36.15 77.5599 36.19 77.6999L35.87 77.3499C35.97 77.1299 36.1 76.9499 36.27 76.7999C36.44 76.6499 36.64 76.5399 36.87 76.4699C37.1 76.3899 37.35 76.3599 37.63 76.3599C38 76.3599 38.33 76.4299 38.61 76.5699C38.9 76.7099 39.13 76.9099 39.3 77.1699C39.47 77.4299 39.56 77.7299 39.56 78.0799C39.56 78.4499 39.47 78.7699 39.29 79.0399C39.11 79.3099 38.86 79.5199 38.55 79.6699C38.24 79.8199 37.89 79.8899 37.51 79.8899L37.49 79.8799ZM37.44 79.0599C37.65 79.0599 37.84 79.0199 38.01 78.9399C38.18 78.8599 38.3 78.7499 38.4 78.6099C38.49 78.4699 38.54 78.2999 38.54 78.1099C38.54 77.8199 38.44 77.5899 38.24 77.4099C38.04 77.2299 37.77 77.1499 37.42 77.1499C37.2 77.1499 37 77.1899 36.83 77.2699C36.66 77.3499 36.53 77.4699 36.43 77.6099C36.33 77.7499 36.28 77.9199 36.28 78.1099C36.28 78.2799 36.32 78.4399 36.41 78.5799C36.5 78.7199 36.63 78.8399 36.81 78.9199C36.98 79.0099 37.19 79.0499 37.44 79.0499V79.0599Z" fill="#13110C"/>
<path d="M40.98 79.8L43.29 74.62L43.56 75.08H40.38L40.88 74.58V76.04H39.91V74.21H44.26V74.91L42.08 79.81H40.97L40.98 79.8Z" fill="#13110C"/>
<path d="M138.09 98.64V93.44L138.55 93.91H136.91V93.04H139.13V98.64H138.09Z" fill="#13110C"/>
<path d="M142.66 98.72C142.15 98.72 141.72 98.61 141.36 98.4C141 98.18 140.72 97.87 140.53 97.46C140.34 97.05 140.24 96.54 140.24 95.94C140.24 95.3 140.36 94.76 140.59 94.32C140.82 93.88 141.14 93.54 141.56 93.31C141.98 93.08 142.45 92.97 142.99 92.97C143.27 92.97 143.54 93 143.8 93.06C144.06 93.12 144.28 93.21 144.46 93.33L144.08 94.11C143.92 94.01 143.76 93.94 143.58 93.9C143.4 93.86 143.21 93.84 143.02 93.84C142.49 93.84 142.07 94 141.76 94.33C141.45 94.66 141.3 95.14 141.3 95.77C141.3 95.87 141.3 95.99 141.3 96.13C141.3 96.27 141.32 96.4 141.36 96.54L141.04 96.19C141.14 95.97 141.27 95.79 141.44 95.64C141.61 95.49 141.81 95.38 142.04 95.31C142.27 95.23 142.52 95.2 142.8 95.2C143.17 95.2 143.5 95.27 143.78 95.41C144.07 95.55 144.3 95.75 144.47 96.01C144.64 96.27 144.73 96.57 144.73 96.92C144.73 97.29 144.64 97.61 144.46 97.88C144.28 98.15 144.03 98.36 143.72 98.51C143.41 98.66 143.06 98.73 142.68 98.73L142.66 98.72ZM142.6 97.9C142.81 97.9 143 97.86 143.17 97.78C143.34 97.7 143.46 97.59 143.56 97.45C143.65 97.31 143.7 97.14 143.7 96.95C143.7 96.66 143.6 96.43 143.4 96.25C143.2 96.08 142.92 95.99 142.58 95.99C142.36 95.99 142.16 96.03 141.99 96.11C141.82 96.19 141.69 96.31 141.59 96.45C141.49 96.59 141.44 96.76 141.44 96.95C141.44 97.12 141.48 97.28 141.58 97.42C141.68 97.56 141.8 97.68 141.98 97.76C142.15 97.85 142.36 97.89 142.61 97.89L142.6 97.9Z" fill="#13110C"/>
<path d="M145.38 99.8399L145.84 98.0699L145.98 98.6599C145.79 98.6599 145.64 98.5999 145.51 98.4899C145.39 98.3699 145.32 98.2199 145.32 98.0199C145.32 97.8199 145.38 97.6599 145.51 97.5399C145.64 97.4199 145.79 97.3599 145.97 97.3599C146.15 97.3599 146.31 97.4199 146.43 97.5399C146.55 97.6599 146.61 97.8199 146.61 98.0199C146.61 98.0699 146.61 98.1299 146.59 98.1899C146.58 98.2499 146.56 98.3199 146.54 98.3999C146.52 98.4799 146.48 98.5799 146.42 98.6999L146.01 99.8299H145.36L145.38 99.8399Z" fill="#13110C"/>
<path d="M148.1 98.64L150.41 93.46L150.68 93.92H147.5L148 93.42V94.88H147.03V93.05H151.38V93.75L149.2 98.65H148.09L148.1 98.64Z" fill="#13110C"/>
<path d="M153.01 98.64V93.44L153.47 93.91H151.83V93.04H154.05V98.64H153.01Z" fill="#13110C"/>
<path d="M235.79 210.25H206.51V217.24H235.79V210.25Z" fill="#511F19"/>
<path d="M235.8 217.24H204.72V220.09H235.8V217.24Z" fill="#511F19"/>
<path d="M138.71 210.25H90.73V217.24H138.71V210.25Z" fill="#511F19"/>
<path d="M140.63 217.24H88.93V220.09H140.63V217.24Z" fill="#511F19"/>
<path d="M23.04 210.25H0V217.24H23.04V210.25Z" fill="#511F19"/>
<path d="M24.84 217.24H0V220.09H24.84V217.24Z" fill="#511F19"/>
<path d="M7.08 25.96H0V220.09H7.08V25.96Z" fill="#511F19"/>
<path d="M58.43 30.8H4.81V45.1101H58.43V30.8Z" fill="#511F19"/>
<path d="M63.47 25.96H5.84V33.01H63.47V25.96Z" fill="#511F19"/>
<path d="M233.04 25.96H94.54V33.01H233.04V25.96Z" fill="#511F19"/>
<path d="M235.75 25.96H228.72V220.09H235.75V25.96Z" fill="#511F19"/>
<path d="M235.8 25.9299H117.72V54.2399H235.8V25.9299Z" fill="#511F19"/>
<path d="M58.44 42.6101H56.16V67.6901H58.44V42.6101Z" fill="#511F19"/>
<path d="M58.44 90.6101H56.16V109.57H58.44V90.6101Z" fill="#511F19"/>
<path d="M66.95 107.29H4.81V109.57H66.95V107.29Z" fill="#511F19"/>
<path d="M119.88 107.29H92.64V109.57H119.88V107.29Z" fill="#511F19"/>
<path d="M119.88 75.01H99.72V77.11H119.88V75.01Z" fill="#511F19"/>
<path d="M119.88 52.3201H117.72V78.3701H119.88V52.3201Z" fill="#511F19"/>
<path d="M119.88 104.05H117.72V180.26H119.88V104.05Z" fill="#511F19"/>
<path d="M119.87 167.89H112.91V220.09H119.87V167.89Z" fill="#511F19"/>
<path d="M153.83 178.57H113.1V181.95H153.83V178.57Z" fill="#511F19"/>
<path d="M153.84 181.4H181.4V179.15H153.84" stroke="#511F19" stroke-width="0.43" stroke-miterlimit="10"/>
<path d="M181.4 180.27H153.84" stroke="#511F19" stroke-width="0.43" stroke-miterlimit="10"/>
<path d="M228.72 181.4H201.23V179.15H228.72" stroke="#511F19" stroke-width="0.43" stroke-miterlimit="10"/>
<path d="M201.23 180.27H228.72" stroke="#511F19" stroke-width="0.43" stroke-miterlimit="10"/>
<path d="M138.72 210.25H206.41" stroke="#511F19" stroke-width="0.43" stroke-miterlimit="10"/>
<path d="M138.72 213.75H206.41" stroke="#511F19" stroke-width="0.43" stroke-miterlimit="10"/>
<path d="M140.52 217.24H204.61" stroke="#511F19" stroke-width="0.43" stroke-miterlimit="10"/>
<path d="M23.04 210.25H90.73" stroke="#511F19" stroke-width="0.43" stroke-miterlimit="10"/>
<path d="M23.04 213.75H90.73" stroke="#511F19" stroke-width="0.43" stroke-miterlimit="10"/>
<path d="M24.84 217.24H88.93" stroke="#511F19" stroke-width="0.43" stroke-miterlimit="10"/>
<path d="M182.59 179.31H181.4V181.05H182.59V179.31Z" fill="#511F19"/>
<path d="M201.14 179.31H199.95V181.05H201.14V179.31Z" fill="#511F19"/>
<path d="M182.59 179.31V161.98" stroke="#511F19" stroke-width="0.85" stroke-miterlimit="10"/>
<path d="M182.59 161.98C192.16 161.98 199.92 169.74 199.92 179.32" stroke="#511F19" stroke-width="0.43" stroke-miterlimit="10"/>
<path d="M65.35 28.05H63.47V30.8H65.35V28.05Z" fill="#511F19"/>
<path d="M94.61 28.05H92.73V30.8H94.61V28.05Z" fill="#511F19"/>
<path d="M65.36 28.05V0.719971" stroke="#511F19" stroke-width="0.85" stroke-miterlimit="10"/>
<path d="M65.36 0.719971C80.45 0.719971 92.69 12.96 92.69 28.05" stroke="#511F19" stroke-width="0.43" stroke-miterlimit="10"/>
<path d="M66.18 86.77L58.43 67.46" stroke="#511F19" stroke-width="0.85" stroke-miterlimit="10"/>
<path d="M90.1 117.93L66.95 108.64" stroke="#511F19" stroke-width="0.85" stroke-miterlimit="10"/>
</g>
<defs>
<clipPath id="clip0_2024_7497">
<rect width="235.8" height="219.59" fill="white" transform="translate(0 0.5)"/>
</clipPath>
</defs>
</svg>
