<svg width="141" height="109" viewBox="0 0 141 109" fill="none" xmlns="http://www.w3.org/2000/svg">
<g clip-path="url(#clip0_2042_4)">
<path d="M116.182 54.1328H84.2158V61.1388H116.182V54.1328Z" fill="white"/>
<path d="M116.182 54.1328H84.2158V61.1388H116.182V54.1328Z" stroke="#BCBEC0" stroke-width="0.283" stroke-miterlimit="10"/>
<path d="M116.182 54.1328H84.2158V61.1388H116.182V54.1328Z" stroke="#BCBEC0" stroke-width="0.283" stroke-miterlimit="10"/>
<mask id="mask0_2042_4" style="mask-type:luminance" maskUnits="userSpaceOnUse" x="0" y="0" width="141" height="109">
<path d="M140.666 0H0V108.018H140.666V0Z" fill="white"/>
</mask>
<g mask="url(#mask0_2042_4)">
<path d="M97.1448 57.8857L92.9368 59.8097L92.7568 59.3887L98.6478 55.8417V55.4207C98.6467 55.373 98.6553 55.3255 98.6731 55.2812C98.6909 55.2369 98.7174 55.1967 98.7511 55.163C98.7849 55.1292 98.8251 55.1027 98.8694 55.0849C98.9137 55.0672 98.9611 55.0586 99.0088 55.0597H102.255C102.555 55.0597 102.616 55.4207 102.616 55.4207V55.8417L108.507 59.3887L108.327 59.8097L104.119 57.8857H97.1448Z" fill="white"/>
<path d="M97.1448 57.8857L92.9368 59.8097L92.7568 59.3887L98.6478 55.8417V55.4207C98.6467 55.373 98.6553 55.3255 98.6731 55.2812C98.6909 55.2369 98.7174 55.1967 98.7511 55.163C98.7849 55.1292 98.8251 55.1027 98.8694 55.0849C98.9137 55.0672 98.9611 55.0586 99.0088 55.0597H102.255C102.555 55.0597 102.616 55.4207 102.616 55.4207V55.8417L108.507 59.3887L108.327 59.8097L104.119 57.8857H97.1448Z" stroke="#BCBEC0" stroke-width="0.283" stroke-miterlimit="10"/>
<path d="M97.1448 57.8857L92.9368 59.8097L92.7568 59.3887L98.6478 55.8417V55.4207C98.6467 55.373 98.6553 55.3255 98.6731 55.2812C98.6909 55.2369 98.7174 55.1967 98.7511 55.163C98.7849 55.1292 98.8251 55.1027 98.8694 55.0849C98.9137 55.0672 98.9611 55.0586 99.0088 55.0597H102.255C102.555 55.0597 102.616 55.4207 102.616 55.4207V55.8417L108.507 59.3887L108.327 59.8097L104.119 57.8857H97.1448Z" stroke="#BCBEC0" stroke-width="0.283" stroke-miterlimit="10"/>
<path d="M113.016 57.2852H88.1299V57.8862H113.016V57.2852Z" fill="white"/>
<path d="M113.016 57.2852H88.1299V57.8862H113.016V57.2852Z" stroke="#BCBEC0" stroke-width="0.283" stroke-miterlimit="10"/>
<path d="M113.016 57.2852H88.1299V57.8862H113.016V57.2852Z" stroke="#BCBEC0" stroke-width="0.283" stroke-miterlimit="10"/>
<path d="M105.742 57.2836C105.081 57.2836 105.142 56.6836 104.359 56.6836H96.6701C95.9491 56.6836 96.0091 57.2836 95.2871 57.2836H105.742Z" fill="white"/>
<path d="M105.742 57.2836C105.081 57.2836 105.142 56.6836 104.359 56.6836H96.6701C95.9491 56.6836 96.0091 57.2836 95.2871 57.2836H105.742Z" stroke="#BCBEC0" stroke-width="0.283" stroke-miterlimit="10"/>
<path d="M105.742 57.2836C105.081 57.2836 105.142 56.6836 104.359 56.6836H96.6701C95.9491 56.6836 96.0091 57.2836 95.2871 57.2836H105.742Z" stroke="#BCBEC0" stroke-width="0.283" stroke-miterlimit="10"/>
<path d="M122.633 46.3447H91.917V53.0767H122.633V46.3447Z" fill="white"/>
<path d="M122.633 46.3447H91.917V53.0767H122.633V46.3447Z" stroke="#BCBEC0" stroke-width="0.283" stroke-miterlimit="10"/>
<path d="M122.633 46.3447H91.917V53.0767H122.633V46.3447Z" stroke="#BCBEC0" stroke-width="0.283" stroke-miterlimit="10"/>
<path d="M110.731 49.5314L114.939 47.6074L115.119 48.0284L109.228 51.5754V51.9964C109.229 52.0441 109.22 52.0916 109.202 52.1359C109.185 52.1801 109.158 52.2204 109.124 52.2541C109.091 52.2879 109.05 52.3144 109.006 52.3322C108.962 52.3499 108.914 52.3585 108.867 52.3574H105.681C105.381 52.3574 105.32 51.9964 105.32 51.9964V51.5754L99.4287 48.0284L99.6087 47.6074L103.817 49.5314H110.731Z" fill="white"/>
<path d="M110.731 49.5314L114.939 47.6074L115.119 48.0284L109.228 51.5754V51.9964C109.229 52.0441 109.22 52.0916 109.202 52.1359C109.185 52.1801 109.158 52.2204 109.124 52.2541C109.091 52.2879 109.05 52.3144 109.006 52.3322C108.962 52.3499 108.914 52.3585 108.867 52.3574H105.681C105.381 52.3574 105.32 51.9964 105.32 51.9964V51.5754L99.4287 48.0284L99.6087 47.6074L103.817 49.5314H110.731Z" stroke="#BCBEC0" stroke-width="0.283" stroke-miterlimit="10"/>
<path d="M110.731 49.5314L114.939 47.6074L115.119 48.0284L109.228 51.5754V51.9964C109.229 52.0441 109.22 52.0916 109.202 52.1359C109.185 52.1801 109.158 52.2204 109.124 52.2541C109.091 52.2879 109.05 52.3144 109.006 52.3322C108.962 52.3499 108.914 52.3585 108.867 52.3574H105.681C105.381 52.3574 105.32 51.9964 105.32 51.9964V51.5754L99.4287 48.0284L99.6087 47.6074L103.817 49.5314H110.731Z" stroke="#BCBEC0" stroke-width="0.283" stroke-miterlimit="10"/>
<path d="M119.748 49.5312H94.8623V50.1323H119.748V49.5312Z" fill="white"/>
<path d="M119.748 49.5312H94.8623V50.1323H119.748V49.5312Z" stroke="#BCBEC0" stroke-width="0.283" stroke-miterlimit="10"/>
<path d="M119.748 49.5312H94.8623V50.1323H119.748V49.5312Z" stroke="#BCBEC0" stroke-width="0.283" stroke-miterlimit="10"/>
<path d="M102.135 50.0723C102.796 50.0723 102.735 50.6723 103.518 50.6723H111.212C111.933 50.6723 111.873 50.0723 112.595 50.0723H102.135Z" fill="white"/>
<path d="M102.135 50.0723C102.796 50.0723 102.735 50.6723 103.518 50.6723H111.212C111.933 50.6723 111.873 50.0723 112.595 50.0723H102.135Z" stroke="#BCBEC0" stroke-width="0.283" stroke-miterlimit="10"/>
<path d="M102.135 50.0723C102.796 50.0723 102.735 50.6723 103.518 50.6723H111.212C111.933 50.6723 111.873 50.0723 112.595 50.0723H102.135Z" stroke="#BCBEC0" stroke-width="0.283" stroke-miterlimit="10"/>
<path d="M86.8673 88.4827V101.046C86.8659 101.101 86.8759 101.157 86.8966 101.208C86.9172 101.26 86.9482 101.307 86.9876 101.346C87.0269 101.386 87.0739 101.417 87.1256 101.437C87.1773 101.458 87.2327 101.468 87.2883 101.467H100.031C100.087 101.468 100.142 101.458 100.194 101.437C100.246 101.417 100.293 101.386 100.332 101.346C100.371 101.307 100.402 101.26 100.423 101.208C100.444 101.157 100.454 101.101 100.452 101.046V99.6027C100.454 99.547 100.444 99.4917 100.423 99.44C100.402 99.3883 100.371 99.3413 100.332 99.3019C100.293 99.2626 100.246 99.2316 100.194 99.2109C100.142 99.1903 100.087 99.1803 100.031 99.1817H89.1543V88.4817C89.1557 88.426 89.1457 88.3707 89.1251 88.319C89.1044 88.2673 89.0734 88.2203 89.0341 88.1809C88.9947 88.1416 88.9477 88.1106 88.896 88.0899C88.8443 88.0693 88.789 88.0593 88.7333 88.0607H87.2903C87.1811 88.0679 87.0781 88.1146 87.0007 88.1921C86.9233 88.2695 86.8766 88.3724 86.8693 88.4817" fill="white"/>
<path d="M86.8673 88.4827V101.046C86.8659 101.101 86.8759 101.157 86.8966 101.208C86.9172 101.26 86.9482 101.307 86.9876 101.346C87.0269 101.386 87.0739 101.417 87.1256 101.437C87.1773 101.458 87.2327 101.468 87.2883 101.467H100.031C100.087 101.468 100.142 101.458 100.194 101.437C100.246 101.417 100.293 101.386 100.332 101.346C100.371 101.307 100.402 101.26 100.423 101.208C100.444 101.157 100.454 101.101 100.452 101.046V99.6027C100.454 99.547 100.444 99.4917 100.423 99.44C100.402 99.3883 100.371 99.3413 100.332 99.3019C100.293 99.2626 100.246 99.2316 100.194 99.2109C100.142 99.1903 100.087 99.1803 100.031 99.1817H89.1543V88.4817C89.1557 88.426 89.1457 88.3707 89.1251 88.319C89.1044 88.2673 89.0734 88.2203 89.0341 88.1809C88.9947 88.1416 88.9477 88.1106 88.896 88.0899C88.8443 88.0693 88.789 88.0593 88.7333 88.0607H87.2903C87.1811 88.0679 87.0781 88.1146 87.0007 88.1921C86.9233 88.2695 86.8766 88.3724 86.8693 88.4817" stroke="#BCBEC0" stroke-width="0.283" stroke-miterlimit="10"/>
<path d="M86.8673 88.4827V101.046C86.8659 101.101 86.8759 101.157 86.8966 101.208C86.9172 101.26 86.9482 101.307 86.9876 101.346C87.0269 101.386 87.0739 101.417 87.1256 101.437C87.1773 101.458 87.2327 101.468 87.2883 101.467H100.031C100.087 101.468 100.142 101.458 100.194 101.437C100.246 101.417 100.293 101.386 100.332 101.346C100.371 101.307 100.402 101.26 100.423 101.208C100.444 101.157 100.454 101.101 100.452 101.046V99.6027C100.454 99.547 100.444 99.4917 100.423 99.44C100.402 99.3883 100.371 99.3413 100.332 99.3019C100.293 99.2626 100.246 99.2316 100.194 99.2109C100.142 99.1903 100.087 99.1803 100.031 99.1817H89.1543V88.4817C89.1557 88.426 89.1457 88.3707 89.1251 88.319C89.1044 88.2673 89.0734 88.2203 89.0341 88.1809C88.9947 88.1416 88.9477 88.1106 88.896 88.0899C88.8443 88.0693 88.789 88.0593 88.7333 88.0607H87.2903C87.1805 88.0675 87.077 88.1141 86.9991 88.1918C86.9213 88.2695 86.8744 88.3729 86.8673 88.4827Z" stroke="#BCBEC0" stroke-width="0.283" stroke-miterlimit="10"/>
<path d="M85.1837 88.4827V102.789C85.1823 102.844 85.1923 102.9 85.213 102.951C85.2336 103.003 85.2646 103.05 85.304 103.089C85.3433 103.129 85.3903 103.16 85.442 103.18C85.4937 103.201 85.5491 103.211 85.6047 103.21H99.9707C100.026 103.211 100.082 103.201 100.133 103.18C100.185 103.16 100.232 103.129 100.271 103.089C100.311 103.05 100.342 103.003 100.362 102.951C100.383 102.9 100.393 102.844 100.392 102.789V102.008C100.392 101.768 100.212 101.467 99.9707 101.467H86.8707V88.4827C86.8721 88.427 86.8621 88.3716 86.8415 88.3199C86.8208 88.2682 86.7898 88.2213 86.7505 88.1819C86.7111 88.1425 86.6641 88.1116 86.6124 88.0909C86.5607 88.0702 86.5054 88.0603 86.4497 88.0616H85.6687C85.5529 88.0676 85.4424 88.1123 85.3552 88.1887C85.2679 88.2651 85.2089 88.3686 85.1877 88.4827" fill="white"/>
<path d="M85.1837 88.4827V102.789C85.1823 102.844 85.1923 102.9 85.213 102.951C85.2336 103.003 85.2646 103.05 85.304 103.089C85.3433 103.129 85.3903 103.16 85.442 103.18C85.4937 103.201 85.5491 103.211 85.6047 103.21H99.9707C100.026 103.211 100.082 103.201 100.133 103.18C100.185 103.16 100.232 103.129 100.271 103.089C100.311 103.05 100.342 103.003 100.362 102.951C100.383 102.9 100.393 102.844 100.392 102.789V102.008C100.392 101.768 100.212 101.467 99.9707 101.467H86.8707V88.4827C86.8721 88.427 86.8621 88.3716 86.8415 88.3199C86.8208 88.2682 86.7898 88.2213 86.7505 88.1819C86.7111 88.1425 86.6641 88.1116 86.6124 88.0909C86.5607 88.0702 86.5054 88.0603 86.4497 88.0616H85.6687C85.5529 88.0676 85.4424 88.1123 85.3552 88.1887C85.2679 88.2651 85.2089 88.3686 85.1877 88.4827" stroke="#BCBEC0" stroke-width="0.283" stroke-miterlimit="10"/>
<path d="M85.1837 88.4827V102.789C85.1823 102.844 85.1923 102.9 85.213 102.951C85.2336 103.003 85.2646 103.05 85.304 103.089C85.3433 103.129 85.3903 103.16 85.442 103.18C85.4937 103.201 85.5491 103.211 85.6047 103.21H99.9707C100.026 103.211 100.082 103.201 100.133 103.18C100.185 103.16 100.232 103.129 100.271 103.089C100.311 103.05 100.342 103.003 100.362 102.951C100.383 102.9 100.393 102.844 100.392 102.789V102.008C100.392 101.768 100.212 101.467 99.9707 101.467H86.8707V88.4827C86.8721 88.427 86.8621 88.3716 86.8415 88.3199C86.8208 88.2682 86.7898 88.2213 86.7505 88.1819C86.7111 88.1425 86.6641 88.1116 86.6124 88.0909C86.5607 88.0702 86.5054 88.0603 86.4497 88.0616H85.6687C85.5522 88.0667 85.4408 88.111 85.3527 88.1875C85.2647 88.264 85.2051 88.368 85.1837 88.4827Z" stroke="#BCBEC0" stroke-width="0.283" stroke-miterlimit="10"/>
<path d="M89.1509 99.1816L87.0469 101.286" stroke="#BCBEC0" stroke-width="0.283" stroke-miterlimit="10"/>
<path d="M99.7524 88.0615H89.8514C89.4648 88.0615 89.1514 88.3749 89.1514 88.7615V98.4815C89.1514 98.8681 89.4648 99.1815 89.8514 99.1815H99.7524C100.139 99.1815 100.452 98.8681 100.452 98.4815V88.7615C100.452 88.3749 100.139 88.0615 99.7524 88.0615Z" fill="white"/>
<path d="M99.7524 88.0615H89.8514C89.4648 88.0615 89.1514 88.3749 89.1514 88.7615V98.4815C89.1514 98.8681 89.4648 99.1815 89.8514 99.1815H99.7524C100.139 99.1815 100.452 98.8681 100.452 98.4815V88.7615C100.452 88.3749 100.139 88.0615 99.7524 88.0615Z" stroke="#BCBEC0" stroke-width="0.283" stroke-miterlimit="10"/>
<path d="M99.7524 88.0615H89.8514C89.4648 88.0615 89.1514 88.3749 89.1514 88.7615V98.4815C89.1514 98.8681 89.4648 99.1815 89.8514 99.1815H99.7524C100.139 99.1815 100.452 98.8681 100.452 98.4815V88.7615C100.452 88.3749 100.139 88.0615 99.7524 88.0615Z" stroke="#BCBEC0" stroke-width="0.283" stroke-miterlimit="10"/>
<path d="M114.037 88.4829V101.046C114.038 101.102 114.028 101.157 114.007 101.209C113.987 101.26 113.956 101.307 113.916 101.347C113.877 101.386 113.83 101.417 113.778 101.438C113.727 101.458 113.671 101.468 113.616 101.467H100.816C100.76 101.468 100.705 101.458 100.653 101.438C100.601 101.417 100.554 101.386 100.515 101.347C100.476 101.307 100.445 101.26 100.424 101.209C100.403 101.157 100.393 101.102 100.395 101.046V99.6029C100.393 99.5472 100.403 99.4918 100.424 99.4402C100.445 99.3885 100.476 99.3415 100.515 99.3021C100.554 99.2627 100.601 99.2318 100.653 99.2111C100.705 99.1904 100.76 99.1805 100.816 99.1819H111.696V88.4819C111.694 88.4262 111.704 88.3708 111.725 88.3191C111.746 88.2675 111.777 88.2205 111.816 88.1811C111.855 88.1417 111.902 88.1108 111.954 88.0901C112.006 88.0695 112.061 88.0595 112.117 88.0609H113.56C113.678 88.0565 113.794 88.0976 113.884 88.1759C113.973 88.2542 114.029 88.3636 114.041 88.4819" fill="white"/>
<path d="M114.037 88.4829V101.046C114.038 101.102 114.028 101.157 114.007 101.209C113.987 101.26 113.956 101.307 113.916 101.347C113.877 101.386 113.83 101.417 113.778 101.438C113.727 101.458 113.671 101.468 113.616 101.467H100.816C100.76 101.468 100.705 101.458 100.653 101.438C100.601 101.417 100.554 101.386 100.515 101.347C100.476 101.307 100.445 101.26 100.424 101.209C100.403 101.157 100.393 101.102 100.395 101.046V99.6029C100.393 99.5472 100.403 99.4918 100.424 99.4402C100.445 99.3885 100.476 99.3415 100.515 99.3021C100.554 99.2627 100.601 99.2318 100.653 99.2111C100.705 99.1904 100.76 99.1805 100.816 99.1819H111.696V88.4819C111.694 88.4262 111.704 88.3708 111.725 88.3191C111.746 88.2675 111.777 88.2205 111.816 88.1811C111.855 88.1417 111.902 88.1108 111.954 88.0901C112.006 88.0695 112.061 88.0595 112.117 88.0609H113.56C113.678 88.0565 113.794 88.0976 113.884 88.1759C113.973 88.2542 114.029 88.3636 114.041 88.4819" stroke="#BCBEC0" stroke-width="0.283" stroke-miterlimit="10"/>
<path d="M114.037 88.4827V101.046C114.038 101.101 114.028 101.157 114.007 101.208C113.987 101.26 113.956 101.307 113.916 101.346C113.877 101.386 113.83 101.417 113.778 101.437C113.727 101.458 113.671 101.468 113.616 101.467H100.816C100.76 101.468 100.705 101.458 100.653 101.437C100.601 101.417 100.554 101.386 100.515 101.346C100.476 101.307 100.445 101.26 100.424 101.208C100.403 101.157 100.393 101.101 100.395 101.046V99.6027C100.393 99.5471 100.403 99.4917 100.424 99.44C100.445 99.3883 100.476 99.3414 100.515 99.302C100.554 99.2626 100.601 99.2317 100.653 99.211C100.705 99.1903 100.76 99.1804 100.816 99.1817H111.696V88.4817C111.694 88.4261 111.704 88.3707 111.725 88.319C111.746 88.2673 111.777 88.2204 111.816 88.181C111.855 88.1416 111.902 88.1107 111.954 88.09C112.006 88.0693 112.061 88.0594 112.117 88.0607H113.56C113.678 88.0574 113.793 88.0992 113.881 88.1775C113.97 88.2559 114.026 88.365 114.037 88.4827Z" stroke="#BCBEC0" stroke-width="0.283" stroke-miterlimit="10"/>
<path d="M115.66 88.4827V102.789C115.662 102.844 115.652 102.9 115.631 102.951C115.61 103.003 115.579 103.05 115.54 103.089C115.501 103.129 115.454 103.16 115.402 103.18C115.35 103.201 115.295 103.211 115.239 103.21H100.873C100.818 103.211 100.762 103.201 100.711 103.18C100.659 103.16 100.612 103.129 100.573 103.089C100.533 103.05 100.502 103.003 100.482 102.951C100.461 102.9 100.451 102.844 100.452 102.789V102.008C100.452 101.768 100.632 101.467 100.873 101.467H114.039V88.4827C114.038 88.427 114.048 88.3716 114.069 88.3199C114.089 88.2682 114.12 88.2213 114.16 88.1819C114.199 88.1425 114.246 88.1116 114.298 88.0909C114.349 88.0702 114.405 88.0603 114.46 88.0616H115.241C115.351 88.0689 115.453 88.1156 115.531 88.193C115.608 88.2705 115.655 88.3734 115.662 88.4827" fill="white"/>
<path d="M115.66 88.4827V102.789C115.662 102.844 115.652 102.9 115.631 102.951C115.61 103.003 115.579 103.05 115.54 103.089C115.501 103.129 115.454 103.16 115.402 103.18C115.35 103.201 115.295 103.211 115.239 103.21H100.873C100.818 103.211 100.762 103.201 100.711 103.18C100.659 103.16 100.612 103.129 100.573 103.089C100.533 103.05 100.502 103.003 100.482 102.951C100.461 102.9 100.451 102.844 100.452 102.789V102.008C100.452 101.768 100.632 101.467 100.873 101.467H114.039V88.4827C114.038 88.427 114.048 88.3716 114.069 88.3199C114.089 88.2682 114.12 88.2213 114.16 88.1819C114.199 88.1425 114.246 88.1116 114.298 88.0909C114.349 88.0702 114.405 88.0603 114.46 88.0616H115.241C115.351 88.0689 115.453 88.1156 115.531 88.193C115.608 88.2705 115.655 88.3734 115.662 88.4827" stroke="#BCBEC0" stroke-width="0.283" stroke-miterlimit="10"/>
<path d="M115.66 88.4827V102.789C115.662 102.844 115.652 102.9 115.631 102.951C115.61 103.003 115.579 103.05 115.54 103.089C115.501 103.129 115.454 103.16 115.402 103.18C115.35 103.201 115.295 103.211 115.239 103.21H100.873C100.818 103.211 100.762 103.201 100.711 103.18C100.659 103.16 100.612 103.129 100.573 103.089C100.533 103.05 100.502 103.003 100.482 102.951C100.461 102.9 100.451 102.844 100.452 102.789V102.008C100.452 101.768 100.632 101.467 100.873 101.467H114.039V88.4827C114.038 88.427 114.048 88.3716 114.069 88.3199C114.089 88.2682 114.12 88.2213 114.16 88.1819C114.199 88.1425 114.246 88.1116 114.298 88.0909C114.349 88.0702 114.405 88.0603 114.46 88.0616H115.241C115.35 88.0694 115.453 88.1163 115.53 88.1937C115.607 88.2711 115.653 88.3737 115.66 88.4827Z" stroke="#BCBEC0" stroke-width="0.283" stroke-miterlimit="10"/>
<path d="M111.693 99.1816L113.857 101.286" stroke="#BCBEC0" stroke-width="0.283" stroke-miterlimit="10"/>
<path d="M110.993 88.0615H101.152C100.766 88.0615 100.452 88.3749 100.452 88.7615V98.4815C100.452 98.8681 100.766 99.1815 101.152 99.1815H110.993C111.38 99.1815 111.693 98.8681 111.693 98.4815V88.7615C111.693 88.3749 111.38 88.0615 110.993 88.0615Z" fill="white"/>
<path d="M110.993 88.0615H101.152C100.766 88.0615 100.452 88.3749 100.452 88.7615V98.4815C100.452 98.8681 100.766 99.1815 101.152 99.1815H110.993C111.38 99.1815 111.693 98.8681 111.693 98.4815V88.7615C111.693 88.3749 111.38 88.0615 110.993 88.0615Z" stroke="#BCBEC0" stroke-width="0.283" stroke-miterlimit="10"/>
<path d="M110.993 88.0615H101.152C100.766 88.0615 100.452 88.3749 100.452 88.7615V98.4815C100.452 98.8681 100.766 99.1815 101.152 99.1815H110.993C111.38 99.1815 111.693 98.8681 111.693 98.4815V88.7615C111.693 88.3749 111.38 88.0615 110.993 88.0615Z" stroke="#BCBEC0" stroke-width="0.283" stroke-miterlimit="10"/>
<path d="M39.0203 28.7928C39.0203 30.2117 38.4567 31.5725 37.4533 32.5758C36.45 33.5792 35.0892 34.1428 33.6703 34.1428C32.2514 34.1428 30.8906 33.5792 29.8873 32.5758C28.884 31.5725 28.3203 30.2117 28.3203 28.7928V9.85781C28.3203 8.4389 28.884 7.07811 29.8873 6.07479C30.8906 5.07147 32.2514 4.50781 33.6703 4.50781C35.0892 4.50781 36.45 5.07147 37.4533 6.07479C38.4567 7.07811 39.0203 8.4389 39.0203 9.85781V28.7928Z" fill="white"/>
<path d="M39.0203 28.7928C39.0203 30.2117 38.4567 31.5725 37.4533 32.5758C36.45 33.5792 35.0892 34.1428 33.6703 34.1428C32.2514 34.1428 30.8906 33.5792 29.8873 32.5758C28.884 31.5725 28.3203 30.2117 28.3203 28.7928V9.85781C28.3203 8.4389 28.884 7.07811 29.8873 6.07479C30.8906 5.07147 32.2514 4.50781 33.6703 4.50781C35.0892 4.50781 36.45 5.07147 37.4533 6.07479C38.4567 7.07811 39.0203 8.4389 39.0203 9.85781V28.7928Z" stroke="#BCBEC0" stroke-width="0.283" stroke-linecap="round" stroke-linejoin="round"/>
<path d="M37.9967 28.6697C37.9967 29.8335 37.5344 30.9496 36.7115 31.7725C35.8886 32.5954 34.7725 33.0577 33.6087 33.0577C32.4449 33.0577 31.3288 32.5954 30.5059 31.7725C29.683 30.9496 29.2207 29.8335 29.2207 28.6697V9.85773C29.2207 8.69396 29.683 7.57785 30.5059 6.75494C31.3288 5.93203 32.4449 5.46973 33.6087 5.46973C34.7725 5.46973 35.8886 5.93203 36.7115 6.75494C37.5344 7.57785 37.9967 8.69396 37.9967 9.85773V28.6697Z" stroke="#BCBEC0" stroke-width="0.283" stroke-linecap="round" stroke-linejoin="round"/>
<path d="M33.61 8.53629C33.8636 8.53306 34.1152 8.58063 34.3501 8.67618C34.585 8.77172 34.7984 8.91332 34.9777 9.09263C35.157 9.27194 35.2986 9.48532 35.3941 9.72021C35.4897 9.95509 35.5372 10.2067 35.534 10.4603V27.4713C35.5399 27.7276 35.4944 27.9824 35.4004 28.2209C35.3064 28.4594 35.1656 28.6767 34.9864 28.86C34.8072 29.0434 34.5932 29.189 34.3569 29.2885C34.1206 29.3879 33.8669 29.4391 33.6105 29.4391C33.3542 29.4391 33.1004 29.3879 32.8641 29.2885C32.6278 29.189 32.4138 29.0434 32.2346 28.86C32.0554 28.6767 31.9147 28.4594 31.8206 28.2209C31.7266 27.9824 31.6812 27.7276 31.687 27.4713V10.4603C31.6904 9.95123 31.8941 9.46398 32.254 9.10393C32.6138 8.74387 33.101 8.53995 33.61 8.53629Z" stroke="#BCBEC0" stroke-width="0.283" stroke-linecap="round" stroke-linejoin="round"/>
<path d="M29.7615 19.4161C29.894 19.4161 30.0015 19.2008 30.0015 18.9351C30.0015 18.6695 29.894 18.4541 29.7615 18.4541C29.6289 18.4541 29.5215 18.6695 29.5215 18.9351C29.5215 19.2008 29.6289 19.4161 29.7615 19.4161Z" stroke="#BCBEC0" stroke-width="0.283" stroke-linecap="round" stroke-linejoin="round"/>
<path d="M55.4288 54.1592H21.4668V61.9132H55.4288V54.1592Z" fill="white"/>
<path d="M55.4288 54.1592H21.4668V61.9132H55.4288V54.1592Z" stroke="#BCBEC0" stroke-width="0.283" stroke-linecap="round" stroke-linejoin="round"/>
<path d="M38.7187 55.9629C38.7187 55.8194 38.6617 55.6818 38.5603 55.5803C38.4588 55.4789 38.3212 55.4219 38.1777 55.4219C38.0342 55.4219 37.8966 55.4789 37.7952 55.5803C37.6937 55.6818 37.6367 55.8194 37.6367 55.9629C37.6367 56.5039 38.1777 56.3239 38.1777 56.8049" stroke="#BCBEC0" stroke-width="0.283" stroke-linecap="round" stroke-linejoin="round"/>
<path d="M38.182 56.8037L41.729 58.0037C41.8203 58.0461 41.8973 58.1141 41.9506 58.1995C42.0039 58.285 42.0311 58.3841 42.029 58.4847C42.0281 58.5292 42.0177 58.5731 41.9984 58.6132C41.9791 58.6534 41.9514 58.6889 41.9172 58.7174C41.8829 58.7458 41.8429 58.7666 41.7999 58.7782C41.7569 58.7898 41.7119 58.792 41.668 58.7847H34.751C34.7067 58.7951 34.6606 58.7951 34.6163 58.7847C34.572 58.7743 34.5307 58.7537 34.4957 58.7246C34.4608 58.6956 34.433 58.6588 34.4146 58.6171C34.3963 58.5755 34.3878 58.5302 34.39 58.4847C34.3757 58.3821 34.3979 58.2777 34.4527 58.1898C34.5075 58.1019 34.5915 58.036 34.69 58.0037L38.182 56.8037Z" stroke="#BCBEC0" stroke-width="0.283" stroke-linecap="round" stroke-linejoin="round"/>
<path d="M43.4072 58.4268H54.7082" stroke="#BCBEC0" stroke-width="0.283" stroke-linecap="round" stroke-linejoin="round"/>
<path d="M21.9482 58.4268H32.8282" stroke="#BCBEC0" stroke-width="0.283" stroke-linecap="round" stroke-linejoin="round"/>
<path d="M80.4347 4.44824H70.0957V34.2032H80.4347V4.44824Z" fill="white"/>
<path d="M80.4347 4.44824H70.0957V34.2032H80.4347V4.44824Z" stroke="#BCBEC0" stroke-width="0.283" stroke-linecap="round" stroke-linejoin="round"/>
<path d="M75.8066 17.5517C75.8066 17.4083 75.7496 17.2707 75.6481 17.1692C75.5467 17.0677 75.4091 17.0107 75.2656 17.0107C75.1221 17.0107 74.9845 17.0677 74.8831 17.1692C74.7816 17.2707 74.7246 17.4083 74.7246 17.5517C74.7246 18.0927 75.2656 17.9727 75.2656 18.4517" stroke="#BCBEC0" stroke-width="0.283" stroke-linecap="round" stroke-linejoin="round"/>
<path d="M75.2657 18.4541L78.8727 19.6541C78.9712 19.6864 79.0552 19.7523 79.11 19.8402C79.1648 19.9281 79.1871 20.0325 79.1728 20.1351C79.1719 20.1796 79.1615 20.2235 79.1422 20.2636C79.1229 20.3038 79.0952 20.3393 79.0609 20.3678C79.0267 20.3962 78.9867 20.417 78.9437 20.4286C78.9007 20.4402 78.8557 20.4424 78.8118 20.4351H71.7187C71.6745 20.4455 71.6284 20.4455 71.5841 20.4351C71.5398 20.4247 71.4985 20.4041 71.4635 20.375C71.4285 20.3459 71.4008 20.3091 71.3824 20.2675C71.3641 20.2259 71.3556 20.1806 71.3577 20.1351C71.3434 20.0325 71.3657 19.9281 71.4205 19.8402C71.4753 19.7523 71.5593 19.6864 71.6578 19.6541L75.2657 18.4541Z" stroke="#BCBEC0" stroke-width="0.283" stroke-linecap="round" stroke-linejoin="round"/>
<path d="M75.2656 16.4104V5.10938" stroke="#BCBEC0" stroke-width="0.283" stroke-linecap="round" stroke-linejoin="round"/>
<path d="M75.2656 33.7222V21.1592" stroke="#BCBEC0" stroke-width="0.283" stroke-linecap="round" stroke-linejoin="round"/>
<path d="M93.3198 4.44824H87.6268C87.2402 4.44824 86.9268 4.76164 86.9268 5.14824V10.8412C86.9268 11.2278 87.2402 11.5412 87.6268 11.5412H93.3198C93.7064 11.5412 94.0198 11.2278 94.0198 10.8412V5.14824C94.0198 4.76164 93.7064 4.44824 93.3198 4.44824Z" fill="white"/>
<path d="M93.3198 4.44824H87.6268C87.2402 4.44824 86.9268 4.76164 86.9268 5.14824V10.8412C86.9268 11.2278 87.2402 11.5412 87.6268 11.5412H93.3198C93.7064 11.5412 94.0198 11.2278 94.0198 10.8412V5.14824C94.0198 4.76164 93.7064 4.44824 93.3198 4.44824Z" stroke="#BCBEC0" stroke-width="0.283" stroke-linecap="round" stroke-linejoin="round"/>
<path d="M126.982 4.44824H121.289C120.902 4.44824 120.589 4.76164 120.589 5.14824V10.8412C120.589 11.2278 120.902 11.5412 121.289 11.5412H126.982C127.368 11.5412 127.682 11.2278 127.682 10.8412V5.14824C127.682 4.76164 127.368 4.44824 126.982 4.44824Z" fill="white"/>
<path d="M126.982 4.44824H121.289C120.902 4.44824 120.589 4.76164 120.589 5.14824V10.8412C120.589 11.2278 120.902 11.5412 121.289 11.5412H126.982C127.368 11.5412 127.682 11.2278 127.682 10.8412V5.14824C127.682 4.76164 127.368 4.44824 126.982 4.44824Z" stroke="#BCBEC0" stroke-width="0.283" stroke-linecap="round" stroke-linejoin="round"/>
<path d="M94.5611 5.52971C94.5593 5.44242 94.5752 5.35567 94.6078 5.27468C94.6404 5.19368 94.689 5.12011 94.7508 5.05837C94.8125 4.99663 94.8861 4.94801 94.9671 4.91542C95.0481 4.88283 95.1348 4.86694 95.2221 4.86871H119.322C119.411 4.85907 119.501 4.86954 119.586 4.89935C119.671 4.92917 119.747 4.97756 119.811 5.04097C119.874 5.10438 119.923 5.1812 119.952 5.26578C119.982 5.35036 119.993 5.44055 119.983 5.52971V35.3447C119.985 35.432 119.969 35.5187 119.936 35.5997C119.904 35.6807 119.855 35.7543 119.793 35.816C119.732 35.8778 119.658 35.9264 119.577 35.959C119.496 35.9916 119.409 36.0075 119.322 36.0057H95.2221C95.1329 36.0153 95.0427 36.0049 94.9582 35.9751C94.8736 35.9453 94.7968 35.8969 94.7334 35.8334C94.6699 35.77 94.6216 35.6932 94.5917 35.6086C94.5619 35.5241 94.5515 35.4339 94.5611 35.3447V5.52971Z" fill="white"/>
<path d="M94.5611 5.52971C94.5593 5.44242 94.5752 5.35567 94.6078 5.27468C94.6404 5.19368 94.689 5.12011 94.7508 5.05837C94.8125 4.99663 94.8861 4.94801 94.9671 4.91542C95.0481 4.88283 95.1348 4.86694 95.2221 4.86871H119.322C119.411 4.85907 119.501 4.86954 119.586 4.89935C119.671 4.92917 119.747 4.97756 119.811 5.04097C119.874 5.10438 119.923 5.1812 119.952 5.26578C119.982 5.35036 119.993 5.44055 119.983 5.52971V35.3447C119.985 35.432 119.969 35.5187 119.936 35.5997C119.904 35.6807 119.855 35.7543 119.793 35.816C119.732 35.8778 119.658 35.9264 119.577 35.959C119.496 35.9916 119.409 36.0075 119.322 36.0057H95.2221C95.1329 36.0153 95.0427 36.0049 94.9582 35.9751C94.8736 35.9453 94.7968 35.8969 94.7334 35.8334C94.6699 35.77 94.6216 35.6932 94.5917 35.6086C94.5619 35.5241 94.5515 35.4339 94.5611 35.3447V5.52971Z" stroke="#BCBEC0" stroke-width="0.283" stroke-miterlimit="10"/>
<path d="M106.764 12.3826C106.764 12.5418 106.701 12.6944 106.588 12.8069C106.475 12.9194 106.323 12.9826 106.164 12.9826H96.4857C96.3266 12.9826 96.174 12.9194 96.0615 12.8069C95.949 12.6944 95.8857 12.5418 95.8857 12.3826V6.49062C95.8857 6.33149 95.949 6.17888 96.0615 6.06636C96.174 5.95384 96.3266 5.89062 96.4857 5.89062H106.224C106.383 5.89062 106.535 5.95384 106.648 6.06636C106.761 6.17888 106.824 6.33149 106.824 6.49062V12.3816L106.764 12.3826Z" fill="white"/>
<path d="M106.764 12.3826C106.764 12.5418 106.701 12.6944 106.588 12.8069C106.475 12.9194 106.323 12.9826 106.164 12.9826H96.4857C96.3266 12.9826 96.174 12.9194 96.0615 12.8069C95.949 12.6944 95.8857 12.5418 95.8857 12.3826V6.49062C95.8857 6.33149 95.949 6.17888 96.0615 6.06636C96.174 5.95384 96.3266 5.89062 96.4857 5.89062H106.224C106.383 5.89062 106.535 5.95384 106.648 6.06636C106.761 6.17888 106.824 6.33149 106.824 6.49062V12.3816L106.764 12.3826Z" stroke="#BCBEC0" stroke-width="0.283" stroke-miterlimit="10"/>
<path d="M118.666 12.3826C118.666 12.5418 118.602 12.6944 118.49 12.8069C118.377 12.9194 118.225 12.9826 118.066 12.9826H108.328C108.168 12.9826 108.016 12.9194 107.903 12.8069C107.791 12.6944 107.728 12.5418 107.728 12.3826V6.49062C107.728 6.33149 107.791 6.17888 107.903 6.06636C108.016 5.95384 108.168 5.89062 108.328 5.89062H118.066C118.225 5.89062 118.377 5.95384 118.49 6.06636C118.602 6.17888 118.666 6.33149 118.666 6.49062V12.3826Z" fill="white"/>
<path d="M118.666 12.3826C118.666 12.5418 118.602 12.6944 118.49 12.8069C118.377 12.9194 118.225 12.9826 118.066 12.9826H108.328C108.168 12.9826 108.016 12.9194 107.903 12.8069C107.791 12.6944 107.728 12.5418 107.728 12.3826V6.49062C107.728 6.33149 107.791 6.17888 107.903 6.06636C108.016 5.95384 108.168 5.89062 108.328 5.89062H118.066C118.225 5.89062 118.377 5.95384 118.49 6.06636C118.602 6.17888 118.666 6.33149 118.666 6.49062V12.3826Z" stroke="#BCBEC0" stroke-width="0.283" stroke-miterlimit="10"/>
<path d="M94.5605 13.6445H120.048" stroke="#BCBEC0" stroke-width="0.283" stroke-miterlimit="10"/>
<path d="M120.048 8.11509C119.627 8.11509 119.627 7.63409 119.627 7.63409V5.53409C119.627 5.47409 119.627 5.35409 119.567 5.35409C119.543 5.33135 119.515 5.31416 119.484 5.30379C119.453 5.29341 119.42 5.29009 119.387 5.29409H95.2871C95.2271 5.29409 95.1071 5.29409 95.1071 5.35409C95.0682 5.40601 95.0471 5.46918 95.0471 5.53409V7.57809C95.0471 7.57809 95.0471 8.05909 94.6261 8.05909C94.2051 8.05909 94.2051 7.57809 94.2051 7.57809V5.53009C94.2034 5.34297 94.2444 5.15792 94.3251 4.98909C94.4167 4.81613 94.5561 4.67316 94.7266 4.57723C94.8972 4.48131 95.0918 4.43648 95.2871 4.44809H119.331C119.475 4.44243 119.618 4.46611 119.753 4.51769C119.887 4.56927 120.009 4.64766 120.112 4.74809C120.3 4.96541 120.406 5.24171 120.412 5.52909V7.51309C120.472 7.57309 120.472 8.11309 120.051 8.11309" fill="white"/>
<path d="M120.048 8.11509C119.627 8.11509 119.627 7.63409 119.627 7.63409V5.53409C119.627 5.47409 119.627 5.35409 119.567 5.35409C119.543 5.33135 119.515 5.31416 119.484 5.30379C119.453 5.29341 119.42 5.29009 119.387 5.29409H95.2871C95.2271 5.29409 95.1071 5.29409 95.1071 5.35409C95.0682 5.40601 95.0471 5.46918 95.0471 5.53409V7.57809C95.0471 7.57809 95.0471 8.05909 94.6261 8.05909C94.2051 8.05909 94.2051 7.57809 94.2051 7.57809V5.53009C94.2034 5.34297 94.2444 5.15792 94.3251 4.98909C94.4167 4.81613 94.5561 4.67316 94.7266 4.57723C94.8972 4.48131 95.0918 4.43648 95.2871 4.44809H119.331C119.475 4.44243 119.618 4.46611 119.753 4.51769C119.887 4.56927 120.009 4.64766 120.112 4.74809C120.3 4.96541 120.406 5.24171 120.412 5.52909V7.51309C120.469 7.57409 120.469 8.11509 120.048 8.11509Z" stroke="#BCBEC0" stroke-width="0.283" stroke-miterlimit="10"/>
<path d="M94.5607 7.56871V5.52971C94.5589 5.44242 94.5748 5.35567 94.6074 5.27468C94.64 5.19368 94.6886 5.12011 94.7503 5.05837C94.8121 4.99663 94.8856 4.94801 94.9666 4.91542C95.0476 4.88283 95.1344 4.86694 95.2217 4.86871H119.322C119.411 4.85907 119.501 4.86954 119.586 4.89935C119.67 4.92917 119.747 4.97756 119.81 5.04097C119.874 5.10438 119.922 5.1812 119.952 5.26578C119.982 5.35036 119.992 5.44055 119.983 5.52971V7.56871" stroke="#BCBEC0" stroke-width="0.283" stroke-miterlimit="10" stroke-linecap="round"/>
<path d="M55.0303 4.44824H41.1023C40.7157 4.44824 40.4023 4.76164 40.4023 5.14824V11.2622C40.4023 11.6488 40.7157 11.9622 41.1023 11.9622H55.0303C55.4169 11.9622 55.7303 11.6488 55.7303 11.2622V5.14824C55.7303 4.76164 55.4169 4.44824 55.0303 4.44824Z" fill="white"/>
<path d="M55.0303 4.44824H41.1023C40.7157 4.44824 40.4023 4.76164 40.4023 5.14824V11.2622C40.4023 11.6488 40.7157 11.9622 41.1023 11.9622H55.0303C55.4169 11.9622 55.7303 11.6488 55.7303 11.2622V5.14824C55.7303 4.76164 55.4169 4.44824 55.0303 4.44824Z" stroke="#BCBEC0" stroke-width="0.283" stroke-linecap="round" stroke-linejoin="round"/>
<path d="M53.5659 8.35473C53.5659 6.79173 51.1009 5.46973 48.0359 5.46973C44.9709 5.46973 42.5059 6.73173 42.5059 8.35473C42.5059 9.97773 44.9709 11.2397 48.0359 11.2397C51.1009 11.2397 53.5659 9.97773 53.5659 8.35473Z" fill="white"/>
<path d="M53.5659 8.35473C53.5659 6.79173 51.1009 5.46973 48.0359 5.46973C44.9709 5.46973 42.5059 6.73173 42.5059 8.35473C42.5059 9.97773 44.9709 11.2397 48.0359 11.2397C51.1009 11.2397 53.5659 9.97773 53.5659 8.35473Z" stroke="#BCBEC0" stroke-width="0.283" stroke-miterlimit="10"/>
<path d="M48.0359 11.2397C51.09 11.2397 53.5659 9.94807 53.5659 8.35473C53.5659 6.76139 51.09 5.46973 48.0359 5.46973C44.9817 5.46973 42.5059 6.76139 42.5059 8.35473C42.5059 9.94807 44.9817 11.2397 48.0359 11.2397Z" stroke="#BCBEC0" stroke-width="0.283" stroke-linecap="round" stroke-linejoin="round"/>
<path d="M46.654 5.35006C46.6553 5.2944 46.6454 5.23904 46.6247 5.18734C46.604 5.13565 46.5731 5.08869 46.5337 5.04932C46.4943 5.00995 46.4474 4.97899 46.3957 4.95831C46.344 4.93764 46.2886 4.92769 46.233 4.92906C46.1142 4.92445 45.9981 4.96551 45.9086 5.04381C45.8192 5.12211 45.7631 5.2317 45.752 5.35006C45.7526 5.41038 45.766 5.46988 45.7913 5.52467C45.8165 5.57946 45.853 5.62831 45.8984 5.66804C45.9438 5.70777 45.997 5.73748 46.0547 5.75523C46.1123 5.77298 46.1731 5.77838 46.233 5.77106C46.413 5.83106 46.654 5.59106 46.654 5.35006Z" fill="white"/>
<path d="M46.654 5.35006C46.6553 5.2944 46.6454 5.23904 46.6247 5.18734C46.604 5.13565 46.5731 5.08869 46.5337 5.04932C46.4943 5.00995 46.4474 4.97899 46.3957 4.95831C46.344 4.93764 46.2886 4.92769 46.233 4.92906C46.1142 4.92445 45.9981 4.96551 45.9086 5.04381C45.8192 5.12211 45.7631 5.2317 45.752 5.35006C45.7526 5.41038 45.766 5.46988 45.7913 5.52467C45.8165 5.57946 45.853 5.62831 45.8984 5.66804C45.9438 5.70777 45.997 5.73748 46.0547 5.75523C46.1123 5.77298 46.1731 5.77838 46.233 5.77106C46.413 5.83106 46.654 5.59106 46.654 5.35006Z" stroke="#BCBEC0" stroke-width="0.283" stroke-miterlimit="10"/>
<path d="M46.654 5.35006C46.6553 5.2944 46.6454 5.23904 46.6247 5.18734C46.604 5.13565 46.5731 5.08869 46.5337 5.04932C46.4943 5.00995 46.4474 4.97899 46.3957 4.95831C46.344 4.93764 46.2886 4.92769 46.233 4.92906C46.1142 4.92445 45.9981 4.96551 45.9086 5.04381C45.8192 5.12211 45.7631 5.2317 45.752 5.35006C45.7526 5.41038 45.766 5.46988 45.7913 5.52467C45.8165 5.57946 45.853 5.62831 45.8984 5.66804C45.9438 5.70777 45.997 5.73748 46.0547 5.75523C46.1123 5.77298 46.1731 5.77838 46.233 5.77106C46.413 5.82906 46.654 5.59006 46.654 5.35006Z" stroke="#BCBEC0" stroke-width="0.283" stroke-linecap="round" stroke-linejoin="round"/>
<path d="M50.3805 5.35006C50.3819 5.2944 50.3719 5.23904 50.3513 5.18734C50.3306 5.13565 50.2996 5.08869 50.2603 5.04932C50.2209 5.00995 50.1739 4.97899 50.1222 4.95831C50.0705 4.93764 50.0152 4.92769 49.9595 4.92906C49.8407 4.92445 49.7247 4.96551 49.6352 5.04381C49.5457 5.12211 49.4897 5.2317 49.4785 5.35006C49.4792 5.41038 49.4926 5.46988 49.5178 5.52467C49.543 5.57946 49.5795 5.62831 49.6249 5.66804C49.6703 5.70777 49.7236 5.73748 49.7812 5.75523C49.8389 5.77298 49.8996 5.77838 49.9595 5.77106C50.1995 5.83106 50.3805 5.59106 50.3805 5.35006Z" fill="white"/>
<path d="M50.3805 5.35006C50.3819 5.2944 50.3719 5.23904 50.3513 5.18734C50.3306 5.13565 50.2996 5.08869 50.2603 5.04932C50.2209 5.00995 50.1739 4.97899 50.1222 4.95831C50.0705 4.93764 50.0152 4.92769 49.9595 4.92906C49.8407 4.92445 49.7247 4.96551 49.6352 5.04381C49.5457 5.12211 49.4897 5.2317 49.4785 5.35006C49.4792 5.41038 49.4926 5.46988 49.5178 5.52467C49.543 5.57946 49.5795 5.62831 49.6249 5.66804C49.6703 5.70777 49.7236 5.73748 49.7812 5.75523C49.8389 5.77298 49.8996 5.77838 49.9595 5.77106C50.1995 5.83106 50.3805 5.59106 50.3805 5.35006Z" stroke="#BCBEC0" stroke-width="0.283" stroke-miterlimit="10"/>
<path d="M50.3805 5.35006C50.3819 5.2944 50.3719 5.23904 50.3513 5.18734C50.3306 5.13565 50.2996 5.08869 50.2603 5.04932C50.2209 5.00995 50.1739 4.97899 50.1222 4.95831C50.0705 4.93764 50.0152 4.92769 49.9595 4.92906C49.8407 4.92445 49.7247 4.96551 49.6352 5.04381C49.5457 5.12211 49.4897 5.2317 49.4785 5.35006C49.4792 5.41038 49.4926 5.46988 49.5178 5.52467C49.543 5.57946 49.5795 5.62831 49.6249 5.66804C49.6703 5.70777 49.7236 5.73748 49.7812 5.75523C49.8389 5.77298 49.8996 5.77838 49.9595 5.77106C50.1995 5.82906 50.3805 5.59006 50.3805 5.35006Z" stroke="#BCBEC0" stroke-width="0.283" stroke-linecap="round" stroke-linejoin="round"/>
<path d="M48.2759 6.79229C48.2759 6.85607 48.2505 6.91725 48.2054 6.96235C48.1603 7.00745 48.0992 7.03279 48.0354 7.03279C47.9716 7.03279 47.9104 7.00745 47.8653 6.96235C47.8202 6.91725 47.7949 6.85607 47.7949 6.79229L47.7349 5.40929C47.7323 5.36035 47.7397 5.3114 47.7567 5.26542C47.7736 5.21944 47.7997 5.17739 47.8335 5.14184C47.8672 5.10628 47.9078 5.07797 47.9528 5.05862C47.9979 5.03928 48.0464 5.0293 48.0954 5.0293C48.1444 5.0293 48.1929 5.03928 48.2379 5.05862C48.2829 5.07797 48.3235 5.10628 48.3573 5.14184C48.391 5.17739 48.4171 5.21944 48.4341 5.26542C48.451 5.3114 48.4585 5.36035 48.4559 5.40929L48.2759 6.79229Z" fill="white"/>
<path d="M48.2759 6.79229C48.2759 6.85607 48.2505 6.91725 48.2054 6.96235C48.1603 7.00745 48.0992 7.03279 48.0354 7.03279C47.9716 7.03279 47.9104 7.00745 47.8653 6.96235C47.8202 6.91725 47.7949 6.85607 47.7949 6.79229L47.7349 5.40929C47.7323 5.36035 47.7397 5.3114 47.7567 5.26542C47.7736 5.21944 47.7997 5.17739 47.8335 5.14184C47.8672 5.10628 47.9078 5.07797 47.9528 5.05862C47.9979 5.03928 48.0464 5.0293 48.0954 5.0293C48.1444 5.0293 48.1929 5.03928 48.2379 5.05862C48.2829 5.07797 48.3235 5.10628 48.3573 5.14184C48.391 5.17739 48.4171 5.21944 48.4341 5.26542C48.451 5.3114 48.4585 5.36035 48.4559 5.40929L48.2759 6.79229Z" stroke="#BCBEC0" stroke-width="0.283" stroke-miterlimit="10"/>
<path d="M48.2759 6.79229C48.2759 6.85607 48.2505 6.91725 48.2054 6.96235C48.1603 7.00745 48.0992 7.03279 48.0354 7.03279C47.9716 7.03279 47.9104 7.00745 47.8653 6.96235C47.8202 6.91725 47.7949 6.85607 47.7949 6.79229L47.7349 5.40929C47.7323 5.36035 47.7397 5.3114 47.7567 5.26542C47.7736 5.21944 47.7997 5.17739 47.8335 5.14184C47.8672 5.10628 47.9078 5.07797 47.9528 5.05862C47.9979 5.03928 48.0464 5.0293 48.0954 5.0293C48.1444 5.0293 48.1929 5.03928 48.2379 5.05862C48.2829 5.07797 48.3235 5.10628 48.3573 5.14184C48.391 5.17739 48.4171 5.21944 48.4341 5.26542C48.451 5.3114 48.4585 5.36035 48.4559 5.40929L48.2759 6.79229Z" stroke="#BCBEC0" stroke-width="0.283" stroke-linecap="round" stroke-linejoin="round"/>
<path d="M68.8341 26.5693H57.9541V34.1433H68.8341V26.5693Z" fill="white"/>
<path d="M68.8341 26.5693H57.9541V34.1433H68.8341V26.5693Z" stroke="#BCBEC0" stroke-width="0.283" stroke-linecap="round" stroke-linejoin="round"/>
<path d="M63.3042 33.0009C62.781 33.0009 62.2697 32.8458 61.8347 32.5552C61.3997 32.2645 61.0607 31.8514 60.8605 31.3681C60.6603 30.8848 60.6079 30.353 60.71 29.8399C60.8121 29.3268 61.064 28.8556 61.4339 28.4856C61.8038 28.1157 62.2751 27.8638 62.7882 27.7618C63.3012 27.6597 63.8331 27.7121 64.3164 27.9123C64.7997 28.1125 65.2128 28.4515 65.5034 28.8865C65.7941 29.3214 65.9492 29.8328 65.9492 30.3559C65.9432 31.0556 65.6626 31.7249 65.1678 32.2196C64.6731 32.7143 64.0038 32.9949 63.3042 33.0009Z" fill="white"/>
<path d="M63.3042 33.0009C64.765 33.0009 65.9492 31.8167 65.9492 30.3559C65.9492 28.8951 64.765 27.7109 63.3042 27.7109C61.8434 27.7109 60.6592 28.8951 60.6592 30.3559C60.6592 31.8167 61.8434 33.0009 63.3042 33.0009Z" stroke="#BCBEC0" stroke-width="0.283" stroke-linecap="round" stroke-linejoin="round"/>
<path d="M63.3082 32.9998C63.6177 32.997 63.9233 32.9288 64.2047 32.7999C64.4862 32.6709 64.7372 32.484 64.9415 32.2513C65.1457 32.0186 65.2986 31.7455 65.39 31.4497C65.4815 31.1539 65.5095 30.8421 65.4722 30.5348C65.468 30.0099 65.2576 29.5077 64.8864 29.1365C64.5153 28.7653 64.0131 28.555 63.4882 28.5508C63.0759 28.558 62.6825 28.725 62.3909 29.0165C62.0993 29.3081 61.9323 29.7015 61.9252 30.1138C61.9212 30.2806 61.9511 30.4465 62.0131 30.6014C62.0751 30.7563 62.168 30.897 62.2859 31.015C62.4039 31.133 62.5446 31.2258 62.6996 31.2878C62.8545 31.3498 63.0203 31.3798 63.1872 31.3758C63.3218 31.3769 63.4553 31.3511 63.5798 31.3C63.7044 31.2488 63.8175 31.1734 63.9126 31.0781C64.0076 30.9827 64.0827 30.8694 64.1335 30.7447C64.1842 30.62 64.2096 30.4864 64.2082 30.3518C64.2033 30.1462 64.1195 29.9503 63.9741 29.8049C63.8286 29.6594 63.6328 29.5756 63.4272 29.5708C63.2523 29.5723 63.0851 29.6425 62.9615 29.7661C62.8379 29.8897 62.7677 30.057 62.7662 30.2318C62.7659 30.3029 62.7797 30.3734 62.8068 30.4391C62.8339 30.5049 62.8737 30.5646 62.924 30.6149C62.9743 30.6652 63.0341 30.705 63.0998 30.7321C63.1656 30.7592 63.236 30.773 63.3072 30.7728C63.3628 30.7742 63.4182 30.7642 63.4699 30.7435C63.5216 30.7229 63.5685 30.6919 63.6079 30.6525C63.6473 30.6132 63.6782 30.5662 63.6989 30.5145C63.7196 30.4628 63.7295 30.4074 63.7282 30.3518C63.7305 30.3118 63.7243 30.2717 63.7101 30.2343C63.6958 30.1968 63.6738 30.1628 63.6455 30.1345C63.6171 30.1061 63.5831 30.0841 63.5457 30.0699C63.5082 30.0556 63.4682 30.0495 63.4282 30.0518C63.366 30.0562 63.3075 30.0829 63.2634 30.127C63.2193 30.1711 63.1926 30.2296 63.1882 30.2918" stroke="#BCBEC0" stroke-width="0.283" stroke-linecap="round" stroke-linejoin="round"/>
<path d="M63.3037 30.7161C63.3751 30.7161 63.4449 30.695 63.5043 30.6553C63.5637 30.6156 63.6099 30.5593 63.6372 30.4933C63.6646 30.4273 63.6717 30.3547 63.6578 30.2847C63.6439 30.2147 63.6095 30.1504 63.559 30.0999C63.5085 30.0494 63.4442 30.015 63.3742 30.0011C63.3041 29.9871 63.2315 29.9943 63.1656 30.0216C63.0996 30.0489 63.0432 30.0952 63.0036 30.1546C62.9639 30.2139 62.9427 30.2837 62.9427 30.3551C62.9406 30.4031 62.9485 30.451 62.9659 30.4958C62.9833 30.5405 63.0098 30.5812 63.0437 30.6151C63.0777 30.6491 63.1183 30.6756 63.1631 30.693C63.2079 30.7104 63.2557 30.7183 63.3037 30.7161Z" fill="#4A1815"/>
<path d="M63.3037 30.7161C63.3751 30.7161 63.4449 30.695 63.5043 30.6553C63.5637 30.6156 63.6099 30.5593 63.6372 30.4933C63.6646 30.4273 63.6717 30.3547 63.6578 30.2847C63.6439 30.2147 63.6095 30.1504 63.559 30.0999C63.5085 30.0494 63.4442 30.015 63.3742 30.0011C63.3041 29.9871 63.2315 29.9943 63.1656 30.0216C63.0996 30.0489 63.0432 30.0952 63.0036 30.1546C62.9639 30.2139 62.9427 30.2837 62.9427 30.3551C62.9406 30.4031 62.9485 30.451 62.9659 30.4958C62.9833 30.5405 63.0098 30.5812 63.0437 30.6151C63.0777 30.6491 63.1183 30.6756 63.1631 30.693C63.2079 30.7104 63.2557 30.7183 63.3037 30.7161Z" stroke="#BCBEC0" stroke-width="0.283" stroke-miterlimit="10"/>
<path d="M64.2654 15.3878C64.4615 15.4161 64.6614 15.3983 64.8494 15.3358C65.0374 15.2733 65.2082 15.1678 65.3483 15.0277C65.4884 14.8877 65.5939 14.7168 65.6564 14.5289C65.7189 14.3409 65.7367 14.1409 65.7084 13.9448V5.10781C65.7084 4.94868 65.6452 4.79607 65.5326 4.68355C65.4201 4.57103 65.2675 4.50781 65.1084 4.50781H59.2164C59.0572 4.50781 58.9046 4.57103 58.7921 4.68355C58.6796 4.79607 58.6164 4.94868 58.6164 5.10781V13.9438C58.592 14.1391 58.6126 14.3374 58.6765 14.5236C58.7404 14.7097 58.846 14.8789 58.9852 15.018C59.1243 15.1572 59.2934 15.2628 59.4796 15.3267C59.6658 15.3906 59.8641 15.4112 60.0594 15.3868L64.2654 15.3878Z" fill="white"/>
<path d="M64.2654 15.3878C64.4615 15.4161 64.6614 15.3983 64.8494 15.3358C65.0374 15.2733 65.2082 15.1678 65.3483 15.0277C65.4884 14.8877 65.5939 14.7168 65.6564 14.5289C65.7189 14.3409 65.7367 14.1409 65.7084 13.9448V5.10781C65.7084 4.94868 65.6452 4.79607 65.5326 4.68355C65.4201 4.57103 65.2675 4.50781 65.1084 4.50781H59.2164C59.0572 4.50781 58.9046 4.57103 58.7921 4.68355C58.6796 4.79607 58.6164 4.94868 58.6164 5.10781V13.9438C58.592 14.1391 58.6126 14.3374 58.6765 14.5236C58.7404 14.7097 58.846 14.8789 58.9852 15.018C59.1243 15.1572 59.2934 15.2628 59.4796 15.3267C59.6658 15.3906 59.8641 15.4112 60.0594 15.3868L64.2654 15.3878Z" stroke="#BCBEC0" stroke-width="0.283" stroke-miterlimit="10"/>
<path d="M63.605 6.13086H60.777C60.2799 6.13086 59.877 6.5338 59.877 7.03086V13.1659C59.877 13.6629 60.2799 14.0659 60.777 14.0659H63.605C64.102 14.0659 64.505 13.6629 64.505 13.1659V7.03086C64.505 6.5338 64.102 6.13086 63.605 6.13086Z" fill="white"/>
<path d="M63.605 6.13086H60.777C60.2799 6.13086 59.877 6.5338 59.877 7.03086V13.1659C59.877 13.6629 60.2799 14.0659 60.777 14.0659H63.605C64.102 14.0659 64.505 13.6629 64.505 13.1659V7.03086C64.505 6.5338 64.102 6.13086 63.605 6.13086Z" stroke="#BCBEC0" stroke-width="0.283" stroke-miterlimit="10"/>
<path d="M61.2598 6.13086C61.2598 6.36955 61.3546 6.59847 61.5234 6.76726C61.6922 6.93604 61.9211 7.03086 62.1598 7.03086C62.3985 7.03086 62.6274 6.93604 62.7962 6.76726C62.9649 6.59847 63.0598 6.36955 63.0598 6.13086" stroke="#BCBEC0" stroke-width="0.283" stroke-miterlimit="10"/>
<path d="M77.2485 91.9084C77.5098 92.1198 77.8187 92.2644 78.1485 92.3294C78.3885 92.3294 79.0485 91.9083 79.0485 88.7823C79.0485 85.7163 78.3275 85.2354 78.0865 85.2354C77.7474 85.2694 77.43 85.4179 77.1865 85.6564" fill="white"/>
<path d="M77.2485 91.9084C77.5098 92.1198 77.8187 92.2644 78.1485 92.3294C78.3885 92.3294 79.0485 91.9083 79.0485 88.7823C79.0485 85.7163 78.3275 85.2354 78.0865 85.2354C77.7474 85.2694 77.43 85.4179 77.1865 85.6564" stroke="#BCBEC0" stroke-width="0.283" stroke-miterlimit="10"/>
<path d="M71.7795 85.2964C71.7239 85.295 71.6685 85.3049 71.6168 85.3256C71.5651 85.3463 71.5181 85.3772 71.4788 85.4166C71.4394 85.456 71.4084 85.5029 71.3878 85.5546C71.3671 85.6063 71.3572 85.6617 71.3585 85.7174V91.9084C71.3572 91.964 71.3671 92.0194 71.3878 92.0711C71.4084 92.1228 71.4394 92.1697 71.4788 92.2091C71.5181 92.2485 71.5651 92.2794 71.6168 92.3001C71.6685 92.3208 71.7239 92.3307 71.7795 92.3294H76.7685C77.0085 92.3294 77.6685 91.9083 77.6685 88.7823C77.6685 85.7163 76.9475 85.2354 76.7685 85.2354L71.7795 85.2964Z" fill="white"/>
<path d="M71.7795 85.2964C71.7239 85.295 71.6685 85.3049 71.6168 85.3256C71.5651 85.3463 71.5181 85.3772 71.4788 85.4166C71.4394 85.456 71.4084 85.5029 71.3878 85.5546C71.3671 85.6063 71.3572 85.6617 71.3585 85.7174V91.9084C71.3572 91.964 71.3671 92.0194 71.3878 92.0711C71.4084 92.1228 71.4394 92.1697 71.4788 92.2091C71.5181 92.2485 71.5651 92.2794 71.6168 92.3001C71.6685 92.3208 71.7239 92.3307 71.7795 92.3294H76.7685C77.0085 92.3294 77.6685 91.9083 77.6685 88.7823C77.6685 85.7163 76.9475 85.2354 76.7685 85.2354L71.7795 85.2964Z" stroke="#BCBEC0" stroke-width="0.283" stroke-miterlimit="10"/>
<path d="M70.9982 80.6047C71.2097 80.3434 71.3542 80.0345 71.4192 79.7047C71.4192 79.4647 70.9982 78.8047 67.8722 78.8047C64.8062 78.8047 64.3252 79.5257 64.3252 79.7667C64.3592 80.1058 64.5077 80.4232 64.7462 80.6667" fill="white"/>
<path d="M70.9982 80.6047C71.2097 80.3434 71.3542 80.0345 71.4192 79.7047C71.4192 79.4647 70.9982 78.8047 67.8722 78.8047C64.8062 78.8047 64.3252 79.5257 64.3252 79.7667C64.3592 80.1058 64.5077 80.4232 64.7462 80.6667" stroke="#BCBEC0" stroke-width="0.283" stroke-miterlimit="10"/>
<path d="M64.3862 86.078C64.3848 86.1336 64.3948 86.189 64.4154 86.2407C64.4361 86.2924 64.4671 86.3393 64.5064 86.3787C64.5458 86.4181 64.5928 86.449 64.6445 86.4697C64.6962 86.4904 64.7515 86.5003 64.8072 86.4989H70.9982C71.0539 86.5003 71.1092 86.4904 71.1609 86.4697C71.2126 86.449 71.2596 86.4181 71.2989 86.3787C71.3383 86.3393 71.3693 86.2924 71.3899 86.2407C71.4106 86.189 71.4206 86.1336 71.4192 86.078V81.0889C71.4192 80.8489 70.9982 80.189 67.8722 80.127C64.8062 80.127 64.3252 80.8479 64.3252 81.0269L64.3862 86.078Z" fill="white"/>
<path d="M64.3862 86.078C64.3848 86.1336 64.3948 86.189 64.4154 86.2407C64.4361 86.2924 64.4671 86.3393 64.5064 86.3787C64.5458 86.4181 64.5928 86.449 64.6445 86.4697C64.6962 86.4904 64.7515 86.5003 64.8072 86.4989H70.9982C71.0539 86.5003 71.1092 86.4904 71.1609 86.4697C71.2126 86.449 71.2596 86.4181 71.2989 86.3787C71.3383 86.3393 71.3693 86.2924 71.3899 86.2407C71.4106 86.189 71.4206 86.1336 71.4192 86.078V81.0889C71.4192 80.8489 70.9982 80.189 67.8722 80.127C64.8062 80.127 64.3252 80.8479 64.3252 81.0269L64.3862 86.078Z" stroke="#BCBEC0" stroke-width="0.283" stroke-miterlimit="10"/>
<path d="M77.2485 100.624C77.5098 100.836 77.8187 100.98 78.1485 101.045C78.3885 101.045 79.0485 100.624 79.0485 97.4981C79.0485 94.4321 78.3275 93.9521 78.0865 93.9521C77.7474 93.9862 77.43 94.1346 77.1865 94.3731" fill="white"/>
<path d="M77.2485 100.624C77.5098 100.836 77.8187 100.98 78.1485 101.045C78.3885 101.045 79.0485 100.624 79.0485 97.4981C79.0485 94.4321 78.3275 93.9521 78.0865 93.9521C77.7474 93.9862 77.43 94.1346 77.1865 94.3731" stroke="#BCBEC0" stroke-width="0.283" stroke-miterlimit="10"/>
<path d="M71.7795 94.0121C71.7239 94.0108 71.6685 94.0207 71.6168 94.0414C71.5651 94.0621 71.5181 94.093 71.4788 94.1324C71.4394 94.1718 71.4084 94.2187 71.3878 94.2704C71.3671 94.3221 71.3572 94.3775 71.3585 94.4332V100.624C71.3572 100.68 71.3671 100.735 71.3878 100.787C71.4084 100.839 71.4394 100.886 71.4788 100.925C71.5181 100.964 71.5651 100.995 71.6168 101.016C71.6685 101.037 71.7239 101.047 71.7795 101.045H76.7685C77.0085 101.045 77.6685 100.624 77.6685 97.4981C77.6685 94.4321 76.9475 93.9521 76.7685 93.9521L71.7795 94.0121Z" fill="white"/>
<path d="M71.7795 94.0121C71.7239 94.0108 71.6685 94.0207 71.6168 94.0414C71.5651 94.0621 71.5181 94.093 71.4788 94.1324C71.4394 94.1718 71.4084 94.2187 71.3878 94.2704C71.3671 94.3221 71.3572 94.3775 71.3585 94.4332V100.624C71.3572 100.68 71.3671 100.735 71.3878 100.787C71.4084 100.839 71.4394 100.886 71.4788 100.925C71.5181 100.964 71.5651 100.995 71.6168 101.016C71.6685 101.037 71.7239 101.047 71.7795 101.045H76.7685C77.0085 101.045 77.6685 100.624 77.6685 97.4981C77.6685 94.4321 76.9475 93.9521 76.7685 93.9521L71.7795 94.0121Z" stroke="#BCBEC0" stroke-width="0.283" stroke-miterlimit="10"/>
<path d="M58.8557 91.9084C58.5944 92.1198 58.2855 92.2644 57.9557 92.3294C57.7157 92.3294 57.0557 91.9083 57.0557 88.7823C57.0557 85.7163 57.7767 85.2354 58.0177 85.2354C58.3568 85.2694 58.6742 85.4179 58.9177 85.6564" fill="white"/>
<path d="M58.8557 91.9084C58.5944 92.1198 58.2855 92.2644 57.9557 92.3294C57.7157 92.3294 57.0557 91.9083 57.0557 88.7823C57.0557 85.7163 57.7767 85.2354 58.0177 85.2354C58.3568 85.2694 58.6742 85.4179 58.9177 85.6564" stroke="#BCBEC0" stroke-width="0.283" stroke-miterlimit="10"/>
<path d="M64.3215 85.2964C64.3772 85.295 64.4325 85.3049 64.4842 85.3256C64.5359 85.3463 64.5829 85.3772 64.6223 85.4166C64.6616 85.456 64.6926 85.5029 64.7133 85.5546C64.7339 85.6063 64.7439 85.6617 64.7425 85.7174V91.9084C64.7439 91.964 64.7339 92.0194 64.7133 92.0711C64.6926 92.1228 64.6616 92.1697 64.6223 92.2091C64.5829 92.2485 64.5359 92.2794 64.4842 92.3001C64.4325 92.3208 64.3772 92.3307 64.3215 92.3294H59.3365C59.0965 92.3294 58.4365 91.9083 58.4365 88.7823C58.4365 85.7163 59.1575 85.2354 59.3365 85.2354L64.3215 85.2964Z" fill="white"/>
<path d="M64.3215 85.2964C64.3772 85.295 64.4325 85.3049 64.4842 85.3256C64.5359 85.3463 64.5829 85.3772 64.6223 85.4166C64.6616 85.456 64.6926 85.5029 64.7133 85.5546C64.7339 85.6063 64.7439 85.6617 64.7425 85.7174V91.9084C64.7439 91.964 64.7339 92.0194 64.7133 92.0711C64.6926 92.1228 64.6616 92.1697 64.6223 92.2091C64.5829 92.2485 64.5359 92.2794 64.4842 92.3001C64.4325 92.3208 64.3772 92.3307 64.3215 92.3294H59.3365C59.0965 92.3294 58.4365 91.9083 58.4365 88.7823C58.4365 85.7163 59.1575 85.2354 59.3365 85.2354L64.3215 85.2964Z" stroke="#BCBEC0" stroke-width="0.283" stroke-miterlimit="10"/>
<path d="M58.8557 100.624C58.5944 100.836 58.2855 100.98 57.9557 101.045C57.7157 101.045 57.0557 100.624 57.0557 97.4981C57.0557 94.4321 57.7767 93.9521 58.0177 93.9521C58.3568 93.9862 58.6742 94.1346 58.9177 94.3731" fill="white"/>
<path d="M58.8557 100.624C58.5944 100.836 58.2855 100.98 57.9557 101.045C57.7157 101.045 57.0557 100.624 57.0557 97.4981C57.0557 94.4321 57.7767 93.9521 58.0177 93.9521C58.3568 93.9862 58.6742 94.1346 58.9177 94.3731" stroke="#BCBEC0" stroke-width="0.283" stroke-miterlimit="10"/>
<path d="M64.3215 94.0121C64.3772 94.0108 64.4325 94.0207 64.4842 94.0414C64.5359 94.0621 64.5829 94.093 64.6223 94.1324C64.6616 94.1718 64.6926 94.2187 64.7133 94.2704C64.7339 94.3221 64.7439 94.3775 64.7425 94.4332V100.624C64.7439 100.68 64.7339 100.735 64.7133 100.787C64.6926 100.839 64.6616 100.886 64.6223 100.925C64.5829 100.964 64.5359 100.995 64.4842 101.016C64.4325 101.037 64.3772 101.047 64.3215 101.045H59.3365C59.0965 101.045 58.4365 100.624 58.4365 97.4981C58.4365 94.4321 59.1575 93.9521 59.3365 93.9521L64.3215 94.0121Z" fill="white"/>
<path d="M64.3215 94.0121C64.3772 94.0108 64.4325 94.0207 64.4842 94.0414C64.5359 94.0621 64.5829 94.093 64.6223 94.1324C64.6616 94.1718 64.6926 94.2187 64.7133 94.2704C64.7339 94.3221 64.7439 94.3775 64.7425 94.4332V100.624C64.7439 100.68 64.7339 100.735 64.7133 100.787C64.6926 100.839 64.6616 100.886 64.6223 100.925C64.5829 100.964 64.5359 100.995 64.4842 101.016C64.4325 101.037 64.3772 101.047 64.3215 101.045H59.3365C59.0965 101.045 58.4365 100.624 58.4365 97.4981C58.4365 94.4321 59.1575 93.9521 59.3365 93.9521L64.3215 94.0121Z" stroke="#BCBEC0" stroke-width="0.283" stroke-miterlimit="10"/>
<path d="M74.6652 83.1328H61.2002V103.21H74.6652V83.1328Z" fill="white"/>
<path d="M74.6652 83.1328H61.2002V103.21H74.6652V83.1328Z" stroke="#BCBEC0" stroke-width="0.283" stroke-miterlimit="10"/>
<path d="M46.1132 63.2363H28.7412V73.6953H46.1132V63.2363Z" fill="white"/>
<path d="M46.1132 63.2363H28.7412V73.6953H46.1132V63.2363Z" stroke="#BCBEC0" stroke-width="0.283" stroke-miterlimit="10"/>
<path d="M39.1391 90.3457H28.6201V100.865H39.1391V90.3457Z" fill="white"/>
<path d="M39.1391 90.3457H28.6201V100.865H39.1391V90.3457Z" stroke="#BCBEC0" stroke-width="0.283" stroke-miterlimit="10"/>
<path d="M39.1391 90.3457H28.6201V100.865H39.1391V90.3457Z" stroke="#BCBEC0" stroke-width="0.283" stroke-miterlimit="10"/>
<path d="M36.6375 91.2471H31.1215C30.2378 91.2471 29.5215 91.9634 29.5215 92.8471V98.3631C29.5215 99.2467 30.2378 99.9631 31.1215 99.9631H36.6375C37.5211 99.9631 38.2375 99.2467 38.2375 98.3631V92.8471C38.2375 91.9634 37.5211 91.2471 36.6375 91.2471Z" fill="white"/>
<path d="M36.6375 91.2471H31.1215C30.2378 91.2471 29.5215 91.9634 29.5215 92.8471V98.3631C29.5215 99.2467 30.2378 99.9631 31.1215 99.9631H36.6375C37.5211 99.9631 38.2375 99.2467 38.2375 98.3631V92.8471C38.2375 91.9634 37.5211 91.2471 36.6375 91.2471Z" stroke="#BCBEC0" stroke-width="0.283" stroke-miterlimit="10"/>
<path d="M36.6375 91.2471H31.1215C30.2378 91.2471 29.5215 91.9634 29.5215 92.8471V98.3631C29.5215 99.2467 30.2378 99.9631 31.1215 99.9631H36.6375C37.5211 99.9631 38.2375 99.2467 38.2375 98.3631V92.8471C38.2375 91.9634 37.5211 91.2471 36.6375 91.2471Z" stroke="#BCBEC0" stroke-width="0.283" stroke-miterlimit="10"/>
<path d="M31.4463 92.5702C31.4463 92.6772 31.4145 92.7818 31.3551 92.8708C31.2956 92.9597 31.2111 93.0291 31.1123 93.07C31.0134 93.111 30.9047 93.1217 30.7997 93.1008C30.6948 93.0799 30.5984 93.0284 30.5227 92.9527C30.4471 92.8771 30.3955 92.7807 30.3747 92.6758C30.3538 92.5708 30.3645 92.462 30.4054 92.3632C30.4464 92.2643 30.5157 92.1798 30.6047 92.1204C30.6937 92.0609 30.7983 92.0292 30.9053 92.0292C31.1453 91.9692 31.4463 92.2692 31.4463 92.5702Z" stroke="#BCBEC0" stroke-width="0.283" stroke-miterlimit="10"/>
<path d="M32.4067 95.1553H29.2207V95.9973H32.4067V95.1553Z" fill="white"/>
<path d="M32.4067 95.1553H29.2207V95.9973H32.4067V95.1553Z" stroke="#BCBEC0" stroke-width="0.283" stroke-miterlimit="10"/>
<path d="M39.1402 73.6953H28.7412V90.3463H39.1402V73.6953Z" fill="white"/>
<path d="M39.1402 73.6953H28.7412V90.3463H39.1402V73.6953Z" stroke="#BCBEC0" stroke-width="0.283" stroke-miterlimit="10"/>
<path d="M39.1402 100.805H28.7412V103.27H39.1402V100.805Z" fill="white"/>
<path d="M39.1402 100.805H28.7412V103.27H39.1402V100.805Z" stroke="#BCBEC0" stroke-width="0.283" stroke-miterlimit="10"/>
<path d="M35.9536 74.7168C36.2628 74.7168 36.5649 74.8085 36.822 74.9802C37.079 75.152 37.2793 75.3961 37.3976 75.6817C37.5159 75.9673 37.5469 76.2815 37.4866 76.5847C37.4263 76.8879 37.2774 77.1664 37.0588 77.385C36.8402 77.6036 36.5617 77.7525 36.2585 77.8128C35.9554 77.8731 35.6411 77.8421 35.3555 77.7238C35.0699 77.6055 34.8258 77.4052 34.654 77.1481C34.4823 76.8911 34.3906 76.5889 34.3906 76.2798C34.3906 76.0745 34.4311 75.8713 34.5096 75.6817C34.5881 75.492 34.7033 75.3197 34.8484 75.1746C34.9936 75.0294 35.1659 74.9143 35.3555 74.8358C35.5451 74.7572 35.7484 74.7168 35.9536 74.7168Z" fill="white"/>
<path d="M35.9536 77.8428C36.8168 77.8428 37.5166 77.143 37.5166 76.2798C37.5166 75.4166 36.8168 74.7168 35.9536 74.7168C35.0904 74.7168 34.3906 75.4166 34.3906 76.2798C34.3906 77.143 35.0904 77.8428 35.9536 77.8428Z" stroke="#BCBEC0" stroke-width="0.283" stroke-miterlimit="10"/>
<path d="M31.8062 77.8428C31.497 77.8428 31.1948 77.7511 30.9378 77.5794C30.6808 77.4076 30.4804 77.1635 30.3621 76.8779C30.2438 76.5923 30.2129 76.2781 30.2732 75.9749C30.3335 75.6717 30.4824 75.3932 30.701 75.1746C30.9195 74.956 31.198 74.8071 31.5012 74.7468C31.8044 74.6865 32.1187 74.7175 32.4043 74.8358C32.6899 74.9541 32.934 75.1544 33.1058 75.4114C33.2775 75.6685 33.3692 75.9707 33.3692 76.2798C33.3706 76.4855 33.3312 76.6894 33.2532 76.8797C33.1751 77.07 33.0601 77.2428 32.9146 77.3883C32.7692 77.5337 32.5963 77.6488 32.406 77.7268C32.2157 77.8048 32.0118 77.8443 31.8062 77.8428Z" fill="white"/>
<path d="M31.8062 77.8428C32.6694 77.8428 33.3692 77.143 33.3692 76.2798C33.3692 75.4166 32.6694 74.7168 31.8062 74.7168C30.9429 74.7168 30.2432 75.4166 30.2432 76.2798C30.2432 77.143 30.9429 77.8428 31.8062 77.8428Z" stroke="#BCBEC0" stroke-width="0.283" stroke-miterlimit="10"/>
<path d="M35.9536 79.0449C36.2628 79.0449 36.5649 79.1366 36.822 79.3083C37.079 79.4801 37.2793 79.7242 37.3976 80.0098C37.5159 80.2954 37.5469 80.6096 37.4866 80.9128C37.4263 81.216 37.2774 81.4945 37.0588 81.7131C36.8402 81.9317 36.5617 82.0806 36.2585 82.1409C35.9554 82.2012 35.6411 82.1702 35.3555 82.0519C35.0699 81.9336 34.8258 81.7333 34.654 81.4763C34.4823 81.2192 34.3906 80.9171 34.3906 80.6079C34.3906 80.4027 34.4311 80.1994 34.5096 80.0098C34.5881 79.8201 34.7033 79.6479 34.8484 79.5027C34.9936 79.3576 35.1659 79.2424 35.3555 79.1639C35.5451 79.0853 35.7484 79.0449 35.9536 79.0449Z" fill="white"/>
<path d="M35.9536 82.1709C36.8168 82.1709 37.5166 81.4711 37.5166 80.6079C37.5166 79.7447 36.8168 79.0449 35.9536 79.0449C35.0904 79.0449 34.3906 79.7447 34.3906 80.6079C34.3906 81.4711 35.0904 82.1709 35.9536 82.1709Z" stroke="#BCBEC0" stroke-width="0.283" stroke-miterlimit="10"/>
<path d="M31.8062 82.1709C31.497 82.1709 31.1948 82.0793 30.9378 81.9075C30.6808 81.7358 30.4804 81.4917 30.3621 81.2061C30.2438 80.9205 30.2129 80.6062 30.2732 80.303C30.3335 79.9998 30.4824 79.7213 30.701 79.5027C30.9195 79.2841 31.198 79.1353 31.5012 79.075C31.8044 79.0146 32.1187 79.0456 32.4043 79.1639C32.6899 79.2822 32.934 79.4825 33.1058 79.7396C33.2775 79.9966 33.3692 80.2988 33.3692 80.6079C33.3706 80.8136 33.3312 81.0175 33.2532 81.2078C33.1751 81.3981 33.0601 81.571 32.9146 81.7164C32.7692 81.8618 32.5963 81.9769 32.406 82.0549C32.2157 82.133 32.0118 82.1724 31.8062 82.1709Z" fill="white"/>
<path d="M31.8062 82.1709C32.6694 82.1709 33.3692 81.4711 33.3692 80.6079C33.3692 79.7447 32.6694 79.0449 31.8062 79.0449C30.9429 79.0449 30.2432 79.7447 30.2432 80.6079C30.2432 81.4711 30.9429 82.1709 31.8062 82.1709Z" stroke="#BCBEC0" stroke-width="0.283" stroke-miterlimit="10"/>
<path d="M39.1388 83.3135H28.7998" stroke="#BCBEC0" stroke-width="0.283" stroke-miterlimit="10"/>
<path d="M56.6313 63.2363H46.1123V73.7553H56.6313V63.2363Z" fill="white"/>
<path d="M56.6313 63.2363H46.1123V73.7553H56.6313V63.2363Z" stroke="#BCBEC0" stroke-width="0.283" stroke-miterlimit="10"/>
<path d="M52.2426 69.0673L50.5596 67.4443" stroke="#BCBEC0" stroke-width="0.283" stroke-miterlimit="10" stroke-linecap="round"/>
<path d="M52.2426 67.4443L50.5596 69.0673" stroke="#BCBEC0" stroke-width="0.283" stroke-miterlimit="10" stroke-linecap="round"/>
<path d="M51.4023 66.3018V70.2088" stroke="#BCBEC0" stroke-width="0.283" stroke-miterlimit="10" stroke-linecap="round"/>
<path d="M49.4775 68.2852H53.3245" stroke="#BCBEC0" stroke-width="0.283" stroke-miterlimit="10" stroke-linecap="round"/>
<path d="M48.5044 21.636H47.9414V22.36H47.5414V21.636H45.9004V21.341L47.4064 19.416H47.8604L46.4174 21.276H47.5494V20.636H47.9494V21.276H48.5094L48.5044 21.636Z" fill="black"/>
<path d="M49.3181 21.8909C49.3691 21.9449 49.3971 22.0167 49.3961 22.0909C49.3966 22.132 49.3919 22.1731 49.3821 22.213C49.3721 22.252 49.3531 22.313 49.3251 22.395L49.1251 22.979H48.8601L49.0161 22.352C48.9635 22.3331 48.9184 22.2981 48.8871 22.2519C48.8543 22.2044 48.8375 22.1477 48.8391 22.09C48.8377 22.052 48.844 22.0141 48.8578 21.9787C48.8716 21.9433 48.8924 21.911 48.9191 21.8839C48.9452 21.8577 48.9764 21.8371 49.0108 21.8233C49.0452 21.8096 49.082 21.803 49.1191 21.804C49.1563 21.8023 49.1935 21.8088 49.2281 21.823C49.2626 21.8372 49.2936 21.8586 49.3191 21.886" fill="black"/>
<path d="M50.6543 19.416V22.361H50.2373V19.78H49.5723V19.416H50.6543Z" fill="black"/>
<path d="M51.8796 22.2151C51.6904 22.0857 51.5422 21.9049 51.4526 21.6941C51.245 21.1757 51.245 20.5974 51.4526 20.0791C51.5423 19.8687 51.6905 19.6886 51.8796 19.5601C52.0646 19.443 52.2791 19.3809 52.4981 19.3809C52.717 19.3809 52.9315 19.443 53.1166 19.5601C53.3054 19.6889 53.4536 19.8689 53.5436 20.0791C53.7511 20.5974 53.7511 21.1757 53.5436 21.6941C53.4539 21.9049 53.3057 22.0857 53.1166 22.2151C52.9312 22.3313 52.7168 22.393 52.4981 22.393C52.2793 22.393 52.0649 22.3313 51.8796 22.2151ZM53.0666 21.7291C53.2062 21.4706 53.2794 21.1814 53.2794 20.8876C53.2794 20.5937 53.2062 20.3045 53.0666 20.0461C53.0017 19.956 52.9164 19.8827 52.8176 19.8321C52.7189 19.7815 52.6095 19.7552 52.4986 19.7552C52.3876 19.7552 52.2782 19.7815 52.1795 19.8321C52.0807 19.8827 51.9954 19.956 51.9306 20.0461C51.7913 20.3047 51.7184 20.5938 51.7184 20.8876C51.7184 21.1813 51.7913 21.4704 51.9306 21.7291C51.9954 21.8191 52.0807 21.8924 52.1795 21.943C52.2782 21.9936 52.3876 22.0199 52.4986 22.0199C52.6095 22.0199 52.7189 21.9936 52.8176 21.943C52.9164 21.8924 53.0017 21.8191 53.0666 21.7291Z" fill="black"/>
<path d="M36.6246 49.1224H36.0646V49.8464H35.6566V49.1224H34.0186V48.8274L35.5246 46.9004H35.9786L34.5356 48.7604H35.6676V48.1204H36.0676V48.7604H36.6276L36.6246 49.1224Z" fill="black"/>
<path d="M37.4372 49.3763C37.4883 49.4303 37.5163 49.502 37.5152 49.5763C37.5158 49.6174 37.5111 49.6584 37.5012 49.6983C37.4912 49.7373 37.4722 49.7983 37.4442 49.8803L37.2442 50.4643H36.9792L37.1352 49.8373C37.0827 49.8185 37.0375 49.7835 37.0062 49.7373C36.9734 49.6898 36.9566 49.633 36.9582 49.5753C36.9568 49.5373 36.9632 49.4995 36.9769 49.464C36.9907 49.4286 37.0115 49.3964 37.0382 49.3693C37.0643 49.3431 37.0955 49.3224 37.1299 49.3087C37.1643 49.2949 37.2012 49.2883 37.2382 49.2893C37.2755 49.2877 37.3127 49.2942 37.3472 49.3083C37.3817 49.3225 37.4128 49.344 37.4382 49.3713" fill="black"/>
<path d="M39.684 48.3114C39.7818 48.3884 39.8599 48.4874 39.912 48.6004C39.9641 48.7133 39.9888 48.837 39.984 48.9614C39.9864 49.1261 39.9435 49.2883 39.86 49.4304C39.7711 49.5747 39.6408 49.689 39.486 49.7584C39.2922 49.8439 39.0818 49.8849 38.87 49.8784C38.6663 49.8793 38.4637 49.8476 38.27 49.7844C38.0935 49.7309 37.9301 49.6414 37.79 49.5214L37.984 49.1894C38.096 49.2913 38.2277 49.3693 38.371 49.4184C38.5312 49.4767 38.7006 49.5058 38.871 49.5044C39.0536 49.5154 39.2346 49.4659 39.386 49.3634C39.4454 49.3188 39.4931 49.2605 39.5249 49.1934C39.5568 49.1263 39.5719 49.0526 39.569 48.9784C39.5731 48.9001 39.5568 48.8221 39.5217 48.752C39.4867 48.6819 39.4341 48.6221 39.369 48.5784C39.1561 48.47 38.9172 48.423 38.679 48.4424H38.01L38.166 46.9014H39.828V47.2684H38.509L38.429 48.0754H38.757C39.0839 48.0494 39.4101 48.1331 39.684 48.3134" fill="black"/>
<path d="M40.9118 49.6994C40.7226 49.5701 40.5745 49.3893 40.4848 49.1784C40.2772 48.6601 40.2772 48.0818 40.4848 47.5634C40.5745 47.3531 40.7227 47.173 40.9118 47.0444C41.0968 46.9274 41.3113 46.8652 41.5303 46.8652C41.7493 46.8652 41.9637 46.9274 42.1488 47.0444C42.3377 47.1732 42.4858 47.3533 42.5758 47.5634C42.7834 48.0818 42.7834 48.6601 42.5758 49.1784C42.4861 49.3893 42.3379 49.5701 42.1488 49.6994C41.9634 49.8157 41.7491 49.8773 41.5303 49.8773C41.3115 49.8773 41.0971 49.8157 40.9118 49.6994ZM42.0988 49.2134C42.2385 48.9549 42.3116 48.6657 42.3116 48.3719C42.3116 48.0781 42.2385 47.7889 42.0988 47.5304C42.0339 47.4404 41.9486 47.3671 41.8499 47.3165C41.7511 47.2659 41.6417 47.2395 41.5308 47.2395C41.4198 47.2395 41.3105 47.2659 41.2117 47.3165C41.113 47.3671 41.0276 47.4404 40.9628 47.5304C40.8235 47.7891 40.7506 48.0782 40.7506 48.3719C40.7506 48.6657 40.8235 48.9548 40.9628 49.2134C41.0276 49.3035 41.113 49.3768 41.2117 49.4274C41.3105 49.4779 41.4198 49.5043 41.5308 49.5043C41.6417 49.5043 41.7511 49.4779 41.8499 49.4274C41.9486 49.3768 42.0339 49.3035 42.0988 49.2134Z" fill="black"/>
<path d="M45.467 82.2071C45.5422 82.2821 45.6012 82.3718 45.6402 82.4705C45.6793 82.5693 45.6976 82.675 45.694 82.7811C45.6961 82.9423 45.6524 83.1008 45.568 83.2381C45.4767 83.3803 45.3461 83.4928 45.192 83.5621C44.9992 83.6473 44.7898 83.6883 44.579 83.6821C44.3733 83.6831 44.1688 83.6514 43.973 83.5881C43.7978 83.5352 43.6359 83.4456 43.498 83.3251L43.692 82.9931C43.8041 83.095 43.9358 83.1729 44.079 83.2221C44.2394 83.2799 44.4086 83.309 44.579 83.3081C44.7602 83.3192 44.94 83.2707 45.091 83.1701C45.1504 83.126 45.1981 83.068 45.2299 83.0013C45.2618 82.9345 45.277 82.861 45.274 82.7871C45.2775 82.7139 45.2628 82.641 45.2312 82.5749C45.1996 82.5087 45.1522 82.4515 45.093 82.4081C44.9293 82.307 44.738 82.2598 44.5461 82.2731H44.3101V81.9781L45.051 81.0691H43.634V80.7031H45.578V80.9901L44.8081 81.9411C45.0527 81.9505 45.2865 82.0449 45.469 82.2081" fill="black"/>
<path d="M46.5631 83.1781C46.6142 83.232 46.6422 83.3038 46.6411 83.3781C46.6417 83.4192 46.637 83.4602 46.6271 83.5001C46.6171 83.5391 46.5981 83.6001 46.5701 83.6821L46.3701 84.2661H46.1071L46.2631 83.6391C46.2106 83.6203 46.1654 83.5852 46.1341 83.5391C46.1013 83.4915 46.0845 83.4348 46.0861 83.3771C46.0847 83.3391 46.0911 83.3012 46.1049 83.2658C46.1186 83.2304 46.1395 83.1981 46.1661 83.1711C46.1923 83.1448 46.2235 83.1242 46.2579 83.1104C46.2923 83.0967 46.3291 83.0901 46.3661 83.0911C46.4034 83.0895 46.4406 83.096 46.4751 83.1101C46.5097 83.1243 46.5407 83.1457 46.5661 83.1731" fill="black"/>
<path d="M49.2668 82.3812C49.3584 82.507 49.4058 82.6596 49.4018 82.8152C49.4055 82.9803 49.3552 83.1422 49.2588 83.2762C49.154 83.4129 49.0125 83.5169 48.8508 83.5762C48.6513 83.6486 48.4399 83.6825 48.2278 83.6762C48.0179 83.6824 47.8088 83.6485 47.6118 83.5762C47.4508 83.5165 47.3101 83.4125 47.2058 83.2762C47.1093 83.1422 47.0591 82.9803 47.0628 82.8152C47.0586 82.6601 47.1049 82.5078 47.1948 82.3812C47.2935 82.2533 47.4273 82.1567 47.5798 82.1032C47.4558 82.0477 47.3496 81.9592 47.2728 81.8472C47.2006 81.7342 47.1637 81.6023 47.1668 81.4682C47.1636 81.3158 47.2103 81.1666 47.2998 81.0432C47.395 80.9173 47.524 80.8209 47.6718 80.7652C47.8486 80.6963 48.037 80.6624 48.2268 80.6652C48.4188 80.6623 48.6096 80.6962 48.7888 80.7652C48.9373 80.8206 49.067 80.917 49.1628 81.0432C49.2518 81.1667 49.2982 81.316 49.2948 81.4682C49.2973 81.6017 49.2601 81.733 49.1878 81.8452C49.11 81.958 49.0028 82.0473 48.8778 82.1032C49.0307 82.157 49.165 82.2535 49.2648 82.3812M48.7768 83.1952C48.8404 83.1518 48.8921 83.093 48.927 83.0243C48.962 82.9556 48.9791 82.8792 48.9768 82.8022C48.9789 82.7263 48.9617 82.6511 48.9267 82.5837C48.8917 82.5164 48.8401 82.4591 48.7768 82.4172C48.6118 82.3151 48.4195 82.2659 48.2258 82.2762C48.0332 82.2653 47.842 82.3146 47.6788 82.4172C47.6156 82.4593 47.5641 82.5166 47.5292 82.5839C47.4942 82.6513 47.4768 82.7264 47.4788 82.8022C47.4767 82.8792 47.4939 82.9555 47.5288 83.0241C47.5638 83.0928 47.6153 83.1516 47.6788 83.1952C47.841 83.3006 48.0326 83.3514 48.2258 83.3402C48.4201 83.3508 48.6128 83.3001 48.7768 83.1952ZM47.7548 81.1372C47.6996 81.1764 47.6549 81.2285 47.6248 81.289C47.5946 81.3496 47.5798 81.4166 47.5818 81.4842C47.5796 81.5512 47.594 81.6177 47.6239 81.6778C47.6537 81.7378 47.698 81.7895 47.7528 81.8282C47.8927 81.9201 48.0586 81.9643 48.2258 81.9542C48.3954 81.9644 48.5639 81.9202 48.7068 81.8282C48.7626 81.7903 48.8079 81.7389 48.8385 81.6787C48.8691 81.6186 48.884 81.5517 48.8818 81.4842C48.8835 81.416 48.868 81.3484 48.8367 81.2878C48.8054 81.2271 48.7593 81.1754 48.7028 81.1372C48.5608 81.0455 48.3936 81.0007 48.2248 81.0092C48.0581 81 47.8939 81.0449 47.7548 81.1372Z" fill="black"/>
<path d="M52.355 82.9241H51.795V83.6481H51.385V82.9241H49.751V82.6292L51.257 80.7021H51.711L50.268 82.5621H51.4V81.9221H51.8V82.5621H52.36L52.355 82.9241Z" fill="black"/>
<path d="M99.3652 82.3359V85.2809H98.9482V82.7019H98.2832V82.3359H99.3652Z" fill="black"/>
<path d="M100.59 85.136C100.401 85.0066 100.253 84.8258 100.163 84.6149C99.9559 84.0966 99.9559 83.5183 100.163 83C100.253 82.7898 100.402 82.6098 100.59 82.481C100.776 82.3639 100.99 82.3018 101.209 82.3018C101.428 82.3018 101.642 82.3639 101.827 82.481C102.016 82.6098 102.165 82.7898 102.255 83C102.462 83.5183 102.462 84.0966 102.255 84.6149C102.165 84.8258 102.017 85.0066 101.827 85.136C101.642 85.2522 101.428 85.3139 101.209 85.3139C100.99 85.3139 100.776 85.2522 100.59 85.136ZM101.777 84.6499C101.917 84.3915 101.99 84.1023 101.99 83.8085C101.99 83.5146 101.917 83.2254 101.777 82.9669C101.713 82.8769 101.627 82.8036 101.529 82.753C101.43 82.7024 101.32 82.6761 101.21 82.6761C101.099 82.6761 100.989 82.7024 100.89 82.753C100.792 82.8036 100.706 82.8769 100.641 82.9669C100.502 83.2256 100.429 83.5147 100.429 83.8085C100.429 84.1022 100.502 84.3913 100.641 84.6499C100.706 84.74 100.792 84.8133 100.89 84.8639C100.989 84.9145 101.099 84.9408 101.21 84.9408C101.32 84.9408 101.43 84.9145 101.529 84.8639C101.627 84.8133 101.713 84.74 101.777 84.6499Z" fill="black"/>
<path d="M103.243 84.8118C103.294 84.8658 103.322 84.9375 103.321 85.0118C103.321 85.053 103.316 85.094 103.306 85.1338C103.297 85.1728 103.278 85.2338 103.25 85.3158L103.05 85.8998H102.784L102.94 85.2728C102.888 85.2538 102.843 85.2188 102.812 85.1728C102.779 85.1254 102.762 85.0687 102.763 85.0108C102.762 84.9728 102.768 84.9349 102.782 84.8995C102.796 84.864 102.817 84.8318 102.844 84.8048C102.87 84.7786 102.901 84.758 102.936 84.7442C102.97 84.7304 103.007 84.7238 103.044 84.7248C103.081 84.7233 103.118 84.7298 103.153 84.744C103.187 84.7581 103.218 84.7796 103.244 84.8068" fill="black"/>
<path d="M104.251 85.136C104.061 85.0066 103.913 84.8258 103.824 84.6149C103.616 84.0966 103.616 83.5183 103.824 83C103.914 82.7898 104.062 82.6098 104.251 82.481C104.436 82.3639 104.65 82.3018 104.869 82.3018C105.088 82.3018 105.303 82.3639 105.488 82.481C105.676 82.6098 105.825 82.7898 105.915 83C106.122 83.5183 106.122 84.0966 105.915 84.6149C105.825 84.8258 105.677 85.0066 105.488 85.136C105.302 85.2522 105.088 85.3139 104.869 85.3139C104.65 85.3139 104.436 85.2522 104.251 85.136ZM105.438 84.6499C105.577 84.3915 105.65 84.1023 105.65 83.8085C105.65 83.5146 105.577 83.2254 105.438 82.9669C105.373 82.8769 105.287 82.8036 105.189 82.753C105.09 82.7024 104.981 82.6761 104.87 82.6761C104.759 82.6761 104.649 82.7024 104.551 82.753C104.452 82.8036 104.366 82.8769 104.302 82.9669C104.162 83.2256 104.089 83.5147 104.089 83.8085C104.089 84.1022 104.162 84.3913 104.302 84.6499C104.366 84.74 104.452 84.8133 104.551 84.8639C104.649 84.9145 104.759 84.9408 104.87 84.9408C104.981 84.9408 105.09 84.9145 105.189 84.8639C105.287 84.8133 105.373 84.74 105.438 84.6499Z" fill="black"/>
<path d="M108.266 83.6031C108.415 83.671 108.542 83.7813 108.629 83.9204C108.716 84.0594 108.76 84.221 108.756 84.3851C108.76 84.558 108.713 84.7281 108.62 84.8741C108.528 85.0154 108.399 85.1282 108.246 85.2001C108.08 85.2787 107.898 85.318 107.714 85.3151C107.542 85.3253 107.371 85.2961 107.212 85.2297C107.054 85.1633 106.912 85.0615 106.799 84.9321C106.566 84.6203 106.452 84.2355 106.477 83.8471C106.468 83.5572 106.528 83.2694 106.652 83.0071C106.758 82.7867 106.927 82.6034 107.139 82.4811C107.362 82.3584 107.614 82.2966 107.869 82.3021C108.004 82.3015 108.138 82.3163 108.269 82.3461C108.385 82.3714 108.495 82.415 108.597 82.4751L108.437 82.8031C108.267 82.7029 108.071 82.6549 107.873 82.6651C107.74 82.6578 107.606 82.6794 107.482 82.7284C107.358 82.7775 107.246 82.8527 107.153 82.9491C106.964 83.1816 106.871 83.4773 106.892 83.7761C106.89 83.8094 106.89 83.8428 106.892 83.8761C106.978 83.7488 107.098 83.6488 107.239 83.5881C107.397 83.5197 107.567 83.4856 107.739 83.4881C107.918 83.4848 108.096 83.522 108.258 83.5971M108.158 84.8131C108.218 84.7616 108.265 84.6974 108.296 84.6252C108.327 84.553 108.342 84.4747 108.339 84.3961C108.342 84.3175 108.328 84.2393 108.296 84.1673C108.264 84.0954 108.216 84.0317 108.156 83.9811C108.017 83.8726 107.843 83.8179 107.666 83.8271C107.545 83.8249 107.425 83.8509 107.315 83.9031C107.218 83.9491 107.135 84.0202 107.075 84.1091C107.02 84.195 106.991 84.2947 106.991 84.3966C106.991 84.4985 107.02 84.5982 107.075 84.6841C107.134 84.7738 107.217 84.8452 107.315 84.8901C107.433 84.9449 107.562 84.9716 107.692 84.9681C107.863 84.9753 108.03 84.9198 108.163 84.8121" fill="black"/>
<path d="M123.661 80.8227V81.1887H121.545V80.8997L122.745 79.7417C122.863 79.6375 122.963 79.5145 123.04 79.3777C123.089 79.2817 123.115 79.1756 123.116 79.0677C123.12 78.9993 123.107 78.9311 123.078 78.8687C123.05 78.8063 123.008 78.7514 122.954 78.7087C122.818 78.6145 122.654 78.5691 122.489 78.5797C122.348 78.5716 122.206 78.5962 122.075 78.6517C121.945 78.7072 121.829 78.7921 121.736 78.8997L121.45 78.6517C121.571 78.5066 121.727 78.3939 121.902 78.3237C122.101 78.243 122.313 78.2028 122.527 78.2057C122.791 78.1916 123.051 78.2698 123.263 78.4267C123.353 78.4982 123.424 78.5898 123.471 78.6941C123.519 78.7983 123.541 78.9123 123.536 79.0267C123.537 79.181 123.503 79.3335 123.436 79.4727C123.337 79.6536 123.208 79.816 123.053 79.9527L122.153 80.8187L123.661 80.8227Z" fill="black"/>
<path d="M124.525 80.7191C124.576 80.773 124.604 80.8448 124.603 80.9191C124.603 80.9602 124.598 81.0012 124.588 81.0411C124.579 81.0801 124.56 81.1411 124.532 81.2231L124.332 81.8071H124.066L124.222 81.1801C124.17 81.161 124.125 81.126 124.094 81.0801C124.061 81.0326 124.044 80.9759 124.045 80.9181C124.044 80.88 124.05 80.8421 124.064 80.8067C124.078 80.7713 124.099 80.7391 124.126 80.7121C124.152 80.6858 124.183 80.6652 124.218 80.6514C124.252 80.6377 124.289 80.6311 124.326 80.6321C124.363 80.6305 124.401 80.637 124.435 80.6512C124.47 80.6653 124.501 80.6868 124.526 80.7141" fill="black"/>
<path d="M127.094 78.2432V78.5302L125.903 81.1892H125.457L126.623 78.6102H125.277V79.1362H124.877V78.2442L127.094 78.2432Z" fill="black"/>
<path d="M129.534 80.8228V81.1888H127.417V80.8998L128.617 79.7418C128.735 79.6373 128.834 79.5144 128.912 79.3778C128.961 79.2818 128.987 79.1756 128.988 79.0678C128.992 78.9994 128.979 78.9312 128.951 78.8687C128.922 78.8063 128.88 78.7515 128.826 78.7088C128.69 78.6146 128.526 78.5691 128.361 78.5798C128.22 78.5716 128.078 78.5963 127.947 78.6518C127.817 78.7073 127.701 78.7921 127.608 78.8998L127.321 78.6518C127.443 78.5067 127.599 78.394 127.774 78.3238C127.973 78.2428 128.185 78.2026 128.399 78.2058C128.663 78.1915 128.924 78.2696 129.136 78.4268C129.226 78.4984 129.297 78.59 129.344 78.6942C129.392 78.7985 129.414 78.9124 129.409 79.0268C129.41 79.1811 129.376 79.3336 129.309 79.4728C129.211 79.6538 129.081 79.8163 128.926 79.9528L128.026 80.8188L129.534 80.8228Z" fill="black"/>
<path d="M102.471 39.8662V42.8112H102.055V40.2322H101.39V39.8662H102.471Z" fill="black"/>
<path d="M103.697 42.6672C103.508 42.5379 103.36 42.3571 103.27 42.1462C103.064 41.6277 103.064 41.0497 103.27 40.5312C103.36 40.3211 103.508 40.141 103.697 40.0122C103.882 39.8951 104.097 39.833 104.316 39.833C104.535 39.833 104.749 39.8951 104.934 40.0122C105.123 40.141 105.271 40.3211 105.361 40.5312C105.569 41.0495 105.569 41.6279 105.361 42.1462C105.272 42.3571 105.123 42.5379 104.934 42.6672C104.749 42.7835 104.535 42.8451 104.316 42.8451C104.097 42.8451 103.883 42.7835 103.697 42.6672ZM104.884 42.1812C105.024 41.9227 105.097 41.6335 105.097 41.3397C105.097 41.0459 105.024 40.7567 104.884 40.4982C104.819 40.4082 104.734 40.3348 104.635 40.2843C104.537 40.2337 104.427 40.2073 104.316 40.2073C104.205 40.2073 104.096 40.2337 103.997 40.2843C103.898 40.3348 103.813 40.4082 103.748 40.4982C103.609 40.7568 103.536 41.046 103.536 41.3397C103.536 41.6334 103.609 41.9226 103.748 42.1812C103.813 42.2712 103.898 42.3446 103.997 42.3951C104.096 42.4457 104.205 42.4721 104.316 42.4721C104.427 42.4721 104.537 42.4457 104.635 42.3951C104.734 42.3446 104.819 42.2712 104.884 42.1812Z" fill="black"/>
<path d="M106.348 42.3421C106.4 42.396 106.428 42.4678 106.426 42.5421C106.427 42.5833 106.422 42.6243 106.411 42.6641C106.401 42.7031 106.383 42.7641 106.354 42.8461L106.154 43.4301H105.889L106.045 42.8031C105.993 42.7843 105.948 42.7493 105.916 42.7031C105.884 42.6556 105.867 42.5989 105.868 42.5411C105.867 42.5032 105.873 42.4653 105.887 42.4299C105.901 42.3945 105.922 42.3622 105.948 42.3351C105.975 42.3089 106.006 42.2883 106.04 42.2746C106.075 42.2608 106.111 42.2542 106.148 42.2551C106.186 42.2535 106.223 42.2599 106.257 42.2741C106.292 42.2882 106.323 42.3098 106.348 42.3371" fill="black"/>
<path d="M107.357 42.6672C107.168 42.5379 107.02 42.3571 106.93 42.1462C106.724 41.6277 106.724 41.0497 106.93 40.5312C107.02 40.3211 107.169 40.141 107.357 40.0122C107.543 39.8951 107.757 39.833 107.976 39.833C108.195 39.833 108.409 39.8951 108.594 40.0122C108.783 40.141 108.931 40.3211 109.021 40.5312C109.229 41.0495 109.229 41.6279 109.021 42.1462C108.932 42.3571 108.784 42.5379 108.594 42.6672C108.409 42.7835 108.195 42.8451 107.976 42.8451C107.757 42.8451 107.543 42.7835 107.357 42.6672ZM108.544 42.1812C108.684 41.9227 108.757 41.6335 108.757 41.3397C108.757 41.0459 108.684 40.7567 108.544 40.4982C108.48 40.4082 108.394 40.3348 108.296 40.2843C108.197 40.2337 108.087 40.2073 107.976 40.2073C107.866 40.2073 107.756 40.2337 107.657 40.2843C107.559 40.3348 107.473 40.4082 107.408 40.4982C107.269 40.7568 107.196 41.046 107.196 41.3397C107.196 41.6334 107.269 41.9226 107.408 42.1812C107.473 42.2712 107.559 42.3446 107.657 42.3951C107.756 42.4457 107.866 42.4721 107.976 42.4721C108.087 42.4721 108.197 42.4457 108.296 42.3951C108.394 42.3446 108.48 42.2712 108.544 42.1812Z" fill="black"/>
<path d="M110.164 42.6672C109.975 42.5379 109.827 42.3571 109.737 42.1462C109.53 41.6277 109.53 41.0497 109.737 40.5312C109.827 40.3211 109.975 40.141 110.164 40.0122C110.349 39.8951 110.564 39.833 110.783 39.833C111.002 39.833 111.216 39.8951 111.401 40.0122C111.59 40.141 111.738 40.3211 111.828 40.5312C112.036 41.0495 112.036 41.6279 111.828 42.1462C111.738 42.3571 111.59 42.5379 111.401 42.6672C111.216 42.7835 111.001 42.8451 110.783 42.8451C110.564 42.8451 110.349 42.7835 110.164 42.6672ZM111.351 42.1812C111.491 41.9227 111.564 41.6335 111.564 41.3397C111.564 41.0459 111.491 40.7567 111.351 40.4982C111.286 40.4082 111.201 40.3348 111.102 40.2843C111.003 40.2337 110.894 40.2073 110.783 40.2073C110.672 40.2073 110.563 40.2337 110.464 40.2843C110.365 40.3348 110.28 40.4082 110.215 40.4982C110.076 40.7568 110.003 41.046 110.003 41.3397C110.003 41.6334 110.076 41.9226 110.215 42.1812C110.28 42.2712 110.365 42.3446 110.464 42.3951C110.563 42.4457 110.672 42.4721 110.783 42.4721C110.894 42.4721 111.003 42.4457 111.102 42.3951C111.201 42.3446 111.286 42.2712 111.351 42.1812Z" fill="black"/>
<path d="M84.9922 67.6478V68.0138H82.8763V67.7278L84.0762 66.5698C84.194 66.4656 84.2936 66.3426 84.3712 66.2058C84.4204 66.1098 84.4464 66.0037 84.4473 65.8958C84.4506 65.8274 84.4377 65.7592 84.4095 65.6968C84.3814 65.6344 84.3388 65.5796 84.2852 65.5368C84.1492 65.4427 83.9854 65.3972 83.8203 65.4078C83.6786 65.3997 83.537 65.4244 83.4064 65.4798C83.2758 65.5353 83.1597 65.6202 83.0672 65.7278L82.7812 65.4798C82.9024 65.3347 83.0577 65.222 83.2332 65.1518C83.4316 65.0711 83.6441 65.031 83.8582 65.0338C84.1218 65.0198 84.382 65.0979 84.5942 65.2548C84.6839 65.3263 84.7554 65.4178 84.803 65.5221C84.8506 65.6263 84.8729 65.7403 84.8682 65.8548C84.869 66.0092 84.8348 66.1616 84.7682 66.3008C84.6693 66.4818 84.5397 66.6442 84.3852 66.7808L83.4852 67.6468L84.9922 67.6478Z" fill="#4A1815"/>
<path d="M85.9069 67.8703C85.718 67.7407 85.5699 67.56 85.4799 67.3493C85.2723 66.831 85.2723 66.2526 85.4799 65.7343C85.5699 65.5241 85.718 65.3441 85.9069 65.2153C86.0922 65.0983 86.3068 65.0361 86.5259 65.0361C86.745 65.0361 86.9596 65.0983 87.1449 65.2153C87.3338 65.3441 87.4819 65.5241 87.5719 65.7343C87.7787 66.2528 87.7787 66.8308 87.5719 67.3493C87.4819 67.56 87.3338 67.7407 87.1449 67.8703C86.9594 67.9866 86.7449 68.0483 86.5259 68.0483C86.3069 68.0483 86.0924 67.9866 85.9069 67.8703ZM87.0939 67.3843C87.2332 67.1257 87.306 66.8365 87.306 66.5428C87.306 66.249 87.2332 65.9599 87.0939 65.7013C87.0291 65.6111 86.9437 65.5375 86.8448 65.4868C86.746 65.4361 86.6365 65.4097 86.5254 65.4097C86.4143 65.4097 86.3048 65.4361 86.2059 65.4868C86.1071 65.5375 86.0217 65.6111 85.9569 65.7013C85.8176 65.9599 85.7448 66.249 85.7448 66.5428C85.7448 66.8365 85.8176 67.1257 85.9569 67.3843C86.0217 67.4745 86.1071 67.548 86.2059 67.5987C86.3048 67.6494 86.4143 67.6759 86.5254 67.6759C86.6365 67.6759 86.746 67.6494 86.8448 67.5987C86.9437 67.548 87.0291 67.4745 87.0939 67.3843Z" fill="#4A1815"/>
<path d="M88.5593 67.5462C88.6101 67.6003 88.638 67.6719 88.6373 67.7462C88.6375 67.7873 88.6324 67.8283 88.6223 67.8682C88.6133 67.9072 88.5943 67.9682 88.5663 68.0502L88.3663 68.6342H88.1003L88.2563 68.0072C88.2041 67.9881 88.1593 67.9531 88.1283 67.9072C88.0951 67.8598 88.0779 67.803 88.0793 67.7452C88.078 67.7071 88.0845 67.6692 88.0985 67.6338C88.1124 67.5984 88.1334 67.5662 88.1602 67.5392C88.1864 67.5129 88.2176 67.4923 88.252 67.4785C88.2864 67.4648 88.3232 67.4582 88.3603 67.4592C88.3975 67.4578 88.4346 67.4644 88.4691 67.4785C88.5036 67.4926 88.5347 67.514 88.5603 67.5412" fill="#4A1815"/>
<path d="M89.568 67.8703C89.3789 67.741 89.2307 67.5602 89.141 67.3493C88.9335 66.831 88.9335 66.2526 89.141 65.7343C89.231 65.5242 89.3792 65.3441 89.568 65.2153C89.7531 65.0983 89.9676 65.0361 90.1865 65.0361C90.4055 65.0361 90.62 65.0983 90.805 65.2153C90.9939 65.3441 91.142 65.5242 91.232 65.7343C91.4395 66.2527 91.4395 66.831 91.232 67.3493C91.1424 67.5602 90.9942 67.741 90.805 67.8703C90.6197 67.9866 90.4053 68.0482 90.1865 68.0482C89.9677 68.0482 89.7534 67.9866 89.568 67.8703ZM90.755 67.3843C90.8947 67.1258 90.9679 66.8366 90.9679 66.5428C90.9679 66.249 90.8947 65.9598 90.755 65.7013C90.6902 65.6113 90.6049 65.538 90.5061 65.4874C90.4074 65.4368 90.298 65.4104 90.187 65.4104C90.0761 65.4104 89.9667 65.4368 89.868 65.4874C89.7692 65.538 89.6839 65.6113 89.619 65.7013C89.4798 65.96 89.4069 66.2491 89.4069 66.5428C89.4069 66.8366 89.4798 67.1257 89.619 67.3843C89.6839 67.4744 89.7692 67.5477 89.868 67.5983C89.9667 67.6488 90.0761 67.6752 90.187 67.6752C90.298 67.6752 90.4074 67.6488 90.5061 67.5983C90.6049 67.5477 90.6902 67.4744 90.755 67.3843Z" fill="#4A1815"/>
<path d="M93.5864 66.3365C93.7358 66.4044 93.8619 66.5147 93.949 66.6538C94.0362 66.7928 94.0805 66.9544 94.0764 67.1185C94.0804 67.2913 94.033 67.4615 93.9404 67.6075C93.8484 67.7488 93.7189 67.8616 93.5664 67.9335C93.4002 68.0121 93.2182 68.0514 93.0344 68.0485C92.8627 68.0587 92.6911 68.0294 92.5325 67.9631C92.3739 67.8967 92.2326 67.7949 92.1194 67.6655C91.8864 67.3536 91.7722 66.9689 91.7974 66.5805C91.7888 66.2906 91.8487 66.0028 91.9724 65.7405C92.0781 65.5201 92.2478 65.3368 92.4594 65.2145C92.6828 65.0918 92.9345 65.03 93.1894 65.0355C93.3239 65.0349 93.4581 65.0497 93.5894 65.0795C93.7048 65.1049 93.8155 65.1484 93.9174 65.2085L93.7574 65.5365C93.5869 65.4363 93.3908 65.3883 93.1934 65.3985C93.06 65.3912 92.9266 65.4128 92.8023 65.4618C92.6781 65.5109 92.5659 65.5861 92.4734 65.6825C92.2845 65.915 92.1912 66.2107 92.2124 66.5095C92.2106 66.5428 92.2106 66.5762 92.2124 66.6095C92.298 66.4822 92.4185 66.3822 92.5594 66.3215C92.7171 66.2531 92.8875 66.219 93.0594 66.2215C93.2384 66.2181 93.4158 66.2554 93.5784 66.3305M93.4784 67.5465C93.5379 67.495 93.5851 67.4308 93.6164 67.3586C93.6478 67.2864 93.6625 67.2081 93.6594 67.1295C93.6626 67.0509 93.6479 66.9727 93.6161 66.9007C93.5844 66.8288 93.5366 66.7651 93.4764 66.7145C93.3368 66.606 93.1629 66.5513 92.9864 66.5605C92.8651 66.5583 92.7449 66.5843 92.6354 66.6365C92.5384 66.6825 92.4555 66.7536 92.3954 66.8425C92.3405 66.9283 92.3114 67.0281 92.3114 67.13C92.3114 67.2319 92.3405 67.3316 92.3954 67.4175C92.4546 67.5072 92.5377 67.5786 92.6354 67.6235C92.7533 67.6783 92.8824 67.705 93.0124 67.7015C93.1831 67.7087 93.3507 67.6533 93.4834 67.5455" fill="#4A1815"/>
<path d="M84.7112 72.251C84.7864 72.326 84.8453 72.4156 84.8844 72.5144C84.9234 72.6131 84.9417 72.7189 84.9382 72.825C84.9403 72.9862 84.8966 73.1446 84.8122 73.282C84.7204 73.4241 84.5895 73.5366 84.4352 73.606C84.2424 73.6913 84.0329 73.7323 83.8222 73.726C83.6168 73.7269 83.4126 73.6951 83.2172 73.632C83.0419 73.5792 82.8799 73.4896 82.7422 73.369L82.9362 73.038C83.0485 73.1392 83.1802 73.2168 83.3232 73.266C83.4836 73.3236 83.6528 73.3528 83.8232 73.352C84.0044 73.3632 84.1842 73.3147 84.3352 73.214C84.3945 73.1698 84.4422 73.1119 84.4741 73.0451C84.506 72.9784 84.5211 72.9049 84.5182 72.831C84.5216 72.7578 84.5068 72.6849 84.4752 72.6188C84.4436 72.5527 84.3962 72.4954 84.3372 72.452C84.1735 72.3509 83.9822 72.3037 83.7902 72.317H83.5542V72.022L84.2952 71.113H82.8762V70.751H84.8212V71.038L84.0502 71.99C84.2948 71.9988 84.5286 72.0929 84.7112 72.256" fill="#4A1815"/>
<path d="M87.378 73.3276V73.6936H85.261V73.4076L86.461 72.2496C86.5786 72.1452 86.6782 72.0222 86.756 71.8856C86.8052 71.7896 86.8312 71.6834 86.832 71.5756C86.8354 71.5072 86.8225 71.439 86.7943 71.3765C86.7662 71.3141 86.7236 71.2593 86.67 71.2166C86.534 71.1224 86.3701 71.0769 86.205 71.0876C86.0634 71.0794 85.9217 71.1041 85.7912 71.1596C85.6606 71.2151 85.5445 71.2999 85.452 71.4076L85.165 71.1596C85.2866 71.0145 85.4423 70.9018 85.618 70.8316C85.8163 70.7506 86.0289 70.7104 86.243 70.7136C86.5069 70.6993 86.7676 70.7774 86.98 70.9346C87.0694 71.0062 87.1406 71.0978 87.188 71.2021C87.2354 71.3063 87.2577 71.4202 87.253 71.5346C87.2538 71.6889 87.2196 71.8414 87.153 71.9806C87.0543 72.1616 86.9246 72.3241 86.77 72.4606L85.87 73.3266L87.378 73.3276Z" fill="#4A1815"/>
<path d="M88.2429 73.225C88.2941 73.2788 88.3222 73.3506 88.3209 73.4249C88.3211 73.4661 88.3161 73.5071 88.3059 73.547C88.2959 73.586 88.2779 73.647 88.2489 73.729L88.0489 74.313H87.7839L87.9399 73.686C87.8874 73.6671 87.8422 73.6321 87.8109 73.586C87.7781 73.5384 87.7613 73.4817 87.7629 73.424C87.7615 73.386 87.7679 73.3481 87.7816 73.3127C87.7954 73.2773 87.8162 73.245 87.8429 73.2179C87.8691 73.1917 87.9003 73.1711 87.9347 73.1574C87.969 73.1436 88.0059 73.137 88.0429 73.138C88.0802 73.1363 88.1174 73.1427 88.1519 73.1569C88.1865 73.1711 88.2175 73.1926 88.2429 73.22" fill="#4A1815"/>
<path d="M90.4897 72.16C90.5875 72.237 90.6656 72.336 90.7178 72.449C90.7699 72.5619 90.7946 72.6857 90.7897 72.81C90.7921 72.9747 90.7492 73.137 90.6657 73.279C90.5766 73.4232 90.4463 73.5375 90.2917 73.607C90.0979 73.6925 89.8874 73.7335 89.6757 73.727C89.472 73.7279 89.2694 73.6962 89.0757 73.633C88.8992 73.5797 88.7357 73.4901 88.5957 73.37L88.7887 73.038C88.901 73.1401 89.0331 73.218 89.1767 73.267C89.3369 73.3254 89.5062 73.3545 89.6767 73.353C89.8592 73.3641 90.0403 73.3145 90.1917 73.212C90.2511 73.1674 90.2987 73.1091 90.3306 73.042C90.3625 72.975 90.3776 72.9012 90.3747 72.827C90.3788 72.7487 90.3626 72.6707 90.3275 72.6006C90.2925 72.5305 90.2398 72.4707 90.1747 72.427C89.9621 72.3188 89.7235 72.2717 89.4857 72.291H88.8157L88.9717 70.75H90.6347V71.117H89.3107L89.2297 71.924H89.5577C89.8849 71.8979 90.2114 71.9817 90.4857 72.162" fill="#4A1815"/>
<path d="M91.7217 73.549C91.5326 73.4197 91.3844 73.2389 91.2947 73.028C91.088 72.5096 91.088 71.9315 91.2947 71.413C91.3847 71.2029 91.5329 71.0228 91.7217 70.894C91.9068 70.777 92.1213 70.7148 92.3402 70.7148C92.5592 70.7148 92.7737 70.777 92.9587 70.894C93.1476 71.0228 93.2957 71.2029 93.3857 71.413C93.5933 71.9314 93.5933 72.5097 93.3857 73.028C93.2961 73.2389 93.1479 73.4197 92.9587 73.549C92.7734 73.6653 92.559 73.727 92.3402 73.727C92.1214 73.727 91.9071 73.6653 91.7217 73.549ZM92.9087 73.063C93.0484 72.8045 93.1215 72.5154 93.1215 72.2215C93.1215 71.9277 93.0484 71.6385 92.9087 71.38C92.8439 71.29 92.7586 71.2167 92.6598 71.1661C92.561 71.1155 92.4517 71.0891 92.3407 71.0891C92.2298 71.0891 92.1204 71.1155 92.0216 71.1661C91.9229 71.2167 91.8376 71.29 91.7727 71.38C91.6335 71.6387 91.5606 71.9278 91.5606 72.2215C91.5606 72.5153 91.6335 72.8044 91.7727 73.063C91.8376 73.1531 91.9229 73.2264 92.0216 73.277C92.1204 73.3275 92.2298 73.3539 92.3407 73.3539C92.4517 73.3539 92.561 73.3275 92.6598 73.277C92.7586 73.2264 92.8439 73.1531 92.9087 73.063Z" fill="#4A1815"/>
<path d="M69.9897 68.9825V74.5955H69.1967V69.6805H67.9297V68.9805L69.9897 68.9825Z" fill="#4A1815"/>
<path d="M75.3537 73.1915H72.3707L71.7537 74.5915H70.9307L73.4717 68.9785H74.2657L76.8147 74.5915H75.9727L75.3537 73.1915ZM75.0727 72.5505L73.8617 69.8005L72.6507 72.5505H75.0727Z" fill="#4A1815"/>
<path d="M84.7112 77.7286C84.7864 77.8036 84.8453 77.8933 84.8844 77.992C84.9234 78.0908 84.9417 78.1965 84.9382 78.3026C84.9403 78.4638 84.8966 78.6223 84.8122 78.7596C84.7204 78.9017 84.5895 79.0142 84.4352 79.0836C84.2424 79.169 84.0329 79.21 83.8222 79.2036C83.6168 79.2045 83.4126 79.1728 83.2172 79.1096C83.0419 79.0569 82.8799 78.9672 82.7422 78.8466L82.9362 78.5146C83.0483 78.6164 83.18 78.6943 83.3232 78.7436C83.4836 78.8013 83.6528 78.8304 83.8232 78.8296C84.0044 78.8409 84.1842 78.7924 84.3352 78.6916C84.3945 78.6474 84.4421 78.5894 84.474 78.5227C84.5058 78.456 84.521 78.3825 84.5182 78.3086C84.5216 78.2354 84.5068 78.1625 84.4752 78.0964C84.4436 78.0303 84.3962 77.973 84.3372 77.9296C84.1735 77.8285 83.9822 77.7813 83.7902 77.7946H83.5542V77.4996L84.2952 76.5906H82.8762V76.2246H84.8212V76.5116L84.0502 77.4626C84.2949 77.4721 84.5286 77.5665 84.7112 77.7296" fill="#4A1815"/>
<path d="M87.0571 77.6356C87.1549 77.7125 87.233 77.8116 87.2852 77.9246C87.3373 78.0375 87.362 78.1613 87.3571 78.2856C87.3595 78.4503 87.3166 78.6125 87.2331 78.7546C87.144 78.8988 87.0137 79.013 86.8591 79.0826C86.6653 79.1681 86.4548 79.2091 86.2431 79.2026C86.0393 79.2035 85.8368 79.1718 85.6431 79.1086C85.4665 79.0553 85.3031 78.9657 85.1631 78.8456L85.3561 78.5136C85.4684 78.6156 85.6005 78.6936 85.7441 78.7426C85.9043 78.801 86.0736 78.8301 86.2441 78.8286C86.4266 78.8396 86.6076 78.79 86.7591 78.6876C86.8185 78.643 86.8661 78.5847 86.898 78.5176C86.9299 78.4506 86.945 78.3768 86.9421 78.3026C86.9462 78.2243 86.93 78.1463 86.8949 78.0762C86.8598 78.0061 86.8072 77.9463 86.7421 77.9026C86.5294 77.7943 86.2909 77.7473 86.0531 77.7666H85.3831L85.5391 76.2256H87.1891V76.5926H85.8801L85.7991 77.3996H86.1271C86.4543 77.3735 86.7808 77.4573 87.0551 77.6376" fill="#4A1815"/>
<path d="M88.1804 78.6995C88.2314 78.7535 88.2594 78.8252 88.2583 78.8995C88.2586 78.9407 88.2535 78.9817 88.2433 79.0215C88.2343 79.0605 88.2153 79.1215 88.1873 79.2035L87.9874 79.7875H87.7214L87.8774 79.1605C87.8252 79.1415 87.7805 79.1065 87.7494 79.0605C87.7162 79.0131 87.699 78.9564 87.7003 78.8985C87.6991 78.8605 87.7056 78.8226 87.7195 78.7871C87.7335 78.7517 87.7545 78.7195 87.7814 78.6925C87.8075 78.6663 87.8387 78.6456 87.8731 78.6319C87.9075 78.6181 87.9443 78.6115 87.9814 78.6125C88.0186 78.611 88.0558 78.6175 88.0903 78.6317C88.1248 78.6458 88.1559 78.6673 88.1814 78.6945" fill="#4A1815"/>
<path d="M90.7686 78.8032V79.1692H88.6526V78.8832L89.8526 77.7252C89.9702 77.6207 90.0698 77.4978 90.1476 77.3612C90.1967 77.2652 90.2228 77.159 90.2236 77.0512C90.227 76.9828 90.2141 76.9145 90.1859 76.8521C90.1578 76.7897 90.1152 76.7349 90.0616 76.6922C89.9256 76.598 89.7617 76.5525 89.5966 76.5632C89.455 76.555 89.3133 76.5797 89.1827 76.6352C89.0521 76.6907 88.9361 76.7755 88.8436 76.8832L88.5566 76.6352C88.6782 76.4901 88.8339 76.3774 89.0096 76.3072C89.2079 76.2262 89.4205 76.186 89.6346 76.1892C89.8985 76.1749 90.1592 76.253 90.3716 76.4102C90.461 76.4818 90.5322 76.5734 90.5796 76.6776C90.627 76.7819 90.6493 76.8958 90.6446 77.0102C90.6454 77.1645 90.6112 77.317 90.5446 77.4562C90.4459 77.6372 90.3163 77.7997 90.1616 77.9362L89.2616 78.8022L90.7686 78.8032Z" fill="#4A1815"/>
<path d="M93.1846 78.8031V79.1691H91.0686V78.8831L92.2686 77.7251C92.3863 77.6209 92.486 77.4979 92.5636 77.3611C92.6127 77.2651 92.6388 77.159 92.6396 77.0511C92.643 76.9827 92.6301 76.9145 92.6019 76.8521C92.5738 76.7897 92.5312 76.7348 92.4776 76.6921C92.3416 76.5979 92.1777 76.5525 92.0126 76.5631C91.871 76.555 91.7293 76.5796 91.5987 76.6351C91.4681 76.6906 91.3521 76.7755 91.2596 76.8831L90.9736 76.6351C91.0948 76.49 91.2501 76.3773 91.4256 76.3071C91.624 76.2263 91.8365 76.1862 92.0506 76.1891C92.3142 76.175 92.5744 76.2532 92.7866 76.4101C92.8761 76.4817 92.9474 76.5733 92.9948 76.6775C93.0423 76.7817 93.0645 76.8957 93.0596 77.0101C93.0604 77.1644 93.0262 77.3169 92.9596 77.4561C92.8606 77.637 92.7311 77.7994 92.5766 77.9361L91.6766 78.8021L93.1846 78.8031Z" fill="#4A1815"/>
<path d="M80.0752 81.2701V61.9141" stroke="#4A1815" stroke-width="0.425" stroke-miterlimit="10"/>
<path d="M140.666 0H138.983V14.066H140.666V0Z" fill="#4A1815"/>
<path d="M140.606 0H134.715V12.984H140.606V0Z" fill="#4A1815"/>
<path d="M140.666 40.6348H138.983V61.4928H140.666V40.6348Z" fill="#4A1815"/>
<path d="M140.606 41.7168H134.715V60.4108H140.606V41.7168Z" fill="#4A1815"/>
<path d="M140.666 94.9141H138.983V108.018H140.666V94.9141Z" fill="#4A1815"/>
<path d="M140.606 95.9961H134.715V108.018H140.606V95.9961Z" fill="#4A1815"/>
<path d="M136.158 0H16.959V4.268H136.158V0Z" fill="#4A1815"/>
<path d="M137.78 53.1377H79.834V54.5207H137.78V53.1377Z" fill="#4A1815"/>
<path d="M135.797 103.69H25.6152V107.958H135.797V103.69Z" fill="#4A1815"/>
<path d="M117.945 83.6738H115.901V104.472H117.945V83.6738Z" fill="#4A1815"/>
<path d="M70.1574 4.02734H68.7744V35.4653H70.1574V4.02734Z" fill="#4A1815"/>
<path d="M81.0961 34.1426H55.3691V35.4646H81.0961V34.1426Z" fill="#4A1815"/>
<path d="M41.6654 34.1426H20.0254V35.4646H41.6654V34.1426Z" fill="#4A1815"/>
<path d="M81.156 34.1426H79.834V37.6896H81.156V34.1426Z" fill="#4A1815"/>
<path d="M28.079 3.54688H16.959V35.4659H28.079V3.54688Z" fill="#4A1815"/>
<path d="M18.342 33.3613H16.959V36.3673H18.342V33.3613Z" fill="#4A1815"/>
<path d="M18.342 53.2578H16.959V56.2638H18.342V53.2578Z" fill="#4A1815"/>
<path d="M21.167 54.1592H16.959V63.4762H21.167V54.1592Z" fill="#4A1815"/>
<path d="M28.5 62.0342H16.959V107.958H28.5V62.0342Z" fill="#4A1815"/>
<path d="M16.9589 36.4268H0.12793" stroke="#4A1815" stroke-width="0.85" stroke-miterlimit="10"/>
<path d="M0.127958 36.4268C0.123874 38.6382 0.556433 40.8287 1.40082 42.8725C2.24521 44.9164 3.48482 46.7735 5.04854 48.3372C6.61225 49.9009 8.46931 51.1405 10.5132 51.9849C12.5571 52.8293 14.7475 53.2618 16.959 53.2578" stroke="#4A1815" stroke-width="0.425" stroke-miterlimit="10"/>
<path d="M138.983 40.6354V14.0664" stroke="#4A1815" stroke-width="0.425" stroke-miterlimit="10"/>
<path d="M134.715 41.7174V12.9844" stroke="#4A1815" stroke-width="0.425" stroke-miterlimit="10"/>
<path d="M137.961 41.7174V12.9844" stroke="#4A1815" stroke-width="0.425" stroke-miterlimit="10"/>
<path d="M138.983 94.9142V61.4932" stroke="#4A1815" stroke-width="0.425" stroke-miterlimit="10"/>
<path d="M134.715 95.9961V60.4111" stroke="#4A1815" stroke-width="0.425" stroke-miterlimit="10"/>
<path d="M137.961 95.9961V60.4111" stroke="#4A1815" stroke-width="0.425" stroke-miterlimit="10"/>
<path d="M116.261 54.5195V63.1155" stroke="#4A1815" stroke-width="0.425" stroke-miterlimit="10"/>
<path d="M116.922 54.5195V63.1155" stroke="#4A1815" stroke-width="0.425" stroke-miterlimit="10"/>
<path d="M117.583 54.5195V63.1155" stroke="#4A1815" stroke-width="0.425" stroke-miterlimit="10"/>
<path d="M116.261 63.1162H117.583" stroke="#4A1815" stroke-width="0.425" stroke-miterlimit="10"/>
<path d="M116.261 83.6736V75.0176" stroke="#4A1815" stroke-width="0.425" stroke-miterlimit="10"/>
<path d="M116.922 83.6736V75.0176" stroke="#4A1815" stroke-width="0.425" stroke-miterlimit="10"/>
<path d="M117.583 83.6736V75.0176" stroke="#4A1815" stroke-width="0.425" stroke-miterlimit="10"/>
<path d="M116.261 75.0176H117.583" stroke="#4A1815" stroke-width="0.425" stroke-miterlimit="10"/>
<path d="M56.6923 62.0938H27.7793V63.4158H56.6923V62.0938Z" fill="#4A1815"/>
<path d="M56.7521 53.1377H55.3691V63.4767H56.7521V53.1377Z" fill="#4A1815"/>
<path d="M80.4355 37.6895L74.6045 49.8315" stroke="#4A1815" stroke-width="0.85" stroke-miterlimit="10"/>
<path d="M41.0029 34.8037L52.5439 40.6347" stroke="#4A1815" stroke-width="0.85" stroke-miterlimit="10"/>
<path d="M117.344 63.1162H116.502V64.0782H117.344V63.1162Z" fill="#4A1815"/>
<path d="M117.344 74.0557H116.502V75.0177H117.344V74.0557Z" fill="#4A1815"/>
<path d="M116.501 74.0557H106.463" stroke="#4A1815" stroke-width="0.85" stroke-miterlimit="10"/>
<path d="M106.463 74.0556C106.468 71.3948 107.527 68.8444 109.408 66.9629C111.29 65.0814 113.84 64.0223 116.501 64.0176" stroke="#4A1815" stroke-width="0.425" stroke-miterlimit="10"/>
</g>
</g>
<defs>
<clipPath id="clip0_2042_4">
<rect width="140.666" height="108.018" fill="white"/>
</clipPath>
</defs>
</svg>
